<?xml version='1.0' encoding='utf-8'?>
<svg xmlns="http://www.w3.org/2000/svg" viewBox="0 0 841.9 595.3"><path d="m272.3 487.6 23.7-40.2 8-57.3 18.7-18.1 35.3-23 24.7-45.5 7.1-9.3 31.8-8.8 23.1-.5 14.7 6.3 30.7 51 24.8 44.5 15.6 48.5 12.1 25" fill="#7ac191" fill-rule="evenodd"/><path d="m431.1 284.7s.5.2 2 .3c4.9.3 9.6 1.4 14.3 2.7 2.8.8 4.8 2.4 6.1 5.1 2.3 5.1 4.6 10.3 7.3 15.3 2.4 4.4 5.5 8.5 8.2 12.8 4.1 6.6 8.1 13.2 12.1 19.8 1.7 2.8 3.3 5.6 4.9 8.5.5.8 1 1 1.8.6 1.9-1 3.9-1.7 5.5-3 4.7-3.6 10-6.1 15.3-8.5 2.6-1.2 5.3-.3 7.1 2.1 4.8 6.2 10.9 9.6 18.9 9.9 3.5.1 6.9.8 10.4 1.2 3.8.5 7.6.9 11.4 1.8 4.9 1.1 9.7 2.5 14.5 3.8.6.2 1.2.5 1.6 1 2.2 2.7 4.3 5.4 6.5 8.1.9 1.1 1.9 2.2 2.8 3.3 1.1 1.5 2.3 3 3.3 4.5 1.1 1.5 2.1 3.1 3.1 4.7 1.5 2.5 2.9 5 4.2 7.6.3.6.1 1.9-.3 2.2-.8.7-1.6 0-2.1-.9-2-3.6-3.8-7.4-6.2-10.8-2.4-3.5-5.3-6.7-8-9.9-1.5-1.8-3.1-3.6-4.8-5.3-2.6-2.6-5.8-3.8-9.4-4.4-2.7-.4-5.3-1.4-8-1.8-5.8-.8-11.6-1.4-17.5-2.2-3.6-.5-7.3-1-10.9-2-1.9-.5-3.5-1.9-5.1-3-2.7-1.9-5.2-4.1-7.9-6-1.7-1.2-3.5-.3-5.1.4-5.3 2.1-9.3 6-13.8 9.3-.9.7-1.9 1.3-2.8 2-.8.6-.9 1.4-.3 2.3 2.5 4.4 5 8.8 7.4 13.3 1.7 3.3 3.5 6.7 4.7 10.2 3 8.3 5.8 16.8 8.7 25.2 1 2.8 1.7 5.7 2.7 8.5.8 2.4 1.9 4.7 2.8 7 1.7 4.4 3.1 9 4.9 13.3 1.1 2.6 2.6 5 4 7.4.7 1.2 1.8 2.1 2.3 3.4.3.8.3 2.1-.1 2.8-.3.6-1.6 1.1-2.2.9-.7-.3-1.1-1.3-1.5-2.1-.5-1.1-.8-2.3-1.3-3.4-.6-1.3-1.5-2.5-2-3.8-2.4-5.9-4.8-11.8-7-17.8-1.9-5.3-3.6-10.7-5.3-16.1-2-6.3-4.1-12.5-6.1-18.8-1.7-5.5-4-10.7-6.9-15.7-3.1-5.4-6.3-10.7-9.4-16.2-2.8-5-5.4-10.1-8.2-15.1-2-3.6-4.2-7-6.5-10.4-3.7-5.5-7.6-10.9-11.2-16.5-2.2-3.5-3.8-7.3-5.7-11-1.5-2.8-2.9-5.7-4.6-8.4-.6-1-1.9-2-3.1-2.2-4.5-1.1-15.3-3.2-15.3-3.2s0 1.2-.2 2.4c0 5.5.9 9.6 3.6 14.2.5.9 1 1.9 1.3 3 .1.4-1.5 1.5-1.9 1.1-.6-.6-.9-1.5-1.3-2.2-1.2-2.1-2.2-4.2-3.6-6.1-1-1.4-.7-2.7-.6-4.2.2-2.2.1-8.3.1-8.3s-6.4-.2-9-.2c-3.3 0-11.4.2-11.4.2s-.3.4.1 1.8v.2c.2.8.1 1.7.4 2.6.5 2 .4 2.6-1.5 3.4-2.8 1.2-5.1 3-7.1 5.3-.7.8-1.6 1.7-2.5.6-1-1.1-.2-2 .8-2.7 1.9-1.5 3.9-3 5.8-4.6 1.4-1.2 1.4-6.2 1.4-6.2s-9.4 1.2-13.2 2.9c-1.2.6-2.6.8-3.9 1.2-2.5.8-5.1 1.6-7.6 2.4-4 1.2-6.6 4.1-8.2 7.6-3.2 6.8-7.1 13.2-11.2 19.5-3.3 5-6.1 10.3-9.3 15.4-2.3 3.8-5 7.3-7.1 11.2-2.1 3.8-5.5 6.1-8.6 8.8-3 2.6-6.5 4.6-9.8 6.8-4.8 3.1-9.7 6.1-14.4 9.4-4.6 3.1-8.6 7.1-11.3 11.9-2.8 5-5.1 10.2-5.9 16-.6 4.6-1.8 9.1-2.7 13.6-1.1 5.5-1.9 11.1-3.1 16.6-.9 4.5-2.3 9-3.2 13.5-1.7 7.9-5.8 14.8-9.7 21.8-3 5.3-5.4 10.9-8.1 16.3-.5 1.1-.8 2.5-2.6 1.9-1.4-.5-1.7-2-.8-3.7 3.6-6.5 7.2-13 10.9-19.5 3.1-5.4 5.6-10.9 7-17 1.8-7.9 3.6-15.8 5.4-23.7 1.2-5.4 2.2-10.8 3.4-16.1.4-1.6.2-2.8-1.3-3.7-2.4-1.5-4.8-3.3-7.3-4.6-2.7-1.5-5.6-1.2-8.3.2-3.9 1.9-7.2 4.5-10.3 7.5-3.3 3.2-6.6 6.3-9.9 9.5-.6.5-1.2 1-2 1.4-3.8 1.8-7.7 3.3-11.4 5.2-2.9 1.5-5.6 3.2-8.4 4.9-1.1.7-2.2 1.4-3.4 2-.5.2-1.5.3-1.7 0-.4-.4-.7-1.4-.4-1.9.4-.8 1.1-1.6 1.8-2 1.7-1 3.5-1.7 5.3-2.6 3-1.4 5.9-2.9 8.9-4.4 3.1-1.5 6.3-2.6 9.1-4.5 2.2-1.5 3.8-3.9 5.8-5.9 5.1-5.2 10.8-9.7 17.2-13.2 2.1-1.2 4.4-1.2 6.5-.1 3.1 1.6 6.2 3.4 9.2 5.2 1.5.9 1.7.9 2.4-.8 1.6-4.5 3.1-9.2 5.1-13.6.9-2.1 2.5-4.1 4.2-5.8 3.9-3.8 8-7.3 12.9-9.8 2.8-1.4 5.3-3.3 7.9-5 2.5-1.6 5-3.2 7.4-5 3.4-2.5 6.7-5 9.5-8.4 5-6.2 9.3-12.9 13.2-19.8 4.1-7.1 9-13.8 12.5-21.3 2.3-4.9 5.1-9.7 8.5-14 1.6-2 3.8-2.8 6.1-3.4 4.4-1.1 9-1.9 13.2-3.4 3-1 6-1.6 9.1-2.1 2.3-.4 2.6-.4 2.6-.4s-.6-7.6-.5-10.1c0-3.7.3-7.4.4-11 .1-2.5.1-5.1-.1-7.6-.1-.7-.8-1.7-1.5-2.1-5-2.6-9.9-5.4-15.1-7.6-3.1-1.3-4-2.6-3.8-6.3.8-12.8.8-25.7 1.3-38.5.1-2.2-1-3.8-1.9-5.4-4.1-6.7-8.4-13.2-12.6-19.8-.5-.7-1-1.4-1.6-2.1-1.3-1.6-1.1-2.4.6-3.5 4.5-2.7 15.9-9.6 15.9-9.6s.2-1 .2-3.3c.1-7.8.4-15.5.7-23.3.1-2.7.4-5.3.9-8 .1-.7.8-1.5 1.4-2 1.6-1.2 3.3-2.3 5.1-3.2 1.4-.7 2.9-1 4.6-.3 6.6 2.9 13.2 5.9 20 8.6 5.7 2.3 11.5 4.3 17.3 6.4 3 1.1 6 2.3 8.9 3.4 4.2 1.6 8.3 3.3 12.5 5 6.1 2.4 12.3 4.8 18.4 7.2 2.4.9 4.9 1.8 7.4 2.5 1.6.4 2.4 1.3 2.5 2.8.1 2.5.1 4.9 0 7.4-.6 10.9-1.3 21.9-1.9 32.8-.1 2-.3 6.7-.3 6.7s6.5 3.9 9.1 5.1c.4.2.8.3 1.2.5 2.5 1.4 2.5 2.6.4 4.5-5 4.4-9.1 9.5-12.7 15-.3.5-.5 1.2-.5 1.8-.3 4.3-.5 8.6-.7 13-.2 5.5-.3 11-.5 16.5 0 1.6-.1 3.2.1 4.8.1 1.6-.7 2.2-1.9 2.8-3.3 1.6-6.7 3.1-10 4.8-2.5 1.3-4.7 1.4-7.4.3-8.2-3.1-16.6-5.7-24.9-8.5-1.2-.4-2.3-.8-3.5-1.1-1.1-.3-1.6 0-1.6 1.2-.1 2.4-.5 20.1-.5 20.1zm-43.6-44.7c-.1 1.6.4 2.5 1.9 3.2 1.8.8 3.3 2 5.1 2.9 3.7 2 7.3 4.2 11.2 5.8 4.3 1.8 8.8 2.9 13.2 4.4 5.7 1.9 11.4 3.7 17.2 5.6 5.4 1.7 10.8 3.4 16.1 5.1 3 1 6 2.2 9 3.2 2.8.9 3.1.6 3.4-2.4.3-3.3.9-6.6 1.4-9.9 1.1-7.8 2.4-15.6 3.4-23.4.8-6.4 1.2-12.8 1.8-19.2.2-2.2.6-4.3.8-6.5.4-4.6.6-9.3.9-13.9.8-10.8 1.7-21.5 2.5-32.3.2-2.6.1-2.5-2.3-3.4-4.9-1.7-9.8-3.4-14.7-5.2-8.8-3.2-17.5-6.4-26.3-9.6-3.3-1.2-6.7-2.3-10.1-3.5-5.7-2-11.5-4-17.2-6-.9-.3-1.8-.6-2.7-1-3.3-1.3-6.6-2.7-9.9-4-.8-.3-1.5-.6-1.6.7-.4 8.8-1.4 28.7-1.4 28.7s4.1-3.2 5.7-2.6c1.2.4 2.5.8 3.7 1.2 2.5.9 4.9 1.7 7.3 2.6 1 .4 1.7 1.2 1.1 2.4s-1.4 1-2.6.6c-3.1-1.3-6.3-2.6-9.5-3.6-2-.6-5.9 3.2-5.9 3.2s-.5 10.6-.5 15.4c-.2 9.5-1 59.1-1 61.5zm96.9-79.8c.2-2.3-.2-2.6-2.2-1.5-1.3.7-2.5 1.4-3.7 2.3-.5.3-.8 1-.9 1.6-.3 2.2-.5 4.5-.7 6.7-.5 6.9-.9 13.9-1.4 20.8-.2 2.7-.7 5.4-.9 8.2-.3 4.6-.4 9.2-.8 13.8-.4 5.1-1 10.2-1.6 15.3-.4 3.9-.8 7.8-1.4 11.6-.6 4.7-1.4 9.5-2.1 14.2-.7 5-1.4 10-2.2 15.1-.3 1.7-.1 2 1.6 1.5 2.4-.8 4.7-1.9 7.1-2.8 2.6-1 2.6-1 2.7-3.7 0-.2 0-.4 0-.7.3-6.9.5-13.9.8-20.8.1-1.7.5-5.5.5-7.2 0-.3-2.9 9.7-3.3 10.2s-1.3 1-1.9.9c-.5-.1-1-.9-1.3-1.5-.2-.5 3.7-10.7 5.7-15 .5-1.2 1.2-2.3 1.4-3.6.6-5 1-9.9 1.6-14.9.4-3.5.4-3.6-2.9-4.9-1.1-.4-1.9-1-1.8-2.1.1-.7.6-1.8 1.1-1.9.7-.2 4.1 1.3 4.1 1.3s.3-6 .5-8.2c.7-11.6 1.4-23.2 2-34.7zm-76.7 112.6s.3 11.8.3 11.8.1.1 2.1 0c3.2-.1 6.3 0 9.5 0 2.6 0 5.2 0 7.8.1h1.4s.2-7 .2-9.8c0-3.5-.2-6.9-.2-10.4 0-1.7-.7-2.6-2.2-3-1.4-.4-2.8-.8-4.2-1.3-4.1-1.3-8.1-2.7-12.2-4-.9-.3-1.9-.8-2 1.1-.2 5.8-.2 9.7-.5 15.5zm69.4-115.3c0-.1 0-.1.1-.2.4 0 .9.1 1.3 0 .6-.3 1.2-.7 1.7-1.1-.5-.3-1-.6-1.5-.7-5-1.8-9.9-3.6-14.9-5.5-4.7-1.8-9.2-3.8-13.9-5.6-4.2-1.7-8.3-3.4-12.5-4.9-4.7-1.7-9.5-3.2-14.1-5-8.2-3.2-16.3-6.5-24.4-9.8-2-.8-3.4-.4-4.9 1.1-.7.7-.9 1.2.1 1.7 2.2 1.1 4.3 2.4 6.6 3.2 4.6 1.7 9.3 3.2 13.9 4.9 5 1.8 9.9 3.8 14.9 5.6 4.7 1.7 9.5 3 14.2 4.7 8.4 3.1 16.6 6.3 25 9.4 2.8.7 5.6 1.4 8.4 2.2zm-90.6 8.6c0-1.2 0-1.6 0-1.6s-7.9 4.9-11.2 7.1c-1.1.7-1.8 1.7-.8 3.1 2.9 4.5 5.6 9.1 8.5 13.6.9 1.5 3.1 4.6 3.2 4.8-.1-.2.2-22.6.3-27zm96.1 57.5c.2-.2 7.1-8.3 9.3-10.5.5-.5 1.1-1 0-1.5-2.2-.9-4.4-1.8-6.6-2.7-.7-.3-1-.2-1.1.6-.7 4.4-1.7 13.8-1.6 14.1z" fill-rule="evenodd"/><path d="m397.4 195.7c0 3.3.1 3.2 3.3 3.8 5 .9 10 1.7 14.5 4.2 1.5.8 3 0 3.6-1.6s1.5-3.1 2.1-4.7c.2-.5 0-1.1 0-1.7-.5.1-1.2.1-1.5.4-.8.9-1.4 1.8-2 2.8-.8 1.4-1.9 1.5-3.3 1.1-3-.9-6.1-1.7-9.2-2.5-2.5-.7-5.5-.7-5.8-4.3 0-.2-.5-.6-.8-.6-.2 0-.6.4-.7.7-.1.8-.1 1.6-.2 2.4zm5-29.2c-.2 0-.5 0-.7 0-.5.6-1.3 1.2-1.6 1.9-.3.9 1 2.5 1.8 2.2.7-.3 1.6-1.1 1.7-1.8 0-.7-.8-1.5-1.2-2.3zm17.4 8.5c.3 0 .6 0 .8-.1.4-.7 1-1.5 1.1-2.3.1-1.3-1-1.6-2.1-1.6-1.2 0-1.6.9-1.3 1.8.3.8 1 1.5 1.5 2.2z" fill="none"/><g fill-rule="evenodd"><path d="m397.4 195.7c0-.8 0-1.6.2-2.4 0-.3.4-.7.7-.7s.8.3.8.6c.4 3.6 3.3 3.6 5.8 4.3 3.1.8 6.1 1.6 9.2 2.5 1.4.4 2.5.3 3.3-1.1.6-1 1.2-2 2-2.8.3-.3 1-.3 1.5-.4 0 .6.2 1.2 0 1.7-.6 1.6-1.5 3.1-2.1 4.7s-2.1 2.4-3.6 1.6c-4.5-2.5-9.5-3.3-14.5-4.2-3.2-.6-3.2-.6-3.3-3.8z"/><path d="m402.4 166.5c1.1.2 1.3 1.6 1.2 2.3s-1 1.5-1.7 1.8c-.8.3-2.1-1.2-1.8-2.2.2-.7 1.2-2.1 2.3-1.9z"/><path d="m418.3 172.8c-.2-.9.6-1.8 1.5-2 1-.2 1.8.6 2 1.2s1 3-1.2 3c-2.1-.1-2.1-1.2-2.3-2.2z"/></g></svg>