<?xml version="1.0" encoding="UTF-8" standalone="no"?>
<svg
   xmlns:dc="http://purl.org/dc/elements/1.1/"
   xmlns:cc="http://creativecommons.org/ns#"
   xmlns:rdf="http://www.w3.org/1999/02/22-rdf-syntax-ns#"
   xmlns:svg="http://www.w3.org/2000/svg"
   xmlns="http://www.w3.org/2000/svg"
   xmlns:sodipodi="http://sodipodi.sourceforge.net/DTD/sodipodi-0.dtd"
   xmlns:inkscape="http://www.inkscape.org/namespaces/inkscape"
   viewBox="0 0 390.69744 198.31313"
   version="1.1"
   id="svg36"
   sodipodi:docname="cc-compartir-caja.svg"
   width="390.69745"
   height="198.31313"
   inkscape:version="0.92.3 (2405546, 2018-03-11)">
  <metadata
     id="metadata42">
    <rdf:RDF>
      <cc:Work
         rdf:about="">
        <dc:format>image/svg+xml</dc:format>
        <dc:type
           rdf:resource="http://purl.org/dc/dcmitype/StillImage" />
        <dc:title></dc:title>
      </cc:Work>
    </rdf:RDF>
  </metadata>
  <defs
     id="defs40" />
  <sodipodi:namedview
     pagecolor="#ffffff"
     bordercolor="#666666"
     borderopacity="1"
     objecttolerance="10"
     gridtolerance="10"
     guidetolerance="10"
     inkscape:pageopacity="0"
     inkscape:pageshadow="2"
     inkscape:window-width="1068"
     inkscape:window-height="597"
     id="namedview38"
     showgrid="false"
     inkscape:zoom="0.38840716"
     inkscape:cx="202.45001"
     inkscape:cy="90.750006"
     inkscape:window-x="1366"
     inkscape:window-y="30"
     inkscape:window-maximized="0"
     inkscape:current-layer="svg36"
     fit-margin-top="0"
     fit-margin-left="0"
     fit-margin-right="0"
     fit-margin-bottom="0" />
  <g
     id="g20"
     style="fill-rule:evenodd"
     transform="translate(-218.5,-190.08687)">
    <path
       d="m 280.1,285.6 34.1,-0.3 9.4,58.1 -36.3,4.1 z"
       id="path2"
       inkscape:connector-curvature="0"
       style="fill:#f0e400" />
    <path
       d="m 408,267.6 33.6,-3 0.3,10.6 -7.7,5.6 0.6,12.4 -17.1,0.6 z"
       id="path4"
       inkscape:connector-curvature="0"
       style="fill:#7bc290" />
    <path
       d="m 436.9,280.5 27.4,-7 5.3,3.2 -13.7,8.6 -5.2,3.2 1.2,5.9 h -14.4 z"
       id="path6"
       inkscape:connector-curvature="0"
       style="fill:#75c5bf" />
    <path
       d="m 492.3,272.9 0.3,8.2 -7.3,3.6 0.3,7.9 -27.2,2.7 -2.5,-10 z"
       id="path8"
       inkscape:connector-curvature="0"
       style="fill:#f0e400" />
    <path
       d="m 500.4,278.6 18.9,-6.2 v 4.8 l -4.7,12.9 -29.5,0.9 -0.3,-7.9 z"
       id="path10"
       inkscape:connector-curvature="0"
       style="fill:#7bc290" />
    <path
       d="m 519.8,278.8 28.3,-4.5 -1.5,11 -20,9.1 -10.7,-0.9 0.6,-10.6 z"
       id="path12"
       inkscape:connector-curvature="0"
       style="fill:#75c5bf" />
    <path
       d="m 393.8,307 c 0,-2.5 -0.2,-5.1 -0.4,-7.6 0,-0.6 -0.4,-1.2 -0.7,-1.7 -0.8,-1.4 -0.6,-2.6 0.7,-3.5 0.6,-0.4 1.3,-0.6 1.9,-0.9 5,-2 9.9,-4.1 14.7,-6.6 0.4,-0.2 0.8,-0.4 1.1,-0.6 1.1,-0.7 1.3,-1.1 0.8,-2.3 -0.4,-0.9 -0.6,-1 -1.6,-0.8 -3,0.7 -6,1.4 -9.1,2.2 -3.7,0.9 -7.4,0.7 -11.1,-0.2 -2.1,-0.5 -4,-1.4 -5.7,-2.7 -5.3,-3.9 -16.8,-12.6 -17.3,-13 -0.5,-0.4 -1,-0.7 -1.5,-1 v 1.7 c 0.5,4.6 4,35.8 4.5,40.1 0.2,2 0.5,4.1 0.7,6.1 0.1,0.7 0.1,1.4 0.2,2.1 0.1,1 -2.9,2.9 -3.7,3.2 -8.2,3.2 -16.4,6.3 -24.5,9.5 -2.6,1 -2.7,0.6 -2.5,3.8 0.1,1.8 1.1,28.7 1.2,32.9 0.1,2.8 0.9,5.3 2.6,7.5 2.3,2.9 8.4,8.2 8.5,8.3 0.4,0.5 0.9,1 0.3,1.7 -0.5,0.6 -2.3,1.2 -3,0.9 -0.3,-0.1 -7,-5.6 -10.1,-8.1 -1.4,-1.1 -2.1,-2.6 -2.1,-4.4 -0.1,-7.7 -1.1,-32.5 -1.4,-37.1 0,-0.6 -0.1,-1.1 -0.2,-1.7 -0.1,-0.5 -0.3,-0.8 -0.8,-0.5 -2.6,1.1 -5.2,2.2 -7.8,3.2 -1.1,0.5 -1.7,1.3 -1.5,2.5 0.1,0.7 0.2,3.5 0.1,4.2 -0.3,1.5 -0.8,1.9 -2.3,2.1 -1.1,0.1 -31.4,3.8 -31.7,3.9 -1.5,0.3 -2,0.7 -1.8,2.3 0.2,1.8 2.2,15.4 2.9,20.4 0.2,1.6 0.6,3.2 0.9,4.8 0.3,1.5 1.1,2.5 2.4,3.3 2.4,1.3 4.8,2.7 7.2,4.1 0.6,0.3 1.2,0.8 1.6,1.3 0.7,0.9 0.2,2 -0.9,2 -1,0 -2.2,-0.1 -3.1,-0.5 -3.1,-1.4 -6.1,-3 -9.1,-4.5 -1.2,-0.6 -1.7,-1.7 -1.8,-3.1 -0.5,-5.7 -2.5,-21.8 -2.9,-24.2 -0.1,-0.8 -0.2,-2.2 -0.4,-3 -0.3,-1 -1.4,-0.6 -2.4,-0.9 -1.9,-1.3 -0.6,-2.3 -1.7,-2 -0.8,0.2 -1.6,0.6 -2.4,0.9 -3.6,1.4 -13.2,4.9 -14.5,5.2 -2.3,0.5 -4.4,-0.1 -6.2,-1.5 -3.2,-2.6 -6.3,-5.2 -9.4,-8 -0.8,-0.7 -1.3,-1.9 -1.6,-2.9 -0.7,-3 -1.4,-6.1 -1.8,-9.2 -1,-8.1 -4.5,-40.1 -5.2,-48.1 -0.6,-7.1 -3.3,-35.6 -4.1,-42.7 -0.5,-4.4 -1.1,-8.7 -2.1,-13 -0.5,-1.8 0,-2.6 1.6,-3.1 10.9,-3.6 21.3,-8.4 32,-12.3 14.3,-5.2 28.7,-10.2 43.1,-15.3 9.3,-3.2 18.6,-6.3 27.8,-9.6 1.9,-0.7 3.6,-0.7 5.5,0.1 2.6,1.2 5.2,2.1 8,2.8 2.9,0.7 4.8,2.9 5.6,5.9 0.4,1.6 1.7,15.6 2.1,20.9 0.4,5.1 1.8,25.3 2.1,30.3 0.2,2.4 0.3,4.8 0.5,7.2 0.3,3.6 1.9,6.4 4.9,8.5 4.7,3.3 9.4,6.6 14.1,9.9 1.2,0.9 2.5,1.6 3.7,2.5 3.3,2.4 7,3.2 11,3.2 3.7,0 7.3,-1 10.7,-2.2 0.8,-0.3 1,-0.7 0.6,-1.4 -1.1,-2.4 -2.3,-4.9 -3.4,-7.3 -0.2,-0.5 -0.5,-1 -0.7,-1.5 -0.6,-1.5 0,-2.7 1.6,-3 2.5,-0.5 20.7,-2.8 27.3,-3.5 1.1,-0.1 2.3,-0.2 3.4,-0.4 0.6,-0.1 1.3,-0.3 1.7,-0.7 3.1,-3.2 6.8,-5.5 10.4,-8 5.1,-3.7 10,-7.6 14.6,-11.9 4,-3.8 8,-7.4 11.5,-11.6 1,-1.3 2.3,-1.7 3.9,-1.3 3.3,0.8 43.3,-0.7 46.4,-0.8 4,-0.2 8,-0.5 12.1,-0.6 3.2,-0.1 6.4,-0.1 9.6,-0.1 17.6,0 35.3,0 52.9,-0.1 1.7,0 3.4,-0.3 5.1,-0.4 1.8,-0.1 2.1,0.1 2.5,1.9 0.5,2.1 0.8,4.2 1.2,6.2 0.3,1.6 -0.1,2.9 -1.1,4.2 -2.7,3.4 -5.4,6.9 -8.2,10.3 -4.1,5 -8.4,10 -12.6,14.9 -1.1,1.2 -2.2,2.4 -3.4,3.5 -3,2.6 -5.7,5.5 -8.3,8.5 -1.3,1.5 -1.9,3.1 -1.8,5 0.3,3.8 0.4,7.6 0.7,11.4 0.4,4.2 2,30.4 2.2,34.2 0.3,3.9 0.7,7.9 1.1,11.8 0.4,3.4 0.8,6.7 1.2,10.1 0.2,1.8 -0.2,3.2 -2,4 -0.4,0.2 -4.4,3.5 -6.2,4.4 -7.5,3.7 -36.6,28.3 -37.4,29.1 -0.7,0.9 -3.1,0.5 -7.8,0.9 -4.7,0.4 -56.3,-0.3 -67.3,-0.3 -9.6,0 -59.2,0.4 -60.2,0.6 -1.8,0.2 -2.5,-0.4 -2.5,-2.2 0,-2.8 0,-5.7 -0.1,-8.5 0,-1.7 -0.1,-1.8 -1.8,-1.8 -5.7,0.2 -36.2,1.1 -37.7,1.3 -1.2,0.1 -2.3,0 -3.1,-0.9 -0.9,-1 -0.6,-2.1 0.6,-2.5 0.6,-0.2 1.2,-0.3 1.9,-0.3 1.4,0 28.6,-0.6 32.2,-0.6 2.2,0 4.4,-0.3 6.6,-0.4 0.8,0 1.1,-0.4 1.1,-1.2 -0.1,-2.5 -0.1,-5 -0.2,-7.4 -0.2,-6.9 -0.5,-13.7 -0.7,-20.6 -0.1,-2.4 -0.2,-4.8 -0.3,-7.2 0.3,-0.5 -0.1,-19.2 -0.2,-28.5 z m -27.2,8.4 c -0.4,-3.7 -0.9,-7.4 -1.3,-11.2 -0.8,-6.6 -1.6,-13.2 -2.4,-19.8 -0.8,-7.2 -1.6,-14.3 -2.3,-21.5 -0.7,-7.7 -1.4,-15.4 -2,-23 -0.4,-5.1 -1.3,-20.7 -1.6,-23.3 -0.3,-3.2 -1.6,-14.8 -2,-17.3 -0.2,-1.3 -0.6,-1.5 -1.9,-1.2 -1.2,0.3 -15.2,4.3 -20.8,6.5 -19.8,7.7 -73,27.2 -79.6,29.6 -2.1,0.8 -2.1,0.9 -2,3.1 0.1,2.7 1,22.5 1.2,29.7 0.1,4.9 0.9,9.7 1.5,14.5 1,7.2 2.2,14.4 3.1,21.6 0.4,2.6 1.5,4.7 3.5,6.3 4.9,3.7 19.5,4 19.5,4 0,0 -0.8,-8.3 -1.2,-11.6 -0.4,-3.9 -0.7,-7.9 -1,-11.8 -0.1,-0.7 0,-1.4 0.1,-2.1 0.3,-1.7 0.7,-2.1 2.4,-2.4 2.6,-0.5 5.1,-1.1 7.7,-1.5 3.6,-0.7 7.3,-1.2 10.9,-1.2 4.1,0 8.2,0.1 12.3,0.2 3.6,0 7.2,-0.3 10.8,0.1 2.3,0.2 2.5,0.5 2.5,2.7 v 14.9 c 0,4.5 -0.2,8.9 0,13.4 0.2,5.6 0.8,11.1 1.2,16.7 0.2,2.7 -0.2,3.2 3,2 5.6,-2.1 11.1,-4.2 16.6,-6.3 6.6,-2.5 15.5,-5.8 21.8,-8.9 z m 47.3,14.2 c -4.6,0.4 -15.1,1.2 -15.8,1.3 -0.3,0 -0.6,0.4 -0.7,0.6 -0.1,0.5 -0.1,1 0,1.5 0.2,4 1.1,21.7 1.3,26.5 0.3,7.6 0.5,15.1 0.7,22.7 0.1,2 2.4,1.9 2.5,1.9 5.6,-0.3 11.2,-0.6 16.7,-0.8 3.2,-0.1 59.6,0.6 69.4,0.1 6.4,-0.3 19.4,-0.1 19.5,-0.1 0,0 13.7,0.2 19.5,0.2 2.4,0 2.4,0 2.3,-2.3 -0.1,-2.8 -0.3,-5.7 -0.5,-8.5 -0.3,-5.5 -0.7,-11 -1,-16.5 -0.3,-5.9 -1,-25.9 -1.2,-29.9 -0.1,-1.7 -0.3,-1.9 -2,-2 -2.1,-0.1 -4.2,-0.1 -6.4,-0.1 -5.7,0.1 -39.6,2.1 -43,2.2 -5.5,0.4 -57,2.8 -61.3,3.2 z m 141.6,-51.2 c 1.5,-0.2 12.8,-3.6 15,-5.8 0.8,-0.8 1.1,-1.5 1.1,-2.5 -0.1,-2.3 -0.1,-4.5 -0.1,-6.8 0,-1.3 0.5,-2.3 1.7,-3 0.8,-0.5 21.2,-20.3 22.3,-21.5 0.1,-0.1 0.2,-0.4 0.2,-0.5 -0.2,-0.1 -0.4,-0.2 -0.6,-0.1 -1.5,0.1 -3.1,0.3 -4.6,0.5 -3.6,0.5 -7.2,0.8 -10.8,0.8 -16.3,0 -32.5,0 -48.8,0 -14.9,0 -29.9,0 -44.8,-0.1 -3.1,0 -5.5,1.1 -7.5,3.6 -4,5 -8.1,9.9 -12.4,14.6 -4.2,4.6 -14.2,14.4 -14.7,15 0.8,-0.1 10.1,-2 13.9,-2.9 2.9,-0.6 4.9,0.4 6.1,3.2 0.2,0.6 0.5,1.2 0.8,1.7 0.4,0.7 0.9,1 1.7,0.7 1.4,-0.4 13.2,-2.9 17.2,-5 1.4,-0.7 2.7,0.1 3,1.7 0.2,1 0.3,2 0.3,3 0,1 -0.1,2.7 0.8,2.9 1.6,0.3 19.3,-5.4 23.6,-6.8 1.3,-0.4 2.4,-0.3 3.4,0.5 1,0.9 1.1,0.6 1.3,2.9 0.2,2.3 1.2,2.2 1.7,2.1 2.4,-0.4 16.3,-2.7 20.7,-4.3 1.2,-0.4 2.4,-0.7 3.7,-1 2.4,-0.4 3.5,0.7 3.2,3.1 -0.5,2.7 0.1,5.2 2.6,4 z m -157,18.9 c -1.8,0 -1.9,0.2 -1.9,2 0,1.8 0.2,6.1 0.2,6.4 0.1,6.6 0.2,21 0.2,21.7 0,0.5 0.3,0.7 0.8,0.6 0.5,-0.1 16.7,-1.2 19.8,-1.5 3.2,-0.3 20.5,-1.1 26.1,-1.3 5.7,-0.2 17.5,-0.6 17.8,-0.6 4,-0.2 29.6,-1.5 31.5,-1.7 4.3,-0.5 28.6,-1.5 32.2,-1.6 1.1,0 1.4,-0.3 1.5,-1.3 0,-0.4 -0.8,-12.8 -1.1,-18.6 -0.1,-1.3 0.1,-5.3 -1.3,-5.4 -1.6,-0.2 -3.2,-0.4 -4.9,-0.4 -3.7,0 -21.7,0.4 -27,0.3 -6.4,-0.1 -39.3,0.4 -40,0.6 -0.7,0.1 -33.2,0.9 -38.7,1.1 z m 134.4,25.9 c -2.4,1.3 -2.8,2 -2.5,4.7 0.1,1.3 1.2,33.2 1.7,41.3 0.2,3.5 0.5,7.1 0.7,10.6 0.1,1.5 0.3,1.5 1.4,0.7 0.2,-0.1 11,-9 16.1,-13.5 5.1,-4.5 10.6,-8.5 16.6,-11.8 2.4,-1.3 4.6,-3.1 6.9,-4.6 1.7,-1.1 2.1,-2.6 1.7,-4.6 -1.7,-9.9 -2.8,-35.8 -2.9,-38.7 -0.1,-1 -0.1,-1 -1,-0.7 -3,1.1 -6,2.2 -8.9,3.3 z M 320.5,303.1 c 0,-4.6 0,-9.2 0,-13.8 0,-0.1 0,-0.1 0,-0.2 -0.1,-2.1 -0.4,-2.4 -2.5,-2.5 -0.2,0 -8.8,-0.5 -12.9,-0.8 -2.5,-0.2 -18.2,0.3 -23.2,2.2 -1.3,0.5 -1.5,0.8 -1.4,2.3 0,0.6 1,6.1 1.3,8.4 0.5,4.5 1.8,15.2 1.8,15.2 0,0 4.7,-0.4 5.9,-0.5 1.8,-0.3 3,1.2 2.4,2.9 -0.7,1.7 -1.8,2.6 -3.7,2.6 -0.6,0 -3.8,0.2 -3.8,0.2 0,0 1.1,13.4 1.9,18.8 0.2,1.7 0.5,3.4 0.8,5 0.5,2.8 0.4,4.1 2.9,4.1 2.8,-0.1 6.9,-1 9.6,-1.7 5.1,-1.3 10.3,-1.9 15.5,-1.9 1.9,0 3.8,-0.2 5.7,-0.4 1.6,-0.1 1.8,-0.4 1.9,-1.9 0.2,-5.1 -0.1,-10.2 -0.7,-15.2 -0.1,-0.1 -1.4,-22.8 -1.5,-22.8 z m 251.8,-1.2 c -0.1,-0.8 -0.1,-1.5 -0.2,-2.2 -0.4,-5.5 -1.3,-10.9 -1.2,-16.5 0,-1.2 -0.2,-2.4 -0.4,-3.6 -0.2,-1.5 -0.6,-1.8 -2.2,-1.4 -5.5,1.5 -11,3.2 -16,6.1 -0.8,0.5 -1.6,0.9 -2.5,1.2 -3.7,1.4 -7.4,2.7 -11.1,4.1 -2.8,1.1 -5.7,2.2 -8.5,3.3 -0.7,0.3 -1.3,0.5 -1.3,1.4 -0.1,3.8 -0.5,7.6 -0.1,11.4 0.5,4.7 0.7,9.4 1,14.2 0.1,1.3 0.1,1.3 1.4,0.7 2.8,-1.3 5.6,-2.7 8.4,-4 4.7,-2.1 9.5,-4 14.2,-6.2 5.7,-2.6 11.6,-4.8 17.6,-6.6 0.6,-0.2 0.8,-0.5 0.8,-1 0.1,-0.3 0.1,-0.7 0.1,-0.9 z M 283,343.3 c 0,-0.6 0,-1 -0.1,-1.4 -0.9,-6.8 -1.7,-13.6 -2.6,-20.4 -0.3,-1.9 -0.4,-2 -0.4,-2 0,0 -6.7,-0.1 -9,-0.6 -3.8,-0.9 -7.5,-1.9 -10.9,-3.9 -0.6,-0.3 -1.2,-0.6 -1.8,-0.9 0,0.7 -0.1,1.4 0,2.1 0.9,6.8 1.8,13.6 2.8,20.3 0.7,4.8 1.7,9.6 2.6,14.4 0.2,1.3 0.6,1.5 1.9,1.3 0.2,0 0.4,-0.1 0.6,-0.2 5.3,-1.1 10.2,-3.1 15,-5.6 1.5,-0.7 2.3,-1.6 1.9,-3.1 z M 248.7,232.5 c 0.6,-0.2 1.2,-0.5 1.9,-0.7 5,-2 10,-4.2 15.1,-6 8,-2.8 16.1,-5.3 24.1,-8 19.5,-6.7 35,-13.1 54.3,-20.2 0.4,-0.1 6.8,-1.3 7.2,-1.5 -0.4,-0.2 -3.3,-1.1 -3.7,-1.3 -1,-0.4 -2.1,-0.8 -3.1,-1.3 -1.6,-0.8 -3.2,-0.7 -4.9,-0.1 -9.6,3.3 -19.2,6.4 -28.7,9.7 -6.5,2.2 -12.8,4.9 -19.3,7.1 -6.2,2.1 -12.3,4.3 -18.3,6.8 -8.9,3.7 -17.8,7.5 -27,10.7 -1.5,0.5 -2.9,1.2 -4.3,1.8 -0.2,0.1 -0.4,0.3 -0.6,0.5 0.2,0.1 0.3,0.3 0.5,0.3 1.8,0.7 3.7,1.4 5.5,2.1 0.5,-0.1 0.9,0 1.3,0.1 z m 301.7,-2.2 c -6.4,0.1 -42.5,1 -54.1,1.4 -4.5,0.1 -9,0.6 -13.5,0.8 -1.8,0.1 -1.7,2.3 -1.7,2.5 -0.1,0.7 0.3,1 1,1 7,0.1 48.9,0.2 62.9,0.2 14.9,-0.1 29.7,0.6 44.6,-0.8 2.8,-0.3 5.6,-0.6 8.4,-1 1.3,-0.2 2.3,-0.7 2.9,-1.9 0.2,-0.4 1.2,-2.1 0.2,-2.2 -4.9,-0.1 -9.8,-0.4 -14.6,-0.4 -12.1,0.2 -36.1,0.4 -36.1,0.4 z m -117.1,63.2 c 1.3,-0.2 1.6,-0.5 1.5,-1.9 -0.3,-3.2 -0.7,-6.3 -1.3,-9.5 -0.4,-2.4 -0.3,-2.9 1.9,-4.1 2.5,-1.2 5,-2.4 7.5,-3.5 0.7,-0.3 1.2,-0.7 1.1,-1.5 -0.1,-2 -0.1,-4 -0.3,-5.9 -0.1,-1.3 -0.3,-1.4 -1.6,-1.4 -3.9,-0.1 -7.8,0.1 -11.6,0.6 -4.4,0.5 -8.8,1 -13.2,1.6 -2.2,0.3 -4.3,0.8 -6.4,1.2 -1.1,0.2 -1.2,0.4 -0.8,1.5 0.8,2 1.6,3.9 2.5,5.8 0.7,1.4 0.7,1.4 2.3,0.9 1.3,-0.4 2.7,-0.9 4,-1.3 1.2,-0.3 1.7,0 2.1,1.2 0.4,1.3 -0.2,2.7 -1.6,3.3 -0.9,0.4 -1.9,0.6 -2.8,0.9 -1.2,0.4 -1.3,0.4 -0.9,1.5 1,2.8 1.2,5.7 1.7,8.5 0.2,0.8 0,1.9 0.4,2.4 0.4,0.5 15.3,-0.2 15.5,-0.3 z m 47.3,-1.1 c 2.2,0 2.4,-0.2 2.3,-2.4 0,-0.6 -0.1,-1.3 -0.2,-1.9 -0.1,-1.1 -0.3,-2.2 -0.3,-3.4 -0.1,-1.8 0.4,-2.6 2.1,-3.2 l 3,-0.9 c 4,-1.5 3.5,-0.4 3.5,-5.2 0,-1 -0.2,-1.1 -1.1,-0.9 -1.8,0.5 -12.3,3 -15.5,4.2 -6.9,2.7 -13.7,5.8 -20.5,8.7 -1.6,0.7 -1.7,0.9 -1.6,2.6 0,0.4 0.1,0.7 0.1,1.1 0.2,1.7 0.3,1.8 2,1.8 4.6,-0.1 21.9,-0.5 26.2,-0.5 z m 31.6,0 c 0.8,0 1.1,-0.4 1.1,-1.2 0,-0.3 -0.2,-5.1 -0.3,-7.2 -0.1,-2 0.3,-2.8 2.3,-3.5 0.5,-0.2 2.7,-1.2 2.9,-2 0.1,-0.5 0.1,-1 0.2,-1.5 0.1,-1.4 0,-1.5 -1.4,-1.2 -4.9,1.2 -23.9,6.5 -28.3,8.4 -1.5,0.6 -2.1,1.5 -2,3.1 0.1,1.1 0,2.3 0,3.4 0,1.7 0,1.7 1.6,1.7 2.9,0.1 20.3,0.1 23.9,0 z m -64.1,0.8 c 1.4,0 1.6,-0.2 1.3,-1.6 -0.2,-1.1 -0.6,-2.2 -1,-3.2 -0.8,-2.1 -0.4,-3 1.8,-3.6 1.3,-0.4 12.7,-5.2 17,-7.1 0.4,-0.2 0.8,-0.4 1.2,-0.5 0.7,-0.3 0.9,-0.9 0.6,-1.6 -0.6,-1.7 -1.7,-2.5 -3.6,-2.2 -3.7,0.6 -16.9,3.5 -19.9,4.2 -2.7,0.6 -5.1,1.7 -7.4,3 -0.9,0.5 -1.2,1.2 -1.1,2.3 0.4,3 0.7,6 1.1,9.1 0.1,1.2 0.3,1.4 1.6,1.4 1.4,-0.1 7,-0.2 8.4,-0.2 z m 29.6,-57 c 0,-0.3 0,-0.6 0,-0.8 -0.1,-0.5 -0.2,-1 -0.3,-1.6 -0.4,0.3 -0.9,0.6 -1.3,1 -8.5,8.6 -29.5,25 -30.6,25.8 -0.4,0.3 -0.8,0.6 -1.1,0.9 -0.6,0.6 -0.6,0.9 0.3,1.1 1.4,0.3 2,1.1 2.1,2.5 0.2,1.8 0.5,3.6 0.8,5.5 0,0.2 0.2,0.4 0.4,0.6 0.2,-0.1 0.4,-0.2 0.5,-0.3 3.6,-3.5 7.2,-7 10.8,-10.5 4.3,-4.1 14.9,-17 16.5,-18.8 1.2,-1.6 2.1,-3.2 1.9,-5.4 z m 39.1,51.4 v 1.5 c 0.1,3.3 0.1,3.3 3.5,3.3 1.1,0 2.2,0 3.3,-0.5 1.3,-0.6 20.4,-7.6 23.7,-8.9 0.5,-0.2 1.1,-0.3 1.1,-1.1 0,-1.4 0.1,-2.8 0.1,-4.2 -0.1,-1.5 -0.6,-1.9 -2,-1.6 -1.5,0.3 -3,0.6 -4.5,1 -4.7,1.1 -19.5,4.6 -22.1,5.7 -3.8,1.6 -3.1,1.4 -3.1,4.8 z m -270.2,9.9 c 0.4,3.7 0.7,7.3 1,11 0.3,3 0.5,6.1 0.9,9.1 0.6,5.5 1.3,11.1 2.1,16.6 0.4,2.7 1,5.4 1.6,8.1 0.3,1.3 1,2.3 2.1,3.1 1.1,0.8 2.1,1.6 3.3,2.4 0.5,0.4 1,1.3 1.7,0.8 0.3,-0.2 0.1,-1.2 0,-1.8 -0.9,-6.6 -1.9,-13.1 -2.8,-19.7 -0.8,-5.3 -1.5,-10.6 -2.2,-15.9 -0.1,-0.6 -0.4,-1.2 -0.7,-1.7 -2.7,-3.6 -4.4,-7.7 -5.9,-11.9 -0.2,-0.5 -0.5,-0.9 -0.8,-1.4 -0.3,0.3 -0.3,0.8 -0.3,1.3 z m -5.1,-57.7 h -0.1 c 0.3,3.7 0.6,7.3 0.9,11 0.5,4.9 1,9.7 1.5,14.5 0.4,3.7 0.8,7.3 1.2,11 0.1,1.3 0.1,2.5 0.2,3.8 0,0.6 0,1.2 0.6,1.4 1.7,0.6 2,2.1 2.4,3.5 1.3,4.4 2.6,8.8 3.8,13.2 0.1,0.4 0.3,0.8 0.4,1.2 0,0.1 0.1,0.2 0.2,0.3 0,-0.1 0.1,-0.3 0.1,-0.4 -0.2,-1.3 -0.4,-2.7 -0.6,-4 -1.6,-8.8 -3.2,-17.5 -3.8,-26.4 -0.5,-7.9 -0.8,-15.8 -1.1,-23.7 -0.1,-2.4 -0.3,-4.8 -0.5,-7.2 -0.1,-1.4 -0.8,-2.2 -2.2,-2.5 -0.8,-0.2 -1.6,-0.4 -2.4,-0.7 -0.6,-0.2 -1,0 -0.9,0.7 0.2,1.5 0.3,2.9 0.3,4.3 z M 575,267.7 v 2.5 c 0,0.2 0.1,0.4 0.2,0.6 0.2,-0.1 6.3,-5.1 8.8,-7.8 7.5,-8.2 14.3,-17 21,-25.8 0.6,-0.8 1,-1.7 0.9,-2.7 0,-0.8 -0.2,-1.5 -0.3,-2.3 -0.9,0 -1.8,1.5 -1.8,1.5 -0.3,0.4 -6.8,8 -7.7,9 -5.3,5.8 -17.8,17.7 -18.4,18.2 -2.1,1.9 -3.4,4 -2.7,6.8 z M 413,294 c 0.6,0 0.9,-0.3 0.9,-0.9 -0.1,-1 -0.3,-2.1 -0.4,-3.1 -0.1,-0.6 -0.4,-0.9 -1,-0.6 -2.9,1.4 -5.7,2.7 -8.6,4.1 -0.1,0.1 -0.2,0.3 -0.3,0.5 z"
       id="path14"
       inkscape:connector-curvature="0" />
    <path
       d="m 258.9,378.9 c -3.3,0.2 -6.6,0.3 -9.9,0.5 -0.7,0 -1.4,0.1 -2.1,0.1 -8.2,0 -16.4,0.1 -24.6,0 -1,0 -2,-0.2 -2.9,-0.6 -0.4,-0.2 -0.9,-0.9 -0.9,-1.3 0,-0.4 0.6,-0.9 1.1,-1.1 0.6,-0.2 1.2,-0.1 1.9,-0.1 3.2,0 6.4,0.1 9.5,0 9,-0.3 18.1,-0.6 27.1,-0.9 7.4,-0.3 14.8,-0.5 22.2,-0.8 0.9,0 1.8,-0.2 2.7,-0.3 1.5,-0.1 2.4,0.4 2.5,1.6 0.2,1.2 -0.7,2.4 -2,2.6 -0.5,0.1 -1.1,0.1 -1.7,0 -4.9,-0.1 -9.9,-0.1 -14.8,0.4 -2.7,0.2 -5.5,0 -8.3,0 0.2,0 0.2,0 0.2,-0.1 z"
       id="path16"
       inkscape:connector-curvature="0" />
    <path
       d="m 310.7,377.8 c -0.1,0 -0.3,0 -0.4,0 -0.8,0 -1.6,0.1 -2.3,0 -1.7,-0.2 -2.4,-1.4 -2.1,-3.1 0.2,-0.7 11.6,-1.2 16.6,-1.3 2.3,0 4.7,-0.3 7,-0.4 1.7,0 2.5,1.5 1.6,2.9 -0.3,0.5 -1,0.9 -1.5,1 -2,0.2 -3.9,0.3 -5.9,0.4 -1.5,0.1 -3,0 -4.5,0 0,0 -5.6,0.3 -8.5,0.5 z"
       id="path18"
       inkscape:connector-curvature="0" />
  </g>
  <path
     d="m 76.8,85.813125 c 0.4,-0.2 1.1,-0.4 1.8,-0.7 3.3,-1.7 6.8,-2.8 10.4,-3.5 1.8,-0.4 3.6,-0.8 5.3,-1.3 1.5,-0.4 2.2,-1.3 2.1,-2.7 -0.1,-1.3 -0.4,-2.5 -0.7,-3.7 -0.3,-1.1 -0.9,-1.4 -2.1,-1.3 -1,0.1 -1.4,0.6 -1.5,1.7 v 1.3 c 0,1.7 -0.1,1.7 -1.6,2.3 -0.3,0.1 -0.7,0.2 -1,0.3 -2.9,1 -5.9,1.9 -8.8,2.9 -1.7,0.6 -3.3,1.6 -5.2,1.4 -0.8,-0.1 -1.2,0.5 -1.2,1.4 0,1.1 0.9,1.9 2.5,1.9 z m -27.6,-23.2 c 0,1.3 1,2.5 2.1,2.5 1,0 2.6,-1.3 2.6,-2.1 0,-1 -1.5,-2.3 -2.7,-2.3 -1.3,-0.1 -2,0.7 -2,1.9 z m 41.9,-11.8 c -1.1,0 -1.9,0.7 -2,1.7 0,1 1.3,2.5 2.4,2.6 0.8,0.1 1.8,-0.9 1.8,-1.7 0.2,-1.2 -1,-2.5 -2.2,-2.6 z"
     id="path22"
     inkscape:connector-curvature="0"
     style="fill:none" />
  <path
     d="m 244.9,157.81313 h 0.1 c 0.3,7.3 0.6,14.6 1,21.8 0.1,1.8 0.5,2.3 2.3,2.2 6.5,-0.1 13,-0.3 19.5,-0.4 0.3,0 0.6,0 0.8,-0.1 0.2,-0.1 0.4,-0.2 0.5,-0.4 0.8,-1.2 0.1,-2.9 -1.3,-3 -1.8,0 -3.5,0.1 -5.3,0.2 -4,0.1 -8.1,0.2 -12.1,0.2 -1.4,0 -1.4,-0.1 -1.5,-1.5 -0.3,-7.6 -0.6,-15.1 -0.9,-22.7 -0.1,-2.4 0,-2.4 2.5,-2.4 3,0 6.1,0 9.1,-0.1 1.8,-0.1 3.5,-0.2 5.3,-0.5 1.1,-0.1 1.5,-0.7 1.4,-1.8 -0.1,-0.9 -0.4,-1.2 -1.6,-1.3 -0.5,0 -1,0 -1.5,0 -5.2,0.1 -10.5,0.3 -15.7,0.4 -0.4,0 -0.7,0 -1.1,0.1 -1,0.2 -1.4,0.6 -1.6,1.7 -0.1,0.9 -0.1,1.8 -0.1,2.8 0.1,1.7 0.2,3.2 0.2,4.8 z m -30.8,7.6 h 0.1 c 0.2,4.8 0.4,9.6 0.6,14.4 0.1,1.9 0.5,2.4 2.4,2.5 2,0.1 4,0.1 5.9,0 4.4,-0.1 8.8,-0.3 13.1,-0.5 0.4,0 0.7,0 1.1,-0.1 0.8,-0.2 1,-0.7 0.9,-1.9 -0.1,-1 -0.3,-1.4 -1.2,-1.4 -1.4,0 -2.8,0.1 -4.2,0.1 -4.4,0.1 -8.8,0.2 -13.1,0.2 -1.7,0 -1.8,-0.1 -1.9,-1.8 -0.3,-6.1 -0.5,-12.1 -0.8,-18.2 -0.1,-1.7 -0.1,-3.4 -0.1,-5.1 0,-1.4 0,-1.4 1.4,-1.5 3.1,-0.2 6.2,-0.3 9.3,-0.4 2.3,-0.1 4.7,-0.2 7,-0.4 1.2,-0.1 1.6,-0.7 1.4,-1.8 -0.2,-0.9 -0.6,-1.2 -1.7,-1.1 -2,0.1 -4,0.2 -5.9,0.3 -4.4,0.2 -8.8,0.3 -13.1,0.4 -0.1,0 -0.3,0 -0.4,0 -0.7,0 -1,0.4 -1.1,1.1 0,0.4 -0.1,0.7 -0.1,1.1 0.2,4.6 0.3,9.3 0.4,14.1 z"
     id="path24"
     inkscape:connector-curvature="0"
     style="fill:none" />
  <path
     d="m 76.8,85.813125 c -1.6,0 -2.5,-0.9 -2.5,-2.1 0,-0.9 0.4,-1.5 1.2,-1.4 2,0.2 3.5,-0.8 5.2,-1.4 2.9,-1 5.9,-1.9 8.8,-2.9 0.3,-0.1 0.7,-0.2 1,-0.3 1.5,-0.5 1.6,-0.6 1.6,-2.3 0,-0.4 -0.1,-0.8 0,-1.3 0.1,-1.1 0.5,-1.6 1.5,-1.7 1.2,-0.1 1.8,0.2 2.1,1.3 0.3,1.2 0.6,2.5 0.7,3.7 0.2,1.4 -0.5,2.3 -2.1,2.7 -1.8,0.5 -3.5,0.9 -5.3,1.3 -3.6,0.8 -7.1,1.8 -10.4,3.5 -0.7,0.6 -1.4,0.8 -1.8,0.9 z"
     id="path26"
     inkscape:connector-curvature="0"
     style="fill-rule:evenodd" />
  <path
     d="m 49.2,62.613125 c 0,-1.2 0.8,-2 2,-2 1.1,0 2.6,1.3 2.7,2.3 0,0.8 -1.5,2.1 -2.6,2.1 -1.1,0.1 -2.1,-1.1 -2.1,-2.4 z"
     id="path28"
     inkscape:connector-curvature="0"
     style="fill-rule:evenodd" />
  <path
     d="m 91.1,50.813125 c 1.2,0.1 2.3,1.4 2.3,2.6 -0.1,0.8 -1.1,1.8 -1.8,1.7 -1.1,-0.1 -2.4,-1.5 -2.4,-2.6 0,-1 0.8,-1.7 1.9,-1.7 z"
     id="path30"
     inkscape:connector-curvature="0"
     style="fill-rule:evenodd" />
  <path
     d="m 244.9,157.81313 c 0,-1.6 0,-3.1 0,-4.7 0,-0.9 0,-1.8 0.1,-2.8 0.1,-1.1 0.5,-1.5 1.6,-1.7 0.3,-0.1 0.7,-0.1 1.1,-0.1 5.2,-0.1 10.5,-0.3 15.7,-0.4 h 1.5 c 1.2,0.1 1.5,0.3 1.6,1.3 0.1,1 -0.3,1.6 -1.4,1.8 -1.7,0.2 -3.5,0.4 -5.3,0.5 -3,0.1 -6.1,0.1 -9.1,0.1 -2.5,0 -2.6,0 -2.5,2.4 0.3,7.6 0.6,15.1 0.9,22.7 0.1,1.4 0.1,1.5 1.5,1.5 4,0 8.1,-0.1 12.1,-0.2 1.8,0 3.5,-0.2 5.3,-0.2 1.4,0 2.2,1.8 1.3,3 -0.1,0.2 -0.3,0.3 -0.5,0.4 -0.3,0.1 -0.6,0.1 -0.8,0.1 -6.5,0.2 -13,0.3 -19.5,0.4 -1.8,0 -2.3,-0.4 -2.3,-2.2 -0.3,-7.3 -0.7,-14.6 -1,-21.8 -0.3,-0.1 -0.3,-0.1 -0.3,-0.1 z"
     id="path32"
     inkscape:connector-curvature="0"
     style="fill-rule:evenodd" />
  <path
     d="m 214.1,165.41313 c -0.1,-4.7 -0.2,-9.5 -0.3,-14.2 0,-0.4 0,-0.7 0.1,-1.1 0.1,-0.6 0.4,-1 1.1,-1.1 h 0.4 c 4.4,-0.1 8.8,-0.3 13.1,-0.4 2,-0.1 4,-0.2 5.9,-0.3 1.1,0 1.5,0.3 1.7,1.1 0.2,1.1 -0.2,1.7 -1.4,1.8 -2.3,0.2 -4.6,0.3 -7,0.4 -3.1,0.2 -6.2,0.3 -9.3,0.4 -1.4,0.1 -1.4,0.1 -1.4,1.5 0,1.7 0,3.4 0.1,5.1 0.2,6.1 0.5,12.1 0.8,18.2 0.1,1.7 0.2,1.8 1.9,1.8 4.4,0 8.8,-0.2 13.1,-0.2 1.4,0 2.8,-0.1 4.2,-0.1 0.9,0 1.1,0.4 1.2,1.4 0.1,1.2 -0.2,1.7 -0.9,1.9 -0.3,0.1 -0.7,0.1 -1.1,0.1 -4.4,0.2 -8.8,0.4 -13.1,0.5 -2,0.1 -4,0.1 -5.9,0 -1.9,-0.1 -2.3,-0.6 -2.4,-2.5 -0.2,-4.8 -0.4,-9.6 -0.6,-14.4 -0.1,0.1 -0.1,0.1 -0.2,0.1 z"
     id="path34"
     inkscape:connector-curvature="0"
     style="fill-rule:evenodd" />
</svg>
