<?xml version="1.0" encoding="UTF-8" standalone="no"?>
<svg
   xmlns:dc="http://purl.org/dc/elements/1.1/"
   xmlns:cc="http://creativecommons.org/ns#"
   xmlns:rdf="http://www.w3.org/1999/02/22-rdf-syntax-ns#"
   xmlns:svg="http://www.w3.org/2000/svg"
   xmlns="http://www.w3.org/2000/svg"
   xmlns:sodipodi="http://sodipodi.sourceforge.net/DTD/sodipodi-0.dtd"
   xmlns:inkscape="http://www.inkscape.org/namespaces/inkscape"
   viewBox="0 0 841.9 595.3"
   version="1.1"
   id="svg16"
   sodipodi:docname="futuro.svg"
   inkscape:version="0.92.3 (2405546, 2018-03-11)">
  <metadata
     id="metadata22">
    <rdf:RDF>
      <cc:Work
         rdf:about="">
        <dc:format>image/svg+xml</dc:format>
        <dc:type
           rdf:resource="http://purl.org/dc/dcmitype/StillImage" />
        <dc:title></dc:title>
      </cc:Work>
    </rdf:RDF>
  </metadata>
  <defs
     id="defs20" />
  <sodipodi:namedview
     pagecolor="#ffffff"
     bordercolor="#666666"
     borderopacity="1"
     objecttolerance="10"
     gridtolerance="10"
     guidetolerance="10"
     inkscape:pageopacity="0"
     inkscape:pageshadow="2"
     inkscape:window-width="1029"
     inkscape:window-height="643"
     id="namedview18"
     showgrid="false"
     inkscape:zoom="0.38840716"
     inkscape:cx="23.17156"
     inkscape:cy="297.64999"
     inkscape:window-x="1366"
     inkscape:window-y="30"
     inkscape:window-maximized="0"
     inkscape:current-layer="svg16" />
  <g
     id="g836"
     transform="matrix(-1,0,0,1,819.72257,0)">
    <path
       id="path2"
       d="m 272.3,487.6 23.7,-40.2 8,-57.3 18.7,-18.1 35.3,-23 24.7,-45.5 7.1,-9.3 31.8,-8.8 23.1,-0.5 14.7,6.3 30.7,51 24.8,44.5 15.6,48.5 12.1,25"
       inkscape:connector-curvature="0"
       style="fill:#7ac191;fill-rule:evenodd" />
    <path
       id="path4"
       d="m 431.1,284.7 c 0,0 0.5,0.2 2,0.3 4.9,0.3 9.6,1.4 14.3,2.7 2.8,0.8 4.8,2.4 6.1,5.1 2.3,5.1 4.6,10.3 7.3,15.3 2.4,4.4 5.5,8.5 8.2,12.8 4.1,6.6 8.1,13.2 12.1,19.8 1.7,2.8 3.3,5.6 4.9,8.5 0.5,0.8 1,1 1.8,0.6 1.9,-1 3.9,-1.7 5.5,-3 4.7,-3.6 10,-6.1 15.3,-8.5 2.6,-1.2 5.3,-0.3 7.1,2.1 4.8,6.2 10.9,9.6 18.9,9.9 3.5,0.1 6.9,0.8 10.4,1.2 3.8,0.5 7.6,0.9 11.4,1.8 4.9,1.1 9.7,2.5 14.5,3.8 0.6,0.2 1.2,0.5 1.6,1 2.2,2.7 4.3,5.4 6.5,8.1 0.9,1.1 1.9,2.2 2.8,3.3 1.1,1.5 2.3,3 3.3,4.5 1.1,1.5 2.1,3.1 3.1,4.7 1.5,2.5 2.9,5 4.2,7.6 0.3,0.6 0.1,1.9 -0.3,2.2 -0.8,0.7 -1.6,0 -2.1,-0.9 -2,-3.6 -3.8,-7.4 -6.2,-10.8 -2.4,-3.5 -5.3,-6.7 -8,-9.9 -1.5,-1.8 -3.1,-3.6 -4.8,-5.3 -2.6,-2.6 -5.8,-3.8 -9.4,-4.4 -2.7,-0.4 -5.3,-1.4 -8,-1.8 -5.8,-0.8 -11.6,-1.4 -17.5,-2.2 -3.6,-0.5 -7.3,-1 -10.9,-2 -1.9,-0.5 -3.5,-1.9 -5.1,-3 -2.7,-1.9 -5.2,-4.1 -7.9,-6 -1.7,-1.2 -3.5,-0.3 -5.1,0.4 -5.3,2.1 -9.3,6 -13.8,9.3 -0.9,0.7 -1.9,1.3 -2.8,2 -0.8,0.6 -0.9,1.4 -0.3,2.3 2.5,4.4 5,8.8 7.4,13.3 1.7,3.3 3.5,6.7 4.7,10.2 3,8.3 5.8,16.8 8.7,25.2 1,2.8 1.7,5.7 2.7,8.5 0.8,2.4 1.9,4.7 2.8,7 1.7,4.4 3.1,9 4.9,13.3 1.1,2.6 2.6,5 4,7.4 0.7,1.2 1.8,2.1 2.3,3.4 0.3,0.8 0.3,2.1 -0.1,2.8 -0.3,0.6 -1.6,1.1 -2.2,0.9 -0.7,-0.3 -1.1,-1.3 -1.5,-2.1 -0.5,-1.1 -0.8,-2.3 -1.3,-3.4 -0.6,-1.3 -1.5,-2.5 -2,-3.8 -2.4,-5.9 -4.8,-11.8 -7,-17.8 -1.9,-5.3 -3.6,-10.7 -5.3,-16.1 -2,-6.3 -4.1,-12.5 -6.1,-18.8 -1.7,-5.5 -4,-10.7 -6.9,-15.7 -3.1,-5.4 -6.3,-10.7 -9.4,-16.2 -2.8,-5 -5.4,-10.1 -8.2,-15.1 -2,-3.6 -4.2,-7 -6.5,-10.4 -3.7,-5.5 -7.6,-10.9 -11.2,-16.5 -2.2,-3.5 -3.8,-7.3 -5.7,-11 -1.5,-2.8 -2.9,-5.7 -4.6,-8.4 -0.6,-1 -1.9,-2 -3.1,-2.2 -4.5,-1.1 -15.3,-3.2 -15.3,-3.2 0,0 0,1.2 -0.2,2.4 0,5.5 0.9,9.6 3.6,14.2 0.5,0.9 1,1.9 1.3,3 0.1,0.4 -1.5,1.5 -1.9,1.1 -0.6,-0.6 -0.9,-1.5 -1.3,-2.2 -1.2,-2.1 -2.2,-4.2 -3.6,-6.1 -1,-1.4 -0.7,-2.7 -0.6,-4.2 0.2,-2.2 0.1,-8.3 0.1,-8.3 0,0 -6.4,-0.2 -9,-0.2 -3.3,0 -11.4,0.2 -11.4,0.2 0,0 -0.3,0.4 0.1,1.8 v 0.2 c 0.2,0.8 0.1,1.7 0.4,2.6 0.5,2 0.4,2.6 -1.5,3.4 -2.8,1.2 -5.1,3 -7.1,5.3 -0.7,0.8 -1.6,1.7 -2.5,0.6 -1,-1.1 -0.2,-2 0.8,-2.7 1.9,-1.5 3.9,-3 5.8,-4.6 1.4,-1.2 1.4,-6.2 1.4,-6.2 0,0 -9.4,1.2 -13.2,2.9 -1.2,0.6 -2.6,0.8 -3.9,1.2 -2.5,0.8 -5.1,1.6 -7.6,2.4 -4,1.2 -6.6,4.1 -8.2,7.6 -3.2,6.8 -7.1,13.2 -11.2,19.5 -3.3,5 -6.1,10.3 -9.3,15.4 -2.3,3.8 -5,7.3 -7.1,11.2 -2.1,3.8 -5.5,6.1 -8.6,8.8 -3,2.6 -6.5,4.6 -9.8,6.8 -4.8,3.1 -9.7,6.1 -14.4,9.4 -4.6,3.1 -8.6,7.1 -11.3,11.9 -2.8,5 -5.1,10.2 -5.9,16 -0.6,4.6 -1.8,9.1 -2.7,13.6 -1.1,5.5 -1.9,11.1 -3.1,16.6 -0.9,4.5 -2.3,9 -3.2,13.5 -1.7,7.9 -5.8,14.8 -9.7,21.8 -3,5.3 -5.4,10.9 -8.1,16.3 -0.5,1.1 -0.8,2.5 -2.6,1.9 -1.4,-0.5 -1.7,-2 -0.8,-3.7 3.6,-6.5 7.2,-13 10.9,-19.5 3.1,-5.4 5.6,-10.9 7,-17 1.8,-7.9 3.6,-15.8 5.4,-23.7 1.2,-5.4 2.2,-10.8 3.4,-16.1 0.4,-1.6 0.2,-2.8 -1.3,-3.7 -2.4,-1.5 -4.8,-3.3 -7.3,-4.6 -2.7,-1.5 -5.6,-1.2 -8.3,0.2 -3.9,1.9 -7.2,4.5 -10.3,7.5 -3.3,3.2 -6.6,6.3 -9.9,9.5 -0.6,0.5 -1.2,1 -2,1.4 -3.8,1.8 -7.7,3.3 -11.4,5.2 -2.9,1.5 -5.6,3.2 -8.4,4.9 -1.1,0.7 -2.2,1.4 -3.4,2 -0.5,0.2 -1.5,0.3 -1.7,0 -0.4,-0.4 -0.7,-1.4 -0.4,-1.9 0.4,-0.8 1.1,-1.6 1.8,-2 1.7,-1 3.5,-1.7 5.3,-2.6 3,-1.4 5.9,-2.9 8.9,-4.4 3.1,-1.5 6.3,-2.6 9.1,-4.5 2.2,-1.5 3.8,-3.9 5.8,-5.9 5.1,-5.2 10.8,-9.7 17.2,-13.2 2.1,-1.2 4.4,-1.2 6.5,-0.1 3.1,1.6 6.2,3.4 9.2,5.2 1.5,0.9 1.7,0.9 2.4,-0.8 1.6,-4.5 3.1,-9.2 5.1,-13.6 0.9,-2.1 2.5,-4.1 4.2,-5.8 3.9,-3.8 8,-7.3 12.9,-9.8 2.8,-1.4 5.3,-3.3 7.9,-5 2.5,-1.6 5,-3.2 7.4,-5 3.4,-2.5 6.7,-5 9.5,-8.4 5,-6.2 9.3,-12.9 13.2,-19.8 4.1,-7.1 9,-13.8 12.5,-21.3 2.3,-4.9 5.1,-9.7 8.5,-14 1.6,-2 3.8,-2.8 6.1,-3.4 4.4,-1.1 9,-1.9 13.2,-3.4 3,-1 6,-1.6 9.1,-2.1 2.3,-0.4 2.6,-0.4 2.6,-0.4 0,0 -0.6,-7.6 -0.5,-10.1 0,-3.7 0.3,-7.4 0.4,-11 0.1,-2.5 0.1,-5.1 -0.1,-7.6 -0.1,-0.7 -0.8,-1.7 -1.5,-2.1 -5,-2.6 -9.9,-5.4 -15.1,-7.6 -3.1,-1.3 -4,-2.6 -3.8,-6.3 0.8,-12.8 0.8,-25.7 1.3,-38.5 0.1,-2.2 -1,-3.8 -1.9,-5.4 -4.1,-6.7 -8.4,-13.2 -12.6,-19.8 -0.5,-0.7 -1,-1.4 -1.6,-2.1 -1.3,-1.6 -1.1,-2.4 0.6,-3.5 4.5,-2.7 15.9,-9.6 15.9,-9.6 0,0 0.2,-1 0.2,-3.3 0.1,-7.8 0.4,-15.5 0.7,-23.3 0.1,-2.7 0.4,-5.3 0.9,-8 0.1,-0.7 0.8,-1.5 1.4,-2 1.6,-1.2 3.3,-2.3 5.1,-3.2 1.4,-0.7 2.9,-1 4.6,-0.3 6.6,2.9 13.2,5.9 20,8.6 5.7,2.3 11.5,4.3 17.3,6.4 3,1.1 6,2.3 8.9,3.4 4.2,1.6 8.3,3.3 12.5,5 6.1,2.4 12.3,4.8 18.4,7.2 2.4,0.9 4.9,1.8 7.4,2.5 1.6,0.4 2.4,1.3 2.5,2.8 0.1,2.5 0.1,4.9 0,7.4 -0.6,10.9 -1.3,21.9 -1.9,32.8 -0.1,2 -0.3,6.7 -0.3,6.7 0,0 6.5,3.9 9.1,5.1 0.4,0.2 0.8,0.3 1.2,0.5 2.5,1.4 2.5,2.6 0.4,4.5 -5,4.4 -9.1,9.5 -12.7,15 -0.3,0.5 -0.5,1.2 -0.5,1.8 -0.3,4.3 -0.5,8.6 -0.7,13 -0.2,5.5 -0.3,11 -0.5,16.5 0,1.6 -0.1,3.2 0.1,4.8 0.1,1.6 -0.7,2.2 -1.9,2.8 -3.3,1.6 -6.7,3.1 -10,4.8 -2.5,1.3 -4.7,1.4 -7.4,0.3 -8.2,-3.1 -16.6,-5.7 -24.9,-8.5 -1.2,-0.4 -2.3,-0.8 -3.5,-1.1 -1.1,-0.3 -1.6,0 -1.6,1.2 -0.1,2.4 -0.5,20.1 -0.5,20.1 z M 387.5,240 c -0.1,1.6 0.4,2.5 1.9,3.2 1.8,0.8 3.3,2 5.1,2.9 3.7,2 7.3,4.2 11.2,5.8 4.3,1.8 8.8,2.9 13.2,4.4 5.7,1.9 11.4,3.7 17.2,5.6 5.4,1.7 10.8,3.4 16.1,5.1 3,1 6,2.2 9,3.2 2.8,0.9 3.1,0.6 3.4,-2.4 0.3,-3.3 0.9,-6.6 1.4,-9.9 1.1,-7.8 2.4,-15.6 3.4,-23.4 0.8,-6.4 1.2,-12.8 1.8,-19.2 0.2,-2.2 0.6,-4.3 0.8,-6.5 0.4,-4.6 0.6,-9.3 0.9,-13.9 0.8,-10.8 1.7,-21.5 2.5,-32.3 0.2,-2.6 0.1,-2.5 -2.3,-3.4 -4.9,-1.7 -9.8,-3.4 -14.7,-5.2 -8.8,-3.2 -17.5,-6.4 -26.3,-9.6 -3.3,-1.2 -6.7,-2.3 -10.1,-3.5 -5.7,-2 -11.5,-4 -17.2,-6 -0.9,-0.3 -1.8,-0.6 -2.7,-1 -3.3,-1.3 -6.6,-2.7 -9.9,-4 -0.8,-0.3 -1.5,-0.6 -1.6,0.7 -0.4,8.8 -1.4,28.7 -1.4,28.7 0,0 4.1,-3.2 5.7,-2.6 1.2,0.4 2.5,0.8 3.7,1.2 2.5,0.9 4.9,1.7 7.3,2.6 1,0.4 1.7,1.2 1.1,2.4 -0.6,1.2 -1.4,1 -2.6,0.6 -3.1,-1.3 -6.3,-2.6 -9.5,-3.6 -2,-0.6 -5.9,3.2 -5.9,3.2 0,0 -0.5,10.6 -0.5,15.4 -0.2,9.5 -1,59.1 -1,61.5 z m 96.9,-79.8 c 0.2,-2.3 -0.2,-2.6 -2.2,-1.5 -1.3,0.7 -2.5,1.4 -3.7,2.3 -0.5,0.3 -0.8,1 -0.9,1.6 -0.3,2.2 -0.5,4.5 -0.7,6.7 -0.5,6.9 -0.9,13.9 -1.4,20.8 -0.2,2.7 -0.7,5.4 -0.9,8.2 -0.3,4.6 -0.4,9.2 -0.8,13.8 -0.4,5.1 -1,10.2 -1.6,15.3 -0.4,3.9 -0.8,7.8 -1.4,11.6 -0.6,4.7 -1.4,9.5 -2.1,14.2 -0.7,5 -1.4,10 -2.2,15.1 -0.3,1.7 -0.1,2 1.6,1.5 2.4,-0.8 4.7,-1.9 7.1,-2.8 2.6,-1 2.6,-1 2.7,-3.7 0,-0.2 0,-0.4 0,-0.7 0.3,-6.9 0.5,-13.9 0.8,-20.8 0.1,-1.7 0.5,-5.5 0.5,-7.2 0,-0.3 -2.9,9.7 -3.3,10.2 -0.4,0.5 -1.3,1 -1.9,0.9 -0.5,-0.1 -1,-0.9 -1.3,-1.5 -0.2,-0.5 3.7,-10.7 5.7,-15 0.5,-1.2 1.2,-2.3 1.4,-3.6 0.6,-5 1,-9.9 1.6,-14.9 0.4,-3.5 0.4,-3.6 -2.9,-4.9 -1.1,-0.4 -1.9,-1 -1.8,-2.1 0.1,-0.7 0.6,-1.8 1.1,-1.9 0.7,-0.2 4.1,1.3 4.1,1.3 0,0 0.3,-6 0.5,-8.2 0.7,-11.6 1.4,-23.2 2,-34.7 z m -76.7,112.6 c 0,0 0.3,11.8 0.3,11.8 0,0 0.1,0.1 2.1,0 3.2,-0.1 6.3,0 9.5,0 2.6,0 5.2,0 7.8,0.1 h 1.4 c 0,0 0.2,-7 0.2,-9.8 0,-3.5 -0.2,-6.9 -0.2,-10.4 0,-1.7 -0.7,-2.6 -2.2,-3 -1.4,-0.4 -2.8,-0.8 -4.2,-1.3 -4.1,-1.3 -8.1,-2.7 -12.2,-4 -0.9,-0.3 -1.9,-0.8 -2,1.1 -0.2,5.8 -0.2,9.7 -0.5,15.5 z m 69.4,-115.3 c 0,-0.1 0,-0.1 0.1,-0.2 0.4,0 0.9,0.1 1.3,0 0.6,-0.3 1.2,-0.7 1.7,-1.1 -0.5,-0.3 -1,-0.6 -1.5,-0.7 -5,-1.8 -9.9,-3.6 -14.9,-5.5 -4.7,-1.8 -9.2,-3.8 -13.9,-5.6 -4.2,-1.7 -8.3,-3.4 -12.5,-4.9 -4.7,-1.7 -9.5,-3.2 -14.1,-5 -8.2,-3.2 -16.3,-6.5 -24.4,-9.8 -2,-0.8 -3.4,-0.4 -4.9,1.1 -0.7,0.7 -0.9,1.2 0.1,1.7 2.2,1.1 4.3,2.4 6.6,3.2 4.6,1.7 9.3,3.2 13.9,4.9 5,1.8 9.9,3.8 14.9,5.6 4.7,1.7 9.5,3 14.2,4.7 8.4,3.1 16.6,6.3 25,9.4 2.8,0.7 5.6,1.4 8.4,2.2 z m -90.6,8.6 c 0,-1.2 0,-1.6 0,-1.6 0,0 -7.9,4.9 -11.2,7.1 -1.1,0.7 -1.8,1.7 -0.8,3.1 2.9,4.5 5.6,9.1 8.5,13.6 0.9,1.5 3.1,4.6 3.2,4.8 -0.1,-0.2 0.2,-22.6 0.3,-27 z m 96.1,57.5 c 0.2,-0.2 7.1,-8.3 9.3,-10.5 0.5,-0.5 1.1,-1 0,-1.5 -2.2,-0.9 -4.4,-1.8 -6.6,-2.7 -0.7,-0.3 -1,-0.2 -1.1,0.6 -0.7,4.4 -1.7,13.8 -1.6,14.1 z"
       inkscape:connector-curvature="0"
       style="fill-rule:evenodd" />
    <path
       id="path6"
       d="m 397.4,195.7 c 0,3.3 0.1,3.2 3.3,3.8 5,0.9 10,1.7 14.5,4.2 1.5,0.8 3,0 3.6,-1.6 0.6,-1.6 1.5,-3.1 2.1,-4.7 0.2,-0.5 0,-1.1 0,-1.7 -0.5,0.1 -1.2,0.1 -1.5,0.4 -0.8,0.9 -1.4,1.8 -2,2.8 -0.8,1.4 -1.9,1.5 -3.3,1.1 -3,-0.9 -6.1,-1.7 -9.2,-2.5 -2.5,-0.7 -5.5,-0.7 -5.8,-4.3 0,-0.2 -0.5,-0.6 -0.8,-0.6 -0.2,0 -0.6,0.4 -0.7,0.7 -0.1,0.8 -0.1,1.6 -0.2,2.4 z m 5,-29.2 c -0.2,0 -0.5,0 -0.7,0 -0.5,0.6 -1.3,1.2 -1.6,1.9 -0.3,0.9 1,2.5 1.8,2.2 0.7,-0.3 1.6,-1.1 1.7,-1.8 0,-0.7 -0.8,-1.5 -1.2,-2.3 z m 17.4,8.5 c 0.3,0 0.6,0 0.8,-0.1 0.4,-0.7 1,-1.5 1.1,-2.3 0.1,-1.3 -1,-1.6 -2.1,-1.6 -1.2,0 -1.6,0.9 -1.3,1.8 0.3,0.8 1,1.5 1.5,2.2 z"
       inkscape:connector-curvature="0"
       style="fill:none" />
    <g
       id="g14"
       style="fill-rule:evenodd">
      <path
         id="path8"
         d="m 397.4,195.7 c 0,-0.8 0,-1.6 0.2,-2.4 0,-0.3 0.4,-0.7 0.7,-0.7 0.3,0 0.8,0.3 0.8,0.6 0.4,3.6 3.3,3.6 5.8,4.3 3.1,0.8 6.1,1.6 9.2,2.5 1.4,0.4 2.5,0.3 3.3,-1.1 0.6,-1 1.2,-2 2,-2.8 0.3,-0.3 1,-0.3 1.5,-0.4 0,0.6 0.2,1.2 0,1.7 -0.6,1.6 -1.5,3.1 -2.1,4.7 -0.6,1.6 -2.1,2.4 -3.6,1.6 -4.5,-2.5 -9.5,-3.3 -14.5,-4.2 -3.2,-0.6 -3.2,-0.6 -3.3,-3.8 z"
         inkscape:connector-curvature="0" />
      <path
         id="path10"
         d="m 402.4,166.5 c 1.1,0.2 1.3,1.6 1.2,2.3 -0.1,0.7 -1,1.5 -1.7,1.8 -0.8,0.3 -2.1,-1.2 -1.8,-2.2 0.2,-0.7 1.2,-2.1 2.3,-1.9 z"
         inkscape:connector-curvature="0" />
      <path
         id="path12"
         d="m 418.3,172.8 c -0.2,-0.9 0.6,-1.8 1.5,-2 1,-0.2 1.8,0.6 2,1.2 0.2,0.6 1,3 -1.2,3 -2.1,-0.1 -2.1,-1.2 -2.3,-2.2 z"
         inkscape:connector-curvature="0" />
    </g>
  </g>
</svg>
