<?xml version="1.0" encoding="UTF-8" standalone="no"?>
<svg
   xmlns:dc="http://purl.org/dc/elements/1.1/"
   xmlns:cc="http://creativecommons.org/ns#"
   xmlns:rdf="http://www.w3.org/1999/02/22-rdf-syntax-ns#"
   xmlns:svg="http://www.w3.org/2000/svg"
   xmlns="http://www.w3.org/2000/svg"
   xmlns:sodipodi="http://sodipodi.sourceforge.net/DTD/sodipodi-0.dtd"
   xmlns:inkscape="http://www.inkscape.org/namespaces/inkscape"
   viewBox="0 0 645.88163 275.40848"
   version="1.1"
   id="svg126"
   sodipodi:docname="mapa.svg"
   width="645.88165"
   height="275.40848"
   inkscape:version="0.92.3 (2405546, 2018-03-11)">
  <metadata
     id="metadata132">
    <rdf:RDF>
      <cc:Work
         rdf:about="">
        <dc:format>image/svg+xml</dc:format>
        <dc:type
           rdf:resource="http://purl.org/dc/dcmitype/StillImage" />
        <dc:title></dc:title>
      </cc:Work>
    </rdf:RDF>
  </metadata>
  <defs
     id="defs130" />
  <sodipodi:namedview
     pagecolor="#ffffff"
     bordercolor="#666666"
     borderopacity="1"
     objecttolerance="10"
     gridtolerance="10"
     guidetolerance="10"
     inkscape:pageopacity="0"
     inkscape:pageshadow="2"
     inkscape:window-width="913"
     inkscape:window-height="513"
     id="namedview128"
     showgrid="false"
     fit-margin-top="0"
     fit-margin-left="0"
     fit-margin-right="0"
     fit-margin-bottom="0"
     inkscape:zoom="0.38840716"
     inkscape:cx="324.25279"
     inkscape:cy="180.85001"
     inkscape:window-x="2133"
     inkscape:window-y="145"
     inkscape:window-maximized="0"
     inkscape:current-layer="svg126" />
  <path
     d="m 311.30278,43.70849 c 0,0 -26.9,34.8 -31.1,49 -4.3,14.2 -4.9,24.9 -1.1,30.6 3.8,5.7 8.1,10.1 8.1,10.1 l 30.3,-8.3 c 0,0 -10.8,-10.9 -2.3,-28.9 8.5,-18 36.8,-53.3 36.8,-53.3 z"
     id="path2"
     inkscape:connector-curvature="0"
     style="fill:#9dd3cc" />
  <path
     d="m 295.30278,166.80849 39.3,-10.2 c 0,0 0.1,6.4 -4.2,20.7 -4.3,14.2 -14.2,15.2 -8.5,27.5 5.7,12.3 6.7,24.3 6.7,24.3 l -44.7,-0.8 c 0,0 -9.4,-20.2 1,-28.2 10.4,-8.1 9.5,-9.5 11.4,-18 1.9,-8.6 -1,-15.3 -1,-15.3"
     id="path4"
     inkscape:connector-curvature="0"
     style="fill:#9dd3cc" />
  <path
     d="m 152.80278,145.30849 62.2,-29.2 3.3,5.5 -60.2,29.4 z"
     id="path6"
     inkscape:connector-curvature="0"
     style="fill:#e5e723" />
  <path
     d="m 163.10278,160.30849 62.1,-29.2 3.3,5.5 -60.2,29.4 z"
     id="path8"
     inkscape:connector-curvature="0"
     style="fill:#e8e92d" />
  <path
     d="m 166.80278,145.90849 4.7,-2 8.5,9.5 -7.1,2.9 z"
     id="path10"
     inkscape:connector-curvature="0"
     style="fill:#e5e723" />
  <path
     d="m 184.70278,139.10849 5.7,-6 8.5,9.4 -7.1,2.9 z"
     id="path12"
     inkscape:connector-curvature="0"
     style="fill:#e5e723" />
  <path
     d="m 201.50278,128.80849 5.5,-3.6 8.6,9.5 -7.1,2.8 z"
     id="path14"
     inkscape:connector-curvature="0"
     style="fill:#e5e723" />
  <path
     d="m 405.10278,141.90849 h 41.7 v 37.9 h -41.7 z"
     id="path16"
     inkscape:connector-curvature="0"
     style="fill:#a1dba3" />
  <path
     d="m 400.20278,19.70849 h 41.7 v 37.9 h -41.7 z"
     id="path18"
     inkscape:connector-curvature="0"
     style="fill:#a1dba3" />
  <path
     d="m 459.30278,47.90849 31.2,-0.3 1.7,21.8 h -7 l 0.3,9 -24.6,0.8 z"
     id="path20"
     inkscape:connector-curvature="0"
     style="fill:#a1dba3" />
  <path
     d="m 347.70278,163.20849 h 34.1 v 34.6 h -34.1 z"
     id="path22"
     inkscape:connector-curvature="0"
     style="fill:#a1dba3" />
  <g
     id="g124"
     style="fill:#181715"
     transform="translate(-96.697222,-203.09151)">
    <path
       d="m 665.8,355.5 c 0.1,1.1 0.2,2.3 0.3,3.4 0.1,0.6 0.4,0.8 0.8,0.3 1.5,-1.8 3.1,-3.6 4.5,-5.4 0.6,-0.8 0.1,-0.9 -0.6,-0.9 -0.8,0 -1.5,0.1 -2.3,0.1 -2.5,-0.3 -2.8,0 -2.7,2.5 z m -396.7,-8.4 c -1.9,0.1 -2.4,0.9 -1.7,2.4 0.2,0.4 0.3,0.9 0.4,1.3 0.8,1.9 1.8,3.7 3.4,5.1 0.8,0.7 1.4,0.2 2,-0.1 0.8,-0.4 0.5,-1 0.2,-1.5 -1.2,-2.2 -2.5,-4.4 -3.8,-6.7 -0.1,-0.2 -0.4,-0.4 -0.5,-0.5 z m 20.4,0.6 c 0.8,-0.5 1.6,-0.8 2.1,-1.3 0.2,-0.2 -0.1,-1.1 -0.3,-1.6 -0.9,-2 -1.8,-4 -2.7,-5.9 -0.3,-0.7 -0.6,-1 -1.3,-0.5 -0.8,0.5 -1.6,0.8 -2.4,1.2 -0.7,0.4 -0.8,0.9 -0.4,1.6 1.2,1.9 2.4,3.8 3.7,5.6 0.2,0.3 0.8,0.6 1.3,0.9 z m 20.7,-11.2 c 0,-0.1 0,-0.3 -0.1,-0.4 -1.4,-2.3 -2.7,-4.5 -4.1,-6.8 -0.1,-0.2 -0.7,-0.3 -1,-0.2 -0.9,0.4 -1.9,0.8 -2.7,1.3 -0.3,0.2 -0.7,1 -0.5,1.2 1.4,2 2.9,4.1 4.5,6 0.7,0.9 3.2,0.3 3.9,-0.7 0,-0.2 0,-0.3 0,-0.4 z m 326.5,14.3 c 0.6,0 1.3,-0.2 1.9,-0.5 1.7,-0.8 25.8,-9.5 24.9,-9.9 -0.9,-0.4 -3.5,-1 -3.8,-0.9 -0.9,0.1 -9.2,3.7 -12.9,5.1 -4,1.5 -13.3,4.9 -13.6,5.2 0.2,0.1 2.8,1 3.5,1 z m -255.8,21.8 c 0.5,-0.1 0.7,-0.1 0.9,-0.2 3.6,-1.2 7.1,-2.3 10.7,-3.5 2.7,-0.9 5.4,-2 8.2,-2.8 4.5,-1.3 9,-2.5 13.5,-3.7 2.9,-0.8 5.8,-1.5 8.7,-2.3 4.2,-1.1 8.5,-2.3 12.7,-3.4 1.8,-0.5 3.6,-0.8 5.3,-1.3 3,-0.9 6,-1.8 8.9,-2.8 0.6,-0.2 1.1,-0.6 1.6,-1 0.2,-0.1 0.3,-0.5 0.2,-0.7 -0.1,-0.2 -0.4,-0.4 -0.6,-0.4 -0.3,0 -0.5,0.1 -0.8,0.1 -3.8,1.1 -7.6,2.1 -11.4,3.2 -4.3,1.2 -8.6,2.5 -12.9,3.8 -3.8,1.1 -7.7,1.9 -11.3,3.4 -5.7,2.4 -11.7,3.2 -17.5,5.2 -2.9,1 -5.8,1.9 -8.7,2.8 -0.7,0.2 -1.4,0.4 -2.1,0.6 -1.8,0.5 -3.7,1 -5.5,1.5 -0.3,0.1 -0.6,0.6 -0.6,0.8 0.1,0.4 0.5,0.6 0.7,0.7 z M 589.4,263.3 c -0.1,0 0.2,5.2 0.6,7.8 0.1,1.1 0.7,1.3 1.7,1.1 2.3,-0.3 4.5,-0.4 6.8,-0.6 0.5,0 1.1,-0.1 1.6,-0.1 0.6,-0.1 0.8,-0.3 0.5,-0.9 -0.4,-0.8 -0.8,-1.7 -1.2,-2.5 -1.5,-2.7 -3.1,-5.3 -4.5,-8 -1.2,-2.4 -1.9,-2.7 -4.5,-1.9 -0.8,0.3 -1.1,0.7 -1.1,1.5 0.1,1.1 0.1,2.4 0.1,3.6 z m 97.8,91.5 c -0.1,-1.9 -0.4,-3.1 -2.7,-2.7 -0.6,0.1 -1.3,0.2 -1.9,0.2 -1,0.1 -1.9,0 -2.9,0.1 -0.5,0 -0.9,0.2 -0.9,0.9 0.1,3.6 0.1,7.2 0.2,10.9 0,1.7 0.4,3.2 2.1,4.1 0.6,0.3 1.2,0.7 1.6,1.2 0.5,0.6 0.6,0.3 0.8,-0.2 0.1,-0.3 0.2,-0.6 0.3,-0.9 0.9,-3.3 1.6,-6.6 3.4,-9.5 0.2,-0.4 0.2,-0.9 0.2,-1.3 -0.1,-1 -0.1,-0.9 -0.2,-2.8 z m -388.1,-23 c -0.4,0.2 -0.7,0.2 -0.9,0.4 -1.2,0.8 -2.3,1.6 -3.5,2.3 -1.3,0.8 -2.7,1.5 -4.1,2.2 -0.4,0.2 -0.8,0.8 -0.8,1 1.1,2.3 2.2,4.6 3.4,6.9 0.4,0.7 1,0.7 1.7,0.4 3.1,-1.6 6.2,-3.2 9.3,-4.8 0.8,-0.4 1,-1 0.4,-1.8 -1.3,-1.8 -2.5,-3.6 -3.9,-5.3 -0.4,-0.4 -1.1,-0.8 -1.6,-1.3 z m -17.2,9.1 c -0.3,0.1 -0.4,0.2 -0.6,0.3 -1.7,0.7 -3.4,1.4 -5,2.2 -1.5,0.7 -2.9,1.5 -4.4,2.3 -0.5,0.3 -0.7,0.7 -0.4,1.2 1.1,2.1 2.1,4.2 3.4,6.2 0.8,1.4 1.2,1.3 2.7,0.6 3,-1.5 6,-3.1 9.1,-4.5 0.7,-0.3 0.6,-0.7 0.3,-1.2 -1.5,-2.2 -2.9,-4.3 -4.4,-6.5 -0.2,-0.3 -0.5,-0.5 -0.7,-0.6 z m 349.5,50 c 0,1 0.8,1.6 1.9,1.6 1.1,0 1.6,-0.4 1.7,-1.5 0.1,-3 0.2,-5.9 0.2,-8.9 0,-1.6 0,-3.1 0.1,-4.7 0.1,-2.6 0.2,-5.1 0.3,-7.7 0,-5.1 0,-10.2 0,-15.4 0,-1.2 -0.3,-2.4 -1.4,-2.7 -1.1,-0.3 -1.7,-0.2 -1.9,0.2 -0.3,0.7 -0.3,2.4 -0.3,2.5 0,1.2 -0.1,2.4 -0.1,3.6 -0.1,3.3 -0.2,6.6 -0.3,9.9 0,0.5 0,1 0.1,1.5 0.3,-0.3 0.6,-0.8 1,-1 0.3,-0.2 1.4,0.6 1.2,0.9 -0.3,0.5 -0.8,0.9 -1.1,1.4 -0.5,0.6 -1.2,1.2 -1.2,1.9 -0.2,2.3 -0.1,4.7 -0.1,7 -0.1,3.2 -0.1,10.8 -0.1,11.4 z M 315.1,321.1 c 0,-1.7 -1.1,-2.4 -2.4,-1.9 -1.2,0.5 -2.5,1 -3.7,1.5 -3,1.3 -6,2.5 -9,3.8 -2.1,0.9 -4.2,1.9 -6.2,2.9 -3.3,1.7 -6.5,3.4 -9.7,5.1 -1.5,0.8 -3.1,1.6 -4.6,2.4 -2.6,1.5 -5.2,3.1 -7.9,4.5 -2.5,1.3 -5.1,2.5 -7.6,3.8 -1.7,0.9 -3.4,2 -5.1,3 -1.4,0.8 -2.8,1.5 -4.2,2.3 -0.2,0.1 -0.5,0.6 -0.4,0.9 0.4,2 1.6,2.4 3.3,1.3 0.5,-0.3 0.9,-0.7 1.3,-1 0.3,-0.2 0.6,-0.5 0.9,-0.6 2,-0.8 4,-1.5 6,-2.4 4.4,-2 8.8,-4.1 13.2,-6.2 1.8,-0.8 3.6,-1.7 5.3,-2.5 2.4,-1.1 4.8,-2.2 7.2,-3.4 2.8,-1.5 5.6,-3.1 8.4,-4.6 0.9,-0.5 1.8,-0.8 2.7,-1.3 2.5,-1.3 4.9,-2.7 7.4,-4 1.3,-0.7 2.7,-1.3 4,-2 0.5,-0.6 0.8,-1.3 1.1,-1.6 z m 10.4,16.1 c -0.4,-1.2 -0.8,-2.3 -1.2,-3.3 -0.1,-0.3 -0.8,-0.4 -1.1,-0.4 -0.8,0.1 -1.6,0.4 -2.4,0.7 -1.7,0.7 -3.3,1.5 -5,2.2 -2.5,1.1 -5,2.2 -7.5,3.5 -2.5,1.2 -4.9,2.7 -7.3,3.9 -1.7,0.9 -3.6,1.5 -5.3,2.4 -3.1,1.6 -6.1,3.3 -9.1,4.9 -2,1 -4,1.9 -6.1,2.9 -1.8,0.9 -3.7,1.8 -5.5,2.7 -1.5,0.8 -3,1.5 -4.5,2.3 -1.9,0.9 -3.8,1.8 -5.7,2.6 -0.6,0.3 -1.1,0.7 -0.7,1.4 0.5,1 1.2,2 1.8,3 h 0.1 c 0.8,-0.2 1.7,-0.4 2.5,-0.7 1.6,-0.6 3.1,-1.4 4.6,-2 4.3,-1.9 8.6,-3.7 12.8,-5.7 3.3,-1.5 6.4,-3.3 9.6,-4.9 4.8,-2.5 9.7,-4.9 14.5,-7.5 2.2,-1.2 9.2,-4.4 10,-4.7 1.4,-0.6 2.9,-1.2 4.3,-1.9 0.5,-0.4 0.8,-1 1.2,-1.4 z m 46,20.8 c 1.8,-0.4 3.4,-0.7 5,-1.2 3.8,-1.3 7.6,-2.6 11.4,-3.9 2.2,-0.8 4.4,-1.5 6.6,-2.2 2.2,-0.7 4.5,-1.4 6.7,-2.1 2,-0.6 3.9,-1.2 5.9,-1.8 2,-0.6 4.1,-0.9 6.1,-1.5 4.5,-1.4 8.9,-2.8 13.3,-4.2 2.3,-0.7 4.5,-1.4 6.8,-2.2 1.1,-0.4 2.1,-0.9 3.1,-1.3 0.9,-0.4 0.9,-0.9 0.5,-1.7 -1,-1.6 -1.9,-3.1 -2.9,-4.7 -0.2,-0.3 -0.9,-0.5 -1.3,-0.4 -1.7,0.6 -3.3,1.2 -5,1.9 -3.1,1.2 -6.2,2.3 -9.3,3.4 -2.3,0.8 -4.7,1.4 -6.9,2.3 -5.7,2.5 -11.7,3.6 -17.6,5.3 -3.6,1 -7.3,1.8 -10.8,3.2 -2.9,1.2 -5.9,2.1 -8.9,3.1 -1.7,0.5 -3.4,0.9 -5.2,1.4 -1,0.2 -1.4,0.7 -0.9,1.7 0.7,1.5 1.5,2.9 2.4,4.3 0.3,0.3 0.8,0.4 1,0.6 z m -9.3,-6.4 c 0.4,-0.1 0.6,-0.1 0.9,-0.2 2.9,-0.8 5.8,-1.6 8.7,-2.4 3.8,-1.2 7.5,-2.4 11.2,-3.7 2,-0.7 4,-1.4 6,-2 2.7,-0.8 5.4,-1.3 8.1,-2 4.2,-1.2 8.5,-2.4 12.6,-3.8 4.3,-1.4 8.4,-3.1 12.6,-4.7 2.9,-1.1 5.8,-2.2 8.7,-3.4 2,-0.8 2.1,-1.4 1,-3.2 -1.2,-1.9 -1.2,-2 -3.4,-1.5 -3.4,0.7 -6.7,1.4 -10,2.2 -6.4,1.6 -12.9,3.4 -19.3,5 -2.9,0.7 -5.8,1.4 -8.7,2.2 -3.3,0.9 -6.6,2 -9.8,3.1 -2.3,0.7 -4.7,1.3 -6.9,2.2 -3.9,1.7 -7.7,3.4 -11.7,4.7 -0.8,0.3 -1.6,0.6 -2.4,1 -0.3,0.1 -0.6,0.7 -0.5,0.9 0.6,1.7 1.3,3.3 2,4.9 0.2,0.4 0.7,0.5 0.9,0.7 z M 493.4,223.9 c -0.1,0 -0.1,0 0,0 0,-1.3 0,-2.6 0,-3.9 0,-1.5 0.4,-1.8 1.9,-1.6 2.3,0.2 4.6,0.3 6.8,0.3 1.2,0 2.5,-0.1 3.7,-0.1 1.5,0.1 1.8,0 1.9,-1.5 0.1,-2 0.1,-4 0,-6 0,-1 0,-2.1 -0.2,-3.1 -0.2,-1.3 -1,-1.8 -2.3,-1.8 -1.6,0 -3.2,0 -4.8,0 -1.2,0 -2.4,0 -3.5,0 -3.2,0.1 -6.5,0.2 -9.7,0.2 -2.3,0 -4.7,0 -7,0 -1.1,0 -1.7,0.8 -1.9,1.8 -0.6,4 -0.8,8 -1,12 -0.1,3.7 -0.6,7.3 -1.1,10.9 -0.3,2.3 -0.1,2.6 2.2,2.7 1.9,0 3.7,-0.2 5.6,-0.3 1.5,-0.1 3,-0.2 4.5,-0.2 h 3.8 c 0.7,0 1.1,-0.4 1.1,-1.1 -0.1,-2.7 0,-5.5 0,-8.3 z m 88.8,69.4 c 0.3,3 0.5,6.1 0.8,9.1 0.1,1.1 0.6,1.6 1.6,1.6 3.3,-0.1 6.7,0 10,-0.2 5.4,-0.5 10.7,-1.3 16.1,-1.8 1.1,-0.1 1.5,-0.6 1.5,-1.6 0.2,-2.8 0.5,-5.6 0.7,-8.5 0.2,-3.4 0.3,-6.9 0.4,-10.3 0.1,-1.9 0,-3.8 0,-5.8 0,-1.6 -0.3,-1.8 -1.9,-1.8 -3.3,0 -6.6,-0.1 -9.9,-0.1 -2.5,0 -5,0 -7.5,0.1 -1.6,0 -3.3,0.2 -4.9,0.3 -2,0.1 -4,0.2 -6,0.3 -0.8,0.1 -1.1,0.5 -1.1,1.4 0.2,1.8 0.2,3.6 0.3,5.5 0,4 -0.1,7.9 -0.1,11.8 z m -129.9,52.8 c -0.4,-1.8 -0.8,-3.8 -1.2,-5.8 -0.5,-1.9 -1,-2.2 -3,-1.9 -3.4,0.6 -6.9,1.1 -10.3,1.8 -2.3,0.4 -4.6,0.7 -6.8,1.6 -2.3,0.9 -4.8,1.4 -7.2,2.1 -0.9,0.2 -1.7,0.5 -2.6,0.7 -1.7,0.5 -3.4,1.1 -5.1,1.6 -3.7,1.1 -7.4,2.1 -11.1,3.1 -1.9,0.5 -3.7,1.2 -5.6,1.7 -1.5,0.4 -3,0.7 -4.5,1.2 -3.4,1.1 -6.7,2.4 -10.1,3.5 -3,1 -6.1,2 -9.1,3 -1.8,0.6 -2.2,1.1 -1.4,2.9 0.9,2.1 2.1,4.2 3.1,6.2 0.6,1.1 1.6,1.4 2.7,1.3 1,-0.1 2.1,-0.3 3.1,-0.6 2.6,-0.7 5.1,-1.4 7.7,-2.2 3.4,-1 6.8,-2.1 10.2,-3.1 2.3,-0.7 4.7,-1.3 7,-2.1 3.1,-1 6.1,-2.3 9.3,-3 3.6,-0.9 7.2,-1.9 10.6,-3.2 1.9,-0.7 3.8,-1.4 5.7,-2 2,-0.6 4.1,-1 6.1,-1.6 1.2,-0.3 2.4,-0.7 3.6,-1 2.5,-0.7 5.1,-1.5 7.6,-2.2 0.9,-0.1 1.3,-0.8 1.3,-2 z m 211.6,1.9 c 0,-1.5 0.1,-2.9 0,-4.4 -0.1,-1 -0.4,-1.2 -1.3,-0.7 -0.5,0.2 -6.3,2.1 -8.7,2.8 -1.3,0.4 -6.2,2.6 -7.4,3.2 -2.4,1.1 -4.9,2.1 -7.3,3.1 -0.9,0.4 -1.8,0.9 -1.9,2.1 -0.2,1.7 -0.4,3.4 -0.4,5.1 0,3.9 -0.2,10.8 -0.2,16.3 -0.1,5.4 -0.5,12.2 -0.5,13.8 0,1.6 0.8,1.2 2.3,0.6 2.7,-1.1 5.3,-2.3 7.9,-3.5 3.3,-1.5 6.7,-3 10,-4.4 2.6,-1.1 5.2,-2.2 7.8,-3.3 0.4,-0.2 1,-0.7 1,-1.1 0.2,-2.5 0.4,-4.9 0.3,-7.4 -0.1,-2.9 -0.6,-5.7 -0.8,-8.6 -0.1,-1.8 -0.1,-3.6 -0.2,-5.3 -0.1,-2.9 -0.6,-8.3 -0.6,-8.3 z m -76.7,-94.1 h 0.1 c 0,-1.1 0.1,-2.3 0,-3.4 0,-0.7 -0.4,-1.2 -1.2,-1.2 -3.1,-0.3 -6.2,-0.5 -9.3,-0.9 -5,-0.5 -9.9,-0.1 -14.9,0.3 -2.4,0.2 -4.9,0.2 -7.4,0.2 -0.8,0 -1,0.3 -1,1 0,1.4 -0.1,2.8 0,4.3 0.1,2.6 0.4,5.3 0.5,7.9 0.1,3 0.2,6 0.3,9.1 0.1,2.9 0.4,5.8 0.5,8.6 0,0.9 0.2,1.5 1.2,1.6 0.4,0 0.8,0.2 1.2,0.2 2,0 17.7,-0.9 21.3,-1.1 1.4,-0.1 1.8,-0.5 1.7,-1.9 -0.1,-1.3 -0.2,-2.6 -0.3,-3.8 -0.2,-1.7 0.3,-2.1 2,-2.1 1.4,0 2.8,-0.1 4.2,-0.1 1.1,0 1.5,-0.6 1.5,-1.7 -0.1,-1.3 -0.2,-2.7 -0.2,-4 0,-2.7 0.1,-5.5 0.1,-8.2 0,-1.7 -0.2,-3.3 -0.3,-4.8 z M 561,240.8 v 5.1 c 0,0.9 0.4,1.2 1.3,1.1 1.1,-0.1 2.3,-0.2 3.4,-0.3 3.8,-0.3 7.6,-1.2 11.5,-0.5 1.9,0.3 9.2,0.5 10.9,0.4 1.7,0 1.5,1.4 1.5,2 0,2 -0.2,3.9 -0.2,5.9 0,1.6 0.2,1.8 1.9,1.6 2.7,-0.3 5.5,-0.6 8.2,-0.9 0.9,-0.1 1.6,-0.5 1.7,-1.3 0.2,-1.1 0.3,-2.3 0.3,-3.4 0,-3.6 -0.1,-7.2 -0.1,-10.8 0,-2.4 0.2,-4.8 0.3,-7.1 0,-2 0,-4 0,-6 0,-2.7 0.2,-5.5 0.2,-8.2 0,-1.9 -0.4,-2.2 -2.3,-2.2 -2.4,0 -4.8,0.1 -7.3,0.2 -1,0 -2.1,0 -3.1,0 -2.1,0 -4.2,0 -6.3,0.2 -4.5,0.3 -9,0.7 -13.5,1.1 -2.4,0.2 -4.8,0.4 -7.2,0.6 -0.9,0.1 -1.1,0.4 -1,1.2 0.1,1 0,2 0,3 -0.1,3 -0.2,6 -0.3,9.1 -0.3,3 -0.1,9.2 0.1,9.2 z m 128,133.3 c -0.1,0 0.1,3.5 0.3,5.2 0.3,2.3 0.3,2.2 2.6,2.5 3.5,0.5 6.9,0.1 10.4,-0.2 2,-0.2 4.1,-0.5 6.1,-0.6 1.6,-0.1 3.2,-0.2 4.8,-0.1 3.4,0.3 6.8,0.1 10.1,-0.5 1.3,-0.2 1.6,-0.6 1.5,-2 -0.1,-1.5 -0.1,-2.9 -0.1,-4.4 0,-1.1 0.1,-2.3 0.1,-3.4 0,-0.8 0.1,-1.6 0.2,-2.3 0.1,-1 0.3,-1.9 0.4,-2.9 0.1,-2.9 0.1,-5.8 0.3,-8.8 0,-1.1 0.2,-2.3 0.3,-3.4 0.3,-4.6 0.1,-9.2 0.9,-13.7 0.3,-1.4 -4.5,-1.3 -5.9,-1.3 -1.2,0 -7.9,0.2 -10.1,0.3 -5.5,0.1 -11.1,0.4 -16.6,1.3 -1.6,0.3 -3.2,0.6 -4.9,0.9 -0.6,0.1 -0.9,0.3 -0.9,1 0.1,3.8 0.2,7.7 0.3,11.5 0.1,1.9 0.3,3.8 0.3,5.8 0.1,5.1 0,10.1 -0.1,15.1 z M 495.7,257.8 c 0.1,0.6 0.2,1 1,1 3.9,0.1 7.9,0.3 11.8,0.2 1.7,0 3.3,-0.4 5.1,-0.1 1.6,0.3 3.3,0.1 4.9,0 5,-0.5 10.1,-1.1 15.1,-1.7 0.4,0 1,-0.4 1.1,-0.8 0.2,-1.3 0.2,-2.5 0.3,-3.8 0,-1.9 0,-3.8 0.1,-5.6 0.2,-2.6 0.7,-5.3 0.8,-7.9 0.1,-4.9 0.1,-9.9 0.1,-14.8 0,-0.8 0.1,-1.6 0,-2.3 -0.1,-1.3 -0.7,-1.9 -2,-1.9 -1.2,-0.1 -2.4,-0.1 -3.6,-0.1 -3.4,-0.1 -6.8,-0.2 -10.1,-0.1 -4.2,0.1 -8.5,0.6 -12.7,0.8 -3.2,0.2 -6.5,0.1 -9.7,0.2 -2,0 -2.4,0.4 -2.4,2.4 v 1.2 c -0.2,2.6 -0.3,5.1 -0.5,7.7 0,0.4 0,1 0.2,1.1 1.2,0.5 0.8,1.2 0.3,2 -0.2,0.3 -0.2,0.7 -0.2,1 0,1 0,2.1 0.1,3.1 0.1,3.9 0.2,7.8 0.2,11.7 z M 371.4,312 c 0.2,1.8 0.3,3.6 0.5,5.3 0.4,4 1.2,8 2.7,11.8 0.8,2.1 1.6,4.1 3.2,5.7 0.6,0.6 1.1,0.8 2,0.5 2.6,-0.8 5.3,-1.5 7.9,-2.3 4.8,-1.3 9.6,-2.7 14.4,-4 3.5,-1 7,-1.9 10.5,-2.8 1.4,-0.4 1.4,-0.5 0.6,-1.7 -1.1,-1.8 -2.4,-3.6 -3.1,-5.6 -1.2,-3.3 -0.9,-6.7 -0.2,-10.1 0.6,-2.9 1.5,-5.8 2.9,-8.6 1.9,-3.9 4,-7.7 6.3,-11.4 1.3,-2.1 2.7,-4.3 3.8,-6.5 1.8,-3.7 3.8,-7.2 6.2,-10.4 1.7,-2.3 3.4,-4.7 5.1,-7 0.8,-1.1 1.6,-2.1 2.3,-3.2 0.8,-1.1 1.5,-2.3 2.3,-3.4 1.3,-1.6 2.7,-3 4,-4.5 1.1,-1.3 2.1,-2.8 3.1,-4.2 0.5,-0.7 1.1,-1.5 1.5,-2.3 0.4,-0.7 0.2,-1.1 -0.7,-1 -1,0.1 -1.9,0.2 -2.9,0.2 -2.4,0 -4.8,-0.1 -7.2,-0.1 -2.9,0.1 -5.7,0.2 -8.6,0.4 -5.8,0.3 -11.6,0.6 -17.5,0.9 -0.4,0 -0.9,0.2 -1.2,0.5 -1,1.1 -1.9,2.4 -2.8,3.6 -1.7,2.2 -3.5,4.5 -5.2,6.7 -2,2.6 -4.1,5.1 -6,7.7 -1.9,2.6 -3.7,5.2 -5.6,7.8 -1.8,2.4 -3.6,4.7 -5.3,7.1 -1.5,2.2 -3.1,4.4 -4.3,6.7 -1.9,3.5 -3.4,7.2 -5.2,10.8 -2.1,4.3 -3.9,8.6 -3.5,13.4 z m 3.9,109.4 c -0.2,-1.6 -0.5,-3.4 -0.1,-4.9 1,-4.2 1.4,-8.6 3.4,-12.6 1.1,-2.3 2.2,-4.6 3.6,-6.8 1,-1.7 2.5,-3 3.6,-4.6 3.1,-4.5 5.9,-9.1 5.6,-15 0.5,-1.8 -0.1,-3.6 -0.6,-5.4 -0.1,-0.5 -0.3,-0.7 -0.8,-0.5 -1.1,0.5 -2.3,0.9 -3.5,1.3 -1.9,0.7 -3.8,1.3 -5.7,2.1 -1.7,0.7 -2.3,0.3 -2.6,-1.5 -0.2,-1.1 -0.4,-2.3 -1.1,-3.2 -2.2,-2.6 -3.7,-5.5 -4.9,-8.7 -0.2,-0.6 -0.6,-1 -1.4,-1 -0.5,0 -1.3,-0.4 -1.5,-0.9 -0.8,-1.6 -1.6,-3.2 -2.3,-4.8 -1,-2.5 -1.4,-3.2 -4.1,-1.2 -1.5,1.1 -2.8,0.5 -3.2,-1.3 -0.3,-1.1 -0.7,-2.3 -1.1,-3.4 -0.4,-1.3 -0.9,-2.5 -1.3,-3.8 -0.2,-0.7 -0.1,-1.1 0.7,-1.4 1.7,-0.6 3.4,-1.4 5.1,-1.9 4.2,-1.4 8.2,-3.2 12.1,-5.1 0.6,-0.3 0.6,-0.5 0.3,-1 -0.7,-1.2 -1.3,-2.5 -2,-3.7 -1.7,-2.9 -2,-6.2 -2.7,-9.3 -0.6,-2.8 -0.6,-5.7 -1,-8.6 -0.5,-4.2 0,-8.1 1.6,-12 1.1,-2.6 2.1,-5.2 3.4,-7.7 1.9,-3.7 3.8,-7.4 5.9,-11 1.7,-2.8 3.7,-5.4 5.7,-8.1 1.4,-2 3,-3.8 4.5,-5.7 2.5,-3.4 4.9,-6.9 7.4,-10.2 2.3,-3.1 4.8,-6 7.2,-9 0.3,-0.4 0.6,-0.8 0.7,-1.3 0.4,-1.1 0.3,-1.2 -0.8,-1.1 -2.4,0 -4.8,0.1 -7.1,0 -5.7,-0.2 -11.4,-0.4 -17.1,0.2 -4.1,0.4 -8.3,0.5 -12.5,0.7 -4.5,0.2 -9,0.2 -13.4,0.3 -0.9,0 -1.7,0.1 -2.6,0.2 -0.8,0.1 -0.9,0.5 -0.5,1.2 0.3,0.6 0.7,1.1 1,1.6 2.4,4.3 4.6,8.6 7.7,12.4 1,1.2 4.3,6.5 5.5,7.6 l 0.2,0.2 c 0.3,0.3 0.5,0.9 0.4,1.3 -0.1,0.7 -0.6,1.5 -1.3,1.3 -0.6,-0.2 -8.1,-11.1 -9.7,-13.7 -2.4,-3.9 -4.6,-7.9 -6.9,-11.9 -1.3,-2.3 -2.7,-4.6 -4.1,-6.8 -0.8,-1.3 -1.7,-2.5 -2.5,-3.7 -0.5,-0.8 -0.9,-0.6 -1.4,-0.1 -1.1,1.4 -2.2,2.8 -3.4,4.2 -0.5,0.6 -1,1.3 -1.6,1.9 -0.6,0.7 -1.5,1.3 -1.9,2.1 -1.3,2.1 -3.1,3.8 -4.8,5.6 -1.4,1.6 -2.8,3.2 -4.1,4.8 -1.9,2.3 -3.7,4.8 -5.7,7.1 -3.2,3.9 -7.2,7.2 -9.7,11.7 -0.8,1.4 -0.9,1.4 0.3,2.6 2.8,2.9 5.5,5.8 8.3,8.6 1.5,1.5 3.1,2.9 4.6,4.3 0.2,0.2 0.8,0.3 1,0.2 1.1,-0.9 2.3,-1.8 3.3,-2.9 0.7,-0.7 1.3,-0.9 2.1,-0.2 0.6,0.6 1.1,1.3 1.7,2 1.6,1.8 3.2,3.6 4.8,5.4 0.5,0.6 8.9,12.9 10.9,15.2 2.1,2.4 6.7,8.7 6.8,9.5 0,0.2 -0.4,0.5 -0.7,0.6 -0.9,0.2 -6.7,-7.8 -8.5,-10.1 -2.3,-3.1 -12.6,-16.8 -14.6,-19 -0.6,-0.7 -1.2,-0.8 -2,-0.3 -0.8,0.6 -1.8,1 -2.6,1.5 -2.8,2 -5.6,4.1 -8.5,6.1 -1.3,1 -2.7,1.8 -4.1,2.8 -3.5,2.7 -6.9,5.4 -10.4,8.1 -1.7,1.3 -3.3,2.6 -4.9,3.9 -0.2,0.2 -0.5,0.8 -0.4,0.9 0.8,1.1 1.8,2.1 2.7,3.1 0.6,0.6 1.3,1.1 1.8,1.7 0.6,0.7 1.1,0.8 1.9,0.4 2.1,-1 4.1,-2 6.2,-2.9 1.5,-0.7 3.1,-1.2 4.7,-1.8 0.7,-0.3 1.3,0.1 1.6,0.8 0.7,1.6 1.5,3.1 2.2,4.7 0.5,1.2 -7,3.8 -9.1,4.9 -1.8,0.9 -1.8,1.5 -0.7,3.1 1.1,1.5 2.1,3.1 3,4.7 0.9,1.6 1,1.6 2.7,0.8 1.6,-0.8 3.3,-1.4 4.9,-2.2 1.5,-0.8 6.5,-3.1 7.2,-1 0.7,2 0.7,3.1 1.6,4.5 1,1.7 0.6,2.6 -1.3,3.1 -2.2,0.7 -4.4,1.5 -6.6,2.3 -0.6,0.2 -0.7,0.6 -0.2,1.1 2.2,2.4 4.5,4.9 6.8,7.2 2.5,2.5 5,4.9 7.6,7.4 l 3.9,3.9 c 3,3.2 5.6,6.8 9.2,9.4 0.6,0.4 0.7,1.8 0.3,2.4 -0.5,0.6 -2.7,-1.4 -3,-1.8 -2.7,-3 -5.5,-6 -8.3,-9 -1.8,-1.9 -3.7,-3.9 -5.5,-5.7 -2.7,-2.7 -5.5,-5.3 -8.1,-8 -1.3,-1.3 -2.5,-2.8 -3.7,-4.2 -1.2,-1.4 -1.5,-1.5 -3.1,-0.7 -1.3,0.6 -2.4,1.5 -3.7,2.1 -3.4,1.8 -6.7,3.5 -10.1,5.3 -1.5,0.8 -3.1,1.5 -4.6,2.3 -1.8,1 -3.8,1.9 -5.4,3.2 -2,1.5 -3.8,3.3 -5.7,5 -2.5,2.2 -5.1,4.5 -7.7,6.7 -0.6,0.5 -1.2,1.1 -1.8,1.7 -0.6,0.5 -1.3,0.3 -1.7,-0.3 -0.4,-0.6 -0.3,-1.2 0.2,-1.7 1,-0.8 2.1,-1.6 3.1,-2.4 1.6,-1.2 3.2,-2.5 4.7,-3.8 0.4,-0.3 0.6,-0.8 1,-1.1 -0.5,0.1 -0.9,0.2 -1.4,0.3 -0.2,0 -0.4,0.1 -0.5,0.2 -3.6,1.6 -7.1,3.1 -10.7,4.7 -0.7,0.3 -3.9,2.4 -5.1,2.3 -0.8,-0.1 -1.4,-0.3 -1.7,-1.2 -0.4,-1.1 -1,-2.2 -1.6,-3.2 -0.2,-0.4 -1.8,-2 -1.4,-2.6 0.4,-0.6 4.9,-2.4 7.3,-3.5 0.6,-0.3 0.8,-0.5 0.5,-1.2 -0.9,-1.8 -1.8,-3.6 -2.7,-5.4 -1.4,-2.7 -1.4,-2.7 -4.1,-1.3 -1.2,0.6 -2.3,1.3 -3.5,2 -0.8,0.5 -3.9,2.5 -4.6,1.1 -0.7,-1.5 -1.4,-3 -2.1,-4.5 -0.4,-0.8 -0.1,-1.6 0.8,-1.7 0.4,-0.1 4.8,-2 6.6,-2.9 2.7,-1.4 5.4,-2.8 8,-4.2 1.5,-0.8 3,-1.6 4.5,-2.4 2.8,-1.6 5.5,-3.2 8.3,-4.8 2.8,-1.6 5.7,-3.1 8.6,-4.6 1.6,-0.8 3.3,-1.6 4.9,-2.4 1.7,-0.8 3.3,-1.7 5,-2.6 0.4,-0.2 0.7,-0.3 0.4,-0.9 -2.2,-3.8 -5.2,-7 -8.7,-9.8 -1,-0.8 -1.5,-0.8 -2.6,0 -2.4,1.9 -4.9,3.7 -7.2,5.7 -3.5,3.2 -7.5,5.4 -11.3,8.2 -2.3,1.7 -4.5,3.4 -6.7,5.2 -1.8,1.4 -3.4,2.9 -5.1,4.3 -1.1,0.9 -2.1,2 -3.3,2.9 -1.1,0.9 -2.3,1.8 -3.6,2.5 -0.4,0.2 -1.4,-1.2 -1,-1.5 1.3,-1 2.8,-1.7 4.1,-2.7 2.5,-1.9 5,-3.9 7.4,-5.9 2,-1.6 3.9,-3.4 6,-5 3.8,-2.9 7.7,-5.7 11.5,-8.5 1.3,-1 2.5,-2 3.7,-3.1 1.7,-1.5 3.4,-3 5,-4.7 1.2,-1.2 2,-1.3 3.2,-0.1 1.1,1.2 2.2,2.4 3.3,3.6 0.4,0.4 0.7,0.9 1.4,0.5 0.7,-0.5 1.5,-0.9 2.2,-1.4 2.4,-1.9 4.8,-3.8 7.2,-5.7 2.5,-2 5,-4 7.6,-5.9 2.3,-1.8 4.7,-3.5 7.1,-5.2 1.9,-1.3 2.2,-1.4 0.4,-3.7 -0.1,-0.1 -0.2,-0.2 -0.3,-0.3 -1.5,-1.6 -2.9,-3.1 -4.4,-4.7 -1.5,-1.6 -2.9,-3.2 -4.4,-4.7 -2.2,-2.3 -4.5,-4.5 -6.7,-6.8 -1.5,-1.6 -3.2,-3 -5,-4.2 -0.7,-0.5 -1.2,-0.4 -1.8,0.1 -1.6,1.4 -3.3,2.7 -5,4 -1,0.8 -2.1,1.5 -3,2.4 -2.1,1.9 -4.2,3.9 -6.3,5.9 -2.8,2.6 -5.6,5.1 -8.3,7.7 -1,0.9 -1.9,1.9 -2.9,2.9 -2,2 -4.1,4.1 -6,6.1 -0.4,0.4 -0.7,0.5 -1.1,0.2 -0.7,-0.5 -0.8,-1.1 -0.1,-1.8 0.6,-0.6 1.2,-1.2 1.9,-1.8 2.2,-2.1 4.4,-4.3 6.7,-6.4 2.6,-2.4 5.4,-4.8 8,-7.2 1.7,-1.5 3.3,-3.2 5,-4.7 1.5,-1.3 9,-7.6 10.5,-10.2 0.6,-1.1 1.8,-1 2.6,-0.1 l 0.6,0.6 c 1.4,1.2 2.7,2.4 4.1,3.6 0.8,0.7 1.6,1.5 2.4,2.2 0.2,0.2 0.7,0.4 0.9,0.3 0.6,-0.4 1.2,-0.8 1.7,-1.3 2.4,-2.7 4.9,-5.4 7.3,-8.2 1.7,-1.9 3.5,-3.7 5.1,-5.8 2.3,-3 4.3,-6.1 7.2,-8.6 0.2,-0.2 0.3,-0.5 0.5,-0.8 -0.3,-0.2 -0.6,-0.3 -0.9,-0.4 -0.3,-0.1 -0.5,0 -0.8,0 -3.3,0.1 -6.5,0.2 -9.8,0.4 -3.9,0.2 -7.8,0.3 -11.7,0.5 -2.8,0.2 -5.7,0.5 -8.5,0.7 -3.8,0.2 -7.6,0.2 -11.4,0.4 -3.4,0.1 -6.9,0.5 -10.3,0.6 -2.9,0.1 -5.5,0.6 -7,3.3 -0.3,0.5 -0.7,1 -1,1.5 -1.6,2.1 -3.3,4.2 -4.8,6.3 -1.9,2.6 -3.8,5.3 -5.7,7.9 -3.4,4.6 -6.9,9.2 -10.4,13.7 -3.3,4.3 -6.7,8.5 -10,12.8 -1.7,2.2 -3.5,4.5 -5,6.8 -1.2,1.7 -2.1,3.6 -3.2,5.4 -1.8,2.8 -3.6,5.6 -5.5,8.4 -1.8,2.7 -3.7,5.3 -5.5,8 -1.6,2.2 -3.2,4.5 -4.7,6.7 -2.8,4.2 -5.7,8.3 -8.4,12.6 -2.1,3.3 -4.2,6.6 -6.3,10 -2.2,3.6 -4.3,7.1 -6.4,10.7 -1.3,2.3 -2.5,4.6 -3.9,6.8 -1.5,2.5 -3.1,4.9 -4.6,7.3 -3.4,5.6 -6.8,11.2 -10.3,16.7 -2.2,3.5 -4.5,6.9 -6.5,10.5 -2.6,4.5 -5.1,9.1 -7.6,13.7 -2.2,4.2 -4.3,8.4 -6.5,12.6 -0.3,0.5 -0.4,1.2 -0.6,1.7 0.7,0.1 1.4,0.2 2.1,0.2 2.7,-0.2 5.5,-0.6 8.2,-0.6 4.1,0 8.2,0.3 12.4,0.4 3.8,0 7.5,-0.2 11.3,-0.2 2.4,0 4.8,0 7.3,-0.1 2.3,-0.1 4.6,-0.3 6.9,-0.5 3.9,-0.3 7.9,-0.5 11.8,-0.8 4.7,-0.4 9.3,-0.9 14,-1.2 3.3,-0.2 6.7,-0.3 10,-0.4 3.3,-0.2 6.7,-0.4 10,-0.7 0.9,-0.1 1.7,-0.3 2.6,-0.3 2.5,-0.1 5.1,-0.2 7.6,-0.3 1.5,-0.1 3.1,0 4.6,-0.1 4.5,-0.2 9,-0.5 13.4,-0.7 2.5,-0.1 5.1,0 7.7,0 3.8,0 7.6,0 11.4,-0.1 3.9,-0.1 7.7,-0.4 11.6,-0.1 3.7,0.3 7.5,-0.3 11.2,-0.4 3.4,-0.1 6.8,-0.2 10.3,-0.1 2.3,0 50.9,0.4 51.6,0.4 0.2,0.4 -2.4,-6.2 -2.7,-8.6 z m 5.7,9.1 c 1,0 39.3,0.3 41,0.1 1.4,-0.1 1.7,-0.5 1.2,-1.8 -0.8,-2.2 -1.7,-4.4 -2.4,-6.7 -1.1,-3.5 -2.5,-6.9 -2.8,-10.6 -0.1,-1.2 -0.3,-2.4 -0.3,-3.5 0,-2.2 -0.1,-4.4 0.4,-6.6 1.1,-5.6 3.6,-10.7 6.2,-15.8 1.5,-3 3,-6 4.5,-9.1 0.3,-0.7 0.8,-1.2 1,-1.9 1.3,-3.8 1.5,-7.6 0.4,-11.5 -0.2,-0.7 -0.5,-1.4 -0.9,-2 -0.3,-0.3 -0.9,-0.6 -1.3,-0.6 -3.4,0.8 -6.9,1.6 -10.3,2.5 -5,1.3 -9.8,3.3 -14.9,4.4 -3.1,0.7 -6.2,1.9 -9.2,3 -0.4,0.1 -0.7,0.7 -0.8,1.1 -0.1,0.5 0.1,1 0.2,1.5 0.2,1.4 0.4,2.8 0.4,4.2 0,1.3 -0.2,2.6 -0.3,3.8 -0.1,0.9 -0.1,1.8 -0.4,2.6 -1.1,3.6 -2.9,6.8 -5.2,9.8 -1.7,2.4 -3.7,4.6 -5.2,7.1 -1.9,3.2 -3.1,6.9 -3.9,10.5 -0.4,1.9 -1.1,3.8 -1.3,5.7 -0.5,3.5 2.9,13.8 3.9,13.8 z m 275.8,-41.4 c -0.1,-0.1 -0.3,-0.2 -0.4,-0.3 -0.1,0.1 -0.1,0.2 -0.2,0.4 -0.1,1.9 -0.2,3.8 -0.3,5.7 0,0.8 0.4,1.2 1.1,1.6 1.6,0.9 4.9,4.1 4.1,4.5 -0.9,0.4 -1.5,-0.2 -2,-0.5 -1.3,-0.7 -2.4,-1.9 -3.8,-2.3 -1.7,-0.5 -1.9,-0.5 -1.3,-2.3 0.1,-0.2 0.2,-0.3 0.2,-0.5 0.2,-3.3 0.9,-6.5 0.5,-9.8 -0.2,-1.2 -0.5,-0.9 -1.1,-0.7 -2.4,1 -4.8,1.9 -7.1,3 -0.4,0.2 -0.8,0.8 -0.9,1.3 -0.7,2.7 -1.4,5.3 -2,8 -0.2,0.7 0,1.4 0.7,1.8 2,1.1 4,2.3 6,3.4 0.4,0.2 0.9,0.7 1,1.2 0.1,0.4 0.4,1 -0.7,1.2 -1,0.1 -5.5,-3.8 -8,-4 -1.6,-0.1 -1.8,-0.7 -1.2,-2.2 0.7,-1.9 1.2,-3.8 1.7,-5.8 0.2,-0.8 0.2,-1.7 0.3,-2.6 0,-0.6 -0.3,-0.9 -0.8,-0.5 -0.9,0.6 -1.9,1.2 -2.8,1.7 -1.9,1.1 -3.6,3.3 -6.2,3.1 -0.4,0 -1.4,0 -2.2,-0.1 -0.7,-0.1 -1.2,-0.6 -1.2,-0.8 -0.1,-1.3 -0.2,-2.6 -0.3,-4 -0.1,-4.5 -0.2,-9.1 -0.2,-13.6 0,-0.2 -0.1,-0.4 -0.2,-0.6 -0.2,0.2 -0.4,0.3 -0.5,0.5 -0.7,2.3 -1.5,4.6 -2.1,6.9 -0.6,2 -0.9,4.1 -1.4,6.1 -0.1,0.3 -0.4,0.8 -0.7,0.8 -0.3,0 -0.8,-0.2 -1,-0.5 -0.2,-0.3 -0.1,-0.8 0,-1.1 0.8,-2.6 1.8,-5.2 2.5,-7.8 0.7,-2.9 1.4,-5.7 3.2,-8.1 0.3,-0.4 0.4,-1.1 0.4,-1.7 0.1,-2.8 0.1,-5.6 0.3,-8.5 0.2,-3.3 0.6,-6.7 0.6,-10 0.1,-2.4 1.3,-4 3.1,-4.4 0.5,-0.1 0.9,-0.4 1.4,-0.6 0.7,-0.3 0.7,-0.7 0.3,-1.3 -0.8,-1.2 -1.5,-2.5 -2.2,-3.8 -0.4,-0.8 -2.6,-5.8 -2.9,-6.5 -1.1,-2.6 -2.2,-5.1 -3.3,-7.7 -1.3,-2.9 -2.7,-5.8 -4,-8.8 -0.9,-2.1 -1.6,-4.4 -2.6,-6.5 -1.5,-3.2 -3.1,-6.3 -4.6,-9.5 -0.3,-0.7 -0.6,-1.5 -0.9,-2.2 -0.1,-0.2 -0.4,-0.3 -0.6,-0.4 -0.1,0.2 -0.2,0.4 -0.2,0.6 -0.1,0.9 -0.1,1.7 -0.2,2.6 0,0.3 -0.3,0.7 -0.6,0.7 -2.5,0.3 -5,0.5 -7.5,0.7 -0.8,0.1 -1.6,0 -2.3,0.1 -0.8,0.1 -1.3,0.4 -1.1,1.4 0.2,1.1 0.3,2.3 0.4,3.4 0.2,4 0.7,8 1.8,11.9 0.4,1.5 0.7,2.9 2.2,3.9 0.6,0.4 0.6,1.3 0.1,1.8 -0.6,0.6 -1.3,0.4 -1.7,-0.1 -0.7,-0.9 -1.5,-1.9 -1.8,-3 -1.4,-4.2 -1.9,-8.6 -2.1,-13.1 -0.1,-1.8 -0.5,-3.5 -0.8,-5.3 -0.1,-0.7 -0.6,-1 -1.3,-0.8 -0.4,0.1 -0.8,0.2 -1.2,0.3 -0.7,0.1 -0.9,0.5 -0.8,1.2 0.5,4 0.4,8.1 -0.2,12.1 -0.4,2.8 -0.9,5.5 -1.4,8.3 -0.2,0.9 -0.7,1.3 -1.6,1 -0.9,-0.3 -0.9,-1.1 -0.6,-1.8 0.1,-0.3 0.4,-0.6 0.5,-1 0.3,-0.8 0.8,-1.6 0.9,-2.4 0.3,-3.2 0.6,-6.4 0.8,-9.6 0.1,-1.8 0,-3.7 -0.2,-5.5 -0.1,-1 -0.6,-1.9 -1.8,-1.8 -1.7,0.1 -3.4,0.2 -5.1,0.3 -1.9,0.1 -3.7,0.3 -5.6,0.3 -1.1,0 -1.7,-0.8 -1.7,-1.9 0,-1 0,-1.9 0,-2.9 -0.1,-2.2 -0.3,-4.3 -0.4,-6.5 -0.1,-3.8 -0.2,-7.7 -0.2,-11.5 0,-0.8 -0.4,-1.2 -1.2,-1.2 -1.2,0 -2.5,0 -3.7,0 -1.8,0 -2,0.1 -2.3,1.9 0,0.2 -0.1,0.5 -0.1,0.7 0.1,4.3 -0.3,8.6 0.6,12.9 0.5,2.2 0.7,4.5 2.5,6.1 0.2,0.1 0.3,0.4 0.3,0.6 0,0.4 0,0.9 -0.2,1.1 -0.3,0.2 -0.9,0.3 -1.2,0.2 -0.4,-0.2 -0.8,-0.6 -1,-1 -1.4,-2.4 -1.9,-5.1 -2.3,-7.7 -0.2,-1.3 -0.3,-2.7 -0.3,-4.1 -0.1,-2.8 0,-5.7 -0.2,-8.5 -0.1,-1.5 -0.6,-1.8 -1.7,-1.7 -2,0.2 -2.7,0.6 -2.6,2.1 0.1,3.6 0.1,7.3 0.5,10.8 0.4,3.4 -0.1,6.6 -1.4,9.7 -0.2,0.5 -0.7,0.9 -1.2,1.1 -0.3,0.1 -0.9,-0.2 -1.1,-0.5 -0.5,-0.6 -0.3,-1.2 0.2,-1.7 1.4,-1.7 1.7,-3.8 1.6,-6 -0.1,-4.5 -0.4,-9.1 -0.5,-13.6 0,-0.8 -0.3,-1.2 -1.1,-1.1 -2,0.1 -4,0.2 -6,0.1 -1.4,0 -2.9,0.7 -4.3,0 -1,-0.5 -0.8,-3.1 -0.8,-3.6 -0.1,-2.6 -0.2,-5.1 -0.3,-7.7 0,-2.2 0.1,-4.4 0,-6.6 -0.2,-5.4 -0.8,-14.6 -0.9,-16.6 -0.1,-2 0.9,-2.6 3.4,-2.3 2.5,0.3 3.8,0.3 3.9,-2.6 0,-0.2 0.1,-0.5 0,-0.7 -0.1,-0.2 -0.4,-0.5 -0.6,-0.6 -2.7,-0.2 -5.4,-0.5 -8.1,-0.6 -2.1,-0.1 -4.3,0.1 -6.4,0.2 -1.9,0.1 -3.8,0.3 -5.7,0.4 -0.9,0.1 -1.4,0.6 -1.4,1.6 0,1.6 -0.1,3.1 -0.2,4.7 -0.1,2.9 -0.7,5.7 0,8.6 0.1,0.3 -0.3,0.9 -0.6,1 -1.6,0.4 -3.3,0.8 -5,1 -3,0.3 -6.1,0.5 -9.1,0.7 -2.1,0.2 -2.3,0.3 -2.3,2.5 v 0.4 c 0.1,2.6 0.3,5.3 0.3,7.9 0,2.2 0,4.4 -0.1,6.6 -0.2,4.3 -0.4,8.7 3.6,11.7 0.6,0.5 0.4,1.3 -0.1,1.8 -0.4,0.5 -1,0.4 -1.5,-0.1 -2.5,-2.8 -4.3,-5.9 -4.1,-9.9 0.1,-2.9 0.4,-5.8 0.4,-8.6 0,-2.5 -0.2,-5 -0.3,-7.5 -0.1,-1.2 -0.2,-2.4 -0.4,-3.5 -0.1,-0.7 -0.5,-0.9 -1.2,-0.8 -0.7,0.1 -1.4,0.2 -2,0.1 -1.6,-0.2 -1.7,-0.1 -1.7,1.5 0.1,2.4 0.2,4.8 0.2,7.1 0,2.2 -0.3,4.4 -0.1,6.6 0.4,3.9 0.2,7.8 -0.6,11.6 -0.3,1.3 -0.9,2.6 -1.5,3.8 -0.1,0.3 -0.8,0.6 -1,0.5 -0.3,-0.2 -0.7,-0.7 -0.7,-1 0,-0.7 0.1,-1.4 0.4,-2 1.9,-3.3 1.4,-7 1.7,-10.5 0.2,-2 -0.1,-4 -0.1,-6 -0.1,-3.6 -0.3,-7.1 -0.4,-10.7 0,-0.9 -0.5,-1.3 -1.4,-1.3 -2.6,0 -5.1,0 -7.7,0.1 -0.6,0 -1.7,0.4 -1.7,0.7 -0.4,2.2 -1.3,4.5 0.3,6.6 0.8,1.1 0.7,2.3 0.5,3.4 0,0.3 -0.4,0.7 -0.7,0.8 -0.2,0.1 -0.8,-0.2 -0.9,-0.4 -0.6,-1.4 -1.2,-2.9 -1.5,-4.3 -0.3,-1.4 -0.1,-2.9 -0.3,-4.4 -0.1,-0.7 -0.4,-1.5 -0.9,-2.1 -0.2,-0.3 -1,0 -1.5,0 -0.8,0 -1.5,0 -1.5,-1.1 0,-2.7 0,-5.4 0,-8.1 0,-2.4 0.2,-4.8 0.2,-7.1 0,-2.5 -0.3,-4.9 -0.4,-7.4 -0.1,-2.2 0,-2.2 -2.2,-2.2 -1.8,-0.1 -1.9,0 -1.8,1.8 0.1,3.3 0.3,6.7 0.3,10 0,2.6 -0.3,5.2 -0.3,7.8 -0.1,3.1 0,6.2 -0.1,9.3 -0.1,1.4 -0.5,2.8 -0.9,4.2 -0.3,0.9 -1.1,1.3 -1.8,1 -0.9,-0.4 -1.2,-1.2 -0.6,-2 1.3,-1.8 1.2,-3.8 1.3,-5.8 0.1,-3.4 0.3,-6.9 0.4,-10.3 0.1,-2.2 0.1,-4.5 0.1,-6.7 0,-0.7 -0.2,-0.9 -1,-0.8 -3.6,0.2 -7.3,0.3 -10.9,0.5 -2.4,0.1 -4.8,0.2 -7.2,0.4 -2.1,0.2 -4.3,0.6 -6.4,0.7 -3.5,0.3 -6.9,0.5 -10.4,0.5 -1.3,0 -2,0.6 -2.6,1.6 -1.2,1.9 -2.3,3.9 -3.8,5.5 -3.6,4.1 -6.9,8.4 -10.1,12.9 -2.8,3.9 -5.4,7.8 -8,11.8 -0.7,1.1 -1.2,2.3 -1.8,3.4 -1.2,2.1 -2.6,4.2 -3.8,6.4 -1.5,2.6 -2.9,5.3 -4.4,7.9 -1.6,3 -3.5,5.8 -4.2,9.2 -0.1,0.6 -0.4,1.2 -0.7,1.8 -1.1,2.4 -1.2,4.9 -1.2,7.4 0,4.1 2.4,7.3 4.5,10.6 0.4,0.6 0.9,0.7 1.5,0.6 4.5,-1.1 9,-2.2 13.4,-3.4 1.3,-0.3 2.1,0.1 2.5,1.5 0.2,0.6 0.6,1.2 0.9,1.8 0.7,1.4 2.5,2.4 1.9,4.4 -0.1,0.3 0.3,0.7 0.4,1 0.9,2.6 2.8,4.5 4.2,6.7 0.2,0.3 0.8,0.5 1.2,0.4 2.8,-0.5 5.6,-1 8.3,-1.8 1.9,-0.5 2.3,-0.3 2.6,1.6 0.4,2.7 0.9,5.4 1.6,8.1 0.3,1.3 0.2,2.4 -0.1,3.7 -0.2,0.8 -0.3,1.7 -0.2,2.5 0.1,1.2 -0.1,1.7 -1.3,2 -2.1,0.6 -4.2,1.1 -6.2,1.6 -4.8,1.3 -9.5,2.6 -14.3,3.9 -1,0.3 -1.2,0.8 -1,1.6 0.2,1.1 0.7,2.1 0.8,3.2 0.2,2.2 0.6,4.4 0.3,6.5 -0.5,4.2 -2.4,7.9 -4.3,11.7 -2.6,5.1 -5.5,10.1 -7.2,15.6 -0.9,2.7 -1.5,5.5 -1.3,8.4 0.1,1 0.3,2 0.3,3 0.2,3.4 0.8,6.7 1.9,10 1,3 2.2,5.9 3.2,8.9 0.2,0.6 0.4,1.1 0.4,1.7 0,0.8 0.4,0.9 1.1,0.8 1.4,-0.1 2.7,-0.2 4.1,-0.2 3.3,-0.1 6.7,-0.3 10,-0.4 3.7,-0.1 7.4,-0.2 11.1,-0.3 1.8,0 3.7,0 5.5,-0.1 3.6,-0.1 7.1,-0.3 10.7,-0.4 3.5,-0.1 7,-0.1 10.6,-0.1 3,0 6,-0.1 9,-0.2 4,-0.1 7.9,-0.1 11.9,-0.2 5.8,-0.2 11.5,-0.5 17.3,-0.7 3.2,-0.1 6.4,-0.1 9.5,-0.1 h 3.2 9.3 c 1.7,0 3.3,0.2 5,0.3 2.8,0.1 5.7,0.3 8.5,0.4 2.6,0.1 5.3,0.1 7.9,0.2 3.5,0.1 6.9,0.2 10.4,0.3 2,0 4.1,-0.2 6.2,-0.3 h 7.3 c 1.1,0 2.3,-0.2 3.4,-0.2 4.8,0 9.6,0.2 14.4,0.2 h 12.3 c 3.2,0 6.4,-0.2 9.6,-0.3 3.9,-0.2 7.8,-0.4 11.7,-0.5 2.2,-0.1 4.5,0.1 6.7,0 2.4,-0.1 4.7,-0.5 7.1,-0.5 6.1,-0.2 12.2,-0.3 18.4,-0.5 2.5,-0.1 4.9,-0.1 7.4,-0.1 1,0 0.9,-0.4 0.5,-1 -1.2,-2.1 -2.5,-4.3 -3.6,-6.4 -0.9,-1.7 -1.8,-3.4 -2.7,-5.1 -1.4,-2.9 -2.7,-5.8 -4,-8.7 -0.7,-1.5 -1.3,-3.1 -2,-4.7 -0.5,-0.6 -4.6,-9 -6.2,-11.9 z m 1.2,-50.3 c 1.1,-0.5 2.2,-0.7 3.4,-0.1 0.8,0.4 1.8,0.4 2.6,0.7 1,0.3 1.6,0.8 1.5,2 -0.1,1.3 0,2.7 0,4 v 4.3 c 0,0.7 0.3,1.3 1.1,1.3 2.1,0.1 4.3,0.2 6.4,0.2 0.3,0 0.8,-0.3 1,-0.6 0.7,-1.3 1.2,-2.6 1.9,-3.9 0.2,-0.5 0.2,-1.2 1.2,-1.1 1,0.1 1,1 0.9,1.5 -0.1,0.8 -0.7,1.5 -1.1,2.3 -0.4,0.6 -0.8,1.2 -1.2,1.7 h 2.1 c 1.6,-0.1 3.3,-0.2 4.9,-0.3 h 0.3 c 3.7,-0.2 4.1,-0.6 4,-4.3 -0.1,-1.8 -0.3,-3.6 -0.4,-5.4 -0.2,-1.7 0.1,-2 1.8,-2.1 1,-0.1 2.2,0.1 2.9,-0.4 0.5,-0.4 0.5,-1.7 0.5,-2.6 0.1,-1.1 -0.1,-2.2 0,-3.3 0.1,-2.7 0.2,-5.4 0.3,-8.1 0.1,-2.6 0.2,-5.2 0.3,-7.8 0.1,-1.7 0.1,-3.5 0.1,-5.2 0,-0.9 -0.1,-1.7 -0.3,-2.6 -0.1,-0.2 -0.5,-0.5 -0.8,-0.5 -2.1,-0.1 -4.3,-0.2 -6.4,-0.2 -1.9,0 -3.7,0.1 -5.6,0.2 -1.7,0.1 -3.5,0.3 -5.2,0.4 -2.1,0.1 -4.2,0 -6.3,0 -2.3,0.1 -4.5,0.2 -6.8,0.3 -1.2,0.1 -2.5,0.1 -3.7,0.2 -2.1,0.1 -4.3,0.3 -6.4,0.5 -0.3,0 -0.7,0.6 -0.8,0.9 -0.2,2.8 -0.4,5.7 -0.3,8.5 0.1,1.5 0.1,7.6 0.1,7.8 0,3.2 0.5,14.2 0.2,14.5 z m -26.4,-4.2 c 0.5,1 1.8,4.7 2.2,5.4 1.1,1.9 2.2,3.7 3.4,5.5 0.1,0.2 0.7,0.3 1,0.2 2.5,-0.9 5,-1.9 7.5,-2.7 l 2.7,-1.2 c 0,-2.9 0,-7.4 0,-10.3 0,-2.1 0.2,-4.1 0,-6.2 -0.1,-1.1 -0.9,-2.1 -1.5,-3.1 -1.1,-1.9 -2.6,-3.7 -3.3,-5.8 -1.3,-4.2 -2.2,-8.6 -3.1,-12.9 -0.1,-0.6 0,-1.4 0.1,-2 0.1,-0.3 0.5,-0.8 0.8,-0.8 0.3,0 0.7,0.3 0.9,0.6 0.2,0.2 1.3,6.7 2,9.6 0.6,2.6 1.7,5.1 2.7,7.6 0.2,0.5 0.8,0.9 1.2,1.4 0.1,-0.6 0.2,-1.1 0.3,-1.7 0.1,-3.2 0.2,-6.5 0.3,-9.7 0,-1.1 0.7,-1.5 1.7,-1.4 4.2,0.3 17,-0.3 19.1,-0.4 3.1,-0.1 15.7,-0.7 18.9,-0.9 1,0 1.9,-0.2 2.9,-0.4 1.2,-0.2 2.4,0.5 2.5,1.7 0.1,2.4 0.1,4.7 0.1,7.1 v 10.4 c 0,0.6 0.2,0.8 0.7,0.4 0.8,-0.7 1.6,-1.3 2.3,-2.1 2.5,-2.7 12.3,-15.1 13,-16 0.7,-0.8 1.8,0.5 1.7,0.8 -0.2,0.6 -0.6,1.1 -0.9,1.7 -2.5,3.4 -11.2,13 -12.6,14.6 -1.2,1.4 -2.6,2.6 -3.8,3.9 -0.3,0.4 -0.7,0.9 -0.7,1.4 0.1,2.5 0.4,4.9 0.6,7.4 0.1,1 0.6,1.3 1.6,1.2 1.8,-0.3 3.5,-0.6 5.3,-0.8 2.4,-0.2 4.8,-0.4 7.3,-0.5 3.7,-0.2 18,-0.3 18.1,-0.4 1.6,-0.3 2.2,0.3 2,2 -0.3,2.5 -0.6,5 -0.8,7.5 -0.3,4.6 -0.8,15.1 -0.7,15.5 0.4,-0.2 1.2,-0.7 1.6,-1 2.5,-2.6 4.8,-5.2 6.8,-8.2 2.1,-3.2 3.7,-6.5 5.2,-9.9 0.2,-0.5 0.5,-1.2 1.3,-0.9 0.8,0.3 0.6,1 0.4,1.6 -0.8,2 -3,7.1 -5.8,11.2 -2.3,3.4 -5.3,6 -6.2,7 -0.8,0.9 -1.8,1.5 -2.6,2.4 -0.4,0.4 -0.7,1.1 -0.7,1.7 -0.2,3.2 -0.4,6.4 -0.5,9.6 0,1.9 0.4,3.8 0.4,5.7 0,0.8 -0.3,1.7 -0.8,2.3 -0.6,0.6 -6.8,0.1 -7.7,0.2 -0.8,0.1 -1.2,0.5 -1.2,1.2 -0.2,4.4 -0.4,8.8 -0.5,13.2 0,0.7 0.4,1.6 0.8,2.2 0.7,1 1.6,1.8 2.3,2.7 0.3,0.4 0.4,1 0.3,1.5 -0.1,0.3 -1.4,1.1 -2.2,-0.4 -0.4,-1.2 -1,-2.1 -2,-2.8 -0.5,-0.3 -1,-0.8 -1.4,-1.3 -0.6,-0.6 -0.6,-1.4 -0.2,-1.9 1,-1.1 1,-2.4 1,-3.6 0.2,-3.2 0.1,-6.5 0.3,-9.8 0,-1.1 -0.4,-1.5 -1.4,-1.6 -2.7,-0.3 -9.7,0.4 -10.5,0.4 -1.1,0 -1.8,0.4 -1.9,1.5 -0.2,3.6 -0.5,7.2 -0.7,10.8 -0.1,1.3 0.1,2.7 0.2,4 0.1,1 -0.4,1.5 -1.3,1.8 -1.4,0.4 -2.7,1 -4.1,1.5 -1.7,0.6 -1.4,-1.3 -1,-1.6 0.5,-0.4 1.2,-0.6 1.9,-0.8 1.2,-0.4 2,-1.2 2.1,-2.5 0.2,-2.5 0.3,-4.9 0.5,-7.4 0.2,-1.8 0.5,-3.6 0.7,-5.5 0.1,-1.2 0,-1.4 -1.2,-1.2 -2.1,0.4 -8.4,-0.1 -10.1,-0.1 -1.6,0 -1.4,-1.2 -1.5,-2.7 -0.2,-2.3 -0.2,-5.4 -0.1,-7.1 0,-0.6 0.1,-1.2 0.1,-1.8 0,-1.1 0,-2.2 0,-3.3 0,-1.6 0,-3.2 0,-4.8 0,-0.3 -0.1,-0.5 -0.2,-0.8 -0.2,0.2 -0.5,0.4 -0.6,0.7 -0.6,1.9 -1.2,3.8 -1.8,5.8 -1.2,3.7 -1.2,15.8 -1.1,17.4 0.1,1.5 -1.1,1.7 -1.6,0.4 -0.5,-1.3 -0.3,-1.9 -0.3,-2.8 0.2,-3.8 0.5,-7.7 0.8,-11.5 0.1,-1 -1.1,-2.4 -1.2,-2.4 -4.7,-3.4 -3.9,-2.3 -4.1,-7.7 -0.1,-2.8 -0.1,-5.6 -0.2,-8.4 0,-0.6 -0.4,-1.7 -0.6,-1.7 -0.9,0 -1.8,0.3 -2.7,0.6 -0.3,0.1 -0.5,0.5 -0.7,0.8 -1.4,1.7 -2.7,3.5 -4.1,5.2 -0.6,0.7 -1.2,1.5 -1.9,2 -0.9,0.6 -0.9,1.2 -0.8,2.1 0.4,3.6 0.7,7.3 1,11 0.1,1.3 0,2.6 0,4 0,0.7 -0.3,1 -1,1.2 -3.1,1.3 -6.2,2.7 -9.3,4 -0.6,0.3 -0.6,0.7 -0.4,1.2 1.5,3.1 3.1,6.1 4.6,9.2 0.6,1.2 1,2.4 1.5,3.7 0.9,2 1.7,4 2.6,6 0.2,0.5 2.5,4.7 2.6,4.9 0,0.1 2.1,4.7 3.3,6.9 1.8,3.1 3.6,6.3 5.4,9.4 0.2,0.3 0.4,0.5 0.5,0.8 0.2,0.8 0.7,1.9 0.4,2.2 -0.6,0.7 -1.5,1.5 -2.6,1.1 -2.6,-0.9 -5.3,-0.4 -7.9,-0.4 -3,0 -6,0.3 -9,0.4 -4.3,0.1 -8.5,0 -12.8,0.1 -5.2,0.1 -10.3,0.4 -15.5,0.6 -4.2,0.1 -8.3,0.2 -12.5,0.3 -4.1,0.1 -8.2,0.5 -12.3,0.5 -3.3,0 -6.7,-0.3 -10,-0.3 -4.1,0 -8.3,0.1 -12.4,0.2 -4.9,0 -9.7,0 -14.6,-0.1 -2.7,0 -5.4,0.1 -8.1,0 -4.1,-0.1 -8.2,-0.4 -12.4,-0.6 -2.7,-0.1 -5.5,-0.4 -8.2,-0.5 -2.3,-0.1 -4.6,0 -6.8,0 -1.6,0 -3.2,-0.1 -4.8,-0.1 -4.6,0.1 -9.2,0.3 -13.7,0.4 -5,0.1 -10.1,0.3 -15.1,0.4 -4.2,0.1 -8.4,0.3 -12.7,0.4 -3.6,0.1 -7.2,0 -10.7,0.1 -5.2,0.1 -10.5,0.3 -15.7,0.4 -5.1,0.1 -10.3,0.2 -15.4,0.4 -2.4,0.1 -4.7,0.2 -7.1,0.3 -3.5,0.1 -7,0.3 -10.4,0.4 -4.6,0.1 -9.2,0.1 -13.8,0 -3.8,0 -7.6,-0.2 -11.4,-0.2 -4.2,0 -8.3,0.3 -12.5,0.3 -6.1,0 -12.1,0 -18.2,-0.1 -6.8,0 -13.6,0 -20.3,0 -2.3,0 -4.7,-0.2 -7,-0.3 -1.6,-0.1 -3.3,0 -4.9,-0.1 -3.3,-0.1 -6.7,-0.2 -10,-0.3 -4.1,-0.1 -8.3,-0.2 -12.4,-0.1 -8.9,0.1 -17.8,0.3 -26.7,0.5 -6.2,0.1 -12.4,0.1 -18.5,0.3 -5.7,0.2 -11.4,0.4 -17,0.7 -4.2,0.2 -8.3,0.5 -12.5,0.8 -4,0.3 -8,0.5 -12.1,0.8 -3.5,0.2 -6.9,0.5 -10.4,0.8 -6.1,0.5 -12.1,1 -18.2,1.4 -5.5,0.3 -11,0.4 -16.5,0.6 -2.2,0.1 -4.4,0.2 -6.6,0.3 -3.5,0 -7,0 -10.4,0 -2.8,0 -5.6,0 -8.4,0 -0.2,0 -0.4,0 -0.5,0 -2.5,1 -5.2,0.6 -7.9,0.8 -0.6,0 -1.4,-0.2 -1.7,-0.6 -0.2,-0.3 0.1,-1.1 0.4,-1.6 1.4,-2.6 2.7,-5.3 4.1,-7.9 1.5,-2.7 2.9,-5.4 4.4,-8.1 1.4,-2.5 2.8,-4.9 4.2,-7.4 3.1,-5.4 6,-10.9 9.6,-16.1 1.8,-2.6 3.3,-5.4 5,-8.1 2.7,-4.4 5.5,-8.8 8.2,-13.1 1.3,-2 2.4,-4.1 3.7,-6.1 1.2,-2 2.5,-4 3.7,-6.1 1.6,-2.7 3.1,-5.4 4.7,-8.1 1.4,-2.3 2.8,-4.5 4.2,-6.8 1.3,-2.1 2.6,-4.3 4,-6.4 2.1,-3.2 4.3,-6.3 6.4,-9.4 1.1,-1.7 2.2,-3.4 3.4,-5 2,-2.8 4.1,-5.5 6,-8.3 1.4,-2 2.7,-4 4,-6.1 1.6,-2.6 3.1,-5.2 4.7,-7.8 0.8,-1.3 1.6,-2.6 2.6,-3.9 2.3,-2.9 4.7,-5.8 7.1,-8.7 2,-2.5 3.9,-5 5.8,-7.6 0.7,-0.9 1.5,-1.9 2.2,-2.8 1.7,-2.4 3.3,-4.8 5,-7.1 3.3,-4.5 6.6,-8.9 9.9,-13.4 1.4,-1.9 2.6,-3.9 4,-5.7 1,-1.3 2.9,-5.3 4.9,-5.6 2,-0.3 9.1,-0.2 13.4,-0.4 1.7,-0.1 3.4,-0.1 5.1,-0.1 2,0 3.9,-0.1 5.9,-0.2 3.2,-0.2 6.4,-0.3 9.6,-0.5 1.7,-0.1 3.3,-0.4 5,-0.5 2.5,-0.1 4.9,-0.2 7.4,-0.2 3.5,-0.1 7,-0.1 10.4,-0.2 2.2,-0.1 4.1,-0.8 5.5,-2.9 1.2,-1.9 7.7,-10.5 7.9,-10.5 0.5,0 1.4,0 1.6,0.4 1.9,2.9 3.8,5.9 5.6,8.9 0.5,0.8 1,1.6 1.6,2.4 0.8,1 2.1,0.8 3.2,0.8 4.2,0 8.4,-0.1 12.6,-0.3 4.9,-0.2 9.9,-0.7 14.8,-0.9 5.7,-0.2 11.4,0 17.1,-0.1 4.3,-0.1 8.6,-0.3 12.9,-0.4 3.2,-0.1 6.5,-0.1 9.7,-0.2 2.8,-0.1 5.7,-0.2 8.5,-0.3 2.7,-0.1 5.4,-0.1 8.1,-0.2 8.5,-0.3 11.2,-0.5 12.8,-0.6 3.1,-0.1 6.2,-0.2 9.3,-0.4 3,-0.2 6,-0.7 9,-0.9 3.3,-0.3 6.7,-0.3 10,-0.6 2.1,-0.2 4.1,-0.8 6.1,-1.2 0.8,-0.2 1.7,-0.1 2.6,-0.3 0.3,-0.1 0.7,-0.4 0.7,-0.7 0,-1.3 -0.1,-2.7 -0.2,-4 0,-0.3 -0.6,-0.7 -0.9,-0.7 -3.6,-0.3 -7.1,0.1 -10.6,0.6 -0.6,0.1 -1.5,-0.4 -2,-0.8 -0.6,-0.5 -0.2,-1.1 0,-1.7 0.4,-1.2 0.9,-2.5 1,-3.8 0.6,-4.9 1.1,-9.7 0.9,-14.6 -0.1,-1.9 0.3,-3.7 0.4,-5.6 0.1,-1.1 0,-2.3 0,-3.4 0,-1.6 0.4,-1.9 2,-1.9 5.6,0.1 11.2,0.1 16.8,0.1 3.2,0 6.4,-0.3 9.6,-0.5 0.6,0 1.3,-0.2 1.9,-0.4 1.8,-0.5 3,-0.2 3,2 0,3.4 0.3,6.8 0.5,10.1 0.1,0.9 0.4,1.7 0.7,2.6 0,0.1 0.3,0.1 0.5,0.1 2.8,-0.1 5.7,-0.3 8.5,-0.4 2.6,-0.1 5.2,-0.1 7.8,-0.2 2.5,-0.1 4.9,-0.2 7.4,-0.3 0.4,0 0.7,-0.1 1.1,-0.1 2,0 2.1,0.4 2,2.3 -0.2,4.2 -0.2,8.3 -0.3,12.5 v 6.7 c 0,1.6 0.2,1.9 1.8,1.9 3.1,0 6.1,-0.1 9.2,-0.1 3.4,-0.1 6.8,-0.1 10.1,-0.2 0.9,0 0.9,-0.5 0.8,-1.1 -0.1,-2.7 -0.2,-5.4 -0.3,-8.1 0,-3 0,-6 0.1,-8.9 0,-1.2 -0.4,-5.9 -0.2,-6.5 0.2,-0.6 2.9,-0.2 3.7,-0.2 0.1,0 7.5,-0.4 11,-0.6 3.3,-0.3 6.6,-0.7 10,-0.9 1.6,-0.1 3.3,-0.1 4.9,-0.1 2.7,0 5.3,0 8,-0.1 1.4,-0.1 2.9,-0.4 4.3,-0.6 1.6,-0.3 2.3,0.2 2.4,1.8 0.1,1.6 0.1,3.2 0.1,4.8 -0.1,7.8 -0.2,15.5 -0.3,23.3 0,3.7 0.2,7.4 0.4,11.1 0.1,1.9 0.1,2 -1.8,2.1 -1.5,0.1 -3,0.2 -4.5,0.3 -1.2,0.1 -1.5,0.3 -1.2,1.4 0.2,1.1 0.6,2.1 1.2,3 1.3,2.5 2.7,4.9 4.2,7.3 0.6,0.9 1.4,1.7 2.1,2.5 0.1,0.2 0.4,0.3 0.6,0.3 2.8,0.2 5.6,0.9 8.5,0.4 0.3,0 0.5,-0.1 0.8,-0.1 2.2,0.1 2.3,0.4 2.1,2.6 -0.3,4 -0.4,8 -0.6,12 -0.1,3.4 -0.4,10.3 -0.4,10.3 0,0 4.8,10.5 6.9,14.4 0.5,1 0.8,2.1 1.3,3.2 1.3,3 2.6,6.1 3.9,9.1 z"
       id="path24"
       inkscape:connector-curvature="0"
       style="fill-rule:evenodd" />
    <path
       d="m 161.7,324.3 c 0.2,0.3 1.1,-1 1.1,-1.2 0,-0.3 -0.2,-3 -0.3,-3.3 -0.2,0.2 -0.6,4.1 -0.8,4.5 z m 4.3,-0.2 c -0.1,-0.1 -1.4,0.3 -2.8,1.2 -1.8,1.2 -24.4,14.4 -26.1,15.6 -1.8,1.5 1.2,0.7 1.1,0.9 0.2,0 19.9,-12.4 20.1,-12.5 1.8,-1.1 3.4,-2.5 5.2,-3.5 1.1,-0.5 2.4,-1.5 2.5,-1.7 z m -0.9,-2.5 c -0.4,-1.1 -0.7,-2.3 -1.2,-3.5 -0.1,-0.2 -0.2,-0.3 -0.3,-0.5 -0.1,0.2 -0.3,0.4 -0.3,0.5 0.3,1.5 0.6,3.1 0.9,4.6 0,0 0.5,0.1 0.6,0 0.1,-0.3 0.2,-0.7 0.3,-1.1 z m -2.2,-7.4 c -0.4,-2 -0.7,-6 -1.1,-7.3 -0.1,-0.3 -1.4,0.1 -1.7,0 -0.1,0.3 1.5,5.4 2.1,7.3 0.1,0.2 0.3,0.4 0.4,0.6 0.1,-0.3 0.2,-0.5 0.3,-0.6 z M 138,346.8 c -0.2,-0.8 -0.5,-1.7 -0.9,-2.4 -0.1,-0.2 -1.3,0.1 -1.3,0.4 0,0.7 0.2,1.4 0.3,2 0.5,3.1 0.9,6.3 1.4,9.4 0.1,0.9 0.2,1.9 1.5,1.9 0.2,0 0.4,0.3 0.4,0.5 0.3,1 0.7,2 0.3,3.2 -0.3,1 -0.7,2.1 -0.5,3.1 0.9,5.3 1.9,10.5 2.9,15.8 0.2,1 0.7,1.4 1.6,1.7 0.5,0.2 0.7,0.1 0.6,-0.5 -0.9,-5.1 -1.9,-10.2 -2.8,-15.3 0,-0.1 0,-0.2 0,-0.3 -0.3,-2.1 -2.9,-16.7 -3.5,-19.5 z M 98.3,335.1 c 0.1,0.9 0.1,1.8 0.3,2.7 0.8,5 1.7,9.9 2.5,14.9 0.6,3.9 1.3,7.9 1.8,11.8 0.2,1.3 1,1.1 1.7,1.1 0.9,0.1 1,-0.6 1,-1.3 -0.1,-1.2 -0.3,-2.4 -0.5,-3.5 -0.6,-3.5 -1.3,-7 -1.7,-10.6 -0.2,-1.8 -0.5,-3.4 -1.7,-4.8 -0.4,-0.5 -1.2,-1.8 -1.5,-2.4 -0.2,-0.5 0.7,-2 1.2,-1 0.2,0.3 0.8,1.2 1,1.3 0.1,-0.2 0.2,-0.4 0.2,-0.6 -0.1,-0.9 -0.2,-1.7 -0.3,-2.6 -0.5,-4.5 -1,-8.9 -1.5,-13.4 -0.1,-0.5 -0.1,-2.2 -0.4,-2.5 -0.4,-0.4 -2.3,0.2 -2.3,0.8 -0.1,0.8 -0.1,2.6 0,3.4 -0.1,2.3 0.2,6.7 0.2,6.7 z m 71.3,1.1 c 0.1,2.1 0.2,4.2 0.3,6.3 0.1,1.2 0.5,1.5 1.3,0.6 1.8,-1.9 6.4,-5.2 7.2,-5.8 0,0 0.1,-0.1 0.1,-0.1 2,-1.3 4.1,-2.5 6,-4 1.9,-1.5 3.7,-3.1 5.5,-4.7 0.9,-0.7 1.3,-1.6 1.2,-2.8 -0.4,-2.6 -0.9,-5.1 -1.2,-7.7 -0.4,-2.7 -0.7,-5.4 -0.9,-8.1 -0.3,-3.9 -0.4,-7.7 -0.6,-11.6 -0.1,-2.1 -0.1,-4.2 -0.2,-6.3 0,-0.5 0,-0.9 -0.2,-1.3 -0.1,-0.2 -0.6,-0.4 -0.8,-0.3 -0.8,0.4 -1.6,0.9 -2.4,1.2 -4.1,1.8 -7.6,4.4 -11.3,6.8 -0.9,0.6 -1.9,1.1 -2.8,1.7 -1.6,1.1 -3.1,2.2 -4.7,3.3 -2,1.3 -3.4,2.8 -2.8,5.4 0.1,0.3 0.1,0.6 0.2,0.9 0.6,3.4 1.1,6.8 2.4,10 0.5,1.4 0.6,3.1 2,4.1 0.3,0.3 0.5,0.9 0.6,1.4 0.5,3.6 1.2,11 1.1,11 z m -2.4,-10.1 c -0.1,-0.9 -0.6,-0.9 -1.2,-0.4 -1.5,1.1 -2.9,2.2 -4.4,3.2 -2.5,1.6 -5,3 -7.5,4.5 -2.1,1.3 -4.2,2.6 -6.3,3.9 -0.9,0.5 -1.7,1.1 -2.5,1.7 -1.7,1.1 -3.4,2.1 -5.1,3.3 -0.4,0.3 -0.7,1 -0.7,1.5 0,1.1 0.3,2.2 0.5,3.2 0.7,4 1.3,8 2,11.9 0.7,4.1 1.5,8.3 2.3,12.4 0.6,3.2 1.4,6.4 2.1,9.7 0.2,0.9 0.6,0.8 1.2,0.3 2.7,-2 5.3,-4 8,-6 3.1,-2.4 6.2,-4.9 9.2,-7.3 1.3,-1.1 2.6,-2.2 4,-3.1 1.7,-1.1 1.8,-1 1.3,-3 -0.8,-3.8 -1.4,-7.7 -1.4,-11.6 0,-1.5 -0.1,-3 -0.2,-4.5 -0.2,-1.4 -1.2,-2.7 -0.1,-4.2 -0.3,-2.5 -1.1,-14.5 -1.2,-15.5 z m -26.9,-7.3 c -0.5,-3.1 -0.8,-6.2 -1.2,-9.3 -0.1,-0.7 -0.5,-0.9 -1.1,-0.6 -1,0.4 -2,0.9 -3,1.3 -1.7,0.7 -3.5,1.2 -5.3,2 -4.7,2 -9.3,4 -14,6 -0.5,0.2 -0.9,0.4 -1.4,0.6 -3.5,1.3 -7.1,2.5 -10.6,3.8 -1.5,0.6 -1.9,1.4 -1.8,3.3 0.1,1.5 0.3,3 0.5,4.5 0.5,4 1.1,7.9 1.5,11.9 0.3,2.8 0.4,5.6 2.3,8 1.5,1.9 2.6,4.1 4.1,6 1.3,1.7 3.4,3.4 4.1,4.2 0.7,0.8 -0.3,1.5 -1.2,0.5 -0.9,-1 -3.9,-3.5 -6.3,-7.4 -0.4,-0.6 -0.8,-1.1 -1.2,-1.7 -0.1,-0.1 -0.3,-0.2 -0.4,-0.3 -0.1,0.2 -0.2,0.4 -0.2,0.6 0,0.2 0,0.4 0.1,0.5 0.8,3.9 1.6,7.8 2.4,11.7 0,0.1 0.1,0.3 0.1,0.4 0.2,0.5 0.4,0.9 1.1,0.7 1.2,-0.3 6.1,-2.3 7.4,-2.6 4.2,-1.2 15.1,-6.1 16.6,-6.7 0.7,-0.3 1.5,-0.6 2.1,-1 0.4,-0.3 0.7,-0.9 0.6,-1.3 -0.5,-3.3 -1.1,-6.6 -1.6,-9.9 -0.1,-0.6 -0.1,-1.4 0.2,-1.8 0.7,-0.9 1.6,-1.7 2.5,-2.3 1.6,-1.1 3.3,-2.1 4.9,-3.2 0.7,-0.4 1,-0.8 0.9,-1.8 -0.2,-1.5 -1.7,-13 -2.1,-16.1 z m 52.6,7.1 c 0.3,1.1 0.1,1.8 -0.8,2.5 -1.8,1.6 -3.6,3.3 -5.4,4.9 -0.7,0.6 -0.8,1.3 -0.5,2.2 0.4,1.1 0.5,2.3 0.8,3.5 0.5,2 1.2,2.7 3.3,2.8 0.4,0 0.9,0 1.2,0.1 0.3,0.1 0.7,0.5 0.7,0.7 0,0.3 -0.3,0.8 -0.5,0.9 -1.1,0.6 -4.6,0 -5.3,-1 -0.4,-0.6 -0.4,-1.4 -0.6,-2.2 -0.3,-1.5 -0.6,-3 -0.9,-4.4 -0.1,-0.5 -0.4,-0.7 -0.9,-0.4 -1.4,1 -2.9,2 -4.3,3 -0.3,0.2 -0.6,0.6 -0.6,0.8 0.2,1.7 0.4,3.4 0.8,5.1 0.1,0.3 0.6,0.6 1,0.7 0.8,0.1 1.6,0 2.3,0.2 0.4,0.1 1.1,-0.1 1.1,0.7 0,0.8 -0.6,1.1 -1.1,1.2 -1.3,0.1 -2.6,0 -4,-0.2 -1.5,-0.2 -1.9,-1 -1.7,-2.8 0.1,-1 0.2,-1.9 0.1,-2.9 -0.1,-1 -0.7,-1.3 -1.4,-0.6 -1.5,1.5 -2.9,3.1 -4.2,4.6 -0.2,0.2 -0.3,0.8 -0.1,1.1 1.3,3.6 2.7,7.1 4.1,10.6 0.3,0.8 0.9,1.5 1.3,2.3 0.2,0.4 0.1,1 0,1.4 -0.1,0.2 -0.7,0.5 -0.9,0.4 -0.4,-0.2 -0.7,-0.6 -0.9,-1.1 -0.3,-0.7 -0.4,-1.4 -0.6,-2.1 -0.9,-2.4 -1.8,-4.7 -2.8,-7 -0.3,-0.8 -0.7,-1.7 -1.1,-2.5 -0.1,-0.2 -0.3,-0.3 -0.4,-0.5 -0.1,0.2 -0.3,0.4 -0.3,0.6 0.1,2.6 0.1,5.2 0.4,7.8 0.2,2.2 0.8,4.3 1.3,6.5 0.2,1.1 -0.7,2.6 -1.7,3.3 -1.8,1.2 -3.6,2.5 -5.4,3.8 -0.3,0.2 -0.3,0.8 -0.3,1.2 0.3,2.8 0.7,5.5 1,8.3 0.2,1.8 0.8,2.2 2.6,1.6 1.1,-0.4 2.2,-0.7 3.3,-1 1.2,-0.2 0.9,1.6 0.6,1.7 -2.3,0.7 -4.6,1.4 -6.9,1.9 -1,0.2 -1.5,-0.5 -1.3,-1.6 0.4,-3 -1.1,-10 -1.8,-9.5 -1.9,1.4 -3.7,2.9 -5.5,4.4 -0.3,0.3 -0.4,1 -0.4,1.5 0.1,2.9 0.3,5.8 0.5,8.7 0.1,1.2 0.5,1.6 1.8,1.4 1.1,-0.1 2.2,-0.3 3.2,-0.6 0.8,-0.2 1.4,-0.2 1.7,0.6 0.4,0.9 -0.3,1.3 -0.9,1.6 -0.4,0.2 -0.9,0.2 -1.3,0.2 -1.3,0.2 -2.7,0.3 -4,0.6 -1.8,0.4 -2.8,-0.5 -2.6,-2.3 0.2,-2.5 -0.2,-9.2 -0.4,-9.9 -0.6,0.4 -1.2,0.7 -1.7,1.1 -1.8,1.4 -3.5,2.9 -5.2,4.4 -1.3,1.2 -1.7,0.7 -3.8,0 -2.1,-0.7 -2.4,-2.2 -2.7,-4 -0.6,-3.1 -1.2,-6.1 -1.8,-9.2 0,-0.1 -0.1,-0.2 -0.1,-0.3 -0.1,-0.4 -0.2,-0.8 -0.3,-1.3 -0.1,0.5 -0.3,0.9 -0.3,1.4 0.3,3.4 0.6,6.8 0.9,10.2 0.1,1 -0.1,1.6 -0.9,1.7 -0.8,0.1 -1.2,-0.3 -1.4,-1.3 -0.2,-2.1 -0.6,-4.2 -0.6,-6.3 0,-2.3 0.3,-4.6 0.6,-6.8 0.5,-3.4 0.6,-6.7 -0.2,-10.1 -0.1,-0.5 -0.2,-1.1 -1,-0.9 -1.7,0.5 -3.4,1 -5.1,1.5 -0.8,0.2 -1,0.7 -0.9,1.6 0.3,2.1 0.4,4.3 0.7,6.4 0.2,1.9 0.5,2.2 2.3,2.6 0.3,0.1 0.7,0.1 0.9,0.3 0.2,0.3 0.4,0.8 0.4,1.2 0,0.2 -0.6,0.5 -0.9,0.5 -0.8,0 -1.5,-0.2 -2.3,-0.4 -1,-0.2 -1.5,-1 -1.6,-1.9 -0.2,-1.5 -0.2,-3.1 -0.4,-4.6 -0.2,-1.1 -0.5,-2.2 -0.8,-3.3 -0.2,-0.6 -0.6,-0.7 -1.2,-0.5 -1.3,0.5 -2.5,1.1 -3.8,1.6 -1.1,0.4 -1.2,1.3 -1.1,2.3 0.3,2.2 0.6,4.4 0.9,6.7 0,0.3 0.1,0.6 0.2,0.9 0.5,2.4 0.6,2.5 2.9,2.6 0.7,0 1.4,-0.1 1.3,0.9 -0.1,0.9 -0.7,1.1 -1.5,1 -1.1,-0.1 -2.2,-0.2 -3.3,-0.3 -1,-0.2 -1.4,-0.9 -1.4,-1.9 0,-2.1 -0.1,-4.3 -0.3,-6.4 -0.1,-1.2 -0.4,-2.4 -0.6,-3.7 -0.1,-0.6 -0.3,-0.8 -0.9,-0.6 -1.9,0.7 -3.8,1.4 -5.6,2.1 -1.9,0.7 -3.7,1.9 -5.7,2.2 -1.6,0.3 -3.4,-0.1 -5,-0.6 -0.6,-0.2 -1.1,-1.4 -1.2,-2.2 -0.6,-3.1 -1.1,-6.2 -1.5,-9.4 -0.5,-3 -0.8,-6.1 -1.2,-9.1 -0.3,-1.9 -0.7,-3.9 -1,-5.8 -0.4,-2.5 -0.7,-5.1 -0.9,-7.6 -0.2,-2.9 -0.3,-5.8 -0.4,-8.8 0,-0.5 -0.1,-1.2 0.9,-1.7 1.8,-1 41.6,-17.1 42,-17.3 1,-0.4 1.5,-0.1 1.6,1 0.2,2.2 0.3,4.4 0.6,6.6 0.5,4.9 2.8,17.9 3,19.6 0.2,1.3 0.5,1.4 1.6,0.8 3.4,-1.8 12.8,-7.2 14,-8.2 0.3,-0.2 0.5,-0.6 0.5,-0.9 0.3,-3.3 1.5,-6.7 0.3,-10 -0.2,-0.6 -1.3,-5.2 -2,-6.8 -0.5,-1.1 -0.2,-2.2 0.8,-2.8 2.1,-1.2 12.1,-7.8 19.8,-12.3 4.6,-2.7 7.3,-4.4 8.4,-4.2 1.2,0.2 1.4,-0.1 1.6,1.2 0.2,1.3 0.1,8.3 0.7,11.3 0.1,0.6 1.3,2.6 1.5,3.2 1.4,3.2 5.6,10.2 6.4,11.9 0.3,0.7 0.8,1.6 0.8,2.3 0,0.4 0,1.2 -1.2,0.8 -1.1,-0.4 -7.2,-13.2 -7.4,-13.4 -0.3,0.6 2,18.8 2.3,20.2 z"
       id="path26"
       inkscape:connector-curvature="0"
       style="fill-rule:evenodd" />
    <path
       d="m 681,331.6 c -2.7,0 -5.5,0 -8.2,0 -1.1,0 -2.2,-0.2 -3.3,-0.3 -0.5,-0.1 -0.8,-0.3 -0.7,-0.9 0.1,-0.5 0,-1.1 0.1,-1.6 0.1,-0.3 0.1,-1.4 0.7,-1.3 0.6,0.2 0.9,0.7 1,0.9 0.3,1.2 0.1,1.3 1.1,1.3 h 7.7 c 0.9,0 1.5,-0.3 1.6,-1.3 0,-0.2 0.1,-0.5 0.2,-0.6 0.2,-0.2 0.5,-0.5 0.7,-0.5 0.2,0 0.5,0.4 0.6,0.6 0.2,0.8 0.3,1.5 0.3,2.3 0,1.2 -0.3,1.4 -1.8,1.4 z"
       id="path28"
       inkscape:connector-curvature="0"
       style="fill-rule:evenodd" />
    <path
       d="m 178.7,277.5 c 0.1,0.8 -0.5,1.1 -1.2,1.2 -0.8,0.1 -1.5,0.3 -2.3,0.4 -1.5,0.2 -2.4,-1 -1.8,-2.3 0.3,-0.7 0.7,-1.4 0.9,-2.2 0.1,-0.5 0,-1.1 -0.2,-1.5 -0.2,-0.2 -2.8,0.8 -3.1,0.2 -0.1,-0.2 0.7,-1.5 1.9,-2.1 0.8,-0.4 2,-0.4 2.5,-0.1 1.2,0.7 1.2,2.1 1,3.3 0,0.3 -0.2,0.5 -0.2,0.8 -0.1,0.5 -0.8,1.3 -0.4,1.6 0.6,0.6 2.8,-0.1 2.9,0.7 z"
       id="path30"
       inkscape:connector-curvature="0"
       style="fill-rule:evenodd" />
    <path
       d="m 121.9,297.1 c 0.1,0 1.7,0.5 1.6,1.2 -0.1,0.7 -2.4,1 -3.2,1 -0.6,0 -1.6,-0.2 -1.8,-0.6 -0.2,-0.7 0,-1.5 0.1,-2.3 0.2,-0.8 0.8,-1.6 0.9,-2.4 0.2,-1.3 -0.1,-1.4 -1.4,-1.2 -0.5,0.1 -1.1,0 -1.5,-0.2 -0.7,-0.4 -0.6,-1.1 0,-1.6 0.8,-0.6 2.9,-0.9 3.7,-0.4 0.8,0.5 1.3,2 1,3.2 -0.2,0.7 -0.4,1.4 -0.7,2.1 -0.3,1.2 -0.3,1.2 1.3,1.2 z"
       id="path32"
       inkscape:connector-curvature="0"
       style="fill-rule:evenodd" />
    <path
       d="m 151,299.2 c -0.2,0.9 -0.4,1.9 -0.8,2.8 -0.2,0.6 -0.4,0.9 0.5,0.9 0.5,0 1.2,0.7 1.3,1.1 0.2,0.7 -0.5,1.1 -1.2,1.1 -1.1,0.1 -2.2,0.6 -3,-0.6 -0.5,-0.7 -0.5,-1.3 0,-2 0.5,-0.6 0.9,-1.3 1.1,-2 0.3,-1 -0.1,-1.4 -1.1,-1.2 -0.1,0 -0.3,0 -0.4,0.1 -0.5,0.1 -1.1,0.4 -1.3,-0.4 -0.2,-0.7 0.1,-1.2 0.8,-1.4 0.6,-0.2 1.1,-0.4 1.7,-0.5 1.5,-0.2 2.3,0.5 2.4,2.1 z"
       id="path34"
       inkscape:connector-curvature="0"
       style="fill-rule:evenodd" />
    <path
       d="m 730.2,309.1 c 0,0.5 0.4,2.1 -1,2.4 -0.4,0.1 -0.7,-1.1 -0.8,-2.8 -0.3,-3.7 -0.2,-10 -0.2,-11.5 0,-0.3 0,-0.6 0.2,-0.8 0.2,-0.3 1.5,0 1.5,0.3 -0.1,1.8 0.1,9.9 0.3,12.4 z"
       id="path36"
       inkscape:connector-curvature="0"
       style="fill-rule:evenodd" />
    <path
       d="m 730.8,315.4 c -0.2,0.9 -0.8,0.7 -1.2,0.7 -0.4,0 -1.1,-0.5 -1.1,-0.8 -0.1,-0.7 0.4,-1.3 1.2,-1.1 0.4,0 1.3,0.3 1.1,1.2 z"
       id="path38"
       inkscape:connector-curvature="0"
       style="fill-rule:evenodd" />
    <path
       d="m 674.6,285.3 c 0,0.5 0.4,2.1 -1,2.4 -0.4,0.1 -0.7,-1.1 -0.8,-2.8 -0.3,-3.7 -0.2,-10 -0.2,-11.5 0,-0.3 0,-0.6 0.2,-0.8 0.2,-0.3 1.5,0 1.5,0.3 -0.1,1.7 0.1,9.9 0.3,12.4 z"
       id="path40"
       inkscape:connector-curvature="0"
       style="fill-rule:evenodd" />
    <path
       d="m 675.3,291.6 c -0.2,0.9 -0.8,0.7 -1.2,0.7 -0.4,0 -1.1,-0.5 -1.1,-0.8 -0.1,-0.7 0.4,-1.3 1.2,-1.1 0.3,0 1.2,0.3 1.1,1.2 z"
       id="path42"
       inkscape:connector-curvature="0"
       style="fill-rule:evenodd" />
    <path
       d="m 636,325.2 c 0,0.5 0.4,2.1 -1,2.4 -0.4,0.1 -0.7,-1.1 -0.8,-2.8 -0.3,-3.7 -0.2,-10 -0.2,-11.5 0,-0.3 0,-0.6 0.2,-0.8 0.2,-0.3 1.5,0 1.5,0.3 -0.1,1.8 0.1,10 0.3,12.4 z"
       id="path44"
       inkscape:connector-curvature="0"
       style="fill-rule:evenodd" />
    <path
       d="m 636.7,331.6 c -0.2,0.9 -0.8,0.7 -1.2,0.7 -0.4,0 -1.1,-0.5 -1.1,-0.8 -0.1,-0.7 0.4,-1.3 1.2,-1.1 0.4,0 1.2,0.3 1.1,1.2 z"
       id="path46"
       inkscape:connector-curvature="0"
       style="fill-rule:evenodd" />
    <path
       d="m 149.8,307.9 c 0.9,0.2 0.7,0.7 0.6,1.2 -0.1,0.5 -0.2,1 -0.9,1 -0.6,0 -1,-0.6 -1,-1.2 0,-0.7 0.4,-1.2 1.3,-1 z"
       id="path48"
       inkscape:connector-curvature="0"
       style="fill-rule:evenodd" />
    <path
       d="m 176.6,282.5 c 1.3,-0.5 2.1,0.7 1,1.5 -1.1,0.8 -1.9,-1.1 -1,-1.5 z"
       id="path50"
       inkscape:connector-curvature="0"
       style="fill-rule:evenodd" />
    <path
       d="m 679.1,318.6 c -0.1,0.4 -0.5,0.9 -0.9,0.8 -0.4,-0.1 -1,-0.3 -0.9,-1 0.1,-0.7 0.4,-0.6 0.8,-0.8 0.4,-0.2 1.1,0.6 1,1 z"
       id="path52"
       inkscape:connector-curvature="0"
       style="fill-rule:evenodd" />
    <path
       d="m 119.7,302.2 c 0.1,-1.1 2.1,-0.6 2.3,0.2 0.2,0.8 -0.7,1.3 -1.2,1.3 -0.5,0 -1.2,-0.4 -1.1,-1.5 z"
       id="path54"
       inkscape:connector-curvature="0"
       style="fill-rule:evenodd" />
    <path
       d="m 664.9,317.5 c -0.1,0.8 -1.5,0.5 -1.5,-0.2 0,-0.7 0.3,-0.9 0.8,-1 0.4,0 0.8,0.4 0.7,1.2 z"
       id="path56"
       inkscape:connector-curvature="0"
       style="fill-rule:evenodd" />
    <path
       d="m 602,478.2 c -0.3,0.1 -0.5,0.3 -0.7,0.3 -0.1,0 -0.2,-0.2 -0.3,-0.3 0.2,-0.1 0.3,-0.3 0.5,-0.3 0.1,-0.1 0.3,0.1 0.5,0.3 z"
       id="path58"
       inkscape:connector-curvature="0"
       style="fill-rule:evenodd" />
    <path
       d="m 304.9,418.4 c -2.5,-2.7 -5.1,-5.4 -7.5,-8.1 -1.7,-1.8 -3.2,-3.7 -4.8,-5.6 -2.1,-2.5 -4.3,-5 -6.4,-7.5 -2.1,-2.4 -4.2,-4.8 -6.4,-7.2 -1.3,-1.4 -2.7,-2.6 -4,-3.9 -0.5,-0.5 -4,1.8 -5.3,2.7 -2.4,1.6 -5.1,2.9 -7.2,4.9 -0.1,0.1 -0.2,0.2 -0.3,0.3 -1.7,1.5 -3.6,2.7 -5.3,4.2 -0.9,0.8 -6.6,5.4 -8.4,7 -1.9,1.7 -3.9,3.1 -5.9,4.7 -1.7,1.4 -3.4,2.8 -5,4.2 -0.8,0.7 -1.6,1.3 -2.5,2 -0.8,0.6 -1.4,0.3 -1.9,-0.4 -0.5,-0.8 0.1,-1.2 0.6,-1.5 2.8,-1.9 37.2,-28.9 37.8,-29.3 0.6,-0.4 1.2,-0.8 1.7,-1.3 0.9,-0.9 1.6,-0.9 2.4,0.1 1,1.2 2.1,2.3 3.1,3.5 0.7,0.8 1.3,0.7 2.1,0.1 3.2,-2.5 6,-5.5 8.9,-8.4 1.2,-1.2 2.4,-2.3 3.7,-3.5 2.5,-2.2 5,-4.4 7.5,-6.6 1.6,-1.4 7,-7 7.9,-7.2 0.7,-0.1 1.1,0.1 1.4,0.8 0.7,2.3 3.9,6 4,6.1 1.9,2.2 3.7,4.5 5.5,6.7 1.1,1.4 2.4,2.6 3.5,4 1.6,1.8 3.1,3.6 4.6,5.4 1.5,1.8 3.1,3.6 4.6,5.4 1.7,2.1 3.4,4.2 5.2,6.2 1.5,1.7 3.1,3.3 4.7,4.8 1,1 2.1,2 3.2,3 0.7,0.7 0.9,1.7 0.4,2.1 -0.7,0.6 -1.5,0.4 -2.1,-0.3 -0.5,-0.5 -0.8,-1.1 -1.3,-1.6 -1.4,-1.6 -2.9,-3.2 -4.3,-4.8 -2.3,-2.7 -4.6,-5.5 -6.9,-8.2 -3.1,-3.6 -6.2,-7.3 -9.2,-10.9 -2,-2.4 -4,-4.9 -6,-7.3 -1.2,-1.4 -2.4,-2.7 -3.7,-4.1 -0.8,-0.9 -1.6,-1.9 -2.4,-2.8 -0.9,-1.1 -1.4,-1.2 -2.5,-0.3 -2.9,2.5 -5.7,5.1 -8.7,7.3 -3.4,2.5 -6.5,5.3 -9.5,8.3 -2.5,2.5 -5,4.9 -7.6,7.4 -0.6,0.6 -0.7,1 -0.1,1.7 2.6,3.1 5.1,6.2 7.7,9.3 0.8,0.9 1.6,1.7 2.4,2.6 1,1.1 1.9,2.4 2.9,3.5 2.2,2.5 4.4,4.9 6.7,7.3 0.6,0.6 1.1,1.2 1.7,1.7 0.9,0.7 2,1.9 3,3.1 0.8,0.8 -1.7,0.7 -2,0.4 z"
       id="path60"
       inkscape:connector-curvature="0"
       style="fill-rule:evenodd" />
    <path
       d="m 341.2,338.2 c -0.5,0 -1.1,-0.8 -1.4,-1.2 -0.4,-0.6 -0.6,-1.4 -1,-1.9 -0.6,-0.7 -1.3,-1.4 -2,-2 -0.3,-0.3 -0.8,-0.5 -0.9,-0.8 -0.2,-0.4 -0.2,-1 0,-1.4 0.1,-0.2 0.9,-0.3 1.2,-0.2 0.9,0.5 1.9,1 2.6,1.7 1,1.1 1.9,2.5 2.7,3.8 0.6,1.1 -0.7,2.1 -1.2,2 z"
       id="path62"
       inkscape:connector-curvature="0"
       style="fill-rule:evenodd" />
    <path
       d="m 347.8,355.7 c -1.4,-0.2 -1.4,-0.9 -1.8,-1.5 -0.9,-1.4 -1.5,-2.9 -2.3,-4.4 -0.1,-0.2 -1.3,-1.6 0.3,-2.2 1.6,-0.6 5.1,6.5 5,7 0,0.3 0.2,1.3 -1.2,1.1 z"
       id="path64"
       inkscape:connector-curvature="0"
       style="fill-rule:evenodd" />
    <path
       d="m 357.4,363.6 c -2.1,-0.2 -3.9,-1.3 -5.6,-2.8 -0.2,-0.2 -0.3,-0.8 -0.2,-1.1 0.1,-0.2 0.6,-0.4 0.9,-0.4 0.4,0 0.9,0.2 1.1,0.4 1.2,1.1 2.6,1.3 4.1,1.4 0.7,0 1.6,-0.1 1.6,1 0.1,0.9 -0.7,1.5 -1.9,1.5 z"
       id="path66"
       inkscape:connector-curvature="0"
       style="fill-rule:evenodd" />
    <path
       d="m 217.7,363.8 c 0.6,0 0.9,0.2 1.2,0.2 0.9,0.1 1.8,0.2 2.6,0.3 0.5,0.1 1.1,0 1.6,0.2 0.4,0.2 0.7,0.8 0.7,1.2 0,0.3 -0.5,0.7 -0.8,0.9 -2,0.7 -3.9,0.2 -5.7,-0.5 -0.6,-0.2 -1.2,-0.8 -0.8,-1.5 0.2,-0.4 0.6,-0.8 1.2,-0.8 z"
       id="path68"
       inkscape:connector-curvature="0"
       style="fill-rule:evenodd" />
    <path
       d="m 327.8,321 c 0.5,0.1 0.9,0.4 1.3,0.7 0.5,0.4 1,0.9 0.5,1.5 -0.4,0.6 -1,1.1 -1.8,0.8 -1.4,-0.5 -2.8,-0.9 -4.1,-1.4 -0.5,-0.2 -1.1,-0.7 -1.1,-1.1 0,-0.8 0.8,-0.9 1.4,-0.9 0.2,-0.2 2.7,0.1 3.8,0.4 z"
       id="path70"
       inkscape:connector-curvature="0"
       style="fill-rule:evenodd" />
    <path
       d="m 237.7,365.5 c -0.4,-0.1 -1,-0.1 -1.3,-0.4 -0.3,-0.3 0,-1.6 0.4,-1.6 1.6,-0.3 3.1,-0.6 4.7,-1 0.6,-0.2 1.2,-0.2 1.4,0.4 0.1,0.4 -0.1,1.1 -0.5,1.3 -0.4,0.4 -1,0.5 -1.6,0.7 -1,0.2 -2.1,0.4 -3.1,0.6 z"
       id="path72"
       inkscape:connector-curvature="0"
       style="fill-rule:evenodd" />
    <path
       d="m 451.1,382.5 c -0.1,0 -0.3,7.3 -0.3,11 0,1.6 0.2,1.9 1.8,2 2.4,0.2 4.9,0.1 7.3,0.2 1.1,0 2.2,0.2 3.2,0.1 4.6,-0.4 9.1,-0.8 13.7,-1.3 0.9,-0.1 1.7,-0.2 2.6,-0.3 0.7,-0.1 1.1,-0.6 1.2,-1.3 0.1,-1 0.2,-2 0.3,-3 0.1,-3.9 0.3,-7.8 0.3,-11.7 0,-2.8 -0.1,-5.7 -0.3,-8.5 -0.1,-1.9 -0.7,-2.2 -2.6,-2.2 -2.3,0 -4.6,0 -6.9,-0.1 -3.4,-0.1 -6.8,-0.3 -10.3,-0.4 -2.8,0 -5.6,0 -8.4,0.2 -2,0.1 -2.3,0.2 -2.1,2.4 0.3,4.4 0.4,8.6 0.5,12.9 z m 20.6,-26.7 c 0.1,2.3 0.2,4.6 0.3,6.9 0.2,2.8 0.3,3 3,3 1.6,0 3.3,0 4.9,-0.4 1.7,-0.4 2.5,-0.2 2.6,1.6 0.2,1.8 0.2,3.6 0.3,5.3 0,3 0.3,3.3 3.3,3.2 h 0.3 c 2.6,-0.1 5.2,-0.3 7.8,-0.4 2.1,-0.1 4.3,-0.1 6.4,-0.2 1,0 2.4,-1.1 2.6,-1.9 0.2,-1.2 0.4,-2.4 0.3,-3.6 -0.2,-3.3 -0.3,-6.6 -0.2,-9.9 0.2,-4.1 0.2,-8.2 0.3,-12.2 0.1,-1.8 0.4,-1.9 2.1,-1.6 1.6,0.3 3.2,0.4 4.8,0.6 0.6,0.1 1.2,0.1 1.2,-0.7 0.1,-1.7 0.1,-3.5 0,-5.2 -0.1,-1.4 -0.5,-1.7 -2,-1.9 -0.8,-0.1 -1.5,-0.2 -2.3,-0.2 -2.8,-0.1 -5.5,-0.2 -8.3,-0.2 -3.4,0.1 -6.8,0.4 -10.1,0.5 -2.7,0.1 -5.5,0.1 -8.2,0 -2.4,0 -4.8,-0.3 -7.1,-0.3 -1.8,0 -2,0.3 -2,2 z m 17.8,-37 c 0,2.2 0.1,4.3 0,6.5 -0.2,3.5 -0.5,6.9 -0.7,10.4 -0.1,0.8 -0.1,1.3 1,1.2 4.6,-0.3 9.2,-0.6 13.9,-0.7 2.6,-0.1 5.1,0.3 7.7,0.4 0.7,0 1.2,0.3 1.4,1.1 0.2,0.9 0.5,1.8 0.6,2.8 0.2,1.4 0.1,2.8 0.2,4.1 0,0.6 0.1,1.3 0.9,1.3 h 3.4 c 2,-0.1 3.9,-0.2 5.9,-0.3 2.4,-0.1 4.8,-0.1 7.1,-0.1 0.7,0 1,-0.3 1.1,-1 0.1,-1 0.3,-2.1 0.3,-3.1 0.1,-4.6 0,-9.2 0.1,-13.8 0.1,-4.2 0.5,-8.3 0.7,-12.5 0,-0.7 0,-1.4 -0.1,-2.1 -0.1,-0.8 -0.7,-1.3 -1.5,-1.3 -1.8,0 -3.7,-0.1 -5.5,-0.1 -1.9,0 -3.8,0.3 -5.7,0.3 -3.7,0.1 -7.4,0.1 -11.1,0.1 -2.3,0 -4.5,-0.2 -6.8,-0.2 -1.3,0 -2.5,0.2 -3.8,0.3 -2.6,0.2 -5.2,0.4 -7.8,0.6 -1.4,0.1 -1.4,0.4 -1.4,1.8 0,1.4 0,4.3 0.1,4.3 z m 18,28.9 c -0.3,0 -0.6,0 -1,0 -1.5,-0.1 -1.4,-0.1 -1.4,1.3 0,2.2 -0.1,4.4 -0.2,6.6 0,3.2 -0.1,6.3 -0.1,9.5 0,2.8 0.1,5.6 0.1,8.4 0,1 -0.2,1.9 -0.3,2.9 -0.1,2.3 0,4.7 -0.2,7 -0.1,0.7 0.1,0.8 0.6,0.8 1.5,0 3,0.1 4.5,0.1 3,0 6,0 9.1,-0.2 3.3,-0.3 6.6,-0.5 10,-0.2 3.3,0.2 6.7,-0.2 10,-0.4 1.9,-0.1 3.7,-0.3 5.6,-0.4 1.1,-0.1 1.6,-0.4 1.6,-1.7 0,-5 0.2,-10.1 0.3,-15.1 0.1,-5 0.2,-10 0.4,-15 0,-0.9 0.2,-1.7 0.3,-2.6 0.1,-0.6 -0.1,-1 -0.8,-0.9 -1,0 -1.9,0 -2.9,0 -4,-0.2 -8,-0.5 -12.1,-0.5 -4.2,-0.1 -8.3,0.1 -12.5,0.2 -3.6,-0.1 -11,0.2 -11,0.2 z m 28.2,57.6 c -0.1,1.6 -0.1,3.1 -0.2,4.7 -0.2,2.4 1.2,3.7 3,4.9 0.1,0 0.2,0.1 0.3,0.1 0.7,0.3 1.4,0.7 1.1,1.6 -0.2,0.6 -1.3,0.8 -2.2,0.2 -1.1,-0.8 -2.3,-1.5 -3.2,-2.5 -0.6,-0.6 -1,-1.6 -0.9,-2.5 0.1,-2.7 0.4,-5.5 0.5,-8.2 0.2,-3.4 0.3,-6.9 0.4,-10.3 0.1,-2.1 0,-4.3 0.1,-6.4 0,-1 -0.2,-1.4 -1.4,-1.3 -2.2,0.1 -4.4,0.1 -6.6,0 -0.9,0 -1.1,0.3 -1.1,1.1 0.1,2.1 0.4,4.1 0.4,6.2 0,4.6 -0.1,9.2 -0.2,13.7 0,2.3 -0.1,4.7 -0.2,7 -0.1,1.3 -0.7,2.4 -1.7,3.2 -0.4,0.3 -0.9,0.5 -1.4,0.6 -0.4,0 -0.9,-0.3 -1,-0.6 -0.1,-0.3 0.1,-1 0.3,-1.1 1.4,-0.6 1.5,-1.8 1.7,-2.9 0.2,-1.9 0.4,-3.7 0.5,-5.6 0.2,-4 0.5,-8 0.5,-11.9 0,-2.6 -0.3,-5.1 -0.6,-7.7 -0.2,-1.8 -0.6,-2 -2.6,-1.7 -1.4,0.2 -2.8,0.1 -4.1,0.2 -2.5,0.1 -5,0.3 -7.5,0.4 -2,0.1 -3.9,0.1 -5.9,0.1 -1.1,0 -1.6,-0.6 -1.6,-1.8 0.1,-2 0.2,-3.9 0.3,-5.9 0.1,-0.9 -0.2,-1.4 -1.2,-1.4 -1.1,0 -2.1,-0.1 -3.2,-0.1 -0.8,0 -1,0.6 -0.9,1.2 0.1,1.6 0.3,3.2 0.4,4.8 0.1,3.7 0.1,7.3 0.3,11 0.1,2.1 0.3,4.2 0.4,6.3 0.1,1.5 0.1,2.9 0.2,4.4 0.1,1.5 0.6,2.8 2,3.5 0.3,0.2 0.6,0.8 0.6,1.2 0,0.3 -0.5,0.8 -0.9,0.8 -0.3,0.1 -0.8,-0.2 -1.1,-0.5 -1.3,-1.1 -2.3,-2.4 -2.5,-4.1 -0.1,-1.3 -0.2,-2.6 -0.2,-4 -0.1,-2.7 -0.1,-5.3 -0.1,-8 0,-2.9 0.1,-5.9 0,-8.8 -0.1,-2.3 -0.4,-4.5 -0.5,-6.8 -0.1,-0.9 -0.6,-1.2 -1.4,-1.2 -0.8,0 -1.6,0.1 -1.7,1.2 -0.1,1.7 -0.3,3.5 -0.2,5.2 0.2,5.6 0.6,11.2 -0.1,16.8 -0.3,2.7 -1.4,5.4 -2.1,8.1 -0.2,0.8 -0.8,1.4 -1.7,1.1 -0.8,-0.3 -0.7,-1.3 -0.3,-2.3 0.7,-1.6 1.5,-3.2 1.9,-4.8 0.9,-3.8 1,-7.7 0.8,-11.6 -0.1,-3 -0.1,-6 -0.1,-9.1 0,-1.1 -0.1,-2.2 -0.2,-3.3 -0.1,-0.7 -0.5,-1.1 -1.2,-1.1 -1.9,0 -3.8,0 -5.6,0.1 -0.2,0 -0.5,0.5 -0.6,0.8 -0.1,1.9 -0.1,3.8 -0.1,5.6 -0.1,2.8 -0.1,10.1 -0.2,11.6 -0.1,1.5 -9.1,1 -10.9,1 -0.8,0 -1.3,0.3 -1.3,1.2 0.1,3.6 0.2,7.2 0.4,10.8 0.1,2.7 0.6,5.4 1.6,7.9 0.3,0.8 1.1,1.5 1.7,2.2 0.1,0.1 0.2,0.1 0.2,0.2 0.5,0.5 1.2,1.1 0.6,1.7 -0.5,0.6 -1.2,0.1 -1.8,-0.3 -2.6,-1.9 -3.1,-4.8 -3.4,-7.7 -0.4,-4.2 -0.6,-8.4 -0.9,-12.6 -0.3,-3.3 -0.7,-3.1 -3.3,-2.6 -0.8,0.1 -1.5,0.2 -2.3,0.2 -0.8,0.1 -1.2,0.5 -1.1,1.3 0.1,0.6 0.1,1.3 0.2,1.9 0.9,3.6 0.8,7.3 0.6,11 -0.1,2.1 -0.4,4.3 -0.7,6.4 0,0.3 -0.1,0.6 -0.3,0.9 -0.4,0.7 -1.6,1.1 -2.1,0.6 -0.7,-0.7 -0.3,-1.2 0.1,-1.9 0.5,-0.9 0.9,-1.8 1,-2.8 0.4,-4.8 0.8,-9.6 -0.3,-14.4 -0.2,-0.8 -0.3,-1.6 -0.7,-2.2 -0.2,-0.4 -0.8,-0.8 -1.2,-0.8 -2.2,-0.1 -7.5,0.2 -7.9,0.3 -1.4,0.4 -2.3,-0.4 -2.2,-1.9 0.2,-1.8 0.4,-3.6 0.5,-5.5 0.1,-5.3 0.1,-10.6 0,-16 0,-2.5 -0.4,-4.9 -0.6,-7.4 -0.1,-1 0.3,-1.4 1.4,-1.4 4,-0.1 8,-0.2 12,-0.3 h 6 c 1.2,0 1.7,-0.4 1.9,-1.6 0.1,-1.3 0.2,-2.5 0.2,-3.8 0,-3.5 -0.1,-7 -0.1,-10.4 0,-3.7 0.1,-7.3 0.1,-11 0,-1.8 0.5,-2.3 2.3,-2.3 2.4,0 4.7,0.2 7.1,0.3 2,0.1 4,0.3 6,0.3 0.3,0 0.9,-0.3 1,-0.6 0.3,-0.8 0.6,-1.7 0.7,-2.5 0.2,-2.8 -0.6,-22.7 -0.1,-23.3 0.5,-0.6 12.8,-0.4 16.5,-0.5 2.7,0 14.8,-0.1 18.1,-0.2 2,-0.1 4,0 6,-0.1 1,0 4.3,-0.4 5.9,0.4 1.3,0.7 1.2,2.5 1.1,3.2 -0.2,4.9 -0.6,9.9 -0.8,14.8 -0.1,4.9 0,9.7 0,14.6 0,0.6 0.3,1.2 0.4,1.9 0.2,0.7 0.6,0.9 1.3,0.9 2.5,-0.1 5,-0.1 7.6,-0.1 1.4,0 2.8,0.1 4.2,0.3 1.2,0.2 1.1,0.2 1.2,1.7 0,1.5 -1,14.3 -1,17.4 -0.1,4.9 -0.2,9.9 -0.3,14.8 0,1.3 0.1,2.7 0.1,4 0,1 -0.4,1.5 -1.5,1.3 -1,-0.1 -6.4,0.4 -8.1,0.3 -1,0 -1.6,0.4 -1.6,1.4 -0.2,3.1 -0.5,15.6 -0.7,18.8 z"
       id="path74"
       inkscape:connector-curvature="0"
       style="fill-rule:evenodd" />
    <path
       d="m 585.4,364.9 c -1.4,0.1 -2.5,-0.8 -3.4,-1.5 -1.7,-1.3 -3.2,-2.9 -4.7,-4.4 -0.1,-0.1 -0.4,-0.6 0.3,-1 0.7,-0.5 1.2,0 1.6,0.3 0.9,0.6 1.6,1.4 2.3,2.1 1.1,1.1 2.9,1.8 3.9,2 1.1,0.2 1.4,2.4 0,2.5 z"
       id="path76"
       inkscape:connector-curvature="0"
       style="fill-rule:evenodd" />
    <path
       d="m 567.6,344.7 c -0.8,-0.1 -1.3,-0.4 -1.6,-1.2 -0.3,-0.8 -0.9,-1.4 -1.4,-2.2 -0.6,-0.9 -1.3,-1.9 -1.9,-2.8 -0.4,-0.6 -0.8,-1.4 0,-1.7 0.5,-0.2 1.4,0.2 1.8,0.7 0.8,0.9 1.4,2 2.1,3 0.5,0.7 1.2,1.4 1.7,2.1 0.3,0.4 0.4,1 0.4,1.5 -0.1,0.3 -0.3,0.8 -1.1,0.6 z"
       id="path78"
       inkscape:connector-curvature="0"
       style="fill-rule:evenodd" />
    <path
       d="m 557.9,325.4 c -1.1,-0.2 -1.6,-0.9 -2.1,-1.9 -0.6,-1.1 -1.3,-2.1 -1.9,-3.1 -0.2,-0.3 -1.2,-1.9 -0.6,-2.3 1.6,-1 2.5,0.9 2.8,1.5 1,1.4 1.9,2.9 2.7,4.4 0.4,0.8 -0.1,1.4 -0.9,1.4 z"
       id="path80"
       inkscape:connector-curvature="0"
       style="fill-rule:evenodd" />
    <path
       d="m 535.8,301.5 c 2.2,0.2 5.4,1 7,2.2 0.6,0.4 -0.4,1.9 -0.7,2 -0.6,0 -1.1,-0.2 -1.7,-0.4 -1.3,-0.5 -3.8,-1 -5.1,-1.7 -1.2,-0.7 -1.7,-2.3 0.5,-2.1 z"
       id="path82"
       inkscape:connector-curvature="0"
       style="fill-rule:evenodd" />
    <path
       d="m 516.9,301.1 c -1.6,0 -3.1,0 -4.7,0 -0.8,0 -1.5,-0.1 -1.5,-1.1 0,-0.8 0.6,-1.3 1.6,-1.2 1.6,0.1 3.2,0.2 4.8,0.3 0.7,0 1.5,0 1.5,1 0,0.6 -0.7,1.1 -1.7,1 z"
       id="path84"
       inkscape:connector-curvature="0"
       style="fill-rule:evenodd" />
    <path
       d="m 600.9,368.2 c -1.3,-0.1 -2.9,-0.7 -2.2,-2.1 0.2,-0.3 0.7,-0.5 1,-0.5 2.2,0.4 4.3,0.8 6.4,1.3 0.3,0.1 0.8,0.8 0.8,1.1 -0.1,0.4 0,1 -1.1,0.9 -1,-0.1 -3.6,-0.6 -4.9,-0.7 z"
       id="path86"
       inkscape:connector-curvature="0"
       style="fill-rule:evenodd" />
    <path
       d="m 492.5,301.4 c -1.4,0.4 -2.4,1.3 -3.3,2.3 -0.5,0.5 -1,1 -1.7,0.4 -0.6,-0.5 -0.5,-1.4 0.2,-2 1.2,-0.9 2.3,-1.9 3.6,-2.7 0.5,-0.3 1,-0.3 1.9,-0.3 0.9,0 1.9,2.3 -0.7,2.3 z"
       id="path88"
       inkscape:connector-curvature="0"
       style="fill-rule:evenodd" />
    <path
       d="m 469.5,322.3 c -0.1,-0.3 0.4,-1 0.7,-1.1 1.7,-0.4 2.9,-1.5 3.9,-2.8 0.9,-1.1 1.6,-1.3 2.2,-0.7 0.6,0.6 0.3,1.5 -0.7,2.3 -1.1,0.9 -2.3,1.9 -3.5,2.7 -1.2,0.8 -2.5,0 -2.6,-0.4 z"
       id="path90"
       inkscape:connector-curvature="0"
       style="fill-rule:evenodd" />
    <path
       d="m 452.7,332.2 c -0.3,-0.2 -0.8,-0.5 -0.8,-0.7 0,-0.3 0.4,-0.7 0.7,-0.8 1.2,-0.5 2.5,-0.8 3.7,-1.3 0.6,-0.2 1.2,-0.6 1.8,-0.6 0.5,0 1.2,0.2 1.5,0.5 0.4,0.6 -0.1,1.3 -0.7,1.5 -1.7,0.7 -6,1.6 -6.2,1.4 z"
       id="path92"
       inkscape:connector-curvature="0"
       style="fill-rule:evenodd" />
    <path
       d="m 716.5,369 c -1.7,-0.1 -16.9,0.9 -17,-0.5 -0.1,-1.2 -0.1,-2.4 0,-3.7 0,-0.2 0.4,-0.6 0.6,-0.6 0.3,0 1,0.9 1,1.1 0.3,1.5 0.1,2 1.6,2 1.5,0 10.3,-0.1 11.2,-0.1 1.3,0 2.1,-0.3 2.7,-2 0.1,-0.3 0.5,-1.2 1.3,-0.7 0.8,0.6 0,2.5 0,3.1 0,1.4 -0.2,1.6 -1.4,1.4 z"
       id="path94"
       inkscape:connector-curvature="0"
       style="fill-rule:evenodd" />
    <path
       d="m 702.1,353.3 c 0,0.8 -0.8,0.8 -1.3,0.9 -0.7,0.1 -1,-0.4 -0.9,-1.1 0.1,-0.4 0.5,-0.8 0.9,-0.9 1.2,-0.2 1.3,0.4 1.3,1.1 z"
       id="path96"
       inkscape:connector-curvature="0"
       style="fill-rule:evenodd" />
    <path
       d="m 714.5,351.9 c 1.2,-0.1 1.5,2 0.1,2 -1.5,0.1 -1.3,-1.9 -0.1,-2 z"
       id="path98"
       inkscape:connector-curvature="0"
       style="fill-rule:evenodd" />
    <path
       d="m 654,369.6 c -2.1,0.5 -7.2,1.5 -8.3,1.6 -0.3,0 -0.9,-0.2 -0.9,-0.5 -0.2,-0.5 -0.5,-1.5 -0.1,-1.7 0.4,-0.2 1,-0.2 1.2,0 0.6,0.5 1.3,0.4 1.9,0.3 2,-0.4 3.9,-0.7 5.9,-1 0.6,-0.1 1.1,-0.1 1,-0.9 0,-0.3 -0.1,-0.8 0.7,-0.8 0.8,0 0.7,0.7 0.7,1.5 0.1,0.6 -1.6,1.4 -2.1,1.5 z"
       id="path100"
       inkscape:connector-curvature="0"
       style="fill-rule:evenodd" />
    <path
       d="m 654.9,356 c 0.5,0 0.6,0.2 0.6,0.6 0,0.4 -0.3,1 -0.8,1 -0.5,0 -0.7,-0.3 -0.7,-0.8 0,-0.5 0.5,-0.8 0.9,-0.8 z"
       id="path102"
       inkscape:connector-curvature="0"
       style="fill-rule:evenodd" />
    <path
       d="m 643.3,360.5 c 0,0.8 -0.7,0.6 -0.9,0.6 -0.2,0 -0.6,-0.3 -0.6,-0.5 0,-0.2 -0.1,-0.7 0.4,-0.9 0.5,-0.1 1.1,0 1.1,0.8 z"
       id="path104"
       inkscape:connector-curvature="0"
       style="fill-rule:evenodd" />
    <path
       d="m 116,341.3 c 0.9,0.3 3.7,1.4 3.3,2.3 -0.4,0.9 -7.2,-1.9 -6.8,-2.6 0.5,-0.8 2.7,0 3.5,0.3 z"
       id="path106"
       inkscape:connector-curvature="0"
       style="fill-rule:evenodd" />
    <path
       d="m 149.2,356.5 c 0.9,0.3 3.8,2.7 4.4,3.4 0.5,0.7 0.1,0.7 -0.1,0.8 -0.3,0.2 -0.9,0.4 -1.1,0.2 -1.4,-1 -2.7,-2 -4,-3.1 -0.2,-0.1 -0.1,-1.6 0.8,-1.3 z"
       id="path108"
       inkscape:connector-curvature="0"
       style="fill-rule:evenodd" />
    <path
       d="m 147.4,346.6 c 0,-0.7 0.4,-1.4 1.2,-1.1 1.4,0.4 0.5,2 -0.1,2.2 -0.5,0.2 -1.1,-0.5 -1.1,-1.1 z"
       id="path110"
       inkscape:connector-curvature="0"
       style="fill-rule:evenodd" />
    <path
       d="m 159.8,342.9 c -0.1,1.1 -2.2,1.5 -2.1,0.1 0.1,-1.2 2.2,-1.2 2.1,-0.1 z"
       id="path112"
       inkscape:connector-curvature="0"
       style="fill-rule:evenodd" />
    <path
       d="m 177.2,321.1 c -2.1,-0.2 -3.5,-1.1 -4.7,-2.3 -0.3,-0.3 -0.6,-0.6 -0.2,-1.4 0.4,-0.8 3.7,1.1 4.8,1.6 0.2,0.1 0.4,0.1 0.5,0.3 0.3,0.4 -0.1,1.7 -0.4,1.8 z"
       id="path114"
       inkscape:connector-curvature="0"
       style="fill-rule:evenodd" />
    <path
       d="m 171.5,306.9 c 0.7,0 0.8,0.6 0.7,1.3 -0.1,0.6 -0.6,1.3 -1,1.2 -0.9,-0.1 -1.1,-2.5 0.3,-2.5 z"
       id="path116"
       inkscape:connector-curvature="0"
       style="fill-rule:evenodd" />
    <path
       d="m 180.3,302.5 c 0.9,0 0.6,2.6 -0.2,2.6 -0.3,0 -1,-0.3 -0.9,-1 0,-0.6 0.2,-1.6 1.1,-1.6 z"
       id="path118"
       inkscape:connector-curvature="0"
       style="fill-rule:evenodd" />
    <path
       d="m 125,325.5 c 0,0.1 0.1,0.2 0.1,0.2 0.5,1 2,0.1 1.5,-0.9 0,-0.1 -0.1,-0.2 -0.1,-0.2 -0.5,-1 -2,-0.1 -1.5,0.9 z"
       id="path120"
       inkscape:connector-curvature="0" />
    <path
       d="m 112.1,329.3 c 0,0.1 0.1,0.2 0.1,0.2 0.5,1 2.1,0.1 1.6,-0.9 0,-0.1 -0.1,-0.2 -0.1,-0.2 -0.6,-1 -2.2,-0.1 -1.6,0.9 z"
       id="path122"
       inkscape:connector-curvature="0" />
  </g>
</svg>
