<?xml version="1.0" encoding="UTF-8" standalone="no"?>
<svg
   xmlns:dc="http://purl.org/dc/elements/1.1/"
   xmlns:cc="http://creativecommons.org/ns#"
   xmlns:rdf="http://www.w3.org/1999/02/22-rdf-syntax-ns#"
   xmlns:svg="http://www.w3.org/2000/svg"
   xmlns="http://www.w3.org/2000/svg"
   xmlns:sodipodi="http://sodipodi.sourceforge.net/DTD/sodipodi-0.dtd"
   xmlns:inkscape="http://www.inkscape.org/namespaces/inkscape"
   viewBox="0 0 569.72661 462.00001"
   version="1.1"
   id="svg144"
   sodipodi:docname="medios-participacion.svg"
   width="569.72662"
   height="462"
   inkscape:version="0.92.3 (2405546, 2018-03-11)">
  <metadata
     id="metadata150">
    <rdf:RDF>
      <cc:Work
         rdf:about="">
        <dc:format>image/svg+xml</dc:format>
        <dc:type
           rdf:resource="http://purl.org/dc/dcmitype/StillImage" />
        <dc:title></dc:title>
      </cc:Work>
    </rdf:RDF>
  </metadata>
  <defs
     id="defs148" />
  <sodipodi:namedview
     pagecolor="#ffffff"
     bordercolor="#666666"
     borderopacity="1"
     objecttolerance="10"
     gridtolerance="10"
     guidetolerance="10"
     inkscape:pageopacity="0"
     inkscape:pageshadow="2"
     inkscape:window-width="680"
     inkscape:window-height="480"
     id="namedview146"
     showgrid="false"
     fit-margin-top="0"
     fit-margin-left="0"
     fit-margin-right="0"
     fit-margin-bottom="0"
     inkscape:zoom="0.38840716"
     inkscape:cx="298.05001"
     inkscape:cy="221.55001"
     inkscape:window-x="1773"
     inkscape:window-y="212"
     inkscape:window-maximized="0"
     inkscape:current-layer="svg144" />
  <path
     d="m 61.1,264.3 29,-37 8.7,63.4 -15.7,38.6 z"
     id="path2"
     inkscape:connector-curvature="0"
     style="fill:#ece200;fill-rule:evenodd" />
  <path
     d="m 103.1,148.3 60,-21 16,57 -52,22 z"
     id="path4"
     inkscape:connector-curvature="0"
     style="fill:#74c5bf;fill-rule:evenodd" />
  <path
     d="m 148.9,389.8 -1.8,-23.4 30.3,-10.2 3.6,6 14.3,-2.6 -39.3,-11.9 -51.9,16.6 3,46 71,51.7 51.7,-35.5 1.3,-58.3 -21,-6.8 3.4,19 -40.9,24.1 z"
     id="path6"
     inkscape:connector-curvature="0"
     style="fill:#7ac191;fill-rule:evenodd" />
  <path
     d="m 502.1,244.3 c 0,0 23,12 29,20 6,8 -15,64 -15,64 0,0 -4,-6 -13,-17 -9,-11 -20,-18 -15,-30 5,-12 14,-37 14,-37 z"
     id="path8"
     inkscape:connector-curvature="0"
     style="fill:#74c5bf;fill-rule:evenodd" />
  <path
     d="m 320.3,99.3 -0.6,-13.8 8.1,-1.3 15.7,-11.2 3.1,36.3 -11.9,-9.4 z"
     id="path10"
     inkscape:connector-curvature="0"
     style="fill:#ece200;fill-rule:evenodd" />
  <path
     d="m 475.1,142.2 c -4.7,-3 -12.4,-5.2 -20,-0.9 -7.8,4.4 -11.4,11.4 -12.3,19.7 -0.9,8.3 -0.3,15.9 12,23.1 12.3,7.2 25.5,-1.2 30.8,-16.1 5.3,-14.9 -4.8,-22.2 -10.5,-25.8 z m -23.4,24.2 8.6,-20.9 13.4,17.5 z"
     id="path12"
     inkscape:connector-curvature="0"
     style="fill:#7ac191;fill-rule:evenodd" />
  <path
     d="m 399.7,106.7 c -2,0.1 -3.9,0.3 -5.9,0.4 -1,0 -1.6,0.5 -1.4,1.6 0.1,0.4 0,0.9 -0.1,1.3 -0.5,-0.2 -0.9,-0.3 -1.3,-0.5 -4.4,-2.6 -8.7,-5.2 -13.1,-7.9 -1.8,-1.1 -3.6,-2.3 -5.4,-3.4 -1.1,-0.7 -1.4,-1.6 -1.2,-2.9 1,-6.1 1,-12.3 0.9,-18.5 0,-1.6 0.3,-3.2 0.5,-4.8 0.2,-1.8 0.6,-3.5 0.8,-5.3 0.2,-1.5 -0.4,-2.1 -2,-2 -1.6,0.1 -3.2,0.5 -4.8,0.6 -4.2,0.4 -8.5,0.9 -12.7,1.2 -5.8,0.4 -11.5,0.6 -17.3,1 -1.2,0.1 -1.9,-0.2 -1.9,-1.6 0,-2.3 0,-4.6 -0.1,-6.9 -0.1,-3.3 -0.7,-6.7 -0.4,-10 0.3,-3.2 -0.1,-6.3 -0.2,-9.5 0,-1 -0.1,-2 0,-3 0.2,-1.8 -0.2,-2.3 -2.1,-2 -1,0.1 -2.1,0.1 -3.2,0 -2.3,-0.2 -4.5,-0.6 -6.8,-0.7 -4.3,-0.2 -8.7,-0.4 -13,-0.6 -2.8,-0.1 -5.6,-0.2 -8.4,-0.3 -3.2,-0.2 -6.3,-0.4 -9.5,-0.6 -2.1,-0.2 -4.1,-0.5 -6.1,-0.6 -2.2,-0.1 -4.4,0 -6.6,0.1 -3.6,0.1 -7.2,0.3 -10.7,0.5 -1.9,0.1 -1.7,0.3 -1.6,2.1 0.2,3.1 0.3,6.2 0.5,9.3 0.3,4 0.6,8 0.9,12.1 0.3,4.1 0.7,8.2 0.9,12.4 0.1,1.3 -0.1,2.6 -0.1,3.8 0,2.4 0,4.8 0.1,7.2 0,1 0.1,2.1 0.1,3.1 0,0.5 -0.2,0.9 -0.4,1.4 -0.2,0.7 -0.6,1.5 -0.4,1.9 0.2,0.5 1.1,0.8 1.8,0.8 2.1,0.2 4.3,0.2 6.4,0.5 4.8,0.8 9.6,1.7 14.4,2.6 4.5,0.8 8.9,1.7 13.4,2.3 1.1,0.2 1.3,0.5 1.4,1.5 0.1,3.1 0.1,6.2 0.7,9.2 1.1,5.7 1.7,11.5 2.1,17.3 0.1,1.6 0.2,1.7 1.8,1.6 0.7,-0.1 1.4,-0.2 2.2,-0.3 2.5,-0.3 5,-0.7 7.5,-0.8 3.6,-0.1 7.1,0.1 10.7,-0.7 2.7,-0.5 5.5,-0.4 8.2,-0.7 2.2,-0.2 4.4,-0.6 6.6,-0.9 1.8,-0.2 3.6,-0.3 5.3,-0.5 3.8,-0.5 7.6,-1.1 11.5,-1.5 2.3,-0.3 4.6,-0.2 6.9,-0.3 1.8,-0.1 2.6,-0.6 2.6,-2.1 0.1,-1.3 0,-2.6 -0.1,-3.9 0,-2.7 -0.2,-5.4 -0.1,-8 0,-1.7 0.2,-1.7 1.6,-0.8 l 12.3,7.5 c 2.2,1.4 4.4,2.7 6.4,4.3 0.9,0.7 1.7,1.7 1.9,2.8 0.4,1.4 0.3,2.9 0.3,4.3 -0.1,3.2 -0.4,6.4 -0.6,9.5 -0.1,2 0.2,2.2 2.2,2.5 1.3,0.2 2.7,0.4 3.9,0.8 3.2,0.9 6.4,1.9 9.7,2.7 3.6,0.9 4.1,0.5 4.1,-3.3 0,-5.8 0.7,-11.5 2,-17.1 0.3,-1.1 0.7,-2.2 0.9,-3.4 0.3,-1.5 -0.1,-2 -1.6,-2.2 -0.6,-0.1 -1.2,-0.2 -1.8,-0.4 -4,-1.3 -8.2,-2.6 -12.6,-2.2 z M 107.9,152 c 0.4,0.8 0.6,1.3 0.9,1.8 0.3,0.5 0.7,1 0.9,1.6 1.3,3.2 2.5,6.4 3.8,9.5 0.6,1.4 1.2,2.9 1.9,4.3 1.1,2.2 2.4,4.3 3.5,6.5 1.5,3.1 2.9,6.2 4.2,9.3 0.4,1 0.6,2 1,3 2,4.4 4.1,8.7 6.2,13 0.5,1 0.9,1.9 1.5,2.8 0.2,0.3 0.9,0.6 1.1,0.5 1.4,-0.6 2.7,-1.2 4.1,-1.9 2.9,-1.5 5.7,-3.1 8.6,-4.5 1.8,-0.9 3.7,-1.6 5.5,-2.4 0.7,-0.3 1.3,-0.8 2,-1.1 1.6,-0.6 3.2,-1 4.8,-1.6 3.9,-1.6 7.8,-3.2 11.6,-5 1.8,-0.8 3.5,-1.9 5.2,-2.9 0.8,-0.5 0.9,-1.2 0.5,-2 -0.9,-1.7 -1.9,-3.4 -2.6,-5.2 -1.6,-4 -3.2,-8 -4.6,-12 -1.4,-4.2 -2.6,-8.5 -3.8,-12.8 -0.5,-1.8 -0.8,-3.7 -1.1,-5.6 0,-0.2 0,-0.4 0,-0.5 0.6,-1.1 1.2,-2.3 1.9,-3.3 1.7,-2.6 4.4,-4.1 6.6,-6.1 0.6,-0.5 1.4,-0.9 2.1,-1.3 2.1,-1.2 4.3,-2.4 6.4,-3.6 0.9,-0.5 1.1,-1.2 0.7,-2.3 -1.2,-3.4 -2.4,-6.8 -3.5,-10.3 -1.4,-4.5 -2.1,-9.3 -4.1,-13.6 -0.6,-1.2 -1.1,-1.2 -2.1,-0.8 -3.9,1.6 -7.9,2.7 -11.6,4.8 -3.8,2.1 -8,3.4 -12,5.2 -2,0.9 -4,1.7 -5.9,2.7 -0.9,0.4 -1.1,1.2 -0.8,2.3 1.2,3.6 2.4,7.2 3.4,10.8 1.1,3.9 1.3,3.3 -2.6,4.5 -2.9,0.9 -5.8,1.9 -8.7,3 -1.2,0.4 -2.2,1.1 -3.4,1.5 -2.8,1.1 -5.5,2.1 -8.3,3.1 -4.4,1.7 -8.2,4.2 -12,7 -0.3,0.3 -0.7,1 -1.3,1.6 z M 191,87.8 c -0.3,-0.7 -0.4,-1.2 -0.6,-1.6 -1.6,-4.5 -3.4,-8.9 -4.3,-13.6 -0.5,-2.6 -2.6,-3.9 -4.1,-5.6 -0.2,-0.3 -1,-0.4 -1.4,-0.2 -2.3,1.1 -4.9,1 -7.3,2.2 -4.1,2.1 -8.4,3.6 -12.6,5.4 -5.3,2.2 -10.5,4.3 -15.8,6.5 -5.4,2.2 -10.7,4.7 -16.3,6.6 -3.5,1.2 -6.7,3 -10.2,4.3 -1.5,0.6 -3,1.1 -4.5,1.7 -4,1.7 -8,3.5 -12,5.2 -1.6,0.7 -2.1,1.8 -0.9,3.1 1.9,1.9 3.1,4.2 4.2,6.6 1.9,4 3,8.2 3.3,12.6 0.1,1.7 0.9,2.4 2.5,2 1.1,-0.3 2.2,-0.8 3.2,-1.3 1,-0.5 2,-1.2 3,-1.7 4.3,-2.2 8.5,-4.6 12.8,-6.6 3.7,-1.8 7.5,-3.5 11.5,-4.7 5.6,-1.7 11,-4 16.4,-6.3 3.7,-1.5 7.3,-3.2 10.9,-4.8 1.6,-0.7 3.2,-1.4 4.8,-2.1 1.9,-0.8 3.7,-1.8 5.6,-2.5 3.5,-1.4 7,-2.7 10.5,-4.1 0.5,-0.2 0.9,-0.8 1.3,-1.1 z M 501,60.4 c -0.1,0.3 -0.2,0.6 -0.3,0.9 -1.6,6.1 -3.3,12.2 -4.9,18.3 -0.5,2 -0.5,2 1.3,2.7 2.5,1 5.3,1.7 7.6,3 6.7,3.8 14,6.1 21.1,9 4,1.6 8.1,3.1 11.8,5.6 1.8,1.3 3.9,2.3 6,3 3.9,1.3 7.6,2.9 10.9,5.5 0.4,0.3 1.2,0.4 1.8,0.3 1.1,-0.1 1.5,-1.2 2.1,-2 1.6,-2.3 3.2,-4.6 4.8,-6.9 1.8,-2.6 3.5,-5.2 5.2,-7.8 0.5,-0.8 1,-1.7 1.3,-2.7 0.1,-0.3 -0.1,-0.9 -0.3,-1.1 -1.2,-1 -2.4,-2.2 -3.8,-2.7 -2.3,-0.8 -4.4,-1.9 -6.4,-3.3 -0.8,-0.5 -1.6,-1.1 -2.4,-1.5 -3.7,-1.7 -7.3,-3.3 -11,-4.9 -1.3,-0.6 -2.6,-1.1 -3.8,-1.7 -3.9,-1.9 -7.8,-3.9 -11.7,-5.9 -2.2,-1.1 -4.4,-2 -6.5,-3 -1.1,-0.5 -2.2,-1.1 -3.3,-1.6 -1.5,-0.7 -3,-1.4 -4.6,-2.1 -1.7,-0.8 -3.3,-1.6 -5,-2.3 -2.3,-0.9 -4.7,-1.7 -7,-2.7 -1.6,-0.7 -3.2,0.3 -3.1,2 -0.1,0.9 0.1,1.4 0.2,1.9 z M 278,0 c -1.5,0.1 -3.6,0.3 -5.6,0.4 -1.1,0.1 -1.6,0.5 -1.6,1.6 0,1.7 0.2,3.4 0.1,5 -0.2,3.8 -0.6,7.6 -0.9,11.4 -0.3,3.2 -0.1,3.4 3,3.3 6.7,-0.1 13.4,-0.2 20.1,-0.3 0.8,0 1.6,-0.1 2.3,0 1.8,0.1 3.6,0.4 5.4,0.3 4.8,-0.1 9.5,-0.4 14.3,-0.4 4.5,0 9,0.2 13.4,0.3 3.4,0.1 6.7,0.3 10.1,0.4 0.8,0 1.5,0 1.5,-1.1 0.1,-4.5 0.3,-8.9 0.4,-13.4 0,-1 -0.3,-2 -0.1,-2.9 0.4,-1.8 0.1,-2.5 -1.6,-2.5 -1.7,-0.1 -3.4,0 -5,0 C 330.4,2.1 327,2 323.6,1.9 320.4,1.8 317.1,1.5 313.9,1.3 310,1.1 306.1,1 302.2,0.8 300,0.7 297.9,0.6 295.7,0.5 c -2.6,0 -5.2,0.2 -7.8,0.1 C 284.7,0.5 281.6,0.2 278,0 Z"
     id="path14"
     inkscape:connector-curvature="0"
     style="fill:none" />
  <path
     d="m 520.9,211.4 c -0.1,0.9 -0.2,1.9 -0.3,2.8 -0.6,4.8 -2.1,22 -2.3,25.9 -0.2,4.1 -0.3,8.3 -0.9,12.4 -0.4,2.7 0.8,4.3 2.7,5.8 1.3,1 2.5,2.3 3.4,3.6 3,4.1 5.7,8.4 7.7,13.1 0.5,1.2 0.8,2.5 1,3.7 0.1,0.8 0,1.8 -0.4,2.4 -2,3.3 -2.9,6.9 -3.6,10.6 -0.8,4.1 -1.8,8.2 -3.4,12.1 -2.5,6.2 -4.7,12.6 -7,18.9 -0.1,0.2 -0.4,2.4 -1.3,2.5 -0.9,0.1 -1.2,-1.2 -1.5,-1.9 -1.1,-3 -2.9,-5.7 -4.2,-8.6 -2.7,-5.8 -6.8,-10.5 -11.1,-15 -1.8,-1.9 -4,-3.4 -6.1,-5 -1.8,-1.3 -1.9,-1.6 -1.3,-3.7 0.7,-2.5 1.3,-5 2,-7.5 1.7,-6.1 3.5,-12.2 5.1,-18.3 0.9,-3.4 1.4,-6.8 2.1,-10.2 0.4,-2 0.6,-4 0.8,-6 0.2,-1.4 0.5,-1.8 1.8,-1.3 2.2,0.8 4.4,1.6 6.2,3.2 1.1,1 2.5,1.8 3.8,2.8 0.8,0.6 1.1,0.2 1.1,-0.6 0.2,-3.5 0.5,-7 0.7,-10.6 0.3,-5.2 0.5,-10.5 0.8,-15.7 0,-0.7 2.6,-19.2 2.8,-21.7 0.2,-1.7 0.1,-3.5 0.1,-5.2 0.2,-5.2 0.5,-10.4 0.6,-15.6 0.1,-2.7 -0.1,-5.5 0,-8.2 0,-1.4 -0.8,-2.2 -1.9,-2.7 -1.8,-0.7 -13.3,-7.2 -16.3,-8.4 -2,-0.8 -2.6,-0.4 -3.6,1.6 -1,2.2 -13.4,29.5 -15.9,35.5 0,0.1 -0.1,0.2 -0.1,0.3 -0.3,0.8 -0.5,1.7 -0.8,2.6 -0.7,2 -2,3.2 -3.9,1.3 -0.7,-0.7 -8.6,-5.4 -11.7,-7.2 -2.1,-1.2 -23.9,-10.7 -27.4,-12.3 -1.1,-0.5 -5.9,-2.6 -7.6,-3.6 -2.1,-1.3 -2.5,-1.8 -4.4,-0.3 -2.4,1.9 -5.6,3.7 -8.1,5.6 -4,3.1 -19.7,15.1 -22.7,17.2 -2.9,2.1 -28.3,21.8 -29.6,22.9 -2.8,2.3 -5.5,4.7 -8.2,7.1 -0.7,0.6 -1.5,1.1 -2.3,1.7 -1.8,1.3 -3.6,2.7 -5.3,4.1 -0.4,0.4 -0.7,1.1 -0.8,1.7 -0.4,4.3 -0.7,8.7 -1,13.1 -0.2,2.1 0.3,2.7 2.4,3 2,0.3 4,0.4 6,0.6 5.2,0.5 10.5,0.7 15.7,1.4 4,0.5 8,1.5 12,2.3 3.9,0.8 7.8,1.5 11.7,2.5 3.3,0.8 6.5,1.8 9.7,2.8 5.3,1.7 10.6,3.6 15.9,5.4 2.9,1 5.8,2.1 8.7,3 5.9,1.8 11.2,4.8 16.6,7.7 3.1,1.7 6.3,3.1 9.5,4.6 2.6,1.3 5.3,2.4 7.7,4.1 2.7,1.8 5.2,4.1 7.7,6.3 2.1,1.9 4.2,3.9 6.1,5.9 2,2.1 3.8,4.4 5.7,6.6 0.8,1 1.5,2.1 2.4,3 3.1,3.1 5.4,6.7 7,10.7 0.3,0.6 0.5,1.3 0.6,1.9 0.4,2.8 1,5.6 1.1,8.5 0.2,7.1 -0.9,13.9 -3.7,20.5 -1.7,4 -4.1,7.6 -7.1,10.6 -2.8,2.9 -5.7,5.8 -8.7,8.4 -3.7,3.1 -7.5,6.2 -11.5,8.9 -5.8,3.9 -11.9,7.4 -18.3,10.1 -3.6,1.5 -6.9,3.7 -10.4,5.4 -4.1,2 -8.2,3.9 -12.4,5.7 -5.6,2.3 -11.3,4.6 -17.1,6.6 -3.9,1.4 -8,2.2 -12,3.3 -2.4,0.7 -4.9,1.3 -7.3,2 -6.2,1.6 -12.4,3.4 -18.7,4.6 -6.6,1.3 -13.3,2.6 -20.1,2.9 -7.9,0.3 -15.9,1.1 -23.8,1.7 -5.7,0.4 -11.5,0.6 -17.2,1.2 -8.6,0.9 -17.2,0.4 -25.8,0.4 -9.1,0 -18.2,-0.6 -27.3,-0.9 -5.8,-0.2 -11.5,-0.6 -17.3,-0.9 -1.2,-0.1 -2.4,-0.3 -3.7,-0.4 -0.4,0 -0.9,0.1 -1.2,0.3 -1.5,1.2 -2.8,2.6 -4.3,3.6 -4.6,3 -9.1,6 -13.8,8.6 -5.3,2.9 -10.7,5.3 -17,8.7 -3.2,1.7 -6.2,3.8 -9.3,5.6 -2.6,1.5 -5.2,2.8 -7.8,4.2 -1.7,0.9 -3.1,0.1 -4.2,-0.9 -3.1,-2.8 -6.7,-4.9 -10.1,-7.2 -4.1,-2.9 -8.3,-5.7 -12.5,-8.5 -2.3,-1.5 -4.5,-3.2 -6.8,-4.6 -3.5,-2.3 -7.2,-4.3 -10.7,-6.6 -2.7,-1.8 -5.2,-3.9 -7.7,-5.9 -1.7,-1.3 -3.4,-2.6 -5.1,-3.9 -1.9,-1.4 -3.7,-2.9 -5.5,-4.3 -2.1,-1.6 -2.5,-1.8 -4.6,-3.3 -1.3,-0.9 -2.5,-2.6 -2.4,-5.5 0.1,-3.4 -0.2,-14.7 -0.2,-18.1 0,-1.6 -0.5,-2.6 -2,-3.5 -4,-2.6 -6.7,-6.4 -7.8,-11.1 -0.4,-1.7 -0.9,-3.5 -1,-5.3 -0.3,-5.3 -0.5,-6.8 1.6,-15.6 2.1,-8.8 8.8,-21.1 17.6,-27.7 6.8,-5.1 16.9,-11.9 19.1,-13.5 0.9,-0.7 31.2,-17.5 36.3,-20.1 4.2,-2.2 8.6,-4 12.9,-6 0.7,-0.3 1.3,-0.9 1.6,-1.6 1.4,-2.4 2.6,-4.9 4,-7.4 1.3,-2.3 2.7,-4.6 4,-7 1.2,-2.3 2.2,-4.6 3.4,-6.9 0.3,-0.6 0.6,-1.2 0.8,-1.8 0.4,-1.4 1.1,-2.9 1.1,-4.3 0.1,-7.3 0,-14.7 0.1,-22 0,-2 0.4,-4 0.4,-6 0,-5.1 -0.2,-10.3 -0.1,-15.4 0,-4.1 0.3,-8.2 0.5,-12.2 0.2,-3.7 0.5,-7.4 0.4,-11.2 -0.2,-4 0.1,-8.1 0.3,-12.1 0.1,-1.7 1.9,-3.2 3.5,-3.8 3.5,-1.2 7.1,-0.9 10.6,-1.4 5,-0.7 10.1,-1.5 15.1,-2.3 3.6,-0.6 7.1,-1.4 10.7,-2 5.3,-0.8 10.5,-1.5 15.8,-2.1 5.8,-0.7 11.7,-1.1 17.5,-1.8 4.4,-0.5 8.7,-1.5 13.1,-2.1 5.2,-0.6 10.4,-1 15.5,-1.6 5.6,-0.6 11.1,-1.4 16.7,-2 2.9,-0.3 5.9,-0.4 8.9,-0.7 3.1,-0.3 6.2,-0.6 9.3,-1 1.3,-0.2 2.3,0.4 3.2,1.2 2.5,1.9 4.9,3.8 7.4,5.7 1.2,0.9 1.5,2.3 1.3,3.6 -1,5.6 -0.8,11.2 -1,16.8 -0.1,3.2 -0.3,6.4 -0.3,9.6 0.1,3.8 0.3,7.6 0.5,11.4 0.2,3.9 -0.4,7.8 -0.5,11.8 -0.1,2.8 -0.3,5.6 -0.4,8.4 -0.1,3.6 -0.2,7.2 -0.1,10.7 0,2.4 0.6,1.6 2.4,0.2 2.9,-2.2 7.3,-5.9 10.1,-8.1 2.3,-1.8 28.1,-22.2 31,-24.3 4,-2.9 19,-14.4 23.1,-17.6 0.9,-0.7 6.4,-4.3 7.8,-5.3 0.6,-0.5 0.8,-0.8 0,-1.2 -1.1,-0.5 -2.2,-1.2 -3.3,-1.6 -1.4,-0.6 -1.6,-1.7 -0.8,-3 1,-1.6 5.2,-11.4 6.5,-14.5 2,-4.6 4.1,-9.2 6.2,-13.8 0,-0.1 0.1,-0.2 0.1,-0.3 1.4,-3 10.2,-20.3 13.1,-26 0.4,-0.8 0.8,-1.7 1.1,-2.6 0.6,-1.8 2.7,-2.7 4.3,-1.7 3,1.9 14.8,5.6 17.2,6.4 3.1,1 14.3,4.3 16.9,5 1,0.3 1.5,0.4 1.8,-1 0.5,-2.2 4.8,-21.6 5.6,-25.8 0.4,-2.1 0.9,-4.3 1.3,-6.4 0.1,-0.4 0,-0.8 -0.1,-1.1 0,-0.5 -0.3,-1.4 -0.1,-1.5 0.6,-0.3 1.4,-0.6 2,-0.4 2.1,0.6 4.2,1.3 6.1,2.3 4.7,2.2 9.4,4.6 14.1,7 3,1.6 18.1,11.4 19.7,12.9 2.4,2.3 7.9,7.9 8.2,8.5 1,1.7 2,3.5 3.1,5.1 0.7,1 1,1.7 0.4,2.9 -0.9,1.8 -7.2,21.9 -7.6,23.5 -2,7.4 -4.1,14.8 -6.2,22.2 -0.5,1.9 -1.2,3.8 -1.9,5.7 -0.4,1.1 -1.1,1.4 -2.1,0.7 -1.6,-1.3 -3.1,-2.7 -4.7,-4 0,0 -0.1,-0.1 -0.1,-0.1 -0.8,-0.5 -1.5,-1 -2.3,-1.5 -0.2,0.8 -0.4,1.6 -0.5,2.4 0.5,1.4 -0.6,28 -1,31.8 z M 315.1,314.2 c -0.6,0 -1.6,0.5 -1.7,1 -0.4,2.5 -0.7,5.1 -0.8,7.7 -0.1,2.7 0.2,5.3 0.2,8 -0.1,6.3 -0.4,12.5 -0.4,18.8 0,6.5 0.1,13.1 0.3,19.6 0.1,2.6 0.6,5 3.1,6.7 3.3,2.3 6.5,5 9.6,7.6 0.3,0.3 0.6,1.1 0.4,1.4 -0.2,0.4 -0.9,0.7 -1.3,0.7 -0.5,0 -1,-0.4 -1.4,-0.8 -1.7,-1.6 -3.3,-3.3 -5.1,-4.8 -1.4,-1.1 -3.2,-1.9 -4.7,-3 -1.1,-0.8 -2.7,-1.5 -2.8,-3.1 -0.3,-5 -0.7,-10 -0.6,-14.9 0,-6.7 0.5,-13.4 0.7,-20.1 0.1,-5.4 0,-10.7 0.1,-16.1 0,-2.1 0.3,-4.2 0.4,-6.4 0.1,-1.8 0.1,-1.9 -1.6,-1.8 -3,0.2 -5.9,0.4 -8.9,0.6 -4.5,0.4 -8.9,0.7 -13.4,1.1 -4.2,0.4 -8.5,0.8 -12.7,1.2 -1.9,0.2 -1.9,0 -1.8,2 0.4,6.3 0.8,12.6 1,18.9 0.1,4 -0.1,7.9 -0.2,11.9 -0.1,2.6 -0.2,5.1 -0.5,7.7 -0.5,5.1 -0.9,10.3 -0.6,15.4 0,1 0.3,1.7 1.2,2.2 4.5,2.6 8.4,6.4 13.3,8.4 0.7,0.3 1.2,0.9 0.7,1.6 -0.3,0.5 -1.1,0.8 -1.7,0.9 -0.3,0.1 -0.7,-0.4 -1.1,-0.7 -4,-2.7 -7.9,-5.6 -12.1,-7.9 -2.1,-1.1 -3.2,-1.9 -2.8,-4.4 0.7,-5.5 0.7,-11.2 1,-16.7 0.5,-8.1 1.3,-16.2 0.7,-24.3 -0.3,-4.6 -0.7,-9.1 -1.1,-13.7 -0.1,-1 -0.2,-1.2 -1.1,-1.1 -1.3,0.1 -2.7,0.2 -4,0.2 -2.2,0.1 -13.7,1.1 -17.2,1.1 -5.7,0 -27,-1 -31.8,0.4 -0.3,0.1 -7.1,-2.6 -9.8,-4.5 -2.1,-1.5 -4.3,-2.7 -4.3,-5.8 -0.1,-5.8 -0.5,-11.6 -0.4,-17.4 0.1,-2.3 -0.2,-4.6 -0.3,-6.8 0,-1.1 -0.4,-1.2 -1.4,-0.9 -3.5,1.1 -7,2 -10.5,3.1 -0.5,0.2 -1.1,0.6 -1.4,1.1 -1.4,2.8 -2.7,5.8 -4.1,8.6 -2.7,5.5 -5.4,10.9 -8.2,16.3 -2.3,4.4 -4.7,8.8 -7,13.2 -0.1,0.3 -0.5,1.1 -0.6,1.4 0.3,0 3.5,-1.3 4.5,-1.6 4.3,-1.4 8.5,-2.9 12.8,-4.2 2.4,-0.7 2.6,-0.4 2.7,2 v 0.8 c 0,4.8 0,9.6 0.2,14.4 0.2,5.1 0.8,10.3 1.1,15.4 0.1,1 0.4,1.1 1.3,1.3 1.1,0.2 2.6,0.4 3.2,1.2 1,1.3 1.7,1 2.8,0.5 0.3,-0.2 0.7,-0.3 1.1,-0.4 3,-0.6 5.7,-2 8.1,-3.9 0.9,-0.7 2.3,-0.3 2.5,0.8 0.3,1.8 0.3,3.7 0.5,5.6 0,0.3 0.3,0.7 0.5,0.8 2.7,0.6 5.4,1.1 8.1,1.8 3.6,0.9 7.1,2 10.6,3 0.3,0.1 0.6,0.1 0.8,0.1 2.7,0.2 4.2,2.4 4,5.1 -0.3,3.2 -0.8,6.4 -0.6,9.6 0.3,4.4 0.1,8.7 -0.1,13 -0.2,3.8 -0.4,7.6 -0.9,11.4 -0.8,6 -0.7,12.1 -0.8,18.1 0,0.8 0.2,1.3 1.1,1.4 1.3,0.2 2.5,0.5 3.8,0.6 7.9,0.5 15.9,1 23.8,1.5 4.2,0.3 8.5,0.6 12.7,0.7 4.7,0.1 9.4,-0.2 14.1,0 8.9,0.3 17.8,0.2 26.7,-0.4 1.8,-0.1 3.7,-0.1 5.5,-0.3 2.7,-0.3 5.3,-0.7 8,-1 4.5,-0.4 9,-0.7 13.5,-1.1 4.1,-0.3 8.2,-0.4 12.2,-0.9 5.3,-0.6 10.7,-1.3 15.9,-2.4 4.5,-0.9 9,-2.3 13.5,-3.5 6.1,-1.6 12.3,-3.1 18.3,-4.8 4.5,-1.3 9,-2.8 13.4,-4.4 4.5,-1.7 8.8,-3.5 13.2,-5.4 4.1,-1.8 8.1,-3.7 12.1,-5.7 3.4,-1.7 6.8,-3.6 10.2,-5.3 1.7,-0.9 3.5,-1.5 5.1,-2.5 3.8,-2.3 7.5,-4.7 11.1,-7.3 2.7,-1.9 5.2,-4.3 7.9,-6.3 4.3,-3.2 8,-7 11.6,-10.9 1,-1.1 2,-2.3 2.6,-3.7 1.5,-3.3 2.9,-6.6 4.1,-10 1.4,-3.8 1.3,-7.8 1.6,-11.8 0.2,-2.9 -0.4,-5.8 -0.9,-8.7 -0.5,-3.1 -1.7,-6 -3.6,-8.6 -2.7,-3.6 -5.5,-7.2 -8.3,-10.8 -1,-1.3 -2,-2.7 -3.3,-3.8 -3.1,-2.9 -6.2,-5.6 -9.4,-8.4 -1.6,-1.3 -3.1,-2.7 -4.9,-3.8 -3.2,-1.9 -6.4,-3.6 -9.7,-5.3 -2.8,-1.5 -5.7,-2.8 -8.6,-4.2 -3.9,-1.8 -7.8,-3.7 -11.8,-5.3 -4.2,-1.7 -8.4,-3 -12.7,-4.4 -4.5,-1.6 -8.9,-3.3 -13.5,-4.7 -3.5,-1.1 -7,-2 -10.5,-2.8 -5.2,-1.3 -10.4,-2.6 -15.7,-3.7 -4,-0.8 -8.1,-1.3 -12.1,-1.7 -5.7,-0.6 -11.4,-1 -17.1,-1.4 -0.3,0 -0.6,0.1 -0.8,0 -0.9,0 -1.3,0.2 -1.4,1.2 -0.2,5.6 -0.5,11.2 -0.6,16.8 -0.1,2.3 0.2,4.7 0.4,7.1 0.6,8.2 1.3,16.3 1.9,24.4 0,0.6 0,1.2 -0.1,1.8 0,1 -0.5,1.4 -1.5,1.3 -2.2,-0.1 -4.5,-0.1 -6.7,-0.2 -2.8,0.2 -24.8,0.2 -26.8,0.3 z m 30.3,-2 c 2.4,0.2 2.7,-0.1 2.6,-2.6 -0.1,-2.2 -0.2,-4.4 -0.4,-6.5 -0.5,-6.9 -1.7,-30.7 -1.5,-35.8 0.2,-5.3 1.3,-23.2 1.4,-26.8 0.1,-3.8 0.1,-7.6 0.2,-11.4 0.1,-3.4 0.1,-6.8 0.2,-10.2 0.2,-5.8 0.2,-21.6 0.2,-23.7 0,-3.5 0.2,-7 0.4,-10.6 0.2,-4.8 0.4,-9.5 0.6,-14.3 0.1,-1.1 -0.3,-1.5 -1.4,-1.4 -1.8,0.2 -17.2,0.7 -23.1,1.2 -8.4,0.8 -32.4,2.7 -36,3.1 -4.1,0.4 -18.8,1.7 -22.1,1.9 -3.1,0.2 -6.2,0.6 -9.4,1 -5.3,0.6 -10.7,1 -16,1.9 -6.8,1.1 -13.6,2.4 -20.3,3.7 -1.8,0.3 -3.6,0.7 -5.4,1 -0.3,0.1 -1.6,-0.3 -1.6,0.6 0.1,2.8 0.3,8.2 0.4,11 0,12.4 0.8,28.2 0.5,32.8 -0.2,4.8 -0.6,24.5 -0.5,30.1 0.1,3.1 0.3,6.1 0.5,9.2 0.2,3.6 1.1,19.8 1.6,24.3 0.3,3.1 2.3,18.5 2.9,23.2 0,0.4 0.2,0.8 0.3,1.1 0.4,1.1 1,1.7 2.5,1.7 3.2,-0.2 30.8,0.7 36.3,0.2 1.9,-0.2 7.6,-0.8 8.6,-0.9 1.9,-0.1 42.1,-2.9 48.8,-3.6 1.4,-0.3 29.3,-0.2 29.7,-0.2 z m -170.5,95.4 c -0.2,-1.5 -1.1,-2.5 -2.3,-3.1 -2.6,-1.4 -5.2,-2.6 -7.8,-3.9 -2.9,-1.4 -5.7,-2.8 -8.6,-4.2 -3.7,-1.9 -7.4,-3.9 -11.2,-5.8 -3.9,-2 -7.8,-3.9 -11.7,-5.8 -2,-1 -3.9,-2.4 -5.9,-3.1 -5.3,-2 -10.1,-5 -14.9,-7.9 -1.1,-0.7 -1.9,-0.4 -2,0.9 -0.1,0.9 0.1,1.9 0.1,2.8 0,1.7 -0.3,3.4 0,5 1.1,5.5 0.9,11 1.3,16.6 0.1,1.3 0,2.7 0,4 0,1.8 -0.1,3.7 -0.1,5.5 0,0.5 0.4,1.1 0.8,1.5 0.9,0.7 2,1.3 2.9,2 4,3.2 7.9,6.5 12,9.6 3.3,2.5 6.8,4.8 10.2,7.1 3.1,2.2 6.2,4.4 9.4,6.4 3,2 6.3,3.6 9.3,5.7 5.4,3.7 10.7,7.5 16.1,11.2 0.9,0.6 1.8,1.3 2.7,2 0.6,0.5 1.1,0.6 1.2,-0.5 0,-0.3 0.1,-0.7 0.1,-1 -0.2,-2.4 -0.1,-5.6 -0.2,-8 -0.2,-3.9 -0.8,-5.4 -0.8,-9.3 0.1,-2.7 -0.3,-24.8 -0.6,-27.7 z M 544.7,130.4 c -0.5,-1.1 -1,-2.3 -1.6,-3.6 -1.7,-3.5 -3.9,-6.8 -6.8,-9.3 -3.7,-3.2 -21.3,-14.2 -26.1,-16.9 -1.5,-0.8 -3.1,-1.5 -4.6,-2.2 -1.7,-0.8 -3.5,-1.5 -5.3,-2.2 -0.9,-0.3 -1.8,-0.8 -2.7,-0.9 -0.4,-0.1 -1.2,0.5 -1.3,0.9 -0.6,2.3 -1.1,4.6 -1.6,6.9 -0.6,3.3 -3,14.4 -3.5,18 -0.2,1.4 -1.4,7.5 -1.7,7.9 0.5,0.3 1,0.7 1.5,1 0.4,0.2 0.8,0.4 1.2,0.5 4.3,1.4 17,5.2 16.3,7.4 -0.5,1.5 -0.9,3 -1.4,4.5 -0.5,1.7 -0.8,3.5 -1.4,5.2 -1.4,4.3 -2.8,8.5 -4.2,12.7 -0.1,0.3 0.1,1.1 0.4,1.2 2.7,1.4 5.4,2.7 8.1,4 0.8,0.4 8.5,5.1 11.4,7.3 2.6,1.9 5.1,4.1 7.7,6.2 0.4,0.3 0.8,0.6 1.2,0.9 0.3,-0.5 0.6,-0.9 0.8,-1.4 0.8,-2.5 2.4,-7.8 2.4,-7.9 1,-3.3 2,-6.6 2.9,-10 0.8,-3.1 3.4,-12.9 4,-14.7 1.1,-3.6 2.2,-7.2 3.2,-10.8 0.4,-1.4 0.7,-2.9 1.1,-4.7 z m -104.4,6.2 c -1.2,2.4 -6.8,14.1 -8.4,17.5 -1.3,3 -7.1,16.8 -8.5,20.8 -0.3,1 -0.2,1.5 0.7,1.9 0.8,0.4 1.7,0.9 2.5,1.4 0.8,0.5 1.4,0.4 1.4,0.4 0,0 2.1,-1.9 3,-2.3 1.8,-0.8 4.7,-2.2 7.6,-0.5 0.7,0.5 0,2.1 -0.9,2.4 -4.5,-0.7 -3.9,0.2 -6.3,1.4 -0.5,0.3 -0.6,0.7 0,1 2.3,1.2 4.5,2.5 6.8,3.6 2.4,1.1 4.9,2.1 7.4,3.1 0.1,0.1 0.2,0.1 0.4,0.2 5.1,2.2 10.2,4.3 15.2,6.7 2.9,1.3 14.8,8 17.3,9.4 0.6,0.4 1,0.1 1.3,-0.5 2.1,-4.6 4.2,-9.3 6.2,-13.9 1.1,-2.5 4.9,-11.8 6,-14 1.7,-3.5 3.4,-7.1 5,-10.6 0.9,-1.9 2,-3.8 2.6,-5.8 2,-6.1 3.8,-12.2 5.6,-18.3 0.4,-1.4 0.1,-2.3 -1.2,-2.9 -2.1,-1 -4.2,-2.1 -6.4,-2.9 -3.1,-1.1 -33.9,-11.3 -38.7,-12.8 -2.8,-0.9 -5.6,-1.4 -8.4,-2.2 -0.8,-0.2 -1.3,-0.1 -1.6,0.7 -0.2,0.5 -0.5,0.9 -0.7,1.3 z M 230.6,384.4 c 0.2,-4.1 0.4,-8.2 0.5,-12.4 0,-0.4 -0.2,-0.7 -0.3,-1.1 -0.3,0.1 -0.7,0.2 -1,0.4 -5,3.1 -49.3,29.8 -52.3,32 -0.4,0.3 -0.7,0.9 -0.7,1.3 0.1,1.4 0,3 0.1,4.5 0.3,4 0.3,7.9 0.4,11.9 0.1,3.6 0.6,16.4 0.6,19.1 0,1.2 0.9,10.7 1.2,14.3 0.1,0.8 0.2,0.9 0.8,0.6 2.3,-1.2 34.4,-18.7 37,-20.2 2.9,-1.6 5.6,-3.5 8.4,-5.3 1.5,-1 3.7,-3.2 3.7,-4.3 0,-1.7 -0.7,-7.3 -0.6,-9 0.4,-4.9 0.9,-9.8 1.3,-14.7 0.5,-5.6 1,-17 0.9,-17.1 z m -127.8,-7.2 c 1,2.2 3.1,3.9 4.7,5.8 0.2,0.2 0.7,0.4 0.9,0.3 0.2,-0.2 0.5,-0.6 0.4,-1 -0.2,-2.7 -0.2,-5.5 -0.6,-8.2 -0.4,-2.2 -0.2,-4.9 -0.9,-7 -0.4,-1.1 -0.3,-2 0.7,-2.6 1.1,-0.6 2.2,-1.1 3.3,-1.5 3.4,-1.3 5.9,-1.9 9.3,-3.2 4.7,-1.9 9.3,-3.9 13.9,-5.8 1,-0.4 1.2,-1 1.2,-2 -0.3,-3.8 -0.6,-7.6 -0.7,-11.4 -0.1,-2.5 0.5,-3.1 3,-3.8 8.5,-2.5 17,-5.1 25.4,-7.7 0.6,-0.2 1.3,-0.4 1.3,-0.4 0,0 1.6,-3 2.3,-4.1 2.8,-4.9 5.7,-9.8 8.4,-14.7 1.4,-2.4 2.4,-5 3.7,-7.5 2,-4 4,-8 5.9,-12 0.1,-0.3 0.1,-0.6 0.1,-0.9 -0.3,0 -0.6,0 -0.9,0.1 -2.3,0.9 -4.6,1.8 -6.8,2.8 -5.3,2.2 -36.4,19.9 -39.6,21.9 -2.6,1.6 -14.9,10 -18.3,12.8 -10.4,9.4 -13.6,15.8 -18.4,30.7 -0.8,7.2 -0.6,13.8 1.7,19.4 z m 426.4,-98.4 c -0.1,-0.5 -0.2,-1 -0.3,-1.4 -1,-4.4 -3.3,-8 -6,-11.5 -1,-1.3 -1.8,-2.9 -2.9,-4.1 -1.8,-1.9 -3.8,-3.7 -5.9,-5.2 -2.4,-1.8 -5,-3.2 -7.5,-4.8 -1.6,-1 -1.7,-0.9 -2.2,1 -0.3,1 -0.5,2.1 -0.8,3.1 -0.4,2.2 -0.7,4.4 -1.2,6.6 -2.1,7.6 -4.3,15.1 -6.3,22.7 -0.5,1.8 -0.8,3.6 -1.1,5.4 -0.2,1 0.3,1.7 1.1,2.4 2.3,2 4.6,4 6.6,6.2 2.5,2.7 4.7,5.7 7,8.6 0.9,1.2 1.9,2.4 2.5,3.8 1.3,2.4 2.3,5 3.5,7.5 0.2,0.3 1.2,0.2 1.3,-0.2 0.5,-1.4 0.9,-2.8 1.4,-4.1 1.7,-4.7 3.5,-9.4 5.2,-14.2 0.7,-1.8 1.2,-3.7 1.7,-5.6 0.8,-3.2 1.5,-6.4 2.3,-9.6 0.5,-2.4 1.1,-4.5 1.6,-6.6 z M 209.9,379 c -0.3,-1.9 -0.5,-3.8 -0.8,-5.6 -0.9,-5 -1.8,-9.9 -2.7,-14.9 -0.4,-2 -0.5,-1.9 -2.4,-1.2 -3.1,1.3 -6.3,2.6 -9.6,3.5 -4.1,1.1 -8.3,1.8 -12.2,3.7 -0.5,0.3 -1.1,0.6 -1.7,0.8 -5.6,1.3 -10.7,3.9 -15.8,6.5 -1.2,0.6 -1.7,1.5 -1.3,2.9 0.7,2.5 1.2,5.1 2.1,7.6 1.6,4.9 3.1,9.7 3.9,14.8 0.4,2.3 1.4,4.2 3.9,4.8 0.8,0.2 1.4,0.3 2.2,-0.2 3.9,-2.6 8.4,-5.1 12.4,-7.6 2.6,-1.6 5.5,-2.9 8.2,-4.3 4.2,-2.3 7.5,-5 11.7,-7.2 1.3,-0.8 2.5,-1.7 2.1,-3.6 z m -5.5,-70.4 c 0.1,0.8 0.3,1.7 0.9,2.3 2.6,3 6.3,4.4 9.7,6.1 1.3,0.6 2.2,-0.1 2.1,-1.5 -0.1,-1 -0.3,-2 -0.4,-3 -0.4,-4 -0.7,-7.9 -1.1,-11.9 -1,-8.7 -2.1,-17.4 -2.9,-26.2 -0.5,-5.7 -0.7,-11.5 -1,-17.3 -0.2,-2.8 0.3,-7.5 0.1,-19.6 -0.2,-12 0.7,-21 0.6,-27.2 0,-3.1 0.3,-6.2 0.2,-9.4 -0.1,-4.9 -0.4,-9.8 -0.8,-14.7 -0.2,-2.7 -1,-5.1 -4.1,-5.9 -0.3,-0.1 -0.7,-0.2 -1,-0.3 -0.9,-0.4 -1.4,-0.4 -1.4,0.7 -0.1,2.4 -1,38.6 -1,44.5 -0.1,6.3 -0.3,12.6 -0.5,18.9 -0.1,2.6 -0.1,5.2 -0.2,7.7 0,0.2 0.2,0.4 0.3,0.6 0.1,-0.2 0.3,-0.3 0.4,-0.5 0.1,-0.2 1.9,-5.4 2.8,-7.7 0.3,-0.7 0.9,-1.2 1.7,-0.8 0.9,0.4 0.4,1.2 0.2,1.8 -0.4,0.9 -0.9,1.8 -1.2,2.8 -1,2.6 -1.8,5.2 -2.9,7.7 -0.9,2.1 -1.2,4.1 -1.2,6.3 0.2,7.4 0.2,14.9 0.3,22.3 -0.1,7 0.3,23.2 0.4,24.3 z m -18.1,26.7 h 0.2 c -0.2,-2.8 -0.4,-5.6 -0.6,-8.4 -0.1,-1.7 -0.3,-1.9 -1.9,-1.3 -4.5,1.6 -16.1,5.5 -16.1,5.5 0,0 -0.5,2 -1.2,3 -0.7,0.9 -1.4,1.1 -1.6,1.1 -0.3,0 -0.6,-0.4 -0.8,-0.6 -0.1,-0.2 -0.3,-1.9 -0.3,-1.9 0,0 -3,1.2 -3.9,1.5 -6.8,1.8 -13.6,3.6 -20.4,5.5 -2,0.5 -2.3,0.9 -2.2,2.9 0.2,2.8 0.6,5.6 0.9,8.3 0.1,0.8 0.5,1 1.3,0.8 3.4,-1 6.9,-1.9 10.3,-3 2,-0.6 4,-1.6 6.2,-1 1.7,0.4 3.3,1 5,1.4 7.4,2 14.7,4 22.1,6 0.9,0.2 1.8,0.3 2.6,0.2 0.4,0 0.9,-0.6 1,-1 0.2,-1.5 0.4,-3.1 0.3,-4.7 -0.4,-4.8 -0.7,-9.6 -0.9,-14.3 z M 242.7,171 c -4.7,1.1 -9.5,1.5 -14.3,2.2 -6.9,1.1 -13.8,2.3 -20.7,3.5 -0.3,0 -0.6,0.3 -0.9,0.4 0.3,0.3 0.5,0.6 0.8,0.8 2.9,1.1 5.5,2.7 8.9,1.9 2.5,-0.6 5.1,-0.6 7.6,-1.1 3.3,-0.6 15.9,-2.7 18.9,-3.1 3,-0.5 19.2,-2.4 24.3,-3 2.7,-0.3 22.9,-1.2 31.4,-2.8 4.3,-0.4 17.6,-1 19.9,-1.2 4.9,-0.4 24,-1.9 28.6,-2.3 0.3,0 0.6,-0.2 0.9,-0.3 -0.2,-0.2 -0.4,-0.5 -0.6,-0.7 -1.7,-1.3 -3.7,-2.2 -5.1,-3.8 -1.3,-1.6 -2.8,-1.6 -4.4,-1.5 -3,0.2 -5.9,0.4 -8.9,0.7 -4.5,0.4 -41.6,4.5 -45.7,5 -3.4,0.4 -6.7,1.2 -10.1,1.6 -4,0.4 -27.2,2.9 -30.6,3.7 z m -86.6,190.3 c -0.3,-1.3 -0.6,-2.6 -0.8,-3.9 -0.3,-2.1 -0.5,-4.2 -0.7,-6.3 -0.2,-1.9 -0.2,-1.9 -2.1,-1.3 -1.2,0.4 -2.3,0.8 -3.5,1.2 -2.9,0.9 -5.9,1.8 -8.8,2.8 -1.9,0.7 -1.9,0.7 -1.7,2.8 0.2,4.2 0.5,8.5 0.7,12.7 0.2,4.6 0.5,9.3 0.6,13.9 0,1.6 0.7,2.6 2.1,3.2 2.3,1.1 4.6,2.2 7,3.3 0.8,0.4 1.7,0.6 2.6,1 0,-1 0.2,-2.1 0,-3.1 -1.5,-6.4 -1.7,-13.1 -2.7,-19.6 -0.2,-1.1 0.4,-1.5 1.3,-1.8 1.1,-0.3 2.1,-0.6 3.2,-1 2.5,-0.8 2.8,-1.2 2.8,-3.9 z m -18.6,10.5 c -0.4,-5.3 -0.8,-9.7 -1.1,-14.2 -0.1,-1.9 -0.2,-1.9 -1.9,-1.2 -6.3,2.6 -12.6,5 -18.9,7.6 -1.7,0.7 -3.4,1.4 -5.1,2.2 -0.7,0.3 -0.9,0.9 -0.6,1.7 0.7,2 1.9,3.4 4,4.1 1.4,0.4 2.5,1.5 3.8,2.1 2.8,1.3 5,3.5 8.1,4.3 1.8,0.5 3.5,1.7 5.2,2.6 1.7,0.9 3.4,1.9 5.1,2.8 0.9,0.5 1.2,0.1 1.3,-0.8 0,-0.4 0.1,-0.8 0.1,-1.2 0,-3.6 0,-7.2 0,-10 z m 16.7,17.9 c -0.3,1.3 -0.5,2.6 0.9,3.3 3.5,1.8 7,3.5 10.5,5.2 1.3,0.6 1.6,0.2 1.3,-1.2 -0.6,-2.7 -1.3,-5.4 -2.1,-8.1 -1.6,-5.4 -3.2,-10.8 -4.8,-16.2 -0.4,-1.2 0.2,-2.7 1.2,-2.6 2.1,0.2 3.7,-1 5.5,-1.7 3.3,-1.5 6.6,-3 10,-4.3 2.4,-1 2.5,-0.9 2.1,-3.6 -0.2,-1.5 -0.5,-1.6 -1.9,-1 -1.2,0.5 -2.3,1.3 -3.5,1.6 -4.2,1.3 -8.5,2.3 -12.7,3.7 -2.6,0.8 -5.1,2 -7.6,3.1 -1.4,0.6 -1.8,1.9 -1.8,3.3 0.1,1.3 0.1,2.7 0.3,4 0.5,3.3 1.1,6.5 1.7,9.7 0.3,1.6 0.6,3.2 0.9,4.8 z m 55.5,-25.8 c 0.2,1.7 0.3,3.4 0.6,5.1 0.6,3.1 1.3,6.2 1.9,9.3 0.2,0.8 0.6,1 1.3,0.5 4.9,-3 9.8,-6 14.7,-9.1 1.1,-0.7 1.1,-1.1 -0.1,-1.7 -1.5,-0.8 -3.1,-1.6 -4.8,-2 -4.2,-1.1 -8.5,-1.9 -12.7,-2.9 -0.6,-0.1 -1.1,-0.1 -0.9,0.8 z m -53,-10.8 c 0.4,2.8 0.8,5.6 1.3,8.4 0.3,1.6 0.6,1.6 2.2,1.1 2,-0.6 4,-1.1 5.9,-1.8 3.3,-1.1 6.5,-2.2 9.8,-3.4 0.6,-0.2 1,-0.8 1.4,-1.3 -0.6,-0.3 -1.2,-0.7 -1.9,-0.9 -2.4,-0.7 -4.8,-1.2 -7.1,-1.8 -3.4,-0.9 -6.8,-1.7 -10.2,-2.6 -1,-0.3 -1.5,0.2 -1.5,1.2 0.1,0.4 0.1,0.8 0.1,1.1 z m 44.8,-85.6 c 0,-0.6 0,-1.1 0,-1.7 0,-0.2 -0.2,-0.5 -0.3,-0.7 -0.2,0.2 -0.5,0.3 -0.6,0.5 -0.5,0.7 -1,1.5 -1.4,2.3 -2.6,4.8 -5.1,9.5 -7.7,14.3 -0.4,0.7 -0.8,1.5 -1.2,2.2 -0.1,0.1 0.3,0.7 0.4,0.7 3.5,-1.2 6.9,-2.5 10.4,-3.8 0.2,-0.1 0.4,-0.5 0.5,-0.8 0,-1.6 0,-13 -0.1,-13 z m -20.8,91.6 c 0.2,0.7 0.5,1.4 0.5,2.1 0,1.2 0.5,1.1 1.4,0.8 2.7,-0.9 5.4,-1.7 8,-2.6 0.1,0 0.3,-0.1 0.4,-0.2 -0.1,-0.1 -0.2,-0.2 -0.4,-0.3 -2.7,-0.5 -5.4,-1 -8.2,-1.5 -1.3,0 -1.6,0.3 -1.7,1.7 z"
     id="path16"
     inkscape:connector-curvature="0"
     style="fill-rule:evenodd" />
  <path
     d="m 399.7,106.7 c 4.5,-0.4 8.7,0.9 12.9,2.1 0.6,0.2 1.2,0.3 1.8,0.4 1.5,0.2 1.9,0.7 1.6,2.2 -0.2,1.1 -0.7,2.3 -0.9,3.4 -1.3,5.6 -1.9,11.4 -2,17.1 0,3.8 -0.5,4.2 -4.1,3.3 -3.3,-0.8 -6.4,-1.8 -9.7,-2.7 -1.3,-0.3 -2.6,-0.6 -3.9,-0.8 -2,-0.3 -2.3,-0.5 -2.2,-2.5 0.2,-3.2 0.5,-6.4 0.6,-9.5 0.1,-1.4 0.1,-3 -0.3,-4.3 -0.3,-1 -1.1,-2.1 -1.9,-2.8 -2,-1.6 -4.2,-2.9 -6.4,-4.3 -4.1,-2.5 -8.2,-5 -12.3,-7.5 -1.4,-0.9 -1.5,-0.9 -1.6,0.8 -0.1,2.7 0,5.4 0.1,8 0,1.3 0.1,2.6 0.1,3.9 -0.1,1.5 -0.8,2 -2.6,2.1 -2.3,0.1 -4.6,0.1 -6.9,0.3 -3.8,0.4 -7.7,1 -11.5,1.5 -1.8,0.2 -3.6,0.3 -5.3,0.5 -2.2,0.3 -4.4,0.7 -6.6,0.9 -2.7,0.3 -5.5,0.2 -8.2,0.7 -3.6,0.7 -7.1,0.5 -10.7,0.7 -2.5,0.1 -5,0.5 -7.5,0.8 -0.7,0.1 -1.4,0.3 -2.2,0.3 -1.6,0.1 -1.7,-0.1 -1.8,-1.6 -0.4,-5.8 -1.1,-11.6 -2.1,-17.3 -0.6,-3 -0.5,-6.1 -0.7,-9.2 0,-1 -0.2,-1.3 -1.4,-1.5 -4.5,-0.7 -8.9,-1.5 -13.4,-2.3 -4.8,-0.9 -9.6,-1.8 -14.4,-2.6 -2.1,-0.3 -4.3,-0.3 -6.4,-0.5 -0.6,-0.1 -1.1,-3.7 -1.1,-4.1 0,-1 -0.1,-2.1 -0.1,-3.1 0,-2.4 -0.1,-4.8 -0.1,-7.2 0,-1.3 -0.5,-12.1 -0.8,-16.2 -0.3,-4 -1.1,-18.3 -1.4,-21.3 -0.1,-1.8 -0.3,-2 1.6,-2.1 3.6,-0.3 7.2,-0.4 10.7,-0.5 2.2,-0.1 10.6,0.3 12.7,0.5 3.2,0.3 15.1,0.8 17.9,1 4.3,0.2 17.6,1.1 19.9,1.3 1,0.1 5.4,-0.3 5.1,1.5 -0.1,1 0.5,9.8 0.3,13 -0.3,3.3 0.3,6.7 0.4,10 0.1,2.3 0.1,4.6 0.1,6.9 0,1.4 0.7,1.7 1.9,1.6 5.8,-0.4 11.5,-0.6 17.3,-1 4.2,-0.3 8.5,-0.7 12.7,-1.2 1.6,-0.2 3.2,-0.5 4.8,-0.6 1.5,-0.1 2.1,0.5 2,2 -0.2,1.8 -0.5,3.5 -0.8,5.3 -0.2,1.6 -0.5,17.3 -1.4,23.3 -0.2,1.3 0.2,2.2 1.2,2.9 1.8,1.1 3.6,2.3 5.4,3.4 4.3,2.6 8.7,5.3 13.1,7.9 0.4,0.2 0.9,0.4 1.3,0.5 0,-0.4 0.1,-0.9 0.1,-1.3 -0.1,-1.1 0.4,-1.5 1.4,-1.6 1.8,-0.2 3.7,-0.4 5.7,-0.5 z M 332.1,38.6 c 0,-1.2 -0.6,-2 -1.9,-2.1 -5.3,-0.5 -10.6,-1.1 -15.9,-1.4 -5.7,-0.3 -11.3,-0.2 -17,-0.4 -3.5,-0.1 -7,-0.7 -10.5,-0.9 -2.6,-0.1 -14,0.2 -17.1,0.3 -1,0 -1.4,0.7 -1.4,1.7 v 2.5 c -0.1,1.2 0.3,8.3 0.6,10.8 0.5,4.4 1.1,8.8 1.4,13.3 0.4,5.3 1,18.4 0.8,19.7 -0.1,1.6 -0.2,1.9 1.4,1.9 4.3,0.2 8.4,1.3 12.5,2.1 5.5,1.1 11.1,2 16.6,3 2.6,0.4 2.9,0.1 2.8,-2.6 -0.1,-2.7 -0.2,-5.3 -0.3,-8 -0.1,-2.2 0,-4.5 -0.2,-6.7 -0.3,-2.8 0.5,-3.8 3.2,-3.7 2.7,0 12.5,-0.1 14.8,-0.2 3.1,-0.1 6.2,0.7 9.4,-0.1 0.8,-0.2 0.9,-5 0.9,-5.7 0,-4.2 -0.1,-19.9 -0.1,-23.5 z m 35,74.9 c 1.4,-0.2 1.6,-0.6 1.4,-2 -0.1,-0.9 0.1,-1.9 0.1,-2.8 0,-0.6 0.2,-1.2 0.2,-1.8 0.1,-3.1 0.1,-6.2 0.3,-9.4 0.2,-2.6 1.8,-23.4 2.1,-28.1 0,-0.5 0.1,-0.9 0.1,-0.9 0,-0.2 0,-1.7 -0.2,-1.7 -0.8,-0.3 -13.9,1.3 -19.6,1.7 -6,0.5 -12,0.9 -18.1,1.3 -1.9,0.1 -3.8,0.6 -5.7,0.6 -3.8,-0.1 -17.5,0.4 -20.6,0.6 -0.9,0.1 -1.3,0.5 -1.2,1.4 0,1.7 0.2,13.8 0.9,18.1 0.8,4.8 0.8,9.8 1.4,14.7 0.4,4 1,8 1.6,12 0.3,2.1 0.3,2 2.5,1.9 5.8,-0.5 11.7,-0.9 17.5,-1.4 2.9,-0.3 31.2,-3.4 37.3,-4.2 z m 28.5,12.2 h 0.1 c 0,0.7 -0.1,1.5 0,2.2 0.1,0.4 0.3,0.9 0.6,1.1 1.3,0.6 2.5,1.1 3.9,1.5 2.4,0.8 4.9,1.5 7.3,2.4 3,1.1 3.5,0.8 3.5,-2.3 0.2,-5.4 0.8,-10.7 1.8,-16 0.3,-1.7 -0.3,-2.8 -1.9,-3.5 -1,-0.4 -2,-0.7 -3,-1.2 -3,-1.3 -6.1,-1.7 -9.3,-1 -0.9,0.2 -1.8,0.4 -2.7,0.3 -1,0 -1.3,0.3 -1.1,1.3 0.9,3.5 1,7.1 0.9,10.7 0.1,1.5 0,3 -0.1,4.5 z"
     id="path18"
     inkscape:connector-curvature="0"
     style="fill-rule:evenodd" />
  <path
     d="m 88.5,238.5 c 0.5,4 0.6,8.1 1.4,12 1.6,7.5 3.7,15 5.5,22.5 0.7,2.9 1.1,5.9 1.7,8.9 0.4,2.1 2.6,8 1.7,8.8 -2.8,2.6 -4.5,6 -6.2,9.3 -2.4,4.6 -3.1,9.6 -4.1,14.6 -0.5,2.4 -1.2,4.8 -1.7,7.2 -0.2,0.8 -0.2,1.7 -0.5,2.5 -0.2,0.7 -0.6,1.5 -1.2,1.9 -1.1,0.8 -1.7,0.3 -2.1,-1 -0.9,-3.5 -1.5,-7.2 -3,-10.4 -1.5,-3.3 -2.3,-6.7 -3.4,-10.1 -1,-3 -1.5,-6.2 -2.3,-9.2 -0.3,-1.3 -0.9,-2.6 -1.4,-4 -0.4,-1.3 -0.9,-2.5 -1.3,-3.8 -0.4,-1.3 -0.9,-2.6 -1.4,-3.9 -0.3,-0.9 -0.8,-0.8 -1.3,-0.2 -0.8,1.1 -1.7,2.1 -2.3,3.3 -1.4,3 -3,6 -4,9.2 -1,3.1 -3.3,9.5 -4.7,8.6 -1.4,-0.9 -1.5,-2.1 -2.2,-3.7 -1.2,-2.9 -4.6,-10 -5,-10.7 -0.9,-1.7 -6,-14.5 -7.5,-17.5 -1.3,-2.5 -16.5,-34.3 -13.4,-38.6 1.3,-1.8 4,-5.7 5.2,-7.5 1.7,-2.8 3.5,-5.5 5.3,-8.2 0.9,-1.3 2.1,-2.5 3.1,-3.8 2,-2.7 4,-5.4 5.9,-8.1 1.5,-2.1 3.2,-4 4.5,-6.2 1.7,-2.7 3.6,-5.3 5.8,-7.8 0.9,-1 3.5,-4.8 4.5,-4.4 0.3,0.2 0.7,0.8 0.7,1.1 -0.8,2.7 -0.3,5.5 -0.1,8.2 0.4,5.7 1,11.5 1.6,17.2 0.8,8.1 2.8,15.9 6,23.4 0.7,1.8 1.2,3.6 1.8,5.4 0.2,0.5 0.3,1 0.6,1.4 0.1,0.2 0.7,0.2 0.8,0.1 1.4,-1.9 2.7,-3.8 4.1,-5.7 0.1,-0.1 0.1,-0.3 0.2,-0.5 2.2,-2 4.4,-4 6.7,-6 0.7,-0.6 1.5,-0.7 1.7,0.7 0.3,1.5 0.4,5 0.3,5 z M 32.6,236 c 0.5,2.4 0.4,6.3 1.1,8.2 1.6,4.3 6.1,14.2 7,16.7 1.1,3 8,19 9.8,23 2.5,5.5 5.2,11 7.8,16.5 0.1,0.2 0.3,0.3 0.4,0.4 0.1,-0.2 0.3,-0.3 0.4,-0.5 0.1,-0.3 4.9,-14 8.9,-19.9 0.3,-0.4 0.4,-1.2 0.2,-1.7 -0.6,-1.8 -1.2,-3.5 -1.9,-5.2 -0.8,-1.8 -1.7,-3.6 -2.4,-5.5 -0.2,-0.5 2.1,-5.4 3,-7.2 2.1,-3.8 4.1,-7.6 6,-11.4 0.3,-0.5 0.5,-1.3 0.3,-1.9 -0.5,-2.2 -0.9,-4.5 -1.7,-6.6 -1,-3.1 -2.7,-6 -3.5,-9.1 -1.2,-4.7 -2.8,-9.3 -3.1,-14.2 -0.4,-5.5 -2,-21.4 -2.2,-23.9 0,-0.4 -0.3,-0.8 -0.5,-1.2 -0.3,0.2 -0.7,0.4 -0.9,0.7 -1.5,2.1 -2.9,4.3 -4.3,6.4 -1.9,3.3 -23.9,35.4 -24.4,36.4 z m 54.1,0.1 c -0.1,-0.6 -0.4,-0.9 -1.1,-0.4 -2.7,2.3 -5,4.9 -7.1,7.8 -1.5,2.2 -2.2,4.9 -3.8,7.1 -2.5,3.7 -4.4,7.8 -6.5,11.7 -1.1,2.1 -1.7,4.4 -1.2,6.7 0.4,1.9 1.2,3.7 1.9,5.6 2.1,5.8 4.2,11.7 6.2,17.5 0.9,2.8 1.5,5.8 2.3,8.6 1.1,3.7 2.3,7.3 3.5,11 1,2.9 2.1,5.6 3.2,8.5 0.1,0.2 0.2,0.3 0.4,0.5 0.1,-0.2 0.4,-0.4 0.4,-0.6 0.4,-1.8 0.6,-3.6 1,-5.4 0.6,-2.6 1.4,-5.1 1.9,-7.6 1,-5.5 3.7,-10.1 6.6,-14.7 1.2,-1.9 2.3,-3.7 1.6,-6.2 -1,-3.5 -1.5,-7.2 -2.2,-10.8 -0.3,-1.7 -0.6,-3.4 -1,-5.1 -1.5,-6.1 -3.2,-12.1 -4.5,-18.3 -0.8,-4.7 -1.5,-15.3 -1.6,-15.9 z"
     id="path20"
     inkscape:connector-curvature="0"
     style="fill-rule:evenodd" />
  <path
     d="m 107.9,152 c 0.5,-0.6 1,-1.3 1.5,-1.7 3.8,-2.7 7.6,-5.3 12,-7 2.8,-1.1 5.6,-2.1 8.3,-3.1 1.1,-0.4 2.2,-1.1 3.4,-1.5 2.9,-1 5.8,-2.1 8.7,-3 4,-1.2 3.7,-0.7 2.6,-4.5 -1.1,-3.6 -2.2,-7.3 -3.4,-10.8 -0.4,-1.1 -0.1,-1.8 0.8,-2.3 1.9,-1 3.9,-1.9 5.9,-2.7 4,-1.7 8.2,-3 12,-5.2 3.7,-2.1 7.7,-3.2 11.6,-4.8 1,-0.4 1.5,-0.3 2.1,0.8 2.1,4.3 2.7,9.1 4.1,13.6 1.1,3.5 2.3,6.9 3.5,10.3 0.4,1.1 0.2,1.7 -0.7,2.3 -2.1,1.2 -4.3,2.4 -6.4,3.6 -0.7,0.4 -1.5,0.8 -2.1,1.3 -2.3,2 -5,3.5 -6.6,6.1 -0.7,1.1 -1.3,2.2 -1.9,3.3 -0.1,0.1 -0.1,0.3 0,0.5 0.4,1.9 0.6,3.8 1.1,5.6 1.2,4.3 2.4,8.6 3.8,12.8 1.4,4.1 3,8.1 4.6,12 0.7,1.8 1.7,3.5 2.6,5.2 0.4,0.8 0.2,1.6 -0.5,2 -1.7,1 -3.4,2.1 -5.2,2.9 -3.8,1.7 -7.7,3.4 -11.6,5 -1.5,0.6 -3.2,1 -4.8,1.6 -0.7,0.3 -1.3,0.8 -2,1.1 -1.8,0.8 -3.7,1.5 -5.5,2.4 -2.9,1.4 -5.7,3 -8.6,4.5 -1.3,0.7 -2.7,1.4 -4.1,1.9 -0.3,0.1 -0.9,-0.2 -1.1,-0.5 -0.6,-0.9 -1,-1.9 -1.5,-2.8 -2.1,-4.3 -4.1,-8.7 -6.2,-13 -0.4,-1 -0.6,-2 -1,-3 -1.4,-3.1 -2.8,-6.2 -4.2,-9.3 -1.1,-2.2 -2.4,-4.3 -3.5,-6.5 -0.7,-1.4 -1.3,-2.8 -1.9,-4.3 -1.3,-3.2 -2.5,-6.4 -3.8,-9.5 -0.2,-0.6 -0.6,-1 -0.9,-1.6 -0.4,-0.4 -0.7,-0.9 -1.1,-1.7 z m 51.4,-18 c -0.1,-0.9 -0.5,-0.9 -1.2,-0.8 -1.8,0.5 -3.7,1 -5.5,1.4 -5.8,1.4 -11.6,2.8 -17.1,5.1 -3.5,1.5 -6.9,3.3 -10.5,4.4 -4.7,1.5 -8.9,3.9 -12.9,6.7 -1.1,0.8 -1.3,1.5 -0.8,2.7 2.4,5.6 4.8,11.2 7.3,16.8 1.2,2.8 2.7,5.4 3.9,8.1 1.4,3 2.6,6.2 4,9.2 2,4.4 4,8.9 6,13.3 0.3,0.7 0.8,1.1 1.6,0.8 0.7,-0.3 1.4,-0.7 2.1,-1.1 1.4,-0.8 2.7,-1.7 4.2,-2.5 1.7,-0.9 3.6,-1.6 5.3,-2.4 4.9,-2.2 9.8,-4.3 14.7,-6.5 3.4,-1.5 6.9,-3 10.3,-4.5 1.7,-0.7 1.7,-0.9 1.2,-2.7 -0.1,-0.3 -0.2,-0.6 -0.4,-0.9 -1.7,-4.4 -3.4,-8.7 -5,-13.2 -1.2,-3.6 -2.2,-7.3 -3.3,-10.9 -0.6,-1.9 -1,-3.9 -1.4,-5.9 -0.5,-2.2 -0.9,-4.5 -1.3,-6.7 -0.4,-2.3 -1.1,-9.3 -1.2,-10.4 z m 2.9,7.7 c 0.1,1.2 0.6,1.2 1.4,0.5 1.4,-1.3 2.8,-2.5 4.2,-3.8 0,0 5.6,-4.3 8.9,-5.8 1,-0.4 1.6,-1.1 1.3,-2.2 -0.4,-2.1 -0.9,-4.1 -1.4,-6.2 -0.5,-2.2 -3.5,-12.2 -4.4,-15.1 -0.3,-0.9 -1,-1.5 -1.9,-1.2 -2.2,0.7 -4.4,1.6 -6.6,2.5 -3.3,1.4 -12.7,5.5 -14.1,6.2 -1.7,0.8 -3.3,1.8 -5,2.7 -1,0.5 -1.4,1 -1.2,2.2 0.6,3.1 3.6,9.6 3.7,10.1 0.4,1.5 1.5,2.2 3,1.8 3.1,-0.8 6.3,-1.7 9.4,-2.5 0.7,-0.2 1.6,-0.3 1.8,0.7 0.3,2.1 0.8,9 0.9,10.1 z"
     id="path22"
     inkscape:connector-curvature="0"
     style="fill-rule:evenodd" />
  <path
     d="m 191,87.8 c -0.4,0.4 -0.8,0.9 -1.3,1.1 -3.5,1.4 -7,2.7 -10.5,4.1 -1.9,0.8 -3.8,1.7 -5.6,2.5 -1.6,0.7 -3.2,1.4 -4.8,2.1 -3.6,1.6 -7.3,3.2 -10.9,4.8 -5.4,2.3 -10.8,4.5 -16.4,6.3 -3.9,1.2 -7.7,2.9 -11.5,4.7 -4.3,2.1 -8.5,4.4 -12.8,6.6 -1,0.5 -2,1.2 -3,1.7 -1,0.5 -2.1,1.1 -3.2,1.3 -1.6,0.4 -2.3,-0.4 -2.5,-2 -0.4,-4.4 -1.5,-8.6 -3.3,-12.6 -1.1,-2.4 -2.3,-4.7 -4.2,-6.6 -1.2,-1.3 -0.7,-2.4 0.9,-3.1 4,-1.7 8,-3.5 12,-5.2 1.5,-0.6 3,-1.2 4.5,-1.7 3.5,-1.3 6.7,-3.1 10.2,-4.3 5.5,-1.9 10.9,-4.4 16.3,-6.6 5.3,-2.2 10.5,-4.3 15.8,-6.5 4.2,-1.7 8.6,-3.3 12.6,-5.4 2.4,-1.2 5,-1.1 7.3,-2.2 0.4,-0.2 1.2,-0.1 1.4,0.2 1.5,1.7 3.6,3 4.1,5.6 0.9,4.7 2.7,9.1 4.3,13.6 0.2,0.4 0.3,0.8 0.6,1.6 z M 180.9,70 c -0.8,0.2 -1.2,0.3 -1.6,0.4 -4.3,1.3 -20.7,6.8 -24.4,8.8 -1.6,0.8 -6.7,3.2 -7.6,3.5 -5.2,2 -10.3,4 -15.5,5.9 -3.7,1.4 -14.8,6.1 -16.8,6.8 -3.4,1.1 -6.8,2.3 -9.8,4.2 -1.6,1 -1.6,1.1 -0.7,2.7 1.3,2.6 2.7,5.2 3.7,7.9 1,2.6 1.5,5.4 2.2,8.1 0.1,0.4 0.5,1.1 0.7,1 1.2,-0.1 2.5,-0.3 3.6,-0.7 2.4,-1 4.7,-2.1 6.9,-3.4 4.4,-2.5 8.9,-4.8 13.7,-6.6 3.9,-1.4 7.8,-2.9 11.6,-4.3 1.6,-0.6 3.2,-1 4.7,-1.7 3.5,-1.5 16.8,-7.4 19.8,-8.7 2.8,-1.2 5.6,-2.5 8.5,-3.6 2.1,-0.9 4.3,-1.7 6.4,-2.5 1.8,-0.7 2,-1 1.5,-2.9 -0.4,-1.4 -0.8,-2.7 -1.3,-4 -1.3,-3.4 -1.7,-7.1 -4.3,-9.9 -0.3,-0.4 -0.9,-0.7 -1.3,-1 z"
     id="path24"
     inkscape:connector-curvature="0"
     style="fill-rule:evenodd" />
  <path
     d="m 501,60.4 c -0.1,-0.6 -0.3,-1 -0.3,-1.5 -0.1,-1.7 1.5,-2.7 3.1,-2 2.3,1 4.7,1.7 7,2.7 1.7,0.7 3.4,1.5 5,2.3 1.5,0.7 3,1.4 4.6,2.1 1.1,0.5 2.2,1.1 3.3,1.6 2.2,1 4.4,1.9 6.5,3 3.9,1.9 7.8,3.9 11.7,5.9 1.2,0.6 2.6,1.1 3.8,1.7 3.7,1.6 7.4,3.3 11,4.9 0.9,0.4 1.6,0.9 2.4,1.5 2,1.3 4.1,2.4 6.4,3.3 1.4,0.5 2.6,1.7 3.8,2.7 0.3,0.2 0.4,0.8 0.3,1.1 -0.4,0.9 -0.8,1.8 -1.3,2.7 -1.7,2.6 -3.4,5.2 -5.2,7.8 -1.6,2.3 -3.2,4.5 -4.8,6.9 -0.6,0.8 -1,1.8 -2.1,2 -0.6,0.1 -1.4,0 -1.8,-0.3 -3.3,-2.5 -7,-4.2 -10.9,-5.5 -2.1,-0.7 -4.2,-1.7 -6,-3 -3.7,-2.5 -7.7,-4 -11.8,-5.6 -7.1,-2.9 -14.4,-5.2 -21.1,-9 -2.4,-1.3 -5.1,-2 -7.6,-3 -1.8,-0.7 -1.8,-0.8 -1.3,-2.7 1.6,-6.1 3.3,-12.2 4.9,-18.3 0.2,-0.7 0.3,-1 0.4,-1.3 z m 3.8,-0.3 c -0.6,0.3 -1.3,0.5 -1.4,0.9 -0.8,1.8 -1.6,3.6 -2.2,5.4 -1.2,3.9 -2.2,7.9 -3.3,11.8 -0.4,1.5 -0.4,1.7 1.2,2.4 3.7,1.6 7.3,3.1 11,4.7 4.1,1.8 8.2,3.7 12.4,5.5 5.2,2.2 10.5,4.3 15.6,6.6 5.3,2.5 10.5,5.2 15.8,7.8 1.2,0.6 2.3,0.5 3.3,-0.6 3.7,-4 6.2,-8.9 9.4,-13.3 0.6,-0.8 0.3,-1.6 -0.6,-2 -1.7,-0.8 -3.3,-1.7 -5,-2.6 -1.9,-1 -3.8,-1.9 -5.6,-2.9 -2.8,-1.6 -5.6,-3.3 -8.4,-4.8 -2.4,-1.3 -4.8,-2.3 -7.2,-3.5 -2.1,-1 -4.1,-2.2 -6.3,-3.2 -3.2,-1.5 -6.4,-2.9 -9.6,-4.3 -2.7,-1.2 -5.3,-2.6 -8,-3.8 -1.8,-0.8 -3.7,-1.5 -5.6,-2.2 -1.9,-0.7 -3.7,-1.3 -5.5,-1.9 z"
     id="path26"
     inkscape:connector-curvature="0"
     style="fill-rule:evenodd" />
  <path
     d="m 287.7,0.6 c 2.6,0.1 22.2,0.5 26.1,0.6 3.2,0.2 6.5,0.4 9.7,0.6 3.4,0.1 6.8,0.1 10.2,0.2 h 5 c 1.7,0.1 2,0.8 1.6,2.5 -0.2,0.9 0.1,2 0.1,2.9 -0.1,4.5 -0.3,8.9 -0.4,13.4 0,1 -0.7,1.1 -1.5,1.1 -3.4,-0.1 -6.7,-0.3 -10.1,-0.4 -4.5,-0.1 -9,-0.3 -13.4,-0.3 -4.8,0 -17.9,0.2 -19.6,0.1 -0.8,0 -1.6,0 -2.3,0 -6.7,0.1 -13.4,0.2 -20.1,0.3 -3.1,0.1 -3.3,-0.2 -3,-3.3 0.4,-3.8 0.7,-7.6 0.9,-11.4 0.1,-1.7 -0.1,-3.3 -0.1,-5 0,-1.1 0.5,-1.6 1.6,-1.6 2,0 12.3,0.2 15.3,0.3 z m -13.4,1.8 c -1.2,0.1 -1.7,0.7 -1.7,2 0,3.9 -0.2,7.7 -0.4,11.6 -0.2,3.1 -0.3,3.2 2.7,3.3 4,0.2 8,0.1 12.1,0.1 2.1,0 4.1,-0.4 6.2,-0.4 3.1,0 6.1,0.3 9.2,0.3 6.8,0 13.6,-0.3 20.3,-0.2 3.8,0 7.6,0.4 11.4,0.8 2.3,0.2 2.6,0.3 3.6,-1.7 0.3,-0.6 0.4,-1.3 0.5,-1.9 0.2,-1.6 0.3,-3.2 0.4,-4.9 0,-0.8 -0.1,-1.5 -0.1,-2.3 C 338.4,7.7 338,6.3 338.3,5 338.4,4.2 338.4,4.2 337.8,4.2 334.9,4.2 332,4.1 329.1,4.1 322.4,3.9 315.7,3.7 309,3.5 303.3,3.3 297.6,3 291.9,2.8 286.8,2.5 275.2,2.3 274.3,2.4 Z"
     id="path28"
     inkscape:connector-curvature="0"
     style="fill-rule:evenodd" />
  <path
     d="m 54.9,181.3 c -1.5,1.3 -20.2,21.7 -23.2,25 -2.9,3.3 -6,6.5 -9,9.7 -1.8,1.9 -3.7,3.7 -5.5,5.6 -0.8,0.8 -1.3,0.4 -1.8,-0.2 -1.2,-1.8 -2.3,-3.7 -3.5,-5.4 -1.5,-2.1 -3.1,-4.1 -4.6,-6.1 C 4.8,206.6 2,203.6 0.2,199.8 -0.2,199 0,198.3 0.8,197.9 c 3.2,-1.5 5.4,-4.2 7.9,-6.4 1.8,-1.6 26.9,-23.6 29.1,-25.9 1.6,-1.7 2.9,-3.6 4.2,-5.5 0.7,-1 1.8,-1.1 2.6,0 1.1,1.6 2.2,3.1 3,4.8 1.1,2.1 8.7,15.2 7.3,16.4 z m -38,37.5 c 0.6,-0.4 1,-0.6 1.3,-0.9 2,-1.9 4,-3.7 5.9,-5.7 2.5,-2.6 14.4,-16.5 18,-20.7 3,-3.5 6.1,-6.8 9.3,-10.1 1.4,-1.5 1.6,-2.3 0.4,-4.1 -0.6,-0.8 -1.2,-1.5 -1.6,-2.4 -1.3,-2.7 -5.2,-10.6 -6,-11.7 -0.4,-0.6 -0.8,-0.5 -1.2,0 -0.7,0.8 -1.3,1.5 -2,2.2 -1.6,1.6 -3.2,3.1 -4.9,4.6 -2.2,2.1 -4.4,4.1 -6.6,6.2 -2.2,2.1 -21.7,20 -25.9,23.1 -0.7,0.5 -0.8,1.3 -0.2,2.1 1.8,2.3 12.9,16.7 13.5,17.4 z"
     id="path30"
     inkscape:connector-curvature="0"
     style="fill-rule:evenodd" />
  <path
     d="m 259.2,237.3 c -0.1,2.5 0.1,2.7 2.5,2.9 h 1.5 c 1.8,0.1 3.7,0.1 5.5,0.3 1.2,0.1 2.4,0.4 3.7,0.4 3.6,0.1 7.1,0.1 10.7,0.2 3.6,0.1 7.3,0.3 10.9,0.6 3.6,0.2 7.2,0.6 10.8,0.8 0.6,0 1.3,0.1 1.8,-0.2 0.5,-0.2 1,-0.8 1.1,-1.3 0.2,-1.2 0.2,-2.5 0.2,-3.8 0,-0.7 -0.2,-1.3 -1,-1.2 -0.4,0.1 -0.9,0.6 -1,1 -0.4,2.3 -1.3,3 -3.6,2.7 -1,-0.1 -2,-0.1 -3,-0.1 -3.2,-0.1 -6.3,-0.1 -9.5,-0.3 -3.9,-0.1 -7.8,-0.3 -11.7,-0.4 -1.2,0 -2.5,0 -3.7,-0.1 -3.8,-0.4 -7.5,-0.9 -11.3,-1.4 -1,-0.1 -1.5,-0.6 -1.7,-1.6 -0.1,-0.4 0.1,-1 -0.1,-1.3 -0.4,-0.5 -0.9,-1 -1.5,-1 -0.8,-0.1 -1.2,0.5 -1.1,1.3 0.3,0.9 0.4,1.7 0.5,2.5 z m 0.9,-31.4 c 1.3,0 2.4,-1 2.3,-2.1 -0.1,-1.1 -0.6,-2.1 -1.9,-2.1 -1.2,0 -2.4,1.1 -2.3,2.2 0.1,1.3 0.9,1.8 1.9,2 z"
     id="path32"
     inkscape:connector-curvature="0"
     style="fill:none" />
  <path
     d="m 485.4,157.9 c -0.3,-6.5 -1.5,-11.3 -4.8,-15.2 -3.6,-4.2 -8.1,-6.8 -13.8,-7.1 -2.8,-0.1 -5.6,-0.9 -8.5,0.1 -2.3,0.8 -4.4,1.9 -6.5,3.3 -3,2.2 -5.7,4.4 -7.7,7.7 -2.3,3.8 -3.9,7.7 -4.8,12 -0.3,1.6 -0.9,3.2 -0.7,4.7 0.3,2.6 1.2,5.2 1.8,7.8 0.1,0.4 0.3,0.8 0.6,1.2 1.3,1.8 2.3,3.8 4.1,5.2 2.3,1.8 4.4,3.8 6.6,5.7 0.2,0.2 0.5,0.3 0.8,0.3 2.8,0.4 5.5,0.9 8.3,1.1 3.4,0.3 6.9,0.2 10,-1.6 2.6,-1.5 5.3,-2.8 7.6,-4.8 1.9,-1.6 3.7,-3.2 4.4,-5.7 0.6,-2 1.3,-4 1.6,-6.1 0.5,-3.1 0.8,-6.5 1,-8.6 z"
     id="path34"
     inkscape:connector-curvature="0"
     style="fill:none" />
  <path
     d="m 207,421.1 c 1.1,0 3.5,-2 3.5,-3.1 0,-2.2 0.9,-4.1 2,-6 1,-1.8 2,-3.8 2.8,-5.7 0.7,-1.6 0.1,-2.4 -1.7,-2.4 -1.3,0.1 -2.6,0.1 -3.8,0.3 -1.3,0.2 -1.9,-0.4 -2.2,-1.5 -0.4,-1.6 -0.9,-3.2 -1.4,-4.8 -0.5,-1.6 -1.7,-2 -3.2,-1.2 -0.5,0.3 -0.9,0.7 -1.4,0.9 -1.7,0.4 -3.5,0.9 -5.2,1.1 -2.2,0.2 -2.9,1.2 -2.1,3.2 0.8,1.8 1.3,3.8 1.9,5.7 0.4,1.2 -0.1,2.2 -1.1,3 -0.4,0.3 -0.9,0.7 -1.3,1.1 -1.8,1.6 -1.4,3.5 0.8,4.4 2.1,0.8 4.2,1.5 6.2,2.4 1.7,0.7 3.2,1.7 4.9,2.5 0.4,0 0.9,0 1.3,0.1 z m 12.7,4.9 c -0.7,-1.6 -1.2,-3.1 -1.9,-4.5 -0.5,-0.9 -1.5,-1.1 -2.5,-0.6 -0.8,0.4 -1.6,0.9 -2.4,1.2 -3.3,1.2 -6.7,2.5 -10.1,3.6 -2.1,0.7 -4.3,1.3 -6.4,1.9 -1.3,0.4 -2.2,1.4 -1.8,2.5 0.8,2.1 1.8,4.1 2.8,6.1 0.4,0.7 1,1 1.8,0.6 2.9,-1.5 6,-2.7 8.8,-4.5 3.3,-2.1 6.9,-3.5 10.4,-5 0.4,-0.1 0.8,-0.7 1.3,-1.3 z"
     id="path36"
     inkscape:connector-curvature="0"
     style="fill:none" />
  <path
     d="m 209.9,379 c 0.4,1.9 -0.7,2.7 -2.2,3.5 -4.2,2.2 -8.4,4.4 -12.6,6.7 -2.7,1.5 -5.4,3 -8,4.7 -4,2.5 -7.9,5.1 -11.8,7.8 -0.8,0.5 -1.4,0.4 -2.2,0.2 -2.5,-0.6 -3.6,-2.6 -3.9,-4.8 -0.8,-5.1 -2.3,-9.9 -3.9,-14.8 -0.8,-2.5 -1.3,-5.1 -2.1,-7.6 -0.4,-1.4 0.1,-2.3 1.3,-2.9 5.1,-2.5 10.2,-5.2 15.8,-6.5 0.6,-0.1 1.1,-0.5 1.7,-0.8 3.8,-2 8.1,-2.6 12.2,-3.7 3.3,-0.9 6.4,-2.2 9.6,-3.5 1.9,-0.8 2,-0.8 2.4,1.2 0.9,5 1.9,9.9 2.7,14.9 0.5,1.9 0.7,3.8 1,5.6 z"
     id="path38"
     inkscape:connector-curvature="0"
     style="fill:none" />
  <path
     d="m 156.1,361.3 c 0,2.7 -0.3,3.1 -2.8,4 -1,0.4 -2.1,0.7 -3.2,1 -0.9,0.3 -1.5,0.7 -1.3,1.8 0.9,6.5 1.1,13.1 2.7,19.6 0.2,1 0,2.1 0,3.1 -0.9,-0.3 -1.8,-0.6 -2.6,-1 -2.3,-1.1 -4.6,-2.3 -7,-3.3 -1.4,-0.7 -2.1,-1.6 -2.1,-3.2 -0.1,-4.6 -0.4,-9.3 -0.6,-13.9 -0.2,-4.2 -0.4,-8.5 -0.7,-12.7 -0.1,-2.1 -0.2,-2.1 1.7,-2.8 2.9,-1 5.8,-1.9 8.8,-2.8 1.2,-0.4 2.3,-0.8 3.5,-1.2 1.8,-0.6 1.8,-0.5 2.1,1.3 0.2,2.1 0.4,4.2 0.7,6.3 0.2,1.2 0.5,2.5 0.8,3.8 z"
     id="path40"
     inkscape:connector-curvature="0"
     style="fill:none" />
  <path
     d="m 137.5,371.8 v 9.9 c 0,0.4 0,0.8 -0.1,1.2 0,0.9 -0.4,1.3 -1.3,0.8 -1.7,-0.9 -3.4,-1.9 -5.1,-2.8 -1.7,-0.9 -3.4,-2.1 -5.2,-2.6 -3.1,-0.8 -5.4,-3 -8.1,-4.3 -1.3,-0.6 -2.5,-1.6 -3.8,-2.1 -2.1,-0.7 -3.3,-2.1 -4,-4.1 -0.3,-0.8 -0.1,-1.3 0.6,-1.7 1.7,-0.7 3.4,-1.5 5.1,-2.2 6.3,-2.5 12.6,-5 18.9,-7.6 1.8,-0.7 1.8,-0.7 1.9,1.2 0.3,4.6 0.7,9.1 1.1,14.3 z"
     id="path42"
     inkscape:connector-curvature="0"
     style="fill:none" />
  <path
     d="m 154.2,389.7 c -0.3,-1.6 -0.7,-3.1 -1,-4.7 -0.6,-3.2 -1.2,-6.5 -1.7,-9.7 -0.2,-1.3 -0.2,-2.7 -0.3,-4 -0.1,-1.4 0.4,-2.7 1.8,-3.3 2.5,-1.1 5,-2.3 7.6,-3.1 4.2,-1.4 8.5,-2.4 12.7,-3.7 1.2,-0.4 2.3,-1.1 3.5,-1.6 1.4,-0.6 1.6,-0.5 1.9,1 0.4,2.6 0.4,2.6 -2.1,3.6 -3.4,1.4 -6.7,2.9 -10,4.3 -1.8,0.8 -3.4,2 -5.5,1.7 -1,-0.1 -1.6,1.4 -1.2,2.6 1.6,5.4 3.3,10.8 4.8,16.2 0.8,2.7 1.4,5.4 2.1,8.1 0.3,1.4 0,1.8 -1.3,1.2 -3.5,-1.6 -7,-3.4 -10.5,-5.2 -1.2,-0.8 -1.1,-2.1 -0.8,-3.4 z"
     id="path44"
     inkscape:connector-curvature="0"
     style="fill:none" />
  <path
     d="m 209.7,363.9 c -0.2,-0.9 0.2,-0.9 0.9,-0.7 4.2,1 8.5,1.8 12.7,2.9 1.7,0.4 3.2,1.2 4.8,2 1.2,0.6 1.2,1 0.1,1.7 -4.9,3.1 -9.8,6.1 -14.7,9.1 -0.7,0.5 -1.1,0.3 -1.3,-0.5 -0.6,-3.1 -1.3,-6.2 -1.9,-9.3 -0.3,-1.8 -0.4,-3.5 -0.6,-5.2 z"
     id="path46"
     inkscape:connector-curvature="0"
     style="fill:none" />
  <path
     d="m 156.7,353.1 c 0,-0.3 0,-0.7 0,-1 0,-1 0.4,-1.5 1.5,-1.2 3.4,0.8 6.8,1.7 10.2,2.6 2.4,0.6 4.8,1.2 7.1,1.8 0.7,0.2 1.3,0.6 1.9,0.9 -0.5,0.4 -0.9,1.1 -1.4,1.3 -3.2,1.2 -6.5,2.3 -9.8,3.4 -2,0.7 -4,1.2 -5.9,1.8 -1.6,0.5 -1.9,0.4 -2.2,-1.1 -0.6,-2.9 -1,-5.7 -1.4,-8.5 -0.1,0 0,0 0,0 z"
     id="path48"
     inkscape:connector-curvature="0"
     style="fill:none" />
  <path
     d="m 180.7,359.1 c 0.1,-1.4 0.4,-1.8 1.7,-1.6 2.7,0.4 5.4,1 8.2,1.5 0.1,0 0.2,0.2 0.4,0.3 -0.1,0.1 -0.3,0.2 -0.4,0.2 -2.7,0.9 -5.4,1.7 -8,2.6 -0.9,0.3 -1.4,0.3 -1.4,-0.8 -0.1,-0.8 -0.4,-1.5 -0.5,-2.2 z"
     id="path50"
     inkscape:connector-curvature="0"
     style="fill:none" />
  <path
     d="m 322.2,100.8 c -0.1,0.8 -0.2,1.3 -0.2,1.8 -0.1,2 0.3,2.3 2.2,2 0.8,-0.1 1.5,-0.5 2.3,-0.4 1.7,0 3.6,-0.2 5.1,0.4 2.1,0.8 4,2.2 6,3.3 1.5,0.8 3.1,1.6 4.6,2.3 0.7,0.3 1.4,0 1.6,-0.8 0.2,-0.6 0.3,-1.3 0.3,-2 -0.2,-3.7 -0.4,-7.4 -0.6,-11 -0.1,-1.5 0,-3 0,-4.5 0,-1.2 0.1,-2.3 0,-3.5 -0.2,-3.4 -0.9,-6.8 -0.5,-10.3 0.1,-0.5 -0.2,-1.3 -0.5,-1.4 -0.7,-0.2 -1.7,-0.3 -2.2,0.1 -2.1,1.5 -4.1,3.2 -6.1,4.9 -3.2,2.7 -7,4.3 -11.2,4.6 -1.6,0.1 -2,0.5 -2,2 0,0.8 0,1.7 0.1,2.5 0.4,3.5 0.8,6.9 1.1,10 z m 30.1,-6.2 c -0.6,0.3 -1,0.6 -1.4,0.9 0.3,0.4 0.4,0.9 0.8,1.2 1.4,1 2.7,1.9 4.2,2.8 1.1,0.7 2.3,1.2 3.4,1.8 0.8,0.4 1.3,-0.1 1.6,-0.7 0.3,-0.7 0,-1.1 -0.7,-1.4 -1.4,-0.7 -2.8,-1.6 -4.1,-2.4 -1.4,-0.8 -2.6,-1.4 -3.8,-2.2 z M 351.9,90 c 0.4,0 0.5,0 0.6,-0.1 2,-0.8 4.1,-1.5 6,-2.5 0.7,-0.4 1.1,-1.3 0.6,-2.2 -0.6,-1 -1.4,-0.4 -2,-0.1 -1.8,1.1 -3.6,2.2 -5.4,3.3 -0.3,0.2 -0.5,0.5 -0.7,0.8 0.3,0.4 0.7,0.7 0.9,0.8 z"
     id="path52"
     inkscape:connector-curvature="0"
     style="fill:none" />
  <path
     d="m 74,275.1 c 0.9,0 2,-1 2.2,-2 0.1,-0.6 0.2,-1.4 0.5,-1.9 1.5,-2.6 3,-5.1 4.6,-7.6 0.7,-1.2 1.8,-2.1 2.6,-3.3 0.3,-0.4 0.2,-1 0.3,-1.5 -0.5,-0.1 -0.9,-0.2 -1.4,-0.2 -0.2,0 -0.3,0.3 -0.5,0.5 -3.1,4.8 -6.3,9.6 -9.4,14.4 -0.4,0.6 0.3,1.6 1.1,1.6 z m 3.3,5.7 c 0.7,-0.9 1.3,-1.5 1.8,-2.3 0.4,-0.7 0.5,-1.5 1,-2.1 1.7,-2.6 3.4,-5.2 5.2,-7.8 0.2,-0.3 0.4,-0.6 0.4,-0.9 0,-0.4 -0.1,-1 -0.4,-1.1 -0.4,-0.2 -1,-0.1 -1.4,0 -0.4,0.2 -0.6,0.7 -0.8,1.1 -1.3,2.2 -2.6,4.4 -3.9,6.6 -0.7,1.2 -1.7,2.2 -2.4,3.4 -0.3,0.6 -0.4,1.3 -0.4,2 0,0.2 0.4,0.5 0.9,1.1 z m 11,-3.7 c -0.6,-0.3 -1.1,-0.8 -1.5,-0.8 -0.5,0.1 -1.2,0.5 -1.5,0.9 -2.1,3.2 -3.9,6.6 -6.6,9.4 -0.4,0.4 -0.3,1.6 0,2.1 0.6,0.8 1.4,0.3 2,-0.3 0.3,-0.3 0.4,-0.8 0.6,-1.2 0.3,-0.8 0.6,-1.6 1,-2.3 1.6,-2.2 3.3,-4.4 4.9,-6.6 0.4,-0.2 0.7,-0.6 1.1,-1.2 z"
     id="path54"
     inkscape:connector-curvature="0"
     style="fill:none" />
  <path
     d="m 160.8,81 c -1.2,0.3 -1,0.9 -0.7,1.6 0.9,2.4 1.7,4.9 2.6,7.4 0.1,0.3 0.3,0.6 0.5,0.9 0.4,0.5 0.9,1.1 1.7,0.6 0.7,-0.5 0.7,-1.1 0.3,-1.9 -0.6,-1.3 -1.1,-2.7 -1.7,-4.1 -0.5,-1.2 -1.1,-2.3 -1.7,-3.4 -0.3,-0.6 -0.8,-0.8 -1,-1.1 z"
     id="path56"
     inkscape:connector-curvature="0"
     style="fill:none" />
  <path
     d="m 543.5,83.6 c 0.3,-0.2 0.9,-0.5 1,-0.9 0.1,-0.4 -0.2,-1.1 -0.6,-1.3 -1.1,-0.7 -2.3,-1.3 -3.6,-1.8 -1.6,-0.6 -2.2,-0.3 -2.9,1.2 -1.2,2.4 -2.3,4.8 -3.5,7.2 -0.6,1.2 -0.3,2.2 0.7,2.8 1.7,1.1 3.6,2.1 5.4,3 1,0.5 2,-0.1 2.3,-1 0.2,-1.1 -0.7,-1.1 -1.4,-1.5 -1.1,-0.5 -2.2,-1.2 -3.2,-1.9 -0.3,-0.3 -0.4,-0.9 -0.5,-1.4 0.5,-0.1 1,-0.4 1.5,-0.4 0.6,0 1.2,0.2 1.8,0.3 0.9,0 1.4,-0.6 1,-1.4 -0.2,-0.5 -0.7,-1 -1.2,-1.2 -0.7,-0.3 -1,-0.6 -0.7,-1.4 0.3,-0.8 0.6,-1.3 1.6,-0.9 0.7,0.2 1.4,0.3 2.3,0.6 z M 533,80.8 c -0.1,-3.8 -3.6,-6.7 -7,-6 -0.5,0.1 -1.1,0.5 -1.3,0.9 -1,2.2 -1.9,4.5 -2.7,6.8 -0.2,0.5 0,1.3 0.4,1.7 1.7,2 4.5,2.6 6.8,1.3 2,-1 3.3,-2.8 3.8,-4.7 z m 22.7,10.7 c 0.1,0 0.1,0 0,0 0,-0.5 0,-1 -0.1,-1.5 -0.3,-1.8 -2.9,-3.2 -4.5,-2.1 -1.8,1.2 -3.5,2.5 -4.4,4.6 -0.7,1.6 -0.6,3.4 0.5,4.5 1.3,1.4 2.7,1.8 4.5,1 3.1,-1.2 4.6,-2.9 3.9,-6.1 0.1,-0.1 0.1,-0.3 0.1,-0.4 z m -45.6,-25 h 0.3 c -0.1,-0.8 0,-1.6 -0.3,-2.3 -0.2,-0.4 -0.8,-1 -1.2,-0.9 -0.5,0.1 -0.9,0.7 -1.3,1.1 -0.2,0.2 -0.2,0.7 -0.1,1 0.9,3.4 0.1,6.7 -0.2,10.1 0,0.5 0.2,1.4 0.5,1.5 0.5,0.2 1.4,0 1.8,-0.3 2.1,-2 3.8,-4.4 6.4,-5.9 0.1,-0.1 0.2,-0.2 0.2,-0.2 0.6,-0.7 0.5,-1.2 -0.3,-1.6 -1.1,-0.7 -1.8,-0.4 -2.8,0.8 -0.7,0.8 -1.5,1.6 -2.3,2.4 -0.6,0.5 -0.9,0.4 -0.9,-0.4 0.2,-1.8 0.2,-3.5 0.2,-5.3 z m 6,13.1 c 0.4,0.3 0.8,0.9 1.3,1 0.8,0.1 1.5,-0.1 1.6,-1.2 0.1,-1.1 0.4,-2.2 0.6,-3.2 0.3,-1.4 0.7,-2.7 0.9,-4.1 0.1,-0.4 -0.4,-1.2 -0.7,-1.2 -0.5,0 -1.1,0.4 -1.6,0.6 -0.1,0.1 -0.1,0.4 -0.1,0.6 -0.4,1.7 -0.9,3.4 -1.4,5.2 0,0.7 -0.3,1.4 -0.6,2.3 z"
     id="path58"
     inkscape:connector-curvature="0"
     style="fill:none" />
  <path
     d="m 291.7,2.7 c 5.7,0.2 11.4,0.5 17.1,0.7 L 328.9,4 c 2.9,0.1 5.8,0.1 8.7,0.1 0.6,0 0.6,0 0.5,0.8 -0.2,1.3 0.1,2.8 0.2,4.1 0.1,0.8 0.1,1.5 0.1,2.3 -0.1,1.6 -0.2,3.2 -0.4,4.9 -0.1,0.7 -0.2,1.3 -0.5,1.9 -1,2 -1.3,2 -3.6,1.7 -3.8,-0.4 -7.6,-0.7 -11.4,-0.8 -6.8,-0.1 -13.6,0.2 -20.3,0.2 -3.1,0 -6.1,-0.3 -9.2,-0.3 -2.1,0 -4.1,0.3 -6.2,0.4 -4,0 -8,0 -12.1,-0.1 -3,-0.1 -2.9,-0.2 -2.7,-3.3 0.2,-3.8 0.4,-7.7 0.4,-11.6 m 18.4,11.6 c -0.3,-0.5 -0.4,-0.9 -0.6,-1.2 -0.3,-0.6 -0.7,-1.2 -0.9,-1.8 -0.7,-2 -1.4,-4.1 -2,-6.2 -0.2,-0.8 -0.5,-1.2 -1.4,-1 -0.8,0.2 -1.2,0.5 -1.2,1.5 -0.1,1.7 -0.9,3 -2.1,4.2 -0.6,0.6 -1.1,1.4 -1.6,2.1 -0.4,0.5 -0.6,1.2 -1,1.6 -0.6,0.6 -0.8,1.1 -0.1,1.7 0.7,0.7 1.3,0.4 1.8,-0.3 0.4,-0.5 0.7,-1 1.1,-1.5 0.9,-1.3 2.4,-1.4 3.8,-1.4 1.2,0 0.8,1.4 1.2,2.1 0.1,0.2 0.1,0.5 0.2,0.6 0.5,0.4 1.1,1 1.5,0.9 0.4,0 0.9,-0.8 1.3,-1.3 z m 11.7,-2.6 h -0.1 c 0,0.5 -0.1,1 -0.1,1.5 0,1.1 0.6,1.9 1.6,1.9 4.2,0.2 6.4,-1.8 6.5,-6 0,-0.2 0.1,-0.3 0,-0.5 C 310.3,7.8 309,6.4 307.1,6.8 306,7 304.8,7 303.6,7 c -1.8,0 -2,0.2 -1.8,2 0.2,1.4 0.4,2.8 0.7,4.3 z m 17.4,-1.4 c 0.1,1.2 0.1,2.1 0.3,2.9 0.1,0.5 0.5,1 0.9,1.3 2,1.3 4.1,0.8 5.4,-1.2 0.2,-0.3 0.6,-0.6 0.7,-0.9 0.5,-1.4 1.2,-2.8 1.4,-4.2 0.1,-0.8 -0.5,-2.1 -1.1,-2.4 -2.9,-1.4 -5.2,-1.4 -6.8,2 -0.5,0.8 -0.7,1.9 -0.8,2.5 z m -22.7,-1.3 c 0,0.7 0.1,1.4 0,2 -0.1,0.5 -0.4,1 -0.6,1.5 -0.3,-0.5 -0.8,-1 -0.8,-1.5 -0.1,-1.3 -0.1,-2.7 0,-4 0.1,-0.9 -0.1,-1.5 -1.1,-1.5 -0.9,0 -1.3,0.5 -1.3,1.4 0,0.9 0.1,1.8 0.2,2.7 0.2,1.5 0.4,3.1 0.9,4.6 0.2,0.6 1,1.5 1.5,1.5 0.7,-0.1 1.5,-0.8 2.1,-1.3 0.2,-0.2 0.4,-0.6 0.4,-0.9 0.3,-2.3 0.7,-4.5 0.9,-6.8 0,-0.3 -0.6,-1 -1,-1 -0.4,0 -1.1,0.5 -1.1,0.8 -0.2,0.8 -0.1,1.7 -0.1,2.5 z m 17,2.9 c -0.1,0 -0.1,0 -0.2,0 v 1 c 0,1 0.4,1.7 1.4,1.7 1,0 1.1,-1 1,-1.8 -0.3,-2.1 -0.6,-4.2 -1,-6.3 -0.1,-0.4 -0.9,-0.9 -1.3,-0.9 -0.4,0.1 -0.8,0.8 -1,1.3 -0.1,0.2 0.2,0.6 0.3,0.9 0.3,1.4 0.5,2.8 0.8,4.1 z"
     id="path60"
     inkscape:connector-curvature="0"
     style="fill:none" />
  <path
     d="m 37.5,176.4 c 0.4,0.4 0.9,0.7 1.2,1.1 1.1,1.7 2.1,3.4 3.1,5.1 0.3,0.5 0.8,1 1.2,1.1 0.3,0.1 1.1,-0.4 1.1,-0.7 0.1,-0.5 -0.2,-1.2 -0.5,-1.7 -0.8,-1.1 -1.7,-2.2 -2.6,-3.3 -0.6,-0.8 -1.7,-1.8 -1.6,-2.6 0.1,-0.9 1.2,-1.7 1.9,-2.6 0.1,-0.1 0.2,-0.2 0.2,-0.3 0.1,-0.3 0.2,-0.6 0.1,-0.8 -0.2,-0.2 -0.5,-0.4 -0.8,-0.4 -0.4,0 -0.8,0.2 -1.1,0.4 -2.2,1.4 -4.4,2.9 -6.6,4.3 -0.7,0.5 -0.5,1.1 0.1,1.3 0.5,0.2 1.3,0.1 1.9,-0.1 0.9,0.1 1.5,-0.4 2.4,-0.8 z"
     id="path62"
     inkscape:connector-curvature="0"
     style="fill:none" />
  <g
     id="g130"
     style="fill-rule:evenodd"
     transform="translate(-122.9,-57.2)">
    <path
       d="m 382.1,294.5 c -0.1,-0.8 -0.3,-1.5 -0.4,-2.3 -0.1,-0.8 0.3,-1.4 1.1,-1.3 0.5,0.1 1.1,0.6 1.5,1 0.2,0.3 0.1,0.9 0.1,1.3 0.1,1 0.7,1.5 1.7,1.6 3.8,0.4 7.5,0.9 11.3,1.4 1.2,0.1 2.5,0 3.7,0.1 3.9,0.1 7.8,0.3 11.7,0.4 3.2,0.1 6.3,0.2 9.5,0.3 1,0 2,0 3,0.1 2.3,0.3 3.2,-0.4 3.6,-2.7 0.1,-0.4 0.6,-1 1,-1 0.8,-0.1 1,0.5 1,1.2 -0.1,1.3 0,2.6 -0.2,3.8 -0.1,0.5 -0.6,1 -1.1,1.3 -0.5,0.2 -1.2,0.2 -1.8,0.2 -3.6,-0.3 -7.2,-0.6 -10.8,-0.8 -3.6,-0.2 -7.3,-0.5 -10.9,-0.6 -3.6,-0.1 -7.1,-0.1 -10.7,-0.2 -1.2,0 -2.4,-0.4 -3.7,-0.4 -1.8,-0.1 -3.7,-0.2 -5.5,-0.3 -0.5,0 -1,0 -1.5,0 -2.5,-0.4 -2.7,-0.7 -2.6,-3.1 z"
       id="path64"
       inkscape:connector-curvature="0" />
    <path
       d="m 383,263.1 c -1,-0.2 -1.8,-0.8 -1.9,-2 -0.1,-1.1 1.1,-2.3 2.3,-2.2 1.3,0.1 1.8,1 1.9,2.1 0.1,1.1 -1,2.1 -2.3,2.1 z"
       id="path66"
       inkscape:connector-curvature="0" />
    <path
       d="m 435,256.8 c 1.4,0.1 1.5,1.6 1.6,2.3 0.2,1 -1.1,2.1 -2.1,2 -0.8,0 -1.6,-0.8 -1.8,-2 -0.2,-1.3 1,-2.5 2.3,-2.3 z"
       id="path68"
       inkscape:connector-curvature="0" />
    <path
       d="m 608.3,215.1 c -0.2,2.1 -0.5,5.4 -1,8.8 -0.3,2.1 -1.7,8.4 -6,11.8 -6.3,4.9 -14.3,5.9 -17.7,5.6 -6,-0.3 -12.3,-2.5 -15.5,-6.4 -3.1,-3.9 -6.8,-7.8 -6.1,-15.2 0.6,-7.4 2.8,-11.9 5.1,-15.7 2,-3.3 4.7,-5.5 7.7,-7.7 2,-1.5 4.1,-2.5 6.5,-3.3 2.9,-1 5.7,-0.2 8.5,-0.1 5.7,0.2 10.2,2.8 13.8,7.1 3.2,3.9 4.4,8.7 4.7,15.1 z m -41.6,14.2 c 3.4,6.5 9.5,9.6 18.7,10 1.8,0.2 3.8,-0.3 5.6,-0.7 3.8,-0.8 8.8,-4.5 10.1,-6.3 1.2,-1.8 2,-3.8 2.7,-5.7 0.8,-2.1 1.5,-4.2 1.8,-6.4 0.3,-2.5 0.3,-5 0.2,-7.5 -0.5,-6.4 -3,-11.7 -8.5,-15.2 -3,-1.9 -6.4,-2.6 -10.1,-2.9 -5.4,-0.4 -9.8,1.7 -13.6,5.1 -2,1.8 -7.3,8.5 -8.4,15.1 -1.3,7.1 -1.9,8.1 1.5,14.5 z"
       id="path70"
       inkscape:connector-curvature="0" />
    <path
       d="m 329.9,478.3 c -0.4,-0.1 -0.8,0 -1.2,-0.2 -1.6,-0.8 -3.2,-1.8 -4.9,-2.5 -2,-0.9 -4.1,-1.7 -6.2,-2.4 -2.2,-0.8 -2.6,-2.7 -0.8,-4.4 0.4,-0.4 0.9,-0.7 1.3,-1.1 1,-0.8 1.4,-1.8 1.1,-3 -0.6,-1.9 -1.2,-3.8 -1.9,-5.7 -0.8,-2 -0.2,-3 2.1,-3.2 1.8,-0.2 3.5,-0.6 5.2,-1.1 0.5,-0.1 0.9,-0.6 1.4,-0.9 1.4,-0.8 2.7,-0.3 3.2,1.2 0.5,1.6 0.9,3.2 1.4,4.8 0.3,1.1 0.9,1.7 2.2,1.5 1.3,-0.2 2.6,-0.3 3.8,-0.3 1.8,-0.1 2.4,0.7 1.7,2.4 -0.8,1.9 -1.8,3.9 -2.8,5.7 -1.1,1.9 -2,3.7 -2,6 -0.1,1.2 -2.5,3.2 -3.6,3.2 z m -0.3,-3.3 c 0.2,-0.2 0.7,-0.5 1,-0.9 0.7,-1.4 1.2,-2.9 1.8,-4.3 0.7,-1.5 1.4,-3 2,-4.6 0.1,-0.4 0,-0.8 0,-1.2 -0.5,0 -1,-0.1 -1.4,0 -0.8,0.1 -1.7,0.2 -2.5,0.5 -1.1,0.3 -1.6,-0.3 -1.9,-1.2 -0.2,-0.7 -0.4,-1.4 -0.6,-2.1 -0.3,-1.1 -0.5,-2.2 -0.7,-3.3 -0.2,-0.8 -0.6,-1.2 -1.5,-1 -1.8,0.4 -3.6,0.9 -5.4,1.4 -0.8,0.2 -1,0.7 -0.5,1.5 0.4,0.6 0.6,1.4 0.8,2.2 0.4,1.1 0.7,2.3 1.3,3.4 0.7,1.3 0.7,2 -0.5,2.9 -0.6,0.5 -1.4,1 -2,1.5 -1,0.8 -1,0.9 0.2,1.5 1,0.5 2,0.8 2.9,1.2 2.3,0.7 4.4,1.5 7,2.5 z"
       id="path72"
       inkscape:connector-curvature="0" />
    <path
       d="m 342.6,483.2 c -0.5,0.6 -0.9,1.2 -1.4,1.4 -3.6,1.5 -7.1,2.9 -10.4,5 -2.7,1.8 -5.8,3 -8.8,4.5 -0.8,0.4 -1.5,0.1 -1.8,-0.6 -1,-2 -2,-4 -2.8,-6.1 -0.4,-1.1 0.5,-2.1 1.8,-2.5 2.1,-0.6 4.3,-1.2 6.4,-1.9 3.4,-1.1 6.7,-2.4 10.1,-3.6 0.8,-0.3 1.6,-0.8 2.4,-1.2 1,-0.5 2,-0.3 2.5,0.6 0.8,1.2 1.3,2.7 2,4.4 z m -3.1,-0.6 c -0.1,-1.1 -0.5,-1.6 -1.3,-1.5 -1,0.2 -2.1,0.5 -3.1,0.8 -3.7,1.3 -7.4,2.6 -11.1,3.8 -1.1,0.4 -2.2,0.5 -3.2,0.9 -0.3,0.1 -0.8,0.7 -0.8,1 0.4,1.1 0.9,2.2 1.4,3.2 0.3,0.7 0.8,0.6 1.4,0.3 1.6,-0.8 3.3,-1.6 4.9,-2.4 3.5,-1.6 7,-3.2 10.4,-4.9 0.6,-0.3 1,-0.9 1.4,-1.2 z"
       id="path74"
       inkscape:connector-curvature="0" />
    <path
       d="m 445.1,158 c -0.3,-3.1 -0.7,-6.6 -1.1,-10 -0.1,-0.8 -0.1,-1.7 -0.1,-2.5 0,-1.5 0.4,-1.9 2,-2 4.2,-0.4 7.9,-1.9 11.2,-4.6 2,-1.7 4,-3.4 6.1,-4.9 0.5,-0.4 1.5,-0.2 2.2,-0.1 0.3,0.1 0.5,0.9 0.5,1.4 -0.4,3.5 0.3,6.9 0.5,10.3 0.1,1.2 0,2.3 0,3.5 0,1.5 -0.1,3 0,4.5 0.2,3.7 0.4,7.4 0.6,11 0,0.7 -0.1,1.3 -0.3,2 -0.2,0.8 -0.8,1.1 -1.6,0.8 -1.6,-0.7 -3.1,-1.4 -4.6,-2.3 -2,-1.1 -3.9,-2.5 -6,-3.3 -1.5,-0.6 -3.4,-0.4 -5.1,-0.4 -0.8,0 -1.5,0.3 -2.3,0.4 -1.9,0.3 -2.1,-2.9 -2,-3.8 z m 18.7,-20.8 c -0.1,-0.8 -0.5,-0.8 -1,-0.4 -2.5,2 -5.1,4 -7.6,6.1 -1.4,1.2 -1.8,1.5 -4.6,2 -1.1,-0.1 -2.2,0.1 -3.3,0.3 -1,0.1 -1.3,0.7 -1.2,1.8 0.3,2.9 0.5,5.8 0.7,8.7 0.2,2.9 0.9,3.4 3.8,3.2 1,-0.1 2,-0.1 3,0 0.5,0 1.1,0.3 1.5,0.6 2.5,1.5 5,3.1 7.6,4.5 1.1,0.6 1.7,0.2 1.6,-1.1 0,-0.6 -0.1,-1.1 -0.1,-1.7 0,-2.1 0,-7.6 0,-12.2 0.1,-4.6 -0.2,-10 -0.4,-11.8 z"
       id="path76"
       inkscape:connector-curvature="0" />
    <path
       d="m 475.2,151.8 c 0.5,0.3 2.5,1.4 3.7,2.1 1.4,0.8 2.7,1.7 4.1,2.4 0.7,0.3 1,0.7 0.7,1.4 -0.3,0.7 -0.7,1.2 -1.6,0.7 -1.1,-0.6 -2.3,-1.1 -3.4,-1.8 -1.4,-0.9 -2.8,-1.8 -4.2,-2.8 -0.3,-0.3 -0.8,-0.3 -0.8,-1.2 0,-0.7 0.9,-1.1 1.5,-0.8 z"
       id="path78"
       inkscape:connector-curvature="0" />
    <path
       d="m 474.8,147.2 c -0.2,-0.1 -1.1,-0.1 -1,-0.7 0.1,-0.6 0.4,-0.6 0.7,-0.8 1.8,-1.1 3.6,-2.2 5.4,-3.3 0.7,-0.4 1.4,-0.9 2,0.1 0.6,0.9 0.1,1.8 -0.6,2.2 -1.9,1 -4,1.7 -6,2.5 0,0 -0.1,0 -0.5,0 z"
       id="path80"
       inkscape:connector-curvature="0" />
    <path
       d="m 196.9,332.3 c -0.8,0 -1.5,-1 -1.1,-1.7 3.1,-4.8 6.3,-9.6 9.4,-14.4 0.1,-0.2 0.3,-0.5 0.5,-0.5 0.5,0 0.9,0.1 1.4,0.2 -0.1,0.5 0,1.1 -0.3,1.5 -0.8,1.1 -1.8,2.1 -2.6,3.3 -1.6,2.5 -3.1,5 -4.6,7.6 -0.3,0.6 -0.4,1.3 -0.5,1.9 -0.2,1.1 -1.3,2.1 -2.2,2.1 z"
       id="path82"
       inkscape:connector-curvature="0" />
    <path
       d="m 200.2,338 c -0.5,-0.5 -0.9,-0.8 -0.9,-1.1 0,-0.7 0,-1.4 0.4,-2 0.7,-1.2 1.7,-2.2 2.4,-3.4 1.4,-2.2 2.6,-4.4 3.9,-6.6 0.2,-0.4 0.4,-0.9 0.8,-1.1 0.4,-0.2 1,-0.2 1.4,0 0.2,0.1 0.3,0.7 0.4,1.1 0,0.3 -0.2,0.6 -0.4,0.9 -1.7,2.6 -3.5,5.2 -5.2,7.8 -0.4,0.6 -0.5,1.5 -1,2.1 -0.5,0.7 -1.1,1.4 -1.8,2.3 z"
       id="path84"
       inkscape:connector-curvature="0" />
    <path
       d="m 211.2,334.3 c -0.5,0.6 -0.7,1 -1,1.3 -1.6,2.2 -3.3,4.3 -4.9,6.6 -0.5,0.7 -0.7,1.5 -1,2.3 -0.2,0.4 -0.3,0.9 -0.6,1.2 -0.6,0.5 -1.4,1.1 -2,0.3 -0.3,-0.5 -0.4,-1.7 0,-2.1 2.7,-2.8 4.5,-6.2 6.6,-9.4 0.3,-0.5 1,-0.9 1.5,-0.9 0.4,-0.1 0.8,0.4 1.4,0.7 z"
       id="path86"
       inkscape:connector-curvature="0" />
    <path
       d="m 262.8,223.2 c 0,2 0.5,7.7 0.7,8.2 0.4,-0.3 4.8,-8.4 6.6,-11.2 1.5,-2.4 3.1,-4.8 4.7,-7.2 0.2,-0.4 0.8,-0.8 1.2,-0.8 1.4,0.1 2.8,0.3 4.1,0.6 1.5,0.4 1.9,1.6 1.3,3.1 -1.8,3.9 -9.8,19.6 -11.9,23.6 -0.7,1.4 -1.4,2.9 -1.9,4.5 -0.2,0.6 0,1.4 0.2,2.1 0.3,0.9 0.1,1.5 -0.9,1.8 -1.9,0.5 -3.9,1.1 -5.8,1.7 -0.7,0.2 -1.3,0 -1.6,-0.8 -0.4,-1.1 -0.9,-2.3 -1.2,-3.4 -1.2,-4.3 -2.3,-8.6 -3.5,-12.9 -0.4,-1.6 -1,-3.1 -1.5,-4.6 -0.1,-0.4 -0.4,-1 -0.2,-1.3 0.4,-3 1.5,-10 1.7,-10.4 0.4,-1.1 1.2,-1.3 2,-0.4 1.1,1.2 2.1,2.5 3.2,3.7 0.8,0.9 1.6,1.8 2.4,2.8 0,0.3 0.2,0.7 0.4,0.9 z m 1.2,11.4 c 0.6,2 1.2,4.1 1.8,6.1 0.1,0.3 0.4,0.5 0.5,0.8 0.3,-0.3 0.7,-0.5 0.8,-0.8 0.4,-0.9 0.6,-1.8 1.1,-2.7 2.1,-4.2 5,-7.9 6.7,-12.3 1.2,-3.2 2.8,-6.3 4.2,-9.5 0.1,-0.3 0.3,-0.8 0.2,-1 -0.7,-1.3 -3,-1.1 -3.8,0.1 -1.6,2.5 -3.2,4.9 -4.8,7.4 -0.5,0.8 -0.9,1.5 -1.4,2.3 -1.6,2.8 -3.2,5.6 -4.8,8.5 -0.2,0.3 -0.3,0.7 -0.5,1.1 z m 1,11.6 c 0,0 -1.1,-3.5 -1.3,-4.2 -1.5,-4.9 -2.2,-9.1 -2.8,-14.1 -0.1,-1.1 0.1,-2.5 -0.8,-2.6 -0.9,-0.1 -3.3,1 -3.7,1.2 -1.6,0.5 -1.2,1.2 -0.7,2.9 0.3,0.9 0.6,1.8 0.8,2.7 0.9,3.2 1.7,6.4 2.6,9.5 0.4,1.4 0.6,4.1 1.1,5.4 0.4,1 1.7,-0.1 2.6,-0.2 1,-0.2 2.2,-0.6 2.2,-0.6 z m -9.6,-24 c 0,0.5 -0.2,2.3 -0.1,2.5 0.7,-0.4 3.8,-1.1 4.4,-1.6 0.1,-0.1 -0.9,-1.6 -1.2,-2 -0.5,-0.6 -2.1,-3.2 -2.6,-3.1 -0.5,0.1 -0.5,4.2 -0.5,4.2 z"
       id="path88"
       inkscape:connector-curvature="0" />
    <path
       d="m 254,154.4 c -0.4,0.7 -1.2,1.6 -1.6,2.3 0.7,0.3 1.9,0.5 2.6,0.9 0.7,0.3 1.3,0.6 2,0.8 1,0.4 1.1,1.1 0.8,1.9 -0.3,0.9 -1,0.5 -1.7,0.3 -1.4,-0.5 -2.7,-1 -4.1,-1.5 -1,-0.3 -1.3,0.2 -0.9,1 0.3,0.8 0.8,1.6 1.2,2.4 0.3,0.6 1.1,1.2 0.1,1.8 -0.8,0.5 -2,0 -2.4,-0.8 -0.5,-1.2 -1,-2.4 -1.4,-3.6 -0.8,-2 -1.5,-4.1 -2.3,-6.1 -0.4,-1.1 -0.2,-1.9 0.8,-2.4 1.5,-0.8 3.6,-1.8 4.5,-2.1 0.9,-0.3 3.4,3.1 2.4,5.1 z m -1.8,-0.8 c 0,-0.2 -0.7,-1.6 -1.2,-1.7 -0.9,-0.1 -2.6,1 -2.6,1 0,0 0.8,2.4 1.7,2.2 0.8,0 1.4,-0.9 2.1,-1.5 z"
       id="path90"
       inkscape:connector-curvature="0" />
    <path
       d="m 231.8,162.2 c 0.1,-2.1 2.9,-5.7 4.9,-6.1 0.4,-0.1 1.1,0.4 1.4,0.8 0.1,0.2 -0.3,0.9 -0.6,1.3 -0.2,0.2 -0.6,0.2 -0.9,0.4 -1.8,0.9 -2.9,2.8 -2.6,4.5 0.4,2.2 2.2,4.1 4.2,4.3 0.8,0.1 3.5,-1.7 3.4,-2.5 -0.1,-0.6 -0.6,-1.2 -1,-1.7 -0.4,-0.6 -1.4,-1.1 -1.3,-1.6 0.1,-0.9 3.1,-2.1 3.7,-2.1 0.5,0 1.2,0.6 1.4,0.9 0.2,0.4 -1,0.9 -1.4,1 -1.6,0.2 0.6,1.5 0.7,2.2 0.1,0.7 0,1.4 -0.2,2.1 -1,3 -4.1,4.6 -7.2,3.8 -0.4,-0.1 -0.9,-0.3 -1.2,-0.5 -1.4,-1.2 -3.4,-4.6 -3.3,-6.8 z"
       id="path92"
       inkscape:connector-curvature="0" />
    <path
       d="m 296.8,145.9 c -0.2,0.3 -1.8,1.4 -2.1,1 -1.1,-1.8 -2.8,-5.5 -3.8,-7.4 -0.5,-0.9 -1.1,-1.7 -1.4,-2.6 -0.2,-0.4 1.4,-1.4 1.6,-1.1 0.6,0.7 1.2,1.5 1.6,2.4 0.5,1 1,0.9 1.6,0.2 0.8,-0.9 1.6,-1.9 2.4,-2.8 0.5,-0.5 0.9,-1.1 1.5,-1.5 0.3,-0.3 1.6,0.8 1.4,1.3 -0.2,0.5 -0.7,0.8 -1.1,1.2 -0.7,0.8 -1.3,1.5 -2,2.3 -1.2,1.5 -1.2,1.5 0.7,1.9 1.4,0.3 2.8,0.4 4.1,0.7 1.2,0.2 0.5,2.5 -0.3,2.4 -1.2,-0.2 -4.3,-0.5 -5.5,-0.8 -0.8,-0.3 0.8,1.3 1.3,2.8 z"
       id="path94"
       inkscape:connector-curvature="0" />
    <path
       d="m 260.2,156.6 c 0.2,-1.8 0.5,-3.5 0.7,-5.3 0.1,-1.2 0,-2.3 0.1,-3.5 0.1,-0.6 -0.2,-1.8 0.8,-1.9 2.2,0 4.4,4.3 5.6,5.9 0.5,0.7 0.9,1.6 1.6,2.2 0.6,0.5 0.8,1 0.3,1.6 -0.5,0.7 -1.1,0.8 -1.7,0.3 -0.6,-0.5 -1.1,-1.2 -1.8,-1.8 -0.4,-0.4 -1.1,-1 -1.4,-0.8 -0.8,0.3 -1.6,0.9 -2,1.5 -0.4,0.8 0.6,4.1 -1.1,4.2 -1.6,0.2 -1,-2 -1.1,-2.4 z m 2.7,-4.9 c 0.3,-0.3 1.5,-0.3 1.6,-0.5 0,-0.2 -1.7,-2.9 -1.8,-2.7 -0.1,0.1 0,2.9 0.2,3.2 z"
       id="path96"
       inkscape:connector-curvature="0" />
    <path
       d="m 277.7,140 c 0.3,0.3 0.4,1.1 0.5,1.5 0,0.3 -3.5,1.8 -4.8,2.4 -0.1,0.1 0.7,1.7 0.9,1.6 0.7,-0.2 1.7,-0.8 2.4,-0.9 0.6,-0.1 1,1.1 0.8,1.5 -0.2,0.3 -0.5,0.4 -0.8,0.6 -1.7,1.2 -1.7,1.2 -0.8,3.2 0.1,0.2 0.7,1.5 0.7,1.6 -0.2,0.7 -1.5,1.8 -2,0.9 -1.2,-2.2 -2.7,-5.7 -3.9,-7.9 -0.3,-0.6 -0.5,-1.3 0.3,-1.7 1.8,-0.9 3.6,-1.7 5.5,-2.5 0.3,-0.1 0.6,-0.2 1.2,-0.3 z"
       id="path98"
       inkscape:connector-curvature="0" />
    <path
       d="m 283.7,138.2 c 0.9,-0.2 2.1,3.2 2.6,4.4 0.6,1.4 1.1,2.8 1.7,4.1 0.3,0.8 0.4,1.4 -0.3,1.9 -0.8,0.6 -1.2,-0.1 -1.7,-0.6 -0.2,-0.2 -0.4,-0.5 -0.5,-0.9 -0.9,-2.5 -1.7,-4.9 -2.6,-7.4 -0.2,-0.6 -0.1,-1.3 0.8,-1.5 z"
       id="path100"
       inkscape:connector-curvature="0" />
    <path
       d="m 666.4,140.8 c -1,-0.2 -1.7,-0.4 -2.4,-0.6 -1,-0.4 -1.3,0.2 -1.6,0.9 -0.3,0.8 -0.1,1.1 0.7,1.4 0.5,0.2 1,0.7 1.2,1.2 0.4,0.8 -0.1,1.4 -1,1.4 -0.6,0 -1.2,-0.3 -1.8,-0.3 -0.5,0 -1,0.2 -1.5,0.4 0.2,0.5 0.2,1.2 0.5,1.4 1,0.7 2.1,1.4 3.2,1.9 0.7,0.3 1.6,0.4 1.4,1.5 -0.2,1 -1.3,1.5 -2.3,1 -1.9,-0.9 -3.7,-1.9 -5.4,-3 -1,-0.6 -1.2,-1.6 -0.7,-2.8 1.2,-2.4 2.3,-4.8 3.5,-7.2 0.7,-1.5 1.4,-1.8 2.9,-1.2 1.2,0.5 2.4,1.1 3.6,1.8 0.4,0.2 0.7,0.9 0.6,1.3 0.1,0.4 -0.6,0.7 -0.9,0.9 z"
       id="path102"
       inkscape:connector-curvature="0" />
    <path
       d="m 655.9,138 c -0.5,1.9 -1.8,3.7 -3.8,4.8 -2.3,1.2 -5.1,0.7 -6.8,-1.3 -0.3,-0.4 -0.5,-1.2 -0.4,-1.7 0.8,-2.3 1.7,-4.6 2.7,-6.8 0.2,-0.4 0.8,-0.8 1.3,-0.9 3.4,-0.8 6.9,2.1 7,5.9 z m -7.1,0.6 c -0.3,1.2 -0.1,2.1 1.3,2.3 1.2,0.1 3,-1.3 3.3,-2.5 0.3,-1.3 -0.5,-2.8 -1.9,-3.3 -0.4,-0.1 -1.1,0 -1.4,0.3 -1.1,0.8 -1.5,1.9 -1.3,3.2 z"
       id="path104"
       inkscape:connector-curvature="0" />
    <path
       d="m 678.6,148.7 c 0,0.2 -0.1,0.3 0,0.5 0.7,3.2 -0.8,4.8 -3.9,6.1 -1.8,0.7 -3.2,0.4 -4.5,-1 -1.1,-1.2 -1.2,-3 -0.5,-4.5 0.9,-2.1 2.6,-3.4 4.4,-4.6 1.5,-1 4.1,0.3 4.5,2.1 0.1,0.4 0.1,0.9 0,1.4 0.1,0 0.1,0 0,0 z m -1.9,1.2 c -0.3,-0.7 -0.5,-1.8 -0.9,-1.9 -0.8,-0.1 -1.9,0.1 -2.6,0.6 -0.7,0.5 -1.3,1.4 -1.5,2.2 -0.4,1.3 0.8,2.5 2.2,2.4 1.6,-0.1 2.8,-1.5 2.8,-3.3 z"
       id="path106"
       inkscape:connector-curvature="0" />
    <path
       d="m 633,123.7 v 5.2 c 0,0.8 0.3,0.9 0.9,0.4 0.8,-0.8 1.6,-1.6 2.3,-2.4 1,-1.2 1.8,-1.5 2.8,-0.8 0.7,0.5 0.9,1 0.3,1.6 -0.1,0.1 -0.1,0.2 -0.2,0.2 -2.6,1.5 -4.3,3.9 -6.4,5.9 -0.4,0.4 -1.3,0.5 -1.8,0.3 -0.3,-0.1 -0.6,-1 -0.5,-1.5 0.3,-3.4 1.1,-6.7 0.2,-10.1 -0.1,-0.3 -0.1,-0.8 0.1,-1 0.3,-0.5 0.8,-1 1.3,-1.1 0.3,-0.1 1,0.5 1.2,0.9 0.3,0.7 0.2,1.5 0.3,2.3 -0.3,0.1 -0.4,0.1 -0.5,0.1 z"
       id="path108"
       inkscape:connector-curvature="0" />
    <path
       d="m 639,136.8 c 0.3,-1 0.6,-1.6 0.7,-2.3 0.5,-1.7 0.9,-3.4 1.4,-5.2 0.1,-0.2 0,-0.6 0.1,-0.6 0.5,-0.3 1,-0.6 1.6,-0.6 0.2,0 0.7,0.8 0.7,1.2 -0.2,1.4 -0.6,2.7 -0.9,4.1 -0.2,1.1 -0.5,2.2 -0.6,3.2 -0.1,1.1 -0.9,1.3 -1.6,1.2 -0.6,0 -1,-0.6 -1.4,-1 z"
       id="path110"
       inkscape:connector-curvature="0" />
    <path
       d="m 413.7,73.1 c 0.3,0.8 -0.9,1.2 -1.5,1.4 -0.4,0.1 -0.2,0 -1,-1.4 -0.8,-1.4 -0.7,-2.3 -1.9,-2.3 -1.3,0 -2.8,0 -3.8,1.4 -0.4,0.5 -0.7,1 -1.1,1.5 -0.5,0.7 -1.1,1 -1.8,0.3 -0.6,-0.6 -0.4,-1.1 0.1,-1.7 0.4,-0.4 0.6,-1.1 1,-1.6 0.5,-0.7 4.2,-7.6 5,-7.7 0.9,-0.2 1.1,0.3 1.4,1 0.6,2.1 1.3,4.1 2,6.2 0.2,0.6 0.6,1.2 0.9,1.8 0.3,0.3 0.4,0.4 0.7,1.1 z m -4.9,-6.8 c -0.3,0.5 -1,2.2 -1.1,2.5 0,0.2 1.8,0.2 1.9,-0.1 0.1,-0.1 -0.5,-1.7 -0.8,-2.4 z"
       id="path112"
       inkscape:connector-curvature="0" />
    <path
       d="m 424.7,66.2 c -0.2,-1.8 0,-2 1.8,-2 1.2,0 2.3,-0.4 3.5,-0.2 1.9,0.2 3.2,1.1 3.3,3.4 v 0.5 c -0.2,4.2 -2.3,6.2 -6.5,6 -1,0 -1.7,-0.8 -1.6,-1.9 -0.1,-0.5 -0.3,-4.4 -0.5,-5.8 z m 2.3,5 c 0,0 2.5,-0.1 3.2,-0.5 1,-0.6 1.3,-3.9 0.5,-4.4 -1.5,-1 -2.9,0 -3.9,0.2 -0.3,0 0.2,4.7 0.2,4.7 z"
       id="path114"
       inkscape:connector-curvature="0" />
    <path
       d="m 443.5,66.6 c 1.7,-3.4 3.9,-3.4 6.8,-2 0.6,0.3 1.2,1.6 1.1,2.4 -0.2,1.4 -0.1,4.4 -1.4,5.8 -1.3,1.4 -4.1,1.9 -6,0.6 -0.4,-0.3 -0.8,-0.8 -0.9,-1.3 -0.2,-0.9 -0.5,-3.8 0.4,-5.5 z m 2.4,4.9 c 0.7,0.5 2,-0.3 2.9,-1.6 0.9,-1.4 1,-2.6 0.3,-3.2 -1.3,-1.1 -3.3,-0.6 -3.8,1 -0.1,0.6 -0.6,2.9 0.6,3.8 z"
       id="path116"
       inkscape:connector-curvature="0" />
    <path
       d="m 420.5,65.1 c 0.1,-0.4 0.4,-0.9 0.8,-0.9 0.4,0 1,0.7 1,1 -0.2,2.3 -0.7,8.2 -0.9,8.4 -0.7,0.5 -1.7,0.5 -2.4,0.6 -0.5,0 -1.3,-0.8 -1.5,-1.5 -0.5,-1.5 -0.7,-3 -0.9,-4.6 -0.1,-0.9 -0.2,-1.8 -0.2,-2.7 0,-0.9 0.4,-1.4 1.3,-1.4 1,0 0.7,0.7 0.6,1.6 -0.1,1.3 0.4,2.6 0.5,3.9 0,0.5 0.3,2.2 1,2.2 0.6,0 0.3,-1.6 0.4,-2.1 0.1,-0.6 0,-2 0,-2 0,-0.1 0.2,-1.7 0.3,-2.5 z"
       id="path118"
       inkscape:connector-curvature="0" />
    <path
       d="m 436.3,66.7 c -0.1,-0.3 -0.2,-1.2 -0.1,-1.5 0.2,-0.5 0.4,-0.6 0.8,-0.8 0.3,-0.1 1.2,0.5 1.3,0.9 0.4,2.1 0.7,4.2 1,6.3 0.1,0.8 0,1.7 -1,1.8 -1,0 -1.4,-0.7 -1.4,-1.7 0,-0.3 -0.3,-3.7 -0.6,-5 z"
       id="path120"
       inkscape:connector-curvature="0" />
    <path
       d="m 149,251.2 c -0.4,0.5 -1.2,0.9 -1.7,1.4 -0.6,0.6 1.9,3.8 3.1,2.8 0.3,-0.2 2.1,-1.8 2.4,-1.7 0.2,0.1 0.3,0.5 0.4,0.7 v 0.4 c -1.5,1.4 -1.9,2.1 -3.1,2.6 -0.9,0.4 -1.9,-0.2 -2.5,-1 -0.6,-0.8 -1.3,-1.5 -1.9,-2.3 -1.2,-1.7 -2.4,-3.3 -4.2,-4.5 -0.8,-0.6 -0.6,-1.1 0.1,-1.6 1.2,-0.7 2.9,-1.7 3.6,-2.2 0.6,-0.4 1.5,1 1.3,1.2 -0.4,0.4 -1.5,0.6 -1.9,1 -0.9,0.6 -1.1,1.2 -0.4,2 0.6,0.7 1.1,1.6 1.6,1.7 0.6,0.1 1.3,-0.7 1.8,-1.2 0.9,-0.8 1.8,0.2 1.4,0.7 z"
       id="path122"
       inkscape:connector-curvature="0" />
    <path
       d="m 141.9,266 c -0.6,-0.1 -3.7,-4.1 -4.8,-6 -0.5,-0.9 -0.9,-2.5 -2.4,-1.4 -0.5,0.4 -1.2,1.6 -1.9,1.7 -0.4,0.1 -0.7,-0.1 -0.9,-0.4 -0.2,-0.3 -0.2,-1.1 0,-1.3 1.1,-1 2.2,-2 3.4,-2.9 1,-0.8 2.1,-1.5 3.2,-2 0.5,-0.3 1.4,-0.4 1.7,-0.2 0.7,0.4 0.3,1.1 -0.1,1.7 -0.7,0.9 -2.4,1 -2.4,1.9 0,0.9 1.7,2.7 2.4,3.5 0.7,0.8 2.9,2.7 3.5,3.5 0.6,0.7 -1.5,1.9 -1.7,1.9 z"
       id="path124"
       inkscape:connector-curvature="0" />
    <path
       d="m 157.2,248.5 c 0,0.4 0.2,1.9 0.1,2.2 -0.2,0.5 -1.6,0.6 -1.8,0.2 -0.2,-0.4 -0.2,-2 -0.3,-2.5 -0.2,-2.7 -0.8,-3.3 -3.5,-3.8 -0.6,-0.1 -1.3,-0.4 -1.8,-0.7 -0.3,-0.2 0.1,-1.5 0.5,-1.5 0.9,0 1.8,0.1 2.6,0.3 1.4,0.4 1.7,0.1 1.5,-1.3 -0.1,-0.5 -0.5,-2.2 -0.5,-2.7 0,-0.5 1.6,-1 1.8,-0.5 0.3,0.6 0.3,2.4 0.2,3.1 -0.2,2.7 1.2,3.3 3.3,3.6 0.8,0.1 1,0.2 1.9,0.4 1,0.1 0.6,1.7 0,1.9 -0.7,0.2 -1.3,-0.2 -2.5,-0.5 -1.8,-0.8 -1.7,-0.3 -1.5,1.8 z"
       id="path126"
       inkscape:connector-curvature="0" />
    <path
       d="m 160.4,233.6 c -0.8,0.4 -1.5,0.8 -2.2,1 -0.6,0.2 -1.3,0.3 -1.9,0.1 -0.6,-0.2 -0.8,-0.8 -0.1,-1.3 2.2,-1.4 4.4,-2.9 6.6,-4.3 0.3,-0.2 0.7,-0.4 1.1,-0.4 0.3,0 0.6,0.2 0.8,0.4 0.1,0.1 0,0.5 -0.1,0.8 0,0.1 -0.1,0.2 -0.2,0.3 -0.7,0.9 -1.9,1.7 -1.9,2.6 -0.1,0.8 1,1.8 1.6,2.6 0.8,1.1 1.8,2.1 2.6,3.3 0.3,0.5 0.6,1.1 0.5,1.7 0,0.3 -0.8,0.8 -1.1,0.7 -0.5,-0.2 -0.9,-0.7 -1.2,-1.1 -1.1,-1.7 -2.1,-3.4 -3.1,-5.1 -0.5,-0.6 -1,-0.9 -1.4,-1.3 z"
       id="path128"
       inkscape:connector-curvature="0" />
  </g>
  <path
     d="m 450.4,166 c 0,1.5 0.7,2.1 2,1.8 3.1,-1 6.3,-1.7 9.5,-2 3.7,-0.4 7.4,-1 11.1,-1.6 0.6,-0.1 1.4,-0.4 1.6,-0.9 0.2,-0.4 -0.1,-1.3 -0.5,-1.8 -3.7,-5.9 -8.4,-11.1 -12.8,-16.5 -0.9,-1.1 -1.8,-1.2 -2.6,0 -0.7,1 -1.1,2.2 -1.6,3.3 -2.5,5.3 -4.8,10.6 -6.4,16.2 -0.1,0.5 -0.3,1.1 -0.3,1.5 z"
     id="path132"
     inkscape:connector-curvature="0"
     style="fill:none" />
  <path
     d="m 206.7,417.8 c -2.5,-0.9 -4.7,-1.7 -6.8,-2.5 -1,-0.4 -2,-0.8 -2.9,-1.2 -1.2,-0.6 -1.2,-0.7 -0.2,-1.5 0.7,-0.5 1.4,-0.9 2,-1.5 1.1,-1 1.1,-1.6 0.5,-2.9 -0.6,-1.1 -0.9,-2.3 -1.3,-3.4 -0.3,-0.7 -0.4,-1.5 -0.8,-2.2 -0.5,-0.8 -0.3,-1.3 0.5,-1.5 1.8,-0.5 3.6,-1 5.4,-1.4 0.8,-0.2 1.3,0.3 1.5,1 0.3,1.1 0.5,2.2 0.7,3.3 0.2,0.7 0.3,1.4 0.6,2.1 0.3,0.9 0.8,1.4 1.9,1.2 0.8,-0.2 1.6,-0.3 2.5,-0.5 0.5,-0.1 1,0 1.4,0 0,0.4 0.1,0.9 0,1.2 -0.6,1.5 -1.4,3 -2,4.6 -0.6,1.4 -1.2,2.9 -1.8,4.3 -0.5,0.4 -1,0.7 -1.2,0.9 z"
     id="path134"
     inkscape:connector-curvature="0"
     style="fill:none" />
  <path
     d="m 216.6,425.4 c -0.4,0.3 -0.8,1 -1.4,1.2 -3.5,1.7 -6.9,3.3 -10.4,4.9 -1.7,0.8 -3.3,1.6 -4.9,2.4 -0.6,0.3 -1.1,0.4 -1.4,-0.3 -0.5,-1.1 -1,-2.1 -1.4,-3.2 -0.1,-0.2 0.4,-0.9 0.8,-1 1.1,-0.4 2.2,-0.5 3.2,-0.9 3.7,-1.2 7.4,-2.6 11.1,-3.8 1,-0.3 2,-0.6 3.1,-0.8 0.9,-0.2 1.2,0.3 1.3,1.5 z"
     id="path136"
     inkscape:connector-curvature="0"
     style="fill:none" />
  <path
     d="m 525.9,81.4 c -0.3,-1.3 0.2,-2.4 1.1,-3.3 0.3,-0.3 1,-0.5 1.4,-0.3 1.4,0.5 2.2,2 1.9,3.3 -0.3,1.2 -2.1,2.6 -3.3,2.5 -1.2,-0.1 -1.4,-1 -1.1,-2.2 z"
     id="path138"
     inkscape:connector-curvature="0"
     style="fill:none" />
  <path
     d="m 553.8,92.7 c -0.1,1.8 -1.2,3.2 -2.9,3.3 -1.4,0.1 -2.6,-1.1 -2.2,-2.4 0.2,-0.8 0.8,-1.8 1.5,-2.2 0.7,-0.5 1.8,-0.7 2.6,-0.6 0.5,0.1 0.7,1.2 1,1.9 z"
     id="path140"
     inkscape:connector-curvature="0"
     style="fill:none" />
  <path
     d="m 450.4,166 c 0.1,-0.4 0.2,-1 0.4,-1.6 1.7,-5.6 3.9,-10.9 6.4,-16.2 0.5,-1.1 0.9,-2.3 1.6,-3.3 0.8,-1.2 1.7,-1.1 2.6,0 4.4,5.4 9.1,10.6 12.8,16.5 0.3,0.5 0.7,1.3 0.5,1.8 -0.2,0.5 -1,0.8 -1.6,0.9 -3.7,0.6 -7.4,1.2 -11.1,1.6 -3.2,0.4 -6.4,1 -9.5,2 -1.4,0.4 -2.1,-0.2 -2.1,-1.7 z m 8.2,-2.2 c 3.5,-0.6 7,-1.2 10.6,-1.7 0.2,0 0.3,-0.1 0.5,-0.1 0.7,-0.2 1,-0.3 0.4,-1.1 -1.2,-1.6 -2.3,-3.4 -3.6,-5.1 -1.8,-2.4 -3.7,-4.7 -5.6,-6.9 -0.9,-1 -1.6,-0.9 -2,0.3 -1.7,4.2 -3.4,8.4 -5,12.6 -0.2,0.6 -0.8,2.1 -0.5,2.7 0.2,0.5 2.2,-0.2 5.2,-0.7 z"
     id="path142"
     inkscape:connector-curvature="0"
     style="fill-rule:evenodd" />
</svg>
