<?xml version='1.0' encoding='utf-8'?>
<svg xmlns="http://www.w3.org/2000/svg" viewBox="0 0 841.9 595.3"><path d="m251.7 187.1 11.7 1.4 1.5 15.8 24.3-16 31.7 2.5 1.4-63-72.5 3.4z" fill="#7bc290" fill-rule="evenodd"/><path d="m418.1 180.7 2.2 48.6 12.5 2.4 1.8 8.8 16.5-12.2 35.2-3.4-3.3-42.9z" fill="#75c5bf" fill-rule="evenodd"/><path d="m376.9 130.8 26.3-1.4.9 24.1 25.9.4-.7 21.4-10.6 2.4.1 10.3-11.4 1.2-14.7 10.9-.6-10.7-17.4 2.1 2.3-62.3" fill="#75c5bf" fill-rule="evenodd"/><path d="m405.5 84.6-1 63.2 35.7 2.9 10 8.9 2.8-11.3 15.2-3.5 4.3-60.2z" fill="#75c5bf" fill-rule="evenodd"/><path d="m524.5 207.1 55.7-2.5 3.3 50.5-5.6-.5-4.2 18-15-15-32.8 3.5z" fill="#f0e400" fill-rule="evenodd"/><path d="m580.5 134.1 1 64 5 1 1 10 9 1 1.5 16.5 12-14 58.5-4.5-.5-75.5z" fill="#f0e400" fill-rule="evenodd"/><path d="m346.8 334.6c0-.1-.2-.3-.3-.4 0 0-.2.1-.3.2s-.1.2-.2.3c-3.6 6.9-5.8 14.1-5.4 21.9.1 1.4.3 2.9.3 4.3 0 1-.4 1.6-1.1 1.8-.8.3-1.5 0-1.7-.8-.3-1.1-.5-2.2-.5-3.4 0-7.8.9-15.8 4.3-22.8 1-2.2 4.8-8.1 4.7-9.3-.1-3.7-2.9-48.4-2.2-49.1.4-.4.7-.8 1.1-1.2.5-.4 6-1.6 8.2-1.9 4.3-.6 22-1.9 26.5-2.3 5-.4 39.5-2.5 40.7-2.5 2.2-.1 15.8-.4 20.5-.6 2.6-.1 5.3-.3 7.9-.4 1.4-.1 2.5.4 3.3 1.5 1.2 1.6 2.6 3 4.4 3.9 1.3.7 1.7 1.8 1.5 3.2-.2 1-.1 44.8-.3 46.5-.2 1.5.2 2.7 1.3 3.7 2.5 2.6 10.6 9.1 11.8 10 1.9 1.4 3.4 3.4 5.7 3.5.7 0 12.1-6.9 13.7-8 .3-.2.6-.3 1-.4 1.2-.4 2.5.2 2.8 1.3.2.5 0 1-.5 1.2-1.7 1-3.3 2.2-5.1 3-3.5 1.5-6.9 3.1-9.9 5.4 0 0-.1.1-.1.1-1.9 1.1-2.8 2-5.2-.5-.5-.5-10-7.7-14.1-11.1-.4-.3-.8-.5-1.2-.8-.1.5-.4 1-.4 1.5-.2 3.2 1 28.6 1.3 34.7.1 1.3.6 6.9.7 8.4.1 1.2 0 2.4 0 3.6 0 1.5-.2 1.8-1.7 1.9-.8.1-31.2 1.2-35.9 1.9-1.5.2-1.7.4-1.7 2-.1 4.8-.5 19.9-.6 21-.2 2.1 1.1 3.6 2.8 4.9.5.4 2 1.7 2.2 2.1.4.5 1 1.1.5 1.7-.4.5-1.8.7-2.3.3-.1-.1-.3-.2-.4-.3-1.7-1.4-3.4-2.9-5.1-4.3-.9-.7-1.2-1.7-.9-2.8.9-3.9 1.3-21.9 1.3-22.4 0-1.3-.1-1.4-1.3-1.4-.7 0-22.5 2.3-24.3 2.5-1.2.2-1.5.4-1.6 1.5-.4 3.6-1 13-1.2 14.1-.3 1.6.1 3 1.1 4.2 1.2 1.4 7.2 6.7 7.4 7.2.6 1-.1 2.1-1.3 2.1-.8 0-1.4-.4-1.9-.9-1.4-1.4-6.3-6.3-7.6-7-.7-.3-1.2-.9-1.7-1.6-.5-.8-.1-1.4.5-3.3s1.5-10.1 1.8-14.1c0-.3.1-.6 0-.9 0-.5-.3-.8-.8-.8-.7 0-24.4 2.1-25.6 2.2-2.7.1-4.8-1-6.1-3.4-1-1.7-6.9-8.3-7-10.1-.1-2.2-.2-4.4-.3-6.6-.2-5.2-1.4-33.7-1.5-34.2zm108.5-54.8c0-1.3-.1-1.5-1.4-1.5-2.8 0-5.5.1-8.3.2-3.1.1-6.1.4-9.2.4-10.1.1-20.2.2-30.2.8-3.5.2-29 2.4-33.2 2.7-2.6.2-13.7 1.1-16.6 1.4-1.3.1-1.4.4-1.4 1.8 0 4.7.3 19.3.4 21.8.3 5.7 2.8 68 3.2 74.4 0 .7.1 1.4.3 2.1.2 1.1.8 2.3 1.9 2.1 2.5.8 26.6-2 29.5-2.4 1.3-.2 20-2.2 23.1-2.5h.1c3.5-.4 25-1.9 30.5-2.2 2-.1 9.7-1.2 11.3-1 1.2.1 1.4-.1 1.4-1.4-.1-1.1-.3-2.1-.3-3.2-.1-4.3-1.3-33.9-1.4-37.2 0-3.7.1-7.3.2-11 .1-1.4.1-42.6.1-45.3zm-101.7 1.2c.7 0 1.3-.1 2-.1 3.9-.3 27.7-2.1 32.3-2.4 2.4-.2 14.8-1.1 18.7-1.4 4.1-.2 25.4-.8 31.8-1.1 4.1-.1 8.3-.3 12.4-.5.6 0 1.2-.2 1.8-.3.1 0 .2-.5.1-.5-1-.9-2.1-1.8-3.2-2.6-.3-.2-.8-.3-1.2-.2-1.3.4-7.3 0-9 0-1.5 0-20.6.4-28.6.6-2.7.1-13.8 1.1-16.7 1.3-4.9.3-9.8.6-14.7.8-2.6.1-15.8 1.1-19.9 1.4-2.6.2-5.2.6-7.8 1.2-.7.2-1.4.4-2.1.6-.6.2-.6.5-.2.9 1.2 1.4 2.3 2.7 4.3 2.3zm-1 6.5c0-1.2-3-4.4-3.8-5.2-.3-.3-1.5-1-1.5-.6 0 .3.3 7.8.6 11.3.6 9.6 1 29.9 1.1 30.4 0 .3.2.7.3 1 .3-.2.9-1.7 2.2-1.3 1.4.5 1.2 2.4.6 3.1-.5.5-1 1-1.6 1.5-1.2 1.1-1.6 2.4-1.4 4 .3 2.6.7 16.7.9 21.2.1 2.5 1.5 16.3 1.5 20.8 0 1.9.7 3.5 2 4.9.5.5 1.5 1.7 2.4 1.7.1-.7-1.9-50.3-2.1-58.1-.4-7.3-1.2-30.5-1.2-34.7z" fill-rule="evenodd"/><path d="m473.4 143.8c-.1 1.3 0 2.6-1 3.5-.3.3-13.8 2-14.2 2.1-1.2.3-1.5.6-1.6 1.8-.1 2-1 9.1-2.3 10-.5.4-1.1.5-1.7.1-2.5-1.9-9.7-7.8-10.9-8.7-.6-.5-6.5-1-8.6-1.1-1.2-.1-1.4.1-1.4 1.2-.1 4.1-.5 18.2-.6 21.2 0 1.2 0 1.2 1.2 1.2 7.9-.1 29.2-1 32-1.1 3.4-.2 6.8-.2 10.1-.4h.3c3.5-.1 11.7-.5 12.2-.4 1.7.1 1.9.4 1.9 2.1 0 1.3 0 2.6-.1 4-.1 5.5.4 47 .3 48.7-.1 1.5-.2 1.6-1.7 1.7-1.6.1-15.6.7-21 1.3-3.5.3-6.9.8-10.4.9-3.8.1-6.8 1.7-9.4 4.3-1.4 1.4-2.9 2.9-4.3 4.4-2.1 2.3-7 8-7.6 8.3-.9.5-1.7.1-2-.8-.3-.7-1.6-9.8-1.9-11.3-.1-.5-.3-1.1-.5-1.5-.5-1-1.3-1.6-2.4-1.6-1 0-6.7.6-8.6.2-1.4-.3-1.7-.5-1.7-2-.1-2.7-.2-5.4-.2-8.1 0-4 0-8.1 0-12.1 0-.1 0-.2 0-.3 0 0-.2-13.3-.4-20 0-1.7.1-2.4-2.1-2-.9.2-5.5.9-8.2 1.1-1.2.1-2.7 2.9-7.6 5.9-4.4 2.7-9.2 4.9-9.4 4.9-.7-.1-.8-.7-.9-1.2-.2-1.2-.5-4.3-.5-4.6-.4-3.5-.5-3.4-3.9-3.9-3-.4-12.1.7-13.6.8-.9.1-1-.1-1.1-1-.1-2.7 1.5-56.1 1.8-58.2.1-.7.2-3.4.7-4 .4-.6 29.4-1.4 30.1-1.5 1.4-.1 1.5-.2 1.6-1.6 0-.7.1-1.3.1-2 .1-3.5-.6-36.5-.1-40 .2-1.2.9-1.8 1.9-2.1.4-.1.9-.1 1.4-.1 3 0 6.1-.1 9.1-.1 4.7 0 36.5-.3 39.1-.2 2.3 0 18.6.6 20.6.7 1.1 0 1.4.2 1.5 1.4.1 1.8.2 3.7.1 5.6zm-65.9-59.3c-1 .1-1.2.4-1.4 1.4-.2 1.1-.4 2.3-.4 3.4 0 3.1.1 55.8.2 57.7.1 1.4.1 1.5 1.6 1.6 1.8.2 33.1 1 34.7 1.1.4 0 .8.2 1.1.4 1.2 1.1 6.8 6.2 8.4 7.6 1.4 1.2 1.5 1.1 2-.6.1-.3.1-8 .1-8.4 0-1.2.4-2.1 2.4-2.3s10.2-.3 13.1-1.3c.9-.3 1.4-.9 1.5-1.8.1-1.1 3.7-45.5 4.1-49.9.2-2 .1-4 0-5.9 0-.5.6-2.6.2-2.7-1.4-.6-66.3-.5-67.6-.3zm78.2 115.7c0-.7.3-14.8.4-21.2 0-1.5-.5-2.1-2-2.2-.4 0-.7 0-1.1 0-3.8 0-29.7 1-33.4 1.1-4.3.1-17.2.5-19.4.4-3.2-.1-6.3-.4-9.5-.7-1.4-.1-1.7 0-1.6 1.4.1 3 .8 33.9.8 36.3.1 4.9.2 9.7.3 14.6v.5c.1.7 8.1.1 9.9-.3 1.5-.3 3.8 9.7 4.5 13 .2 1 .5 1.1 1.3.4 2.7-2.7 12.1-12.5 13.3-13.6.6-.6 1.2-.7 2-.6.9.1 28.2-1.7 32.3-1.8h1.1c1.3-.2 1.8-.6 1.8-2-.2-1.5-.8-25.3-.7-25.3zm-107-68.9c-1.1.1-2.1.3-3.2.4-.6.1-1 .3-1.1 1-.3 2-.9 10.9-1.1 13.4-.3 5.3-1.4 38.6-1.5 41.4-.1 2.3-.3 3.1 2.7 2.6 4.5-.7 9.1-.4 13.6-.8 1.8-.2 2.2.6 2.2 2.4s.2 3.6.4 5.3c.1.8.3.9 1.1.5 2.7-1.3 11.2-6.8 12.5-8.4.8-.9 10.5-1.5 11.3-1.6.6 0 1-.3 1-1-.1-3-.1-6-.3-9-.1-1.7 0-2.1 1.6-2.3 2.3-.3 4.6-.7 7-.2.9.2 1.8.1 2.7.1 1.1 0 1.3-.2 1.2-1.3 0-1 0-9.9.1-13.3.1-2.5.2-4.9.3-7.4 0-1.5-.1-1.6-1.7-1.7-1.4 0-2.7 0-4.1 0-2.3 0-8.4.2-9.3.1-2.1-.2-7.8-.4-8.6-.3-1.7.1-2-.1-2.3-1.7-.2-1 0-8.9 0-11.8.1-2.3 0-4.6 0-6.8.2-.9-19.6-.1-24.5.4z" fill-rule="evenodd"/><path d="m630.1 348.6c0 2.8-.1 15.2-.1 18.7 0 6-.5 43-.4 43.8.2 1.5-.7 2.3-1.9 2.6-3.1 1.4-6.7 3.2-7.9 3.5-1.2.4-1.8.9-3.7.4-6.1-1.9-30.9-9.5-32.7-10-1.2-.3-1.3-.3-1.3.8 0 3.5.6 12.8.7 14 .3 3.5 1.1 13.4 1.3 14.8.3 1.9-.5 2.9-2.5 3.1-1.4.1-2.8.3-4.3.5-1.3.2-2-.3-1.8-1.5.1-.7.4-1.1 1.1-1.2 1-.2 2-.4 3-.5 1.6-.2 2.1-.7 2-2.4-.2-2.4-2.8-25.4-2.8-27.5 0-1.3-.6-1.9-1.8-2.3-5.9-1.9-11.9-3.8-17.8-5.8-.2-.1-.5-.1-.7-.2-.6-.1-1 .1-1 .7 0 1.6-.2 3.1-.1 4.7.2 4.1 1.7 20.6 1.9 21.4.1.6.3 1.3.3 1.9 0 1.1-.5 1.8-1.6 2.2-1.6.6-5.9 3.4-6.7 3.8-.9.5-1.8.2-2.1-.6-.3-.7-.1-1.5.8-1.9 1.5-.9 3-1.7 4.6-2.5 1.2-.6 1.9-1.5 1.9-2.9 0-4.3-.1-8.5-.5-12.7-.4-4-.5-8-.8-12 0 0-.1-.6 0-.9.2-1.7-.7-2.5-2.2-3.2-5.7-2.3-11.5-4.3-17.3-6-.7-.2-1.5-.4-2.3-.5-1.7-.4-1.7-.3-1.7-2.1 0-1.3 0-2.5 0-3.8-.3-13.1-.5-26.3-.3-39.4.1-3.8.3-7.7.5-11.5 0-.2-.6-.4-.7-.2-2.4 3.2-4.2 6.3-6.2 9.8-1.9 3.4-3.4 5.8-5.5 9.2-1 1.6-3.6 6-5.3 8.4-.3.5-1.2.1-1.8-.2-.5-.3-.6-.7-.6-1.2.1-.5.2-1.1.5-1.5 1.5-2.4 3-4.7 4.6-7.1 1.9-2.9 3.8-5.8 5.7-8.7 1.7-2.6 3.3-5.2 4.9-7.8 1.3-2 1.9-3.9 3.2-5.9.5-.7.9-3.4.9-4.2-.2-6.7-.6-20.4-.7-21.4-.1-.6-.8-3.9.5-4.7.2-.1 1.2-.7 1.4-.8 3.1-1.1 5.7-3.1 8.6-4.5.8-.4 1.6-.8 2.5-.3 5.3 2.8 34.3 11 43.1 13.6 4.4 1.3 30.7 9.6 36.7 11.3 1 .3 4.4 1.3 4.8 2.2.8 1.7 1.1 3.4 1.2 5.2.1 4.7.3 20.3.4 23.3zm-11.5-17.8c.3-2.3.1-2.7-2.1-3.4-.8-.3-35.7-11.6-39.1-12.7-5-1.6-19.7-6.1-22.2-6.7-2.1-.5-12-3.5-15.1-4-1.6-.3-3.2-.6-4.8-.9-1.1-.2-1.7-.5-1.8.6-.2 1.2 0 3 0 4.2.1 3.2.3 6.3.5 9.5.4 5.2-.2 68.1-.1 68.3.2 1.3.4 2.8 1.8 3.2 3.3 1.1 65.9 21.1 71.3 22.5 2.4.6 4.8 1.4 7.3 2 1.3.3 1.7 0 1.7-1.3 0-1.8 1.6-38.5 1.5-38.7-.2.1-.4.2-.6.3-.5.4-1 .9-1.4 1.3-.7.7-6.5 7.5-7 8.1-1.3 1.9-1.4 2-3.7 1.6-.1 0-.1 0-.2 0-3.1-.5-11-1.6-11.7-1.8-.9-.2-1.3-.9-1.1-1.8.1-.8.9-1.3 1.8-1.1 3.2.6 7.4 1.5 9.8 1.8s3.1-.3 4.3-1.8c3.3-4.1 6.3-7.8 9.6-11.9.7-.8 1.3-31.4 1.3-37.3zm9.4 34.5c.1-4.1 0-22 .2-26.8.1-1.6-.8-12.4-1-13.4s-.6-1.2-1.5-.8c-.8.3-1.5.7-2.2 1.2-1.3.8-2.3 1.9-2.4 3.4-.1 1.1-.1 2.2-.1 3.3-.2 3.9-.4 7.9-.5 11.9-.1 3.2 0 10.5-.1 12.3-.1 1.7-.2 5.9-.3 7.6 0 .2.1.3.1.5.1-.1.3-.1.4-.2.6-.8 1.2-1.5 1.7-2.3.3-.4.6-.9 1-1.3.7-.7 1.4-.7 1.9-.2s.5 1.2 0 1.9c-.3.4-5.6 6.5-5.6 7.4 0 1.3 0 2.5-.1 3.8-.2 5.6-1.9 36.9-1.5 39.6.1.9.3 1 1.2.7 2-.7 5.8-2.1 7.7-2.9 1.1-.3 1-40.8 1.1-45.7zm-9-40.2c.3-.1.7-.1 1-.3 1.2-.6 2.5-1.2 3.7-1.9.7-.4 1.4-.9 2.1-1.3-.8-.3-1.5-.7-2.3-.9-16.4-4.8-32.6-10.3-48.9-15.6-2.6-.8-5.2-1.7-7.9-2.4-3.5-.9-7.1-1.6-10.6-2.6-3.7-1.1-7.2-2.5-10.9-3.7-.7-.2-1.4-.6-2.1-.4-2.7.6-5.2 1.6-7.5 3.2-.5.4-.5.7 0 .9 1.4.5 2.8 1.1 4.2 1.4 2.5.5 5 .8 7.4 1.4 14.2 3.2 68.1 21.3 70.5 22 .4 0 .8.1 1.3.2z" fill-rule="evenodd"/><path d="m273.2 260.8c0 .4 14.8-13.3 15.4-15.9.6-2.7 2-15.3 2.2-18.7.1-2.4.7-4.6 1.5-6.8.1-.3.3-.7.5-1 .4-.5.9-.8 1.6-.5.6.2 1 .7 1 1.4 0 .4-.1.8-.2 1.2-1.3 4.6-3.5 27.2-4.1 27.9-1.6 1.8-3.1 3.6-4.9 5.3-3.4 3.2-6.8 6.4-10.3 9.5-1.8 1.6-2.6 3.5-2.4 5.9.5 7.8 1 28.8 1.1 31.5 0 1-.1 2-.1 3.1 0 .6-.4 1-1 1-.5 0-1 0-1.4 0-9.5.4-31.5.5-32.9.5-.4 0-.7 0-1.1 0-.7.1-.9.4-.7 1.1.5 1.7.9 3.5 1.6 5.2 2.7 7 5.9 13.8 10 20.1.5.8 1 1.6 1.4 2.5.7 1.4 1.7 2.5 3 3.2 1 .5 2 1 3.1 1.5 1 .5 1.8 1.2 2.4 2.1.3.5.1.8-.3 1-.7.5-1.5.4-2.2 0-1.3-.7-2.6-1.4-4-2.1-.6-.3-1.3-.6-2-.7-1.1-.2-1.9-.8-2.2-1.9-1-4.7-3.9-8.5-5.8-12.7-1.3-2.9-2.8-5.8-3.9-8.9-.9-2.5-2.2-4.9-3.3-7.4 0-.1-.1-.1-.1-.2-1.4-2.7-1.6-2.8-4.6-2.6-6.5.2-13.1.4-19.6.6-1.9.1-1.9.1-2.5 1.9-1.5 5-3 10.1-4.6 15.1-.5 1.5-.2 2.6.9 3.6 1.1 1.1 2.3 2.1 3.4 3.3.4.4.7.9 1 1.5.2.5.1 1.1-.3 1.5s-1 .5-1.5.3-.9-.6-1.3-.9c-.7-.6-1.3-1.3-1.9-1.9-.7-.7-1.4-1.3-2.3-1.6-1.6-.6-2.2-1.9-1.5-3.5 2.2-5.2 3.6-10.7 5.1-16.1.1-.5.3-1 .4-1.6.1-.8-.2-1.1-1-1.1-.2 0-15.7.4-16.7.6-1.6.3-3 .1-4.1-1.4-.8-1.1-1.9-1.9-2.9-2.9-.3-.4-.6-.9-.7-1.4-.1-.8-1.7-23.4-2.3-28.8-.3-2.5-.5-5-.7-7.5 0-.2-.3-.5-.4-.7-.2.1-5.9 7.8-8.5 11.6-2.1 3-3.9 6.2-5.8 9.3-1.4 2.2-2.8 4.3-4.3 6.4-.7.9-.8 1.1-1.9 2-.4.4-1.4.4-1.8 0s-.7-.9-.2-1.4c.1-.1.2-.3.3-.4 2.3-2.5 4-5.3 5.9-8.2 4-6.1 8-12.1 12-18.2.9-1.3 1.8-2.5 2.8-3.7 1.1-1.3 1.6-2.8 1.6-4.5 0-4.1-.1-8.3-.2-12.4-.1-3.1-.3-6.1-.5-9.2-.2-2.9-.5-5.7-.7-8.6 0-.1 0-.2 0-.4-.1-1.9.5-2.7 2.3-2.9 1.5-.2 3-.3 4.5-.4 7.8-.9 73.3-2.9 75.8-3.1.7-.1 1.3-.1 2-.1 1.7-.1 3.3-.2 5-.5.9-.1 1.6-.1 2.4.4 1.4.9 2.9 1.7 4.2 2.7 1.1.9 1.7 2 1.7 3.6-.6 5.3-.6 28.5-.4 34.4zm-2.2-15c-.1-5.7-.2-9.4-.2-15.1 0-2.7-.1-2.8-2.8-2.9-9.1-.3-31.3 1-33.4 1.1-5.2.3-46.8 2.7-49.3 3-1.1.2-1.2.3-1.2 1.4 0 2.8 3 61.7 3.2 68.8.1 2.3.1 2.3 2.3 2.3 5.8.1 37.8-.8 41.4-.9 3.8-.1 23-.6 28.8-.6 3.5 0 7-.2 10.4-.7 1.1-.2 1.2-.2 1.3-1.3.2-1 .3-2 .3-3-.1-7.6-.8-52.1-.8-52.1zm-92.8-5.3c.2 3.7.3 7.4.5 11.1 0 .7.1 1.3.2 2 0 .7.2.9 1 .8 1.1-.2 1.8.5 1.8 1.6 0 .4-.2.8-.4 1.2-.3.6-.7 1.1-1.1 1.6-.9 1.1-1.2 2.4-1.2 3.9.1 3.7.6 7.3 1 10.9.6 5.4 1.9 21.7 2.1 24.4.1 1.9.8 3.5 2.4 4.6.2.2.5.2.8.3.1-.3.3-.5.2-.8-.1-2.6-.1-5.3-.2-7.9-.1-2.7-2.5-50.1-3.3-58.5-.2-2.5-.9-4.7-2.4-6.6-.3-.4-.5-1.3-1.3-1-.3.1-.3.9-.3 1.4 0 3.6.1 7.3.2 11zm12.3-15.8c-2 0-8.3.8-9.5 1-.6.1-.4.5-.2.8.8.9 2 3.3 3.1 3.3 3.3-.2 6.4-.3 9.7-.5 6.8-.5 31.7-1.9 37.2-2.1 2-.1 30.4-1.8 34.8-1.8 3.5.1 5.5-.4 3.7-1.6-1.2-.8-4.4-2.2-6.1-1.7-.7.2-38.7 1.4-42.9 1.5-3.8-.1-26.1 1-29.8 1.1z" fill-rule="evenodd"/><path d="m585.1 233.3c0 4.2.6 21.5.5 21.9-.1 1.1-.3 1.3-1.4 1.4-.8.1-4.4.4-4.7 1.9-.3 1.6-1.9 12-2.4 15.6 0 .3-.1.6-.2.9-.3 1.3-.8 1.6-2 1.3-.6-.2-1.2-.6-1.7-1-3.4-3.5-7.3-6.4-11.3-9.2-.9-.6-4.9-3.9-6.4-4-.2 0-30.1 3.3-32.6 3.3-.8 0-1.7-.5-2.5-.9-.4-.2-.6-.9-.6-1.4-.1-1.5-1.1-52.1-1.2-55.7 0-2.3.2-2.5 2.5-2.6.8 0 1.7 0 2.5.2 3.3.8 42.8-2.9 48.2-2.8h3.4c.6 0 1-.2 1.1-.9.1-2 .8-52.7.7-56.3 0-1.3 0-4.7 0-5 .3-1.5.8-1.9 2.3-1.9 1.6 0 54.1-1.7 57.4-1.8 1.1 0 23.2-.5 24.4-.5.8 0 1.6-.1 2.3 0 2.4.1 2.4.1 2.6 2.5.5 4.9-.4 49.8-.6 54.9-.1 3.3.6 14.5.7 16.9 0 .9-.4 1.3-1.2 1.5-.4.1-31.4 3.5-34.6 3.6-1.8.1-14.4 1.9-17.1 2.2-1.1.2-2 .8-2.8 1.5-1.9 1.5-6.7 5.6-7.3 6.1-1.8 1.5-3.5 3-5.4 4.4-.7.5-1.6.8-2.4 1.1-.6.2-1-.1-1.2-.8-.1-.5-1.7-13.6-2.8-13.9-.3-.1-.6-.1-.9-.1-1.6 0-3.1 0-4.7 0-.7 0-1.1.3-1.2 1 0 .5-.1 1-.1 1.4.4 3.8.6 15.2.7 15.2zm79-91.8c0-.7-.2-1.4-.4-2.1-.2-.6-.6-.9-1.2-.9-1.2 0-73.3 1.4-75 1.7-2.2.3-4.4.5-6.6.7-1 .1-1.1.3-1.1 1.3-.1 2.3-.3 9.2-.3 10.4 0 1.1-.7 27.7-1 32.6-.1 1.7.1 13.9 0 15.9 0 .8.1.9 1 .9 1.7 0 3.4 0 5 .1.9 0 1.1.2 1.1 1.1 0 .4 0 .7-.1 1.1-.1 2.5-.3 5-.4 7.5-.1 1.5.1 1.7 1.6 1.6 2-.2 3.9-.4 5.9-.8 2.1-.4 2.6 0 2.8 2v.4c-.2 3.6.7 7.1.9 10.7 0 .8.2.9.9.6 1.2-.6 11.6-8.2 11.7-10.3 0-.7.5-1 1.2-1 1 0 6.9-.6 8.9-.9 2.7-.4 39.8-3.9 41.2-4 .8-.1 3.6-1.3 3.6-2.2 0-1.2.1-2.4 0-3.6-.6-5.8-.8-11.6-.3-17.4.1-.9-.4-26.3-.1-29.2.3-3.8.7-14.6.7-16.2zm-142.8 91.5c.1 3.3.2 8.6.4 14 .1 2.9.2 5.7.4 8.6.1 1.7.3 3.3.5 5 .1.8.5 1.5 1.4 1.6 1.6.1 3.2.4 4.8.2 6.3-.7 12.6-1.7 18.9-2.5 3.1-.4 6.3-.9 9.5-.9 1.2 0 1.9.4 2.7 1.3 1.4 1.5 2.9 3 4.5 4.4 2.8 2.3 5.8 4.5 8.7 6.7.5.4 1.1.6 1.6 1 .1-.6.1-1.2.2-1.8 0-.2.1-.5.1-.7.3-1.8.7-3.6 1-5.5.4-2.7.7-5.5 1-8.2.2-1.6.3-1.8 2-1.9h1.6c1.8-.1 2.1-.4 2.1-2.2-.1-5.3.1-10.6-.1-16-.4-7.7-.1-15.3-.1-23 0-1.9.2-3.8.2-5.7 0-1.6-.5-2.1-2.1-2.2-1-.1-2 0-3.1 0-4.9.1-39.4 2-42 2.5-4 .8-8.1 1.1-12.1.5-1.9-.3-2.1-.1-2.1 2z" fill-rule="evenodd"/><path d="m317.1 155.3c.2 4.3 1.6 30.9 1.7 32.6 0 .7-.2 1.2-.9 1.3-.7.2-1.2 0-1.9.1-1.4.2-27.1 1.1-29.7.8-1.5-.1-2.8.1-4 1.1-.4.4-1 .7-1.5.9-1.4.7-2.7 1.5-4.1 2.2-2.9 1.6-5.7 3.4-8.1 5.6-1.3 1.2-1.2 1.3-2.5 2.4-.8.6-1.5 2.3-2.7.8-.4-.5-.5-.9-.6-1.5-.3-2.1-.4-5.6-.8-7.7-.6-4.4-1.9-3.1-5-3.3-2.3-.1-4.7-.3-7 .1-.1 0-.1 0-.2 0-1.8 0-2.2.9-2.5-1.7-.1-1.2-2.5-48.6-2.5-51 0-1.2-.2-2.4 0-3.6.2-1.1.4-2.2 1.5-2.4.7-.1 54.5-1.1 59.1-1.2 1.8 0 3.7-.4 5.5-.5s3.6-.2 5.4-.2c.9 0 1 .7 1 1.6 0 .4 0 .8-.1 1.3-.2 5.1-.2 19.8-.1 22.3zm-67.2 30.6c.1 1.2.5 1.4 1.6 1.4h1.1c2.8-.1 5.6-.2 8.4-.2 2 0 2.3.3 2.5 2.2.3 2.1.5 4.2.8 6.2.1.8.2 1.5.3 2.3s.3.9.9.5c.4-.2.8-.6 1.2-.8 2.5-1.6 5-3.3 7.6-4.9 2.8-1.6 5.8-2.9 8.3-5 .9-.7 1.9-.9 3-.7 3.2.6 21 0 23.6.1 1.8.1 3.6-.1 5.3-.7.9-.3 1.4-.9 1.4-1.9 0-.4 0-.7 0-1.1-.8-6-1.3-31.3-1.4-36.5-.1-3.9-.2-7.8-.3-11.7 0-1.5-.6-2.4-2-2.4-1.6 0-3.1 0-4.7.2-3.7.3-18.7.7-21.5.9-2.8.1-10.7 0-11.8.1-2.5.1-19.5.9-25.8 1-.1 0-.2 0-.4 0-.6 0-1 .3-1.1.9v1.1c.1 3.7 2.5 45 3 49z" fill-rule="evenodd"/><path d="m427.8 296.5c-.8 0-1.6.9-1.7 1.8 0 .9.8 1.9 1.6 1.9s2-1.2 2-2c-.1-.9-1-1.7-1.9-1.7zm-45 3.3c-1.1 0-1.9.7-1.9 1.7 0 .9.8 1.8 1.7 1.8s1.7-1 1.6-2.2c-.1-.9-.5-1.3-1.4-1.3z" fill="none"/><path d="m420 132.2c0 .8-.1 1.6.8 1.8.6.2 1.3.2 1.9.1.2 0 .5-.3.7-.5.4-.7.1-1.9-.5-2.7-.4-.4-1.8-.6-2.3-.4-.2.1-.3.3-.4.5-.1.5-.1.9-.2 1.2zm12.2.9v.5c.1 1.3.4 1.7 1.6 1.7 1.1 0 1.5-.5 1.5-1.7 0-.4-.1-.7-.1-1.1-.2-.9-.8-1.3-1.9-1.2-.7.1-.9.3-1 1.4-.1.2-.1.3-.1.4z" fill="none"/><path d="m453.9 217.5c0-1.8-.2-2-1.7-2-.3 0-.6 0-.9 0-1 .1-1.3.3-1.3 1.3v1.3c.1.6.3 1.1.9 1.1.9.1 1.9.4 2.7-.3.1-.1.2-.3.2-.5.1-.4.1-.7.1-.9z" fill="none"/><path d="m400 174.2c0-.2 0-.4 0-.5 0-2.1 0-2.1-2.1-2.1-2.6 0-2.6 0-2.6 2.5 0 2.4 0 2.4 2.3 2.5 2.4 0 2.4 0 2.4-2.4zm-13.2 2.9c2.8-.2 2.8-.2 2.7-2.7 0-2.1-.4-2.4-2.5-2-1.2.2-2.1.3-2 2 0 .3-.1.6-.2.9-.3 1.8-.1 2 1.7 1.9.2-.1.3-.1.3-.1zm24.7-4.3c0-.4 0-.7 0-1.1-.1-.9-.3-1.1-1.2-1.2-3-.3-3.7.5-2.9 3.4.1.2.1.5.2.7.2.3.5.6.8.6.9-.1 1.8-.3 2.6-.5.2-.1.4-.4.5-.7 0-.3 0-.8 0-1.2z" fill="none"/><path d="m587.9 331.3c0-.2 0-.4 0-.6-.2-1.2-.9-1.7-2-1.4-1.2.2-1.7 1.3-1.4 2.6.3 1.1 1.2 1.9 2.1 1.8.8-.1 1.3-.9 1.3-2.1 0-.1 0-.1 0-.3zm-27.5-4.9c-.3-.6-.5-1.2-.9-1.7-.2-.2-.7-.3-1-.2-1.1.3-2 2-1.6 3 .4 1.1 1.8 1.4 2.6.5.3-.4.5-1 .9-1.6z" fill="none"/><path d="m619 325.1c-.5-.1-.9-.1-1.3-.2-2.4-.6-4.7-1.3-7.1-1.9-2.3-.6-4.5-1.5-6.6-2.8-1-.6-2-1.1-3.2-.6-.4.2-.9-.1-1.4-.2-3.7-.9-7.2-2.2-10.7-3.5-13.6-5-27.3-9.7-41.5-12.9-2.5-.5-5-.8-7.4-1.4-1.4-.3-2.8-.9-4.2-1.4-.6-.2-.6-.5 0-.9 2.3-1.6 4.8-2.7 7.5-3.2.6-.1 1.4.2 2.1.4 3.6 1.2 7.2 2.6 10.9 3.7 3.5 1 7.1 1.7 10.6 2.6 2.7.7 5.3 1.6 7.9 2.4 16.3 5.3 32.5 10.8 48.9 15.6.8.2 1.5.6 2.3.9-.7.4-1.4.9-2.1 1.3-1.2.7-2.4 1.3-3.7 1.9-.4 0-.7.1-1 .2z" fill="none"/><path d="m244.1 241.5c0-.9-.6-1.5-1.4-1.5-1 0-1.6.8-1.6 1.8 0 .9.7 1.5 1.7 1.5.9 0 1.3-.5 1.3-1.8zm-24.7 2c.1-1-.4-1.6-1.2-1.7-.9-.1-1.6.6-1.7 1.5-.1 1 .5 1.7 1.6 1.7.9.1 1.2-.3 1.3-1.5z" fill="none"/><path d="m601.1 188.8c-.3 0-.5 0-.6 0-1.5 0-1.6.2-1.7 1.6v.4c0 1.4.4 1.7 1.8 1.8h.7c.6 0 1.1-.1 1.2-.8.1-.9.4-1.9-.2-2.7-.1-.1-.3-.2-.5-.2-.2-.1-.5-.1-.7-.1z" fill="none"/><path d="m552.2 240c0-.5 0-1 0-1.4 0-.7-.4-1.1-1.1-1.1-.8 0-1.6 0-2.3 0-1 0-1.2.2-1.2 1.1v2.3c.1 1.3.2 1.4 1.5 1.5h.7c2.5.1 2.5.1 2.4-2.4z" fill="none"/><path d="m280.1 175.5c0-.5 0-.8 0-1.1 0-.6-.4-.8-.9-.8-1 .1-1.1 0-2.1.2-.4.1-.9.4-.9.6-.1 1-.2 2.1.4 2.9.2.3.7.7 1 .7.8 0 .9-.1 1.7-.4.4-.1.6-.7.8-1.1 0-.3 0-.8 0-1z" fill="none"/><g fill-rule="evenodd"><path d="m408.2 328.9c1.4-.1 2.3.7 2.3 2.2 0 .2-.1.6-.2.9-.7 1.5-1.4 3.1-2 4.6-.3.7-.9 1.2-1.7 1-2.4-.5-5-.4-7.4-1.2-1.6-.6-3.3-1-4.8-1.8-2.2-1.1-4.4-2.5-6.5-3.8-1.5-.9-1.8-1.9-1-3.5.6-1.1 1.2-2.2 2-3.2.7-.9.7-.9 1.8-.5 6.4 3.1 5.9 3.5 8.4 4.6 3.4 1.4 9.1.7 9.1.7zm-8.4 5.9c2.2.6 5.1.6 6.2.4.5-.1 1.8-3.5 2.2-3.9.4-.3-3.5-.4-4.5-.5-3.9-.3-7.2-1.1-10.3-3.6-.5-.4-2.6-1.3-3.2-1.6-.3-.1-2.1 3-1.6 3.2 2.8 1.6 9 5.4 11.2 6z"/><path d="m427.8 296.5c.9 0 1.9.8 1.8 1.6 0 .8-1.1 2-2 2-.8 0-1.6-.9-1.6-1.9.1-.8.9-1.7 1.8-1.7z"/><path d="m382.8 299.8c.9 0 1.3.4 1.4 1.3 0 1.2-.7 2.2-1.6 2.2s-1.7-.9-1.7-1.8c0-1 .8-1.7 1.9-1.7z"/><path d="m421.8 100.3c0-.8.1-1.5.3-2.3.1-.6 2.2-.4 2.3.1.1.7-.7 27.6-.7 27.7-.1 1-2.7.9-2.8 0 0-.2 1-22.7.9-25.5z"/><path d="m436.2 125.9c-.1.3-2.6.7-2.5-.7.3-4.5 1.2-25.5 1.1-26.1.2-2 3.1-.9 3.1.1.1 2.6-1.5 25.9-1.7 26.7z"/><path d="m450.3 105.1v2.5c-.1 2.1-.7 11.7-.9 14.3-.1 1.7-.1 3.3 0 5 0 .7-3 .6-3-.1 0-.5.5-6.7.7-9.3.2-1.8.6-11.5.6-14.5 0-1.4 0-2.7 0-4.1 0-.3 2.8 0 2.7 1.1-.1 1.7-.2 5.1-.1 5.1z"/><path d="m420 132.2c0-.3.1-.7.2-1 .1-.2.2-.4.4-.5.5-.3 2-.1 2.3.4.6.7.9 2 .5 2.7-.1.2-.4.5-.7.5-.6 0-1.3 0-1.9-.1-.8-.5-.8-1.3-.8-2z"/><path d="m432.2 133.1c0-.1 0-.2 0-.4.1-1 .2-1.3 1-1.4 1-.1 1.7.3 1.9 1.2.1.3.1.7.1 1.1 0 1.3-.3 1.7-1.5 1.7-1.1 0-1.5-.4-1.6-1.7.1-.1.1-.3.1-.5z"/><path d="m449 132.5c-.4-.9-1.5-.6-2.4-.3-.7.2-.8.6-.7 1.6s.3 1.5.9 1.5c.6.1.9.1 1.9-.2 1-.2.6-1.7.3-2.6z"/><path d="m457.3 186.6c-.3 0-3.3-.1-4.9-.1-1.8-.1-3.6-.1-5.4-.1-.5 0-.9.2-1 .8 0 .5-.1 1.2.4 1.3s1.3 0 1.9 0c2 .1 4.1.1 6.1.2 1.9.1 1.7.5 1.8 2.4.1 2 0 3.3-.2 5-.3 2.4 0 2.4-2.4 2.5-2 0-4.6.1-6.7.2-1.3.1-1.4.3-1.4 1.6 0 2 .1 4 .1 5.9 0 1.3.1 2.5.2 3.8.2 1.2.4 1.3 1.5 1.3 1.4 0 7.4-.1 9-.1 1.1 0 1.3-.3 1.5-1.4.2-1.5-.1-1.4-1.7-1.4-.1 0-4.5 0-6.3 0s-1.8-.1-2-1.6c-.1-1.1-.1-2.3-.1-3.4 0-1.6.2-1.8 1.8-1.9 2.3-.1 4.5-.2 6.8-.4 1.4-.1 1.8-1.3 1.8-2.7 0 0 .2-6 .2-8.8.2-2.8.2-2.9-1-3.1z"/><path d="m453.9 217.5c0 .1 0 .5-.1.9 0 .2-.1.4-.2.5-.8.7-1.8.4-2.7.3-.6 0-.9-.5-.9-1.1 0-.4 0-.8 0-1.3.1-1 .3-1.2 1.3-1.3h.9c1.6.1 1.7.2 1.7 2z"/><path d="m400 174.2c0 2.4 0 2.4-2.4 2.4-2.3-.1-2.3-.1-2.3-2.5 0-2.5 0-2.5 2.6-2.5 2.1 0 2.1 0 2.1 2.1z"/><path d="m386.8 177.1c-.1 0-.1 0-.2 0-1.8.1-2-.1-1.7-1.9.1-.3.2-.6.2-.9-.1-1.7.7-1.8 2-2 2.1-.4 2.5-.1 2.5 2 0 2.6 0 2.6-2.8 2.8z"/><path d="m411.5 172.8c0 .4 0 .8-.1 1.2-.1.3-.3.6-.5.7-.9.2-1.7.4-2.6.5-.2 0-.6-.3-.8-.6-.1-.2-.1-.4-.2-.7-.8-2.9-.1-3.7 2.9-3.4.9.1 1.1.3 1.2 1.2.1.4.1.8.1 1.1z"/><path d="m573.5 358.8c-.2-.4.1-1.8.6-1.9.3-.1.8 0 1.1.1 2.1.2 10.9.3 10.9.3s-.1.1.8-1c.6-.7.9-.5 1.7-.3.6.1 1 .4.8 1.1-.5 1.7-1.2 2.3-3.1 2.3-3.3 0-6.7-.1-10-.2-.6-.1-2.6-.1-2.8-.4z"/><path d="m587.9 331.3v.3c0 1.2-.5 1.9-1.3 2.1-.9.1-1.9-.7-2.1-1.8-.3-1.3.2-2.4 1.4-2.6 1.1-.2 1.8.3 2 1.4z"/><path d="m559.5 328c-.8.9-2.2.6-2.6-.5-.4-1 .5-2.8 1.6-3 .3-.1.8 0 1 .2.3.5 1.1 2.1 0 3.3z"/><path d="m250.7 264.5c-.3.2-.6.5-.9.6-2.9 1.3-5.7 2.6-8.6 4-.1 0-.2.1-.3.1-.5.2-1.1.2-1.5-.2s0-5.4 0-5.7c0-1.3.4-1.7 1.6-1.9.4-.1.8-.1 1.2-.1 2.2-.2 4.4-.6 6.2-2 .8-.6 1.3-.5 1.6.3.5 1.3.7 2.6 1 4 .1.2-.2.6-.3.9zm-1.7-1c.6-.3 1-2.2-.1-1.8s-3.2 1.1-4.8 1.4c-1.6.2-3-.1-3.2 1-.1.5-.1 1.6-.2 2.1s.9.8 1.3.6c1.4-.1 6.4-3 7-3.3z"/><path d="m244.1 241.5c0 1.2-.4 1.8-1.3 1.7-1 0-1.6-.6-1.7-1.5-.1-1 .6-1.8 1.6-1.8.8.1 1.4.7 1.4 1.6z"/><path d="m219.4 243.5c-.1 1.2-.4 1.6-1.2 1.6-1.1 0-1.7-.7-1.6-1.7.1-.9.8-1.6 1.7-1.5.7 0 1.2.6 1.1 1.6z"/><path d="m621.4 174c-.9 0-1.8 0-2.7 0-.8 0-1.7 0-1.8.8-.1 1 .2 2.2.2 3.2 0 1.3.4 1.7 1.7 1.8.7.1 5.3-.1 6.7-.2 1.1.3.4 2.8.1 2.8-2.5.2-9.5.1-9.8.1-.9 0-1.1-.1-1.2-.9-.1-.5-.1-1.9-.1-2.4.1-2.1-.2-3.2-.2-5.3 0-2 .3-1.7 1.7-1.8 1.7-.1 3.4-.1 5-.1 1.8-.1 2.4-.6 2.7-2.4.3-1.5.3-2.3.3-4.7.1-2.5-.3-2.5-2.2-2.6-1-.1-5.1 0-6.2.1-.2 0-.5 0-.7-.1-1.2-.2-1-2.7.1-2.6.5.1 7.5.1 10.2.1 1.1 0 .9.3 1.2 1.4.1.4.1.8 0 1.2-.4 3.2-.4 6.3-.4 9.5 0 1.2.1 1.8-1.2 1.9-.8.1-2.5.2-3.4.2z"/><path d="m605.2 159.9c1.2.1 1.8-.3 1.8 2.5s-.3 8.9-.2 10.6c.1 1.1-.1 1.3-1.1 1.4-1.4.2-6.5.4-7.7.5-1 .1-1.3.4-1.3 1.4 0 1.4.1 2.8.2 4.1.1 1.2.4 1.4 1.6 1.4 1.8-.1 7.5-.2 8-.1.9 0 .9 2.2.1 2.3-.5.1-6 .1-8.8.2-2.9.1-3.1.1-3.1-2.6-.1-2.1-.3-7-.3-7.4 0-1.4.2-1.6 1.5-1.6s6.1-.2 7.2-.2c.8 0 1.2-.4 1.3-1.2.2-1.7.1-5.7.1-7.4s-.3-1.3-1.9-1.6c-.9-.1-7.4-.1-7.8-.2-.5-.1-.3-2.1.2-2.1.9 0 7.4-.2 10.2 0z"/><path d="m643.9 158.9c1.8-.2 2.1.8 2.1 2.8v7.4c0 1-.1 2.2-2.1 2.3-2 0-2-.1-3.5.1-2.5.3-2.9-.2-2.7 3.5v.5c.2 2 .7 2.5 2.7 2.5.8 0 1.7-.1 2.5-.1h4.5c.2 0 .4 1.9-.2 2.1-.7.1-1.4.2-2.1.3-1.2.1-2.4 0-3.6.1s-2.5.3-3.7.4c-1.7.2-2.3-.4-2.3-2 0-2-.2-7.2-.1-7.7.1-1.1.9-1.7 2-1.7 1.8-.1 3-.2 4.2-.3 1.1-.1 1.9-.2 1.9-.5.3-1.8-.3-4.1-.2-5.9.1-1.1-.2-1.3-1.2-1.3-1.1 0-2.2.2-3.4.2-.9 0-2.3 0-3.2 0-.7 0-.8-2.2 0-2.3 1.3-.1 2.5 0 3.8 0-.2-.2 3-.2 4.6-.4z"/><path d="m638.8 190.3c-.4-.3-.2-1.2-.3-1.9-.1-.5-.2-.9-.2-1.4-.1-1 .2-1.3 1.1-1.4h2.9c1 .1 1.4.4 1.4 1.4 0 .9-.1 1.8-.2 2.7-.1.7-.6 1-1.3 1-.5 0-3 0-3.4-.4z"/><path d="m617.1 189.4c0-.7.4-1.1 1.1-1.1.9 0 2-.2 2.8.2 1 .5.7.6.8 2.6s-.2 2.3-2.2 2.3c-.1 0-.2 0-.4 0-1.5-.1-2 .1-2-2z"/><path d="m601.1 188.8c.1 0 .5 0 .8.1.2 0 .4.1.5.2.6.9.3 1.8.2 2.7-.1.7-.7.7-1.2.8-.2 0-.5 0-.7 0-1.5 0-1.8-.3-1.8-1.8 0-.1 0-.2 0-.4 0-1.5.2-1.6 1.7-1.6z"/><path d="m552.2 240c0 2.5 0 2.5-2.5 2.4-.2 0-.5 0-.7 0-1.3-.1-1.4-.2-1.5-1.5 0-.8 0-1.6 0-2.3.1-1 .2-1.1 1.2-1.1h2.3c.7 0 1.1.4 1.1 1.1.1.5.1.9.1 1.4z"/><path d="m539.1 243c-.2 0-.4 0-.5 0-1.4 0-1.9-.3-1.7-1.6.1-.4 0-1.4.1-1.8.3-1.8.9-1.2 2.8-1.4h.9c.7-.1 1.1.3 1.1.9.1.9.1 1.8.1 2.7 0 .7-.4 1.1-1.1 1.1s-1.2 0-1.7.1z"/><path d="m562.5 239.7v.9c0 .6-.3 1-.9 1.1-.9.1-1.8.7-2.7.2-.1-.1-.2-.3-.3-.4-.2-.8-.4-1.6-.4-2.5-.1-1.2.2-1.4 1.4-1.6h.5c2.2-.1 2.4.1 2.4 2.3z"/><path d="m279.6 168.3c0 .7-2.7 1.8-3.2.6-.2-.4-.3-.9-.3-1.4.3-2 0-23.8.1-24.5.1-.5.4-.9.9-.9h.2c2.2-.3 1.9.8 2.1 3 .1 1.7.3 22 .2 23.2z"/><path d="m280.1 175.5c0 .2 0 .6-.1 1-.2.4-.4 1-.8 1.1-.8.3-.9.4-1.7.4-.3 0-.8-.4-1-.7-.6-.9-.6-1.9-.4-2.9 0-.3.6-.6.9-.6.9-.2 1.1-.1 2.1-.2.6 0 .9.2.9.8.1.3.1.6.1 1.1z"/></g></svg>