<?xml version="1.0" encoding="UTF-8" standalone="no"?>
<svg
   xmlns:dc="http://purl.org/dc/elements/1.1/"
   xmlns:cc="http://creativecommons.org/ns#"
   xmlns:rdf="http://www.w3.org/1999/02/22-rdf-syntax-ns#"
   xmlns:svg="http://www.w3.org/2000/svg"
   xmlns="http://www.w3.org/2000/svg"
   xmlns:sodipodi="http://sodipodi.sourceforge.net/DTD/sodipodi-0.dtd"
   xmlns:inkscape="http://www.inkscape.org/namespaces/inkscape"
   viewBox="0 0 557.85264 353.45225"
   version="1.1"
   id="svg48"
   sodipodi:docname="cc-compartir.svg"
   width="557.85266"
   height="353.45224"
   inkscape:version="0.92.3 (2405546, 2018-03-11)">
  <metadata
     id="metadata54">
    <rdf:RDF>
      <cc:Work
         rdf:about="">
        <dc:format>image/svg+xml</dc:format>
        <dc:type
           rdf:resource="http://purl.org/dc/dcmitype/StillImage" />
        <dc:title></dc:title>
      </cc:Work>
    </rdf:RDF>
  </metadata>
  <defs
     id="defs52" />
  <sodipodi:namedview
     pagecolor="#ffffff"
     bordercolor="#666666"
     borderopacity="1"
     objecttolerance="10"
     gridtolerance="10"
     guidetolerance="10"
     inkscape:pageopacity="0"
     inkscape:pageshadow="2"
     inkscape:window-width="680"
     inkscape:window-height="480"
     id="namedview50"
     showgrid="false"
     fit-margin-top="0"
     fit-margin-left="0"
     fit-margin-right="0"
     fit-margin-bottom="0"
     inkscape:zoom="0.38840716"
     inkscape:cx="260.66076"
     inkscape:cy="168.30226"
     inkscape:window-x="1366"
     inkscape:window-y="30"
     inkscape:window-maximized="0"
     inkscape:current-layer="svg48" />
  <path
     d="m 259.41075,61.9 0.9,38.7 5.8,8.9 26.9,-4.4 -9.1,-34.5 z"
     id="path2"
     inkscape:connector-curvature="0"
     style="fill:#7ac191" />
  <path
     d="m 38.710751,172.4 44.6,-0.8 7.6,61.8 -49.1,7.2 z"
     id="path4"
     inkscape:connector-curvature="0"
     style="fill:#f0e400" />
  <path
     d="m 266.81075,198.7 -0.8,42.7 73.4,5.1 0.9,-40.6 z"
     id="path6"
     inkscape:connector-curvature="0"
     style="fill:#75c5bf" />
  <path
     d="m 142.41075,224.4 78.1,-12.3 8.7,41.4 -70.2,22.3 z"
     id="path8"
     inkscape:connector-curvature="0"
     style="fill:#7bc290" />
  <path
     d="m 189.21075,266.9 8.8,-1 3.7,8 89.8,-18.3 v -5.5 h 5.7 l 0.5,12.8 -71.7,15.5 -30,3 z"
     id="path10"
     inkscape:connector-curvature="0"
     style="fill:#f0e400" />
  <path
     d="m 198.01075,295.6 c 0,0 0.4,-0.2 1,-0.4 1.3,-0.5 3.5,-1.3 4,-1.3 0.8,0 4.8,9.2 4.8,9.2 l 92,-16.8 v 9.5 l -84.8,13 -12.5,1.5 z"
     id="path12"
     inkscape:connector-curvature="0"
     style="fill:#7bc290" />
  <path
     d="m 386.61075,197.4 c 2.3,-1.5 9.5,-6.2 9.4,-8.2 -0.4,-6.8 -1,-33.9 -1.3,-38.1 -0.3,-4.2 -1,-4.8 2.6,-5.7 3.5,-0.9 6.4,-2.3 10,-3.9 0.9,-0.6 1.8,-0.4 2.5,0.3 0.3,0.3 42.5,32.1 42.6,32.2 2.2,1.5 30,23 35.1,26.7 3.1,2.3 6.2,4.4 9.4,6.5 2.8,1.8 3.3,3 3,6.2 -0.4,3.9 -0.9,40.9 -1.4,46 -0.3,2.6 0.2,5.6 1.2,7.8 2.3,5.3 7,20.2 8.4,23.8 2.1,5.6 2.7,10.1 4.3,15.8 1.9,6.8 2,13.7 1.3,20.7 -0.2,2.4 -0.6,5.3 -0.8,7.2 -0.2,2 -2.6,1.4 -2.8,0.1 -0.2,-1.3 -0.2,-2.4 0,-3.6 1.1,-6.8 1,-13.5 -0.2,-20.3 -0.6,-3 -3,-13.3 -3.8,-16.2 -1.7,-6 -5.3,-16.5 -7.7,-22.3 -0.2,0 -0.4,0 -0.6,0 -0.2,1.8 -0.3,15.2 -0.3,20.2 0.1,4.1 0,8.3 0.1,12.4 0.1,2.3 -0.4,13.8 -0.4,17.3 0,1 0.8,5 -0.5,5.3 -2.3,0.5 -4.6,1 -6.8,1.7 -1.5,0.4 -2.9,1.2 -4.4,1.7 -1.7,0.6 -3.3,0.4 -4.9,-0.5 -2.6,-1.6 -15.5,-12.4 -19.4,-15.9 -2.5,-2.2 -5.1,-4.4 -7.7,-6.5 -0.5,-0.4 -1.5,-0.9 -1.6,-0.8 -0.5,0.6 -1.1,1.3 -1.2,2.1 -0.3,2.6 -2.2,32.1 -1.9,34.2 0.2,2 -5.6,7.4 -7.4,9.5 -0.6,0.7 -1.4,0.3 -2.5,-0.7 -0.9,-0.8 -1.1,-1.5 -0.2,-2.3 1.8,-1.6 3.5,-3.2 5.3,-4.7 1.6,-1.2 2,-2.8 2,-4.6 0,-2.9 0,-5.8 0.2,-8.7 0.2,-4 1.1,-25.7 1,-28.5 0,-0.7 -0.5,-1.6 -1.1,-2.1 -6.1,-4.7 -12.3,-9.3 -18.4,-14 -1.3,-1 -2.5,-2 -3.8,-3 -1,-0.8 -1.5,-0.7 -1.6,0.6 -0.2,1.8 -0.3,3.6 -0.4,5.5 -0.3,5.1 -1.7,32.8 -1.3,34.6 0.5,2.3 -0.9,3.9 -2.3,4.8 -2.2,1.4 -5.5,3.6 -8.4,3.5 -0.5,0 -1.1,-2.3 -0.7,-2.7 0.6,-0.5 0.7,-0.4 2,-1.1 3.9,-1.9 5.8,-5 6,-8.6 0.2,-2.7 0.5,-15.2 0.6,-18.7 0.3,-5.4 0.6,-17.5 0.7,-18.1 0.4,-3.3 0.4,-3.3 -2.3,-4.9 -3.2,-1.9 -6.4,-3.9 -9.6,-5.7 -1.4,-0.8 -2.9,-1.4 -4.4,-1.8 -1,-0.3 -2.5,-1.2 -2.7,-2.2 -0.8,-4.5 -1.6,-22 -1.8,-26.5 -0.2,-3.3 -1.3,-42.9 -1.7,-45.6 -0.2,-1.7 -0.5,-2.3 -1.9,-1.6 -1.9,1.1 -13.4,10.2 -25,18.4 -12,8.5 -24.2,16.1 -24.2,16.1 0,0 0.1,16.4 0.1,23 0,2.1 -0.8,2.8 -3,2.6 -7.8,-0.9 -27.4,-3.9 -29.5,-4 -1.3,-0.1 -1.9,0.3 -1.8,1.9 0.2,4.6 0.2,9.3 0.4,13.9 0.1,1.4 0,2.3 -1.8,2.5 -1.6,0.2 -2,1.5 -1.8,3.4 0.3,3.7 0.5,7.5 0.9,11.2 0.2,1.8 -3.8,3.8 -4.6,3.8 -1.7,0.1 -1.8,1.1 -1.7,2.3 0.2,1.5 0.5,3 1,4.5 0.6,1.6 -0.1,2.2 -1.4,2.4 -1.7,0.2 -3.5,0.4 -5.2,0.5 -0.3,0 -13.8,2.1 -20.2,3.9 -3.6,1 -66.4,11.6 -68.3,12.3 -2.4,0.9 -4.3,0 -4.8,-2.5 -0.8,-4 -3,-13.4 -3.4,-14.2 -0.4,-0.9 -1.1,-1.2 -2.1,-0.9 -3.2,0.7 -2.6,0.5 -4.5,-2.2 -1.9,-2.7 -8.8,-14.8 -10.2,-18.1 -2.3,-5.5 -2.2,-5.6 -7.8,-4.1 -4.4,1.2 -10,2.9 -12.9,3.5 -2.9,0.6 -4.1,0.2 -4.8,-1.9 -1,-3.1 -12.4,-33.7 -12.8,-35.3 -0.9,-3.1 -2.9,-9.4 -4.2,-12.5 -1.3,-3.2 -0.1,-4 1.3,-4.2 2,-0.2 2.9,-0.5 4.9,-0.8 1.9,-0.2 3.8,-0.5 5.6,-1.1 1.3,-0.4 0.7,-1.5 0.2,-2.3 -1.4,-2.4 -3.1,-4.8 -4.4,-7.3 -1.3,-2.5 -11.4,-25.7 -14,-31.8 -1,-2.3 -1.7,-4.7 -3,-7 0,1.9 -0.1,3.8 0,5.7 0.2,4.7 1.4,19.5 1.7,22.2 0.1,0.6 0.7,7.3 -1.2,8 -0.1,0.1 -2.6,0.8 -7.2,2.1 -4.5,1.3 -16.6,2.8 -22.1,3.5 -1.7,0.2 -5.899999,1 -5.899999,1 0,0 0.1,1.5 0.5,3.4 0.9,3.6 0.7,6.5 1.6,10.2 0.4,1.7 1.3,4.7 0.4,6.3 -0.9,1.6 -2.9,1.7 -4.1,1.9 -3.8,0.8 -4.6,0.3 -4.1,4.2 0.8,5.2 1.5,10.4 2.3,15.6 0.2,1 0.6,2 1,3 0.5,1.5 0.2,2.3 -1.1,3.3 -1.9,1.4 -3.7,2.9 -5.6,4.3 -0.8,0.6 -1.5,1.4 -2.3,1.8 -0.5,0.3 -2.4,-1.9 -2,-2.3 2.1,-2 4.3,-3.9 6.5,-5.7 1.1,-0.9 1.7,-1.8 1.3,-3.3 -1,-4.1 -2.1,-7.2 -3,-11.4 -0.5,-2.3 -1.2,-4.7 -1.2,-7 0,-2 -0.8,-1.7 -2.1,-1.4 -2.6,0.5 -4.4,0.5 -7.1,0.8 -4.3,0.5 -8.7,1 -13,1.4 -1.2,0.1 -1.7,0.6 -1.5,1.8 0.8,5 3.1,16.5 3.3,17.2 0.6,1.4 1.3,1.9 -1.3,3.4 -2.7,1.5 -9.4,5.7 -10.9,6.4 -0.5,0.2 -1.5,-1.8 -1.1,-2.1 1.7,-1.2 7.5,-4.8 8.5,-5.8 1.2,-1.3 1.7,-3 1.4,-4.9 -0.9,-4.6 -1.8,-9.3 -2.7,-13.9 -0.3,-1.4 -1.2,-1.4 -2.3,-1.3 -2.4,0.3 -4.8,0.6 -7.2,1 -1.8,0.3 -3.6,0.7 -5.4,1.1 -1.6,0.3 -2,-0.1 -2.1,-1.8 -0.5,-5.5 -1.2,-10.9 -1.7,-16.4 -0.2,-1.5 -0.4,-3 -0.4,-4.6 -0.1,-2.6 -0.5,-3.2 -0.5,-3.2 0,0 -12.3,0.8 -16.9,1.1 -2.2,0.1 -2.3,0 -2.6,-2.2 -0.6,-4.4 -1.2,-8.8 -1.7,-13.2 -0.2,-2 -1.2,-2.1 -3.1,-3.1 -2.8,-1.4 -5.4,-4 -7.7,-6 -4.8,-4.3 -8.29999999,-9.8 -8.49999999,-16.4 -0.1,-4.4 0.5,-8.5 1.69999999,-12.8 1.9,-6.5 5.1,-14 9.7,-19.1 0.9,-1 1,-2.7 1,-4 -0.2,-5.5 -1.8,-25.6 -2.3,-31.3 -0.1,-1.1 -0.1,-3.2 1.2,-4.2 0.9,-0.7 8.4,-4.8 10.7,-5 4.3,-0.3 8.5,-0.6 12.8,-0.9 0.8,-0.1 10.9,0.4 15.3,0.1 5,-0.3 9.9,-0.1 14.9,0 6.7,0.1 33.4,-1.6 35.999999,-1.9 7.7,-0.7 15.5,-1 23.2,-2.6 2.1,-0.4 4.4,0 6.6,0.2 0.9,0.1 1.7,2.3 1.6,4 -0.3,3.2 -0.6,6.4 -0.8,9.6 -0.2,5 -0.1,9.9 -0.2,14.9 -0.1,5.1 -0.5,10.2 -0.6,15.3 -0.1,5.7 0,11.4 0.1,17.1 0,2.2 0.4,6.6 0.4,6.6 0,0 21.9,49.4 24.3,52.8 0.5,0.7 0.8,1.6 1.2,2.5 0.7,1.5 1.6,1.9 2.9,1.6 l 9.6,-2.1 c 1.9,-0.4 56.2,-8.9 57.1,-9.1 1.5,-0.5 2.3,-0.1 2.8,1.5 0.5,1.6 0.8,3.3 1.2,4.9 0.5,2.1 1.3,2.8 3.3,2.7 2.9,-0.1 5.8,-0.2 8.7,-0.7 7.2,-1.1 14.3,-2.3 21.4,-3.5 2.1,-0.3 2.1,-0.3 2.1,-2.4 0,-3.3 0,-6.6 -0.1,-9.9 0,-1.4 0.5,-2.2 1.9,-2.2 1.4,0 2.9,0.1 4.3,0.1 4.6,0.1 9.3,-0.1 13.9,0.2 7,0.4 14,1 21,1.8 5.2,0.6 10.4,1.8 15.4,3.6 3.2,1.1 18.7,2.8 23.1,1.9 1.2,-0.3 1.9,0.3 1.9,1.6 0,1.3 0,2.6 -0.2,3.9 -0.7,4.1 -1.4,13.7 -1.4,13.7 0,0 11.8,-7 22.3,-14.4 8.9,-5.8 16.8,-12.6 18.6,-13.8 z m 11.1,-45.7 c 0.4,10 3.1,99.3 3.5,105 0.2,3.3 0.7,6.7 1.2,10 0.1,0.6 0.7,1.2 1.2,1.5 2.9,1.8 6,2.4 8.8,4.3 6.9,4.6 27.4,19.5 30.9,22.4 4.2,3.5 39.4,33.9 39.8,34 0.5,0.1 1.1,0.2 1.5,0 0.2,-0.1 -0.3,-3.2 -0.3,-4.2 0.1,-4.5 1.4,-59.3 1.4,-64.1 0,-5.6 -0.3,-38.5 -0.5,-44.1 0,-0.8 -0.4,-1.9 -1.1,-2.4 -1.9,-1.5 -15.5,-10.2 -20.2,-13.3 -3.6,-2.4 -50.7,-36.3 -53.2,-38.3 -4.2,-3.5 -8.4,-7.1 -13,-10.8 z M 22.710751,111.1 c 0,0 -5.2,0 -7.8,-0.1 -1.5,-0.1 -1.9,0.7 -1.8,2 0.5,4.6 2.5,23.1 2.8,27.8 0.2,3.4 4.1,40.6 5,46.1 0.5,3.2 1,6.3 1.4,9.5 0.1,1 0.6,1.5 1.5,1.7 2.3,0.4 15.9,0.1 15.9,0.1 0,0 0.1,0.2 0,-1.1 -0.4,-5.2 -1.4,-17.3 -1.5,-20.3 -0.1,-2.3 0.3,-3 1.5,-3.3 0.8,-0.2 1.6,-0.4 2.5,-0.4 2.1,0 41.1,-3.4 45.6,-3.9 0.4,-0.2 2.5,-0.4 3.7,0.4 1.7,1.1 0.9,4.2 0.9,5.2 -0.1,1.7 2.6,27.9 3.3,33.6 0.2,1.4 0.9,3.5 0.9,3.5 0,0 19.599999,-2.3 23.499999,-2.9 1.2,-0.2 1.6,-0.8 1.5,-2.1 -0.2,-4.2 -0.4,-8.5 -0.5,-12.7 -0.1,-3.9 -1.7,-38.7 -1.9,-42 -0.1,-2.3 0,-12.5 0,-15.3 -0.2,-9 -0.6,-18 -0.8,-27.1 -0.1,-2.6 -0.1,-2.7 -2.8,-2.3 -1.8,0.3 -27.299999,2.9 -30.299999,3 -7.3,0.3 -22,0.6 -22.2,0.6 -2.7,0.1 -20,-1 -26.4,-0.8 -4.7,0.1 -9.3,0.5 -14,0.8 z M 233.71075,254.5 c -0.4,-3 -0.8,-5.6 -1.2,-8.3 -0.3,-1.6 -2.9,-17.4 -3.9,-23.7 -0.5,-2.8 -1.3,-5.6 -2,-8.4 -0.2,-0.9 -0.8,-1.1 -1.7,-1 -3.6,0.5 -7.3,0.9 -10.9,1.4 -3.5,0.5 -26.6,3.6 -34.7,4.7 -3.7,0.5 -7.3,1.6 -11,2.3 -4.6,0.9 -9.2,1.7 -13.7,2.5 -3,0.5 -6,1.1 -9,1.4 -1.1,0.1 -1.1,0.5 -0.9,1.3 0.5,2.2 0.9,4.5 1.5,6.7 0.3,1.3 0.7,2.7 1.2,3.9 1.7,4.7 3.4,9.3 5.1,14 1.7,4.5 3.3,9 5,13.4 0.9,2.6 1.9,5.1 2.8,7.7 0,0.1 1,0.8 2.5,0.6 5.6,-0.9 20.1,-4.9 34.5,-8.5 14.2,-3.5 28.4,-6.6 34.7,-8.3 1.8,-0.6 1.7,-1.7 1.7,-1.7 z m 108.5,-22.1 c -0.9,0.4 -1.7,0.9 -2.6,1.3 -1.2,0.6 -2.3,0.7 -2.5,-0.7 -0.3,-1.5 0.3,-2.7 2,-3.5 2.5,-1.1 3.9,-2.5 3.9,-2.5 0,0 -0.1,-9.8 1.2,-13 0.6,-1.6 -0.5,-2.8 -2.2,-3 -4.9,-0.4 -19.4,-1.9 -21.4,-2.9 -4.3,-2.3 -9,-2.9 -13.7,-3.4 -6.1,-0.7 -30,-1.8 -35.9,-1.4 -0.9,0.1 -1.5,0.4 -1.5,1.4 -0.1,2.4 -0.6,32.4 -0.7,40.3 0,0.6 0.6,1.6 1.1,1.7 2.8,0.5 18.7,2.1 18.8,2.1 3.1,0.3 6.2,0.9 9.3,1 3.8,0.1 7.6,0.1 11.4,-0.2 5.4,-0.4 25.3,2.8 30,3.2 2.3,0.2 2.7,-0.3 2.7,-2.5 0,-4.4 0,-8.9 0,-13.3 z M 43.510751,215.5 c 0.4,4.8 2,19.7 2.3,22.3 0.2,1.5 0.8,2.2 2.4,1.9 2.1,-0.4 11.1,-2 13.5,-2.2 5.4,-0.6 27.1,-2.8 32.5,-3.5 1.6,-0.2 2.1,-0.8 1.8,-2.4 -0.3,-2.2 -4.7,-29.1 -5.4,-34.8 -0.6,-5.1 -0.7,-10.2 -1,-15.3 0,-0.1 0,-0.3 0,-0.4 -0.2,-2.4 -0.3,-4.7 -0.7,-7.1 -0.3,-1.9 -0.6,-2 -2.4,-1.8 -2.1,0.2 -4.3,0.3 -6.4,0.4 -3.4,0.1 -6.8,-0.1 -10.2,0.8 -6.8,1.7 -13.7,2.2 -20.6,2.4 -2,0.1 -4.1,0.6 -6.1,0.8 -1.1,0.1 -1.6,0.6 -1.5,1.8 0.2,6.1 0.4,12.2 0.6,18.2 0,1.1 0.5,1.7 1.7,1.6 0.8,-0.1 1.6,-0.1 2.3,0.1 0.6,0.2 1.5,0.7 1.5,1 0,0.6 -0.5,2.4 -1,2.8 -0.5,0.4 -1.3,0.4 -2,0.4 -1.3,0 -1.7,0.4 -1.6,1.8 z m 191.199999,29.7 c 0.6,3.3 1.6,6.5 2.3,9.8 0.1,0.6 -0.3,1.9 -0.8,2.1 -3.2,1.3 -6.4,2.7 -9.7,3.5 -5.5,1.4 -11.2,2.3 -16.8,3.5 -1.7,0.4 -3.4,1 -5.1,1.5 -1,0.3 -1.4,0.7 -1,1.8 0.5,1.3 1.1,2.6 1.3,3.9 0.3,1.6 1.2,1.9 2.6,1.7 3.8,-0.6 30,-5.9 39.3,-7.9 8.4,-1.8 38.5,-7.7 43.3,-8.6 0.8,-0.2 1.9,-0.2 1.8,-1.3 -0.1,-1.1 -0.1,-2.5 -1.5,-2.8 -2.7,-0.6 -18.5,-1.7 -20.1,-1.7 -3,0 -3.3,-0.3 -3.7,-3.4 -0.1,-0.8 -0.4,-26.3 -0.5,-28.2 0,-1.6 -0.4,-2 -1.8,-1.8 -5.1,0.8 -25.6,3.8 -30.8,4.3 -1.5,0.2 -2,0.6 -1.8,2.1 z m 260.2,-34.8 c -2.4,-1.9 -4.3,-3.4 -6.3,-5 -3.4,-2.7 -21.6,-16.6 -27.2,-20.9 -3.9,-3 -18.1,-13.1 -21.3,-15.3 -3.9,-2.7 -23.8,-17.4 -28.2,-20.8 -1,-0.8 -1.8,-1.7 -2.9,-2.2 -0.8,-0.4 -2,-0.4 -2.7,-0.1 -1.8,0.8 -4.1,0.9 -5.8,1.9 -0.9,0.6 -1.4,1.1 -0.5,1.8 2.2,1.6 5.6,4.2 7.7,5.9 3.1,2.6 6,5.4 9.2,7.8 3.4,2.6 6.9,5 10.4,7.5 0,0 0.1,0 0.1,0.1 5.4,3.8 10.9,7.5 16.4,11.2 0,0 0.1,0.1 0.1,0.1 2,1.4 4,2.7 6,4.1 3.3,2.3 6.6,4.6 10,6.9 4.4,3.1 8.8,6.3 13.2,9.3 3.3,2.3 6.8,4.4 10.2,6.6 0.5,0.3 1,0.7 1.6,0.9 3,1 6.2,0.9 10,0.2 z m 1.1,50.1 c 0.3,-1.1 0.6,-28.9 0.6,-34.7 0,-3.9 0.1,-7.8 0.1,-11.7 0,-1.1 -0.1,-1.7 -1.6,-1.4 -1.6,0.4 -3.3,0.4 -5,0.6 -2.1,0.3 -2.2,0.5 -2.1,2.6 0.1,2.4 0.7,43.9 0.7,47.5 0,0.1 -1.7,55.3 -1.6,60.2 0.1,3.8 -0.4,3.4 3.6,2.6 1.8,-0.4 4.2,-0.8 4.2,-2.4 0,-1.7 -0.1,-20.3 -0.2,-24.2 0,-2.4 0.7,-33 0.7,-33 0,0 -3.2,-5.4 -4.6,-7.6 -0.1,-0.2 -0.2,-0.4 -0.3,-0.6 -0.7,-1 -0.8,-2.1 0.2,-2.9 1.1,-0.8 2.1,-0.1 2.8,0.7 1,1.1 1.4,2.8 2.5,4.3 z m -294.7,21 c 0.9,-0.1 1.3,-0.1 1.8,-0.2 6,-0.8 42,-6.9 45.8,-7.7 3.1,-0.6 19.7,-4 22.7,-4.6 21.2,-4.1 19.7,-5.1 23,-6.3 1.4,-0.5 2.8,-0.8 4.1,-1.4 0.6,-0.2 1.4,-0.9 1.3,-1.4 -0.2,-2 -0.6,-4 -1,-6 -0.3,-1.3 -1.4,-1.3 -2.4,-1 -1.1,0.3 -1.3,1.1 -1,2.2 0.6,3 0.1,3.7 -2.9,4.2 -0.6,0.1 -7.4,0.8 -10.2,1.3 -2.8,0.5 -12.5,2.6 -14.5,3 -7.7,1.7 -15.5,3.4 -23.2,5.2 -3.9,0.9 -7.7,2 -11.6,2.8 -4.8,1 -9.7,1.9 -14.6,2.7 -4.1,0.7 -8.4,1 -12.5,1.8 -1.7,0.4 -2.6,0.1 -3.2,-1.4 -0.9,-2.3 -1.9,-4.5 -2.9,-6.7 -0.2,-0.5 -0.9,-1.2 -1.3,-1.2 -1.5,0.1 -3,0.5 -4.5,0.8 -1.2,0.2 -1.5,0.8 -1.1,2.1 1,3.5 2.7,6.6 4.7,9.6 1,1.4 2.1,2.5 3.5,2.2 z m 12.9,23 c -0.9,0.2 -1.8,0.5 -2.6,0.9 -1.9,0.9 -2.2,0.8 -3.1,-1.2 -0.9,-2.3 -1.7,-4.6 -2.4,-6.9 -0.3,-0.9 -0.9,-1.3 -1.7,-1 -0.3,0.1 -0.5,1 -0.5,1.4 0.4,3.4 0.9,6.8 1.4,10.2 0.4,2.5 0.7,2.6 4.1,2.7 0.7,-0.2 84.1,-13.4 88,-15.6 0.5,-0.3 1.2,-0.6 1.4,-1 1,-2.5 -0.8,-4.7 -3.4,-4.2 -4.5,0.8 -81.2,14.7 -81.2,14.7 z m -85.6,-149.4 c 0,-2 -0.6,-6.9 -0.6,-9.1 0.1,-5.3 2.3,-45.8 2.1,-46.3 -0.4,0.2 -1.8,1.1 -2.1,1.4 -1.1,0.9 -2.2,1.9 -3.4,2.7 -2.5,1.7 -3.6,3.9 -3.5,7 0.2,4.4 0.3,17.7 0.4,17.8 0.1,3.2 2.8,67.5 3,73.7 0,1.1 0.4,2.2 0.7,3.3 1.1,-0.3 2.3,-0.5 3.3,-1.1 0.5,-0.3 0.9,-1.1 1,-1.8 0.1,-0.8 0.1,-1.7 -0.1,-2.5 -1.1,-4.6 -1.5,-30.9 -1.5,-34.2 0,-2.4 -3.6,-11 -3.9,-12.9 -0.2,-0.9 0.3,-1.8 1.4,-2.4 1.1,-0.6 2.1,3.7 3.2,4.4 z M 14.410751,107.5 c 1,0.2 2.3,0.6 3,0.6 3.8,0.1 29.4,-1.3 35.2,-0.5 1.7,0.2 11.1,0.3 14.2,0.3 4.5,0 37.599999,-2.4 42.499999,-2.9 2.7,-0.3 5.3,-0.3 8,-0.5 3.7,-0.3 7.3,-3.5 9.9,-6 -1.7,-0.1 -5.2,0.8 -6.8,1 -2.9,0.3 -36.899999,2.5 -41.299999,2.5 -3.4,0 -27.2,0.7 -30.7,0.8 -3,0.1 -22.3,-0.3 -25.2,0.2 -2.8,0.3 -6.7,1.6 -8.8,4.5 z M 305.21075,252.4 c -2.5,0 -2.7,0.3 -2.3,2.6 0.3,1.7 0.5,3.3 0.6,5 0.4,3.9 -0.7,5 -4.6,5.4 -1.7,0.1 -13.4,4.4 -28.3,6.9 -7.3,1.5 -47.4,9.9 -54.6,10.2 -1.5,0.1 -1.8,1 -1.5,3 0.2,1.3 0.9,1.5 2.1,1.3 2.2,-0.4 31.1,-5.6 36.3,-6.7 4.4,-0.9 49.8,-10.9 53.7,-12 1.5,-0.4 2,-1.4 1.8,-2.9 -0.5,-3.5 -0.7,-7 -1.1,-10.5 -0.1,-2.3 -0.1,-2.3 -2.1,-2.3 z M 18.610751,195.8 c 0,-1.3 0.1,-2.4 0,-3.4 -0.7,-4.8 -5.4,-33.7 -5.6,-41 0,-0.4 -0.3,-0.8 -0.4,-1.2 -0.4,0.2 -5.9,9.6 -7.1,14.8 -0.9,3.6 -1.3,7.2 -1,11 0.5,5.9 2.7,10.2 6.8,14.3 2.1,2.2 4.3,4.1 7.3,5.5 z m 196.399999,95.1 v 0.8 c 0.7,0 21.6,-0.6 25.8,-1.1 6.8,-0.8 40.4,-6.3 50.4,-7.9 1.4,-0.2 2.3,-1 2.2,-2.5 -0.1,-1.4 -0.3,-2.9 -0.5,-4.3 -0.1,-0.9 -0.6,-1.3 -1.6,-1 -3.3,0.9 -19.2,4.7 -23.8,5.7 -3.8,0.8 -32,6.8 -37.2,7.3 -2.7,0.3 -12.8,2.5 -15.3,3 z m 52.3,1.1 c 6.4,-1 30.7,-5.4 36.5,-6.5 1.2,-0.2 1.6,-1.1 1.5,-2.2 -0.3,-3 -0.6,-6.1 -0.9,-9.1 -0.1,-1.3 -0.8,-1.9 -2.2,-1.7 -1.3,0.3 -2.7,0.5 -4.1,0.7 -1.9,0.3 -2.2,0.7 -1.8,2.6 0.3,1.5 0.6,3 0.8,4.5 0.3,2.5 -0.3,3.5 -2.6,4.4 -1.1,0.4 -38.3,6.2 -45,7.2 -2.7,0.4 -5.4,1.2 -8.1,1.4 -7.9,0.6 -26.9,1.5 -28.6,1.6 -2.1,0.1 -2.9,1 -2.6,3.1 0.1,0.7 0.3,1.3 0.6,2 0.4,1.1 1.4,1.5 2.4,1.4 2.2,-0.4 46.8,-8.3 54.1,-9.4 z m -56.8,-6.1 c 0.1,-2.3 0.1,-2.3 -2.2,-2 -0.8,0.1 -7,1.3 -9.2,1.8 -1,0.2 -1.7,0.1 -2.2,-1 -2.2,-4.6 -4.4,-9.1 -6.7,-13.5 -1,-1.9 -2.8,-2.2 -5.5,-0.7 -1.9,1 5.5,14.6 9.4,19 0.9,1 1.8,2.1 2.9,2.8 3,2 6.2,0.7 9.3,0.1 0.7,-0.1 5,-0.9 4.7,-3.1 -0.1,-1.1 -0.3,-2.2 -0.5,-3.4 z M 40.110751,202.8 c -0.1,-1.1 -3.1,0.2 -9.2,0 -6.2,-0.2 -8.3,-0.7 -8.3,-0.7 0.1,3.5 1,12.9 2,13 4.1,0.3 16.1,-1.4 16.1,-1.4 z"
     id="path14"
     inkscape:connector-curvature="0"
     style="fill-rule:evenodd" />
  <path
     d="m 351.61075,5.1 c 0,-1.1 0.7,-3.1 0,-3.8 -0.7,-0.7 -1.8,-1.1 -3,-1.1 -0.4,0 -11,0.2 -12.4,0.3 -1.9,0.1 -37.7,-0.4 -40.1,-0.5 -1.4,0 -26.4,0.2 -28.3,0.2 -1,0 -2,0.1 -2.6,0.6 -1.5,1.1 -3.8,3.4 -5,4.5 -0.4,0.4 -0.7,1.1 -0.6,1.6 0.2,1.5 0.3,2.9 0.4,4.4 0.3,3.4 2.7,26.2 3.3,31 0.1,0.8 0,1.2 -0.6,1.5 -2.4,1.2 -5.2,5.1 -7.9,8.4 -2.7,3.3 -5.3,10.4 -5.7,12 -1.1,5.1 0.9,14.1 1.2,14.7 1,2.5 2.2,5.1 4.9,6.6 0.5,0.3 0.8,0.7 0.9,1.5 0.4,3.2 1,6.5 1.6,9.9 0.3,1.6 1.5,5.8 1.5,5.8 1,3.6 2.5,7 4.3,10.1 0.3,0.5 1.2,0.7 1.7,0.6 1.4,-0.3 18.6,-4.6 19.4,-4.9 0.3,-0.1 0.6,0.1 0.4,0.3 0,0 0,0.1 -0.1,0.1 -0.8,1.4 -6.4,12.4 -6.5,12.5 -0.6,1.2 -2.8,5.5 -3.6,6.9 -0.5,0.8 -0.9,0.9 -1.6,0.5 -0.4,-0.3 -4.8,-2.2 -5.3,-1.5 -0.2,0.3 -0.3,0.7 -0.2,1.1 0.1,0.6 0.6,1.1 1.4,1.4 1.9,0.9 6.6,2.8 6.8,2.8 1,0 1.3,-0.9 1.5,-1.6 0.4,-1.5 8.5,-19.1 11.7,-23.6 0.3,-0.4 0.5,-0.6 0.7,-0.7 0.7,-0.2 7.4,-2.2 8.1,-2.9 0.7,-0.8 -3.3,-6.8 -3.3,-6.9 0,-0.1 0.3,-0.2 1,-0.3 1,-0.1 16.3,-1.3 17,-1.4 0.5,-0.1 0.9,0 1.1,0.7 0.1,0.4 4.2,13.3 4.2,13.3 0.6,1.4 5.2,15.1 5.4,15.5 0.5,1.3 1.7,1.5 2.7,0.5 0.2,-0.2 11.4,-8 14.3,-9.1 0.4,-0.1 0.8,-0.2 1,-0.2 0.6,0 1,0.3 1.6,1.4 0.5,0.9 1.1,1.8 1.7,2.7 l 0.1,0.2 c 0.6,0.9 1.4,1.1 2,0.5 0.6,-0.6 -0.9,-3.5 -1.2,-4 -0.3,-0.5 -1.6,-2.8 -1.9,-3.3 -0.5,-0.8 -0.9,-1.1 -1.5,-1.1 -0.3,0 -0.7,0.1 -1.2,0.4 -0.4,0.2 -14.9,8 -15.1,8 -0.2,0 -1.2,-2.3 -1.7,-2.9 -1.2,-1.9 -7,-20.9 -7.2,-21.7 -0.2,-0.5 -0.3,-1 -0.2,-1.2 0.1,-0.2 18.3,-1.5 19,-1.5 2.5,0 5.3,-0.1 8,-0.4 0.5,-0.1 4.8,-3 5.8,-3.6 1.3,-0.7 1.5,-1.7 1.5,-2.9 -0.1,-3.3 -0.2,-15.5 -0.2,-16.4 0.1,-2 0.4,-38.9 0.4,-40.7 -0.2,-5 0.3,-23.3 0.4,-24.3 z m -41.1,2.6 h 13.9 0.1 c 1.8,0 17.8,0.3 18.1,0.3 0.8,0.1 1.2,0.5 1.2,1.4 0,0 -0.3,9.9 -0.3,10.7 -0.1,1.4 -0.6,21.9 -0.8,24.3 v 3.7 c 0,0 -0.5,1.3 -2.7,3.6 -1.3,1.3 -12.3,12.4 -16.2,15.3 -8.5,6.3 -14.7,8.6 -17.9,10.2 -2.9,1.4 -12.6,3.7 -14.4,4.1 0,0 -1.9,0.4 -2.1,0.4 -0.4,0 -0.6,-0.1 -0.8,-1.3 -0.1,-1.1 -0.5,-7.8 -0.6,-8.8 -0.1,-1.2 -1.3,-2.4 -2.5,-2.6 -0.4,-0.1 -3.5,-0.5 -4.6,-0.7 -3.7,-0.9 -11.1,-3.5 -11.7,-4.2 -0.5,-0.7 -0.7,-1.8 -0.8,-2.7 v -0.1 c -0.4,-2.8 -3.7,-28.3 -4,-33.2 0,0 -2.5,-19.7 -2.3,-20.4 0.3,-0.7 46.9,0 48.4,0 z m 34.4,44 c 0.3,-0.5 1.6,-2.7 2.2,-3.9 0.7,-1.4 1.5,-3.6 1.6,-3.8 0,0.2 -0.9,41.1 -1,42.9 0,0.4 -0.3,0.9 -0.6,1.1 -0.9,0.6 -3.4,1.8 -3.5,1.8 -0.3,0 -0.4,-0.5 -0.4,-0.7 V 89 c 0.1,-1.8 1.6,-37.1 1.7,-37.3 z m -79.1,11.2 c -0.5,-0.2 -1,-0.4 -1.5,-0.6 -1.1,-0.6 -2.2,-1.2 -3.2,-1.9 l -0.2,-0.1 c -0.4,-0.3 -0.8,-0.4 -1.2,-0.4 -0.4,0 -1.2,0.2 -1.4,1.5 -0.3,1.8 -0.5,3.7 -0.7,5.5 -0.1,1.1 -0.3,2.3 -0.4,3.4 -0.1,0.6 -0.2,1.2 -0.3,1.8 -0.1,0.9 -0.3,1.7 -0.4,2.6 -0.2,1.6 -0.3,3.1 -0.4,4.7 -0.1,0.8 -0.1,1.5 -0.2,2.3 0,0.1 0,0.3 -0.1,0.5 -1,-0.6 -1.6,-1.3 -2,-2.1 -2.1,-4.5 -3.1,-9.8 -2.2,-15.7 0.7,-4.1 2.8,-8.5 5.9,-12.1 1.3,-1.6 3.9,-4 6,-5.4 l 2.7,16.1 c -0.1,0 -0.3,-0.1 -0.4,-0.1 z m -7.1,24.2 c 0.1,-0.1 0.4,-0.2 0.7,-0.1 0.6,0.1 1.4,0.1 2.1,-0.1 0.4,-0.1 0.9,-0.5 1,-1 0.1,-0.4 -0.3,-1 -0.7,-1.2 -0.4,-0.2 -1.6,-0.4 -1.8,-0.5 -1.3,-0.3 -1.5,-0.5 -1.4,-1.8 0.1,-1.8 1.2,-16.8 1.3,-17.7 0.1,-1.1 0.2,-1.2 0.4,-1.2 0.3,0 6.3,3.2 8,3.9 2,0.8 15,4.9 15.8,5.1 0.7,0.2 1.1,0.4 1.1,1 0.1,1.4 0.6,6.4 0.7,7.6 0,0.2 0,0.3 -0.1,0.4 -0.1,0.1 -5.4,-0.2 -5.6,-0.1 -0.4,0.2 -0.9,0.7 -0.9,1.2 0,0.4 0.6,1 1.1,1 0.6,0.1 4,0.2 4.5,0.3 1.7,0.3 1.7,0.3 2,1.9 0.7,3.2 1.5,6.7 3.3,9.9 0.8,1.4 4.3,6.3 4.3,6.5 -0.1,0.2 -0.3,0.3 -0.9,0.5 -3.2,1 -6.7,2.2 -11.1,3.7 0,0 -4.4,1.5 -6.7,1.6 -1.2,0 -9.6,1.8 -9.7,1.8 -0.6,0.1 -0.9,-0.2 -1.3,-0.9 -2.2,-3.9 -3.4,-8.1 -4.5,-12.2 -0.5,-2.1 -1.4,-8.3 -1.6,-9.1 -0.1,-0.1 -0.1,-0.4 0,-0.5 z m 33.4,6 c -1,-2.6 -2.8,-8.7 -2.7,-8.8 0.1,-0.2 0.4,-0.4 0.8,-0.4 11.4,-1.2 23.7,-6.7 31.9,-12.1 8.2,-5.4 17.3,-15 18.2,-15.8 0.5,-0.5 1.8,-1.7 1.8,-1.7 0,0 0.6,-0.6 0.6,-0.6 0.1,0.1 -0.3,5.8 -0.3,5.8 l -1.7,28.9 c -0.1,1.9 -0.4,2.2 -2.2,2.3 -1.3,0.1 -41.2,3.3 -45.2,3.4 -0.4,-0.1 -1.1,-0.6 -1.2,-1 z m 56.5,-54.3 v 0.5 c -0.5,-0.1 -0.8,-0.1 -1.1,-0.1 -0.9,0 -2.1,5 -2.4,5.9 -0.1,-0.5 0.6,-27.1 0.7,-30.9 0.1,-1.8 0.2,-3.6 0.4,-5.6 0,-0.4 0.3,-0.8 0.6,-1.2 0.4,-0.5 1.8,-1.4 2.1,-1.5 h 0.1 c 0,0 0,0.1 0.1,0.1 0.1,0.2 0.2,0.4 0.2,0.6 -0.2,0.5 -0.7,31.6 -0.7,32.2 z m -2.2,-34.1 c -1.2,1 -3.1,1.2 -4.7,1 -1.6,-0.2 -17.8,0 -17.8,0 -1.7,0 -17.7,-0.4 -18.8,-0.4 -2.2,0 -22.4,-0.3 -24.6,-0.3 0,0 -12.9,0.3 -15,0.4 0,0 -2.1,0 -2.3,-0.1 h -0.1 V 5.2 c 0.3,-0.1 3,-2.5 3.8,-2.7 2.8,-0.7 67.6,-0.4 77.3,-0.2 2.3,0 4.6,0.4 4.8,0.5 0.7,0.5 -2.4,1.6 -2.6,1.9 z"
     id="path16"
     inkscape:connector-curvature="0" />
  <path
     d="m 458.01075,215.8 c -0.1,-0.9 -1.6,-2.4 -2.4,-2.3 -1.6,0.1 -2.7,1.2 -2.6,2.6 0.1,1.2 1.4,2.4 2.6,2.4 1.1,0 2.4,-1.5 2.4,-2.7 z"
     id="path18"
     inkscape:connector-curvature="0"
     style="fill:none" />
  <g
     id="g40"
     style="fill-rule:evenodd"
     transform="translate(-160.28925,-112.5)">
    <path
       d="m 583.8,352.5 c -0.4,1.5 -0.4,2.5 1.8,3.2 2.2,0.6 8.7,3.7 13.2,5.1 3.5,1.1 7.4,2.5 10.8,3.6 1.1,0.4 1.9,-2.4 2,-3 0.2,-0.8 0.5,-1.9 1.6,-1.4 0.9,0.3 1.7,1 1.2,2.3 -0.4,1.2 -0.7,5.5 -1.8,6.1 -1.2,0.6 -2.1,0 -3.2,-0.6 -1.9,-1.1 -25.5,-9.4 -28.2,-10.7 -1.5,-0.8 -1.7,-1.8 -1.2,-3.6 0.1,-0.5 0.2,-1.1 0.3,-1.6 0.2,-1.1 0.5,-2.4 2.1,-2.1 1.7,0.2 1.6,1.4 1.4,2.7 z"
       id="path20"
       inkscape:connector-curvature="0" />
    <path
       d="m 618.3,328.3 c 0.1,1.2 -1.2,2.6 -2.4,2.6 -1.2,0 -2.6,-1.2 -2.6,-2.4 -0.1,-1.4 1,-2.5 2.6,-2.6 0.8,0 2.3,1.5 2.4,2.4 z"
       id="path22"
       inkscape:connector-curvature="0" />
    <path
       d="m 230.7,278 c -0.5,-0.5 -1.6,-1 -1.8,-1.8 -0.3,-1.4 1,-1.7 2.1,-1.8 4.1,-0.3 8.2,-0.7 12.3,-0.9 1.3,-0.1 2.2,-0.1 2.2,-1.8 0,-0.6 0.1,-1.6 1.2,-1.7 1.1,-0.1 0.8,1.1 1.1,1.7 0.1,0.3 0.1,0.6 0.2,0.9 0.7,2.2 0.2,3 -2.1,3.3 -3.8,0.5 -7.6,0.9 -11.3,1.4 -1.1,0.1 -2.3,0.4 -3.9,0.7 z"
       id="path24"
       inkscape:connector-curvature="0" />
    <path
       d="m 245.9,255.9 c 0.4,1.1 -1.4,2.8 -2.6,2.8 -0.7,0 -1.9,-1.8 -1.9,-2.7 0,-0.9 1.3,-2.2 2.5,-2.2 1.1,0 1.6,1 2,2.1 z"
       id="path26"
       inkscape:connector-curvature="0" />
    <path
       d="m 208.5,256.3 c 0.7,0.9 -0.9,3.1 -2.1,2.9 -0.9,-0.2 -2,-0.4 -2,-1.8 0,-1.1 1.4,-2.1 2.9,-2 0.5,0.1 0.5,0 1.2,0.9 z"
       id="path28"
       inkscape:connector-curvature="0" />
    <path
       d="m 716.1,221 c -2.5,-0.1 -43.4,-1.2 -50,-1.3 -5.9,-0.1 -94.8,-3.1 -99.8,-3.6 -1.6,-0.2 -13.7,-0.7 -14.1,-0.5 -0.4,0.2 -1,0.7 -1,1 0,0.5 0.4,1.2 0.7,1.5 0.4,0.3 75.8,2.4 80.2,2.5 3.8,0.1 7.6,0.3 11.4,0.4 7.1,0.2 63,1.4 68.4,1.5 1.4,0 1.5,0.1 4.3,0.1 2.8,0 2.4,-1.5 -0.1,-1.6 z"
       id="path30"
       inkscape:connector-curvature="0" />
    <path
       d="m 320.1,216.8 c 8.2,0.1 36,0.1 41.8,-0.1 3.7,-0.1 32.3,-0.2 34.9,-0.2 0.9,0 1.5,2.3 0.4,2.7 -0.5,0.2 -17.2,0.2 -20.1,0.3 -6.4,0.3 -61.8,-0.5 -64.9,-0.6 -7.1,-0.3 1.4,-2.2 7.9,-2.1 z"
       id="path32"
       inkscape:connector-curvature="0" />
    <path
       d="m 544,206.6 c -4.5,1.3 -7.6,3.5 -11.6,5.6 -2.7,1.4 -5.2,3.6 -7.4,5.4 -0.3,0.2 -0.5,0.7 -0.8,0.8 -0.4,0.2 -1.6,-2 -1.3,-2.3 1.4,-1.2 6.1,-5.3 8.2,-6.8 5.3,-3.6 9.1,-4.2 12.6,-5.6 0.2,0 0.6,2.8 0.3,2.9 z"
       id="path34"
       inkscape:connector-curvature="0" />
    <path
       d="m 530.8,195.3 c 0.2,-0.2 -2.1,-0.9 -2.3,-0.7 -1.6,1.5 -3.4,2.9 -4.6,4.6 -2.5,3.6 -4.3,6.9 -6.2,10.2 -0.8,1.3 -1.5,2.7 -2.1,4.1 -0.4,0.8 1.1,1.7 2.1,1.7 0,-0.1 0.3,-0.3 0.4,-0.6 0,0 3.9,-7.2 6.4,-10.6 2.6,-3.5 6.3,-8.7 6.3,-8.7 z"
       id="path36"
       inkscape:connector-curvature="0" />
    <path
       d="m 581.7,306 c 0.6,1.5 -1.5,3.2 -2.6,2.9 -1.1,-0.3 -2,-0.9 -2,-2.7 -0.1,-1.8 0.3,-2.6 2,-2.6 1.6,0 2,0.9 2.6,2.4 z"
       id="path38"
       inkscape:connector-curvature="0" />
  </g>
  <path
     d="m 317.81075,48.6 c -1.5,-0.2 -13.6,0.3 -13.6,0.3 -2,0.1 -10.4,0.1 -12.3,0.1 -1.5,0 -3,-0.1 -4.5,-0.1 -0.7,0 -0.9,-0.2 -1,-0.9 -0.1,-0.6 -0.4,-1.3 -0.7,-1.7 -0.2,-0.3 -0.6,-0.5 -0.8,-0.5 -0.3,0 -0.8,0.2 -0.9,0.9 -0.2,1.1 -0.3,2.4 0.3,3.6 0.5,0.8 1,1.2 1.8,1.2 h 0.5 c 0.7,-0.1 11.2,0 13.5,0 2.9,0 19,-0.4 19.7,-0.4 1.1,0 2.3,0.1 3.4,0 0.7,0 1.4,-0.3 1.8,-0.6 0.9,-0.8 1,-4.3 0.3,-5.2 -0.3,-0.4 -0.9,-0.5 -1.2,-0.5 -0.3,0 -0.5,0.4 -0.7,0.9 -0.1,0.2 0.1,2.2 -0.1,2.5 z"
     id="path42"
     inkscape:connector-curvature="0" />
  <path
     d="m 321.21075,23.5 c 1.2,-0.1 1.4,0.7 1.6,1.4 0.3,0.8 -0.6,1.8 -1.5,1.9 -0.7,0.1 -1.7,-1 -1.5,-1.9 0.2,-0.6 0.1,-1.3 1.4,-1.4 z"
     id="path44"
     inkscape:connector-curvature="0"
     style="fill-rule:evenodd" />
  <path
     d="m 282.61075,23.6 c 1,-0.4 2,0.8 1.8,1.6 -0.1,0.5 -0.8,1.2 -1.4,1.3 -0.8,0.3 -1.8,-0.6 -1.5,-1.5 0.1,-0.6 0.1,-1 1.1,-1.4 z"
     id="path46"
     inkscape:connector-curvature="0"
     style="fill-rule:evenodd" />
</svg>
