<?xml version='1.0' encoding='utf-8'?>
<svg xmlns="http://www.w3.org/2000/svg" viewBox="0 0 841.9 595.3"><path d="m302.2 145.6 66.6-14.2.6 6.6-7.2 46.6-37.2 5.2-21-31.5-3.5-10.9" fill="#ebe200" fill-rule="evenodd"/><path d="m259.8 365.2 40.8-30.1 7.6 2.4-5.5 55.8-22 12-9.3-1.3-14.1-37.6z" fill="#74c5bf" fill-rule="evenodd"/><path d="m523.2 138.4-9.9 10.5-.3 45.8 47.7 10.3 17.1-54.7-1.3-6.3z" fill="#7ac191" fill-rule="evenodd"/><path d="m370.1 238 .4 20.8 16.2 57.6 54.6 3.3 11.4-68 2.3-9-1.7-5z" fill="#7ac191" fill-rule="evenodd"/><path d="m484 370.3 52.8-32.4 3.9 8.4-12.1 61.4-35.4 15.7-9-5.1z" fill="#ebe200" fill-rule="evenodd"/><path d="m521.8 141.2s10.1 1.1 13.6 1.6c2.5.3 4.9.8 7.4 1.1 3.1.4 6.3.7 9.4 1.1 2.3.3 4.6.6 6.9.8h.1c2 .1 4.1.2 6.1.2 2.5 0 4.9-.1 7.4-.1 1.1 0 1.7.7 1.9 1.5.6 2.5 1.2 5.1 1.6 7.7.1.8-.2 1.7-.5 2.5-.6 2.1-1.2 4.1-1.9 6.2-.4 1.2-.9 2.3-1.3 3.5-.8 2.2-1.5 4.5-2.2 6.8-.4 1.3-.7 2.6-1.1 3.8-.6 1.8-.7 3.5-.3 5.5 1.2 5.7 2.1 11.5 1.8 17.4 0 1-.3 2.1-.6 3.1-.4 1.2-.9 2.4-1.3 3.7-.3.9-.9 1.3-1.6 1.2-.9-.2-1.1-.8-1-1.6.1-.7.2-1.4.5-2 1.2-2.3 1.5-4.8 1.3-7.3-.3-3-.6-6.1-.9-9.1 0-.2-.1-.3-.1-.5-.1.2-.2.3-.3.5-1.5 5.3-3 10.6-4.5 15.9-.7 2.5-1 5.1-1.9 7.5-.8 2.4-1.8 2.6-4 1.9-2.1-.7-4.1-1.7-6.2-2.2-2.3-.6-4.7-.9-7.1-1.2-.2 0-.7.2-.8.4-.3.6-.6 1.3-.6 2-.3 3.8-.6 7.7-.9 11.5-.1 1-.5 1.8-1.3 2.5-1 .8-1.8 1.7-2.8 2.4-.6.4-1.1 1.1-2 .8-1.2-.4-1.6-2-.7-3.2.6-.8 1.3-1.6 1.9-2.5 1.2-1.7 1.7-3.7 1.8-5.8.2-2.4.6-4.9.9-7.3.2-1.2-.1-1.6-1.2-1.9-2.8-.6-5.5-1.2-8.3-1.8-1.3-.3-2.5-.5-3.8-.8-1.1-.2-1.7 0-1.7 1.2-.1 3.4-1.2 6.7-.4 10.1.1.4.1.9 0 1.4 0 1.1-.4 1.6-1.5 1.8-2 .3-3.6 1.2-5.1 2.5-.3.3-.7.5-1 .7-.6.3-1.2.7-1.8.1-.4-.4-.5-1.7-.1-2.2s.7-.9 1.2-1.3c1.2-1 2.3-1.9 3.5-2.8 1.2-1 1.9-2.2 1.9-3.8 0-2.3 0-4.6 0-6.9 0-1.8-.2-2.1-2-2.7-3.8-1.3-7.5-2.7-11.3-4-1.4-.5-1.9-1.5-1.7-3 .2-1.7.3-3.4.4-5.1.2-3.3.3-6.7.5-10 0-.7.2-1.5.3-2.2.1-.9-.2-1.2-1.1-.7-3.4 1.8-13.8 7.3-13.8 7.3s-3.1 8-3.9 11.4c-1 4-1.9 8-2.7 12.1-.4 2.2-.6 4.5-.8 6.7-.3 4.4-.5 8.8-.8 13.5.4 6.3.7 13.1 1.3 19.8.3 3.8 1.1 7.5 1.8 11.3 1.2 6.7 2.9 13.3 5 19.8 1.5 4.4 2.9 8.7 4.5 13 .8 2.3 1.9 4.5 3 6.6 2.5 5 4.8 10 7.5 14.9 2.7 4.8 5.5 9.5 9.2 13.6 1.5 1.7 2.9 3.6 4.4 5.3.6.7 1.3 1.3 2.1 1.8.2.1.7-.1 1-.3 1.3-1 2.6-2 3.9-3.1.8-.7 1.5-1.5 2.3-2.1 1.1-.8 2.4-.7 3.5-.2 1.8.8 3.6 1.7 5.1 2.9s2.6 2.8 2.6 5c0 2.3-.6 4.5-1.1 6.8-.1.3-.2.6-.2.8-.6 2.2-.6 2.2 1.5 3.2 2.7 1.3 5.4 1.5 8.2.9.9-.2 1.9-.2 2.9-.4.7-.1 1.5-.3 2.2-.7 1.4-.8 2.8-1.8 4.2-2.7.7-.4 1.4-.3 1.9.2.6.6.7 1.2.4 1.9-.2.4-1.7 1.5-1.7 1.5s-.1.3.8 1.1c2.9 2.8 5 6.2 5.9 10.1 1.1 4.3 1.9 8.7 3.1 12.9 1.2 4.3 2.8 8.4 4.2 12.6.4 1.3.9 2.5 1.3 3.8 1.9 5 4.4 9.6 8.2 13.6 1.4 1.4 2.8 2.8 4.4 3.9 1 .7 1.7 1.7 2.6 2.5.8.7 1.6 1.3 2.4 2 .5.4.9.7.5 1.3-.4.7-1 .5-1.5.2-.6-.5-1.2-1-1.8-1.5-1.9-1.6-3.9-3.1-5.6-4.8-3.4-3.4-6.6-6.9-8.6-11.3-1.4-3.2-3-6.2-4.3-9.4-.9-2.4-1.5-5-2.2-7.5-.8-3-1.6-6-2.4-9.1-.5-2.2-.8-4.4-1.4-6.6s-1.3-4.3-2.3-6.3c-.9-1.7-2.1-3.3-3.4-4.8-1.2-1.4-1.3-1.7-1.3-1.7s-13 9.4-18.4 13.5c-1.4 1-2.7 2.1-3.9 3.3-.6.6-1 1.5-1.2 2.4-1.4 6.1-2.4 12.3-3.2 18.5-.3 2.5-.4 5-.6 7.5-.1 1.7-.3 3.3-.4 5-.1 1.9-1.3 2.6-2.8 3.3-2.6 1.1-5.1 2.3-7.6 3.6-1.3.7-1.7 1.6-1.5 3.1.1.6.2 1.2.2 1.9.1 3.7.2 7.4.2 11 0 1.9-1.1 2.5-2.7 1.6s-3-2.1-4.5-3.1c-1-.7-1-1.8-.8-2.8.2-.8 1.2-.9 2.1-.3.8.6 1.6 1.2 2.4 1.8.3.2.7.2 1 .4 0-.3 0-.6 0-1-.3-3.1-.5-6.2-.8-9.4-.1-1.2-.2-1.3-1.3-.8-2.2 1.1-4.4 2.1-6.7 3.2-.8.4-1.3.8-1.2 1.9 0 2.6-.2 5.2-.2 7.7 0 .9.1 1.7.1 2.6 0 .1.1.2.1.4-.1 2.6-.9 3.2-3.1 2.2-1-.5-2.1-.9-3.1-1.4-1.1-.5-1.5-1.3-1.2-2.4.2-1 1.1-1.4 2-1 .6.3 1.1.7 1.7 1s.9.1.9-.6c-.1-2.2 0-4.3-.1-6.5 0-1.4-.4-1.6-1.7-1-3.2 1.5-6.4 2.9-9.7 4.4-1 .5-2 .3-3-.2-2.4-1.2-4.8-2.4-7.3-3.6-1.1-.5-1.6-1.5-1.6-2.6 0-4.8 0-9.7 0-14.5 0-2.2-.1-4.5-.1-6.7 0-.7-.3-.8-.8-.5-2.8 1.5-5.6 2.9-8.4 4.4-.2.1-.3.2-.5.3-2.2 1-4.3 1.9-6.5 2.9-1.4.6-5.2 2.7-5.2 2.7s-1.5 5.2-7.1 10.6c-8.2 7.8-20.1 13.3-34.8 14.9-14.6 1.6-14.7 1.3-22.1.4-5.7-.7-11.2-2.3-16.7-4-3.4-1.1-6.8-2.2-10.2-3.5-2.3-.9-12.1-5.2-14.7-6.4-2.7-1.3-5.3-2.6-7.9-4.1-3.6-2.1-7.1-4.2-10.5-6.6-2.9-2-5.6-4.3-7.8-7.2-.8-1.1-1.7-2.1-2.5-3.1-.1-.1-.3-.2-.5-.3-.1.2-.2.4-.3.6-1 5.5-1.9 11.1-3 16.7-.7 3.8-1.3 5.7-3.8 11-2.4 5.3-7 14.1-9.3 18.1-2 3.4-5.5 9.8-13.5 16.7-8 7-11.7 9.3-14.7 11.7-.4.3-1.2-1-.8-1.3 1.2-1 7.8-5.9 13.5-10.8s11-12.4 13.2-15.5c1.3-1.9 9.9-19 12-23.9 1.2-2.8 3.3-13.9 3.7-16.4.6-3.2 1-6.4.9-9.7-.1-1.3 0-2.4 0-2.4l-9.3-.8s-4.7 4.3-6 5.2c-.8.6-1.2 1.4-1.2 2.2 0 2.3.1 4.6.4 6.8.2 1.6.1 2.5 1.3 3.4.7.6 2.8 1.3 3.6 1.9.1.1.2.3.3.4.5.9.4 2.3-.1 2.8-.6.6-1.6.5-2.7-.2-1.2-.8-2.4-1.7-3.7-2.5-1.8-1-2.2-1.8-1.7-3.9.6-2.4.6-5.5.2-7.9-.2-1-.8-1.6-1.8-1-.6.4-2.4 1.6-3 2-1.1.8-.1 2.2.1 3.3.3 2.5.8 4.9 1.2 7.4.1.5.2.9.3 1.3.2.7.6 1.1 1.4 1.1 1 0 2.1.2 3.1.3 1.5.2 1.8.6 1.7 2.2 0 1.4-.2 1.1-1.6 1.1-1.7.1-3.3-.2-5-.2-.9 0-1.5-.6-1.6-1.5-.5-3-.5-4.2-1-7.2-.2-1.4-.8-2.8-1-4.1-.1-.8-.6-2.2-1.2-1.8-1.9 1.2-3.5 2.4-5.5 3.5-1.4.8-2.1 1.4-3.6 1.4-.6 0-7.7-1.1-8.5-2.4-.8-1.5-1.4-3-2-4.6-1.6-4.1-2.6-7.4-4.2-11.5-1.7-4.4-3.4-9-5.1-13.4-.9-2.3-1.5-5.4-2.4-7.8-.4-1.1.4-2.7 1.1-3.6 6.8-4.7 17.3-12 21.2-14.4 1.7-1 4.6-3.1 6.3-4.2s3.4-2.4 5.1-3.6c0 0 9.4-6.1 9.6-6.3 1.2-1.2 2.2-.6 3.7-.7 1.1 0 2.5.5 3.6.5 2.7.1 3 1.6 2.8 3.5-.3 2.7-.6 13.1-.8 15.7 0 .2.1.4.2.7.2-.1.5-.1.7-.2.5-.4 12.2-11.4 12.2-11.4s-.1-.1-.9-1c-1.1-1.2-2.3-2.4-3.4-3.6-.9-1-3.4-4.3-3.8-4.8-2.5-3.4-5.2-6.8-7.4-10.4-1.9-3-6.8-14.5-7.7-17-1.4-4.1-5.2-20.6-6.1-24.6-.6-2.9-1.3-5.7-1.6-8.6-.6-5.5-1-11-1.3-16.5-.5-7.5-.9-15-.3-22.4.4-4.9 2.8-14.5 2.8-14.5s-1.3 2.4-2.7 1.3c-1.1-.8-.6-1.9-.1-2.4.4-.6.7-1.2.7-1.2s-2.8 1.6-6.4 3.2-9.9 3.7-12.6 4.4c-5.3 1.4-10.8 2-16.2 2.4-3.9.3-7.8.4-11.8-.1-1.9-.3-8.1-1.3-9.4-1.4-.4 0-.8 0-1.1-.1-.2-.1 0-1.2.2-1.1 2.7.3 13.7 1.9 16.4 1.8 4.3-.1 16.8-1.9 18.8-2.3 2-.5 16.9-5.3 18.8-6.3 1.9-1.1 4.1-2.3 4.1-2.3s-.5-.1-1.3-.5c-1.7-.9-3.5-1.8-5.1-2.9-1-.6-9.4-6.6-12.4-18.4s-2.8-19-2.8-21.1c0-1.4.3-2.8.5-4.2.1-.3 1.6-.4 1.6-.3-.1 1.7-.3 2.4-.2 5.7s1.7 15.9 2.2 17.8c1.6 6.4 3.5 9 5.8 12.1 5 6.7 10.7 9.3 11.6 9.7.8.3 1.3.4 1.3.4s12.1-28.1 13.2-30.5c.4-1 .8-2 1.3-3 .7-1.6 0-2.9-.8-4.2-1.6-2.5-6.2-9.9-7.4-10.9-.8-.7-.7-1.7-.5-2.6.5-2.6 1.2-5.1 1.8-7.7.2-1 .7-1.4 1.6-1.7 3.7-1.1 7.4-2.4 11.1-3.4 4-1.1 17.8-4.7 20.7-5.4 3.5-.9 20.1-5 24.8-6.3 2.8-.8 5.6-1.8 8.4-2.7 1.4-.5 1.7-.4 2.6.8 1.5 2.1 2.6 4.3 2.8 6.9 0 1-.1 2.1-.2 3.1-.5 2.9-2.4 14-2.7 16.6-.1.8 0 1.4.6 2.1 1.2 1.5 2.3 3.2 2.8 5.1.3 1.1 1.5 5.6 1.5 6.8.1 2.7.1 8.9-.1 9.1-.3.4-.8.9-1.3.9-.4 0-.9-.5-1.2-1-.2-.3 0-6.2-.1-8.8-.1-3-1.1-5.7-2.3-8.4-.1-.2-.4-.4-.6-.6-.1.3-.2.5-.2.8-.6 4.5-2.4 18-2.7 20.2-.4 2.6-1.5 3.7-4.2 4.2-1.4.3-2.8.6-4.3 1-1.7.4-2.5 2.7-1.5 4.4.5.8 1.2 1.6 1.9 2.3 2 1.9 4.1 3.7 6 5.7.8.8.7 1.9.3 2.9-.3.7-.9 1-1.6.9-.4-.1-.9-.2-1.2-.5-1-.9-2-1.9-3-2.9-2-1.8-3.6-3.9-5.9-5.4-.8-.5-1-1.4-.8-2.3.2-1.1.5-2.1.7-3.2.2-1 0-1.2-.9-1-2.9.7-5.8 1.3-8.8 2-.6.1-1 .5-.9 1.1.1 1.5 0 3 .2 4.5.1 1.2.8 2.2 2.1 2.8 1.6.7 3.1 1.4 4.7 2.1.8.3 1.4.7 1.5 1.7.1 1.2-.3 2.1-1.2 2.7-.2.2-.7.1-.9 0-2-.9-4-1.9-5.9-2.9-.3-.1-.6-.3-.9-.4-1.2-.3-1.9-1.2-2.1-2.3-.3-1.5-.3-3.1-.5-4.6-.1-1-.2-2-.3-3-.1-.9-.8-.7-1.3-.7-1.2.2-10.8 2.5-11.7 2.5-1.9.1-3.1-1.3-4.2-2.5-.7-.8-5.9-9.5-8-12.9-.7-1.1-1.4-2.2-2.1-3.3-.6-.8-.9-.8-1.3.1-1.1 2.5-11.4 26.4-12.7 29.5-1 2.5-.7 2.1-.7 2.1s7.7 2.2 10.4 3c4 1.1 7.9 2.6 12.1 3.2 2.5.3 4.9 1.3 7.4 1.8 2.8.5 5.6.9 8.4 1.2 5.8.7 11.5 1.4 17.3 1.8 3.5.3 7 .2 10.5.1 4.4-.2 8.8-.5 13.3-.8 4-.3 8-.9 12-1.1 7.1-.3 14-1.8 21-2.7 5.1-.6 10.2-1.5 15.2-2.5 5.5-1 10.9-2.3 16.3-3.5 3.5-.8 7-1.6 10.4-2.7 4.4-1.4 8.6-3.1 12.6-5.5 2.5-1.5 5.1-2.8 7.5-4.5 3-2 6.1-4 8.5-6.8.9-1 3.9-4.7 3.9-4.7s-1.7.7-2.8-.1c-.4-.3-1.1-2-.3-2.7.9-.7 3.3-1.1 3.3-1.1s-1.1-.3-3.8-2.6-3.8-3.7-5-6c-1.4-2.6-2.7-5.4-3.9-8.1-.9-2.1-1.7-4.3-2.6-6.4-1.3-3-2.7-6-3.5-9.2-.9-3.6-1.9-7.1-2.2-10.8-.3-3.5-.8-7-1.1-10.5-.1-1.6.2-3.2.3-4.9.2-2.1.4-4.2.6-6.2 0-.2 0-.5.1-.6.2-.2.4-.4.7-.6.2.2.6.5.6.7.1 1.2.1 2.4 0 3.5-.5 4-.6 8-.2 12 .5 4.8 1.1 9.6 2.3 14.3 1.1 4.6 2.8 8.8 4.6 13.1 1.4 3.4 2.8 6.8 4.4 10.1 1.5 3.1 4 6 5.9 7.7 1.8 1.6 5.1 3.3 5.1 3.3s10-4.9 14.2-7.9c1-.7 1.5-1.8 1.6-3.1.1-2.6-.5-4.9-1.7-7.1-.5-.9-.8-2-.9-3.1-.1-.9.2-1.8 1.1-2.3.7-.4.9-1 .9-1.8 0-2.2.1-4.4 0-6.6 0-2 .9-3.3 2.3-4.6 1.9-1.6 3.6-3.3 5.5-4.9.5-.4 1-.8 1.6-.9 1.5-.1 3.1-.1 4.6 0zm-235.4 207.2c-2.4 1.5-16.7 10.4-19.7 13.4-.7.7-.7.9.1 1.3s1.8.7 2.6 1.1c.8.3 1.5.2 2.2-.3 1.3-1 7.4-5.4 9.1-6.8 3.3-2.7 29.1-21.4 29.2-22 .1-.7-2.9-.9-2.9-.9-.6.4-19.2 13.4-20.6 14.2zm167.4-70.8c0-.2-.1-.3-.2-.4-.1.1-.2.3-.2.5-.1.7-.2 1.5-.4 2.2-.6 3-6.7 41.6-7 42.8-.3 1.4-.8 1.8-2.2 1.6-2.8-.3-19.2-1.5-22.8-1.5-1.4 0-1.8.5-1.6 1.8 0 .4.2 6.1.3 8.6 0 .5.2 1 .4 1.4.9 1.7 3 5.9 3.1 6.4.1.7-.2 1.1-.9 1.3-.6.2-1.2.2-1.7-.4-.6-.9-5-8-5-11.3 0-2.1 0-4.3 0-6.4 0-.8-.2-1.2-1-1.2-3.1-.2-6.2-.4-9.4-.5-.8 0-1.1.6-1.1 1.5.1 1.6 0 6.8.3 7.6.7 1.3 3.9 5.4 4.3 6.4.3.6.5 1.4-.2 2-.8.6-1.5.5-2.3-.1-.2-.1-2.9-2.9-4.2-4.1-.8-.8-1.1-1.8-1.1-2.8.1-2.4.2-8.4.1-9-.2-1-.8-1.5-1.8-1.6-1.3 0-10.3-.4-13.5-.5-1.4 0-2.2-.6-2.7-1.8-.6-1.6-1.3-3.2-1.7-4.9-1-4.7-1.9-9.5-2.8-14.3-.6-3.2-5.4-27.4-6.2-30.9-.3-1.4-.6-1.5-1.7-.6-.2.1-13.8 18.6-13.8 18.6s3.2 8.9 3.6 19.6c.1 1.7-.2 5.3-.2 5.4-.1 3.1-.9 6.9-1.9 9.7-1.4 3.6-6.7 13.1-10.4 16.1-3.7 2.9-8.8 5.3-11.9 5.7-1.7.1-1.7.5-1.1 1 2.1 1.9 4.5 3.5 6.8 5.1 1.2.8 2.7 1.3 4.1 1.9.6.3-.2 2-.6 1.8-1.6-.6-2.1-.2-5.5-2.4s-5.4-4-8-6.8c-.6-.6-1-1.1-1-1.1s-3.6 2.1-4.6 3.1c-3.6 3.5-7.2 5.8-10.8 9.4-1.1 1.1-1.3 4-1.2 5.6 0 1-.2 2.1-.3 3.1-.4 3.7-.8 7.5-1.2 11.2-.2 2.2-.5 4.3-.7 6.5-.2 1.6-.3 2.7-.3 2.7s7.7.6 10.3.8c.9.1 1.8.3 2.7.5 1 .2 1.4.4 1.4 1.5s-.4 1.5-1.6 1.5c-.4 0-1.7-.1-1.7-.1s.3 1.6.4 1.9c2.8 4.5 6.4 8.4 10.6 11.5 5 3.7 10.3 7.1 16 9.8 2.9 1.4 18.6 8.4 23.7 10.1 2.9 1 14.8 4.4 17.7 4.8 3.8.6 7.6.7 11.4.9 2.1.1 10.8-.7 13.1-1.1 3-.5 5.9-1 8.9-1.7 4.4-1 8.3-3.1 12.3-4.9.4-.2 4.9-2.7 10.1-6.2 5.2-3.6 7.9-9.4 7.9-9.4s-1.8.9-2.8.2c-.9-.6-.7-1.6 0-2.4.4-.4 1.3-.7 1.8-1 1.9-.9 3.8-1.6 5.7-2.5 3.9-1.8 7.9-3.6 11.8-5.5 2.2-1.1 4.3-2.4 6.4-3.7 1.3-.8 1-2.2.9-3.4-.4-3.6-.8-7.2-1.3-10.8-.4-3-.3-6-1.5-8.9-.2-.5-.1-1.3.3-1.7.5-.6 1.3-1.2 2.1-1.5 1.9-.9 3.8-1.7 5.6-2.7 4.1-2.2 8.2-4.4 12.2-6.7 3.4-2 6.7-4 10-6.2 4.2-2.8 8.2-5.8 12.3-8.8 1.1-.8 1.2-1.2.3-2.3-.1-.2-.3-.3-.4-.5-2.5-3-5.1-5.9-7.3-9.1-2.4-3.3-4.4-6.8-6.5-10.3-1.8-3.1-3.4-6.4-5-9.7-1.6-3.2-3-6.5-4.6-9.7-1.3-2.9-2.6-5.8-3.6-8.8-2.3-6.7-4.5-13.4-5.8-20.3-.5-2.7-1.1-5.3-1.6-7.9-.5-3-.9-5.9-1.3-8.9-.4-2.9-.7-5.7-.9-8.6-.3-4.4-.4-8.8-.5-13.1 0-.7.1-1.3.1-2 .1-2.1 0-4.2.2-6.2.4-4.3.9-8.6 1.5-12.9.4-2.8 1.1-5.5 1.7-8.2.5-2 2.2-6.2 2.5-7.4s.3-1.3-.6-.6c-.8.6-6.2 5.8-9.2 7.6-2.8 1.7-5.5 3.5-8.3 5.1-2.3 1.2-4.7 2.1-7.1 3.2-3.8 1.7-7.8 2.8-11.8 3.7-1.7.4-3.3.7-5 1.1-2.2.6-4.4 1.2-6.7 1.7-1.5.4-3 .6-4.5.9-2.4.5-4.8 1-7.2 1.4-1.7.3-3.4.6-5.1.9-2.2.4-4.4.8-6.7 1.1-3.6.5-7.1.8-10.7 1.3-2.5.3-5 .9-7.6 1.1-4.4.5-8.8.8-13.2 1.2-4.3.4-8.6.9-13 1.1-5.5.3-11.1.3-16.7-.2-1.4-.1-2.8-.1-4.3-.2-1.4-.1-2.8-.1-4.2-.3-2.6-.4-5.3-.9-7.9-1.2-3.2-.3-6.3-.8-9.4-1.5-2-.5-4-1-6-1.5-2.1-.5-4.2-.9-6.3-1.4-2.8-.7-5.5-1.6-8.3-2.4-2.2-.6-7.1-2.2-7.1-2.2l-1.3 2.7s1.8 6.2 2.6 8.9c1.6 5.3 3.3 10.5 5.6 15.6 2.7 5.8 5.5 11.5 8.7 17.1 2.3 3.9 5.1 7.4 8.2 10.8 3.7 4 16.2 14.1 18.5 15.2 2.8 1.3 10.4 2.9 10.4 2.9s15-20 16.9-22.4c.4-.6.7-1.1.5-1.8-.3-1.1-3.7-14.4-4-15.2-.5-1.3-.7-2.6-.2-4 .5-1.6.9-3.2 1.3-4.8.3-1.3 1-1.9 2.3-2 2.1-.1 20.7-.8 22.5-.9 2.1-.1 17.7-.7 19.4-.7 3.3-.1 38.8-.8 43.4-.7 1.8 0 2.4.6 2.5 2.4.2 2.2.4 4.4.5 6.6.1 2.4.4 4.8-.4 7.1-.4 1.3-2.5 13.1-3.2 17.7 0 .2 0 .5.1.7.5 1.8 1 3.5 1.5 5.3 2 7.4 2.6 27.2 1.4 31.1-.4 1.3-1 1.9-2 1.8-1.1-.2-1.6-1-1.4-2.4.1-.4.6-2.1.6-2.6.6-3.3-.8-24.7-.8-24.7zm-53-31.1c-3.3.1-13.8.3-15.8.4-3.2.2-13.1 1-14 1.1-.6.1-.8.4-.7.9.2.9.4 1.7.6 2.6.6 2.8 1.2 5.6 1.9 8.3.8 3.3 7.6 35.5 9 42 1.1 5.3 2 10.6 4.2 15.6.5 1.1 1.1 1.5 2.1 1.6 1.9.1 50 1.5 50 1.5 1.2.1 2.5.2 3.7.3.8.1 1.1-.2 1.3-.8.2-.9.3-1.7.4-2.6.9-5.6 8.1-46 8.8-51.1.8-5.2 1.5-10.4 2.2-15.6.2-1.4-.2-2-1.7-2.2-2.2-.2-18.2-2-19.5-1.8-2.7.4-12.9-.3-15.2-.5m-60.5 49.9c-.3-1.7-.9-3.3-1.4-4.9-.3-1.1-.3-1.3-.3-1.3s-.6 1.1-1.9 2.3c-1.4 1.2-3.5-.8-2.9-2.2s.8-1.4.8-1.4-5.1-1.2-6.8-1.7c-3.7-1.1-6.7-3.6-9.7-5.8-4.2-3.1-7.9-6.7-11.5-10.5-3.2-3.3-6.1-6.9-8.4-10.9-2.2-3.7-4.2-7.5-6.2-11.3-2.9-5.6-5.1-11.5-7-17.5-1.1-3.5-1.6-5.5-2.7-9-.1-.2-.5-.1-.5.1-.7 4.1-1.6 7.2-1.6 11.4 0 5.8 0 16.7 1.3 32.7.5 4.1 3.8 21.2 4.8 25.6 1.3 6 2.6 12 5.2 17.6 1.4 2.9 2.6 6 4.3 8.8 2.6 4.1 5.5 8 8.4 11.9 2.3 3.1 4.7 6.1 7.5 8.7 1.4 1.3 1.4 1.2 1.4 1.2s1.5-1.1 1.7-1.2c1.2-.7 2.6-.1 2.6 1.4 0 .6-1.1 2.1-1.1 2.1s.4.9 1.3.8c1.5-.2 6.1-.6 14.6-8.1 3.8-4.1 7.2-11.5 8.9-16.9 1.4-5.6.1-17.8-.8-21.9zm-11-103.5c2.8-.6 14.9-3.3 18.3-4 1.9-.4 3-1 3.3-3.2.2-1.3 1.5-9.6 2-12.5.5-2.5 3.8-22.2 4.6-26.8.5-2.6-.2-3.3-3-2.3s-13.8 4.2-16.5 4.9c-4.4 1.2-21.2 5.4-25.2 6.4-3 .7-16.6 5-20.4 6.4-1 .3-1.1 1-.6 1.8.5 1 1.1 2.1 1.7 3.1 1.8 3 9.8 14.5 11.9 17.5 2.3 3.2 4.4 6.4 6.5 9.6.8 1.2 1.5 2.3 3 1.9.7-.1 11.4-2.1 14.4-2.8zm143.8 220.7c0 1.3-.1 2.7.1 4 .2 1.6.5 1.7 2 1 1.6-.8 3.2-1.6 4.8-2.4 3.1-1.6 6.3-3.1 9.4-4.7 3.7-1.8 7.3-3.6 11-5.4 2.3-1.2 4.6-2.4 6.9-3.6 1-.5 1.7-1.4 1.8-2.6s.3-2.5.4-3.7c.4-3.5.8-7 1.3-10.4.7-4.3 1.5-8.5 2.3-12.8.9-4.7 1.9-9.3 2.9-14 .9-4.5 1.9-9.1 2.8-13.6.1-.6 0-1.2 0-1.8-.6.3-1.2.5-1.7.8-3.8 2.8-7.5 5.7-11.3 8.4-5 3.4-10.2 6.6-15.2 10-3.3 2.3-6.4 4.8-9.7 7.1-1.6 1.2-3.3 2.2-5 3.3-2 1.4-3.6 3-3.3 5.7.2 2.1.3 4.2.3 6.4 0 5.6-.1 11.3 0 16.9-.1 4 .1 7.7.2 11.4zm17.2-218.4c-.1 1.5.6 2.7 1.9 3.4.5.3 1.1.7 1.7.9 3.8 1.3 7.6 2.7 11.4 3.8 3 .9 6 1.7 9 2.4 2.5.6 5 1.2 7.5 1.4 3.4.3 6.7 1 9.9 1.8 2.3.6 4.6 1.3 6.8 2 1.3.4 1.5.2 2-1 .3-.7.4-1.5.6-2.3.9-3 1.8-5.9 2.6-8.9 1.1-4.1 2.2-8.2 3.3-12.3 1.2-4.4 2.4-8.8 3.6-13.2.1-.4.2-.7.3-1.1.1-.6.1-1.2-.9-.9-.8.2-1.8.2-2.6.3-2.3.3-4.5.6-6.8.9-1.3.1-2.1.7-2.9 1.7-1.1 1.2-2.3 2.5-3.7 3.3-4 2-9.5-.2-11.2-3.6-.6-1.1-.8-2.4-1.1-3.7-.4-1.6-1.5-2.2-2.9-1.1-.5.3-.7 1.1-.8 1.7-.3 1.8-1.1 3.2-2.4 4.4-1.1 1-2.3 1.9-3.4 2.9-1.9 1.6-3.9 1.6-6.1.8-3.1-1.2-4.6-3.7-5.7-6.6-.3-.8-.6-1.4-1.5-1.7-1.3-.4-2.6-.7-4-.3-.5.1-1.1.3-1.6.3-1.7.1-1.7.1-1.8 1.8v1.4c-.1 3-.2 5.9-.3 8.9-.4 4.1-.6 8.3-.9 12.6zm-198.1 190.6s1.9-18.1 2.2-21.2c.2-2.3 1.2-16.9 1.2-17 .1-1.5.2-2.9.3-4.3.2-2.4.4-4.7.6-7.1 0-.5-.2-.8-.7-.7-.4.1-.8.4-1.2.6-.8.6-1.5 1.3-2.3 1.9-2 1.6-4 3.2-6.1 4.8-1.6 1.3-8.5 6.5-10.2 7.9-2.2 1.8-5.6 3.8-7.8 5.6-3 2.4-11 8.3-12.6 9.5-.8.5-1.4 1.6-1 2.5 1.8 4.4 3.5 9.8 6 13.9 1.2 2 1 2.6 1.7 2.8 6 .7 29.9.8 29.9.8zm205.8-231.3v.2c-1.8 0-3.7 0-5.5 0-.7 0-1 .2-1 1 0 2.5 0 5.1-.1 7.6-.1 2.2.7 3.1 2.8 3.3 1 .1 1.9 0 2.9.1 2.1.2 2.3.1 3.2-1.7.8-1.5 1.8-2.9 3.5-3.6 2.1-.8 4.2-1.6 6.4-2.3.6-.2 1.2-.2 1.8-.1 2.8.4 4.8 1.9 5.8 4.7.2.6.6 1.1 1.3 1.1.6 0 1.2.1 1.9.2.8.1 1.5 0 2.1-.7.5-.6 1.3-1.1 1.9-1.6 2.4-1.9 5-2.1 7.8-1.2 1.1.3 1.9 1.2 3 1.5 1.7.5 2.6 1.7 3.1 3.3.5 1.5.9 1.8 2.5 1.8 2 0 3.9-.1 5.9-.3 1.7-.2 3.1-1.1 4.3-2.5 2-2.4 2.6-5.3 3.7-8 .3-.8-.2-1.2-.9-1.2-3.5-.2-7-.4-10.5-.5-2.5 0-5.1.2-7.6.2-1.1 0-2.3-.1-3.4 0-2.1.1-4.3.2-6.4.3-1.1 0-2.2-.2-3.2-.2-2.7-.2-5.4-.3-8.1-.5-1.6-.1-3.2-.3-4.9-.4-1.9-.1-3.7-.1-5.6-.2-2.2-.1-4.5-.2-6.7-.3zm21.2 184.6c0-.2-.1-.4-.1-.7-.2-.1-.5-.2-.7-.3-1.1-.8-2.2-1.6-3.3-2.5-1.2-.9-1.2-1-2.5-.1-4.2 2.9-8.3 5.9-12.5 8.8-5 3.4-10 6.9-15.1 10.1-3.5 2.3-7.3 4.2-10.9 6.4-2.7 1.6-5.4 3.5-8.3 4.8-.5.2-.9.7-1.4 1 .4.4.9.8 1.4 1.1 1.9 1.1 3.9 2 5.7 3.1.8.5 1.5.4 2.2 0 .9-.5 1.8-1.1 2.7-1.6 3.8-2 7-4.8 10.4-7.4 1.7-1.3 3.3-2.7 5.1-3.8 3.6-2.4 7.3-4.6 10.9-7 2.8-1.9 5.6-3.8 8.3-5.8 2.3-1.7 4.5-3.5 6.8-5.2.3-.4.8-.6 1.3-.9zm-136.6-96c2.6-.1 14.5-.1 17.8 0 2.9.1 34.8 1.4 36.2 1.5.8.1 1.1-.3 1.1-1 0-.9 0-1.8 0-2.6-.1-2.2-1-3.1-3.2-3.1-3-.1-40.9.6-45 .7-2 .1-9.5.8-11.2.8-1.9.1-18.2.7-21 .7v.1c-.7 0-1.4 0-2.1 0-1.6 0-1.8.2-2.1 1.8-.1.6-.5 1.3-.2 1.7s1.1.4 1.6.5c2.8.4 28.1-1.1 28.1-1.1zm-91.5-83.7c.7-.2 1.5-.4 2.2-.8 3.2-1.4 36-9.7 42.1-11.5 1.8-.5 12.5-3.4 16-4.6 1.6-.5 3.2-1.5 4.7-2.4.9-.5.9-1.5 0-1.9-.7-.3-1.6-.5-2.3-.4-3.9.9-7.8 2-11.7 3.1-2.1.6-14.4 3.4-18.3 4.4-3.8.9-20 5.3-24.4 6.5-2.4.7-4.8 1.3-7.2 2.1-.6.2-1.3.6-1.5 1.2-.4 1-.6 2.2-.8 3.3-.1.7.4 1 1.2 1zm260.6-6.6c.9-.1 1.8-.1 2.6-.1 1 0 1.2-.4.8-1.3s-1-1.4-2-1.4c-2.8-.2-5.6-.3-8.5-.5-2-.1-4.1-.3-6.1-.5-3.6-.3-7.2-.5-10.8-.9-2.5-.3-4.9-.7-7.4-1.2-3.3-.6-6.6-1.4-9.9-1.8-2.8-.4-5.6-.5-8.4-.5-1.5 0-3.1 0-4.4 1.2-1.4 1.3-2.7 2.7-4.1 4.1-.5.5-.4.9.3 1 1.3.2 2.5.3 3.8.4 1.8 0 3.6-.2 5.4-.1 2.9.1 5.7.5 8.6.7 1.6.1 3.1.2 4.7.3 2 .2 4 .4 6.1.5 1.5.1 3 0 4.5 0 1.4 0 2.9.3 4.3.3 2 0 4-.2 6-.2h3.4c2.1-.1 4.2-.2 6.2-.2 1.6-.1 3.2.1 4.9.2zm-89.1 220.9h.2c0 .9-.1 1.8 0 2.6.3 3.3.7 6.6 1.1 10 .2 1.4.2 1.4 1.4.8 1.1-.5 2 .1 2.2 1.3s-.5 2-1.4 2.6c-1.3.8-1.8 2-1.7 3.5.1 2.6.1 5.2.1 7.8 0 2.1-.1 4.2-.1 6.2 0 1.5.2 2.9.3 4.4.1 2.1 1.3 3.3 3.1 4 .3.1.6.2.8.3 1.6.8 2.1.5 2.2-1.3 0-.2 0-.3 0-.5 0-7.1 0-14.2 0-21.3 0-1.9.2-3.8.2-5.7-.2-4.3-.6-8.5-.8-12.7-.1-1.2-.4-2.1-1.5-2.7-1.6-.8-3.2-1.6-4.9-2.3-.8-.3-1.1-.1-1.1.8-.2.6-.1 1.4-.1 2.2zm-197.4 14.2c-1.2.2-.3 1.2.1 2.4 1.1 2.8 3.9 9.7 4.1 10.4.2.6.5.8 1.1.5.8-.5 1.7-.9 2.5-1.4 2.2-1.3 4.4-2.5 6.5-3.9 3-1.8 6-3.7 8.9-5.5.5-.3 1.6-.8 2-1.2-.6-.2-7-.9-9-1-3-.2-15.2-.5-16.2-.3zm249.8-220.5c.1-1.7-.2-2.5-1.1-4.2-.8-1.4-1.5-1.8-3.1-1.2-2.1.7-4.1 1.5-6.2 2.4-2 .9-2.9 3.1-2.4 5.2.6 2.2 2.2 3.6 3.9 4.9 1.4 1 2.6.9 4-.1.6-.5 1.1-1 1.8-1.4 2-1.4 3-3.3 3.1-5.6zm20.3 1.4c.1-1.3 0-2.6-1.2-3.4-.7-.5-1.4-.9-2.2-1.1-2.9-.9-5.3.2-7.3 2.3-.7.7-.8 1.4-.4 2.3.4.8.9 1.6 1.4 2.4 1.3 2 3.4 2.9 5.7 2.3 2.5-.7 4-2 4-4.8zm-14.7 183c-.1.3-.3.6-.4.9-.4 1.7-.8 3.4-1.1 5.1-.4 1.9-.9 3.8-1.3 5.7 0 .2 0 .4.1.6.2 0 .4 0 .6-.1.3-.1.5-.3.7-.5 2.1-1.7 4.3-3.3 6.4-5 1.8-1.4 6.9-5.2 6.9-5.2s-4.5.4-5.9.5c-2 .1-3.8-.6-5.4-1.7-.2-.1-.4-.2-.6-.3zm-258.8 50c.2 0 4.3.7 4.5.7 1.2-.1-.1-2-.6-3.1 0-.1-4.5-10.4-4.5-10.4s-3.2-.1-3.9-1.3c-.6-1.1-.4-1.3.1-2.1.3-.5 2-.6 2-.6-5.7-13.3-5.5-12.8-6.3-14.8-.6-2-2.5-2.8-4.6-3.3-.3-.1-.5 0-.8 0 0 .2 0 .5.1.7.2.5.5 1 .7 1.5 1.8 4.7 9.4 25.6 11.2 30.4.5.9.8 2.5 2.1 2.3z" fill-rule="evenodd"/><path d="m429.8 280.1c.4.1.8.1 1.3.1 1.2 0 1.9-.6 2-1.8 0-.9-.1-1.8-.2-2.7-.1-.8-.4-1.4-1.3-1.3-.9 0-1.7 1-1.9 2.1-.2.7-.6.9-1.3.9-4.8-.1-9.6-.1-14.4-.3-2.6-.1-5.1-.3-7.7-.4-.4 0-.7-.1-1.1-.1-1.1 0-2.3-.1-3.4-.1s-2.2.1-3.4.1c-.7 0-1.2-.3-1.4-1-.1-.2-.1-.5-.2-.7-.4-1.1-1.4-1.7-2.2-1.7s-.8.7-.8 1.3c.1 1.2.2 2.4.3 3.6.1.8.6 1.2 1.5 1.2h3.6c3.4 0 6.9 0 10.3.1 2.5.1 5 .4 7.4.5 2.8.1 5.6.1 8.4.2zm-35.7-16.6c1 0 1.9-1 1.9-2.2s-.7-1.8-1.9-1.9c-1 0-1.6.5-1.6 1.8s.6 2.2 1.6 2.3zm33.6-1.6c0-1.3-.6-2-1.7-2-.9 0-1.6.8-1.6 1.7 0 1.2.8 2.1 1.8 2.1s1.5-.7 1.5-1.8z" fill="none"/><path d="m332 177.8c.1.7.2 1.7.4 2.7.1.9.6 1.4 1.6 1.2 1.4-.2 2.7-.5 4-.8 3.2-.7 6.3-1.5 9.5-2 3.7-.6 7.4-.9 11.1-1.5 1.1-.2 2.5-.2 2.9-1.6.4-1.5.5-3 .7-4.6.1-.6-.3-.9-.9-1-1.3-.2-1.9.1-2.3 1.5-.5 1.7-1.4 2.6-3.3 2.7s-3.9.5-5.8.8c-2.1.3-4.2.7-6.3 1.1-1.9.4-3.8.6-5.7 1.2-2.2.6-2.2.7-2.8-1.4-.3-1-.8-1.1-1.7-1.1s-1.2.6-1.3 1.2c-.1.4-.1.9-.1 1.6zm-5.6-12.4c0-1.1-.6-2-1.4-2-1.1-.1-2.1.8-2.1 1.8-.1 1.1.9 2.3 1.9 2.3.9 0 1.6-.8 1.6-2.1zm36.7-7.1c0-1.3-.7-2.2-1.8-2.3-.9 0-1.6.7-1.7 1.6 0 1.1.9 2.4 1.7 2.4 1.1.1 1.8-.6 1.8-1.7z" fill="none"/><path d="m539.8 191.1v.2c.8-.1 1.6-.2 2.5-.3s1.7-.2 2.6-.4c.7-.2 1.5-.5 1.4-1.4-.1-1.6-.3-3.2-.6-4.8-.2-.9-.9-1.1-2-1-1 .1-.9.8-.9 1.5v1.1c.1.9-.4 1.3-1.1 1.6-.4.2-.9.3-1.3.4-1.8.2-3.6.5-5.4.7-1.5.2-3 .4-4.5.5-1.4.1-2-.3-2.5-1.5-.2-.5-.5-1.1-.9-1.4s-1-.4-1.6-.4c-.2 0-.7.5-.6.8.2 1.7.4 3.3.8 4.9.1.3.7.8 1.1.8 1.7 0 3.4-.2 5.1-.4 2.5-.3 5.2-.6 7.9-.9z" fill="none"/><path d="m526.9 167.8c0-.9-.8-1.8-1.6-1.8-.6 0-1.3.8-1.3 1.6 0 1.1.6 1.9 1.4 1.9.7 0 1.5-.9 1.5-1.7z" fill="none"/><path d="m545.7 167.7c0 1.2.7 1.9 1.9 1.9 1 0 1.6-.6 1.7-1.5 0-1.1-.8-2-2-2.1-1.1.1-1.6.5-1.6 1.7z" fill="none"/><g fill-rule="evenodd"><path d="m429.8 280.1c-1.5 0-3 0-4.5 0-2.8 0-5.6 0-8.4-.2-2.5-.1-5-.5-7.4-.5-3.4-.1-6.9-.1-10.3-.1-1.2 0-2.4 0-3.6 0-.8 0-1.4-.4-1.5-1.2-.1-1.2-.2-2.4-.3-3.6 0-.6 0-1.3.8-1.3s1.7.6 2.2 1.7c.1.2.2.5.2.7.2.7.7 1.1 1.4 1 1.1 0 2.2-.1 3.4-.1 1.1 0 2.3 0 3.4.1.4 0 .7.1 1.1.1 2.6.2 5.1.4 7.7.4l14.4.3c.7 0 1.1-.2 1.3-.9.3-1.1 1.1-2.1 1.9-2.1 1 0 1.2.6 1.3 1.3.1.9.3 1.8.2 2.7-.1 1.2-.8 1.8-2 1.8-.4 0-.8-.1-1.3-.1z"/><path d="m394.1 263.5c-1 0-1.6-.9-1.6-2.4 0-1.2.6-1.8 1.6-1.8 1.2.1 1.9.7 1.9 1.9s-.9 2.3-1.9 2.3z"/><path d="m427.7 261.9c0 1.1-.5 1.9-1.4 1.8-1 0-1.8-.9-1.8-2.1 0-1 .6-1.7 1.6-1.7 1-.1 1.6.7 1.6 2z"/><path d="m332 177.8c0-.7 0-1.1.1-1.5.2-.7.5-1.2 1.3-1.2s1.4.1 1.7 1.1c.6 2.1.6 2 2.8 1.4 1.9-.5 3.8-.8 5.7-1.2 2.1-.4 4.2-.7 6.3-1.1 1.9-.3 3.9-.7 5.8-.8 1.8-.1 2.8-1 3.3-2.7.4-1.4 1-1.7 2.3-1.5.6.1.9.4.9 1-.2 1.5-.3 3.1-.7 4.6-.4 1.4-1.8 1.4-2.9 1.6-3.7.5-7.4.8-11.1 1.5-3.2.5-6.3 1.4-9.5 2-1.3.3-2.7.5-4 .8-.9.2-1.4-.3-1.6-1.2-.2-1.1-.3-2.1-.4-2.8z"/><path d="m326.4 165.4c-.1 1.3-.7 2.1-1.7 2.1s-1.9-1.1-1.9-2.3c.1-1 1.1-1.9 2.1-1.8.9 0 1.5.9 1.5 2z"/><path d="m363.1 158.3c0 1.1-.7 1.8-1.7 1.7-.8 0-1.8-1.3-1.7-2.4 0-1 .7-1.7 1.7-1.6 1 0 1.7 1 1.7 2.3z"/><path d="m539.8 191.1c-2.7.3-5.4.6-8.1.9-1.7.2-3.4.3-5.1.4-.4 0-1-.5-1.1-.8-.3-1.6-.6-3.3-.8-4.9 0-.2.4-.8.6-.8.5 0 1.2.1 1.6.4s.6.9.9 1.4c.6 1.2 1.1 1.6 2.5 1.5 1.5-.1 3-.3 4.5-.5 1.8-.2 3.6-.4 5.4-.7.5-.1.9-.2 1.3-.4.7-.3 1.2-.7 1.1-1.6 0-.4 0-.8 0-1.1 0-.7 0-1.3.9-1.5 1.1-.1 1.8.1 2 1 .3 1.6.5 3.2.6 4.8.1.9-.7 1.2-1.4 1.4-.8.2-1.7.3-2.6.4-.8.1-1.6.2-2.5.3.2-.1.2-.2.2-.2z"/><path d="m296.3 377.2c.2 1.3-.2 1.6-1.5 2.1-2.3 1-4.6 2.1-6.9 3.2-1 .5-1.7.4-2.2-.6-.4-.9-.7-1.8-.8-2.7-.1-1 .6-1.7 1.6-1.4.6.2.4 1.2.9 1.6.6.6.8.8 1.4.5.7-.4 4.3-1.8 5-2.2.8-.5-.5-2.6-.4-3s1.6-1.2 2.1-.7.6 1.9.8 3.2z"/><path d="m302.4 355.4c0 .9-.6 1.7-1.3 1.8-.8 0-1.7-1.1-1.7-2s.7-1.6 1.6-1.6c.9-.1 1.4.7 1.4 1.8z"/><path d="m280.8 368.9c0-1.2.3-1.5 1.4-1.5s1.7.6 1.6 1.9c0 1.2-.5 1.7-1.5 1.7-1 .1-1.5-.7-1.5-2.1z"/><path d="m526.9 167.8c0 .8-.8 1.7-1.5 1.7-.8 0-1.4-.8-1.4-1.9 0-.8.7-1.6 1.3-1.6.7 0 1.5.9 1.6 1.8z"/><path d="m545.7 167.7c0-1.2.5-1.7 1.6-1.6 1.2 0 2.1.9 2 2.1 0 .9-.7 1.5-1.7 1.5-1.2 0-2-.8-1.9-2z"/></g></svg>