<?xml version="1.0" encoding="UTF-8" standalone="no"?>
<svg
   xmlns:dc="http://purl.org/dc/elements/1.1/"
   xmlns:cc="http://creativecommons.org/ns#"
   xmlns:rdf="http://www.w3.org/1999/02/22-rdf-syntax-ns#"
   xmlns:svg="http://www.w3.org/2000/svg"
   xmlns="http://www.w3.org/2000/svg"
   xmlns:sodipodi="http://sodipodi.sourceforge.net/DTD/sodipodi-0.dtd"
   xmlns:inkscape="http://www.inkscape.org/namespaces/inkscape"
   viewBox="0 0 353.5461 351.44462"
   version="1.1"
   id="svg50"
   sodipodi:docname="comunidad.svg"
   width="353.54611"
   height="351.44461"
   inkscape:version="0.92.3 (2405546, 2018-03-11)">
  <metadata
     id="metadata56">
    <rdf:RDF>
      <cc:Work
         rdf:about="">
        <dc:format>image/svg+xml</dc:format>
        <dc:type
           rdf:resource="http://purl.org/dc/dcmitype/StillImage" />
        <dc:title></dc:title>
      </cc:Work>
    </rdf:RDF>
  </metadata>
  <defs
     id="defs54" />
  <sodipodi:namedview
     pagecolor="#ffffff"
     bordercolor="#666666"
     borderopacity="1"
     objecttolerance="10"
     gridtolerance="10"
     guidetolerance="10"
     inkscape:pageopacity="0"
     inkscape:pageshadow="2"
     inkscape:window-width="680"
     inkscape:window-height="480"
     id="namedview52"
     showgrid="false"
     fit-margin-top="0"
     fit-margin-left="0"
     fit-margin-right="0"
     fit-margin-bottom="0"
     inkscape:zoom="0.38840716"
     inkscape:cx="182.13285"
     inkscape:cy="171.99463"
     inkscape:window-x="1366"
     inkscape:window-y="30"
     inkscape:window-maximized="0"
     inkscape:current-layer="svg50" />
  <path
     d="m 63.382843,27.4 66.599997,-14.2 0.6,6.6 -7.2,46.6 -37.199997,5.2 -21,-31.5 -3.5,-10.9"
     id="path2"
     inkscape:connector-curvature="0"
     style="fill:#ebe200;fill-rule:evenodd" />
  <path
     d="m 20.982843,247 40.8,-30.1 7.6,2.4 -5.5,55.8 -22,12 -9.3,-1.3 -14.1,-37.6 z"
     id="path4"
     inkscape:connector-curvature="0"
     style="fill:#74c5bf;fill-rule:evenodd" />
  <path
     d="m 284.38284,20.2 -9.9,10.5 -0.3,45.8 47.7,10.3 17.1,-54.7 -1.3,-6.3 z"
     id="path6"
     inkscape:connector-curvature="0"
     style="fill:#7ac191;fill-rule:evenodd" />
  <path
     d="m 131.28284,119.8 0.4,20.8 16.2,57.6 54.6,3.3 11.4,-68 2.3,-9 -1.7,-5 z"
     id="path8"
     inkscape:connector-curvature="0"
     style="fill:#7ac191;fill-rule:evenodd" />
  <path
     d="m 245.18284,252.1 52.8,-32.4 3.9,8.4 -12.1,61.4 -35.4,15.7 -9,-5.1 z"
     id="path10"
     inkscape:connector-curvature="0"
     style="fill:#ebe200;fill-rule:evenodd" />
  <path
     d="m 282.98284,23 c 0,0 10.1,1.1 13.6,1.6 2.5,0.3 4.9,0.8 7.4,1.1 3.1,0.4 6.3,0.7 9.4,1.1 2.3,0.3 4.6,0.6 6.9,0.8 h 0.1 c 2,0.1 4.1,0.2 6.1,0.2 2.5,0 4.9,-0.1 7.4,-0.1 1.1,0 1.7,0.7 1.9,1.5 0.6,2.5 1.2,5.1 1.6,7.7 0.1,0.8 -0.2,1.7 -0.5,2.5 -0.6,2.1 -1.2,4.1 -1.9,6.2 -0.4,1.2 -0.9,2.3 -1.3,3.5 -0.8,2.2 -1.5,4.5 -2.2,6.8 -0.4,1.3 -0.7,2.6 -1.1,3.8 -0.6,1.8 -0.7,3.5 -0.3,5.5 1.2,5.7 2.1,11.5 1.8,17.4 0,1 -0.3,2.1 -0.6,3.1 -0.4,1.2 -0.9,2.4 -1.3,3.7 -0.3,0.9 -0.9,1.3 -1.6,1.2 -0.9,-0.2 -1.1,-0.8 -1,-1.6 0.1,-0.7 0.2,-1.4 0.5,-2 1.2,-2.3 1.5,-4.8 1.3,-7.3 -0.3,-3 -0.6,-6.1 -0.9,-9.1 0,-0.2 -0.1,-0.3 -0.1,-0.5 -0.1,0.2 -0.2,0.3 -0.3,0.5 -1.5,5.3 -3,10.6 -4.5,15.9 -0.7,2.5 -1,5.1 -1.9,7.5 -0.8,2.4 -1.8,2.6 -4,1.9 -2.1,-0.7 -4.1,-1.7 -6.2,-2.2 -2.3,-0.6 -4.7,-0.9 -7.1,-1.2 -0.2,0 -0.7,0.2 -0.8,0.4 -0.3,0.6 -0.6,1.3 -0.6,2 -0.3,3.8 -0.6,7.7 -0.9,11.5 -0.1,1 -0.5,1.8 -1.3,2.5 -1,0.8 -1.8,1.7 -2.8,2.4 -0.6,0.4 -1.1,1.1 -2,0.8 -1.2,-0.4 -1.6,-2 -0.7,-3.2 0.6,-0.8 1.3,-1.6 1.9,-2.5 1.2,-1.7 1.7,-3.7 1.8,-5.8 0.2,-2.4 0.6,-4.9 0.9,-7.3 0.2,-1.2 -0.1,-1.6 -1.2,-1.9 -2.8,-0.6 -5.5,-1.2 -8.3,-1.8 -1.3,-0.3 -2.5,-0.5 -3.8,-0.8 -1.1,-0.2 -1.7,0 -1.7,1.2 -0.1,3.4 -1.2,6.7 -0.4,10.1 0.1,0.4 0.1,0.9 0,1.4 0,1.1 -0.4,1.6 -1.5,1.8 -2,0.3 -3.6,1.2 -5.1,2.5 -0.3,0.3 -0.7,0.5 -1,0.7 -0.6,0.3 -1.2,0.7 -1.8,0.1 -0.4,-0.4 -0.5,-1.7 -0.1,-2.2 0.4,-0.5 0.7,-0.9 1.2,-1.3 1.2,-1 2.3,-1.9 3.5,-2.8 1.2,-1 1.9,-2.2 1.9,-3.8 0,-2.3 0,-4.6 0,-6.9 0,-1.8 -0.2,-2.1 -2,-2.7 -3.8,-1.3 -7.5,-2.7 -11.3,-4 -1.4,-0.5 -1.9,-1.5 -1.7,-3 0.2,-1.7 0.3,-3.4 0.4,-5.1 0.2,-3.3 0.3,-6.7 0.5,-10 0,-0.7 0.2,-1.5 0.3,-2.2 0.1,-0.9 -0.2,-1.2 -1.1,-0.7 -3.4,1.8 -13.8,7.3 -13.8,7.3 0,0 -3.1,8 -3.9,11.4 -1,4 -1.9,8 -2.7,12.1 -0.4,2.2 -0.6,4.5 -0.8,6.7 -0.3,4.4 -0.5,8.8 -0.8,13.5 0.4,6.3 0.7,13.1 1.3,19.8 0.3,3.8 1.1,7.5 1.8,11.3 1.2,6.7 2.9,13.3 5,19.8 1.5,4.4 2.9,8.7 4.5,13 0.8,2.3 1.9,4.5 3,6.6 2.5,5 4.8,10 7.5,14.9 2.7,4.8 5.5,9.5 9.2,13.6 1.5,1.7 2.9,3.6 4.4,5.3 0.6,0.7 1.3,1.3 2.1,1.8 0.2,0.1 0.7,-0.1 1,-0.3 1.3,-1 2.6,-2 3.9,-3.1 0.8,-0.7 1.5,-1.5 2.3,-2.1 1.1,-0.8 2.4,-0.7 3.5,-0.2 1.8,0.8 3.6,1.7 5.1,2.9 1.5,1.2 2.6,2.8 2.6,5 0,2.3 -0.6,4.5 -1.1,6.8 -0.1,0.3 -0.2,0.6 -0.2,0.8 -0.6,2.2 -0.6,2.2 1.5,3.2 2.7,1.3 5.4,1.5 8.2,0.9 0.9,-0.2 1.9,-0.2 2.9,-0.4 0.7,-0.1 1.5,-0.3 2.2,-0.7 1.4,-0.8 2.8,-1.8 4.2,-2.7 0.7,-0.4 1.4,-0.3 1.9,0.2 0.6,0.6 0.7,1.2 0.4,1.9 -0.2,0.4 -1.7,1.5 -1.7,1.5 0,0 -0.1,0.3 0.8,1.1 2.9,2.8 5,6.2 5.9,10.1 1.1,4.3 1.9,8.7 3.1,12.9 1.2,4.3 2.8,8.4 4.2,12.6 0.4,1.3 0.9,2.5 1.3,3.8 1.9,5 4.4,9.6 8.2,13.6 1.4,1.4 2.8,2.8 4.4,3.9 1,0.7 1.7,1.7 2.6,2.5 0.8,0.7 1.6,1.3 2.4,2 0.5,0.4 0.9,0.7 0.5,1.3 -0.4,0.7 -1,0.5 -1.5,0.2 -0.6,-0.5 -1.2,-1 -1.8,-1.5 -1.9,-1.6 -3.9,-3.1 -5.6,-4.8 -3.4,-3.4 -6.6,-6.9 -8.6,-11.3 -1.4,-3.2 -3,-6.2 -4.3,-9.4 -0.9,-2.4 -1.5,-5 -2.2,-7.5 -0.8,-3 -1.6,-6 -2.4,-9.1 -0.5,-2.2 -0.8,-4.4 -1.4,-6.6 -0.6,-2.2 -1.3,-4.3 -2.3,-6.3 -0.9,-1.7 -2.1,-3.3 -3.4,-4.8 -1.2,-1.4 -1.3,-1.7 -1.3,-1.7 0,0 -13,9.4 -18.4,13.5 -1.4,1 -2.7,2.1 -3.9,3.3 -0.6,0.6 -1,1.5 -1.2,2.4 -1.4,6.1 -2.4,12.3 -3.2,18.5 -0.3,2.5 -0.4,5 -0.6,7.5 -0.1,1.7 -0.3,3.3 -0.4,5 -0.1,1.9 -1.3,2.6 -2.8,3.3 -2.6,1.1 -5.1,2.3 -7.6,3.6 -1.3,0.7 -1.7,1.6 -1.5,3.1 0.1,0.6 0.2,1.2 0.2,1.9 0.1,3.7 0.2,7.4 0.2,11 0,1.9 -1.1,2.5 -2.7,1.6 -1.6,-0.9 -3,-2.1 -4.5,-3.1 -1,-0.7 -1,-1.8 -0.8,-2.8 0.2,-0.8 1.2,-0.9 2.1,-0.3 0.8,0.6 1.6,1.2 2.4,1.8 0.3,0.2 0.7,0.2 1,0.4 0,-0.3 0,-0.6 0,-1 -0.3,-3.1 -0.5,-6.2 -0.8,-9.4 -0.1,-1.2 -0.2,-1.3 -1.3,-0.8 -2.2,1.1 -4.4,2.1 -6.7,3.2 -0.8,0.4 -1.3,0.8 -1.2,1.9 0,2.6 -0.2,5.2 -0.2,7.7 0,0.9 0.1,1.7 0.1,2.6 0,0.1 0.1,0.2 0.1,0.4 -0.1,2.6 -0.9,3.2 -3.1,2.2 -1,-0.5 -2.1,-0.9 -3.1,-1.4 -1.1,-0.5 -1.5,-1.3 -1.2,-2.4 0.2,-1 1.1,-1.4 2,-1 0.6,0.3 1.1,0.7 1.7,1 0.6,0.3 0.9,0.1 0.9,-0.6 -0.1,-2.2 0,-4.3 -0.1,-6.5 0,-1.4 -0.4,-1.6 -1.7,-1 -3.2,1.5 -6.4,2.9 -9.7,4.4 -1,0.5 -2,0.3 -3,-0.2 -2.4,-1.2 -4.8,-2.4 -7.3,-3.6 -1.1,-0.5 -1.6,-1.5 -1.6,-2.6 0,-4.8 0,-9.7 0,-14.5 0,-2.2 -0.1,-4.5 -0.1,-6.7 0,-0.7 -0.3,-0.8 -0.8,-0.5 -2.8,1.5 -5.6,2.9 -8.4,4.4 -0.2,0.1 -0.3,0.2 -0.5,0.3 -2.2,1 -4.3,1.9 -6.5,2.9 -1.4,0.6 -5.2,2.7 -5.2,2.7 0,0 -1.5,5.2 -7.1,10.6 -8.2,7.8 -20.1,13.3 -34.8,14.9 -14.6,1.6 -14.7,1.3 -22.1,0.4 -5.7,-0.7 -11.2,-2.3 -16.7,-4 -3.4,-1.1 -6.8,-2.2 -10.2,-3.5 -2.3,-0.9 -12.1,-5.2 -14.7,-6.4 -2.7,-1.3 -5.3,-2.6 -7.9,-4.1 -3.6,-2.1 -7.099997,-4.2 -10.499997,-6.6 -2.9,-2 -5.6,-4.3 -7.8,-7.2 -0.8,-1.1 -1.7,-2.1 -2.5,-3.1 -0.1,-0.1 -0.3,-0.2 -0.5,-0.3 -0.1,0.2 -0.2,0.4 -0.3,0.6 -1,5.5 -1.9,11.1 -3,16.7 -0.7,3.8 -1.3,5.7 -3.8,11 -2.4,5.3 -7,14.1 -9.3,18.1 -2,3.4 -5.5,9.8 -13.5,16.7 -8,7 -11.7,9.3 -14.7,11.7 -0.4,0.3 -1.2,-1 -0.8,-1.3 1.2,-1 7.8,-5.9 13.5,-10.8 5.7,-4.9 11,-12.4 13.2,-15.5 1.3,-1.9 9.9,-19 12,-23.9 1.2,-2.8 3.3,-13.9 3.7,-16.4 0.6,-3.2 1,-6.4 0.9,-9.7 -0.1,-1.3 0,-2.4 0,-2.4 l -9.3,-0.8 c 0,0 -4.7,4.3 -6,5.2 -0.8,0.6 -1.2,1.4 -1.2,2.2 0,2.3 0.1,4.6 0.4,6.8 0.2,1.6 0.1,2.5 1.3,3.4 0.7,0.6 2.8,1.3 3.6,1.9 0.1,0.1 0.2,0.3 0.3,0.4 0.5,0.9 0.4,2.3 -0.1,2.8 -0.6,0.6 -1.6,0.5 -2.7,-0.2 -1.2,-0.8 -2.4,-1.7 -3.7,-2.5 -1.8,-1 -2.2,-1.8 -1.7,-3.9 0.6,-2.4 0.6,-5.5 0.2,-7.9 -0.2,-1 -0.8,-1.6 -1.8,-1 -0.6,0.4 -2.4,1.6 -3,2 -1.1,0.8 -0.1,2.2 0.1,3.3 0.3,2.5 0.8,4.9 1.2,7.4 0.1,0.5 0.2,0.9 0.3,1.3 0.2,0.7 0.6,1.1 1.4,1.1 1,0 2.1,0.2 3.1,0.3 1.5,0.2 1.8,0.6 1.7,2.2 0,1.4 -0.2,1.1 -1.6,1.1 -1.7,0.1 -3.3,-0.2 -5,-0.2 -0.9,0 -1.5,-0.6 -1.6,-1.5 -0.5,-3 -0.5,-4.2 -1,-7.2 -0.2,-1.4 -0.8,-2.8 -1,-4.1 -0.1,-0.8 -0.6,-2.2 -1.2,-1.8 -1.9,1.2 -3.5,2.4 -5.5,3.5 -1.4,0.8 -2.1,1.4 -3.6,1.4 -0.6,0 -7.7,-1.1 -8.5,-2.4 -0.8,-1.5 -1.4,-3 -2,-4.6 -1.6,-4.1 -2.6,-7.4 -4.2,-11.5 -1.7,-4.4 -3.4,-9 -5.1,-13.4 -0.9,-2.3 -1.5,-5.4 -2.4,-7.8 -0.4,-1.1 0.4,-2.7 1.1,-3.6 6.8,-4.7 17.3,-12 21.2,-14.4 1.7,-1 4.6,-3.1 6.3,-4.2 1.7,-1.1 3.4,-2.4 5.1,-3.6 0,0 9.4,-6.1 9.6,-6.3 1.2,-1.2 2.2,-0.6 3.7,-0.7 1.1,0 2.5,0.5 3.6,0.5 2.7,0.1 3,1.6 2.8,3.5 -0.3,2.7 -0.6,13.1 -0.8,15.7 0,0.2 0.1,0.4 0.2,0.7 0.2,-0.1 0.5,-0.1 0.7,-0.2 0.5,-0.4 12.2,-11.4 12.2,-11.4 0,0 -0.1,-0.1 -0.9,-1 -1.1,-1.2 -2.3,-2.4 -3.4,-3.6 -0.9,-1 -3.4,-4.3 -3.8,-4.8 -2.5,-3.4 -5.2,-6.8 -7.4,-10.4 -1.9,-3 -6.8,-14.5 -7.7,-17 -1.4,-4.1 -5.2,-20.6 -6.1,-24.6 -0.6,-2.9 -1.3,-5.7 -1.6,-8.6 -0.6,-5.5 -1,-11 -1.3,-16.5 -0.5,-7.5 -0.9,-15 -0.3,-22.4 0.4,-4.9 2.8,-14.5 2.8,-14.5 0,0 -1.3,2.4 -2.7,1.3 -1.1,-0.8 -0.6,-1.9 -0.1,-2.4 0.4,-0.6 0.7,-1.2 0.7,-1.2 0,0 -2.8,1.6 -6.4,3.2 -3.6,1.6 -9.9,3.7 -12.6,4.4 -5.3,1.4 -10.8,2 -16.2,2.4 -3.9,0.3 -7.8,0.4 -11.8,-0.1 -1.9000003,-0.3 -8.1000003,-1.3 -9.4000003,-1.4 -0.39999999,0 -0.79999999,0 -1.09999999,-0.1 -0.2,-0.1 0,-1.2 0.2,-1.1 2.69999999,0.3 13.70000029,1.9 16.40000029,1.8 4.3,-0.1 16.8,-1.9 18.8,-2.3 2,-0.5 16.9,-5.3 18.8,-6.3 1.9,-1.1 4.1,-2.3 4.1,-2.3 0,0 -0.5,-0.1 -1.3,-0.5 -1.7,-0.9 -3.5,-1.8 -5.1,-2.9 -1,-0.6 -9.4,-6.6 -12.4,-18.4 -3,-11.8 -2.8,-19 -2.8,-21.1 0,-1.4 0.3,-2.8 0.5,-4.2 0.1,-0.3 1.6,-0.4 1.6,-0.3 -0.1,1.7 -0.3,2.4 -0.2,5.7 0.1,3.3 1.7,15.9 2.2,17.8 1.6,6.4 3.5,9 5.8,12.1 5,6.7 10.7,9.3 11.6,9.7 0.8,0.3 1.3,0.4 1.3,0.4 0,0 12.1,-28.1 13.2,-30.5 0.4,-1 0.8,-2 1.3,-3 0.7,-1.6 0,-2.9 -0.8,-4.2 -1.6,-2.5 -6.2,-9.9 -7.4,-10.9 -0.8,-0.7 -0.7,-1.7 -0.5,-2.6 0.5,-2.6 1.2,-5.1 1.8,-7.7 0.2,-1 0.7,-1.4 1.6,-1.7 3.7,-1.1 7.4,-2.4 11.1,-3.4 4,-1.1 17.8,-4.7 20.699997,-5.4 3.5,-0.9 20.1,-5 24.8,-6.3 2.8,-0.8 5.6,-1.8 8.4,-2.7 1.4,-0.5 1.7,-0.4 2.6,0.8 1.5,2.1 2.6,4.3 2.8,6.9 0,1 -0.1,2.1 -0.2,3.1 -0.5,2.9 -2.4,14 -2.7,16.6 -0.1,0.8 0,1.4 0.6,2.1 1.2,1.5 2.3,3.2 2.8,5.1 0.3,1.1 1.5,5.6 1.5,6.8 0.1,2.7 0.1,8.9 -0.1,9.1 -0.3,0.4 -0.8,0.9 -1.3,0.9 -0.4,0 -0.9,-0.5 -1.2,-1 -0.2,-0.3 0,-6.2 -0.1,-8.8 -0.1,-3 -1.1,-5.7 -2.3,-8.4 -0.1,-0.2 -0.4,-0.4 -0.6,-0.6 -0.1,0.3 -0.2,0.5 -0.2,0.8 -0.6,4.5 -2.4,18 -2.7,20.2 -0.4,2.6 -1.5,3.7 -4.2,4.2 -1.4,0.3 -2.8,0.6 -4.3,1 -1.7,0.4 -2.5,2.7 -1.5,4.4 0.5,0.8 1.2,1.6 1.9,2.3 2,1.9 4.1,3.7 6,5.7 0.8,0.8 0.7,1.9 0.3,2.9 -0.3,0.7 -0.9,1 -1.6,0.9 -0.4,-0.1 -0.9,-0.2 -1.2,-0.5 -1,-0.9 -2,-1.9 -3,-2.9 -2,-1.8 -3.6,-3.9 -5.9,-5.4 -0.8,-0.5 -1,-1.4 -0.8,-2.3 0.2,-1.1 0.5,-2.1 0.7,-3.2 0.2,-1 0,-1.2 -0.9,-1 -2.9,0.7 -5.8,1.3 -8.8,2 -0.6,0.1 -1,0.5 -0.9,1.1 0.1,1.5 0,3 0.2,4.5 0.1,1.2 0.8,2.2 2.1,2.8 1.6,0.7 3.1,1.4 4.7,2.1 0.8,0.3 1.4,0.7 1.5,1.7 0.1,1.2 -0.3,2.1 -1.2,2.7 -0.2,0.2 -0.7,0.1 -0.9,0 -2,-0.9 -4,-1.9 -5.9,-2.9 -0.3,-0.1 -0.6,-0.3 -0.9,-0.4 -1.2,-0.3 -1.9,-1.2 -2.1,-2.3 -0.3,-1.5 -0.3,-3.1 -0.5,-4.6 -0.1,-1 -0.2,-2 -0.3,-3 -0.1,-0.9 -0.8,-0.7 -1.3,-0.7 -1.2,0.2 -10.799997,2.5 -11.699997,2.5 -1.9,0.1 -3.1,-1.3 -4.2,-2.5 -0.7,-0.8 -5.9,-9.5 -8,-12.9 -0.7,-1.1 -1.4,-2.2 -2.1,-3.3 -0.6,-0.8 -0.9,-0.8 -1.3,0.1 -1.1,2.5 -11.4,26.4 -12.7,29.5 -1,2.5 -0.7,2.1 -0.7,2.1 0,0 7.7,2.2 10.4,3 4,1.1 7.9,2.6 12.1,3.2 2.5,0.3 4.9,1.3 7.4,1.8 2.8,0.5 5.6,0.9 8.399997,1.2 5.8,0.7 11.5,1.4 17.3,1.8 3.5,0.3 7,0.2 10.5,0.1 4.4,-0.2 8.8,-0.5 13.3,-0.8 4,-0.3 8,-0.9 12,-1.1 7.1,-0.3 14,-1.8 21,-2.7 5.1,-0.6 10.2,-1.5 15.2,-2.5 5.5,-1 10.9,-2.3 16.3,-3.5 3.5,-0.8 7,-1.6 10.4,-2.7 4.4,-1.4 8.6,-3.1 12.6,-5.5 2.5,-1.5 5.1,-2.8 7.5,-4.5 3,-2 6.1,-4 8.5,-6.8 0.9,-1 3.9,-4.7 3.9,-4.7 0,0 -1.7,0.7 -2.8,-0.1 -0.4,-0.3 -1.1,-2 -0.3,-2.7 0.9,-0.7 3.3,-1.1 3.3,-1.1 0,0 -1.1,-0.3 -3.8,-2.6 -2.7,-2.3 -3.8,-3.7 -5,-6 -1.4,-2.6 -2.7,-5.4 -3.9,-8.1 -0.9,-2.1 -1.7,-4.3 -2.6,-6.4 -1.3,-3 -2.7,-6 -3.5,-9.2 -0.9,-3.6 -1.9,-7.1 -2.2,-10.8 -0.3,-3.5 -0.8,-7 -1.1,-10.5 -0.1,-1.6 0.2,-3.2 0.3,-4.9 0.2,-2.1 0.4,-4.2 0.6,-6.2 0,-0.2 0,-0.5 0.1,-0.6 0.2,-0.2 0.4,-0.4 0.7,-0.6 0.2,0.2 0.6,0.5 0.6,0.7 0.1,1.2 0.1,2.4 0,3.5 -0.5,4 -0.6,8 -0.2,12 0.5,4.8 1.1,9.6 2.3,14.3 1.1,4.6 2.8,8.8 4.6,13.1 1.4,3.4 2.8,6.8 4.4,10.1 1.5,3.1 4,6 5.9,7.7 1.8,1.6 5.1,3.3 5.1,3.3 0,0 10,-4.9 14.2,-7.9 1,-0.7 1.5,-1.8 1.6,-3.1 0.1,-2.6 -0.5,-4.9 -1.7,-7.1 -0.5,-0.9 -0.8,-2 -0.9,-3.1 -0.1,-0.9 0.2,-1.8 1.1,-2.3 0.7,-0.4 0.9,-1 0.9,-1.8 0,-2.2 0.1,-4.4 0,-6.6 0,-2 0.9,-3.3 2.3,-4.6 1.9,-1.6 3.6,-3.3 5.5,-4.9 0.5,-0.4 1,-0.8 1.6,-0.9 1.5,-0.1 3.1,-0.1 4.6,0 z M 47.582843,230.2 c -2.4,1.5 -16.7,10.4 -19.7,13.4 -0.7,0.7 -0.7,0.9 0.1,1.3 0.8,0.4 1.8,0.7 2.6,1.1 0.8,0.3 1.5,0.2 2.2,-0.3 1.3,-1 7.4,-5.4 9.1,-6.8 3.3,-2.7 29.1,-21.4 29.2,-22 0.1,-0.7 -2.9,-0.9 -2.9,-0.9 -0.6,0.4 -19.2,13.4 -20.6,14.2 z M 214.98284,159.4 c 0,-0.2 -0.1,-0.3 -0.2,-0.4 -0.1,0.1 -0.2,0.3 -0.2,0.5 -0.1,0.7 -0.2,1.5 -0.4,2.2 -0.6,3 -6.7,41.6 -7,42.8 -0.3,1.4 -0.8,1.8 -2.2,1.6 -2.8,-0.3 -19.2,-1.5 -22.8,-1.5 -1.4,0 -1.8,0.5 -1.6,1.8 0,0.4 0.2,6.1 0.3,8.6 0,0.5 0.2,1 0.4,1.4 0.9,1.7 3,5.9 3.1,6.4 0.1,0.7 -0.2,1.1 -0.9,1.3 -0.6,0.2 -1.2,0.2 -1.7,-0.4 -0.6,-0.9 -5,-8 -5,-11.3 0,-2.1 0,-4.3 0,-6.4 0,-0.8 -0.2,-1.2 -1,-1.2 -3.1,-0.2 -6.2,-0.4 -9.4,-0.5 -0.8,0 -1.1,0.6 -1.1,1.5 0.1,1.6 0,6.8 0.3,7.6 0.7,1.3 3.9,5.4 4.3,6.4 0.3,0.6 0.5,1.4 -0.2,2 -0.8,0.6 -1.5,0.5 -2.3,-0.1 -0.2,-0.1 -2.9,-2.9 -4.2,-4.1 -0.8,-0.8 -1.1,-1.8 -1.1,-2.8 0.1,-2.4 0.2,-8.4 0.1,-9 -0.2,-1 -0.8,-1.5 -1.8,-1.6 -1.3,0 -10.3,-0.4 -13.5,-0.5 -1.4,0 -2.2,-0.6 -2.7,-1.8 -0.6,-1.6 -1.3,-3.2 -1.7,-4.9 -1,-4.7 -1.9,-9.5 -2.8,-14.3 -0.6,-3.2 -5.4,-27.4 -6.2,-30.9 -0.3,-1.4 -0.6,-1.5 -1.7,-0.6 -0.2,0.1 -13.8,18.6 -13.8,18.6 0,0 3.2,8.9 3.6,19.6 0.1,1.7 -0.2,5.3 -0.2,5.4 -0.1,3.1 -0.9,6.9 -1.9,9.7 -1.4,3.6 -6.7,13.1 -10.4,16.1 -3.7,2.9 -8.8,5.3 -11.899997,5.7 -1.7,0.1 -1.7,0.5 -1.1,1 2.1,1.9 4.499997,3.5 6.799997,5.1 1.2,0.8 2.7,1.3 4.1,1.9 0.6,0.3 -0.2,2 -0.6,1.8 -1.6,-0.6 -2.1,-0.2 -5.5,-2.4 -3.399997,-2.2 -5.399997,-4 -7.999997,-6.8 -0.6,-0.6 -1,-1.1 -1,-1.1 0,0 -3.6,2.1 -4.6,3.1 -3.6,3.5 -7.2,5.8 -10.8,9.4 -1.1,1.1 -1.3,4 -1.2,5.6 0,1 -0.2,2.1 -0.3,3.1 -0.4,3.7 -0.8,7.5 -1.2,11.2 -0.2,2.2 -0.5,4.3 -0.7,6.5 -0.2,1.6 -0.3,2.7 -0.3,2.7 0,0 7.7,0.6 10.3,0.8 0.9,0.1 1.8,0.3 2.7,0.5 1,0.2 1.4,0.4 1.4,1.5 0,1.1 -0.4,1.5 -1.6,1.5 -0.4,0 -1.7,-0.1 -1.7,-0.1 0,0 0.3,1.6 0.4,1.9 2.8,4.5 6.4,8.4 10.6,11.5 5,3.7 10.299997,7.1 15.999997,9.8 2.9,1.4 18.6,8.4 23.7,10.1 2.9,1 14.8,4.4 17.7,4.8 3.8,0.6 7.6,0.7 11.4,0.9 2.1,0.1 10.8,-0.7 13.1,-1.1 3,-0.5 5.9,-1 8.9,-1.7 4.4,-1 8.3,-3.1 12.3,-4.9 0.4,-0.2 4.9,-2.7 10.1,-6.2 5.2,-3.6 7.9,-9.4 7.9,-9.4 0,0 -1.8,0.9 -2.8,0.2 -0.9,-0.6 -0.7,-1.6 0,-2.4 0.4,-0.4 1.3,-0.7 1.8,-1 1.9,-0.9 3.8,-1.6 5.7,-2.5 3.9,-1.8 7.9,-3.6 11.8,-5.5 2.2,-1.1 4.3,-2.4 6.4,-3.7 1.3,-0.8 1,-2.2 0.9,-3.4 -0.4,-3.6 -0.8,-7.2 -1.3,-10.8 -0.4,-3 -0.3,-6 -1.5,-8.9 -0.2,-0.5 -0.1,-1.3 0.3,-1.7 0.5,-0.6 1.3,-1.2 2.1,-1.5 1.9,-0.9 3.8,-1.7 5.6,-2.7 4.1,-2.2 8.2,-4.4 12.2,-6.7 3.4,-2 6.7,-4 10,-6.2 4.2,-2.8 8.2,-5.8 12.3,-8.8 1.1,-0.8 1.2,-1.2 0.3,-2.3 -0.1,-0.2 -0.3,-0.3 -0.4,-0.5 -2.5,-3 -5.1,-5.9 -7.3,-9.1 -2.4,-3.3 -4.4,-6.8 -6.5,-10.3 -1.8,-3.1 -3.4,-6.4 -5,-9.7 -1.6,-3.2 -3,-6.5 -4.6,-9.7 -1.3,-2.9 -2.6,-5.8 -3.6,-8.8 -2.3,-6.7 -4.5,-13.4 -5.8,-20.3 -0.5,-2.7 -1.1,-5.3 -1.6,-7.9 -0.5,-3 -0.9,-5.9 -1.3,-8.9 -0.4,-2.9 -0.7,-5.7 -0.9,-8.6 -0.3,-4.4 -0.4,-8.8 -0.5,-13.1 0,-0.7 0.1,-1.3 0.1,-2 0.1,-2.1 0,-4.2 0.2,-6.2 0.4,-4.3 0.9,-8.6 1.5,-12.9 0.4,-2.8 1.1,-5.5 1.7,-8.2 0.5,-2 2.2,-6.2 2.5,-7.4 0.3,-1.2 0.3,-1.3 -0.6,-0.6 -0.8,0.6 -6.2,5.8 -9.2,7.6 -2.8,1.7 -5.5,3.5 -8.3,5.1 -2.3,1.2 -4.7,2.1 -7.1,3.2 -3.8,1.7 -7.8,2.8 -11.8,3.7 -1.7,0.4 -3.3,0.7 -5,1.1 -2.2,0.6 -4.4,1.2 -6.7,1.7 -1.5,0.4 -3,0.6 -4.5,0.9 -2.4,0.5 -4.8,1 -7.2,1.4 -1.7,0.3 -3.4,0.6 -5.1,0.9 -2.2,0.4 -4.4,0.8 -6.7,1.1 -3.6,0.5 -7.1,0.8 -10.7,1.3 -2.5,0.3 -5,0.9 -7.6,1.1 -4.4,0.5 -8.8,0.8 -13.2,1.2 -4.3,0.4 -8.6,0.9 -13,1.1 -5.5,0.3 -11.1,0.3 -16.7,-0.2 -1.4,-0.1 -2.8,-0.1 -4.3,-0.2 -1.4,-0.1 -2.8,-0.1 -4.2,-0.3 -2.6,-0.4 -5.3,-0.9 -7.899997,-1.2 -3.2,-0.3 -6.3,-0.8 -9.4,-1.5 -2,-0.5 -4,-1 -6,-1.5 -2.1,-0.5 -4.2,-0.9 -6.3,-1.4 -2.8,-0.7 -5.5,-1.6 -8.3,-2.4 -2.2,-0.6 -7.1,-2.2 -7.1,-2.2 l -1.3,2.7 c 0,0 1.8,6.2 2.6,8.9 1.6,5.3 3.3,10.5 5.6,15.6 2.7,5.8 5.5,11.5 8.7,17.1 2.3,3.9 5.1,7.4 8.2,10.8 3.7,4 16.199997,14.1 18.499997,15.2 2.8,1.3 10.4,2.9 10.4,2.9 0,0 15,-20 16.9,-22.4 0.4,-0.6 0.7,-1.1 0.5,-1.8 -0.3,-1.1 -3.7,-14.4 -4,-15.2 -0.5,-1.3 -0.7,-2.6 -0.2,-4 0.5,-1.6 0.9,-3.2 1.3,-4.8 0.3,-1.3 1,-1.9 2.3,-2 2.1,-0.1 20.7,-0.8 22.5,-0.9 2.1,-0.1 17.7,-0.7 19.4,-0.7 3.3,-0.1 38.8,-0.8 43.4,-0.7 1.8,0 2.4,0.6 2.5,2.4 0.2,2.2 0.4,4.4 0.5,6.6 0.1,2.4 0.4,4.8 -0.4,7.1 -0.4,1.3 -2.5,13.1 -3.2,17.7 0,0.2 0,0.5 0.1,0.7 0.5,1.8 1,3.5 1.5,5.3 2,7.4 2.6,27.2 1.4,31.1 -0.4,1.3 -1,1.9 -2,1.8 -1.1,-0.2 -1.6,-1 -1.4,-2.4 0.1,-0.4 0.6,-2.1 0.6,-2.6 0.6,-3.3 -0.8,-24.7 -0.8,-24.7 z m -53,-31.1 c -3.3,0.1 -13.8,0.3 -15.8,0.4 -3.2,0.2 -13.1,1 -14,1.1 -0.6,0.1 -0.8,0.4 -0.7,0.9 0.2,0.9 0.4,1.7 0.6,2.6 0.6,2.8 1.2,5.6 1.9,8.3 0.8,3.3 7.6,35.5 9,42 1.1,5.3 2,10.6 4.2,15.6 0.5,1.1 1.1,1.5 2.1,1.6 1.9,0.1 50,1.5 50,1.5 1.2,0.1 2.5,0.2 3.7,0.3 0.8,0.1 1.1,-0.2 1.3,-0.8 0.2,-0.9 0.3,-1.7 0.4,-2.6 0.9,-5.6 8.1,-46 8.8,-51.1 0.8,-5.2 1.5,-10.4 2.2,-15.6 0.2,-1.4 -0.2,-2 -1.7,-2.2 -2.2,-0.2 -18.2,-2 -19.5,-1.8 -2.7,0.4 -12.9,-0.3 -15.2,-0.5 m -60.5,49.9 c -0.3,-1.7 -0.9,-3.3 -1.4,-4.9 -0.3,-1.1 -0.3,-1.3 -0.3,-1.3 0,0 -0.6,1.1 -1.9,2.3 -1.4,1.2 -3.5,-0.8 -2.9,-2.2 0.6,-1.4 0.8,-1.4 0.8,-1.4 0,0 -5.1,-1.2 -6.8,-1.7 -3.7,-1.1 -6.699997,-3.6 -9.699997,-5.8 -4.2,-3.1 -7.9,-6.7 -11.5,-10.5 -3.2,-3.3 -6.1,-6.9 -8.4,-10.9 -2.2,-3.7 -4.2,-7.5 -6.2,-11.3 -2.9,-5.6 -5.1,-11.5 -7,-17.5 -1.1,-3.5 -1.6,-5.5 -2.7,-9 -0.1,-0.2 -0.5,-0.1 -0.5,0.1 -0.7,4.1 -1.6,7.2 -1.6,11.4 0,5.8 0,16.7 1.3,32.7 0.5,4.1 3.8,21.2 4.8,25.6 1.3,6 2.6,12 5.2,17.6 1.4,2.9 2.6,6 4.3,8.8 2.6,4.1 5.5,8 8.4,11.9 2.3,3.1 4.7,6.1 7.5,8.7 1.4,1.3 1.4,1.2 1.4,1.2 0,0 1.5,-1.1 1.7,-1.2 1.2,-0.7 2.6,-0.1 2.6,1.4 0,0.6 -1.1,2.1 -1.1,2.1 0,0 0.4,0.9 1.3,0.8 1.5,-0.2 6.099997,-0.6 14.599997,-8.1 3.8,-4.1 7.2,-11.5 8.9,-16.9 1.4,-5.6 0.1,-17.8 -0.8,-21.9 z m -11,-103.5 c 2.8,-0.6 14.9,-3.3 18.3,-4 1.9,-0.4 3,-1 3.3,-3.2 0.2,-1.3 1.5,-9.6 2,-12.5 0.5,-2.5 3.8,-22.2 4.6,-26.8 0.5,-2.6 -0.2,-3.3 -3,-2.3 -2.8,1 -13.8,4.2 -16.5,4.9 -4.4,1.2 -21.199997,5.4 -25.199997,6.4 -3,0.7 -16.6,5 -20.4,6.4 -1,0.3 -1.1,1 -0.6,1.8 0.5,1 1.1,2.1 1.7,3.1 1.8,3 9.8,14.5 11.9,17.5 2.3,3.2 4.4,6.4 6.5,9.6 0.8,1.2 1.5,2.3 3,1.9 0.7,-0.1 11.399997,-2.1 14.399997,-2.8 z m 143.8,220.7 c 0,1.3 -0.1,2.7 0.1,4 0.2,1.6 0.5,1.7 2,1 1.6,-0.8 3.2,-1.6 4.8,-2.4 3.1,-1.6 6.3,-3.1 9.4,-4.7 3.7,-1.8 7.3,-3.6 11,-5.4 2.3,-1.2 4.6,-2.4 6.9,-3.6 1,-0.5 1.7,-1.4 1.8,-2.6 0.1,-1.2 0.3,-2.5 0.4,-3.7 0.4,-3.5 0.8,-7 1.3,-10.4 0.7,-4.3 1.5,-8.5 2.3,-12.8 0.9,-4.7 1.9,-9.3 2.9,-14 0.9,-4.5 1.9,-9.1 2.8,-13.6 0.1,-0.6 0,-1.2 0,-1.8 -0.6,0.3 -1.2,0.5 -1.7,0.8 -3.8,2.8 -7.5,5.7 -11.3,8.4 -5,3.4 -10.2,6.6 -15.2,10 -3.3,2.3 -6.4,4.8 -9.7,7.1 -1.6,1.2 -3.3,2.2 -5,3.3 -2,1.4 -3.6,3 -3.3,5.7 0.2,2.1 0.3,4.2 0.3,6.4 0,5.6 -0.1,11.3 0,16.9 -0.1,4 0.1,7.7 0.2,11.4 z m 17.2,-218.4 c -0.1,1.5 0.6,2.7 1.9,3.4 0.5,0.3 1.1,0.7 1.7,0.9 3.8,1.3 7.6,2.7 11.4,3.8 3,0.9 6,1.7 9,2.4 2.5,0.6 5,1.2 7.5,1.4 3.4,0.3 6.7,1 9.9,1.8 2.3,0.6 4.6,1.3 6.8,2 1.3,0.4 1.5,0.2 2,-1 0.3,-0.7 0.4,-1.5 0.6,-2.3 0.9,-3 1.8,-5.9 2.6,-8.9 1.1,-4.1 2.2,-8.2 3.3,-12.3 1.2,-4.4 2.4,-8.8 3.6,-13.2 0.1,-0.4 0.2,-0.7 0.3,-1.1 0.1,-0.6 0.1,-1.2 -0.9,-0.9 -0.8,0.2 -1.8,0.2 -2.6,0.3 -2.3,0.3 -4.5,0.6 -6.8,0.9 -1.3,0.1 -2.1,0.7 -2.9,1.7 -1.1,1.2 -2.3,2.5 -3.7,3.3 -4,2 -9.5,-0.2 -11.2,-3.6 -0.6,-1.1 -0.8,-2.4 -1.1,-3.7 -0.4,-1.6 -1.5,-2.2 -2.9,-1.1 -0.5,0.3 -0.7,1.1 -0.8,1.7 -0.3,1.8 -1.1,3.2 -2.4,4.4 -1.1,1 -2.3,1.9 -3.4,2.9 -1.9,1.6 -3.9,1.6 -6.1,0.8 -3.1,-1.2 -4.6,-3.7 -5.7,-6.6 -0.3,-0.8 -0.6,-1.4 -1.5,-1.7 -1.3,-0.4 -2.6,-0.7 -4,-0.3 -0.5,0.1 -1.1,0.3 -1.6,0.3 -1.7,0.1 -1.7,0.1 -1.8,1.8 v 1.4 c -0.1,3 -0.2,5.9 -0.3,8.9 -0.4,4.1 -0.6,8.3 -0.9,12.6 z M 70.682843,267.3 c 0,0 1.9,-18.1 2.2,-21.2 0.2,-2.3 1.2,-16.9 1.2,-17 0.1,-1.5 0.2,-2.9 0.3,-4.3 0.2,-2.4 0.4,-4.7 0.6,-7.1 0,-0.5 -0.2,-0.8 -0.7,-0.7 -0.4,0.1 -0.8,0.4 -1.2,0.6 -0.8,0.6 -1.5,1.3 -2.3,1.9 -2,1.6 -4,3.2 -6.1,4.8 -1.6,1.3 -8.5,6.5 -10.2,7.9 -2.2,1.8 -5.6,3.8 -7.8,5.6 -3,2.4 -11,8.3 -12.6,9.5 -0.8,0.5 -1.4,1.6 -1,2.5 1.8,4.4 3.5,9.8 6,13.9 1.2,2 1,2.6 1.7,2.8 6,0.7 29.9,0.8 29.9,0.8 z M 276.48284,36 v 0.2 c -1.8,0 -3.7,0 -5.5,0 -0.7,0 -1,0.2 -1,1 0,2.5 0,5.1 -0.1,7.6 -0.1,2.2 0.7,3.1 2.8,3.3 1,0.1 1.9,0 2.9,0.1 2.1,0.2 2.3,0.1 3.2,-1.7 0.8,-1.5 1.8,-2.9 3.5,-3.6 2.1,-0.8 4.2,-1.6 6.4,-2.3 0.6,-0.2 1.2,-0.2 1.8,-0.1 2.8,0.4 4.8,1.9 5.8,4.7 0.2,0.6 0.6,1.1 1.3,1.1 0.6,0 1.2,0.1 1.9,0.2 0.8,0.1 1.5,0 2.1,-0.7 0.5,-0.6 1.3,-1.1 1.9,-1.6 2.4,-1.9 5,-2.1 7.8,-1.2 1.1,0.3 1.9,1.2 3,1.5 1.7,0.5 2.6,1.7 3.1,3.3 0.5,1.5 0.9,1.8 2.5,1.8 2,0 3.9,-0.1 5.9,-0.3 1.7,-0.2 3.1,-1.1 4.3,-2.5 2,-2.4 2.6,-5.3 3.7,-8 0.3,-0.8 -0.2,-1.2 -0.9,-1.2 -3.5,-0.2 -7,-0.4 -10.5,-0.5 -2.5,0 -5.1,0.2 -7.6,0.2 -1.1,0 -2.3,-0.1 -3.4,0 -2.1,0.1 -4.3,0.2 -6.4,0.3 -1.1,0 -2.2,-0.2 -3.2,-0.2 -2.7,-0.2 -5.4,-0.3 -8.1,-0.5 -1.6,-0.1 -3.2,-0.3 -4.9,-0.4 -1.9,-0.1 -3.7,-0.1 -5.6,-0.2 -2.2,-0.1 -4.5,-0.2 -6.7,-0.3 z m 21.2,184.6 c 0,-0.2 -0.1,-0.4 -0.1,-0.7 -0.2,-0.1 -0.5,-0.2 -0.7,-0.3 -1.1,-0.8 -2.2,-1.6 -3.3,-2.5 -1.2,-0.9 -1.2,-1 -2.5,-0.1 -4.2,2.9 -8.3,5.9 -12.5,8.8 -5,3.4 -10,6.9 -15.1,10.1 -3.5,2.3 -7.3,4.2 -10.9,6.4 -2.7,1.6 -5.4,3.5 -8.3,4.8 -0.5,0.2 -0.9,0.7 -1.4,1 0.4,0.4 0.9,0.8 1.4,1.1 1.9,1.1 3.9,2 5.7,3.1 0.8,0.5 1.5,0.4 2.2,0 0.9,-0.5 1.8,-1.1 2.7,-1.6 3.8,-2 7,-4.8 10.4,-7.4 1.7,-1.3 3.3,-2.7 5.1,-3.8 3.6,-2.4 7.3,-4.6 10.9,-7 2.8,-1.9 5.6,-3.8 8.3,-5.8 2.3,-1.7 4.5,-3.5 6.8,-5.2 0.3,-0.4 0.8,-0.6 1.3,-0.9 z m -136.6,-96 c 2.6,-0.1 14.5,-0.1 17.8,0 2.9,0.1 34.8,1.4 36.2,1.5 0.8,0.1 1.1,-0.3 1.1,-1 0,-0.9 0,-1.8 0,-2.6 -0.1,-2.2 -1,-3.1 -3.2,-3.1 -3,-0.1 -40.9,0.6 -45,0.7 -2,0.1 -9.5,0.8 -11.2,0.8 -1.9,0.1 -18.2,0.7 -21,0.7 v 0.1 c -0.7,0 -1.4,0 -2.1,0 -1.6,0 -1.8,0.2 -2.1,1.8 -0.1,0.6 -0.5,1.3 -0.2,1.7 0.3,0.4 1.1,0.4 1.6,0.5 2.8,0.4 28.1,-1.1 28.1,-1.1 z M 69.582843,40.9 c 0.7,-0.2 1.5,-0.4 2.2,-0.8 3.2,-1.4 35.999997,-9.7 42.099997,-11.5 1.8,-0.5 12.5,-3.4 16,-4.6 1.6,-0.5 3.2,-1.5 4.7,-2.4 0.9,-0.5 0.9,-1.5 0,-1.9 -0.7,-0.3 -1.6,-0.5 -2.3,-0.4 -3.9,0.9 -7.8,2 -11.7,3.1 -2.1,0.6 -14.4,3.4 -18.3,4.4 -3.799997,0.9 -19.999997,5.3 -24.399997,6.5 -2.4,0.7 -4.8,1.3 -7.2,2.1 -0.6,0.2 -1.3,0.6 -1.5,1.2 -0.4,1 -0.6,2.2 -0.8,3.3 -0.1,0.7 0.4,1 1.2,1 z M 330.18284,34.3 c 0.9,-0.1 1.8,-0.1 2.6,-0.1 1,0 1.2,-0.4 0.8,-1.3 -0.4,-0.9 -1,-1.4 -2,-1.4 -2.8,-0.2 -5.6,-0.3 -8.5,-0.5 -2,-0.1 -4.1,-0.3 -6.1,-0.5 -3.6,-0.3 -7.2,-0.5 -10.8,-0.9 -2.5,-0.3 -4.9,-0.7 -7.4,-1.2 -3.3,-0.6 -6.6,-1.4 -9.9,-1.8 -2.8,-0.4 -5.6,-0.5 -8.4,-0.5 -1.5,0 -3.1,0 -4.4,1.2 -1.4,1.3 -2.7,2.7 -4.1,4.1 -0.5,0.5 -0.4,0.9 0.3,1 1.3,0.2 2.5,0.3 3.8,0.4 1.8,0 3.6,-0.2 5.4,-0.1 2.9,0.1 5.7,0.5 8.6,0.7 1.6,0.1 3.1,0.2 4.7,0.3 2,0.2 4,0.4 6.1,0.5 1.5,0.1 3,0 4.5,0 1.4,0 2.9,0.3 4.3,0.3 2,0 4,-0.2 6,-0.2 h 3.4 c 2.1,-0.1 4.2,-0.2 6.2,-0.2 1.6,-0.1 3.2,0.1 4.9,0.2 z m -89.1,220.9 h 0.2 c 0,0.9 -0.1,1.8 0,2.6 0.3,3.3 0.7,6.6 1.1,10 0.2,1.4 0.2,1.4 1.4,0.8 1.1,-0.5 2,0.1 2.2,1.3 0.2,1.2 -0.5,2 -1.4,2.6 -1.3,0.8 -1.8,2 -1.7,3.5 0.1,2.6 0.1,5.2 0.1,7.8 0,2.1 -0.1,4.2 -0.1,6.2 0,1.5 0.2,2.9 0.3,4.4 0.1,2.1 1.3,3.3 3.1,4 0.3,0.1 0.6,0.2 0.8,0.3 1.6,0.8 2.1,0.5 2.2,-1.3 0,-0.2 0,-0.3 0,-0.5 0,-7.1 0,-14.2 0,-21.3 0,-1.9 0.2,-3.8 0.2,-5.7 -0.2,-4.3 -0.6,-8.5 -0.8,-12.7 -0.1,-1.2 -0.4,-2.1 -1.5,-2.7 -1.6,-0.8 -3.2,-1.6 -4.9,-2.3 -0.8,-0.3 -1.1,-0.1 -1.1,0.8 -0.2,0.6 -0.1,1.4 -0.1,2.2 z M 43.682843,269.4 c -1.2,0.2 -0.3,1.2 0.1,2.4 1.1,2.8 3.9,9.7 4.1,10.4 0.2,0.6 0.5,0.8 1.1,0.5 0.8,-0.5 1.7,-0.9 2.5,-1.4 2.2,-1.3 4.4,-2.5 6.5,-3.9 3,-1.8 6,-3.7 8.9,-5.5 0.5,-0.3 1.6,-0.8 2,-1.2 -0.6,-0.2 -7,-0.9 -9,-1 -3,-0.2 -15.2,-0.5 -16.2,-0.3 z M 293.48284,48.9 c 0.1,-1.7 -0.2,-2.5 -1.1,-4.2 -0.8,-1.4 -1.5,-1.8 -3.1,-1.2 -2.1,0.7 -4.1,1.5 -6.2,2.4 -2,0.9 -2.9,3.1 -2.4,5.2 0.6,2.2 2.2,3.6 3.9,4.9 1.4,1 2.6,0.9 4,-0.1 0.6,-0.5 1.1,-1 1.8,-1.4 2,-1.4 3,-3.3 3.1,-5.6 z m 20.3,1.4 c 0.1,-1.3 0,-2.6 -1.2,-3.4 -0.7,-0.5 -1.4,-0.9 -2.2,-1.1 -2.9,-0.9 -5.3,0.2 -7.3,2.3 -0.7,0.7 -0.8,1.4 -0.4,2.3 0.4,0.8 0.9,1.6 1.4,2.4 1.3,2 3.4,2.9 5.7,2.3 2.5,-0.7 4,-2 4,-4.8 z m -14.7,183 c -0.1,0.3 -0.3,0.6 -0.4,0.9 -0.4,1.7 -0.8,3.4 -1.1,5.1 -0.4,1.9 -0.9,3.8 -1.3,5.7 0,0.2 0,0.4 0.1,0.6 0.2,0 0.4,0 0.6,-0.1 0.3,-0.1 0.5,-0.3 0.7,-0.5 2.1,-1.7 4.3,-3.3 6.4,-5 1.8,-1.4 6.9,-5.2 6.9,-5.2 0,0 -4.5,0.4 -5.9,0.5 -2,0.1 -3.8,-0.6 -5.4,-1.7 -0.2,-0.1 -0.4,-0.2 -0.6,-0.3 z m -258.799997,50 c 0.2,0 4.3,0.7 4.5,0.7 1.2,-0.1 -0.1,-2 -0.6,-3.1 0,-0.1 -4.5,-10.4 -4.5,-10.4 0,0 -3.2,-0.1 -3.9,-1.3 -0.6,-1.1 -0.4,-1.3 0.1,-2.1 0.3,-0.5 2,-0.6 2,-0.6 -5.7,-13.3 -5.5,-12.8 -6.3,-14.8 -0.6,-2 -2.5,-2.8 -4.6,-3.3 -0.3,-0.1 -0.5,0 -0.8,0 0,0.2 0,0.5 0.1,0.7 0.2,0.5 0.5,1 0.7,1.5 1.8,4.7 9.4,25.6 11.2,30.4 0.5,0.9 0.8,2.5 2.1,2.3 z"
     id="path12"
     inkscape:connector-curvature="0"
     style="fill-rule:evenodd" />
  <path
     d="m 190.98284,161.9 c 0.4,0.1 0.8,0.1 1.3,0.1 1.2,0 1.9,-0.6 2,-1.8 0,-0.9 -0.1,-1.8 -0.2,-2.7 -0.1,-0.8 -0.4,-1.4 -1.3,-1.3 -0.9,0 -1.7,1 -1.9,2.1 -0.2,0.7 -0.6,0.9 -1.3,0.9 -4.8,-0.1 -9.6,-0.1 -14.4,-0.3 -2.6,-0.1 -5.1,-0.3 -7.7,-0.4 -0.4,0 -0.7,-0.1 -1.1,-0.1 -1.1,0 -2.3,-0.1 -3.4,-0.1 -1.1,0 -2.2,0.1 -3.4,0.1 -0.7,0 -1.2,-0.3 -1.4,-1 -0.1,-0.2 -0.1,-0.5 -0.2,-0.7 -0.4,-1.1 -1.4,-1.7 -2.2,-1.7 -0.8,0 -0.8,0.7 -0.8,1.3 0.1,1.2 0.2,2.4 0.3,3.6 0.1,0.8 0.6,1.2 1.5,1.2 h 3.6 c 3.4,0 6.9,0 10.3,0.1 2.5,0.1 5,0.4 7.4,0.5 2.8,0.1 5.6,0.1 8.4,0.2 z m -35.7,-16.6 c 1,0 1.9,-1 1.9,-2.2 0,-1.2 -0.7,-1.8 -1.9,-1.9 -1,0 -1.6,0.5 -1.6,1.8 0,1.3 0.6,2.2 1.6,2.3 z m 33.6,-1.6 c 0,-1.3 -0.6,-2 -1.7,-2 -0.9,0 -1.6,0.8 -1.6,1.7 0,1.2 0.8,2.1 1.8,2.1 1,0 1.5,-0.7 1.5,-1.8 z"
     id="path14"
     inkscape:connector-curvature="0"
     style="fill:none" />
  <path
     d="m 93.182843,59.6 c 0.1,0.7 0.2,1.7 0.4,2.7 0.1,0.9 0.6,1.4 1.6,1.2 1.4,-0.2 2.7,-0.5 4,-0.8 3.199997,-0.7 6.299997,-1.5 9.499997,-2 3.7,-0.6 7.4,-0.9 11.1,-1.5 1.1,-0.2 2.5,-0.2 2.9,-1.6 0.4,-1.5 0.5,-3 0.7,-4.6 0.1,-0.6 -0.3,-0.9 -0.9,-1 -1.3,-0.2 -1.9,0.1 -2.3,1.5 -0.5,1.7 -1.4,2.6 -3.3,2.7 -1.9,0.1 -3.9,0.5 -5.8,0.8 -2.1,0.3 -4.2,0.7 -6.3,1.1 -1.9,0.4 -3.8,0.6 -5.699997,1.2 -2.2,0.6 -2.2,0.7 -2.8,-1.4 -0.3,-1 -0.8,-1.1 -1.7,-1.1 -0.9,0 -1.2,0.6 -1.3,1.2 -0.1,0.4 -0.1,0.9 -0.1,1.6 z m -5.6,-12.4 c 0,-1.1 -0.6,-2 -1.4,-2 -1.1,-0.1 -2.1,0.8 -2.1,1.8 -0.1,1.1 0.9,2.3 1.9,2.3 0.9,0 1.6,-0.8 1.6,-2.1 z m 36.699997,-7.1 c 0,-1.3 -0.7,-2.2 -1.8,-2.3 -0.9,0 -1.6,0.7 -1.7,1.6 0,1.1 0.9,2.4 1.7,2.4 1.1,0.1 1.8,-0.6 1.8,-1.7 z"
     id="path16"
     inkscape:connector-curvature="0"
     style="fill:none" />
  <path
     d="m 300.98284,72.9 v 0.2 c 0.8,-0.1 1.6,-0.2 2.5,-0.3 0.9,-0.1 1.7,-0.2 2.6,-0.4 0.7,-0.2 1.5,-0.5 1.4,-1.4 -0.1,-1.6 -0.3,-3.2 -0.6,-4.8 -0.2,-0.9 -0.9,-1.1 -2,-1 -1,0.1 -0.9,0.8 -0.9,1.5 v 1.1 c 0.1,0.9 -0.4,1.3 -1.1,1.6 -0.4,0.2 -0.9,0.3 -1.3,0.4 -1.8,0.2 -3.6,0.5 -5.4,0.7 -1.5,0.2 -3,0.4 -4.5,0.5 -1.4,0.1 -2,-0.3 -2.5,-1.5 -0.2,-0.5 -0.5,-1.1 -0.9,-1.4 -0.4,-0.3 -1,-0.4 -1.6,-0.4 -0.2,0 -0.7,0.5 -0.6,0.8 0.2,1.7 0.4,3.3 0.8,4.9 0.1,0.3 0.7,0.8 1.1,0.8 1.7,0 3.4,-0.2 5.1,-0.4 2.5,-0.3 5.2,-0.6 7.9,-0.9 z"
     id="path18"
     inkscape:connector-curvature="0"
     style="fill:none" />
  <path
     d="m 288.08284,49.6 c 0,-0.9 -0.8,-1.8 -1.6,-1.8 -0.6,0 -1.3,0.8 -1.3,1.6 0,1.1 0.6,1.9 1.4,1.9 0.7,0 1.5,-0.9 1.5,-1.7 z"
     id="path20"
     inkscape:connector-curvature="0"
     style="fill:none" />
  <path
     d="m 306.88284,49.5 c 0,1.2 0.7,1.9 1.9,1.9 1,0 1.6,-0.6 1.7,-1.5 0,-1.1 -0.8,-2 -2,-2.1 -1.1,0.1 -1.6,0.5 -1.6,1.7 z"
     id="path22"
     inkscape:connector-curvature="0"
     style="fill:none" />
  <g
     id="g48"
     style="fill-rule:evenodd"
     transform="translate(-238.81716,-118.2)">
    <path
       d="m 429.8,280.1 c -1.5,0 -3,0 -4.5,0 -2.8,0 -5.6,0 -8.4,-0.2 -2.5,-0.1 -5,-0.5 -7.4,-0.5 -3.4,-0.1 -6.9,-0.1 -10.3,-0.1 -1.2,0 -2.4,0 -3.6,0 -0.8,0 -1.4,-0.4 -1.5,-1.2 -0.1,-1.2 -0.2,-2.4 -0.3,-3.6 0,-0.6 0,-1.3 0.8,-1.3 0.8,0 1.7,0.6 2.2,1.7 0.1,0.2 0.2,0.5 0.2,0.7 0.2,0.7 0.7,1.1 1.4,1 1.1,0 2.2,-0.1 3.4,-0.1 1.1,0 2.3,0 3.4,0.1 0.4,0 0.7,0.1 1.1,0.1 2.6,0.2 5.1,0.4 7.7,0.4 l 14.4,0.3 c 0.7,0 1.1,-0.2 1.3,-0.9 0.3,-1.1 1.1,-2.1 1.9,-2.1 1,0 1.2,0.6 1.3,1.3 0.1,0.9 0.3,1.8 0.2,2.7 -0.1,1.2 -0.8,1.8 -2,1.8 -0.4,0 -0.8,-0.1 -1.3,-0.1 z"
       id="path24"
       inkscape:connector-curvature="0" />
    <path
       d="m 394.1,263.5 c -1,0 -1.6,-0.9 -1.6,-2.4 0,-1.2 0.6,-1.8 1.6,-1.8 1.2,0.1 1.9,0.7 1.9,1.9 0,1.2 -0.9,2.3 -1.9,2.3 z"
       id="path26"
       inkscape:connector-curvature="0" />
    <path
       d="m 427.7,261.9 c 0,1.1 -0.5,1.9 -1.4,1.8 -1,0 -1.8,-0.9 -1.8,-2.1 0,-1 0.6,-1.7 1.6,-1.7 1,-0.1 1.6,0.7 1.6,2 z"
       id="path28"
       inkscape:connector-curvature="0" />
    <path
       d="m 332,177.8 c 0,-0.7 0,-1.1 0.1,-1.5 0.2,-0.7 0.5,-1.2 1.3,-1.2 0.8,0 1.4,0.1 1.7,1.1 0.6,2.1 0.6,2 2.8,1.4 1.9,-0.5 3.8,-0.8 5.7,-1.2 2.1,-0.4 4.2,-0.7 6.3,-1.1 1.9,-0.3 3.9,-0.7 5.8,-0.8 1.8,-0.1 2.8,-1 3.3,-2.7 0.4,-1.4 1,-1.7 2.3,-1.5 0.6,0.1 0.9,0.4 0.9,1 -0.2,1.5 -0.3,3.1 -0.7,4.6 -0.4,1.4 -1.8,1.4 -2.9,1.6 -3.7,0.5 -7.4,0.8 -11.1,1.5 -3.2,0.5 -6.3,1.4 -9.5,2 -1.3,0.3 -2.7,0.5 -4,0.8 -0.9,0.2 -1.4,-0.3 -1.6,-1.2 -0.2,-1.1 -0.3,-2.1 -0.4,-2.8 z"
       id="path30"
       inkscape:connector-curvature="0" />
    <path
       d="m 326.4,165.4 c -0.1,1.3 -0.7,2.1 -1.7,2.1 -1,0 -1.9,-1.1 -1.9,-2.3 0.1,-1 1.1,-1.9 2.1,-1.8 0.9,0 1.5,0.9 1.5,2 z"
       id="path32"
       inkscape:connector-curvature="0" />
    <path
       d="m 363.1,158.3 c 0,1.1 -0.7,1.8 -1.7,1.7 -0.8,0 -1.8,-1.3 -1.7,-2.4 0,-1 0.7,-1.7 1.7,-1.6 1,0 1.7,1 1.7,2.3 z"
       id="path34"
       inkscape:connector-curvature="0" />
    <path
       d="m 539.8,191.1 c -2.7,0.3 -5.4,0.6 -8.1,0.9 -1.7,0.2 -3.4,0.3 -5.1,0.4 -0.4,0 -1,-0.5 -1.1,-0.8 -0.3,-1.6 -0.6,-3.3 -0.8,-4.9 0,-0.2 0.4,-0.8 0.6,-0.8 0.5,0 1.2,0.1 1.6,0.4 0.4,0.3 0.6,0.9 0.9,1.4 0.6,1.2 1.1,1.6 2.5,1.5 1.5,-0.1 3,-0.3 4.5,-0.5 1.8,-0.2 3.6,-0.4 5.4,-0.7 0.5,-0.1 0.9,-0.2 1.3,-0.4 0.7,-0.3 1.2,-0.7 1.1,-1.6 0,-0.4 0,-0.8 0,-1.1 0,-0.7 0,-1.3 0.9,-1.5 1.1,-0.1 1.8,0.1 2,1 0.3,1.6 0.5,3.2 0.6,4.8 0.1,0.9 -0.7,1.2 -1.4,1.4 -0.8,0.2 -1.7,0.3 -2.6,0.4 -0.8,0.1 -1.6,0.2 -2.5,0.3 0.2,-0.1 0.2,-0.2 0.2,-0.2 z"
       id="path36"
       inkscape:connector-curvature="0" />
    <path
       d="m 296.3,377.2 c 0.2,1.3 -0.2,1.6 -1.5,2.1 -2.3,1 -4.6,2.1 -6.9,3.2 -1,0.5 -1.7,0.4 -2.2,-0.6 -0.4,-0.9 -0.7,-1.8 -0.8,-2.7 -0.1,-1 0.6,-1.7 1.6,-1.4 0.6,0.2 0.4,1.2 0.9,1.6 0.6,0.6 0.8,0.8 1.4,0.5 0.7,-0.4 4.3,-1.8 5,-2.2 0.8,-0.5 -0.5,-2.6 -0.4,-3 0.1,-0.4 1.6,-1.2 2.1,-0.7 0.5,0.5 0.6,1.9 0.8,3.2 z"
       id="path38"
       inkscape:connector-curvature="0" />
    <path
       d="m 302.4,355.4 c 0,0.9 -0.6,1.7 -1.3,1.8 -0.8,0 -1.7,-1.1 -1.7,-2 0,-0.9 0.7,-1.6 1.6,-1.6 0.9,-0.1 1.4,0.7 1.4,1.8 z"
       id="path40"
       inkscape:connector-curvature="0" />
    <path
       d="m 280.8,368.9 c 0,-1.2 0.3,-1.5 1.4,-1.5 1.1,0 1.7,0.6 1.6,1.9 0,1.2 -0.5,1.7 -1.5,1.7 -1,0.1 -1.5,-0.7 -1.5,-2.1 z"
       id="path42"
       inkscape:connector-curvature="0" />
    <path
       d="m 526.9,167.8 c 0,0.8 -0.8,1.7 -1.5,1.7 -0.8,0 -1.4,-0.8 -1.4,-1.9 0,-0.8 0.7,-1.6 1.3,-1.6 0.7,0 1.5,0.9 1.6,1.8 z"
       id="path44"
       inkscape:connector-curvature="0" />
    <path
       d="m 545.7,167.7 c 0,-1.2 0.5,-1.7 1.6,-1.6 1.2,0 2.1,0.9 2,2.1 0,0.9 -0.7,1.5 -1.7,1.5 -1.2,0 -2,-0.8 -1.9,-2 z"
       id="path46"
       inkscape:connector-curvature="0" />
  </g>
</svg>
