<?xml version="1.0" encoding="UTF-8" standalone="no"?>
<svg
   xmlns:dc="http://purl.org/dc/elements/1.1/"
   xmlns:cc="http://creativecommons.org/ns#"
   xmlns:rdf="http://www.w3.org/1999/02/22-rdf-syntax-ns#"
   xmlns:svg="http://www.w3.org/2000/svg"
   xmlns="http://www.w3.org/2000/svg"
   xmlns:sodipodi="http://sodipodi.sourceforge.net/DTD/sodipodi-0.dtd"
   xmlns:inkscape="http://www.inkscape.org/namespaces/inkscape"
   viewBox="0 0 568.69151 267.82816"
   version="1.1"
   id="svg42"
   sodipodi:docname="encuesta.svg"
   width="568.69153"
   height="267.82816"
   inkscape:version="0.92.3 (2405546, 2018-03-11)">
  <metadata
     id="metadata48">
    <rdf:RDF>
      <cc:Work
         rdf:about="">
        <dc:format>image/svg+xml</dc:format>
        <dc:type
           rdf:resource="http://purl.org/dc/dcmitype/StillImage" />
        <dc:title></dc:title>
      </cc:Work>
    </rdf:RDF>
  </metadata>
  <defs
     id="defs46" />
  <sodipodi:namedview
     pagecolor="#ffffff"
     bordercolor="#666666"
     borderopacity="1"
     objecttolerance="10"
     gridtolerance="10"
     guidetolerance="10"
     inkscape:pageopacity="0"
     inkscape:pageshadow="2"
     inkscape:window-width="1168"
     inkscape:window-height="667"
     id="namedview44"
     showgrid="false"
     inkscape:zoom="0.38840716"
     inkscape:cx="-569.38055"
     inkscape:cy="559.7186"
     inkscape:window-x="1555"
     inkscape:window-y="70"
     inkscape:window-maximized="0"
     inkscape:current-layer="svg42"
     fit-margin-top="0"
     fit-margin-left="0"
     fit-margin-right="0"
     fit-margin-bottom="0" />
  <path
     inkscape:connector-curvature="0"
     style="fill:#a1dba3"
     d="m 128.38051,158.425 0.8,-49 43.1,-7.1 -7.5,49.6 -38.8,10.2"
     id="path2" />
  <path
     inkscape:connector-curvature="0"
     style="fill:#e5e723"
     d="m 216.48051,97.425 -9.5,-22.9 c 0,0 -7.8,-2.8 -8.1,-6 -0.3,-3.2 -0.3,-6.2 2.7,-8.2 3,-2 6.8,0.4 7.4,2.9 0.6,2.5 1.1,8.8 1.1,8.8 l 13.4,21.7 z"
     id="path4" />
  <path
     inkscape:connector-curvature="0"
     style="fill:#9dd3cc"
     d="m 279.78051,125.025 c 0.5,-4.8 1.2,-9.8 2.9,-9.2 1.7,0.6 6.2,2.3 6.2,2.3 l 9.9,2.2 4,-5.3 43.3,10.9 v 8 h 4 v 7.2 l -2.2,2.1 -3.3,3.7 -43.6,-3.7 -1.5,-11.4 -14.1,4.3 c -0.1,0.1 -6.1,-6.6 -5.6,-11.1 z"
     id="path6" />
  <path
     inkscape:connector-curvature="0"
     d="m 395.88051,119.325 c 0.1,0 2.1,1.4 2.2,0.8 0,-0.2 -1.6,-8.8 -1.8,-9.5 -0.3,0.8 -1.5,8.8 -0.4,8.7 z m -47.7,18.5 c 0,0.7 -0.1,1.4 0.1,1.9 0.1,0.4 0.8,0.7 1.2,1.1 0.3,-0.4 0.8,-0.8 0.9,-1.3 0.1,-0.9 0.1,-1.9 -0.2,-2.7 -0.2,-0.6 -0.8,-1 -1.3,-1.5 -0.2,0.5 -0.4,1 -0.5,1.5 -0.2,0.4 -0.2,0.7 -0.2,1 z m -135.1,-53.4 c 0,0.5 -0.2,0.9 -0.1,1.1 1.6,2.8 3.2,5.6 5,8.2 0.9,1.3 2,0 3,-0.3 1,-0.3 0.4,-1.1 0.2,-1.6 -1,-2.9 -3.3,-4.6 -5.8,-6.1 -0.7,-0.3 -1.3,-0.7 -2.3,-1.3 z m -3.1,-11.5 c -1.2,0.1 -2.9,2.4 -2.5,3.1 0.8,1.5 1.6,3 2.5,4.4 0.7,1.3 3.7,0.4 4,0.2 0.2,-0.2 0.5,-0.7 0.4,-0.9 -1.2,-2.2 -2.4,-4.3 -3.7,-6.4 -0.3,-0.2 -0.6,-0.3 -0.7,-0.4 z m 87.1,54 c 0.1,-5.7 -0.6,-5.3 -5.1,-6.6 -0.2,-0.1 -0.4,-0.1 -0.6,-0.2 -0.9,-0.3 -1.3,-0.3 -1.2,0.9 0.4,3.6 1,7.3 -1.2,10.7 -0.1,0.2 -0.2,0.4 -0.2,0.5 0.3,0.6 0.7,1.5 1,1.5 1.7,0 3.5,-0.1 5.2,-0.4 0.5,-0.1 1.1,-0.9 1.3,-1.5 0.5,-1.6 0.6,-3.3 0.8,-4.9 z m -16.4,3.8 c 0.4,1.1 1.3,2.2 2.8,2.1 1.6,-0.2 2.8,-1.1 3.2,-2.6 0.9,-3.5 2,-7 0.2,-10.5 -0.9,-1.9 -2.1,-3.3 -4.2,-3.8 -2.3,-0.4 -4.1,8.4 -2,14.8 z m -75.7,-58.1 c 1.9,0 4.9,-3.5 4.7,-5.8 -0.3,-4.3 -2,-7.4 -5.4,-7.2 -1.8,0.1 -3.6,1 -5.1,2.1 -1.3,1 -2.4,2.4 -2.3,4.3 0.1,2.4 0.9,4.8 2.7,6.1 1.3,1 5.4,0.6 5.4,0.5 z m 110.7,81.5 c 5,0.7 10.1,1.3 15.2,1.9 0.5,0.1 1.4,-0.5 1.4,-0.9 0.4,-1.7 0.6,-3.5 0.7,-5.2 0.1,-1 -0.4,-1.7 -1.6,-1.8 -1.6,-0.1 -3.1,-0.4 -4.7,-0.6 -3.6,-0.5 -7.1,-1 -10.7,-1.5 -1.8,-0.2 -1.9,0 -1.8,1.7 0.1,1 -0.4,6.1 1.5,6.4 z m -5.7,-1.3 c 0.4,-0.1 1.1,-0.5 1.1,-0.8 0,-2.1 -0.2,-4.2 -0.4,-6.2 0,-0.2 -0.6,-0.5 -0.9,-0.5 -2.9,-0.3 -5.9,-0.7 -8.8,-0.6 -2.6,0.1 -3.3,-1.2 -3.8,-3.5 -0.2,-1.2 -0.4,-2.5 -0.8,-3.6 -0.1,-0.4 -0.8,-0.8 -1.3,-0.8 -1.1,0 -2.2,0.2 -3.3,0.2 -1.1,0.1 -1.7,0.6 -1.6,1.8 0.2,2.5 0.2,5.1 0.7,7.6 0.2,1.1 1.2,2.3 2.1,2.9 1.5,0.9 3.3,1.5 5.1,1.9 3.2,0.6 11.2,1.7 11.9,1.6 z m 5.9,4.7 c -0.3,0 -0.8,0.4 -0.8,0.5 0.1,3.8 0.9,7.5 3.6,10.3 2.8,2.9 7.1,2.5 10.8,3 1,0.1 1.3,-3.4 1.4,-4.3 0.1,-1.9 0.3,-3.8 0.5,-5.7 0.2,-1.3 -0.2,-2.2 -1.6,-2.4 -3.4,-0.5 -12.7,-1.5 -13.9,-1.4 z m 32.1,-52.5 c -0.5,0.1 -1,0.2 -1.5,0.4 -0.5,0.2 -1,0.5 -1.4,0.8 0.5,0.3 0.9,0.7 1.4,1 2.1,1 4.3,1.9 6.5,2.8 4.6,1.8 9.2,3.6 13.7,5.4 4.8,1.9 9.7,3.7 14.5,5.6 4.6,1.8 9.2,3.5 13.8,5.3 3.6,1.3 7.2,2.5 10.7,4 1.8,0.8 3.3,0.4 4.9,0 0.3,-0.1 0.5,-0.4 0.7,-0.6 -0.2,-0.2 -0.4,-0.5 -0.7,-0.6 -1,-0.4 -2.1,-0.8 -3.1,-1.2 -2.6,-1 -5.3,-1.9 -7.9,-3 -3.6,-1.5 -7,-3.3 -10.6,-4.7 -4.6,-1.7 -9.3,-3 -13.9,-4.7 -3.9,-1.5 -7.7,-3.3 -11.6,-4.9 -4.7,-1.8 -9.5,-3.5 -14.2,-5.3 -0.5,-0.1 -0.9,-0.2 -1.3,-0.3 z m 49.7,-54.5 c -0.1,-0.9 0,-1.9 -0.1,-2.8 -0.1,-0.5 -0.4,-1.2 -0.8,-1.4 -2.2,-0.8 -5.6,1.6 -5.8,3.9 -0.2,3.3 -0.4,6.6 -0.6,9.8 -0.4,5.8 -0.8,11.7 -1,17.5 -0.3,6.3 -0.3,12.6 -0.6,18.9 -0.2,5.9 -0.6,11.8 -0.8,17.7 -0.1,2.3 0.4,3 2.6,3.8 2,0.8 2.3,0.7 2.5,-1.4 0.3,-3.7 0.1,-7.5 0.6,-11.2 0.7,-5.4 0,-10.3 -2.9,-15 -0.3,-0.5 -0.3,-1.3 -0.2,-1.9 0.1,-0.4 0.6,-1 1,-1.1 0.4,-0.1 1,0.2 1.4,0.5 0.3,0.3 0.5,0.8 0.8,1.1 0.1,0.2 0.4,0.3 0.5,0.5 0.1,-0.3 0.3,-0.5 0.4,-0.8 0.4,-2.3 0.9,-4.5 1.1,-6.8 0.4,-5.2 0.6,-10.5 0.8,-15.7 0.1,-1.1 0.1,-2.1 0.2,-3.1 0.1,-4.2 0.5,-8.3 0.9,-12.5 z m 4.6,186.6 c 0,1.7 -0.1,3.4 -0.2,5.1 -0.1,1.2 0,1.8 1.6,1.6 3.2,-0.4 3.4,-0.5 4,-3.7 0.2,-0.9 0.2,-1.8 0.2,-2.7 0.1,-2 0.1,-3.9 0.2,-5.9 0.2,-4.1 0.5,-8.1 0.7,-12.2 0.3,-5.1 0.4,-10.2 0.7,-15.3 0.2,-3.7 0.5,-7.5 0.6,-11.2 0.2,-4.6 0.3,-9.3 0.4,-13.9 0.1,-1.9 0.5,-3.7 -1,-5.4 -0.9,-1.1 -0.4,-2.2 1,-3 0.4,-0.2 0.8,-0.7 0.9,-1.1 0.2,-1.6 0.4,-3.3 0.5,-4.9 0.2,-2.9 0.2,-5.8 0.5,-8.6 0.1,-1.7 0.5,-3.4 0.6,-5 0.4,-4.1 0.8,-8.2 1.3,-12.3 0.2,-1.5 0.5,-3 0.7,-4.5 0,-0.4 -0.4,-1.2 -0.7,-1.3 -1.2,-0.3 -3.6,1.3 -3.9,2.5 -0.4,1.9 -0.7,3.8 -0.8,5.6 -0.1,4.7 0,9.3 -0.1,14 0,1.6 -0.6,12.8 -1.1,16.8 -1,9.3 -1.8,18.7 -2.8,28 -0.5,5.2 -1.5,10.3 -1.9,15.4 -0.7,7.2 -1,14.6 -1.4,22 z m -10,-194 h 1.3 c 0.3,0 0.6,-0.1 0.9,-0.2 -0.2,-0.2 -0.4,-0.5 -0.7,-0.6 -1.1,-0.5 -2.2,-0.8 -3.3,-1.3 -7.5,-3.2 -15,-6.4 -22.4,-9.8 -3.7,-1.7 -7.3,-3.6 -10.9,-5.3 -1.9,-0.9 -3.9,-1.9 -5.9,-2.7 -3,-1.2 -6,-2.2 -9,-3.4 -7.2,-3 -14.4,-6.1 -21.6,-9.1 -4.2,-1.7 -8.5,-3.5 -12.9,-4.5 -3.2,-0.7 -6.3,-1.8 -9.5,-2.4 -1.5,-0.3 -3.2,0.2 -4.8,0.5 -0.3,0.1 -0.6,0.6 -0.9,0.9 0.3,0.2 0.6,0.4 1,0.6 1.8,0.7 3.6,1.3 5.4,2 4.1,1.7 8.1,3.5 12.3,5.1 3.6,1.5 7.3,2.8 11,4.2 2.8,1.1 5.5,2.3 8.2,3.3 5.8,2.1 11.7,4 17.4,6.1 3.1,1.1 6,2.6 9.1,3.8 4.3,1.7 8.7,3.2 13.1,4.8 1.1,0.4 2.2,1.2 3.3,1.6 3.8,1.5 7.5,3.1 11.4,4.4 2.3,1 4.6,2.5 7.5,2 z m -53.5,102 h 2.6 c 3.4,0.2 3.7,-0.1 3.8,-3.5 0,-0.1 0,-0.3 0,-0.4 0.4,-4.3 0.6,-8.6 1.1,-12.9 0.3,-2.7 -0.4,-3.8 -3.1,-4.1 -6.2,-0.8 -12.4,-1.5 -18.3,-3.6 -3.5,-1.2 -7,-2.1 -10.6,-3 -3.7,-0.9 -7.5,-1.8 -11.3,-2.5 -2,-0.4 -2.5,0 -2.7,2.1 -0.2,1.8 -0.2,3.7 -0.3,5.5 -0.2,5 -0.5,10 -0.5,15 0,2.5 0.6,3 2.9,3.5 1.3,0.3 2.6,0.5 3.9,0.7 4.4,0.6 8.7,1.2 13.1,1.6 6.3,0.6 19.4,1.6 19.4,1.6 z m -7.4,50.5 c 0.4,2 0.2,3.9 1.1,4.8 2.2,2.3 4.8,4.3 7.4,6.1 4.7,3.3 9.5,6.3 14.2,9.5 2.3,1.6 4.3,3.4 6.6,5 3.2,2.2 6.5,4.3 9.7,6.4 5,3.3 10,6.8 15.1,10 3.8,2.4 7.6,5 12.1,6.2 1,0.3 1.4,0.1 1.6,-0.7 0.3,-1.5 0.5,-3.1 0.6,-4.6 0.5,-4.8 0.9,-9.7 1.3,-14.5 0.7,-8.3 1.4,-16.6 2.2,-24.9 0.5,-5.7 1.2,-11.4 1.7,-17 0.6,-6.8 1.1,-13.6 1.6,-20.4 0.2,-3 0.4,-6 0.5,-9 0.1,-3.4 0.1,-6.8 0.1,-10.2 0,-2.1 -0.1,-4.2 -0.2,-6.3 0,-1.6 -0.9,-2.3 -2.3,-2.8 -2.8,-0.9 -5.7,-1.7 -8.4,-2.8 -5.9,-2.2 -11.7,-4.6 -17.5,-6.9 -2.2,-0.9 -4.5,-1.8 -6.7,-2.7 -1.2,-0.5 -2.3,-0.9 -3.5,-1.4 -3.4,-1.3 -6.8,-2.4 -10.1,-3.9 -4.4,-1.9 -8.7,-4 -13,-6 -2.6,-1.2 -3.3,-0.9 -4,2 -0.6,2.5 -1.1,5 -1.7,7.5 -0.3,1.1 -0.2,1.7 1.1,1.9 2.2,0.4 4.3,0.9 6.5,1.5 1.7,0.5 2.1,1.2 1.9,2.9 -0.2,1.4 -0.3,2.7 -0.5,4.1 -0.4,2.5 -0.4,2.5 2.2,3.1 0.2,0 0.4,0.1 0.6,0.1 1.4,0 1.7,0.9 1.7,2.1 0,1.9 0.1,3.8 0.3,5.7 0.3,2.7 -0.4,3.6 -3.1,3.8 -2.7,0.2 -2.7,0.2 -3.4,2.8 -0.4,1.6 -1,2.1 -2.6,1.9 -2,-0.2 -4,-0.5 -6.1,-0.8 -1,-0.1 -1.8,0 -2,1.3 -0.8,6.8 -1.6,13.5 -2.4,20.3 -0.3,2.4 -0.1,4.9 -0.4,7.3 -0.7,6.4 -1.5,12.7 -2.2,18.6 z m -41.2,-83.9 c 0.1,4.1 0.5,4.6 4.4,5.7 0.3,0.1 0.5,0.1 0.8,0.2 1.2,0.3 2,-0.1 2.3,-1.4 0.2,-0.9 0.4,-1.8 0.6,-2.7 0.6,-2.1 1.2,-2.5 3.4,-2.1 1,0.2 1.9,0.5 2.9,0.7 5.2,1.2 10.5,2.4 15.7,3.7 4.8,1.2 9.5,2.5 14.3,3.7 2,0.5 2.4,0.2 2.9,-1.8 0.7,-2.5 1.2,-5 1.9,-7.4 0.5,-1.7 1.1,-3.4 1.8,-5 0.6,-1.1 7.5,-3 8.8,-2.5 2.4,0.8 4.9,1.5 7.2,2.5 3.7,1.5 7.2,3.1 10.9,4.6 2.8,1.1 5.7,2.1 8.5,3.1 2.2,0.8 4.3,1.5 6.5,2.2 1.2,0.4 1.6,-0.3 1.6,-1.3 0.1,-2 0.3,-3.9 0.4,-5.9 0.2,-3.7 0.3,-7.5 0.5,-11.2 0.3,-5.6 0.7,-11.3 0.8,-16.9 0.2,-10.2 0.2,-20.4 1.7,-30.5 0.3,-2.3 -0.3,-3 -2.4,-3.9 -4.1,-1.7 -8.2,-3.4 -12.3,-5.2 -3.5,-1.5 -6.9,-3.3 -10.4,-4.7 -6.9,-2.7 -13.9,-5.1 -20.8,-7.7 -1.9,-0.7 -3.6,-1.7 -5.5,-2.4 -5.4,-1.9 -10.9,-3.7 -16.3,-5.6 -5.6,-2.1 -11.1,-4.4 -16.6,-6.6 -4.1,-1.6 -8.3,-3.2 -12.4,-4.8 -2.8,-1.1 -3.1,-0.9 -3.2,2.1 v 1.4 c 0.3,9.2 0.6,18.5 0.8,27.7 0.2,6.9 0.1,13.8 0.3,20.7 0.1,4.9 0.5,9.7 0.7,14.6 0.2,3.5 0.3,15 0.3,17.3 0,1.3 -0.2,18.3 -0.1,19.4 z m 63.8,136.5 c -0.2,2.2 0.2,4.6 0.5,6.8 0.3,1.8 -0.2,2.8 -2.1,3 -3.2,0.4 -6.4,0.9 -9.6,1.2 -0.7,0.1 -1.7,-0.5 -2,-1 -0.4,-1 0.5,-1.5 1.4,-1.7 2.3,-0.4 4.5,-0.9 6.8,-1.2 1.3,-0.1 2,-0.6 2.1,-1.9 0.1,-0.8 0.3,-1.6 0.2,-2.3 -0.1,-2.8 1.3,-25.3 1.6,-30 0.2,-2.4 -1.1,-3.4 -2.6,-4.4 -2.4,-1.7 -5,-3.1 -7.4,-4.7 -4.4,-3 -8.6,-6.2 -13,-9.2 -1.2,-0.9 -1.9,-1.8 -1.7,-3.4 0.3,-2.8 0.3,-5.6 0.6,-8.4 0.4,-4.6 0.9,-9.1 1.4,-13.7 0.2,-1.5 -0.2,-2.2 -1.7,-2.1 -4.6,0.4 -9.1,-0.9 -12.2,-3.7 -3.1,-2.8 -3.7,-7.2 -4.1,-8.9 -0.4,-1.7 -0.6,-3.3 -1.1,-5 -0.1,-0.5 -2,-0.6 -2.1,-0.2 -0.4,1.7 -0.7,3.4 -0.8,5.1 -0.2,2.8 -0.4,5.6 -0.4,8.4 0.1,4.1 0.5,8.1 0.7,12.2 0,1 -0.3,2.2 -0.9,2.9 -2.4,2.8 -5,5.4 -7.5,8.1 -0.7,0.8 -1.3,1.6 -1.9,2.5 -0.5,0.8 -1.1,1.6 -2.2,1 -0.8,-0.5 -1.1,-2 -0.4,-2.8 0.4,-0.5 1,-0.9 1.4,-1.3 2.3,-2.6 4.7,-5.1 6.9,-7.8 1.8,-2.2 1.6,-4.9 1.6,-7.6 0.2,-6.3 0.4,-12.6 0.4,-18.9 0.1,-4.2 0.5,-3.7 -3.5,-4.3 -4.4,-0.6 -8.4,-2 -12.5,-3.4 -1,-0.3 -1.2,-0.9 -1.3,-1.7 -0.4,-3.1 -0.8,-6.2 -1.2,-9.4 -0.3,-3.1 -0.6,-3.5 -3.7,-3.5 -1.8,0 -3.1,-0.7 -4.1,-2.1 -2.4,-3.3 -3.5,-7 -3.4,-11.5 0.1,-4.5 3.8,-11.8 6.6,-10.8 1.2,0.3 2.3,0.9 3.5,1.4 0.9,0.4 1.2,0.1 1.2,-0.9 -0.1,-3.4 -0.2,-6.8 -0.2,-10.2 0,-3 0.1,-5.9 0.2,-8.9 0,-2.1 -0.3,-10.2 -0.3,-10.2 0,0 -5.4,2.6 -6.1,3 -2.7,1.2 -17,5.9 -24,7.2 -9.7,1.7 -19.5,1.9 -22.1,1.8 -2.4,-0.1 -4.8,-0.9 -7.1,-1.4 -1.2,-0.3 -2.1,-0.3 -3.3,0.6 -2.1,1.5 -4.7,2.3 -7.1,3.3 -0.3,0.1 -1,-0.3 -1.2,-0.7 -1.5,-2.6 -2.8,-5.3 -4.3,-8 -1.6,-2.9 -3.2,-5.7 -4.9,-8.5 -0.8,-1.4 -1.7,-2.8 -2.8,-4 -0.5,-0.6 -1.4,-1.1 -2.2,-1.2 -3.4,-0.5 -5.2,-2.2 -6.4,-5.5 -0.6,-1.8 -1.1,-3.6 -1,-5.5 0.1,-2.4 1.1,-4.2 3.2,-5.3 1.2,-0.6 2.3,-1.2 3.6,-1.7 4.2,-1.6 7,-0.4 9.1,3.6 1.3,2.5 2.1,5.1 1,8 -0.2,0.6 0.1,1.5 0.5,2.2 2.1,3.7 4.1,7.5 6.4,11 1.2,1.8 3.2,3.2 4.9,4.7 3,2.9 6.7,4.1 10.7,4.9 1.7,0.4 12,0.5 22,-1.2 9.6,-1.6 27.5,-9.2 30.4,-12 0.5,-0.5 0.9,-1.5 0.9,-2.2 -0.2,-6.2 -0.5,-12.5 -0.7,-18.7 -0.2,-5 -0.3,-10.1 -0.4,-15.1 0,-3.2 0.2,-6.4 0.1,-9.6 -0.1,-6.5 -0.3,-13.1 -0.5,-19.6 -0.1,-2.4 -0.2,-4.7 -0.6,-7.1 -0.2,-1.1 0,-1.8 0.9,-2.4 1,-0.6 2,-1.2 3.1,-1.7 2.1,-0.9 4.2,-1.8 6.4,-2.4 1.2,-0.3 2.6,-0.3 3.8,0 2.2,0.6 4.4,1.4 6.5,2.2 8.7,3.2 17.4,6.3 26,9.5 4.2,1.6 8.4,2.9 12.3,5.2 2.4,1.4 5.3,2 7.8,3.2 4,1.9 7.9,4 12,5.9 2.6,1.3 5.4,2.3 8,3.5 2.2,1 4.3,2.2 6.6,3.2 2.9,1.2 5.9,2.2 8.8,3.3 3.7,1.4 7.3,2.9 11,4.4 1.4,0.6 2.1,1.6 2,3.1 -0.3,6 -0.7,11.9 -1.1,17.9 -0.1,1.5 0,3 -0.2,4.5 -0.6,7.9 -1.2,15.9 -1.8,23.8 -0.3,4.4 -0.3,8.7 0.1,13.1 0.5,6.1 2.5,11.8 3.3,17.8 0.2,1.1 0.7,1.6 1.7,1.9 2.3,0.8 4.6,1.5 6.8,2.5 2.1,0.9 4,2.2 6,3.4 1.3,0.7 1.7,1.9 1.5,3.3 -0.4,3.1 -0.8,6.3 -1.1,9.4 -0.6,7 -1,13.9 -1.5,20.9 -0.3,3.4 -0.7,6.8 -1.1,10.2 -0.1,0.7 0,1.5 0.2,2.1 0.8,2.5 4.3,10 6.2,17.8 1.6,6.7 3.1,16.1 4.2,22.3 0.4,2.4 1.1,9.6 1.3,13.3 0.2,3.2 -3.3,3.3 -3.5,1.7 -0.5,-4.1 -0.5,-12.1 -1.8,-21.3 -1.3,-8.9 -4.3,-17.8 -4.7,-19.8 -0.3,-1.7 -1,-3.2 -1.6,-4.9 -0.1,-0.2 -0.3,-0.4 -0.5,-0.6 -0.1,0.2 -0.3,0.4 -0.3,0.6 -0.2,2.5 -0.5,5 -0.6,7.5 -0.3,5.3 -0.4,10.6 -0.7,15.9 -0.1,1.9 -0.1,3.8 -0.2,5.7 -0.3,5.8 -0.6,11.6 -0.9,17.3 -0.2,3.9 -0.4,7.9 -0.6,11.8 -0.1,2.3 -1,3.5 -3.2,4.1 -5.7,1.7 -11,1.1 -16,-2.2 -3,-2 -6.2,-3.7 -9.4,-5.4 -0.4,-0.2 -1,-0.3 -1.4,-0.4 -0.1,0.5 -0.3,1.1 -0.3,1.6 -0.1,1.6 -0.1,3.3 -0.2,4.9 v 0.4 c -0.2,2.2 0.3,12.2 -0.5,17.6 -0.3,2.3 -1.3,3.1 -1.9,3.3 -3.2,0.6 -6.4,1.4 -9.6,2.1 -0.6,0.1 -1.7,-2.2 -1.2,-2.7 0.5,-0.6 1.5,-0.8 2.3,-1 1.7,-0.4 3.4,-0.8 5.2,-1 1.4,-0.2 2,-0.9 2.1,-2.4 0.3,-4.7 0.7,-9.4 1,-14.1 0.2,-3.5 0.1,-7 0.1,-10.5 0,-0.4 -0.3,-1 -0.7,-1.3 -3.4,-2.3 -6.8,-4.4 -10.2,-6.7 -2.7,-1.8 -5.3,-3.9 -8,-5.8 -0.5,-0.4 -1.2,-0.5 -1.9,-0.7 -0.2,0.6 -0.4,1.2 -0.4,1.8 0.1,2.7 -1,19.1 -1.4,24.8 z"
     id="path8" />
  <path
     inkscape:connector-curvature="0"
     d="m 174.48051,117.825 c -0.1,-0.6 -0.6,-2 -0.8,-2.7 -0.1,-0.3 -0.5,-1.9 -0.8,-2.2 -0.2,0.3 -1.4,5 -1.8,6.3 -0.4,1.3 -0.6,3.1 -0.9,5 0,0 1.7,-0.7 1.9,-0.9 1.7,-1 2.6,-3.1 2.4,-5.5 z m -20.3,-19.7 c 0.2,1.4 1,1.7 2.2,1.5 2.3,-0.4 4.5,-0.8 6.8,-1.2 1.9,-0.4 2.1,-0.5 1.2,-2.2 -2.3,-4.5 -4.8,-8.8 -7.4,-13.1 -0.5,-0.8 -1.4,-1.3 -2.3,-1.8 -1.2,-0.7 -1.4,-0.5 -1.4,0.9 0,3.6 0.8,14.4 0.9,15.9 z m -52.6,-62.9 c -6.500004,1.8 -13.100004,3.2 -19.700004,4.8 -5.4,1.3 -10.7,2.7 -16.1,4 -3.8,0.9 -16,3.2 -17.5,3.8 -0.6,0.2 -1.3,0.4 -2,0.6 0.6,0.4 1.3,0.9 2,1.3 1.5,0.8 3.1,1.3 4.7,0.6 3.6,-1.6 7.4,-2.2 11.2,-3 3.4,-0.8 27.3,-5.6 33.1,-6.8 7.200004,-1.5 14.300004,-3.2 21.500004,-4.8 2.6,-0.6 16.6,-4.3 21.3,-4.7 2.3,-0.2 4.6,-1 6.9,-1.6 0.3,-0.1 0.6,-0.3 0.8,-0.4 -0.2,-0.2 -0.3,-0.6 -0.6,-0.7 -4.3,-2.4 -8.8,-2.8 -13.5,-1.2 -1.5,0.5 -3,0.9 -4.6,1.2 -3.9,0.7 -27.5,6.9 -27.5,6.9 z m -53.400004,17.7 c -3.9,-1.4 -4,-1.3 -3.7,3.1 0.3,3 0.5,6 0.8,9 0.3,2.8 0.5,5.6 0.8,8.4 0.6,5.3 4,52.8 4.1,56.4 0.2,4.9 0.2,9.7 0.4,14.6 0.2,3.4 0.7,9 0.6,9 0.1,0.6 0.2,1.2 0.2,1.8 -0.1,2.1 0.9,3.5 2.8,4.3 l 3.9,1.5 c 1.2,0.4 2,0.2 1.9,-1.3 -0.1,-2.2 -0.2,-4.3 -0.4,-6.5 -0.6,-5.9 -1.2,-11.7 -1.8,-17.6 -0.7,-6.9 -1.3,-13.7 -2.1,-20.6 -0.3,-2.4 -1,-3.5 -2.7,-6.7 -1.7,-3.2 -2.1,-3.4 -2.6,-5.8 -0.4,-1.7 1.1,-2 1.3,-2 0.4,0 1,0.5 1.3,0.9 0.4,0.5 0.5,1.2 0.8,1.8 0.1,0.2 0.4,0.3 0.6,0.5 0.1,-0.3 0.3,-0.6 0.2,-0.8 -0.6,-4 -1.3,-7.9 -1.8,-11.9 -0.4,-2.7 -0.7,-5.5 -0.8,-8.2 -0.1,-2.6 0.2,-5.3 -0.1,-7.9 -0.7,-6.2 -0.4,-15.5 -0.3,-18.6 -0.1,-3.1 -3.4,-3.4 -3.4,-3.4 z m 76.200004,86.5 c 0,-0.5 0.1,-1.1 0,-1.6 -0.1,-0.3 -0.5,-0.8 -0.8,-0.9 -3.8,-0.4 -7.6,-0.7 -11.4,-1 -7.2,-0.6 -14.400004,-0.8 -21.600004,-1.7 -4.2,-0.5 -15,-2.3 -20.7,-7.8 -2.9,-2.4 -5.6,-5.3 -8.3,-7.9 -0.6,-0.6 -1.3,-1 -2,-1.4 -0.1,0.8 -0.2,1.7 -0.2,2.5 0.5,5.9 0.9,11.8 1.5,17.7 0.8,8 1.8,16 2.7,24.1 0.2,1.5 0.9,1.7 2.2,1.4 2,-0.6 4,-1.2 6,-1.8 3.2,-1 6.4,-1.9 9.6,-3 3.5,-1.2 7,-2.5 10.6,-3.8 2.4,-0.8 4.7,-1.8 7.2,-2.2 7.700004,-1.4 14.800004,-4.6 21.900004,-7.5 2.3,-1 3.7,-2.4 3.3,-5.1 z m 6.5,-32 c -1.3,0.2 -1.6,0.8 -1.6,1.9 -0.2,4.1 -0.5,8.3 -0.8,12.4 -0.3,3.1 -0.7,6.1 -1,9.2 -0.2,1.8 0.2,2.3 2,1.9 2.1,-0.5 4,-1.3 6.1,-1.9 0.6,-0.2 1.4,-0.2 1.9,0.1 0.4,0.3 0.8,1.2 0.6,1.6 -0.3,0.7 -1,1.4 -1.6,1.6 -2.5,0.7 -5,1.3 -7.5,1.7 -1.5,0.3 -1.9,1 -1.9,2.4 0,1.7 -0.1,3.4 -0.2,5.1 -0.3,3.9 -0.8,12.4 -0.8,12.8 -0.1,2.4 0.1,2.6 2.6,2.1 3.3,-0.6 6.6,-1.2 9.8,-2 5.7,-1.4 11.3,-3 16.9,-4.6 1.8,-0.5 3.7,-1 5.5,-1.5 1.7,-0.5 3,-1.4 3.3,-3.5 0.6,-4.9 1.6,-9.7 2.4,-14.6 0.2,-1 0.4,-2.1 0,-2.8 -0.3,-0.5 -1.6,-0.4 -2.5,-0.5 -1.2,-0.2 -1.8,-1 -1.7,-2.1 0,-1.2 1.1,-1.1 1.9,-1.1 0.3,0 0.6,0.1 1,0.2 1.8,0.3 2.2,0 2.6,-1.8 0.9,-4 1.8,-7.9 2.6,-11.9 0.7,-3.3 1.3,-6.6 1.9,-9.8 0.3,-1.4 -0.2,-2 -1.6,-1.9 -3.8,0.4 -7.6,0.6 -11.3,1.2 -3.7,0.6 -7.4,1.6 -11.1,2.4 z m -75.600004,-20.5 c 0.2,1.7 0.4,4.2 0.8,6.7 0.7,5.2 1.4,10.4 2.2,15.5 0.1,0.6 0.3,1.3 0.7,1.8 1.2,1.5 2.4,3 3.7,4.3 1.8,1.8 3.7,3.3 5.5,5.1 1.3,1.3 5.2,4.7 11.2,7.1 6.6,2.7 15.4,4.3 18.6,4.6 4.700004,0.3 9.400004,0.7 14.100004,1 3.5,0.2 7.1,0.5 10.6,0.6 2,0.1 2.2,-0.4 2.3,-2.3 0.1,-2.2 0.2,-4.5 0.3,-6.7 0.1,-1.8 0.4,-3.5 0.5,-5.3 0.2,-4.1 0.4,-8.3 0.6,-12.4 0.1,-1.1 0.6,-1.8 1.8,-2 3.4,-0.5 6.7,-1.2 10.1,-1.8 l 10.8,-2.1 c 1.1,-0.2 1.5,-0.8 1.5,-1.9 -0.1,-2.4 0.2,-4.9 0,-7.3 -0.7,-7.8 -0.6,-15.6 -0.3,-23.4 0.3,-6.5 0.5,-13.1 0.6,-19.6 0.1,-4.9 -0.5,-9.8 0.4,-14.7 0.3,-1.5 -0.2,-1.9 -1.7,-1.6 -3.3,0.5 -6.6,1 -9.9,1.5 -1.8,0.3 -3.6,0.8 -5.4,1.2 -2.8,0.7 -5.6,1.7 -8.4,2.2 -7.1,1.5 -14.2,2.7 -21.3,4.1 -9.700004,1.9 -19.300004,3.8 -29.000004,5.9 -6,1.2 -11.9,2.6 -17.9,4 -2.6,0.6 -3.3,1.6 -3.4,4.3 0,0.9 0.1,1.8 0.1,2.8 0.1,5 0.1,10.1 0.3,15.1 0.1,4.2 0.4,8.4 0.6,13.3 z m 54.600004,87.3 c 0,-2 0.3,-4.1 0.4,-6.1 0.2,-4.9 0.3,-9.7 0.5,-14.6 0,-1.4 -0.7,-1.7 -1.9,-1.4 -2.2,0.6 -4.3,1.1 -6.5,1.8 -2.900004,0.9 -5.900004,1.8 -8.800004,2.8 -1.1,0.3 -1.5,1.1 -1.5,2.2 -0.1,5.1 -0.5,10.3 -0.4,15.4 0.2,7.5 0.3,15 1.9,22.3 0.3,1.3 0.3,2.6 0.4,3.9 0.1,1.7 0.9,3 2.4,3.9 1.7,1.1 3.3,2.1 4.900004,3.2 1.3,0.9 1.7,2.1 0.9,2.9 -0.7,0.8 -2.300004,0.6 -3.400004,-0.2 -1.9,-1.5 -3.9,-3.2 -6,-4.5 -1.5,-0.9 -2,-2.1 -2,-3.7 0,-2.2 -0.2,-4.3 -0.3,-6.4 -0.4,-5.9 -1,-11.8 -1.2,-17.7 -0.2,-6 -0.1,-12.1 0,-18.1 0,-1.6 -0.5,-1.7 -1.8,-1.3 -7.2,2.4 -14.5,4.8 -21.7,7.2 -1.1,0.4 -1.9,0.4 -3,-0.1 -3.1,-1.3 -6.3,-2.3 -9.3,-3.7 -1.4,-0.6 -2.6,-1.5 -3.8,-2.4 -0.3,-0.3 -0.5,-0.9 -0.5,-1.4 -0.7,-7.4 -1.4,-14.8 -1.9,-22.2 -0.2,-2.9 -1.1,-25.1 -1.5,-31.6 -0.5,-7.7 -0.9,-15.5 -1.5,-23.2 -0.4,-5.6 -1,-11.3 -1.6,-16.9 -0.2,-1.8 -0.6,-3.6 -0.8,-5.5 -0.2,-2.8 -0.4,-5.6 -0.5,-8.4 0,-1.9 1.6,-4.1 3.3,-4.5 4.9,-1.2 9.8,-2.6 14.7,-3.7 10.3,-2.3 20.6,-4.6 31,-6.9 1.5,-0.3 2.9,-0.8 4.3,-1.2 5.400004,-1.6 38.200004,-10.1 43.600004,-11.3 1.3,-0.3 2.8,-0.2 4,0.2 2.7,0.9 5.4,1.8 8,3 3.1,1.4 3.8,2.1 3.7,6.3 -0.1,9.4 -0.5,28.3 -0.9,33.7 -0.2,2.7 -0.2,5.4 -0.1,8.1 0,0.6 0.5,1.6 1,1.8 3.6,1.9 5.6,5.3 7.8,8.4 2.4,3.5 4.5,7.2 6.5,10.9 0.8,1.5 1.8,1.7 3.2,1.7 0.3,0 0.5,-0.1 0.8,-0.1 3.5,-0.4 3.9,0.2 3.1,3.7 -0.6,2.3 -1.2,4.6 -1.6,6.9 -0.1,0.7 0.3,1.6 0.7,2.3 1.6,3.2 2.3,6.7 2.3,8.9 0,2.8 -1,5 -2.8,6.9 -1.1,1.1 -2.5,1.7 -3.7,2.7 -0.4,0.4 -0.8,1 -0.9,1.6 -0.6,3.3 -1,6.6 -1.5,9.9 -0.5,3.3 -1,6.6 -1.4,10 -0.1,1.2 -0.7,1.9 -1.9,2.1 -4.6,1.1 -9.2,2.2 -13.7,3.4 -4.1,1.1 -8.2,2.4 -12.3,3.5 -1.6,0.4 -3.2,0.7 -4.7,1.1 -2.7,0.7 -5.3,1.4 -8,2 -2.2,0.6 -2.8,0.1 -2.8,-2.1 0,-3.5 0.1,-7 0.1,-10.4 0,-2.1 -0.2,-2.3 -2.1,-1.6 -2.1,0.7 -4.1,1.5 -6.1,2.2 -1,0.4 -1.3,1 -1.4,2.1 -0.4,7.1 -1.1,14.1 -1.3,21.2 -0.1,5.6 0.3,11.3 0.6,17 0.1,1.9 0.5,3.8 0.8,5.6 0.1,0.6 0.6,1.2 1,1.6 2.7,1.8 5.5,3.6 8.2,5.4 1.4,0.9 1.6,2.8 0.3,3.6 -0.5,0.3 -1.4,0.2 -1.9,-0.1 -3,-2 -5.9,-4.2 -8.9,-6.1 -1.3,-0.8 -2.2,-1.6 -2.1,-3.2 0.3,-1.8 -0.5,-17.2 -0.4,-22.8 z"
     id="path10" />
  <path
     inkscape:connector-curvature="0"
     d="m 248.38051,196.425 c -3.7,0.2 -7.5,0.2 -11.2,0.4 -6,0.3 -11.9,0.7 -17.9,1 -4.6,0.2 -9.2,0.3 -13.8,0.4 -3.7,0.1 -7.4,0.2 -11,0.1 -7.6,-0.2 -15.2,-0.4 -22.8,-0.7 -6.7,-0.2 -13.5,-0.7 -20.2,-0.7 -5.2,0 -10.5,0.5 -15.7,0.7 -1.2,0 -2.4,-0.1 -3.5,-0.1 -1.2,0 -1.5,-1 -1.3,-1.8 0.2,-0.6 1.2,-1.6 1.6,-1.5 6.5,1.5 13.1,0.4 19.6,0.8 4.6,0.3 9.3,0.1 14,0.3 4.2,0.2 8.4,0.6 12.6,0.7 4.9,0.2 9.8,0.2 14.7,0.2 6.4,0 27.1,-0.8 31.1,-0.9 4.9,-0.2 27.8,-1.5 34.4,-1.9 4.5,-0.3 20.7,-1.5 22.8,-1.5 2.1,0 1.1,2.8 0.7,2.9 -1.4,0.3 -2.8,0.3 -4.2,0.4 -1.4,0 -21.3,0.7 -29.9,1.2 z"
     id="path12" />
  <path
     inkscape:connector-curvature="0"
     d="m 454.88054,188.125 c 5.7,0.2 11.4,0.4 17.1,0.4 8.8,0.1 17.6,0 26.4,0.1 8.7,0.2 17.3,0.6 26,1 7.4,0.3 14.7,0.7 22.1,1.2 5.9,0.4 11.8,1.2 17.6,1.8 1.2,0.1 2.4,0.2 3.5,0.2 1,0.1 1.3,0.8 1,1.5 -0.1,0.3 -0.9,0.7 -1.3,0.6 -6,-0.5 -12,-1.2 -18,-1.7 -5.7,-0.5 -11.4,-1.1 -17.1,-1.5 -3.3,-0.2 -6.6,-0.2 -9.8,-0.3 -4.7,-0.2 -9.4,-0.5 -14.1,-0.7 -4.5,-0.1 -9,-0.1 -13.6,-0.2 -6.8,-0.1 -13.6,-0.1 -20.5,-0.2 -6.4,-0.1 -12.8,-0.1 -19.3,-0.2 -1.6,0 -23.00003,-0.3 -24.90003,-0.2 -1.5,0.1 -2.3,-0.7 -1.6,-2 0.2,-0.4 0.9,-0.8 1.3,-0.9 1.9,-0.1 3.8,0 5.7,0 0,0.3 13.00003,0.9 19.50003,1.1 z"
     id="path14" />
  <path
     inkscape:connector-curvature="0"
     d="m 85.580506,200.625 c -8.1,-1 -15.7,-0.9 -23.3,-1 -6.8,-0.1 -13.5,-0.8 -20.2,-1 -6,-0.2 -11.9,-0.1 -17.9,-0.2 -4,0 -7.9,-0.1 -11.9,-0.1 -2.7999999,0 -5.5999999,0.2 -8.4999999,0.3 -1.2,0 -2.6,0.4 -3.39999995,-0.9 -0.3,-0.5 -0.5,-1.4 -0.3,-2 0.2,-0.4 1.19999995,-0.8 1.59999995,-0.7 3,1.1 6,0.5 8.9999999,0.5 5.1,0 10.1,0.1 15.2,0.2 7.3,0.1 14.6,0.2 21.9,0.5 4,0.1 8,0.7 12,0.9 4.1,0.2 8.1,0 12.2,0.1 4.1,0.1 8.3,0.3 12.4,0.5 0.4,0 0.8,0.1 1.2,0.2 0.9,0.2 1.6,0.7 1.2,1.6 -0.2,0.6 -1,0.9 -1.2,1.1 z"
     id="path16" />
  <path
     inkscape:connector-curvature="0"
     d="m 329.68051,68.825 c 2.4,-0.2 5,-0.4 7.7,-0.7 0.3,0 0.6,-0.5 0.9,-0.8 -0.3,-0.1 -0.7,-0.4 -1,-0.3 -3.9,0.2 -7.8,0.5 -11.8,0.8 -0.3,0 -0.6,0.4 -0.8,0.6 0.3,0.2 0.7,0.4 1,0.5 1.1,-0.1 2.4,-0.1 4,-0.1 z m 9.1,-4.9 c 1.1,-0.1 1.6,0.1 1.9,1.2 0.2,0.9 0.5,1.8 0.6,2.7 0.3,2 -0.2,2.8 -2.3,3 -2,0.2 -4,0.3 -6.1,0.5 -2.8,0.2 -5.6,0.5 -8.4,0.8 -1.5,0.2 -2.4,-0.2 -2.6,-1.9 -0.1,-1 -0.4,-2.1 -0.5,-3.1 -0.2,-1.6 0.2,-2.1 1.7,-2.1"
     id="path20" />
  <path
     inkscape:connector-curvature="0"
     d="m 312.68051,39.425 c 1.1,-0.1 1.7,0.6 1.7,1.8 0,1 -1,2 -2,2 -1.1,0 -2.1,-1.1 -2,-2.2 0.1,-1 0.9,-1.6 2.3,-1.6 z"
     id="path22" />
  <path
     inkscape:connector-curvature="0"
     d="m 341.38051,50.525 c -1.8,-0.1 -1.9,-1.8 -1.9,-2.4 0,-0.7 0.7,-1.6 1.4,-2 0.7,-0.4 1.6,0.2 2,1.6 0.3,1.5 0.3,2.9 -1.5,2.8 z"
     id="path24" />
  <path
     inkscape:connector-curvature="0"
     d="m 372.48051,169.425 c 0.1,1.8 -1.3,2.3 -2.7,2.5 -2.6,0.3 -6.5,0.7 -8.6,0.8 -1.3,0.1 -1.4,-0.9 -1.5,-1.4 -0.2,-1.1 0.7,-1 1.6,-1.1 2.4,-0.2 4.8,-0.6 7.2,-1.1 0.4,-0.1 0.8,-0.8 0.9,-1.2 0.1,-0.6 -0.2,-1.3 -0.2,-2 0,-1 0.4,-1.7 1.5,-1.6 1,0 1.5,0.7 1.5,1.7 -0.1,0.2 0.2,1.6 0.3,3.4 z"
     id="path26" />
  <path
     inkscape:connector-curvature="0"
     d="m 369.38051,141.325 c 1.2,0.4 1,1.4 1.2,2.1 0.2,1 -1,2.1 -1.9,2.1 -0.9,0 -1.8,-1 -1.7,-2 0,-1.1 1.2,-2.7 2.4,-2.2 z"
     id="path28" />
  <path
     inkscape:connector-curvature="0"
     d="m 317.58051,130.125 c -1.2,-0.1 -1.4,0.7 -1.5,1.6 -0.1,1 1.3,1.8 2.8,1.8 1.1,0 1.3,-0.7 1.3,-1.5 0,-1.3 -1,-2 -2.6,-1.9 z m -3.8,0 c 0.3,-2.5 0.6,-2.8 3.1,-2.4 1.4,0.2 2.9,0.5 4.2,0.9 0.6,0.2 1.3,0.9 1.3,1.4 0,1.9 -0.1,3.9 -0.5,5.8 -0.1,0.4 -5.4,1.2 -7.6,-1.2 -0.6,-0.9 -0.7,-3.2 -0.5,-4.5 z"
     id="path30" />
  <path
     inkscape:connector-curvature="0"
     d="m 330.28051,133.525 c 0,0.9 0.3,1.6 1.6,1.7 1.2,0 1.4,-0.6 1.5,-1.6 0.1,-1.2 -0.7,-1.4 -1.6,-1.5 -0.9,-0.1 -1.5,0.3 -1.5,1.4 z m 2,4.5 c -0.8,-0.1 -1.7,-0.2 -2.5,-0.3 -1.3,-0.2 -1.9,-1.1 -1.9,-2.3 0,-1.5 0.1,-3 0.4,-4.5 0.1,-0.6 0.9,-1.4 1.4,-1.4 1.5,-0.1 3,0.2 4.5,0.4 0.9,0.1 1.4,0.7 1.3,1.6 -0.1,1.2 -0.1,2.4 -0.1,3.5 -0.1,2.5 -0.3,2.7 -3.1,3 z"
     id="path32" />
  <path
     inkscape:connector-curvature="0"
     d="m 108.48051,93.725 c -1.6,-0.2 -6.7,-0.7 -7.6,-0.6 -1.200004,0.2 -1.800004,-0.2 -1.900004,-1.3 -0.2,-1.4 -0.3,-2.9 -0.3,-4.3 0,-0.5 1.900004,-0.7 2.300004,-0.3 0.1,0.1 0.1,0.2 0.1,0.4 0.2,0.8 0.3,2 0.8,2.3 1.2,0.6 2.6,0.8 4,1 1.2,0.1 2.3,-0.1 3.5,-0.1 1.5,0 2.5,0.8 2.3,1.8 -0.2,1.3 -1.4,1.2 -2.3,1.2 -0.4,-0.1 -0.7,-0.2 -0.9,-0.1 0,-0.1 0,0 0,0 z"
     id="path34" />
  <path
     inkscape:connector-curvature="0"
     d="m 105.88051,66.725 c 0,1 -0.3,1.8 -1.5,1.8 -1.1,0 -2,-0.9 -1.9,-2 0.1,-1 0.3,-2 1.6,-2.1 1.1,-0.1 1.8,0.9 1.8,2.3 z"
     id="path36" />
  <path
     inkscape:connector-curvature="0"
     d="m 129.98051,61.325 c 1,0.1 1.6,1 1.7,1.8 0.1,0.9 -0.4,2.1 -1.7,2 -1.4,-0.1 -1.7,-1.3 -1.6,-2.3 0,-0.7 0.6,-1.6 1.6,-1.5 z"
     id="path38" />
</svg>
