<?xml version='1.0' encoding='utf-8'?>
<svg xmlns="http://www.w3.org/2000/svg" viewBox="0 0 841.9 595.3"><path d="m395.7 133.9-71.1 71 96.3 75.5 63.9-70.6zm18.8 81.4-6.4-7.9-12.6 16.7-6.7-7 9.4-15.3-16-17.8 11.6-17.4 18.5 8.7 5.3-3.1 25 19.3z" fill="#9dd3cc"/><path d="m613.9 112.3-49.7 85.9 3.2 9.2 141.9 74.8 47.4-67.6zm57.6 118-19.2-9.7-5.5 3.5-26-21.5 26.4-24.1 9.4 6.3 13.5-13.6 8.8 6-15.7 18.3 20.4 15.4z" fill="#a1dba3"/><g fill="#181715" fill-rule="evenodd"><path d="m596.9 345.6c0-.5.1-1.1 0-1.6 0-.2-.2-.4-.2-.6-.2.2-.5.3-.6.5-.5.9-1 1.8-1.2 2.8-.1.7.2 1.4.5 2.1.1.2.7.3.8.3.3-.6.7-1.2.8-1.8 0-.6-.1-1.1-.1-1.7zm3.3-34.7c-.1.7-.1.9-.1 1.1.1.4.2.8.3 1.2.3-.3.7-.6.9-1 .7-1.3 1.3-2.7 2-4 1.1-2 .7-3.7-1.1-5-1.2-.9-1.9-.7-1.9.8-.2 2.5-.1 4.9-.1 6.9zm-25.4 60.4c-.8 1.6-.1 3.1 1.4 4.1 1.4.9 2.8-3.4 3.8-5.2.1-.1.1-.2.2-.3 1-2.3 2.3-4.6 3.3-7 1-2.5 1.7-5.1 2.7-7.9-.2-.3-2-.6-2.2-.1zm13.7-21.5c.4-.5 1.5-1.1 1.9-2.1 4-8.3 7.8-16.6 11.7-24.8.5-1.1 1.2-2 1.7-3.1 1.3-2.5 2.8-5 3.9-7.7.3-.6-.8-1.8-1.2-2.7-.5.5-1.1.9-1.6 1.4-.2.3-.3.7-.4 1.1-1.8 3.9-3.5 7.9-5.4 11.7-2.1 4.3-4.4 8.5-6.5 12.7-1.9 3.9-3.7 7.8-5.6 11.7-.5 1.1-.6 1.7 1.5 1.8zm-154.7-60.5s.1 0 0 0c0-2.2-.1-4.4-.2-6.6s-.1-4.4-.2-6.6c0-.5-.3-1-.4-1.5-.3.1-.7.2-1 .4-4.2 2.8-5.8 6.8-5.6 11.8.1 4.4-.2 8.7-.3 13.1v7c0 .3.3.5.4.7.2-.2.5-.3.6-.5.8-2 1.7-4 2.3-6.1.4-1.4 1.1-2.2 2.4-2.1 1.6.1 1.9-.7 1.9-2 .1-2.5.1-5 .1-7.6zm177.8 33.3c-.1-1.1-.2-2.7-.5-4.3-.1-.4-.6-.8-.9-1.2-.3.3-.7.6-.9 1-2.8 4.9-5.6 9.8-8.3 14.7-.3.5-.6 1.2-.6 1.8-.2 3.2-.4 6.4-.5 9.6 0 1 .4 2 .6 3.1.9-.5 1.9-1.1 2.8-1.6.1 0 .1-.1.2-.2 6-6.3 8.2-13.8 8.1-22.9zm27.5-70.9c-.7-.5-1.3-1.1-2-1.3-.4-.1-1.2.2-1.5.5-1 1.5-1.9 3.1-2.7 4.7-2.7 5.5-5.4 11-8.1 16.4-2 4-4 8-6 12-1.7 3.4-3.4 6.9-5.1 10.3-1.4 2.8-2.9 5.5-4.3 8.3-.5 1.1.4 3.6 1.5 3.7.6.1 1.4-.9 1.8-1.6 2.2-4.1 4.3-8.2 6.5-12.2.5-.9 1-1.8 1.4-2.7 2.4-4.7 4.8-9.5 7.2-14.2 1.8-3.5 3.6-6.9 5.3-10.5 1.3-2.7 2.6-5.5 3.8-8.3.8-1.5 1.4-3.1 2.2-5.1zm-288.9 86.4c-.1 0-.2-9.7-.2-14.6 0-.4-.2-.8-.3-1.3-.3.3-.8.5-1 .9-1.8 2.8-3.7 5.7-5.5 8.5-1.3 2-2.6 4.1-3.9 6.1-1.2 1.8-2.2 3.8-3.4 5.6-.7 1.1-1 1.8.2 2.7 1 .8 1.8 2 2.8 2.9 3.1 2.7 6.3 5.4 9.5 8 1 .8 1.6.3 1.8-.7.1-.5.1-.9.1-1.4-.1-5.6-.1-11.2-.1-16.7zm-181.4-80.2c1.9.3 4.5.5 6.7.5 1.4 0 12.2-.8 16.1-.9 9.4-.2 18.9-.5 28.3-.6 11-.1 22 0 33 0 5.6 0 11.1.2 16.7.3 3.4.1 6.7.3 10.1.4 3.8.1 7.5 0 11.3.2 5.3.2 10.7.6 16 .9 7.4.4 25.7 2.1 33.6 2.3 2.2 0 3.2-1 2.4-1.4-1.9-1-5.2-2-6.3-2.2-3.3-.5-6.7-.5-10.1-.6-7.6-.2-15.2-.4-22.8-.6-8.1-.2-16.1-.2-24.2-.4-4.6-.1-9.3-.4-13.9-.6-5.7-.2-11.4-.4-17.1-.7-8.5-.4-34.4-.9-38.1-.8-5.9.3-11.8.3-17.6.5-3.9.1-7.8.1-11.7.4-4 .3-9.7.7-12.4 1-1.2.2-2.6.3-2.5 1.2-.1 1.1 1.4.9 2.5 1.1zm262.3 98.8c0-2.4-.1-4.7 0-7.1.2-5.7.4-11.5.6-17.2.2-4.1.2-8.3.5-12.4.4-5.3.9-10.6 1.4-15.9 0-.4-.2-.8-.4-1.2-.3.3-.7.5-.9.9-1.5 3.2-2.9 6.5-4.6 9.5-1.6 2.8-1.9 5.6-1.7 8.6.1 1.4.1 2.8 0 4.2-.3 6-.8 12-1 18.1-.2 6.3.1 12.7-.1 19-.1 5.7-.6 11.4-.7 17.2 0 .9.5 2.1 1.1 2.8 1.3 1.7 2.7 3.3 4.1 4.8.4.5 1 .9 1.5 1.4.3-.7.9-1.3.9-2 .1-2.3-.2-4.5-.1-6.8.1-3.3-.7-23.9-.6-23.9zm39.6-112.6c-4.4.5-7.8.8-11.2 1.1-1.7.2-2.7.8-3.5 2.6-1 2.2 0 1.8 1.3 1.8 9.3 0 18.5.1 27.8.1 7.8 0 15.5-.1 23.3-.2 8.3 0 36.4-.1 42.1-.2 3.3 0 16.9-.6 19.1-.5 3.3.1 6.6.2 9.9.1 4.5-.2 9.1-.5 13.6-.8 1-.1 2-.4 3-.6-.6-.8-1.1-1.7-1.8-2.4-1.6-1.7-3.2-2.5-5.8-1.8-3.1.8-62.8 2-71.3 1.7-4.3-.1-8.6-.9-12.9-.9-11.5-.1-23.1 0-33.6 0zm-117.1 65.6c.9-1.3 1.8-2.6 2.6-3.9 5.4-8.1 10.9-16.2 16.2-24.3 4.3-6.6 8.4-13.3 12.8-19.8 2.2-3.3 2.3-3.8-.7-6.4-.2-.2-.5-.4-.7-.6-2.1-1.7-2.9-1.7-4.5.4-4.1 5.4-8.1 11-12.1 16.4-4 5.5-8.1 11-12.1 16.5-2.4 3.3-13 19.7-15.4 23.2-3 4.1-6 8.2-8.8 12.5-3.8 5.7-7.4 11.4-11.1 17.1-3.4 5.2-6.7 10.4-10 15.6-.1.1-.2.3-.3.4-2.9 3.8-5.9 7.6-7.7 12-.9 2.3-3.2 3.2-4.5 5-2 2.8-3.8 5.7-5.7 8.6-.9 1.4-.8 2.5.6 3.4 2.3 1.5 4.6 2.9 6.9 4.5 1.2.8 1.8.4 2.4-.7.9-1.6 2-3.2 3-4.8 5.2-7.8 11-15.1 15.5-23.3 2.6-4.8 6-9.2 9.1-13.7.9-1.3.9-2.1-.2-3.3s-2.2-2.5-3-3.9-.1-2.6 1-3.5c1.2-1 1.9.1 2.5.8.8.9 1.5 1.8 2.2 2.7.9 1.2 1.4 1.3 2.3-.1 4-6.3 8.3-12.4 12.1-18.8 1.8-2.7 7.5-11.7 7.6-12zm-181.5-42.4c0-4.2-.7-5.8-3.6-6.6-2.8-.8-3.7-.8-3.9 1.3-.7 5-1.1 10-1.1 15.1 0 8.1-.3 16.1-.7 24.2-.2 6-.5 12.1-1 18.1-.5 5.8-1.6 43.8-1.6 47.8 0 4.6-.4 9.2-.4 13.8 0 5.3.4 10.5.5 15.8.1 5.5-.2 11 .1 16.5.3 5.1 2.5 9.3 6.5 12.6 1.2 1 2.2 1.2 3.2.3.6-.5 1.1-1.5 1.1-2.3.1-7.5.2-14.9 0-22.4-.2-8.6-.6-17.2-1-25.8-.2-6-.4-12.1-.6-18.1 0-1.1-.2-2.4-.7-3.4-1.6-3.1-3.5-6-5-9-.5-1-.9-4.3.6-4.9 1.5-.7 1.7.7 2 1.1 1 1.5 1.2 2.7 2.1 4.3.2.2.3.5.5.7.1-.3.2-.5.2-.8 0-1.7-.1-3.5 0-5.2.3-6 .8-12.1.9-18.1.2-8.4-.1-16.8.9-25.2.6-5.4.5-11 .7-16.4.2-4 .3-9.2.3-13.4zm177.2 130.2c.3-12.2.5-20.9.6-29.5 0-1 0-2.4-.6-3.1-1.5-1.9-3.3-3.5-5.1-5.2-3.4-3.2-6.8-6.4-10.2-9.6-1.6-1.5-1.5-1.5-2.6.5-.4.8-.9 1.4-1.4 2.2-2.3 3.5-4.7 7-7 10.5-3.8 5.6-7.6 11.2-11.4 16.7-2.4 3.6-4.9 7.2-7.2 10.8-.3.4-2.8 4.8-4.9 3.2-2.2-1.6-8-4.6-10.9-6.5-2.8-1.9-2.8-2.1-1.5-5.2.7-1.6 1.7-3.1 2.6-4.7.2-.3.2-.7.4-1.1-.4 0-.7 0-1.1.1-4.2 1.6-8.3 3.3-12.4 4.9-6.4 2.5-12.8 5.3-19.3 7.5-3.3 1.1-6.9 1.5-10.4 2.1-4 .7-8 1.4-12.1 1.7-10.5.6-20.2-2.9-29.4-7.4-6-3-11.8-6.6-17.2-10.6-3.8-2.7-6.9-6.3-10.2-9.6-1.5-1.5-2.8-3.2-4.2-4.8-.2-.3-.6-.4-.9-.6-.2.4-.5.8-.5 1.2.1 3.3.1 6.6.3 9.9.6 12.2 1.3 24.3 1.8 36.5.2 5.2-.2 10.4-.3 15.5-.1 2.7.1 2.9 2.6 3 5.8.3 11.6.5 17.4.8 5.3.3 31.1-.1 38.6-.4 9.5-.4 19-.7 28.5-1.1 1.6-.1 3.3-.3 4.9-.3 5.2-.1 57.5-2.5 67-2.1 4.7.2 9.4.4 14.1.7 1.8.1 2.1-.7 2.1-2.2-.1-9.3-.1-18.3-.1-23.8zm136.1-186.6c-.2-.4-.3-.7-.5-1-1.1-1.2-2.1-2.5-3.3-3.7-1.9-1.8-3.8-3.5-5.7-5.2-2.7-2.5-5.3-5.3-8.3-7.3-2.4-1.6-4.4-3.5-6.2-5.6-.7-.8-1.5-1.6-2.4-2.3-4.9-3.7-9.8-7.3-14.7-10.9-3-2.2-6.1-4.1-9-6.5-3.5-2.9-6.8-6-10.3-9-5.3-4.6-10.6-9-15.9-13.6-4.5-3.9-8.9-7.9-13.4-11.8-.3-.3-1.2-.3-1.5-.1-1 .9-1.9 1.8-2.7 2.9-3 4.1-6.9 7.2-10.8 10.4-2.2 1.8-4.3 3.8-6.3 5.9-3.8 3.8-7.4 7.8-11.2 11.6-4.5 4.6-9.3 9.1-13.7 13.8-5.8 6.2-11.3 12.6-16.9 19-1.1 1.2-1.9 2.7-2.9 3.9-1.4 1.6-.8 2.8.6 4 2.5 2.2 4.8 4.5 7.3 6.6 6 5.1 11.8 10.3 18.1 15 8.8 6.5 17 13.6 25.4 20.6 3.3 2.8 6.3 5.9 9.5 8.7 2.5 2.2 5.1 4.2 7.5 6.4 6.4 5.5 12.7 11 19.1 16.5 2.6 2.2 4.9 1.8 6.6-1 .2-.3.3-.5.6-.7 4.3-3.7 8.3-7.8 12-12.3 4.5-5.5 9.5-10.6 14.4-15.8 3.7-4 7.6-7.9 11.4-11.9 3.6-3.7 7.3-7.4 10.7-11.2 4-4.4 7.8-9.1 11.6-13.6.2-.7.5-1.3.9-1.8zm203.5 61.3c2.3 1.1 12.5 8.9 15.4 10.8 2.3 1.6 3.6 1.5 5.2-.8 6.2-8.8 12.4-17.7 18.6-26.6 2.1-3 4.4-5.8 6.2-8.9 5.7-9.7 12.7-18.5 20.1-26.9 1.2-1.3 2.1-2.9 3.1-4.5-.2-.3-.4-.5-.6-.7-2.6-2.5-5-5.1-7.7-7.3-4.3-3.5-27.7-20-31.8-23.2-6.7-5.1-13.2-10.3-19.9-15.4-7.2-5.5-14.6-10.9-21.8-16.5-5.1-3.9-10.1-8-15.1-12-7.1-5.6-15.1-9.8-23-14.2-7.3-4.1-14.9-7.3-23.2-8.9-.7-.1-1.7 0-2.1.4-3.1 3.5-22.7 36.1-25.1 40.6-3.6 6.7-18.6 34.1-22.8 40.1-.6.8-.3 1.4.4 2 1.9 1.5 3.7 3.2 5.7 4.5 8.2 5 16.4 9.9 24.6 14.8 5 3 10 6 14.9 9 3.6 2.2 7.2 4.5 10.8 6.7 3.3 2.1 6.5 4.4 9.8 6.5 2.1 1.3 4.4 2.3 6.6 3.5 2.6 1.4 5.1 3 7.8 4.3 6.1 2.8 12.4 5.3 18.5 8.1 4.1 1.9 8.2 3.9 12.3 6 3 1.6 6 3.4 8.9 5.2zm-340.4 11.9c-.1-5.6-.1-11.3 0-16.9 0-1.8-.7-2.6-2.4-2.8-3.2-.3-6.4-.7-9.6-.9-8.9-.5-17.7-.7-26.6-1.2-6.2-.3-12.4-1-18.6-1.3-14.4-.5-28.9-1-43.4-1.3-10.6-.2-21.2 0-31.8.1-6.1.1-12.1.4-18.2.6-6 .2-11.9.3-17.9.7-4.8.3-4.7.4-4.7 5.2 0 3.8-.4 7.6-.6 11.4-.1 2.7.2 5.5 0 8.2-.3 4.6-.9 9.2-1.2 13.8-.5 8.8-1.2 42.3-1.5 50.3 0 .7.1 1.7.5 2.2 3.2 4.2 6.2 8.5 9.7 12.4 5.4 6.1 12.5 10.2 19.3 14.4 4 2.5 8.6 4.2 13.1 5.9 5.4 2 10.9 3.4 16.8 3.6 2.3.1 4.7.4 7 .1 3.6-.5 7.2-1.8 10.8-2.3 9-1.2 17.1-5.1 25.4-8.3 6.6-2.6 12.9-5.9 19.4-9 .8-.4 1.6-1 2.2-1.8 2.9-3.5 6.3-6.8 7.1-11.7.2-1.3 1.1-2.1 2.8-1.9.6.1 1.6-.5 2-1.1 3.6-5.1 7.1-10.1 10.5-15.3 2.7-4.1 5.1-8.5 7.9-12.5 6.9-10 14.1-19.8 21-29.7.6-.9.8-2.1.9-3.2.2-2.3.1-5 .1-7.7zm111.4-30.6c0 .1 0 .1 0 0-2.4.1-4.9-.1-7.3.1-1.1.1-2.4.6-3.1 1.4-4.3 4.7-8.5 9.5-12.6 14.3-.5.6-.7 1.7-.7 2.6 0 3.7.2 7.4.3 11 .1 4.3.4 8.7.1 13-.5 8.5-1.3 17-1.8 25.6-.3 5.2-.4 10.5-.6 15.8-.1 2.7-.4 5.5-.3 8.2 0 5.4.3 10.8.3 16.3.1 6.4-.1 12.9 0 19.3.1 3.4.3 6.9.7 10.3.4 2.9 1.1 3.3 4 3.6 4.3.5 39 2 44.7 1.7 4.3-.2 8.6-.5 13-.3 11.5.4 23.1 1.4 34.6 1.6 8.1.1 16.2-.7 24.3-1 9.3-.3 18.7-.5 28.1-.7 4-.1 8 0 12-.1.6 0 3.3-1 3.4-1.4.7-1.8-.8-14.8-1.2-19.8-.4-5.5-.7-10.9-1-16.4-.2-3.5-.2-3.5-3.7-4.1-1.7-.3-2.6.3-3.2 1.6-1.5 3.2-3 6.4-4.2 9.6-1.8 4.9-3.8 9.7-6.9 14-.7.9-1.3 1.3-2.3.5-1.9-1.5-3.9-2.9-5.7-4.5-1.5-1.4-1.6-3-.6-4.6 2.7-4.5 5.5-9.1 8.1-13.7.8-1.3 1.2-2.9 1.7-4.3-1.7-.3-5.7-.9-6-1-1-.2-2.1-.2-2.9-.8-.7-.5-.5-3.7.3-3.9.8-.3 1.7-.2 2.5-.1 2 .4 4 .9 6 1.3 2.5.5 2.9.3 4-2 .9-1.7 1.9-3.4 2.7-5.2 1.8-3.6 3.4-7.2 5.2-10.8.5-1.1 1.1-2.2 1.8-3.3 1.8-3.1 3.4-6.2 3.4-9.9 0-5.1.2-10.2.2-15.3 0-.7 0-1.8-.5-2.2-1.7-1.4-1-2.7 0-4 .3-.4.5-1 .6-1.5.2-1.9.4-3.8.4-5.6 0-7.2-.1-14.4-.3-21.6-.1-4.1-.3-8.2-.5-12.2-.1-2.8-.3-3.1-3.1-3.1-4.2 0-8.3.2-12.5.3-7 .3-13.9.7-20.9.9-6.8.2-13.6.4-20.5.4-4.3 0-8.6-.2-12.8-.3-1.6 0-3.1.1-4.7.1-6.2 0-12.4 0-18.6.1-3.2.1-6.4.5-9.6.4-7.6-.2-15.1-1-22.8-.3-3.7.3-7.6 0-11.5 0zm-106.8 104.8c0 .9-.2 2 1.1 2.3 1.1.3 2.4.7 2.2 2-.3 1.3-.9 3.2-1.8 3.5-2.3.8-1.8 2.5-1.8 4-.1 3-.1 5.9-.1 8.9v7.8c0 9.3.1 18.7-.1 28v6.4c0 3.6.7 7.1-4.7 6.4-2.7-.3-5.3-.8-8-1-7-.4-14-.6-21-.6-5 0-10 .6-15.1.8-3.9.1-7.9 0-11.8.1-3.1 0-3.2.1-3.2 3.2 0 6.7-.3 13.5 0 20.2.1 2.4.3 7.4.7 12.8.4 5.2 2.6 9.9 3.5 11 2.4 3.2 4.9 6.3 7.3 9.5.9 1.2 1.9 2.3 2.8 3.5.7.9 1.2 2 .2 3-.7.7-2.8.2-3.6-.9-1.5-2.1-3.1-4.2-4.6-6.2s-3-4-4.5-6c-3.6-4.5-3.9-9.9-4.1-15.3-.4-10.7-.8-21.3-1.2-32 0-1.3-.3-2.3-2-2.2-4 .2-8 .2-12 .4-6.4.4-12.9.9-19.3 1.2-4.1.2-8.2.1-12.3.1-2.8 0-5.7.2-8.5.3-1.3 0-2 .6-1.9 2 .1 4.6 0 9.2.1 13.8.1 6.7.3 10.2.8 16.8.3 4.2 0 11.6 1.9 15.6 1.1 2.2.1 3.7-2.4 4.3-3.6.9-6.3 3.1-8.9 5.5-1.1 1.1-2.1 2.3-3.2 3.4-.8.8-1.8 1.9-3 1-1.1-.8-.9-2.6.4-3.7 3.5-2.7 7-5.2 10.6-7.8 1.5-1.1 2.2-2.5 2.2-4.2 0-2.4-.1-4.7-.2-7.1-.2-4.9-.2-9.7-.5-14.6-.4-6.6-1-13.1-1.5-19.7-.1-1.2 0-2.4.1-3.5 0-1.1-.4-1.4-1.6-1.4-8.3.1-16.7.1-25 0-6.7-.1-28.9.5-30.3.7-.5.1-1.4-.4-1.8-.9-2.8-3.2-5.9-6-8.4-9.5-1.7-2.3-1.3-4.2-1.3-6.5 0-4.2-.2-8.3-.2-12.5 0-4.9 0-9.7.1-14.6.1-8.9.4-17.9.4-26.8 0-6-.2-12.1-.1-18.1.1-3.6.6-7.2 1-10.8.1-1.2.1-2.5.2-3.8.6-8.2 1.3-16.4 1.8-24.7.4-6.3.5-12.6.7-19 .2-8.3.3-16.7.5-25 0-1.9 2.7-4.6 4.6-4.9 6.5-1.3 13.1-1.7 19.7-1.9 6.4-.2 12.7-.8 19.1-1.1 3.1-.1 6.3.1 9.4.1 3.5.1 6.9.2 10.4.3 7.9.1 15.7.1 23.6.4 6.5.2 13 .8 19.5 1 6.1.2 12.2 0 18.3.1 5.5.1 11 .4 16.4.5 5.3.1 10.6.1 16 .2 2.1 0 4.2.2 6.3.2 2.3 0 4.7.2 7-.2 2.9-.5 5.4-.5 8 1.3 3.2 2.2 6.6 4.2 10 6.1 1.5.9 2.2 2.1 2.1 3.9-.2 3.2-.4 6.4-.5 9.6-.1 4.2-.1 8.5-.1 12.7 0 .4.2.9.3 1.3.4-.3.9-.5 1.2-.9 5.5-7.7 11.6-15 16.4-23.2 1.9-3.3 4.5-6.2 6.7-9.4.9-1.3 2.3-2.8 2.3-4.3 0-1.1-1.6-2.4-2.7-3.4-4-3.4-8.1-6.7-12.2-10-3.2-2.6-6.3-5.1-9.5-7.7-2.6-2.1-5.3-4.2-7.9-6.3-4.2-3.5-8.5-6.9-12.7-10.5-2.9-2.5-5.7-5.2-8.4-7.9-1.5-1.5-1.5-2.7 0-4 5.2-4.5 8.8-10.2 12.5-15.9 2.1-3.2 5.4-5.6 8.1-8.4 4.3-4.5 8.6-9.2 12.9-13.7 4.4-4.5 8.7-9 13.3-13.3 5.3-5 10.8-9.8 16.1-14.9 1.9-1.8 3.3-4 5.1-5.9 2.3-2.4 3.5-2.2 5.7.3 1.9 2.2 3.9 4.3 6 6.3 3.5 3.3 7.1 6.4 10.7 9.5 4.7 4.1 9.3 8.4 14.2 12.4 3.9 3.2 8 6.3 12.2 9.2 7.2 4.9 13.8 10.7 20.3 16.5 4 3.5 7.9 7.2 12 10.6 3.1 2.6 6.5 4.9 9.8 7.3 2.5 1.9 5 3.8 7.4 5.7.9.7.9 1.7.3 2.5-1.7 2.2-3.4 4.5-5.2 6.6-2.9 3.5-5.9 6.9-8.9 10.3-.9 1.1-2 2-3 3-3.7 3.9-7.3 7.8-10.9 11.7-.2.3-.4.7-.5 1 .4.1.8.3 1.3.3 14.5-1.5 28.9-.9 43.4-.7 9.9.1 19.8 1.2 29.7 1.2 7.6 0 15.2-.9 22.8-1.4 7.3-.5 14.6-.9 21.9-1.4 2.5-.2 4.9-.8 7.4-1.1.6-.1 1.4 0 2 .2 4.2 2 6.9 5.7 9.7 9.1.4.5.3 1.3.3 2-.2 4-.4 8-.6 11.9-.1 1.8-.3 3.6-.4 5.4-.1 2.4.1 4.9 0 7.3-.1 6.5-.2 13-.4 19.5 0 1.4.2 2.6 1.7 3.3 1.4.8 2.7 1.8 4.1 2.8 1.1.8 1.8.5 2.4-.7 1-2.2 2.1-4.4 3.2-6.6 3.6-7.3 7.3-14.6 11-21.9 3.5-6.9 6.9-13.9 10.5-20.8.8-1.4.4-2.2-.7-2.9-2.2-1.3-4.4-2.5-6.5-3.9-3.7-2.4-7.4-5-11.2-7.4-4.7-3-9.4-5.9-14.1-8.9-4.4-2.8-8.7-5.6-13.2-8.3-4.2-2.6-8.6-4.9-12.9-7.4-2.2-1.3-4.4-2.7-6.6-4.1-2.7-1.6-5.3-3.3-8-4.9-3-2.8 5.6-13.1 8-16.6s4.5-7.1 6.6-10.8 4.2-7.5 6.1-11.4c2.5-4.9 4.6-9.9 7.2-14.7 2.5-4.7 21.7-34.4 23-36 .6-.7 2.4-.9 3.4-.6 9.2 2.4 17.7 6.2 25.9 10.9 4.7 2.7 9.5 5.1 14.1 8 3.6 2.2 7 4.8 10.4 7.3 7 5.4 13.9 11 20.9 16.4 8.4 6.5 16.9 12.9 25.4 19.2 7.1 5.2 14.2 10.4 21.4 15.4 2.2 1.6 4.7 2.8 6.9 4.4 4.4 3.1 9.1 5.7 13 9.6 3 2.9 6.7 5.1 10.2 7.5 1.3.9 1.7 1.9.9 3.1-1.3 1.9-2.6 3.7-4 5.5-2.2 2.7-4.6 5.3-6.8 8.1-1.8 2.1-3.5 4.3-5.1 6.5-2.4 3.1-4.8 6.2-7 9.4-3.6 5.3-7.1 10.7-10.7 16-5.4 7.8-10.8 15.6-16.2 23.4-1 1.5-1.8 3.1-2.7 4.7-.7 1.2-1.4 2.4-2.9 2.4-.6 0-1.4-.3-1.9-.6-2.4-1.6-4.7-3.3-7.1-4.9-1.3-.9-10.5-7.5-12-8.5-.1 0-.1-.1-.2-.2-2.5-1.7-12-8-13.1-8.7-2.8-1.6-5.7-3.2-8.6-4.7-3.3-1.7-6.6-3.2-10-4.8-1.4-.6-2.8-1-4.2-1.6-1.8-.8-3.6-1.6-5.3-2.5-1.6-.8-2.5-.6-3.3 1.1-1.1 2.5-2.4 5-3.6 7.4-2.4 4.9-4.9 9.8-7.4 14.7-3.5 6.9-7.2 13.8-10.7 20.7-1.4 2.7-2.7 5.5-4 8.3-.2.5-2.7 6.2-1.8 9 1.3 4.4 2.3 9 1.2 13.5-1.2 4.9-3.4 15.6-13.7 23.2-1.8.9-2.3 2.2-2.1 4.2.6 6.1.7 12.2 1.2 18.3.4 4.8 1.8 16.6 1.7 19.9s-2.5 5.4-8 5.3-26.3.2-26.4.2c-4.7.2-9.6.1-14.3.4-6.2.3-12.4.6-18.6 1-.7 0-1.7.7-1.8 1.3-.5 1.7-.9 3.5-.8 5.3.3 6.7.8 13.3 1.2 20 .4 6.3.9 12.5 1.5 18.8.3 3.4.4 7 1.5 10.2.9 2.6 2.8 5.1 4.8 7 2.5 2.4 4.7 4.8 6.2 7.8.5 1 .9 2 1.2 3.1.1.5-.3 1.3-.7 1.6-.4.2-1.3.1-1.7-.2-.8-.8-1.4-1.8-2-2.8-2.5-4.4-5.8-8-10.4-10.3-1.5-.7-2.1-2.4-1.7-3.3 1.6-2.9.6-5.7.4-8.5-.3-6.8-1.1-13.6-1.6-20.4-.7-9.1-1.4-18.3-2-27.4-.1-1.6-.8-2.1-2.2-2.1-7.5-.3-14.9-.6-22.4-.9-3.8-.2-7.7-.4-11.5-.5-2.8-.1-3.3.6-3 3.4.7 6.6 1.5 13.2 2.1 19.9.6 7.2 5.4 33.4 3.5 35.9-.3.4-11.5 9.1-11.8 9.7-.9 1.5-2.2 1.8-3.6.9-1-.7-1.3-1.6-.4-2.5.7-.7 1.7-1.2 2.4-1.9 2.7-2.3 7-5.6 9.5-8.2 2.3-2.4-2.4-33.6-2.9-38.5-.6-5.4-1.4-10.9-2.4-16.2-.2-1.4-1.2-2.7-3.2-2.4-2.4.4-4.8.6-7.3.8-6.4.3-34.2-1.5-40.5-2.3-1.2-.1-2.6-.8-3.4-1.6-2.2-2.1-4.1-4.6-6.2-6.8-1.4-1.5-3-2.8-4.5-4.1-1.2-1.1-1.5-2.2-1.3-3.9.5-5.6.7-11.3.9-16.9.2-8.1.2-16.3.5-24.4.1-4.4.6-8.8.8-13.2 0-.6-.2-1.2-.4-1.7-.4.5-1 .9-1.3 1.4-3.4 8.3-6.8 16.6-10 25-3.3 8.7-6.2 17.5-9.3 26.2-1.4 4-3 7.9-4.6 11.8-.2.5-1 .8-1.5 1.2-.4-.7-1.2-1.3-1.2-2 0-.9.6-1.7 1-2.6 2.6-6.8 5.2-13.6 7.8-20.4 1.1-2.9 2.2-5.9 3.3-8.8 1.2-3.2 2.6-6.4 3.6-9.7 2.9-9.5 7-18.5 11.3-27.4 1.3-2.8 1.6-5.5 1.5-8.4 0-5 0-10 .1-15 .1-3.7.5-7.3.8-11 0-.4-.1-.9-.2-1.3-.3.3-.7.5-1 .8-1.9 2.1-2.4 2.1-4.6.2-3.7-3.2-7.6-6.2-11.4-9.4-2.2-1.9-4.2-4-6.4-5.9-3.2-2.8-6.4-5.5-9.6-8.3-1.1-1-1.7-.8-2.5.4-7.1 11.2-14.2 22.4-21.5 33.5-3.4 5.2-7 10.2-10.5 15.3-1.1 1.6-2.1 3.1-3 4.8-.5 1-.8 2.2-.8 3.4-.1 6.5 0 13 0 19.6.4.2.6 13.4.6 20z"/><path d="m530.6 330.3c2.6.2 5.2.1 7.8.2 1.7.1 2.8-.8 3.3-2.2.6-1.7.9-3.4 1.3-5.2.1-.3 0-.6.1-.9.3-1.1 1.1-1.7 2.3-1.4 1.3.3 1.6 1.1 1.3 2.3-.4 1.7-1.2 7-1.4 8-.5 3.2-2.3 4.3-4.7 3.9-5.3-.8-10.7-1.7-16.1-2.2-7.5-.6-15-.9-22.6-1.4-8-.5-16-.9-24-1.4-1.5-.1-3.2 0-4.5-.6-1.8-.9-1.3-9.4-1.4-11.8-.1-1.7.8-2.9 2.4-2.8 1.7 0 2 1.3 2 2.6 0 1.1.1 6.3.6 7.8.4 1.3 1.5 1.7 2.8 1.8 7.6.6 41.7 2.6 50.8 3.3z"/><path d="m476 283.2c1.9 0 3.2.9 3.2 2-.1 1.2-1.6 2.8-2.8 2.8-1.4 0-2.9-1.4-2.8-2.7.2-1.5 1.1-2.2 2.4-2.1z"/><path d="m541.1 291.4c-1.2 0-2.3-1.2-2.3-2.6 0-1.2 1.2-2.3 2.5-2.3s2.5 1.2 2.5 2.3c0 1.2-1.5 2.6-2.7 2.6z"/><path d="m239.7 346.1c-1.7-.3-2.3-.7-3.2-1.4-3.1-2.3-6.2-4.7-9.3-7.1-1.3-1-2.8-1.7-4.2-2.6-.9-.6-2-1.5-1.1-2.6.5-.6 1.7-1 2.5-1 .9.1 1.9.7 2.7 1.2 2.9 2.1 5.7 4.3 8.7 6.4 1.6 1.1 3.3 2 5 2.9.9.5 2.3.5 1.8 2.2-.3 1.5-1.2 2.3-2.9 2z"/><path d="m238.2 298.5c-.1 1.8-.9 2.7-2.3 2.6-1.3-.1-3.1-1.1-3-3.2.1-1 1.7-1.9 3.3-1.9 1.7 0 2.1 1.1 2 2.5z"/><path d="m293.9 297.8c2.4.2 2.7 2.5 2.6 3.2-.1 1-.8 1.4-1.4 1.6-2.5.5-3.9-.8-3.8-2.3 0-1.7.1-2.8 2.6-2.5z"/><path d="m633.1 196.2c-1.2.7-2.4 1.1-2.8 1.8-.2.4.7 1.7 1.3 2.4 2.2 2.5 4.4 4.8 6.7 7.2 1 1.1 2 2.2 3 3.3 1.4 1.5 2.8 2.9 4.1 4.5.3.4.1 1.3.1 1.9-.7 0-1.5.2-2.2 0-.4-.1-.6-.7-.9-1-2.3-2.7-4.4-5.6-6.8-8.1-2.1-2.1-4.4-4-6.8-5.8-1.3-1-2.5-.6-4 1.1-1 1.1-.9 1.8.3 2.9 1.8 1.7 3.2 3.8 5 5.5 1.6 1.6 3.4 2.9 5.2 4.4 1.6 1.3 3.3 2.6 5 3.8 1.4 1 2.8 2 4.2 3 .7.5 1.6.7 2.3 1.2.9.6 1.6 1.9 2.4 1.9.9 0 1.7-1.2 2.6-1.8.3-.2.6-.5.9-.8 3-3.2 3.8-3.1 7.1-.1 2.5 2.2 5.2 4.3 8 6.1 2.5 1.6 4.9 1.2 6.7-1 .7-.9 1.3-2 1.8-3 2.1-4 4.7-7.6 7.9-10.7 2.5-2.5 2.7-3 .1-5.4-.2-.2-.4-.3-.5-.5-5.6-5.1-11.7-9.4-18-13.5-2.4-1.6-2.6-3.3-.8-5.4 3.1-3.4 6.2-6.9 9.1-10.4 2.2-2.6 2-3.9-.6-6-.7-.5-1.4-1.1-2-1.6-.8-.6-1.4-.6-2.2.3-1.3 1.6-2.7 3.3-4.2 4.7-2.5 2.3-4.5 4.8-5.6 8-.7 2.2-2.8 2.9-4.9 1.8-2-1.1-3.9-2.3-5.4-4.1-1.8-2.1-3.7-1.9-5.6.2-.7.8-1.4 1.5-2.1 2.2-.9.9-.9 1.4.3 2.2 2.5 1.7 4.9 3.6 7.4 5.5 2.6 2 5.1 4 7.6 6.2.5.4.4 1.5.6 2.3-.7 0-1.6.3-2-.1-2.7-2-5.3-4.2-8-6.1-2.6-1.9-5.2-3.7-7.9-5.4-1.6-1-2.2.7-2.9 1.5-.9 1 0 1.4.7 2 2.3 1.8 4.5 3.6 6.7 5.5 2.2 2 4.4 4 6.6 6 .8.7 1.4 1.6.4 2.4-.4.4-1.5.1-2.3 0-.3 0-.5-.3-.8-.5-3.3-2.7-6.6-5.4-10-7.9-1.6-1.2-3.2-1.8-4.8-2.6zm16.4 34.5c-1.5-.9-3.1-1.6-4.4-2.6-5.5-4.2-10.9-8.4-16.3-12.7-1-.8-1.7-2-2.8-2.9-2.2-1.8-4.6-3.3-6.9-5-1.5-1.1-1.7-2.2-.4-3.5 1.4-1.5 3-3 4.6-4.4 5.9-5.2 10.9-11.3 15.9-17.3 1.6-1.9 3.3-3.6 4.9-5.3 1-1 3.1-1.1 4.3-.2 1.2 1 2.4 2 3.5 3.1 1.9 1.9 2.9 2.2 5.2.7 1.2-.8 2.4-1.8 3.3-2.9 2.4-2.8 4.5-5.8 6.9-8.6 2.5-2.9 4.1-2.7 6.7.2 1.2 1.4 2.9 2.4 4.5 3.4 2.3 1.5 2.7 2.5 1.1 4.7-1 1.5-2.2 2.8-3.3 4.3-1.9 2.6-3.9 5.1-5.7 7.7-1.7 2.4-1.7 3 .5 4.8 2.2 1.9 4.6 3.5 6.8 5.3 2.6 2.1 5.1 4.2 7.6 6.3 1.5 1.2 3 2.4 4.5 3.7 1.1 1 1.2 2.1.2 3.3-2.8 3.1-5.7 6-8.3 9.3-2.2 2.8-3.9 5.9-5.8 8.8-.3.5-.5 1-.8 1.4-1.6 2.5-1.7 2.6-4.3 1.3-4.2-2.1-8.3-4.4-12.4-6.7-1.4-.8-2.5-1.1-3.7.3-.8.9-1.8 1.5-2.8 2.2-.8.4-1.5.7-2.6 1.3z"/><path d="m437.3 194.3c.4-.4.5-1.6.2-1.9-1.9-2.4-3.7-4.9-6-6.9-4.2-3.5-8.2-7.3-13-9.9-.3-.2-.7-.4-1-.6-2.1-1.9-2.1-1.9-4.3-.2-.4.3-.9.7-1.2 1.1-2.3 2.4-3.4 2.3-5.9 0-2.2-2.1-4.5-4.1-7.1-5.8-3.3-2.2-5.2-1.6-7.4 1.7-2.3 3.4-4.8 6.7-7.2 10.1-.6.8-1.5 1.4-2.2 2.1-.9.9-1.2 1.9 0 2.8l1.5 1.5c5 4.9 10.7 9 16.4 12.9 1.8 1.2 1.9 2.8.5 4.4-2.8 3.1-5.7 6.3-8.6 9.4-2.2 2.4-2.2 3.7.2 5.8.5.5 1.1.9 1.6 1.3.8.7 1.4.7 2.2-.2 1.3-1.5 2.6-2.9 4-4.2 2.2-2 4-4.1 5-7 .7-2.1 2.6-2.8 4.5-1.6 1.6 1 3.2 2.2 4.6 3.6 1.9 1.9 3.6 2.1 5.4.2.7-.7 1.5-1.4 2.1-2.2.2-.3.1-1.2-.2-1.5-4.4-3.7-9-7.3-13.4-11-.5-.4-1.5-1.5-.8-2.2s1.6-.3 2 .1c2.4 1.8 4.7 3.9 7.1 5.8 2.2 1.7 4.5 3.4 6.9 4.9 1.4.9 2.2-.2 2.9-1.1.8-1.1-.1-1.4-.7-2-3.7-3.4-7.4-6.8-11-10.1-.8-.7-2.1-1.5-1.1-2.7 1.1-1.3 2.1.1 3 .6.1.1.2.2.3.3 3 2.5 5.9 5 8.9 7.4 1 .8 2.3 1.2 3.6 1.8 1-.6 1.9-.9 2.6-1.5.2-.2-.1-1.2-.5-1.6-3.1-3.5-6.2-7-9.4-10.5-1.2-1.3-2.5-2.6-3.6-4-.3-.4-.9-.9 0-1.9.9-.9 1.4 0 2 .2.1 0 .1 0 .1.1.3.2.5.7.7 1 2.6 3.1 5.1 6.4 7.8 9.4 0 0 2.6 3 3.6 3.5 1.6.3 4.9-1.4 4.9-1.4zm5-3.3c1.5 1.1 1.5 1.9.3 3.3-1.3 1.4-2.8 2.5-4.1 3.8-5.1 5.2-10.1 10.5-15.1 15.8-1.5 1.5-2.9 3.1-4.4 4.5-.4.4-1.1.5-1.2.6-2.8.1-4-1.5-5.4-2.9-3.3-3.3-3.6-3.1-6.5-.4-3.2 2.9-5.6 6.7-8.1 10.2-1.1 1.6-3.2 2.1-4.8.6-2.3-2.1-4.5-4.4-6.7-6.6-1.1-1.1-.2-2.1.5-2.9 1.8-2.3 3.8-4.6 5.7-6.9.6-.8 1.3-1.6 1.8-2.5 2.6-4.1 2.5-4.1-.9-7.3-.7-.6-1.4-1.2-2.2-1.8-3.5-2.8-7-5.5-10.5-8.3-1.1-.9-2.2-2-3.2-3-.8-.8-1.1-1.7 0-2.6 4.7-3.6 8.3-8.2 11.4-13.3.8-1.3 1.6-2.7 2.3-4.1 1.1-2 2.2-2.5 4.4-1.4 3.7 2 7.4 4 11 6.2 1.5.9 2.5 1.2 3.9-.1 4-3.6 5.2-3.5 9.6.3 1.7 1.5 1.8 1.1 13.1 10.4 2.3 2.4 5.4 5.4 9.1 8.4z"/></g></svg>