<?xml version="1.0" encoding="UTF-8" standalone="no"?>
<svg
   xmlns:dc="http://purl.org/dc/elements/1.1/"
   xmlns:cc="http://creativecommons.org/ns#"
   xmlns:rdf="http://www.w3.org/1999/02/22-rdf-syntax-ns#"
   xmlns:svg="http://www.w3.org/2000/svg"
   xmlns="http://www.w3.org/2000/svg"
   xmlns:sodipodi="http://sodipodi.sourceforge.net/DTD/sodipodi-0.dtd"
   xmlns:inkscape="http://www.inkscape.org/namespaces/inkscape"
   viewBox="0 0 689.70549 254.77973"
   version="1.1"
   id="svg80"
   sodipodi:docname="gente-afuera.svg"
   width="689.70551"
   height="254.77972"
   inkscape:version="0.92.3 (2405546, 2018-03-11)">
  <metadata
     id="metadata86">
    <rdf:RDF>
      <cc:Work
         rdf:about="">
        <dc:format>image/svg+xml</dc:format>
        <dc:type
           rdf:resource="http://purl.org/dc/dcmitype/StillImage" />
        <dc:title></dc:title>
      </cc:Work>
    </rdf:RDF>
  </metadata>
  <defs
     id="defs84" />
  <sodipodi:namedview
     pagecolor="#ffffff"
     bordercolor="#666666"
     borderopacity="1"
     objecttolerance="10"
     gridtolerance="10"
     guidetolerance="10"
     inkscape:pageopacity="0"
     inkscape:pageshadow="2"
     inkscape:window-width="680"
     inkscape:window-height="513"
     id="namedview82"
     showgrid="false"
     fit-margin-top="0"
     fit-margin-left="0"
     fit-margin-right="0"
     fit-margin-bottom="0"
     inkscape:zoom="0.38840716"
     inkscape:cx="339.83001"
     inkscape:cy="162.98437"
     inkscape:window-x="1571"
     inkscape:window-y="168"
     inkscape:window-maximized="0"
     inkscape:current-layer="svg80" />
  <path
     d="m 1.58,55.545357 30.7,-18.8 5,17 -23.9,14.5 z"
     id="path2"
     inkscape:connector-curvature="0"
     style="fill:#9dd3cc" />
  <path
     d="m 262.18,1.7453574 -1.4,12.5999996 23.6,2.5 -0.4,-10.5999996 -21.3,-4"
     id="path4"
     inkscape:connector-curvature="0"
     style="fill:#9dd3cc" />
  <path
     d="m 326.98,167.24536 0.7,-0.3 39,-15 2.5,3.5 -19.6,36.4 -41.2,15.7 h -1.9"
     id="path6"
     inkscape:connector-curvature="0"
     style="fill:#9dd3cc" />
  <path
     d="m 407.28,154.34536 16.1,2.9 4.9,24.6 -14.6,-3.4 z"
     id="path8"
     inkscape:connector-curvature="0"
     style="fill:#9dd3cc" />
  <path
     d="m 565.38,154.54536 9.6,-2.6 -6.4,22 -10.7,-2 z"
     id="path10"
     inkscape:connector-curvature="0"
     style="fill:#9dd3cc" />
  <path
     d="m 665.38,128.84536 7.2,3.9 -7.2,13.2 -11.2,-1.3 z"
     id="path12"
     inkscape:connector-curvature="0"
     style="fill:#9dd3cc" />
  <g
     id="g78"
     style="fill:#181715;fill-rule:evenodd"
     transform="translate(-81.12,-205.85464)">
    <path
       d="m 660.6,359.5 c -0.3,-0.6 -0.4,-1 -0.6,-1.4 -0.3,0.2 -0.7,0.4 -0.9,0.6 -1.1,1.7 -2.1,3.5 -3.2,5.2 -0.1,0.2 -0.1,0.4 -0.1,0.6 0.3,0 0.6,0 0.7,-0.1 0.8,-0.7 1.7,-1.3 2.3,-2.1 0.7,-0.8 1.2,-1.8 1.8,-2.8 z m -6.2,-4.8 c 1.4,-0.3 2.5,-0.6 3.6,-0.7 1.2,-0.1 1,-0.5 0.7,-1.3 -1.1,-3 -3.1,-5.3 -5.3,-7.5 -0.1,-0.1 -0.2,-0.2 -0.4,-0.3 0,0.2 -0.1,0.4 -0.1,0.6 0.2,2.6 0.4,5.1 0.7,7.7 0,0.4 0.1,0.8 0.3,1.1 0.1,0.2 0.4,0.3 0.5,0.4 z M 500.8,363 c 0.1,0.7 0.2,1.2 0.3,1.7 0.4,1.6 0.9,3.1 1.3,4.7 0.6,2.3 1.3,4.7 1.8,7.1 0.6,2.8 1.1,5.5 1.7,8.3 0.1,0.7 0.6,1.3 0.9,1.9 0.1,-0.8 0.4,-1.6 0.2,-2.3 -1.1,-5.6 -2.4,-11.2 -3.6,-16.9 -0.3,-1.5 -0.6,-3 -1,-4.5 -0.1,-0.4 -0.7,-0.8 -1.1,-1.1 -0.1,0.4 -0.3,0.9 -0.5,1.1 z m 94,47 c -0.1,-0.3 -0.2,-0.6 -0.3,-1 -0.5,-2.6 -1,-5.2 -1.4,-7.8 -0.6,-3.9 -1.1,-7.8 -1.8,-11.6 -0.1,-0.6 -0.6,-1.2 -0.8,-1.8 -0.2,0.5 -0.5,1.1 -0.7,1.6 -0.1,0.3 -0.2,0.5 -0.2,0.8 -1.1,3.7 -2.1,7.4 -3.2,11.1 -0.6,1.9 -1.1,3.8 -1.7,5.7 -0.2,0.7 -0.2,1.2 0.5,1.5 2.6,1 5.2,2.1 7.9,3.1 1,0.3 1.8,-0.5 1.7,-1.6 z m 44.9,-30.6 c 2.5,-0.4 4.9,-0.8 7.2,-1.2 0.4,-0.1 0.8,-0.4 0.9,-0.8 1,-2.4 2.3,-4.7 3,-7.2 1,-4 2.7,-7.6 4.8,-11.1 0.2,-0.4 0.3,-0.9 0.5,-1.3 -0.5,0 -1,-0.2 -1.5,0 -1.9,0.5 -3.8,1.1 -5.7,1.8 -0.6,0.2 -1.1,0.8 -1.4,1.3 -1.7,3.2 -3.2,6.5 -4.8,9.8 -1.2,2.4 -2.4,4.7 -3.6,7.1 -0.2,0.4 -0.3,0.8 -0.5,1.1 0.4,0.2 0.8,0.4 1.1,0.5 z m 4.3,-65.5 c -1,0.2 -2.1,0.3 -3.1,0.6 -5.2,1.5 -10.4,3 -15.6,4.6 -1.3,0.4 -2.6,0.9 -3.9,1.3 -3.3,1 -6.7,2 -10,3.1 -1.9,0.6 -3.8,1.5 -5.7,2.3 -3.2,1.3 -6.5,2.5 -9.7,3.9 -1.9,0.8 -1.8,1 -1.4,3 0.2,0.9 0.7,1 1.4,0.7 0.6,-0.2 1.1,-0.6 1.6,-0.7 3.4,-1.1 6.8,-2.1 10.1,-3.2 3.7,-1.3 7.4,-2.7 11,-4 4.4,-1.6 8.8,-3.1 13.1,-4.8 4.1,-1.6 8.1,-3.3 12.4,-4.2 0.9,-0.2 1.8,-0.7 2.6,-1.1 0.3,-0.1 0.5,-0.4 0.7,-0.6 -0.3,-0.2 -0.5,-0.4 -0.8,-0.5 -0.8,-0.2 -1.7,-0.3 -2.7,-0.4 z m -140.5,70.9 c -0.3,-1.8 -0.7,-4.1 -1.2,-6.4 -0.6,-2.9 -1.4,-5.8 -2,-8.7 -0.5,-2.4 -1,-4.7 -1.5,-7.1 -0.2,-1 -0.7,-1.9 -1.8,-2.2 -2.1,-0.8 -4.1,-1.6 -6.2,-2.3 -2.7,-0.9 -3,-0.6 -2.3,2.2 0.1,0.3 0.2,0.6 0.3,0.9 0.1,0.7 0.2,1.4 0.4,2 0.2,1 0.2,2.3 0.8,2.8 1.1,0.9 0.8,1.7 0.6,2.6 -0.1,0.7 -0.3,1.4 -0.2,2 0.6,2.6 1.4,5.2 2.1,7.8 0.4,1.3 0.8,2.6 1.2,4 0.4,1.3 1.2,2.2 2.6,2.5 1.9,0.4 3.9,0.9 5.8,1.3 1.4,0.5 1.5,0.4 1.4,-1.4 z m 96.8,-16.1 c 0.2,1.4 0.5,3.5 0.9,5.5 0.5,2.7 1.2,5.4 1.8,8.1 0.4,1.8 0.7,3.7 1.3,5.5 0.6,1.8 0.8,1.7 2.6,1.1 0.7,-0.2 1.4,-0.4 2,-0.7 3.1,-1.5 6.2,-3.2 9.3,-4.6 5.4,-2.4 10.9,-4.6 16.2,-7.1 1.8,-0.8 3.5,-1.8 4.5,-3.7 0.5,-0.9 0.3,-1.1 -0.7,-1.1 -2.3,0 -4.5,0 -6.8,-0.1 -1.8,-0.1 -3.5,-0.2 -5.3,-0.3 -4.8,-0.4 -9.7,-0.6 -14.5,-1.3 -3.4,-0.5 -6.7,-1.8 -10.1,-2.8 -1.2,-0.5 -1.3,-0.5 -1.2,1.5 z M 515.8,282 c -2.6,1.1 -5.6,1.1 -7.7,3.2 -0.2,0.2 -0.4,0.3 -0.6,0.5 0.3,0.2 0.5,0.4 0.8,0.5 2,1 4.2,1.5 6.1,2.7 1.8,1.2 3.8,1.9 5.8,2.7 0.6,0.3 1.4,0.3 2,0.6 3.1,1.2 6.1,2.5 9.2,3.8 2.6,1.1 5.3,2.1 7.9,3.3 5.3,2.5 10.6,5.2 16.3,6.8 2.7,0.7 5.2,2.1 7.8,3.2 1.5,0.6 3.1,1 4.5,1.7 4.5,2.2 8.9,4.4 13.7,5.9 2.2,0.7 4.4,0.5 6.5,-0.2 0.7,-0.2 1.2,-0.9 1.8,-1.3 -0.6,-0.6 -1,-1.4 -1.7,-1.7 -3,-1.4 -6.1,-2.8 -9.3,-4 -2.9,-1.1 -5.8,-2.1 -8.7,-3.1 -3.8,-1.4 -7.5,-2.8 -11.3,-4.2 -3.3,-1.3 -6.6,-2.7 -10,-4.1 -2.5,-1.1 -5.1,-2.1 -7.6,-3.3 -4,-1.9 -7.8,-3.9 -11.8,-5.7 -3.6,-1.6 -7,-3.5 -10.3,-5.6 -1,-0.7 -2.2,-1.1 -3.4,-1.7 z m 70.4,55.5 c 0.6,4 1.3,8 1.9,12 0.6,4.3 1.1,8.6 1.7,12.8 0.2,1.6 0.5,3.2 0.8,4.7 0,0.2 0.2,0.3 0.3,0.5 0.1,-0.2 0.3,-0.3 0.3,-0.5 0.1,-1.5 0.2,-3 0.2,-4.5 0,-1 0.4,-1.8 1.5,-1.8 1.2,0 1.3,0.9 1.4,1.9 0.2,2.5 -0.3,5 -1,7.3 -1.2,4.1 -1.2,8.2 -0.6,12.3 0.6,4.3 1.7,8.6 2.4,12.9 0.6,3.7 1,7.4 1.5,11 0.3,1.8 0.6,3.5 1,5.2 0.1,0.7 0.5,0.8 1.2,0.5 2.1,-1 4.3,-1.8 6.4,-2.7 0.7,-0.3 1.2,-0.6 0.9,-1.5 -0.4,-1.5 -0.7,-3 -1,-4.5 -1.4,-5.6 -2.8,-11.2 -4.1,-16.8 -1.6,-7.6 -3.7,-15.1 -4.4,-22.9 -0.5,-5.3 -1.7,-10.5 -2.6,-15.7 -0.6,-3.7 -1.2,-7.4 -1.7,-11.2 -0.8,-5.4 -1.6,-10.7 -2.2,-16.1 -0.1,-1.2 -0.6,-1.5 -1.6,-1.1 -1.1,0.3 -2.1,0.7 -3.1,1 -0.9,0.3 -1.2,0.8 -1.1,1.7 0.2,1.5 1.3,11.7 1.9,15.5 z m 47.6,31.5 c 3,0.3 5.4,-1.2 8,-2.2 0.1,-0.1 0.3,-0.2 0.3,-0.3 1,-2.1 2.5,-4.2 2.9,-6.5 0.4,-1.8 1.2,-2.2 2.7,-2.5 0.4,-0.1 0.8,-0.1 1.1,-0.3 0.6,-0.4 1.4,-0.9 1.5,-1.5 0.2,-1.1 0,-2.3 0,-3.4 -0.1,-4.5 -0.2,-9.1 -0.2,-13.6 0,-2.9 0,-5.9 0.1,-8.8 0,-1.2 0.2,-2.3 0.2,-3.5 0.1,-2.6 0.2,-5.2 0.3,-7.8 0,-0.9 -0.3,-1.4 -1.2,-1.3 -0.6,0.1 -1.2,0.1 -1.8,0.3 -3.4,1 -6.8,1.9 -10.1,3.1 -4.5,1.6 -8.9,3.4 -13.3,5.1 -6.1,2.3 -12.2,4.5 -18.3,6.8 -3,1.1 -6,2.3 -9,3.4 -0.9,0.3 -1.3,0.8 -1.2,1.9 0.2,2.1 0.3,4.3 0.6,6.5 0.3,2.1 0.9,4.2 1.3,6.3 0.7,3.6 1.3,7.2 2.1,10.8 0.2,0.8 0.9,1.7 1.6,2.1 3.9,2.2 8.2,3.4 12.6,4 5.6,0.7 18.9,1.4 19.8,1.4 z M 506.9,303.8 c 0.5,2.5 1.2,5.1 1.7,7.6 0.4,2.3 0.4,4.7 0.9,6.9 1,4.1 1.3,8.4 2.6,12.5 1.5,4.7 2.1,9.7 3.3,14.5 1.3,5.3 2.8,10.6 4.2,15.9 1.1,4.2 2.2,8.3 3.3,12.5 0.3,1.2 2.2,5.5 3.3,6 0.5,0.2 1,0.4 1.5,0.7 2.8,1.2 5.6,2.4 8.3,3.8 2.1,1 4,2.3 6,3.5 1.9,1.1 3.7,2.1 5.6,3.1 2.2,1.2 4.4,2.5 6.7,3.6 1.4,0.7 3,1.1 4.5,1.8 3.6,1.7 7.2,3.4 10.8,5.1 3.7,1.7 7.5,3.1 11.2,4.8 0.8,0.3 1.1,0.3 1.4,-0.5 0.5,-1.4 1,-2.8 1.4,-4.2 1.2,-4.4 2.2,-8.8 3.6,-13.1 1.2,-3.5 1.7,-7.2 1.6,-10.8 -0.1,-4.6 -0.8,-9.3 -1.4,-13.9 -0.7,-5.1 -1.8,-10 -2.5,-15.1 -0.6,-4.4 -1,-8.9 -1.6,-13.4 -0.4,-3 -1,-6 -1.5,-9 -0.2,-1.7 -0.2,-3.4 -0.5,-5.1 -0.1,-0.6 -0.5,-1.3 -1,-1.6 -2.6,-1.3 -5.2,-2.6 -7.9,-3.7 -3.2,-1.4 -6.4,-2.6 -9.7,-3.9 -2.8,-1.1 -5.6,-2.2 -8.4,-3.2 -2.2,-0.8 -4.5,-1.5 -6.7,-2.4 -3,-1.3 -5.9,-2.9 -8.9,-4.2 -3,-1.3 -6.1,-2.4 -9.1,-3.6 -2.4,-1 -4.7,-2 -7.1,-3 -2.7,-1.1 -5.4,-2.2 -8,-3.4 -3,-1.4 -6,-2.9 -9,-4.4 -0.5,-0.3 -0.8,-0.2 -0.9,0.4 -0.1,0.5 -0.2,1.1 -0.1,1.6 0.6,2 1.8,11.6 2.4,14.2 z m 138.7,101.4 c -1.5,0.3 -2,-0.1 -2.4,-1.6 -0.5,-1.9 -1.1,-3.7 -1.6,-5.6 -1.3,-4.6 -2.6,-9.2 -4,-13.7 -0.2,-0.7 -0.8,-1.4 -1.2,-2.1 -0.3,-0.6 -0.5,-1.2 -0.5,-1.8 -0.1,-1.3 -0.4,-1.6 -1.5,-1.1 -2.8,1.2 -5.6,2.4 -8.3,3.8 -0.6,0.3 -1.1,1 -1.4,1.6 -1.2,2.8 -2.2,5.7 -3.3,8.5 -0.9,2.2 -0.9,4.2 1,5.9 1.7,1.6 6.7,5.5 7.5,5.9 0.5,0.3 1.1,0.7 1.1,1.2 0.1,0.8 -0.1,1.6 -0.5,2.3 -0.1,0.2 -1.3,0.1 -1.8,-0.2 -1.6,-1.1 -3,-2.4 -4.5,-3.6 -2.1,-1.8 -4.2,-3.7 -6.2,-5.6 -0.3,-0.3 -0.5,-0.7 -0.5,-1.1 0,-0.5 0.1,-1 0.3,-1.5 1.3,-3.5 2.6,-6.9 4,-10.4 0.1,-0.3 0.2,-0.7 0.3,-1.1 -0.4,0.1 -0.8,0 -1.2,0.2 -4.2,2 -8.5,4.1 -12.7,6.2 -0.8,0.4 -1.8,0.7 -2.1,1.3 -0.3,0.6 0.3,1.6 0.4,2.4 0.6,2.7 1.2,5.3 1.8,8 0.3,1.2 0.9,2.4 1.2,3.6 0.6,2.2 0.2,3.3 -1.9,4.4 -2.7,1.4 -5.4,2.8 -8.1,4 -1.3,0.6 -2.8,1.1 -4.3,0.2 -0.2,-0.1 -0.4,-0.2 -0.6,-0.2 -3.6,-0.1 -6.5,-2 -9.6,-3.4 -1.1,-0.5 -1.8,-0.5 -2.4,0.6 -0.2,0.4 -1,0.6 -1.5,0.5 -0.3,-0.1 -0.6,-0.8 -0.6,-1.3 0,-2.6 0,-2.6 -2.4,-3.4 -0.5,-0.2 -0.9,-0.5 -1.3,-0.7 -0.5,-0.2 -1.1,-0.3 -1.7,-0.5 0.1,0.5 0.2,1.1 0.4,1.6 0.8,1.9 1.8,3.7 2.6,5.6 1.1,2.3 2.1,4.6 3.3,6.8 1.9,3.6 4,7.1 6,10.7 0.8,1.5 1.7,2.9 2.1,4.5 0.3,1.1 0.1,2.6 -0.3,3.7 -1.2,3.1 -2.5,6.1 -3.8,9.1 -0.2,0.4 -0.2,0.9 -0.5,1.2 -0.3,0.3 -0.9,0.5 -1.3,0.4 -0.4,-0.1 -0.8,-0.7 -0.8,-1.1 0,-0.6 0.4,-1.2 0.6,-1.8 0.9,-3.2 2,-6.5 2.7,-9.8 0.2,-1.2 -0.4,-2.7 -1,-3.9 -2.2,-4.5 -4.6,-8.8 -6.8,-13.3 -1.2,-2.3 -2.1,-4.7 -3.3,-7 -1.5,-2.9 -3.2,-5.8 -4.8,-8.7 -0.2,-0.3 -0.6,-0.6 -1,-0.8 -4.8,-2.2 -9.6,-4.4 -14.3,-6.6 -2.6,-1.2 -5.2,-2.3 -7.8,-3.6 -0.8,-0.4 -1.3,-0.4 -1.7,0.5 -2.2,5 -4.5,10 -6.6,15.1 -1.6,4 -2.9,8.1 -4.3,12.2 -1,3 -2,6 -3,9 -0.1,0.2 -0.1,0.4 -0.1,0.7 -0.2,2.6 -0.8,2.7 -3.1,1.5 -1.7,-0.9 -3.6,-1.5 -5.4,-2.1 -1.1,-0.4 -1.7,-1.1 -1.4,-2.1 0.3,-0.9 1.1,-1.1 2.2,-0.7 1.3,0.5 2.7,1 4,1.6 0.8,0.3 1.2,0.2 1.5,-0.6 1.6,-4.3 3.1,-8.6 4.7,-12.9 1.2,-3.2 2.3,-6.4 3.5,-9.5 1.7,-4.3 3.5,-8.5 5.3,-12.7 0.7,-1.6 0.5,-2.3 -1,-3.2 -3.3,-1.9 -6.5,-3.9 -9.9,-5.6 -2.6,-1.3 -5.4,-2.3 -8.1,-3.3 -1.6,-0.6 -2.5,-1.5 -2.5,-3.4 0,-1.7 -0.5,-3.5 -0.9,-5.2 -0.6,-2.6 -1.3,-5.3 -2.1,-7.9 -1.3,-4.5 -2.7,-9 -3.9,-13.5 -0.5,-1.7 -0.7,-3.5 -1,-5.2 -0.4,-2.1 -0.8,-2.2 -2.4,-0.9 -2,1.6 -4,3.3 -6.1,4.9 -2,1.6 -4,3.1 -6,4.7 -0.3,0.3 -0.6,0.6 -1,0.9 -0.6,0.6 -0.7,1.1 0.3,1.4 1,0.4 1.9,1.1 3,1.4 2.2,0.6 3.2,1.9 3.7,4.2 0.8,4.2 1.9,8.3 2.8,12.5 0.5,2.4 0.8,4.8 1.2,7.2 0.3,1.6 0.5,3.3 0.8,4.9 0.2,1.1 -0.2,1.5 -1.2,1.8 -1.6,0.4 -3,0.6 -4.7,0.1 -3,-1 -6.1,-1.7 -9.1,-2.4 -1.6,-0.4 -2.7,-1 -2.7,-3 0,-1.3 -0.7,-2.7 -1.1,-4 -0.8,-2.9 -1.5,-5.9 -2.2,-8.8 -0.3,-1.1 -0.7,-1.9 -1.9,-2.2 -0.7,-0.2 -1.4,-0.5 -1.9,-1 -1.1,-1.1 -1.2,-2.6 -0.1,-3.7 1.6,-1.6 1.8,-3.4 1.3,-5.5 -0.3,-1.2 -0.4,-2.4 -0.5,-3.6 -0.1,-1.5 0.5,-1.9 1.9,-1.5 1.8,0.6 3.5,1.3 5.3,1.9 0.4,0.1 0.9,0.2 1.2,0 2.6,-2 5.2,-4.1 7.8,-6.1 2.4,-1.8 4.8,-3.5 7.2,-5.3 0.9,-0.7 1.8,-1.5 2.5,-2.4 0.3,-0.4 0.3,-1.1 0.1,-1.7 -1,-4.6 -2.1,-9.2 -3.1,-13.8 -1.1,-5.1 -2,-10.1 -3,-15.2 -0.8,-4.3 -1.6,-8.6 -2.3,-12.9 -0.5,-3.4 -0.8,-6.9 -1.3,-10.4 -0.2,-1.5 0.2,-2.6 1.7,-3.3 3.8,-1.8 7.7,-3.6 11.5,-5.2 0.7,-0.3 1.9,0 2.6,0.4 1.6,1 3,2.3 4.5,3.3 1.3,0.8 2.9,1.3 4.3,2.1 1.9,1 3.7,2 5.5,3 0.5,0.3 0.9,0.6 1.4,0.8 2.4,1 4.9,1.9 7.3,2.9 3,1.3 6,2.9 9,4.1 5.7,2.3 11.5,4.5 17.3,6.7 3.5,1.3 6.9,2.6 10.4,3.9 1.9,0.7 3.8,1.5 5.7,2.3 2.8,1.2 5.3,2.9 7.7,4.9 1.3,1.1 1.7,2.5 1.9,4.1 0.3,2.9 0.7,5.8 1,8.7 0.1,0.7 0.3,1 1.1,0.7 3.8,-1.4 7.6,-2.7 11.4,-4 3.4,-1.2 6.8,-2.5 10.3,-3.6 4.9,-1.5 9.9,-2.7 14.8,-4.2 3.6,-1 7,-2.3 10.6,-3.4 2.2,-0.7 4.4,-0.5 6.4,0.6 1.2,0.7 2.5,1.3 3.7,1.9 1,0.5 1.4,1.2 1.3,2.2 -0.2,2.1 -0.3,4.2 -0.4,6.3 -0.2,4 -0.4,15.5 -0.4,15.5 0,0 5,6.8 6.7,8.9 2.8,3.5 4.3,7.6 3.9,12 -0.2,2.3 -1.3,4.5 -3.4,5.9 -2.1,1.4 -4.2,2.7 -6.2,4.2 -0.5,0.4 -1,1.1 -1.2,1.7 -1,2.8 -1.8,5.6 -2.8,8.3 -0.1,0.3 -0.5,0.6 -0.9,0.7 -2.5,0.5 -5,1 -7.5,1.4 -1.2,0.2 -1.5,0.8 -1.3,1.8 1,4 1.6,8.2 3.5,11.9 0.7,1.4 1.2,3 1.7,4.5 0.3,1 0.9,1.6 2,1.6 2.4,0 4.8,0.3 7.2,-0.6 1.1,-0.4 1.8,0.1 2.1,1 0.4,1.1 -0.1,1.8 -1.1,1.9 -1.1,0.3 -7.7,0.8 -9.5,1.2 z"
       id="path14"
       inkscape:connector-curvature="0" />
    <path
       d="m 430.3,362.1 c 0,0.8 0.5,1.1 1.7,0.7 1.1,-0.4 2.1,-0.9 3.2,-1.2 1,-0.3 1.3,-0.9 0.7,-1.8 -1.4,-2.6 -2.4,-5.3 -2.9,-8.2 0,-0.2 -0.1,-0.3 -0.2,-0.4 -0.1,0.1 -0.3,0.3 -0.4,0.4 -0.5,1.9 -1,3.8 -1.5,5.8 -0.2,1.3 -0.3,2.7 -0.6,4.7 z m -17.9,12.6 c 0.2,-0.1 0.3,-0.1 0.4,-0.1 2.6,-1 5.1,-2 7.7,-3 5.7,-2.2 11.3,-4.4 17,-6.6 3.7,-1.4 7.3,-3 10.9,-4.5 0.3,-0.1 0.5,-0.6 0.8,-0.9 -0.4,-0.1 -0.9,-0.3 -1.2,-0.1 -1.5,0.6 -3,1.3 -4.6,1.9 -3.8,1.5 -7.7,2.9 -11.5,4.3 -2.1,0.8 -4.1,1.6 -6.2,2.4 -2.4,0.9 -4.7,1.8 -7.1,2.8 -2.1,0.9 -4.2,1.9 -6.3,2.9 -0.2,0.1 -0.3,0.4 -0.3,0.6 0,0.1 0.3,0.2 0.4,0.3 z m -23.8,37.8 c 0.3,0.4 0.5,1 0.6,0.9 0.5,-0.2 1.1,-0.4 1.3,-0.7 1.2,-2.2 2.3,-4.5 3.5,-6.8 1.1,-2.2 2,-4.6 3.4,-6.6 4.4,-6.7 8.5,-13.6 11.8,-21 0.2,-0.5 0.4,-1 0.4,-1.6 0,-0.3 -0.3,-0.6 -0.4,-0.9 -0.3,0.2 -0.6,0.2 -0.8,0.5 -0.8,1.2 -1.6,2.4 -2.2,3.7 -0.8,1.8 -1.2,3.7 -2.1,5.4 -1.3,2.5 -2.7,4.9 -4.2,7.4 -2.6,4.5 -5.1,9.1 -8.3,13.2 -1.4,1.9 -2,4.3 -3,6.5 z m -16.5,-94.4 c 0.7,-0.1 1.5,0 2.1,-0.2 3.4,-1.1 6.9,-2.2 10.2,-3.6 5.9,-2.5 11.7,-5.3 17.6,-8 4.3,-1.9 8.5,-4 12.9,-5.7 6.7,-2.7 13.4,-5.2 20.1,-7.8 2.1,-0.8 4.2,-1.8 6.2,-2.7 0.4,-0.2 0.7,-0.7 1,-1 -0.4,-0.2 -0.7,-0.4 -1.1,-0.5 -1.4,-0.5 -2.7,-1 -4.1,-1.3 -1.4,-0.3 -3.1,-1.1 -4.3,-0.6 -4,1.5 -7.8,3.5 -11.6,5.3 -6,2.8 -12.1,5.5 -18.1,8.3 -4.4,2 -8.7,4.1 -13.1,6.2 -6.4,3 -12.7,6 -19.1,9.1 -1.1,0.5 -2.2,1.2 -3.3,1.8 1.4,0.3 2.8,0.5 4.2,0.8 0.2,0 0.3,-0.1 0.4,-0.1 z m -36.7,96.4 c 0.2,0.4 0.3,0.8 0.5,1.1 1.2,2 3.3,2.9 5,4.2 0.1,0.1 0.9,-0.2 1,-0.5 0.9,-2.5 1.6,-5.1 2.4,-7.6 2.1,-6.5 4.2,-13 6.2,-19.5 1.3,-3.9 2.5,-7.9 3.7,-11.9 0.4,-1.4 0.7,-2.9 1.3,-4.3 0.4,-1 0.5,-1.7 0,-2.7 -0.9,-1.6 -1.6,-3.3 -2.3,-5 -0.4,-1 -0.4,-2 0.5,-2.7 0.3,-0.3 0.9,-0.5 1.2,-0.4 0.4,0.2 0.6,0.7 0.8,1.1 0.3,0.7 0.4,1.5 0.6,2.2 0.1,0.2 0.3,0.3 0.4,0.5 0.1,-0.2 0.2,-0.3 0.3,-0.5 0.3,-1.1 0.7,-2.2 0.9,-3.4 1.4,-7.2 2.7,-14.3 5,-21.3 1.5,-4.6 2.7,-9.3 4,-14 0.3,-1 0.5,-1.9 0.7,-2.9 0.4,-1.5 0.7,-3 1.3,-4.4 0.6,-1.5 0.5,-1.8 -1.2,-1.9 -0.5,0 -1,-0.1 -1.5,-0.2 -2.3,-0.5 -2.5,-0.5 -3.3,1.7 -1,2.7 -1.9,5.4 -2.7,8.2 -1.8,5.7 -3.6,11.4 -5.4,17.1 -2,6.3 -4.1,12.6 -6,19 -1.3,4.2 -2.3,8.4 -3.5,12.6 -1.1,3.9 -2.3,7.7 -3.4,11.6 -1.7,5.6 -3.3,11.1 -4.9,16.7 -0.7,2.4 -1.1,4.8 -1.6,7.2 z m 113.9,-51.1 c -0.2,-0.1 -0.4,-0.4 -0.6,-0.3 -1.3,0.4 -2.5,0.8 -3.7,1.3 -1.6,0.7 -3.2,1.6 -4.8,2.2 -4,1.5 -8.1,3 -12.2,4.4 -4.2,1.5 -8.5,2.9 -12.7,4.4 -1.1,0.4 -2.3,1.1 -3,2 -1.4,1.8 -2.5,3.8 -3.6,5.7 -0.7,1.1 -1.2,2.4 -1.8,3.5 -2.4,4.4 -4.8,8.7 -7.2,13.1 -1,1.8 -1.9,3.6 -2.8,5.4 -1.2,2.1 -2.4,4.2 -3.6,6.4 -0.1,0.2 -0.1,0.5 -0.2,0.8 0.3,0 0.5,0.1 0.8,0 0.9,-0.2 1.8,-0.5 2.7,-0.8 2.4,-1 4.8,-2.1 7.2,-3 3.9,-1.6 8,-2.9 11.9,-4.7 3.8,-1.7 7.4,-3.8 11,-5.9 1,-0.6 1.9,-1.5 2.6,-2.5 1.5,-1.9 2.8,-3.8 4.1,-5.8 1.6,-2.4 3,-4.7 4.5,-7.2 0.7,-1.1 1.2,-2.4 1.8,-3.5 0.8,-1.4 1.6,-2.8 2.4,-4.2 0.7,-1.4 0.6,-1.3 -0.8,-2 -0.6,-0.3 -1.1,-1.1 -1.2,-1.7 -0.1,-0.9 0.6,-1.2 1.4,-1.2 0.4,0 0.8,0.1 1.2,-0.1 1.3,-0.6 2.8,-0.9 3.8,-1.9 1.1,-1.1 1.8,-2.8 2.8,-4.4 z m -104.2,58.9 c 0.5,-0.1 1,-0.2 1.4,-0.3 1.4,-0.5 2.7,-1 4.1,-1.5 3.2,-1.3 6.4,-2.6 9.6,-3.8 3,-1.2 6,-2.3 8.9,-3.6 2.3,-1 4.7,-2 7,-3.1 2.4,-1.1 4.7,-2.4 7.1,-3.5 2,-0.9 4.1,-1.6 6.2,-2.4 1.3,-0.5 2.3,-1.1 3,-2.5 0.6,-1.2 1.4,-2.4 2.1,-3.6 0.6,-1 1.1,-2 1.7,-3 1,-1.8 2.1,-3.5 3.1,-5.3 1.2,-2 2.3,-4 3.5,-6 0.1,-0.2 0.1,-0.5 0.2,-0.8 -0.3,0 -0.6,-0.1 -0.9,0 -2.3,0.3 -4.6,0.8 -6.9,0.9 -3.6,0.2 -7.3,0.3 -11,0.4 -3.4,0 -10.2,-0.6 -15.6,-2.4 -5,-1.7 -8.8,-4.5 -9.8,-5.1 -0.6,-0.3 -0.8,-0.4 -1,0.4 -0.4,1.5 -0.7,3 -1.2,4.5 -1.5,4.6 -3,9.1 -4.5,13.7 -1.7,5.1 -3.4,10.2 -5,15.3 -1.1,3.4 -1.9,6.9 -2.9,10.4 -0.4,0.9 -0.3,1.4 0.9,1.3 z m 54.4,-41.5 c 2.9,-0.6 5.5,-1.8 6.5,-4.7 0.8,-2.3 2.2,-3.4 4.3,-4.2 5.4,-2.2 10.7,-4.6 16,-6.9 0.4,-0.2 0.8,-0.7 0.9,-1.2 0.2,-1.1 0.2,-2.3 0.5,-3.4 1.3,-5.7 2.6,-11.3 3.9,-17 0.9,-4.1 1.7,-8.3 2.7,-12.4 1.1,-4.7 2.3,-9.3 3.5,-14 1.1,-4.6 2.4,-9.1 3.4,-13.7 0.7,-3.4 2,-6.5 3,-9.8 0.1,-0.4 0.1,-1 0.1,-1.4 -0.5,0 -1.1,0 -1.6,0.1 -0.2,0 -0.3,0.1 -0.5,0.2 -5.2,2.1 -10.3,4.3 -15.5,6.4 -3.3,1.3 -6.8,2.5 -10.1,3.9 -4.6,1.9 -9.2,3.9 -13.7,5.9 -5.6,2.5 -11.2,5 -16.8,7.5 -3.5,1.5 -7.1,2.8 -10.6,4.4 -1.7,0.8 -3.8,1.1 -4.2,3.6 -0.3,2.2 -1.2,4.4 -1.8,6.5 -1.3,4.3 -2.8,8.5 -4,12.9 -1.2,4.5 -2.3,9.1 -3.4,13.7 -1,4 -2,8.1 -2.9,12.1 -0.3,1.2 -0.7,2.8 -0.2,3.7 0.8,1.3 2.2,2.5 3.7,3.2 2.1,1.1 4.4,1.7 6.6,2.6 2.2,0.9 9.4,2.6 15.7,2.9 7.1,0.4 13.2,-0.7 14.5,-0.9 z m 4.5,60.1 c 0.6,-4.7 -0.8,-9.1 -1.7,-13.6 -0.7,-3.7 -1.2,-7.4 -2,-11.1 -0.8,-3.9 0.2,-3.5 -3.8,-2.1 -2.1,0.7 -4.1,1.7 -6.1,2.5 -1.3,0.6 -2.1,-0.4 -2.9,-1 -0.8,-0.6 -1.4,-1.3 -1,-2.4 0.5,-1.5 1,-2.9 1.6,-4.4 0.3,-0.8 -0.1,-0.9 -0.7,-0.7 -0.6,0.2 -1.2,0.5 -1.9,0.7 -1.4,0.4 -2.8,0.7 -4.1,1.1 -0.8,0.2 -1.6,0.5 -2.3,0.9 -1.8,0.9 -3.5,1.9 -5.2,2.9 -0.4,0.2 -0.8,0.4 -1,0.7 -1.7,2.5 -3.4,4.9 -5,7.4 -2,3.1 -3.9,6.2 -5.8,9.3 -0.4,0.7 -0.9,1.4 -1.4,2.1 -1.1,1.7 -2.2,3.4 -3.4,5.1 -1.4,2.1 -2.7,4.3 -4.2,6.4 -1.3,1.8 -1.4,3.2 -0.4,5.1 0.7,1.4 1.3,2.8 2,4.2 0.4,0.9 0.9,1.7 1.4,2.6 0.3,0.6 0.7,1.2 0.9,1.9 0.2,0.8 0.4,1.9 -0.7,2.1 -0.9,0.2 -1.6,-0.5 -1.9,-1.4 -0.7,-2 -1.4,-3.9 -2.3,-5.8 -0.8,-1.7 -1.8,-3.3 -2.7,-5 -0.9,-1.5 -0.6,-2.2 0.7,-3.5 1.1,-1.1 2,-2.5 2.9,-3.8 2.5,-3.8 5,-7.6 7.5,-11.4 1,-1.5 1.8,-3.2 2.8,-4.8 1.7,-2.7 3.4,-5.3 5.1,-8 0.2,-0.3 0.3,-0.8 0.4,-1.1 -0.4,0.1 -0.7,0.2 -1.1,0.3 -3.8,1.5 -7.6,3.1 -11.4,4.6 -2.7,1.1 -5.3,2.2 -8,3.1 -1.9,0.6 -3.9,0.8 -5.9,-0.5 -3.1,-2 -6.5,-3.3 -9.1,-6.1 -1.2,-1.2 -1.1,-2.2 -0.7,-3.5 0.9,-3 1.8,-6 2.7,-9 0.9,-3.3 1.7,-6.5 2.7,-9.8 0.9,-3 2.2,-5.9 3.1,-8.9 1.1,-3.7 1.9,-7.5 2.9,-11.2 0.9,-3.2 1.8,-6.4 2.8,-9.5 1.1,-3.7 2.1,-7.3 3.3,-11 1,-3.1 2.2,-6 3.2,-9.1 0.8,-2.5 1.4,-5 2.1,-7.5 0.8,-2.8 1.7,-5.6 2.5,-8.4 0.9,-2.9 1.8,-5.8 2.8,-8.7 0.6,-1.6 1.1,-3.3 2.7,-4.3 1,-0.6 2.1,-1 3.1,-1.5 4.7,-2.2 9.4,-4.5 14.1,-6.6 2.3,-1.1 4.7,-1.9 7,-3 2.7,-1.2 5.3,-2.6 7.9,-3.8 3.7,-1.8 7.5,-3.5 11.2,-5.3 3.8,-1.8 7.5,-3.7 11.3,-5.5 1.8,-0.9 3.7,-1.6 5.6,-2.5 1.9,-0.9 3.8,-2 5.8,-2.9 1.8,-0.8 3.7,-1.8 5.6,-2 1.5,-0.2 3.2,0.6 4.8,1.1 2.4,0.9 4.7,1.9 7.1,2.8 1.1,0.4 1.5,1.1 1.2,2.2 -0.4,1.5 -0.9,3.1 -1.4,4.6 -0.8,2.6 -1.5,5.2 -2.2,7.8 -0.9,3.3 -1.9,6.6 -2.7,9.9 -2.1,8.6 -4.2,17.1 -6.1,25.7 -0.5,2.1 -0.1,4.4 -0.5,6.6 -0.6,4.4 1.1,8.3 2.6,12.2 1.2,3.1 2.7,3.5 5.7,2 1.6,-0.8 3.3,-1.5 5,-2.3 0.9,-0.4 1.5,0 2,0.7 0.9,1.4 1.8,2.8 2.6,4.3 0.2,0.4 0.1,1.1 -0.2,1.5 -0.8,1.4 -1.7,2.8 -2.7,4.2 -0.8,1.1 -1.7,2.1 -1.5,3.7 0,0.5 -0.5,1.2 -0.9,1.4 -1.7,0.7 -2.2,2.2 -3.1,3.6 -3.5,5.6 -6.1,11.7 -10.2,16.9 -1.4,1.7 -2.3,3.8 -3.7,5.5 -1,1.2 -2.4,2.5 -3.9,3 -3.6,1.2 -6.8,3.2 -10.2,4.8 -4,1.9 -8.1,3.5 -12.2,5.2 -0.6,0.2 -1.2,0.4 -1.7,0.7 -0.3,0.2 -0.6,0.7 -0.5,1.1 1.1,6.8 2.3,13.5 3.5,20.3 0.4,2.1 0.7,4.1 1.1,6.2 0.1,0.5 0.5,0.9 0.8,1.3 2.8,2.5 6.3,4 9.6,5.6 0.4,0.2 0.9,0.6 0.9,0.9 0.1,0.7 0.1,1.6 -0.2,2.1 -0.5,0.7 -1.3,0.2 -1.9,-0.3 -3,-2.6 -6.7,-4 -10.4,-5.4 -1.3,-0.4 -1.7,-1 -1.7,-2.2 z"
       id="path16"
       inkscape:connector-curvature="0" />
    <path
       d="m 760.7,305.4 c 1.8,-0.2 4.9,-0.5 6.7,-0.7 1.6,-0.2 -1.2,-1 -1.3,-1 -0.5,-0.2 -3.5,-1.8 -4,-1.8 -0.5,0 -10.2,1.6 -22.1,3.2 -14.3,1.8 -31.1,3.7 -31.6,4 0.4,0.2 1.2,0.9 2.4,1.3 1.2,0.4 16.1,-1.3 19.6,-1.7 4,-0.5 24.3,-2.6 30.3,-3.3 z m -52,8.1 c 0,-0.3 0.1,-0.7 0,-1 -0.2,-0.5 -1.7,-0.8 -1.8,-0.4 -0.5,2.3 -1,4.6 -1.3,7 -0.8,8.1 -1.4,16.2 -2.3,24.3 -0.5,4.2 -0.1,8 2.9,11.2 0.2,0.2 0.5,0.3 0.7,0.5 0.1,-0.3 0.2,-0.5 0.2,-0.8 -0.1,-1.4 -0.3,-2.8 -0.4,-4.1 -0.2,-2.9 0.2,-6 -1.2,-8.7 -0.2,-0.4 -0.3,-0.9 -0.3,-1.3 0,-1 0,-2 1,-2.6 0.7,-0.4 1.1,-0.9 1.1,-1.8 0,-0.8 0.2,-1.5 0.2,-2.3 0.4,-6.6 1.1,-20 1.2,-20 z m 34.9,37.9 c 1.5,-0.2 2.9,-2.4 2.5,-4 -0.4,-1.9 -0.3,-2.1 1.6,-2.7 0.3,-0.1 0.7,-0.3 0.9,-0.6 1.7,-2.2 3.3,-4.4 4.9,-6.6 0.9,-1.2 0.7,-1.7 -0.8,-2.1 -1.5,-0.5 -3.1,-0.9 -4.6,-1.2 -0.5,-0.1 -1.2,0.2 -1.6,0.5 -1.7,1.7 -3.4,3.5 -5,5.3 -0.2,0.2 -0.3,0.6 -0.5,0.8 0.3,-0.1 0.6,-0.1 0.8,-0.3 0.8,-0.6 1.3,-0.2 1.6,0.4 0.5,0.9 0.3,1.7 -0.7,2.2 -1.3,0.7 -2.6,1.2 -3.9,2 -0.8,0.5 -1.5,1.2 -1.9,2 -0.2,0.4 0.1,1.5 0.4,1.7 2.2,1 4.3,1.8 6.3,2.6 z m -34,6.1 c 0,1.1 0.5,1.8 1.7,1.7 4.5,-0.2 9,-0.4 13.6,-0.5 3.2,-0.1 6.4,-0.1 9.6,-0.2 0.6,0 1.2,0 1.8,-0.1 3.5,-0.4 6.9,-0.9 10.4,-1.2 1.9,-0.2 18.8,-0.9 18.8,-1.6 0.2,-4.6 0.2,-9.2 0.3,-13.7 0,-1 -0.4,-0.8 -1,-0.4 -2,1.3 -4.1,2.6 -6.2,3.9 -0.9,0.6 -1.9,1.3 -2.9,1.6 -1.7,0.5 -3.6,0.8 -5.4,1.1 -0.9,0.2 -1.5,0.5 -1.8,1.4 -0.4,1.1 -1,2.1 -1.5,3.2 -0.5,0.9 -1.2,1.2 -2.2,1 -3.4,-0.6 -6.6,-1.5 -9.6,-3.1 -1,-0.5 -1.7,-1.1 -1.2,-2.3 0.2,-0.6 0,-0.8 -0.7,-0.7 -1.4,0.2 -2.8,0.5 -4.3,0.6 -5.9,0.7 -11.6,0.5 -17,-2.2 -2.3,-1.1 -2.6,-1 -2.7,1.6 v 0.8 c 0.2,1.8 0.3,7.9 0.3,9.1 z m 3.6,-44.8 c -1,0.1 -1.8,0.5 -1.9,1.7 -0.1,1.5 -0.3,3.1 -0.4,4.6 -0.1,1.3 -0.4,2.6 -0.5,4 -0.1,3.4 -0.1,6.7 -0.2,10.1 -0.1,2 -0.4,4.1 -0.5,6.1 0,0.6 0.2,1.5 0.6,1.7 1.7,1.2 3.5,2.4 5.4,3.2 1.6,0.7 3.4,1 5.1,1.3 1.7,0.3 3.5,0.7 5.3,0.5 2.8,-0.3 5.6,-1 8.3,-1.6 1.9,-0.4 3,-2 3.9,-3.6 0.1,-0.2 -0.3,-0.8 -0.5,-0.9 -1.4,-0.6 -2.9,-1.1 -4.4,-1.6 -2.7,-0.9 -3.4,-2.9 -1.9,-5.4 0.2,-0.2 0.5,-0.5 0.8,-0.5 0.2,0 0.6,0.3 0.7,0.6 0.2,0.3 0.2,0.6 0.2,1 0.1,1.3 0.6,2 2,2.2 1.3,0.2 2.7,0.5 4,1 1.9,0.7 1.8,0.7 3,-0.8 0.9,-1.2 2,-2.4 3.1,-3.4 0.6,-0.5 1.5,-0.9 2.2,-0.9 3.1,-0.1 6.1,0.8 9.1,1.8 1.9,0.7 1.9,1.2 0.7,2.8 -1.9,2.4 -3.6,4.9 -5.3,7.4 -0.1,0.2 -0.2,0.5 -0.2,0.7 0.2,0 0.4,0.1 0.7,0.1 1.5,0 2.9,-0.5 4.2,-1.3 2,-1.2 4.1,-2.3 5.9,-3.7 2.3,-1.6 3.8,-3.6 3.9,-6.7 0.1,-3.8 0.7,-7.6 1,-11.4 0.4,-4.4 0.8,-8.8 1.3,-13.2 0.1,-1.2 -0.4,-1.4 -1.5,-1.3 -2.2,0.2 -4.4,0.4 -6.6,0.6 -2.6,0.2 -5.3,0.4 -7.9,0.7 -3,0.3 -6,0.7 -9.1,1 -4.6,0.7 -27.5,2.9 -30.5,3.2 z m 15.7,-7.5 c 4.1,-0.5 8.3,-1.1 12.3,-2 6.8,-1.6 13.7,-1.9 20.7,-2.4 0.2,0 0.4,-0.1 0.5,0 2.6,1.1 5.3,2.2 7.9,3.4 0.4,0.2 0.6,1.1 0.5,1.6 -0.1,2.9 -0.3,5.7 -0.5,8.6 -0.3,3.4 -0.5,6.9 -1,10.3 -0.2,1.4 -0.1,2.6 0.4,4 0.4,1.3 0.2,2.9 -0.1,4.2 -1,3.4 -0.9,6.9 -0.7,10.4 0.2,2.4 -0.2,4.8 -0.3,7.1 0,1.5 0.1,3.1 0.1,4.6 0,0.3 0.1,0.5 0.2,0.8 0.3,2 -0.2,2.7 -2.2,2.8 -3.7,0.2 -7.4,0.3 -11.1,0.4 -1.3,0.1 -2.6,0.2 -4,0.2 -0.7,0 -0.9,0.2 -0.7,1 1.1,4.5 2.2,9 3.3,13.5 0.8,3.3 1.5,6.6 2.2,9.9 0.2,1 0.6,1.5 1.8,1.5 2,0.1 4,0.4 5.9,0.7 1.1,0.1 1.8,0.7 1.6,1.6 -0.1,1 -1,1.8 -2,1.5 -1.8,-0.5 -3.5,-0.8 -5.4,-0.5 -0.6,0.1 -1.3,0.1 -1.9,0.2 -1.2,0.3 -2.3,-0.5 -2.5,-1.7 -0.2,-1.6 -0.5,-3.2 -0.7,-4.7 -0.4,-2.9 -3.7,-17.3 -4.6,-20.5 -0.1,-0.5 -0.3,-1.1 -0.5,-1.6 -0.2,-0.3 -0.7,-0.6 -1,-0.6 -3.1,0.4 -6.3,0.9 -9.4,1.3 -2.7,0.3 -5.4,0.8 -8.1,0.5 -2.5,-0.3 -3.4,1.2 -4.1,2.7 -2.1,4.3 -4,8.6 -6.1,12.9 -0.9,1.8 0.4,3 1.1,4.2 1,1.7 2.2,3.2 3.6,5 0.5,0.7 0.9,1.5 0.1,2.1 -0.7,0.5 -1.6,0.6 -2.2,-0.3 -1.5,-2.1 -3,-4.1 -4.5,-6.2 -0.6,-0.8 -1.4,-1.6 -1.7,-2.6 -0.2,-0.6 0,-1.6 0.3,-2.3 1,-2 2.3,-4 3.4,-6 0.7,-1.3 1.1,-2.6 1.8,-3.9 0.8,-1.6 1.6,-3.1 2.3,-4.7 0.1,-0.2 -0.2,-0.8 -0.3,-0.8 -1.4,0 -2.8,0 -4.3,0 -3,0.1 -6,0.3 -8.9,0.3 -0.8,0 -1.7,-0.8 -2.3,-1.5 -1.9,-2.4 -3.7,-4.8 -5.5,-7.3 -0.7,-0.9 -1.3,-2 -1.9,-3 -0.2,-0.3 0,-0.7 0,-1.1 0.5,-3.2 1.2,-6.4 1.4,-9.6 0.5,-6 0.5,-12.1 1.1,-18.1 0.4,-4.2 1.4,-8.3 2.1,-12.5 0.2,-1.1 0.7,-1.5 1.8,-1.6 2.9,-0.1 18.6,-1.4 22.1,-1.8 z"
       id="path18"
       inkscape:connector-curvature="0" />
    <path
       d="m 116.8,259 c -0.1,-0.1 -0.2,-0.1 -0.2,-0.2 0,-0.3 0,-0.7 -0.1,-1 -1.2,-3.8 -2.4,-7.6 -3.8,-11.3 -0.5,-1.3 -1.7,-2.3 -3,-1.6 -2,1.1 -4.2,2.1 -6,3.5 -1.3,1.1 -2.7,1.9 -4.2,2.5 -0.8,0.3 -1.5,0.7 -2.2,1.1 -4,2.5 -8.1,5.1 -12.1,7.7 -0.2,0.1 -0.4,0.2 -0.6,0.4 -1.1,0.9 -1.1,2 0,2.9 0.5,0.4 1,0.9 1.4,1.5 2.2,2.9 4.2,5.8 6.4,8.7 0.4,0.5 1.3,0.9 2,0.9 2.2,-0.1 4.1,-1.2 5.8,-2.6 2.1,-1.7 4.3,-3.3 6.5,-4.8 2.9,-2 5.9,-3.9 8.8,-6 0.6,-0.4 0.9,-1.1 1.3,-1.7 z m 3,0.4 c 0.1,1.6 -0.7,2.2 -1.6,2.7 -2,1.1 -4,2.1 -5.9,3.4 -3.7,2.7 -7.3,5.6 -11.1,8.2 -2.4,1.6 -4.9,2.9 -7.5,4.3 -0.2,0.1 -0.7,0 -1,-0.2 -0.3,-0.1 -0.5,-0.5 -0.6,-0.8 -2.9,-5.1 -7.2,-9.2 -10.5,-14 -0.8,-1.2 -0.6,-2.9 0.6,-3.7 0.3,-0.2 0.6,-0.4 0.8,-0.6 3.8,-3.3 8.2,-5.7 12.4,-8.3 3.5,-2.1 6.9,-4.4 10.5,-6.5 1.7,-1 3.6,-1.8 5.4,-2.6 1.2,-0.6 1.8,0.3 2.1,1.2 1.2,2.9 2.4,5.7 3.5,8.6 0.9,2.2 1.7,4.4 2.4,6.6 0.3,0.8 0.4,1.4 0.5,1.7 z"
       id="path20"
       inkscape:connector-curvature="0" />
    <path
       d="m 341.8,213.5 c 0,0 0.1,1.6 0,2.3 0,1.1 0.5,1.7 1.6,1.9 5.5,0.9 11,1.8 16.5,2.8 2.2,0.4 3.6,-0.3 4.2,-2.4 0.5,-2 0.6,-4 1,-6 0.3,-1.3 -0.2,-1.7 -1.4,-1.9 -3.5,-0.4 -7,-0.9 -10.5,-1.3 -2.3,-0.3 -4.6,-0.4 -7,-0.6 -0.9,-0.1 -1.9,-0.1 -2.8,0 -0.9,0 -1.4,0.4 -1.4,1.4 0,1.3 -0.2,2.6 -0.2,3.8 z m -2.2,-0.7 c 0,-1.6 0,-3.1 0,-4.7 0,-1.1 0.5,-1.7 1.6,-1.9 3.5,-0.8 6.9,0 10.4,0.3 2.1,0.2 4.3,0.3 6.4,0.6 2.8,0.4 5.6,0.8 8.3,1.4 1.8,0.4 1.9,0.8 1.5,2.6 -0.1,0.3 -0.2,0.6 -0.3,1 -0.4,1.9 -0.8,3.8 -1.2,5.6 -0.2,0.9 -0.3,1.8 -0.5,2.6 -0.7,2.7 -0.7,2.6 -3.4,2.3 -4.5,-0.5 -9,-0.9 -13.5,-1.4 -2.4,-0.3 -4.7,-0.6 -7.1,-1 -1,-0.2 -2.1,-1.4 -2.1,-2.5 0,-1.6 0,-4.9 -0.1,-4.9 z"
       id="path22"
       inkscape:connector-curvature="0" />
    <path
       d="m 218.7,258.5 c 1,-0.2 1.5,0.3 1.3,1.3 -0.1,0.8 -0.3,1.6 -0.5,2.4 v 0.6 c 0.1,-0.1 0.3,-0.2 0.4,-0.3 2.1,-2.2 2.1,-2.2 4.4,-0.2 0.1,0.1 0.2,0.2 0.2,0.2 0.2,0.1 0.5,0.3 0.7,0.4 0,-0.3 0.2,-0.7 0,-0.9 -0.4,-0.9 -0.9,-1.7 -1.3,-2.5 -0.4,-0.8 -0.4,-1.4 0.3,-2 1,-0.8 1.8,-1.8 2.7,-2.7 0.2,-0.2 0.2,-0.6 0.3,-0.8 -0.3,0 -0.5,0 -0.8,0.1 -0.7,0.2 -1.4,0.4 -2,0.7 -0.8,0.4 -1.1,0.3 -1.2,-0.7 -0.1,-0.8 -0.5,-1.5 -0.8,-2.2 -0.5,0.7 -2.8,4.1 -4,4.6 -0.9,0.4 -1.7,0.8 -2.5,1.3 -0.5,0.3 -0.5,0.7 0.1,0.7 1,0.1 1.9,0 2.7,0 z m 12.4,-5.1 c -1,1.3 -1.8,2.6 -2.9,3.7 -0.8,0.8 -1,1.4 -0.7,2.4 0.4,1.8 0.7,3.7 0.9,5.6 0.2,1.3 -0.6,2 -1.8,1.5 -1,-0.4 -1.9,-1 -2.8,-1.7 -1.5,-1.1 -1.7,-1.1 -2.9,0.4 -0.7,0.9 -1.5,1.8 -2.2,2.7 -0.6,0.7 -1.4,0.8 -2.1,0.2 -0.7,-0.5 -1,-1.4 -0.5,-2.2 0.4,-0.6 0.9,-1.2 1.2,-1.8 1,-2 0.2,-3.3 -2,-3.4 -0.9,0 -1.9,-0.1 -2.8,-0.4 -1.4,-0.4 -1.6,-1.8 -0.4,-2.6 0.9,-0.7 2,-1.2 3.1,-1.7 3.1,-1.2 4.7,-3.7 5.6,-6.7 0.5,-1.7 1,-2.2 2.2,-1.7 0.5,0.2 0.9,0.8 1.2,1.2 0.2,0.2 0.1,0.6 0.1,1 0.3,2.6 0.3,2.6 2.7,1.9 0.7,-0.2 1.5,-0.3 2.3,-0.4 1,0.1 1.6,0.8 1.8,2 z"
       id="path24"
       inkscape:connector-curvature="0" />
    <path
       d="m 196.5,243.6 c 1.9,-0.2 2,0 1.8,1.8 v 1.3 c 0,0.3 0.1,0.6 0.2,0.9 0.2,-0.2 0.5,-0.4 0.7,-0.6 1.4,-1.7 1.4,-1.7 3.4,-0.8 0.2,0.1 0.7,0.1 0.8,0 0.2,-0.2 0.2,-0.6 0.1,-0.9 -0.2,-0.6 -0.6,-1.1 -0.8,-1.6 -0.9,-2 -0.7,-2.2 1.3,-2.9 0.3,-0.1 0.5,-0.1 0.8,-0.3 0.2,-0.1 0.4,-0.3 0.6,-0.4 -0.2,-0.2 -0.4,-0.7 -0.6,-0.7 -0.7,0 -1.5,0 -2.2,0.1 -0.6,0.1 -1.1,0.5 -1.6,-0.3 -0.2,-0.5 -0.8,-0.8 -1.2,-1.1 -0.2,0.5 -0.5,1 -0.7,1.6 -0.1,0.4 -0.2,2.3 -1,2.5 -0.8,0.2 -2.8,1.2 -3,1.5 0.3,0.1 0.5,0.1 0.8,0.1 0.3,-0.1 0.5,-0.2 0.6,-0.2 z m -2.8,2 c -0.2,0 -0.5,0 -0.8,0.1 -1.3,0.5 -1.8,-0.4 -2.2,-1.4 -0.4,-1.2 0.6,-1.4 1.3,-1.8 1.5,-0.9 3,-1.8 4.4,-2.8 1.7,-1.2 2.6,-6.3 3,-6.9 0.6,-0.9 1.3,-0.8 1.8,0.1 0.3,0.7 0.6,1.4 0.8,2.2 0.5,1.4 1.4,2.1 2.9,2 1.3,-0.1 2.5,-0.4 3.8,-0.5 0.9,-0.1 1.7,0 2.1,1 0.4,1 -0.1,1.6 -0.8,2.1 -1.3,0.9 -2.6,1.9 -4,2.8 -0.8,0.5 -0.9,1.1 -0.6,2.1 0.6,1.6 0.9,3.4 1.2,5.1 0.1,0.7 -0.4,0.9 -1,0.6 -0.7,-0.3 -1.5,-0.6 -2.1,-1 -2.4,-1.5 -3.1,-1.4 -5.2,1.2 -0.3,0.4 -0.5,0.9 -0.9,1.2 -0.3,0.3 -1,0.5 -1.3,0.3 -0.3,-0.1 -0.5,-0.8 -0.5,-1.2 0,-1 0.2,-2 0.3,-3 0.1,-1.7 -0.2,-2.1 -2.2,-2.2 z"
       id="path26"
       inkscape:connector-curvature="0" />
    <path
       d="m 172,268 c 0,1.3 -0.6,1.6 -1.4,1.4 -0.7,-0.2 -1.4,-0.7 -2.1,-1.2 -1.2,-0.8 -2.4,-1.5 -3.6,-2.3 -0.5,-0.3 -1.1,-0.5 -1.3,-0.9 -0.3,-0.5 -0.4,-1.4 -0.1,-1.8 0.3,-0.4 1.2,-0.7 1.6,-0.6 2.6,0.9 4.9,2.3 6.6,4.5 0.2,0.4 0.3,0.8 0.3,0.9 z"
       id="path28"
       inkscape:connector-curvature="0" />
    <path
       d="m 147.7,253.9 c 1.2,0.5 2.4,0.9 3.6,1.5 1,0.5 2,1.1 2.9,1.7 0.3,0.2 0.7,0.7 0.7,1.1 0,0.5 -0.2,1.2 -0.6,1.6 -0.3,0.3 -1.1,0.3 -1.4,0.1 -1.9,-0.9 -3.7,-1.9 -5.5,-3 -0.5,-0.3 -1,-0.9 -1.2,-1.4 -0.1,-0.3 0.5,-0.9 0.9,-1.3 0.2,-0.2 0.5,-0.2 0.6,-0.3 z"
       id="path30"
       inkscape:connector-curvature="0" />
    <path
       d="m 270.1,253.9 c 0.3,-0.6 0.6,-1.1 0.9,-1.5 1,-1.4 2,-2.9 3.1,-4.2 0.6,-0.7 1.3,-1.4 2.1,-1.8 0.4,-0.2 1.6,1.1 1.5,1.6 -0.1,0.3 -0.3,0.5 -0.4,0.7 -1.6,2 -3.1,4 -4.7,5.9 -0.3,0.4 -1,0.8 -1.4,0.7 -0.4,-0.2 -0.7,-0.9 -1.1,-1.4 z"
       id="path32"
       inkscape:connector-curvature="0" />
    <path
       d="m 311.6,221.2 c -2,0.1 -3.5,1.3 -5.1,2.3 -0.2,0.1 -0.5,0.4 -0.7,0.4 -0.5,0 -1.2,0.2 -1.4,-0.1 -0.3,-0.3 -0.4,-1.2 -0.1,-1.4 0.8,-1 1.7,-2.1 2.8,-2.6 1.3,-0.7 2.8,-0.9 4.3,-1.2 1.1,-0.4 0.8,2.5 0.2,2.6 z"
       id="path34"
       inkscape:connector-curvature="0" />
    <path
       d="m 133.5,249.8 c 2,0.6 4.1,1.1 6.1,1.7 0.4,0.1 1,0.1 0.9,1.2 -0.1,1.1 -0.9,0.7 -1.4,0.9 -0.2,0.1 -0.5,0 -0.8,0 -1.7,-0.2 -3.4,-0.4 -5.1,-0.7 -1.7,-0.2 -2.2,-0.6 -2,-1.7 0,-1 0.4,-1.2 2.3,-1.4 z"
       id="path36"
       inkscape:connector-curvature="0" />
    <path
       d="m 184.1,282.1 c -0.1,0.3 -0.2,0.9 -0.5,1.3 -0.6,0.9 -1.8,0.7 -2,-0.3 -0.5,-2 -1.4,-3.8 -2.6,-5.5 -0.5,-0.7 -0.3,-1.5 0.3,-1.9 0.4,-0.2 1.4,-0.2 1.6,0.1 1.2,1.7 2.2,3.6 3.2,5.4 z"
       id="path38"
       inkscape:connector-curvature="0" />
    <path
       d="m 293.6,233 c -0.2,0.2 -0.5,0.7 -0.9,0.9 -1.9,0.7 -3.1,2.2 -4.1,3.9 -0.4,0.6 -0.6,1.4 -1.6,0.9 -0.9,-0.4 -1,-1.2 -0.5,-2.2 1.2,-2.1 2.6,-4.1 5.1,-4.9 1.1,-0.5 1.9,0 2,1.4 z"
       id="path40"
       inkscape:connector-curvature="0" />
    <path
       d="m 327.7,214.6 c -1.3,0.5 -2.6,0.9 -3.9,1.3 -0.7,0.2 -1.5,0.5 -2.2,0.6 -0.4,0.1 -1.2,0 -1.3,-0.2 -0.2,-0.4 -0.1,-1.1 0.1,-1.5 0.1,-0.4 0.6,-0.8 1,-0.9 2.2,-0.5 4.4,-1 6.6,-1.5 0.2,0 0.2,2 -0.3,2.2 z"
       id="path42"
       inkscape:connector-curvature="0" />
    <path
       d="m 545.6,360.4 c -0.9,0 -1.8,0.1 -2.7,0 -0.6,-0.1 -1.2,-0.3 -1.7,-0.7 -0.7,-0.6 -0.5,-1.3 0.4,-1.5 0.9,-0.1 1.9,-0.1 2.8,-0.1 1.1,0 2.1,-0.1 2.2,-1.6 1,-2.1 1.5,-1.2 1.8,0.1 0.5,1.3 1,3.6 -2.8,3.8 z"
       id="path44"
       inkscape:connector-curvature="0" />
    <path
       d="m 545.4,340.7 c 1.2,-0.7 1.9,0.7 1.8,1.5 -0.1,0.5 -0.8,1.3 -1.3,1.4 -0.8,0.1 -1.6,-0.4 -1.4,-1.4 0.1,-0.6 -0.3,-0.8 0.9,-1.5 z"
       id="path46"
       inkscape:connector-curvature="0" />
    <path
       d="m 530.7,334.6 c 0,1.4 -1.4,1.3 -1.9,1.4 -0.9,0.1 -1.5,-0.6 -1.3,-1.4 0.1,-0.6 0.7,-1.4 1.2,-1.4 1,-0.2 2,0 2,1.4 z"
       id="path48"
       inkscape:connector-curvature="0" />
    <path
       d="m 624.8,353.8 c -0.2,1.5 0.4,2 2.7,2.8 1.6,0.6 3.2,0.9 4.7,1.5 0.6,0.2 1.3,0.6 1.5,1 0.2,0.5 0.2,1.3 -0.1,1.8 -0.4,0.7 -1,0.3 -1.7,0.1 -1.8,-0.7 -3.7,-1.2 -5.5,-1.8 -1.3,-0.4 -2.5,-1 -3.7,-1.5 -1.1,-0.4 -1.2,-1.2 -0.8,-2.2 0.3,-0.9 0.7,-1.7 0.9,-2.6 0.2,-0.8 0.6,-1.3 1.4,-1 0.6,0.2 0.8,0.4 0.6,1.9 z"
       id="path50"
       inkscape:connector-curvature="0" />
    <path
       d="m 631.3,344.7 c -0.2,1.4 -1.1,1.3 -1.7,1.3 -1,0.1 -1.3,-0.9 -1.3,-1.7 0,-0.9 0.6,-1.6 1.4,-1.5 0.6,0.2 1.8,0.4 1.6,1.9 z"
       id="path52"
       inkscape:connector-curvature="0" />
    <path
       d="m 644,343.7 c 0,0 -0.2,1.5 -1.6,1.5 -1.4,0 -1.6,-2.3 0,-2.8 1.6,-0.3 1.6,1.3 1.6,1.3 z"
       id="path54"
       inkscape:connector-curvature="0" />
    <path
       d="m 191.7,339 c -0.1,0 -0.2,0 -0.4,0 -0.2,0.4 -0.5,0.7 -0.4,1.1 0.1,0.4 0.5,0.6 0.7,1 0.2,-0.3 0.6,-0.6 0.5,-0.8 0,-0.5 -0.2,-0.9 -0.4,-1.3 z m 3,1.2 c 0,1.6 -0.8,2.7 -2,3.6 -2.1,1.6 -3.8,-0.6 -4.2,-2.7 -0.4,-2.2 1,-4.1 3.1,-4.8 0.8,-0.3 1.5,0 1.8,0.7 0.6,1 0.9,2.1 1.3,3.2 z"
       id="path56"
       inkscape:connector-curvature="0" />
    <path
       d="m 203.8,318.4 c -0.2,-0.2 -1,-0.6 -0.9,-0.9 0.1,-0.7 0.5,-1.7 1,-1.9 1.6,-0.7 3.3,-1.2 5,-1.6 0.5,-0.1 1.5,0.4 1.7,0.9 0.2,0.4 -0.3,1.5 -0.8,1.7 -1.7,0.7 -3.4,1.1 -5.2,1.7 -0.2,0.1 -0.4,0.1 -0.8,0.1 z"
       id="path58"
       inkscape:connector-curvature="0" />
    <path
       d="m 178.8,323.1 c 0,-1.2 0.7,-1.6 1.7,-1.7 1,-0.1 1.8,0.7 1.8,1.5 0,1.1 -0.8,1.8 -2,1.8 -1.3,0.2 -1.3,-0.8 -1.5,-1.6 z"
       id="path60"
       inkscape:connector-curvature="0" />
    <path
       d="m 394.5,363.2 c 0,-0.1 0,-0.3 0.1,-0.5 0.6,-1.5 1.3,-3 1.9,-4.5 0.3,-0.6 0.7,-1.3 1.5,-0.8 0.6,0.4 1.4,0.8 0.9,1.8 -1.8,3.5 -0.6,3.6 2.9,5.2 1.1,0.5 2.2,0.8 3.2,1.2 0.9,0.4 1.2,1.2 1,2.1 -0.2,0.8 -0.7,1.3 -1.6,0.9 -0.5,-0.2 -1,-0.5 -1.5,-0.7 -2.2,-0.8 -4.5,-1.6 -6.7,-2.4 -1,-0.5 -1.7,-1.3 -1.7,-2.3 z"
       id="path62"
       inkscape:connector-curvature="0" />
    <path
       d="m 402.7,343.7 c 0.6,0.3 1.6,0.3 1.5,1.5 -0.1,1.3 -1,2.3 -2,2.2 -0.8,0 -1.7,-1 -1.7,-1.9 0.1,-1.1 1,-1.9 2.2,-1.8 z"
       id="path64"
       inkscape:connector-curvature="0" />
    <path
       d="m 417.1,344.7 c 0.1,-0.9 0.1,-2 1.4,-2.1 0.9,0 1.8,1 1.8,1.8 0,1.1 -0.9,2.1 -1.8,2.1 -1.2,0 -1.5,-0.8 -1.4,-1.8 z"
       id="path66"
       inkscape:connector-curvature="0" />
    <path
       d="m 753.7,321.6 c 0.1,1.2 -0.9,1.4 -1.3,1.6 -0.7,0.2 -1.7,-0.9 -1.5,-1.8 0.1,-0.5 0.1,-0.9 1,-1.2 0.8,-0.2 1.7,0.2 1.8,1.4 z"
       id="path68"
       inkscape:connector-curvature="0" />
    <path
       d="m 735.8,322.9 c -0.1,1 -1.2,1.2 -1.7,1.3 -0.4,0 -0.7,-0.2 -1.1,-1.1 -0.3,-0.9 0.7,-1.9 1.4,-1.8 0.7,0.1 1.5,0.6 1.4,1.6 z"
       id="path70"
       inkscape:connector-curvature="0" />
    <path
       d="m 111,257.6 c -0.6,-1.4 -1.2,-2.6 -1.7,-3.9 -0.4,-1.1 -0.9,-1.2 -1.8,-0.8 -3.6,1.8 -7.3,3.4 -10.9,5.3 -1.7,0.9 -3.2,2 -4.7,3.1 -0.6,0.4 -1.1,0.9 -0.6,1.7 1.2,1.7 2.4,3.4 3.7,5.1 0.5,0.7 1.2,0.8 2,0.1 3.2,-3.2 7.2,-5.3 11,-7.7 0.8,-0.5 1.6,-1 2.3,-1.7 0.3,-0.3 0.4,-0.7 0.7,-1.2 z m 3.4,1 c -0.3,0.3 -0.6,0.8 -1.1,1 -2.9,1.9 -5.9,3.7 -8.8,5.6 -2.4,1.6 -4.8,3.4 -7.1,5.2 -1.8,1.4 -2.7,1.4 -4.1,-0.3 -1.9,-2.2 -3.7,-4.5 -5.6,-6.7 -0.6,-0.7 -0.7,-1.3 0.1,-1.9 2.5,-1.9 4.9,-3.9 7.6,-5.7 1.8,-1.2 3.9,-1.9 5.8,-2.9 2.4,-1.2 4.8,-2.5 7.2,-3.8 0.8,-0.4 1.5,-0.4 1.9,0.5 1.3,2.7 2.6,5.4 3.8,8.1 0.1,0.3 0.2,0.5 0.3,0.9 z"
       id="path72"
       inkscape:connector-curvature="0" />
    <path
       d="m 345.6,211.3 c -0.3,0 -0.3,2.9 0,3 0.9,0.3 11.5,1.8 13.4,1.8 0.5,0 1.6,-2.7 1.2,-2.8 -3.1,-0.5 -13.6,-2 -14.6,-2 z m -2.2,1.9 c 0,-0.2 0,-0.2 0,-0.3 0,-3.2 -0.5,-3.6 3.7,-3.2 2.7,0.3 5.5,0.2 8.2,0.5 2.5,0.3 4.9,0.9 7.3,1.4 0.8,0.1 1.1,0.5 0.9,1.3 -0.4,1.7 -0.7,3.5 -1.2,5.1 -0.1,0.4 -0.9,0.9 -1.3,0.8 -2.8,-0.4 -5.6,-0.8 -8.4,-1.3 -2.5,-0.4 -4.9,-0.8 -7.4,-1.2 -2,-0.3 -2,-0.3 -1.9,-2.4 0.1,-0.2 0.1,-0.5 0.1,-0.7 z"
       id="path74"
       inkscape:connector-curvature="0" />
    <path
       d="m 257.7,351.2 c -2.3,1.4 -12.9,5.2 -15.7,6.4 -2.7,1.1 -5.4,2.4 -8,3.6 -1.3,0.6 -1.6,0.6 -1.8,-0.9 -0.3,-3.1 -0.6,-6.2 -0.8,-9.3 -0.2,-2.4 -0.4,-38.8 -0.7,-43.3 -0.1,-1.5 -0.3,-3 -0.6,-4.4 -0.2,-1.2 0.1,-2.1 1.1,-2.7 0.6,-0.4 1.3,-0.9 2,-1.2 3.2,-1.6 6.4,-3.1 9.5,-4.7 2.6,-1.3 5,-2.8 7.6,-4.1 7,-3.8 13.7,-8.2 21.1,-11.3 3,-1.3 5.9,-2.6 8.8,-3.9 1.2,-0.5 1.4,-0.5 1.4,1 0,3.4 -0.1,10.3 -0.2,10.3 v 9.5 c 0,0.9 0.1,1.8 0.2,2.6 0.1,3.7 0.3,7.3 0.3,11 0.1,6.2 0.2,12.4 0.3,18.6 0,3 0,6 0.1,8.9 0,1.3 -0.6,2 -1.7,2.6 -3.8,1.8 -7.6,3.7 -11.4,5.6 -3.9,1.8 -7.9,3.4 -11.5,5.7 z m -28.2,7.2 c 0.1,1.5 0,3 0,4.5 0,0.7 -0.3,1.3 -1.2,1.1 -1.5,-0.4 -3.1,-0.6 -4.6,-1.1 -0.4,-0.1 -0.8,-0.8 -0.8,-1.2 -0.5,-4 -0.9,-8 -1.3,-12 -0.4,-3.4 0,-6.6 2.1,-9.7 0.3,-0.5 0.5,-0.7 1.3,-1.9 0.8,-1.3 1.4,-4.8 -0.4,-4.9 -1.8,-0.1 -1.5,2.8 -2.2,4.3 -0.2,0.5 -0.7,0.8 -1,1.2 -0.1,-0.5 -0.4,-1 -0.4,-1.5 0.1,-3.3 0.3,-6.5 0.3,-9.8 0,-5 -0.3,-10 -0.4,-14.9 0,-2.2 0.2,-4.4 0.3,-6.6 0,-1.3 0,-2.6 0,-3.8 0,-0.7 0.2,-1.3 1.1,-1 1.6,0.4 3.4,0.1 4.5,1.6 0.3,0.4 0.8,0.8 0.8,1.3 z m -10.8,-57.2 c 0.2,4 -0.4,8.1 -0.5,12.1 0,5 0.2,10 0.2,15 0,2.3 -0.2,6.9 -0.3,9.2 -0.1,2 -12.6,-2.6 -12.9,-2.9 -1,-0.8 -2.1,-1.6 -3.1,-2.5 -0.8,-0.7 -1.5,-0.8 -2.2,0 -0.7,0.8 -0.5,1.7 0.3,2.3 1.3,1 2.5,2.1 3.9,2.7 3.5,1.6 14.1,4.4 14.1,4.4 0,0 -1.6,4.4 -1.2,4.1 0.5,-0.3 -3.8,2.2 -5.7,3.3 -2.3,1.3 -4.5,2.7 -6.9,4 -2.7,1.4 -5.6,2.7 -8.3,4.1 -1.8,0.9 -3.6,1.9 -5.4,2.9 -2.4,1.3 -4.8,2.7 -7.2,4.1 -0.7,0.4 -1.6,0.5 -2.3,0.9 -2.6,1.3 -5.4,2.4 -7.9,4 -2.1,1.3 -3.6,0.4 -5.1,-0.8 -2.4,-1.9 -4.8,-3.9 -7,-6.1 -2,-2 -3.9,-4.1 -5,-6.7 -0.2,-0.5 -0.2,-1.3 0,-1.9 2.7,-8.3 5.5,-16.5 8.1,-24.8 1,-3 1.5,-6.2 2.2,-9.4 0.4,-1.9 1.4,-3.2 3.3,-4 2.7,-1.1 5.3,-2.6 8,-3.8 2.6,-1.1 5.3,-2 7.9,-3 4.5,-1.7 9,-3.5 13.5,-5.2 2.6,-1 5.3,-1.7 7.9,-2.5 0.8,-0.3 1.5,-0.7 2.3,-1 1.3,-0.6 2.5,-1.1 3.8,-1.7 1.8,-0.7 3.6,-1.4 5.4,-2.1 2.2,-0.8 4.3,-1.7 6.5,-2.5 0.4,-0.1 0.8,0 1.2,0 -0.2,0.3 -0.4,0.8 -0.8,1 -1.1,0.7 -2.3,1.4 -3.5,1.9 -1.8,1.1 -3.4,2.1 -3.3,4.9 z m -51.4,70.3 c -2.6,1.1 -5.1,2.3 -7.7,3.3 -4.3,1.7 -8.7,3.2 -13.1,4.8 -0.3,0.1 -0.6,0.1 -0.9,0.1 0,-0.3 0,-0.7 0.1,-0.9 0.9,-1.8 1.8,-3.6 2.7,-5.5 0.8,-1.7 1.6,-3.4 2.3,-5.1 l 3.6,-8.7 c 0.3,-0.8 0.7,-0.7 1.2,-0.1 3.3,3.9 6.9,7.3 10.9,10.4 0.5,0.4 0.8,0.9 1.3,1.3 -0.2,0.1 -0.2,0.3 -0.4,0.4 z m -23.8,5.9 c -0.2,0.4 -0.9,0.5 -1.1,0.6 -3,-0.4 -6.4,-3.1 -5.1,-6.4 2.1,-5 3.9,-10.1 5.9,-15.1 2.2,-5.5 4.4,-11 6.6,-16.5 2.2,-5.4 4.4,-10.9 6.9,-16.2 1.9,-3.9 4.3,-7.6 6.3,-11.5 0.6,-1.1 1.2,-1 1.9,-0.2 0.9,0.9 1.2,2 0.7,3.2 -0.5,1.2 -1.2,2.4 -1.5,3.7 -1.7,6.4 -2.9,12.8 -5.3,19 -1,2.5 -1.9,5 -2.8,7.5 -0.5,1.6 -0.8,3.2 -1.2,4.8 -0.1,0.4 -0.4,0.8 -0.6,1.1 -0.3,-0.3 -0.6,-0.6 -0.8,-0.9 -0.3,-0.5 -0.7,-1 -0.9,-1.6 -0.3,-0.9 -0.9,-1.4 -1.8,-1 -0.9,0.4 -1,1.3 -0.6,2.1 0.5,1 0.9,2.2 1.6,3.1 1.9,2.3 1.2,4.6 0.1,6.9 -1.8,3.9 -3.5,7.9 -5.3,11.8 -1,1.9 -1.9,3.8 -3,5.6 z m 24,-68.5 c 6.7,-2.9 13.4,-5.7 19.9,-8.8 6.1,-2.9 12.5,-5.1 18.7,-7.7 4.1,-1.7 8.4,-2.9 12.5,-4.5 1,-0.4 2,-0.8 2.8,-1.5 0.9,-0.7 1.7,-0.4 2.5,-0.1 1.4,0.5 2.8,1.1 4.1,1.6 0.4,0.2 0.8,0.4 1.2,0.6 0.2,0.1 0.3,0.3 0.5,0.4 -0.2,0.1 -0.3,0.3 -0.5,0.4 -1.6,0.9 -3.2,1.9 -4.9,2.6 -1.8,0.8 -3.7,1.4 -5.6,2 -5.4,1.9 -10.9,3.6 -16.3,5.6 -5.4,2 -10.7,4.1 -16,6.2 -5.3,2 -10.5,4 -15.8,6 -0.3,0.1 -0.6,0.2 -1.1,0.3 -0.7,-0.3 -1.6,-0.6 -2.3,-1.1 -1.3,-0.7 -1.2,-1.4 0.3,-2 z M 229,298.3 c -1.5,0 -3.1,0 -4.6,0 -0.2,0 -0.5,-0.2 -0.7,-0.3 0.2,-0.1 0.3,-0.3 0.5,-0.4 2.1,-1.3 4.2,-2.5 6.2,-3.8 0.5,-0.3 1,-0.5 1.4,-0.8 10.3,-7.1 21.4,-12.8 32.9,-17.7 2.8,-1.2 5.5,-2.5 8.3,-3.7 2.3,-0.9 4.8,-0.8 7.1,0.1 l 0.6,0.3 c -0.2,0.1 -0.4,0.2 -0.6,0.3 -3.8,1.8 -7.5,3.5 -11.3,5.3 -3.5,1.7 -7,3.6 -10.4,5.5 -3.4,1.8 -6.8,3.7 -10.1,5.7 -2.4,1.4 -4.7,2.9 -7.1,4.2 -2.7,1.4 -5.5,2.5 -8.3,3.8 m 59.4,66.5 c -0.7,-1.3 -1.3,-2.6 -2,-3.8 -0.2,-0.4 -0.5,-0.9 -0.8,-1.2 -0.6,-0.7 -1.2,-0.9 -1.9,-0.1 -0.7,0.7 -11.3,5.8 -15.6,7.9 -2.2,1.1 -2.7,0.9 -2.9,-1.6 0,-0.1 0,-0.1 0,-0.2 -0.5,-4.7 -0.9,-9.4 -1.5,-14 -0.2,-1.3 0.4,-1.8 1.4,-2.2 1.2,-0.5 2.5,-1 3.7,-1.5 3.3,-1.5 6.5,-3.1 9.8,-4.5 2,-0.8 2.7,-1.8 2.4,-4 -0.1,-0.4 0,-0.9 0,-1.3 0,-3.6 -0.1,-7.2 -0.1,-10.8 -0.1,-5.6 -0.5,-49.7 -0.4,-53 h 0.1 c 0,-0.6 -0.1,-1.1 -0.1,-1.7 0,-0.8 -0.3,-1.2 -1.1,-1.4 -2.5,-0.7 -5.1,-1.6 -7.6,-2.3 -0.5,-0.1 -1.1,0 -1.6,0.2 -2.1,1.1 -4.2,2.2 -6.3,3.3 -3,1.5 -6,3.1 -9.1,4.5 -4,1.9 -8.2,3.6 -12.1,5.7 -3.9,2 -7.7,4.4 -11.5,6.6 -0.3,0.2 -0.9,0.2 -0.9,0.2 -0.9,-1.9 -2.8,-2 -4.5,-2.4 -1.6,-0.4 -3.4,-0.6 -4.8,-1.4 -1.5,-0.9 -2.7,-0.7 -4,0 -4.2,2 -8.4,3.9 -12.8,5.4 -5.5,1.9 -10.9,4.2 -16.3,6.4 -4.2,1.7 -8.4,3.6 -12.6,5.3 -4.7,2 -9.5,3.7 -14.1,5.8 -2.2,1 -4,2.8 -4.7,5.4 -0.2,0.7 -0.5,1.3 -0.8,2 -2,3.7 -4.2,7.2 -5.9,11 -2.9,6.5 -5.5,13.1 -8.2,19.6 -1.1,2.5 -2.2,5.1 -3.2,7.6 -1.9,4.6 -3.7,9.3 -5.5,13.9 -1,2.4 -1.9,4.8 -2.7,7.3 -0.4,1.2 0.1,2 1,2.7 2.1,1.6 4,3.5 6.2,5 1.1,0.7 2.7,1.5 3.8,1.2 3.1,-0.7 6.1,-1.8 9.1,-3 2.6,-1 5.1,-2.2 7.6,-3.3 l 0.9,-0.3 c -0.2,0.3 -0.3,0.6 -0.5,0.8 -2.4,3.1 -5,6.2 -7.3,9.4 -1.2,1.6 -2.3,3.1 -4,4.1 -1.2,0.7 -1.2,1.7 -0.6,2.7 1.7,2.7 3.3,5.5 4.9,8.3 1,1.8 1.8,3.8 2.6,5.7 0.4,1 1.2,1.1 2,0.9 0.2,0 0.3,-1.2 0.1,-1.7 -0.8,-2.2 -1.7,-4.3 -2.7,-6.4 -1,-2.1 -2.1,-4.1 -3.3,-6.2 -0.7,-1.2 -0.5,-2.1 0.4,-3.2 2.1,-2.5 4,-5.2 6,-7.7 2.2,-2.8 4.3,-5.6 6.6,-8.4 1.2,-1.5 3.5,-2 5.2,-1.2 1.8,0.8 3.5,1.6 5.3,2.4 0.7,0.4 1.5,0.7 2.1,1.3 0.7,0.6 1.5,0.6 2.1,0.1 0.4,-0.3 0.8,-1.1 0.7,-1.5 -0.2,-0.6 -0.8,-1.1 -1.4,-1.4 -1.9,-0.9 -3.8,-1.7 -5.7,-2.5 -1,-0.4 -0.6,-0.9 0,-1.2 2.9,-1.4 5.9,-2.9 8.8,-4.2 0.3,-0.1 0.9,0 1,0.2 1.3,2.6 2.7,5.1 3.6,7.9 1.6,5.1 3.7,10 6.2,14.7 0.7,1.3 1.4,2.7 1.9,4.1 0.5,1.7 1,2.2 2.8,2.4 3.2,0.2 6.4,0.4 9.6,0.7 1.2,0.1 1.9,-0.4 1.9,-1.4 0.1,-1.3 -0.9,-1.3 -1.7,-1.3 -1.4,-0.1 -2.8,0 -4.1,-0.1 -3.1,-0.3 -6.5,-0.5 -7.5,-4.4 0,-0.1 -0.1,-0.2 -0.2,-0.3 -1.4,-3 -3.4,-5.5 -4.4,-8.7 -1.6,-4.7 -3.6,-9.3 -5.4,-13.9 -0.4,-1 -0.3,-1.6 0.6,-2.1 2.5,-1.3 4.9,-2.5 7.4,-3.8 4.1,-2.1 8.3,-4.2 12.4,-6.4 2.5,-1.3 4.9,-2.6 7.3,-3.9 0.2,-0.1 0.5,-0.1 0.8,-0.1 0,0.2 0,0.5 -0.1,0.7 -0.7,2 -1.4,4.1 -2.3,6.1 -1.4,3 -2.8,5.9 -4.4,8.8 -0.8,1.5 -1.9,2.7 -2.7,4.2 -0.3,0.6 -0.3,1.5 -0.1,2.2 0.1,0.3 0.9,0.5 1.4,0.5 1,0.1 1.1,-0.7 1.4,-1.4 0.6,-1.3 1.2,-2.6 1.8,-3.9 1.7,-3.5 3.4,-7 5,-10.5 0.9,-2 1.6,-4 2.4,-6 0.1,-0.3 0.4,-0.5 0.6,-0.7 0.1,0.3 0.3,0.5 0.3,0.8 0.5,4.3 1,8.6 1.4,12.9 0.2,1.7 0.3,1.9 1.9,2.1 2.7,0.4 5.3,0.9 8,1.3 0.5,0.1 4.5,-3.4 6.3,-4.5 0.1,-0.1 0.2,-0.1 0.3,-0.2 3,-1.9 6.4,-3.2 9.7,-4.7 1.1,-0.5 1.8,-0.1 1.8,1.2 -0.1,1.7 -0.2,3.4 -0.4,5.1 -0.6,4.9 -1.3,9.9 -1.9,14.8 -0.5,4.3 -0.5,4.3 -4.7,3.4 -0.8,-0.2 -1.7,-0.4 -2.4,-0.2 -0.5,0.2 -0.9,1 -1.1,1.6 -0.1,0.2 0.8,0.8 1.2,0.9 2.5,0.4 5,0.5 7.4,0.9 1.3,0.2 1.7,-0.2 1.8,-1.6 0.3,-4.6 0.8,-9.3 1.3,-13.9 0.4,-3.5 0.8,-7 1.2,-10.6 0.1,-0.9 0,-2.1 0.5,-2.7 0.4,-0.6 1.6,-0.5 2.4,-0.8 0.2,0 0.3,-0.1 0.5,-0.2 3.6,-1.3 7.2,-2.8 10.3,-5.2 0.6,-0.5 0.8,-0.1 0.8,0.4 0.1,0.8 0,1.5 0.1,2.3 0.4,3.3 0.8,6.6 1.2,9.9 0.3,2.3 0.4,4.5 0.7,6.8 0.1,0.7 1.3,0.9 3,0.8 1.7,-0.1 13.7,-8 15.8,-8.9 1.7,-0.7 2.2,-0.6 3,1.1 0.3,0.5 0.5,1.1 0.8,1.7 0.4,1.1 1.5,1.7 2.3,1.3 0.1,-0.3 0.2,-1.4 -0.4,-2.5 z"
       id="path76"
       inkscape:connector-curvature="0" />
  </g>
</svg>
