<?xml version='1.0' encoding='utf-8'?>
<svg xmlns="http://www.w3.org/2000/svg" height="377.94666" viewBox="0 0 559.37335 377.94666" width="559.37335"><clipPath id="a"><path d="m762.848 1495.26h226.726v757.86h-226.726z"/></clipPath><g transform="matrix(.13333333 0 0 -.13333333 0 377.94667)"><g clip-path="url(#a)"><path d="m969.391 2162.16c3.379 42.6-41.09 90.61-84.043 90.96-54.047.45-97.219-92.53-74.004-135.26 20.886-38.44 102.133-69.84 132.125-29.82 10.511 14.03 15.668 42.14 17.652 59.25 3.652 31.46-9.871 53.09-33.598 73.49" fill="#f68a63"/><path d="m985.203 1869.06c-15.617 48.08-42.648 75.33-92.082 90.79-46.449 14.53-88.949-39.29-84.535-83.12 2.508-25 21.687-49.21 46.437-57.3 15.754-5.15 62.891-6.71 78.305.68 22.75 10.91 25.543 33.76 28 55.27 3.785 33.17-5.39 41.37-22.183 69.05" fill="#d7e60e"/><path d="m972.641 1575.96c12.16 127.15-229.305 126.93-208.524 9.05 6.738-38.23 39.324-60.1 70.531-76.55 37.598-19.83 53.168-15.49 90.758.83 45.399 19.72 91.654 92.26 38.864 133.67" fill="#70cc8c"/></g><g fill="#231f20"><path d="m1154.4 2413.23c-26.91 22.66-22.15 49.4-56.49 52.33-79.04 6.76-206.824 1.1-285.64 1.69-51.04.39-88.286-5.57-125.129-23.54-21.438-10.46-42.746-24.98-66.555-44.69-4.391-3.64-12.133-5.22-11.094-11.34 180.125-4.55 358.043 18.94 544.908 25.55zm-231.556-1038.41c-48.899 0-97.524.11-146.149-.12-7.593-.04-10.89-4.88-11.019-12.68-.664-39.15-1.207-78.31-2.602-117.44-3.461-97.37-3.742-194.74-2.929-292.182.953-114.07-24.532-227.527-9.161-342.449 53.407 3.371 106.227 6.66 159.039 10.082 7.961.508 12.493 4.328 12.567 13.16.637 76.34-9.988 152.2-5.172 228.981 5.434 86.629 4.484 173.698 5.262 260.598.75 84.04.164 168.09.164 252.05zm33.543 28.97c57.093 2.88 103.173 5.73 149.293 7.24 17.09.56 25.28 6.1 24.51 24.27-3.62 84.89 5.36 169.37 8.53 254.05 3.68 98.4.61 197.17 7.46 295.3 8.4 120.43 18.13 240.74 20.36 361.45.29 15.85 9.49 43.35-24.1 42.88-41.76-.6-84.47 1.24-125.09-3.81-134.248-16.7-269.19-17.66-403.838-23.67-35.336-1.58-37.785-16.24-37.606-42.74.25-36.52 1.926-73.5-2.926-109.49-15.269-113.14-13.808-226.95-17.273-340.56-2.465-80.89-.723-161.96-5.125-242.72-4.062-74.61-7.414-149.07-5.387-223.76.25-9.15 1.973-15.63 13.391-14.75 136.055 10.47 272.879 3.06 397.801 16.31zm-226.934-797.419c-1.687 101.41 4.957 207.707 8.129 309.149 2.074 66.281.801 132.66 1.875 198.97 1.227 75.69 2.266 151.42 5.731 227.02 1.304 28.6-11.481 35.49-35.231 31.93-56.562-1.42-109.703-7.11-142.762-8.18-33.054-1.07-42.355 9.22-40.562 18.59-2.274 67.31-2.293 123.71.617 187.87 6.766 149.18 12.121 298.58 11.793 447.88-.188 82.96 16.633 164.5 13.242 247.09-1.39 33.99-1.324 68.07-.305 92.39 1.028 24.32 16.282 28.55 21.973 32.11 36.356 22.79 61.145 34.89 93.781 62.12 35.844 29.89 78.184 30.9 122.563 30.84 44.387-.05 117.461.08 179.699 4.16 50.774 3.33 133.964 1.25 152.064-1.45 18.11-2.71 43.6-50.81 53.67-63.1 10.07-12.28 12.26-37.4 11.76-47.78-6.13-126-10.87-227.67-16.52-353.69-6.88-153.19-24.05-556.5-18.97-609.71 1.6-16.83-19.04-27.03-35.5-23.66-58.23-2.87-102.54-7.77-160.145-7.89-12.121-.02-9.417-19.25-9.656-29.91-2.465-109.58-4.652-219.17-6.086-328.76-.769-59.13 3.055-118.462-.629-177.372-3.886-62.066.739-221.718.739-221.718s146.807 6.269 175.657 7.359 40.69 4.473 39.13-11.059c1.76-26.531-30.56-13.199-59.29-14.89-28.73-1.692-267.044-16.899-419.251-24.418-39.629-4.082-79.176-6.832-118.946-7.153-8.418-.07-17.226-1-22.691 7.95-3.344 5.472-1.914 9.929 1.77 14.5 6.726 8.339 11.937 3.691 35.164 4.05 23.226.352 97.363 3.629 157.187 6.762"/><path d="m872.484 1697.25c-61.531-1.3-118.386-51.1-117.195-102.65 1.449-62.64 39.313-87.06 132.246-85.3 33.676.64 74.805 54.58 73.57 96.5-1.41 47.7-44.699 92.38-88.621 91.45zm-4.164-211.07c-101.925-1.43-136.929 54.2-136.656 103.87.402 73.88 69.441 131.97 148.219 129.74 51.57-1.45 109.176-63.14 103.027-115.55-7.652-65.27-47.113-119.32-114.59-118.06"/><path d="m866.688 2062.16c30.367-1.63 94.039 33.31 95.617 76.41 1.527 41.73-34.137 94-69.231 96.09-50.972 3.05-120.648-47.7-123.949-90.28-3.828-49.33 29.059-77.04 97.563-82.22zm114.976 76.14c-2.262-55.17-61.844-100.08-128.992-97.23-59.676 2.53-111.836 46.65-106.262 94.4 7.86 67.23 65.543 121.73 142.598 120.66 52.324-.74 95.133-57.35 92.656-117.83"/><path d="m951.949 1884.09c-.14 48.28-35.156 78.81-91.097 79.43-54.805.61-100.723-37.87-100.293-84.03.433-46.57 45.546-86.37 97.957-86.42 41.297-.04 93.55 50.87 93.433 91.02zm-99.629-111.29c-59.539.53-114.144 48.42-113.39 99.44 1.066 71.91 45.035 112.73 124.562 110.3 79.043-2.43 105.781-35.06 107.926-98.78 2.199-65.57-65.379-107.19-119.098-110.96"/><path d="m3037.86 1973.53c-2.22-14.4 1.08-19.59 14.36-22.57 28.97-6.51 58.04-3.79 87.01-4.44 49.48-1.13 99.01-.32 151.42-.32-3.33 6.95-5.57 11.39-7.61 15.93-13.84 30.78-39.7 24.29-65.28 22.39-59.99-4.44-120.08-7.42-179.9-10.99zm-422-24.45c-4.83 0-6.95.23-8.99-.03-90.57-11.94-209.87-.09-300.69-2.86-35.89 0-60.08-20.08-95.44-50.17 140.05 1.1 272.61 3.25 407 20.36-7.35 12.74-6.94 21.86-1.88 32.7zm198.31-798.54c5.4-7.57 7.93-12.14 11.4-15.82 49.28-52.27 48.82-50.97 115.13-25.39 122.9 47.39 248.68 87.41 367.87 144.27 5.69 2.71 12.78 3.44 9.07 15.36-161.77-59.68-332.76-79.57-503.47-118.42zm-170.73 787.19c15.6-4.04 27.1-7.52 38.81-9.96 54.53-11.38 109.54-19.38 165.08-24 51.1-4.25 101.1-4.14 149.72 16.63 21.94 9.37 30.15 18.09 21.26 43.55-7.4 21.22-16.58 24.27-35.16 18.18-11-3.62-22.83-7.94-34.01-7.28-80.25 4.75-161.26-3.41-240.77 13.7-6.5 1.4-11.8 1.93-17.27-3.8-14.2-14.86-29.21-28.93-47.66-47.02zm124.35-861.07c-4.37 16.24-8.75 30.29-11.83 44.62-2.27 10.51.67 23.17-16.18 24.26-25.31 1.61-50.61 3.54-75.82 6.29-117.36 12.77-235.13 23.04-348.56 59.3-36.58 11.7-73.04 23.3-107.35 51.99 0-24.67.91-43.07-.3-61.33-.96-14.41 6.42-23.9 17.72-26.97 68.96-18.75 137.66-42.08 209.96-40.66 78.4 1.54 153.8-14.33 229.14-31.53 33.96-7.76 65.62-25.26 103.22-25.97zm115.61 922.63c32.92.08 62.08-4.81 90.76 3.91 8.18 2.5 14.72 4.67 13.04 15.92-9.25 62.04-12.66 121.22-24.04 178.23-11.37 57.01-8.66 68.05-51.28 88.33-56.31 28.32-146.63-6.42-175.63-63-31.5-61.47-32.36-128.58-40.12-194.56-1.23-10.51 5.53-12.72 14.31-14.93 58.24-14.65 117.97-8.59 172.96-13.9zm-673.73-844.59c-1.49-28.9-5.39-55.37-3.68-81.49 4.5-69.09-1.34-138.929 15.02-207.269 2.8-11.691 6.11-18.839 18.55-18.902 37.51-.18 75.06-1.238 112.55-.141 84.71 2.493 169.45 9.653 254.05 8.032 66.16-1.262 132.39-2.782 198.36-.5 171.54 5.91 343.27 11.359 513.09 40.16 7.53 1.281 15.1 1.34 14.03 12.601-1.61 16.887-3.13 33.84-3.52 50.797-1.69 72.472-15.87 144.262-6.36 217.502 7.53 58.03 2.81 58.76-50.88 36.89-48.99-19.95-95.65-45.12-146.5-60.96-71.77-22.36-143.38-45.87-210.11-81.25-44.55-23.64-47.18-23.73-75.76 16.23-16.69 23.34-37.71 42.06-63.66 59.34-2.73-20.35 1.62-36.98 10.84-51.73 8.05-12.9 16.62-26.89 3.64-38.39-12.14-10.76-28.49-8.31-44.72-2.7-35.45 12.29-71.12 25.2-107.77 32.53-74.28 14.86-149.24 24.19-225.38 26.88-68.34 2.41-134.45 22.33-201.79 42.37zm1094.97 761.8c-68.65 11.76-124.01 6.42-184.71 6.79-27.58.17-57.01 7.64-82.7-7.31-66.62-38.78-139.06-37.85-212.58-35.77-69.38 1.95-136.91 23.32-207.77 12.42-138.66-21.31-279.35-12.84-418.86-23.2-16.05-1.19-20.02-6.17-19.35-20.62 3.33-70.48 5.98-140.99 9.27-211.47 3.74-80.37 8.63-160.69 11.64-241.09 2.32-62.05 2.54-122.48 77.98-147.28 69.18-22.75 138.55-42.36 211.03-51.41 102.77-12.83 204.46-32.2 309.45-19.99 83.85 9.75 165.39 30.07 248.2 44.26 72.54 12.42 274.74 64.92 274.49 88.41-4.24 77.49-8.92 173.58-10 251.15-1.61 117.45-6.09 236.29-6.09 355.11zm-1638.48-318.54c13.97 3.03 56.76-37.23 81.27-59.43 37.15-33.65 119.52-88.48 156.64-113.23 37.12-24.74 76.41-31.74 115.17-25.59 44.42 7.05 89.29 11.3 133.99 16.49 16.65 1.93 22.99 9.44 22.07 27.26-7.05 136.07-15.25 331.21-16.35 403.75-1.11 72.53 42.06 82.9 70.51 100.22 28.46 17.32 44.96 15.16 76.66 15.34 97.96.57 195.94.55 293.67 7.79 63.63 4.71 72.69 16.6 78.72 82.56 5.39 59.04 7.82 119.35 34.78 173.63 41.79 84.13 153.95 120.26 223.45 69.74 31.23-22.69 37.14-60.78 47.45-99.14 10.32-38.36 15.23-81.78 17.13-126.14 1.21-28.41 18.93-47.59 29.35-70.85.82-1.81 5.63-2.75 8.5-2.6 75.01 3.95 149.99 8.19 225 12.05 6.1.32 23.82-3.13 30.58-12.9 22.26-32.16 32.69-52.44 34.63-95.26 1.96-42.82-.6-144.49-1-220.19-.2-38.13 3.49-143.57 3.49-143.57s38.8-59.58 56.22-86.25c35.25-53.99 77.32-103.63 117.75-154.11 31.25-39.01 64.46-76.45 96.7-114.69 6.09-7.22 13.73-14.51 10.56-25.06-1.1-3.62-6.6-8.16-10.28-8.34-10.93-.53-17.44 7.37-21.23 16.38-8.46 20.13-51.82 66.51-88.88 111.02-21.28 25.55-117.57 154.26-151.85 198.09 0-55.5-1.76-109.83.38-164.01 3.99-100.72-2.46-201.7 8.05-302.28 3.57-34.269 2.8-69.062 7.22-103.191 4.72-36.418-21.04-34.621-42.75-37.199-69.93-8.309-139.86-16.949-210.01-22.949-56.87-4.852-114.03-6.512-171.1-8.629-14.19-.531-22.25-3.051-24.01-19.41-7.76-72.211-.79-143.953 5.47-215.703 3.5-40.137 10.25-80.09 11.97-120.278 1.74-40.551 26.87-65.281 53.08-90.101 6.8-6.43 13.36-11.309 5.31-20.7-7.8-9.101-15.49-5.21-21.69 1.52-18.97 20.621-43.65 38.969-54.38 63.359-10.95 24.879-8.64 55.801-10.99 84.172-6.46 78.539-12.38 157.11-18.39 235.688-1.12 14.703-3.02 29.551-2.09 44.172 1.65 25.871-4.57 37.289-34.91 35.308-67.69-4.429-135.68-4.539-203.56-5.629-14.01-.218-17.37-5.859-15.92-18.398 10.99-95.383 19.72-191.07 33.87-285.953 4.01-26.899-11.41-38.418-22.55-54.438-22.15-31.859-44.24-63.492-56.14-100.98-1.97-6.192-5.59-12.391-12.84-12.352-4.05.012-9.67 2.629-11.77 5.891-3.67 5.68-1.23 11.68 2.37 17.699 24.65 41.41 50.93 82.082 72.03 125.262 6.96 14.23 1.85 35.39-.58 52.988-11.57 84.32-28.76 167.902-31.91 253.27-.43 11.64-3.92 18.3-17.87 17.839-117.59-3.808-235.21-6.546-352.76-11.027-15.98-.621-20.93 4.578-23.13 18.129-13.47 82.719-12.46 166.58-15.63 249.79-3.77 98.63.41 197.63-6.22 296.35-.56 8.38-1.02 15.19-12.04 13.62-62.21-8.87-138.59-20.01-186.1-28.53-47.51-8.5-208.25 121-264.33 162.41-18.09 13.37-34.71 28.76-51.7 43.56-6.44 5.62-13.04 20.73.92 23.76"/><path d="m3119.72 2351.61c.35-12.01-49.96-53.32-60.13-50.19-3.48 1.07-7.57 4.92-8.44 8.28-.77 2.93 1.6 8.26 4.28 10.26 16.41 12.22 33.38 23.67 49.98 35.63 7.93 5.72 12.32 3.68 14.31-3.98"/><path d="m2578.6 2338.46c19.32-7.86 40.28-11.01 51.76-29.89 2.07-3.41 1.99-9.02.87-13.04-.47-1.69-7.15-3.68-9.45-2.49-15.91 8.14-31.73 16.58-46.76 26.21-2.94 1.89-2.98 9.42-2.9 14.32.03 1.74 4.4 3.41 6.48 4.89"/><path d="m2859.52 2482.07c0-17.94.16-35.87-.1-53.81-.06-5.2-.49-12.4-7.44-11.56-3.91.48-9.84 6.19-10.27 10.05-2.36 21.07-.31 42.09 4.8 62.64.55 2.19 5.89 4.99 8.4 4.49 5.63-1.12 8.81-5.53 4.61-11.81"/><path d="m3010.13 1417.02c1.29-17.7 15.82-55.45-27.17-56.05-121.27-1.7-262.04-10.33-383.32-13.75-41.58-1.17-82.51-2.76-122.96-12.46-18.7-4.49-29.21 1.78-31.8 22.02-1.86 14.53-6.51 28.71-10.12 43-1.63 6.41-3.56 13.58 4.08 16.52 7.38 2.85 11.76-2.73 14.23-9.23 1.69-4.46 4.25-19.8 7.76-33.73 3.52-13.92 20.45-13.33 47.62-8.22 60.29 11.35 121.73 3.06 182.63 7.09 95 6.29 190.21 9.36 285.31 14.22 18.98.96 14.68 16.28 14.32 27.75-.33 10.84-9.85 27.14 7.23 28.81 11 .87 10.91-8.28 12.19-25.97"/><path d="m2928.02 1614.75c-9.86 1.84-10.78 9.18-11.1 15.84-.35 7.5 5.34 12.15 11.92 11.72 8.38-.55 10.16-8.28 10.29-15.32.15-7.72-5.66-10.41-11.11-12.24"/><path d="m2457.12 1597.28c-7.97 2.66-12.93 14.5-2.77 24.9 4 4.1 9.46 3.28 13.49-2.36 9.71-13.56-2.75-25.19-10.72-22.54"/><path d="m3117.6 980.359c29.13 17.95 29.13 17.95 66.02-15.339-17.57 25.261-20.53 46.09 18.82 56.4-45.6-7.34-39.96 27.21-51.66 59.28-4.32-46.15-31.13-52.38-62.79-55.36 28.58-2.37 37.47-17.07 29.61-44.981zm90.22 59.111c9.6 1.98 20.21 2.05 28.53 6.44 9.28 4.89 17.34 7.7 23.72-1.36 5.62-8 11.28-18.41 3.81-27.82-6.69-8.44-16.15-10.85-27.11-5.28-19.7 9.99-33.78-3.43-40.19-17.302-5.68-12.296-1.73-30.277 13.28-38.168 16.55-8.699 14.99-22.039 11.57-35.402-2.75-10.738-10.33-19.469-23.18-17.387-15.66 2.528-18.78 14.18-19.38 28.329-.8 18.8-16.13 29.039-28.63 39.281-8 6.558-14.38-5.129-21.16-9.442-6.8-4.328-5.21-10.328-4.84-16.879.64-11.539-1.72-22.832-13.53-28.179-7.88-3.563-16.46-4.36-23.59 3.027-9.65 10-8.71 21.461-3.37 32.473 5.71 11.769 14.47 21.949 15.82 35.847.8 8.321-.22 14.432-8.82 17.952-7.4 3.03-13.34 6.76-20.91-1.57-9.01-9.94-20.88-10.061-31.37-1.19-9.65 8.17-11.33 19.08-6.63 30.36 4.93 11.9 13.88 15.99 27.02 13.27 54.1-11.24 76.71 7.99 75.73 63.37-.19 10.55 7.67 15.89 15.86 20.05 6.77 3.43 14.18 5.62 20.77-.59 8.56-8.09 9.37-19.25 4.51-27.96-9.51-17.05-1.76-32.31 2.53-47.55 3.99-14.13 17.24-13.51 29.56-14.32"/></g></g></svg>