<?xml version='1.0' encoding='utf-8'?>
<svg xmlns="http://www.w3.org/2000/svg" height="377.94666" viewBox="0 0 559.37335 377.94666" width="559.37335"><clipPath id="a"><path d="m1756.67 1685.12h683v562.83h-683z"/></clipPath><clipPath id="b"><path d="m1090.14 243.359h2616.27v2237.231h-2616.27z"/></clipPath><clipPath id="c"><path d="m2584.82 1707.64h1192.83v828.35h-1192.83z"/></clipPath><clipPath id="d"><path d="m2060.07 882.98h905.35v736.45h-905.35z"/></clipPath><g transform="matrix(.13333333 0 0 -.13333333 0 377.94667)"><g clip-path="url(#a)"><path d="m2344.46 2057.51c.01 14.65 2.4 30.61-1.9 44.88-1.26 4.21-5.25 17.71-9.03 20.66-10.01 7.81-49.66-16.79-57.83-21.37-12.68-7.1-24.51-15.98-37.86-22.03-14.54-6.59-30.09-10.11-44.54-17.06-22.67-10.93-40.4-14.26-66.15-13.13-14.11.63-60.63 18.76-43.5 37.79 4.78 1.16 9.35 2.84 13.7 5.05 5.48 3.7 11.36 6.7 17.63 9.03 14.26 4.3 27.33 6.52 41.27 12.49 8.52 3.63 15.97 7.67 23.92 12.27 8.1 4.67 22.54 9.06 27.53 17.1 3.04 4.87 3.38 13.46 1.84 18.8-1.71 3.55-3.69 6.96-5.98 10.23-2.26 5.06-4.3 10.2-6.14 15.41-8.48 8.69-14.29 4.41-23.2-1.77-15.16-10.5-32.45-19.1-48.73-27.87-18.04-9.71-35.91-16.75-54.63-24.77-12.95-5.55-21.67-11.52-36.13-13.12-11.01-1.21-21.81-2-32.88-1.85-11.02.14-18.17 3.5-28.04 5.52-11.12 2.28-25.52 2.65-30.12-10.41-2.78-7.93 4.74-24.4-.53-30.75-3.84-4.65-16.44-7.93-22.09-9.46-10.31-2.79-20.72-2.16-31.16-4.28-7.22-1.47-13.64-4.39-20.6-6.14-12.38-3.11-27.84-5.19-40.61-5.45-5.05-24.3 15.5-52.43 21.1-75.35 12.91-52.81 12.2-108.21 23.28-161.49 4.89-23.52 10.88-46.51 17.01-69.75 4.2-15.9 5.54-41.26 19.3-53.28 14.2-12.41 31.6 4.74 45.02 12.27 16.89 9.48 29.75 9.66 49.03 9.56 24.6-.11 49.35 1.12 73.85 2.45 16.05.87 29.43 12.26 45.18 6.56 3.25-4.9 7.94-8.03 14.07-9.4 6.29-1.71 12.71-2.65 19.25-2.81 27.54-.67 57.81 7.43 83.93 15.09 19.17 5.62 35.77 10.61 55.7 13.32 13.54 1.84 41.04 1.98 53 10.73 10.99 8.03 16.78 34.18 18.76 46.52 2.49 15.53 1.69 38.53-6.44 52.57-6.31 10.93-15.63 14.71-27.71 19.32-21.81 8.34-31.88 17.22-46.42 34.21-13.16 15.37-19.15 28.56-26.91 46.5-6.88 15.87-15.8 32.17-9.52 49.89 5.11 14.47 23.86 28.5 38.06 34.36 11.36 4.67 23.23 8.02 35.3 10.29 7.44 1.39 16.7 8.91 23.73 8.67" fill="#f68a63"/></g><g clip-path="url(#b)"><g clip-path="url(#c)"><path d="m3706.11 2307.81c-19.71 8.76-48.54 13.97-68.06 19.69-61.97 18.16-124.43 32.54-187.41 46.41-25.48 5.61-51.24 10.47-76.47 17.2-5.24 1.4-15.44 6.52-21.35 6.71-11.04.36-20.53-10.37-26.68-18.07-15.62-19.57-21.98-32.14-46.98-40.47-22.9-7.64-54.36-16.21-78.71-11.16-16.21 3.36-32.51 15.53-45.32 25.62-11.25 8.87-20.99 19.32-31.87 28.56-13.53 11.52-27.6 20.39-38.4 35.04-6.63 8.98-9.84 18.4-18.92 24.42-6.24 4.26-13.3 5.99-21.19 5.17-21.26 1.03-42.52 1.95-63.79 2.79-25.8 1.14-51.59 1.66-77.4 2.68-26.49 1.03-51.55 5.78-77.7 8.91-14.36 1.72-28.94 1.3-42.92 5.46-6.26 1.86-12.38 5.65-18.79 7.27-14.62-51.45-27.36-103.58-40.44-155.43-11.36-43.85-21.93-87.89-31.75-132.13-9.39-54.12-16.5-108.57-21.33-163.34-6.54-57.99-14.52-117.52-14.57-176.09 1.54.49 3.1.59 4.7.3 14.66-6.95 38.69-6.62 53.5-7.94 1.98-.18 3.97-.39 5.95-.57 8.68 41 20.63 81.94 30.12 122.48 1.75 7.45 15.95 40.55.57 42.51 31.95-8.48 63.9-14.29 95.4-24.83 30.15-10.09 63.41-18.95 95.47-19.32 6.05-.08 24.22 4.09 28.9-1.59 2.23-4.99 2.46-10.26.71-15.8-2.6-29.01-9.85-57.56-12.29-86.67-1.28-15.16-.42-30.27-1.04-45.33 43.97-7.14 87.75-15.56 131.19-25.94 41.55-11.66 83.66-20.47 126.36-26.41 3.65-.58 7.36-1.29 11.04-1.92 5.96 33.71 16.29 67.54 21.68 100.92 4.54 28.06 7.52 56 13.77 83.48 39.2-19.44 82.92-31.21 124.05-45.43-12.54 4.33 60.44-17.44 64.61-22.38 8.74-10.37 1.63-33.49.64-45.33-1.4-31.39-3.05-62.76-4.94-94.12 14.58-2.3 28.94-5.23 43.91-6.43 8.53.26 16.94-.54 25.27-2.38 5.4-1.06 24.97-10.01 30.24-8.66 6.64 1.7 3.56-1.02 8.94 7.43 2.53 8.11 5.06 16.23 7.59 24.33 9.99 42.5 19.34 85.15 28.04 127.94 11.36 52.24 23.79 104.2 37.3 155.89 14.74 55.17 34.02 107.67 52.03 161.67 8.61 25.79 14.59 51.65 20.46 78.18 2.35 10.6 7.47 25.17 5.88 36.68m-658.63-69.19c-10.29-53.88-39.64-104.42-46.95-158.83-41.4 3.27-81.57 15.62-122.68 22.09-16.59 2.61-33.57 5.06-50.1 7.79-5.19.85-10.8.7-13.75 5.62l-8.47-5.76c.93 42.69 26.45 80.45 33.18 121.95 2.77 17.18 8.49 45.44 2.71 62.9 1.54-3.78 4.94-5.1 10.19-3.96 26.55-6.01 53.97-8.33 80.49-14.78 32.86-8 65.8-20.49 100.1-19.57 15.73.43 19.01 2.04 15.28-17.45m490.1-47.08c-1.24-16.98-4.36-33.62-9.35-49.91-7.51-26.69-14.78-53.43-21.84-80.25-3.52-14.14-19.1-55.35-12.21-72.15-9.74 4.69-20.05 7.62-30.95 8.77-26 4.1-51.51 10.38-76.49 18.82-32.22 10.2-61.27 20.34-95.23 20.81l-8.47-2.88c14 66.81 34.09 132.32 49.81 198.74 1.2 5.06 1.7 15.43 6.67 18.32 9.29.59 18.42-.47 27.38-3.2 12.79-2.88 25.66-5.27 38.63-7.16 27.72-5.07 55.9-10.91 82.22-21.34 10.89-5.49 22.18-9.91 33.88-13.24 9.79-.49 15.11-5.6 15.95-15.33m-777.26 283.29c1.3-.09 2.56-.47 3.83-.79.63 2.18 1.2 4.37 1.83 6.55z" fill="#70cc8c"/></g></g><g clip-path="url(#d)"><path d="m2894.15 1077.74c.49 7.65-5.98 14.3-6.71 22.19-1.08 11.82.4 21.43-3.08 33.52-2.48 7.28-5.14 14.49-7.99 21.63-4.63 21.78-7.95 43.78-9.98 66-13.81 113.23-13.33 226.48-17.09 340.2-8.87 6.4-16.88-.11-25.41-2.49-18.41-2.44-36.92-3.58-55.52-3.44-27.74-2.21-55.46-4.42-83.18-6.62-85.84-8.52-171.72-16.48-257.66-23.86-80.58-6.93-160.53-16.56-240.9-24.73-12.61-2.53-25.2-2.83-37.81-.93-6.38 1.51-12.68 4.23-17.52 8.81 13.98-85.71 20.99-172.12 29.86-258.5 7.28-71.18 15.14-142.3 23.57-213.35-.11-4.75.02-9.44.3-14.11 25.11-8.27 53.05-7.6 79.02-10.47 44.68-4.94 85.33-7.61 130.37-2.86 12.62 7.99 23.01 7.9 31.15-.28-17.43-20.38-23.84-97.43-40.83-118.04-5.24-6.34 134.91 25.488 219.29 15.211 29.49-3.121 17.97 21.649 46.85 15.039 2.33-.039 37.56 3.949 39.89 3.91-17.13 20.649-11.43 9.328-31.05 26.93-25.87 23.219-41.36 59.85-56.57 90.6 4.37 7.5 31.03 8.38 38.36 10.25 12.63 3.2 24.1 8.02 37.34 8.42 71.62 2.12 144.41 4.67 215.3 16.97m-56.8 71.99c-19.88-6.1-40.68-9.76-61.12-13.24-57.07-9.75-114.64-17.54-172.12-24.19-99.73-11.57-199.71-20.97-299.15-35.02-26.76-3.17-53.26-7.74-79.53-13.7-5.24-.35-9.85-2.04-13.84-5.1-.91 2.18-3.11 14.8-3.88 18.73l-15.99 111.48c-6.39 67.29-7.47 135.01-5.46 202.55.51 17.13.95 34.32 2.11 51.43.62 9.33 2.22 18.45 10.57 23.73 9.02 5.72 21.27 5.79 31.38 7.73 16.77 3.22 31.75 5.98 48.88 6.47 50.73 1.45 101.91 5.55 152.34 11.45 35.34 4.13 70.3 6.4 105.85 6.86 18.13.23 39.21-1.3 56.91 4.76.79 3.15 3.16 4.04 7.11 2.65 11.96-.36 23.92-.73 35.88-1.08 17.46-.58 34.92-1.07 52.38-1.88 30.28-1.42 60.59-3.74 90.49-9.07 8.95-1.59 23.24-1.24 27.15-11.14 5.26-13.29 6.02-31.09 7.84-45.25 3.58-27.98 1.06-55.79 2.63-83.88 2.91-51.97 10.19-104.13 14.56-156.03 1.46-17.24 3.01-31.72 5.01-48.26m-488.38-229.628c-1.8.039-3.61.097-5.42.148 1.79-.5 3.61-.461 5.42-.148m-163.52 97.158c-.14 1.6-.33 3.19-.42 4.8-.42.13-.85.23-1.27.37z" fill="#d7e60e"/></g><path d="m1941.25 1086.67c62.99 29.14 127.12 55.8 192.2 79.92 4.87 1.81 10.22 4.01 12.47 8.7 1.36 2.86 1.32 6.15 1.19 9.3-.79 20.04-3.65 40-8.52 59.45 3.16-12.59-125.65-58.97-139.42-63.44-14.86-4.84-55.63-8.23-63.51-21.92-8.32-14.47 3.93-55.76 5.59-72.01" fill="#6dcdbc"/><path d="m1483.45 942.809c-118.74-44.329-241.29-60.059-356.91-111.981-7.58-3.398-24.12-10.668-30.43-30.898-1.19-3.84 5.58-14.258 8.24-17.301 20-22.891 62.76-46.43 85.3-66.828 21.06-19.063 37.95-42.192 55.6-64.449 60.39-76.161 131.44-143.872 210.44-200.524 7.77-22.348 34.11-37.738 54.24-50.187 31.57-19.539 51.54-53.2 79.93-77.121 11.92-10.051 25.22-18.29 38.47-26.508 21.93-13.582 43.87-27.16 65.8-40.75 23.15 5.277 45.07 10.136 67.06 19.109 230.42 94.078 454.14 203.68 677.27 313.969 81.54 40.301 164 81.058 252.71 101.14 58.27 13.192 106.29 56.239 161.75 78.469 23.22 9.301 47.39 18.43 65.33 35.879-57.22 38.91-113.01 79.043-170.23 117.953-39.54 26.891-99.44 73.489-136.96 103.129 8.36-38.98 73.4-78.699 90.81-114.57.86-1.801 1.68-3.801 1.2-5.731-.76-2.968-4.1-4.359-7.01-5.308-7.8-2.52-15.6-5.051-23.4-7.582 44.5-34.469 90.87-66.539 138.8-96.039-48.43-34.692-103.67-58.641-159.39-79.731-31.48-11.918-63.38-23.051-93.42-38.25-24.64-12.469-47.83-27.578-72.15-40.64-26.58-14.289-54.39-26.11-82.16-37.887-60.52-25.703-121.05-51.402-181.58-77.094-80.86-34.328-162.94-63.637-243.24-99.25-42.32-18.769-84.86-37.617-129.62-49.406-37.96-10.012-77.07-14.832-116.07-19.363-8.32-.969-16.74-1.918-25.05-.84-29.32 3.84-49.09 30.98-65.25 55.75-25.59 39.23-73.32 61.519-107.11 93.953-16.53 15.867-31.96 32.84-48.57 48.609-68.95 65.438-138.58 124.75-205.76 194.867-9.52 9.942-12.34 26.622-6.71 39.153 4.49 10.019 14.91 15.777 24.7 20.738 43.91 22.242 88.78 42.602 134.43 61.012 14.65 5.91 29.19 10.25 43.97 15.82 2.58.969 5.23 1.988 7.21 3.91 4.94 4.77 3.82 12.828 2.33 19.547-2.93 13.242-1.63 21.981-4.57 35.231" fill="#6dcdbc"/><path d="m1476.83 1070.82c147.27 23.79 290.62 73.28 439.57 81.58 4.58-103.28 9.17-206.548 13.75-309.83-17.87 12.328-35.74 24.668-53.61 36.989-5.11 3.531-10.34 7.113-16.33 8.75-6.44 1.769-13.27 1.14-19.93.5-73.48-7.137-146.86-15.457-220.08-24.93-18.63-2.41-37.25-4.891-55.86-7.457-10.19-1.402-40.85-11.172-49.32-5.461-8.82 5.961-10.85 34.559-13.13 44.32-4.16 17.84-7.84 35.778-11.03 53.797-7.12 40.25-11.82 80.932-14.03 121.742" fill="#70cc8c"/><path d="m1711.41 558.238c-14.75 50.922-22.36 103.641-22.58 156.383 47.61 3.91 93.67 17.277 140.71 25.117 31.54 5.25 63.5 8.032 95.4 10.793 73.42 6.36 146.85 12.699 220.27 19.059 4.74-30.559 9-61.192 12.77-91.871.63-5.098.78-11.231-3.69-14.207-1.81-1.203-4.07-1.633-6.24-2.024-42.26-7.597-84.75-14.207-127.59-18.129-70.08-6.41-141.16-5.64-210.15-18.839-10.35-1.981-20.76-4.309-30.11-8.891-16.83-8.25-28.73-22.938-40.05-37.18-7.46-9.371-19.3-14.84-29.28-21.89-.64-.45-1.36-.918-2.16-.829-.79.09 2.08 2.051 2.7 2.508" fill="#6dcdbc"/><g fill="#231f20"><path d="m1937.02 1085.96s149.46 56.6 201.93 75.11c3.8 1.33 8.6 2.03 7.77 7.3-3.49 22.2-7.37 44.34-11.21 67.08-66.9-26.84-200.37-81.34-200.37-81.34zm748.59-159.73c-33.6 31.219-52.99 58.532-76.34 94.71-7.74 11.98-9.76 23.27-26.93 20.82-17.16-2.44-103.91-11.84-148.42-18.03-9.12-1.27-18.57-.75-23.6-13.04-14.31-35.069-28.31-70.202-37.1-107.202-1.79-7.566-2.83-13.316 3.49-13.238 24.65.281 53.61 2.699 78.06 5.16 47.09 4.731 94.08 10.899 140.9 17.871 28.87 4.297 58.56 3.141 89.94 12.949zm-1013.09 915.17s-40.3 34.92-60.38 32.58c-89.38-10.39-441.69-59.92-528.22-75.68-98.26-17.9-196.619-35.3-293.377-60.25-14.598-3.76-31.719-1.92-45.152-14.56 14.156-14.78 29.984-23.19 49.398-20.15 27.852 4.36 55.606 9.65 83.133 15.76 89.086 19.77 178.868 35.22 269.068 49.16 72.06 11.14 144.27 20.59 216.5 30.39 77.32 10.5 309.03 42.75 309.03 42.75zm51.29-695.29c63.21 9.89 124.57 19.35 185.86 29.23 9.94 1.61 20.21 6.68 22.09-8.87 35.89 14.28 70.7 28.14 108.18 43.06-28.39 18.65-52.83 38.5-80.38 52-58.32 28.57-118.19 54-177.61 80.33-14.53 6.44-29.51 12.17-44.74 16.69-11.67 3.46-22.27-.88-21.81-14.48 2.23-65.55 5.47-131.07 8.41-197.96zm-940.923-29.4c0 18.49.375 36.99-.067 55.47-2.277 95.71 8.434 191.17 4.68 286.98-2.703 69.01-10.902 137.44-16.012 206.17-1.648 22.18-13.722 29.58-32.441 38.33-5.973-73.12-13.406-143.96-17.133-215-4.519-86.32-5.176-172.85-8.867-259.22-3.621-84.7-7.621-169.42-13.926-253.94-6-80.5-3.555-160.969-4.301-241.469-.246-26.531 1.567-48.902 19.16-68.062 17.59-19.16 31.454-35.899 47.875-55.27 1.407 20.922.879 291.289 13.083 409.411 1.742 16.84 4.703 58.5 4.703 58.5s-38.27 58.47-52.157 80.41c-4.617 7.29-7.738 17.9.739 22.48 13.332 7.81 44.675-54.87 54.664-64.79zm1355.713 356.72c-5.67-1.09-8.12-3.66-7.79-9.75 1.56-28.12 2.33-56.3 4.23-84.39 8-118.22 44.34-341.57 45.86-353.7 1.5-12.12 6.22-16.15 18.13-16.28 74.54 3.96 151.37 15.57 225.43 24.55 65.02 7.87 130.12 15.13 195.29 21.69 85.23 8.56 169.47 23.67 253.94 37.28 9.55 1.55 13.98 5.38 11.5 16.19-18.04 78.45-26.15 158.56-37.55 238.06-8.12 56.62-9.14 114.24-16.61 170.99-1.69 12.95 5.49 41.26-21.89 37.82-88.01-11.06-376.43-45.07-432.62-51.24-58.63-6.45-217.27-27.26-237.92-31.22zm-1343.284-403.18s-24.793-312.41-12.019-463.77c155.668 11.11 314.103 13.43 475.163 21.231-19.99 25.301-43.41 40.777-64.89 58.391-5.08 4.168-10.63 10.617-16.19 10.847-25.71 1.102-48.43 10.121-69.03 24.27-98.88 68-173.139 159.902-244.643 254.25-21.672 28.591-68.391 94.781-68.391 94.781zm678.284 13.3c16.56-66.05 18.82-136.448 29.02-205.8 5.03-34.25 16.41-32.531 39.93-30.301 21.5 2.039 189.93 27.711 277.77 42.313 28.34 4.699 43.41 6.5 64.22-13.114 11.43-10.769 41.39-31.82 48.41-31.418 7.02.391-1.92 53.848-2.63 73.692-2.77 78.027-5.05 156.058-7.24 234.098-.24 8.73-2.76 12.06-12.04 10.91-36.47-4.49-69.22-13.13-107.82-17.82-38.61-4.7-276.28-49.82-329.62-62.56zm1199.35-175.331c31.2-22.16 78.51-53.528 117.55-77.399 6.28-3.84 16.12-6.59 13.82-15.742-2.45-9.707-10.16-15.988-20.62-19.469-25.66-8.558-234.89-96.668-312.81-134.039-116.4-55.808-234.26-107.961-354.16-155.769-56.18-22.403-110.92-48.461-166.08-73.41-48.44-21.911-193.92-76.629-213.52-81.02-14.94-3.359-28.8-8.109-41.35 1.668-22.33 17.359-96.44 94.039-141.09 137.699-59.44 58.133-116.94 118.211-175.69 177.043-36.25 36.289-95.6 89.399-108.34 105.719s-7.6 29.512 12.04 36.621c30.2 10.918 203.77 91.899 203.77 91.899s-3.98 33.179-6.33 48.21c-108.64-41.671-307.66-126.16-360.17-149.75-8.74-3.929-10.25-9.14-5.59-13.949 26.42-27.32 124.41-122.48 171.74-164.742 11.57-10.32 27.59-29.43 53.38-53.57 45.03-42.137 110.95-99.688 171.16-152.86 70.89-62.589 141.64-117.597 171.63-142.609 9.02-7.531 24.27-8.539 37.21-4.078 36.81 12.707 103.04 43.316 126.03 53.359 66.49 29.039 324.24 136.438 385.13 164.34 76.95 35.238 151.69 75.219 228.22 111.418 74.27 35.152 149.12 69.133 224.08 102.852 62.94 28.32 127.59 53.257 188 87.179 13.86 7.789 53.19 23.821 53.19 23.821s-24.45 16.05-37.21 26.05c-25.03 19.598-57.58 40.848-83.65 60.09-58.63 43.289-191.46 140.479-191.46 140.479s15.69-29.02 21.62-37.32c21.55-30.131 55.87-60.881 62.79-67.44 8.84-8.371 10.68-17.32 1.87-18.609-8.83-1.282-16.65-5.063-25.16-6.672zm-1391.52-129.848c10.16-12.781 73.48-70.391 109.84-105.973 53.74-52.558 105.99-106.578 157.78-161.097 23.45-24.692 54.32-52.172 81.61-78.731 18.5-18.011 38.07-35.832 55.35-51.16 19.37-17.191 27.05-25.441 49.77-18.148 22.72 7.308 124.5 43.269 180.17 66.297 100.63 41.64 199.47 87.589 300.89 127.5 41.02 16.14 481.35 222.921 554.68 254.242 11.7 4.988 12.63 8.711.83 14.219-29.82 17.589-119.25 80.679-119.25 80.679s-65.43-6.84-134.54-14.558c-54.56-6.102-109.71-13.653-148.51-12.571-12.74.36-15.55 3.989-11.71 15.711 11.65 35.559 23.04 71.219 33.87 107.039 1.82 6.03 8.15 18.96-7.57 15.24-68.4-7.28-134.44-14.4-201.64-21.619-6.42-.691-9.38 3.668-10.28 9.399-3.57 22.8-17.92 120.81-23.74 149.27-67-25.14-132.16-49.68-197.41-73.98-8.6-3.2-16.84-4.61-15.53-17.57 7.63-75.58 12.73-212.619 13.91-227.349 1.18-14.731-15.45-13.711-27.2-5.891-24.16 16.078-35.41 27.739-59.57 43.84-6.13 4.078-11.2 8.309-20.38 6.781-34.5-5.742-69.26-9.953-103.93-14.621-49.63-6.691-208.67-30.89-221.7-32.281-13.02-1.398-19.65 4.633-20.94 10.512-2.45 11.097-4.98 27.41-7.72 42.558-69.53-30.75-198.02-86.308-203.65-89.871-5.62-3.558-13.61-5.097-3.43-17.867zm197.12 189.949c-4.93 33.39-9.12 68.95-15.81 104.04-3.33 17.46-1.96 24.12 18.48 27.22 62.31 9.45 194.5 39.61 206.19 40.9 11.68 1.28 21.18 3.08 17.77 45.88-8.23 103.29-7.56 206.9-11.25 310.36-2.49 69.71-3.43 139.49-4.51 209.25-.61 40.13-.11 80.27-.11 121.82-7.59-.36-13.13-.17-18.52-.97-73.67-10.95-147.22-22.73-220.99-32.9-73.06-10.07-146.43-17.81-219.49-27.87-141.67-19.5-281.564-49.03-422.072-75.16-22.09-4.11-23.058-15.02-20.957-32.39 5.496-45.5 13.715-91.04 14.313-136.65.879-67.5 6.047-134.95 1.254-202.67-4.578-64.71-3.18-129.81-7.282-194.57-.554-8.79 1.247-24.49 1.247-24.49s48.89-71.37 59.921-86.02c65.161-86.491 131.586-171.772 214.626-242.491 26.82-22.839 53.89-44.769 92.01-54.75-16.88 23.59-42.83 39.77-55.74 56.84-12.91 17.071-13.8 12.66-13.43 22.59.11 2.902 4.21 6.742 7.39 8.262 26.97 12.918 53.87 26.09 81.34 37.89 48.14 20.7 246.29 95.879 295.62 125.879zm1145.58 75.61c15.83-16.01 42.21-34.4 71.18-55.078 81.18-57.961 189.59-130.872 232.57-164.532 13.12-10.281 10.86-17.808 10.93-18.55.19-2.25-2.78-6.329-5.09-7.04-37.39-11.339-70.6-31.949-106.07-47.511-87.56-38.391-443.82-200.008-532.59-246.231-72.45-37.726-148.58-67.328-223.94-98.66-69.84-29.027-138.62-60.609-208.21-90.238-53.36-22.731-105.74-49.578-159.56-69.418-4.87-2.981-10.7-5.652-16.67-.684-80.61 67.102-164.22 130.711-239.92 203.551-24.58 23.66-47.36 49.18-78.13 72.242 0-30.812.09-61.621-.02-92.422-.18-50.91-1.35-101.82-1.65-152.699-.16-27.832 18.66-37.48 31.07-54.121 4.6-6.168 16.52-11.617 7.76-19.961-8-7.617-13.99 1.633-19.7 8.281-10.35 12.051-21.69 23.289-33.07 34.411-5.62 5.48-7.93 11.71-7.61 19.21 3.83 89.09 8.97 271.809 8.97 271.809l-78.97 74.41s-32.79-2.258-50.85-2.949c-41.84-1.629-80.87-5.738-125.06-8.211-8.3.441-12.84-2.359-13.59-12.918-3.64-50.82-.11-99.742.57-148.93.52-37.589 3.36-170.57 3.66-198.793.22-20.757 9.71-35.507 24.73-47.968 6.63-5.508 15.06-11.821 6.31-20.25-8.29-7.989-26.07 13.492-31.7 16.898-14.02 12.82-14.53 56.383-15.65 82.422-3.55 82.809-4.24 165.762-5.35 248.672-.29 21.5 1.71 43.027 3.08 64.527.84 13.121-1.02 21.031-17.93 19.563-93.208-8.133-187.107-4.871-280.138-16.453-19.629-2.438-24.484 15.812-34.062 26.023-19.313 20.566-36.063 43.52-54.606 64.848-7.32 8.422-6.597 18.07-6.324 27.199 2.961 99.621-.141 199.211 8.133 298.951 9.566 115.35 11.344 231.43 14.176 347.24 2.73 111.52 10.625 222.56 22.25 333.43.82 7.85.14 15.89-.254 23.83-1.981 39.46 30.769 39.96 54.66 44.37 65.086 11.99 128.277 31.92 193.765 42.29 99.45 15.76 198.23 35.76 297.68 51.55 65.2 10.35 298.85 39.5 350.33 45.55 24.21 2.84 58.64-29.29 73.17-44.29 14.53-14.99 14.09-27.15 14.45-50.62 1.54-100.77 3.77-201.52 5.8-302.28.66-32.69 1.83-65.39 1.99-98.09.04-9.44 4.16-12.84 12.25-15.98 47.79-18.48 128.88-54.13 193.99-84.97 65.12-30.85 136.45-73.97 136.45-73.97l76.35 27.83s-18.91 157.28-16.34 216.67c.58 13.19 2.77 16.74 17 19.53 56.8 11.16 114.6 13.11 171.75 20.97 71.27 9.81 325.95 43.31 382.6 47.99 43.64 3.6 87.09 9.81 130.56 15.35 11.7 1.49 16.22-2.17 17.61-14.19 12.8-110 25.65-220 39.58-329.87 5.33-42.07 11.04-84.23 24.03-124.96 3.96-12.42-.75-18.22-14.89-20.2-63.42-8.87-126.61-19.33-189.96-28.67-22.25-3.28-44.74-5-71.5-7.91"/><path d="m3689.12 2284.66c-23.61-65.42-33.1-134.53-53.13-200.72-10.17-33.59-18.74-67.5-28.07-101.25-2.17-7.84-5.19-11.49-14.25-9.43-21.35 4.85-42.92 8.73-64.4 13.01-7.83 1.55-4.92 5.37-3.51 10.53 10.83 39.27 36.44 170.15 40.48 184.71 4.04 14.54-3.96 19.35-7.15 20.38-51.89 16.68-119.25 35.46-172.27 47.92-21.96 5.17-42.72 3.6-63.56-2.63-21.87-6.53-23.65-26.46-26.76-44.24-10.28-58.77-22.2-117.31-26.81-177.98-38.57 4.86-75.96 9.5-113.31 14.37-4.41.57-6.9 3.37-6.01 8.51 12.38 71.1 24.79 142.18 36.93 213.31 2.74 15.99 16.43 42.35 16.43 42.35s22.49-4.13 36.77-2.1c44.02 6.28 60.26 26.37 76.08 60.95 10.86 23.72 29.15 17.15 45.89 13.73 79.68-16.27 159.11-33.69 238.72-50.29 22.62-4.72 45.39-9.41 68.33-11.63 20.61-1.98 25.7-12.57 19.6-29.5zm-342.7-65.68c50.51-21.34 106.13-25.45 156.12-48.03 9.74-4.41 15.31-8.89 12.89-20.42-10.21-48.37-20.04-96.81-30.11-145.21-2.02-9.72-9.19-8.61-16.81-8.34-52.28 1.86-172.19 26.97-183.99 28.15.35 67.53 12.83 127.41 27.54 191.38 3.45 14.98 25.3 6.29 34.36 2.47zm206.19-34.45c-15.55-65.81-40.78-191.49-40.78-191.49l-12.91 3.76s6.4 27.26 8.01 36.7c6.49 37.91 23.32 133.48 27.69 138.33 4.38 4.87 10.64 8.67 17.99 12.7zm-67.67 3.94c-52.22 16.74-105.1 31.42-157.53 46.87 5.3 3.4 20.65 8.16 37.71 8.16 17.07 0 141.72-29.2 175.71-49.17-17.48-19.93-35.8-12.29-55.89-5.86zm114.66-240.01c-18.18-81.19-36.62-162.32-54.43-243.58-2.18-9.92-6.37-13.15-15.97-11.94-25.57 3.24-51.17 6.09-76.59 9.08 7.59 44.73 25.55 146.76 29.55 168.25 3.98 21.5 13.29 27.95-9.78 34.23s-127.68 18.09-153.09 22.27c-25.4 4.18-46.08 9.69-76.31 12.3-8.51 2.92-14.3-.75-15.69-11.95-7.16-57.98-21.87-186.03-21.87-186.03s-63.87 9.23-95.09 14.27c-5.29.86-5.26 6.37-4.46 10.95 7.35 42 15.58 83.86 21.83 126.02 5.11 34.56 8.72 69.4 11.37 104.24 1.97 25.89 11.03 35.48 39.2 30.79 82.04-13.66 164.52-24.77 246.93-36.13 55.31-7.62 110.6-14.99 164.91-28.44 8.94-2.21 11.25-6.47 9.49-14.33zm-169.63-241.48c9.2 51.5 33.71 176.52 33.71 176.52h9.07s-24.14-155.97-30.06-178.97c-4.51 1.27-11.68 2.16-12.72 2.45zm-28.37 4.07c-60.82 10.49-121.84 19.82-181.22 29.29-2.17 57.81 11.47 112.29 16.4 167.72 1.02 11.47 4.65 15.49 17.88 15.41 49.95-8.58 101.23-15.74 151.88-23.11 51.48-7.49 51.43-6.89 39.26-58.06-9.49-39.92-18.92-79.87-27.65-119.97-2.22-10.26-5.2-13.24-16.55-11.28zm-307.67 59.06c-.87-8.63-3.52-11.68-12.76-10.27-36.21 5.54-72.45 10.83-108.68 16.26 5.36 8.76 3.97 34.86 5.78 45.1 7.8 44.21 12.84 88.91 20.79 133.09 5.22 28.94-18.79 23.52-30.98 25.66-55.98 9.85-112.39 17.51-168.81 24.57-17.5 2.19-35.56-.27-53.35-.04-14.66.2-19.38-8.72-20.33-21.04-2.91-37.62-4.76-75.33-8.65-112.84-1.8-17.56-7.34-34.72-11.44-53.19-12.27-.78-23.45.8-35.3 5.58 4.63 92.73 23.39 183.64 34.11 276.3 143.15-17.48 283.88-46.83 427.16-67.58-10.16-68.48-20.34-136.55-30.32-204.64-2.77-18.93-5.33-37.92-7.22-56.96zm-307.02 31.91c-36.71 3.76-39.93 7.87-37.16 44.99 3.09 41.6 5.82 83.23 8.1 124.88.82 14.84 4.86 22.07 22.29 22.5 40.36 1.01 78.68-10.63 118.04-15.46 24.39-2.98 48.87-5.26 73.22-8.58 8.21-1.12 14.9-4.64 13.22-15.85-7.47-49.98-25.82-176.36-25.82-176.36s-75.85 11.46-113.8 17.02c-19.29 2.83-38.69 4.88-58.09 6.86zm-51.91 10.7c-13.15-2.29-19.57.91-17.08 13.42 10.19 51.06 13.37 102.96 18.39 154.63.45 4.63 4.72 8.53 12.68 10.2-2.54-61.57-9.9-118.81-13.99-178.25zm84.47 282.23c-15.35 3.55-11.23 14.26-9.69 20.78 12.36 52.45 3.56 108.04 23.87 159.08 1.45 3.63 8.25 7.59 17.68 4.87-10.52-61.02-21.09-122.27-31.86-184.73zm18.17 8.93c2.96 55.25 17.4 108.69 25.09 163.19 1.75 12.39 7.55 16.32 20.37 14.66 54.96-7.11 109.8-14.61 163.65-28.23 7.63-1.93 9.61-6.1 9.22-13.2-8.73-36.42-18.09-72.71-25.94-109.31-4.25-19.81-5.99-40.16-8.73-60.29-.92-6.7-3.99-10.1-11.17-8.89-54.08 9.11-108.14 18.26-162.24 27.13-9.32 1.53-10.71 6.23-10.25 14.94zm-123.25 56.64c11.79 94.59 33.41 187.52 44.34 282.15 1.15 9.96 6.78 12.38 15.06 13.46 35.08 4.53 69.37-3.73 103.27-9.24 57.81-9.39 115.58-18.71 173.78-25.27 8.54-.95 13.02-4.49 15.54-13.43 23.35-83.06 118.83-101.58 118.83-101.58s-23.62-123.5-33.74-179.54c-4.23-23.48-7.46-47.14-11.08-70.73-1.34-8.69-4.97-13.89-15.05-12.31-30.11 4.73-60.27 9.11-90.59 13.66 4.87 55.44 15.14 107.83 29.25 159.58 3.13 11.45 5.52 23.67 5.04 35.4-.7 17.06-17.36 12.97-26.82 14.69-55.51 10.14-111.41 18.1-167.01 27.78-33.17 5.77-56.07-6.47-61.26-38.68-6.47-40-11.01-80.41-14.12-120.81-2.65-34.7-3.4-36.85-36.58-33.94-2.38.21-4.77.47-7.14.83-50.2 7.57-47.86 8.71-41.72 57.98zm484.58 381.8c68.97 1.71 117.01-53 122.05-109.33 5.86-65.61-50.72-126.37-100.76-118.47-70.46 2.8-139.24 43.2-140.38 117.79-.69 46.08 65.97 108.69 119.09 110.01zm464.98-215.29c-.4.1-.78.21-1.17.27-62.78 10.24-125.18 22.29-187.23 36.38-46.85 10.65-94.1 19.5-141.12 29.13 9.2 105.13-53.56 148.08-114.46 161.05-49.44 10.53-133.64-29.91-158.08-120.4-28.07 3.13-55.42 5.38-82.51 9.37-72 10.6-143.33 25.89-216.37 29.08-12.35.54-16.03-3.34-17.46-14.78-4.06-32.42-8.55-64.8-14.03-97-7.39-43.54-17.12-86.72-23.59-130.4-12.39-83.54-23.32-167.3-34.62-251.01-6.62-49.03-13.02-98.1-18.97-147.21-1.08-8.81-2.17-19.71 10.44-22.21 25.21-5 50.39-10.92 75.88-13.61 125.11-13.18 249.17-33.52 373.3-53.41 76.37-12.23 153.43-19.33 229.46-34.65 67.46-13.58 136.01-21.77 204.07-32.41 6.58-1.03 9.9 1.86 10.65 8.1 4.24 35.34 16.11 69.11 22.08 103.97 11.95 69.69 29.62 138.04 44.88 206.96 7.23 32.68 19.81 63.83 27.88 95.97 14.5 57.81 23.57 116.98 43.82 173.38 16.9 47.11 14.74 51.24-32.85 63.43"/><path d="m1925.8 2106.95c-23.64-7.91-92.58-33.27-92.58-33.27s80.37 10.28 88.33 11.03 5.16 5.6 4.25 22.24zm128.58 32.7c1.46-1.94 16.4 4.76 16.4 4.76s78 49.69 104.44 65.27c-8.46-1.52-26.84 0-26.84 0s-22.49-22.39-36.02-30.91c-20.01-12.61-43.33-25.36-57.98-39.12zm83.42 69.24c-4.13-2.82-11.85 4.47-18.09.79-32.5-19.2-82.96-47.2-115.71-74.38 17.96.59 33.64 4.35 33.64 4.35s66.29 46.17 100.16 69.24zm-25.44 6.11s-13.54 12.73-22.33 7.18c-14.79-9.35-39.2-22.97-53.78-32.63-24.08-15.98-56.96-37.8-80.73-54.25 1.24-2.06 21.42-1.14 21.42-1.14zm35.8-159.75c34.43 18.67 68 39.51 105.42 52.41 23.25 8.01 73.35 30.91 73.35 30.91s-40.18 20.69-56.97 14.87c-58.57-20.31-117.21-54.15-169.53-87.15-3.75-2.37 29.14-21.13 47.73-11.04zm43.02 150.82c-29.99-17.2-63.66-45.02-92.85-58.15-25.78-11.6-21.55-20.48-18.54-43.63.86-6.7 1.34-13.46 2.66-20.07 1.98-9.97 5.54-14.08 17.22-8.45 27.46 14.54 73.03 44.87 87.63 51.53 14.59 6.65 15.49 9.93 14.54 15.66-3.34 19.99-6.74 39.97-10.66 63.11zm-103.97-153.86c2.99-37 5.45-74.97 9.28-112.8 4.48-44.32 9.68-88.58 15.44-132.75 5.09-38.98 19.37-94.29 23.78-108.8 4.42-14.52 24.16-13.99 36.58-14.52 16.64 3.41 12.38 12.05 11.29 18.6-3.6 21.59-10.76 42.5-14.85 63.76-13.78 71.56-26.79 143.35-32.28 216.18-2.5 32.89-2.86 66.65-49.24 70.33zm287.83-192.89c23.03 4.26 52.68 11.45 74.46 38.1 29.96 36.68 24.71 92.44-12.81 119.82-43.5 31.76-89.78 24.82-134.89 6.22-40.88-16.84-54.19-37.75-50.89-68.78 6.28-58.91 50.6-95.47 124.13-95.36zm-444.96 214.36c-32.45-3.5-65.04-6.82-97.56-10.68-7.49-.89-6.95-6.64-6.09-12.91 15.63-113.71 40.78-225.64 62.87-338.15 8.33-42.45 27.62-43.29 63.35-32.74 15.57 4.59 29.2 18.2 27.21 36.42-5.06 46.28-12.42 92.31-18.9 138.43-10.17 72.49-20.38 144.97-30.88 219.63zm397.65 49.16c-57.29-21.96-115.29-39.89-166.38-73.07-9.86-6.39-23.65-11.22-20.85-28.25 16.15-98.36 44.24-275.37 50.65-294.62 6.42-19.26 6.02-31.07 22.77-26.43 49.74 13.77 91.01 30.42 139.82 47.48 6.15 2.15 12.9 4.69 11.14 14.26-3.59 19.58-14.68 77.33-14.68 77.33s-52.09 8.58-83.02 42.39c-35.34 38.64-42.7 92.16-13.33 126.98 17.1 20.28 41.21 29.09 65.94 36.51 6.57 1.96 19.24 6.79 19.24 6.79s-4.2 49.15-11.3 70.63zm-387.02-1.85c4.66-42.83 9.01-88.47 15.93-134.06 14.39-94.63 25.69-189.74 38.25-284.64 1.2-9.04 4.5-15.29 15.03-16.91 35.46-5.48 69.7.9 103.82 9.31 8.06 1.98 6.09 7.28 4.68 13.17-6.24 25.96-14.05 51.76-17.67 78.12-14.56 106.26-25.37 212.92-30.42 320.13-.47 9.81.57 22.27-18.98 22.44-44.41-5.71-71.3-9.24-110.64-7.56zm274.46 21.15c20.63 7.29 34.4 11.14 53.44 18.91 10.85 4.43 20.8-.05 38.37-4.16 17.56-4.12 25.69-4.55 29.26-11.07 3.58-6.52 13.07-81.23 14.5-92.51 35.1 2.72 66.36-4.3 95.34-24.45 41.46-28.83 50.57-88.27 21.5-130.43-38.55-56.79-103.23-59.55-103.23-59.55s6.19-32.26 7.91-44.5c1.66-11.82 6.88-27.69 7.24-34.87 1.11-22.1-10.62-19.55-44.2-31.2-51.01-17.69-102.14-34.68-152.25-54.99-8.56-3.46-32.21-5.13-42.92-2.62-14.55 3.42-15.29 12.13-15.29 12.13s-41.26-12.44-69.76-14.22c-35.59-2.22-60.62 6.71-68.37 14.22-34.51-26.51-75.54-23.32-89.05-20.16-13.51 3.15-15.27 14.62-17.16 23.04-27.16 120.97-46.21 233.85-66.64 356.08-5.14 30.78.12 36.94 42.25 52.39 15.7 5.76 24.02 11.32 46.89 22.34s71.28 44.28 107.26 68.08c25.9 17.13 52.27 33.54 78.43 50.29 3.48 2.24 7.09 4.26 11.05 1.49 27.86-19.56 58.52-10.88 88.25-8.01 14.22 1.37 18.71-3.17 18.81-16.61.17-22.98 2.39-45.81 8.37-69.62"/><path d="m1399.48 1352.93c5.05-22-7.05-23.59-26.63-25.49-51.43-4.99-102.32-15.42-153.72-20.85-60.97-6.44-122.21-10.58-183.41-14.46-37.622-2.38-37.728-1.33-39.818 37.56-.265 5.09-1.097 11.19 6.478 11.74 6.92.5 8.42-4.38 8.85-10.17 1.18-15.92 6.33-22.75 25.76-22.2 113.29 3.2 225.31 16.83 336.85 35.82 9.44 1.62 11.36 6.55 10.87 15.02-.41 6.95-4.61 18.4 5.58 18.92 10.4.53 7.97-11.37 8.8-18.88.22-1.97.23-3.97.39-7.01"/><path d="m1013.59 1498.25c-5.67.63-10.29 3.84-9.43 9.7.84 5.83 1.78 13.87 9.86 14.35 7.06.41 10.67-5.32 10.39-11.82-.26-6.17-3.03-11.62-10.82-12.23"/><path d="m1426.31 1548.92c.01-6.76-2.31-12.3-9.57-12.68-5.34-.29-11.58 2.66-10.85 8.52.73 5.78 3.66 12.9 11.15 13.73 6.17.68 9.3-3.42 9.27-9.57"/><path d="m1700.22 541.75c9.83 8.48 17.06 15.738 25.29 21.59 17.49 12.441 28.46 34.199 51.22 38.719 53.45 10.621 286.09 39.839 348.57 46.781 14.63 1.629 22.67 3.66 21.09 20.949-2.58 28.102-3.26 56.391-4.69 84.609-.4 7.864-2.41 14.981-11.95 14.614-14.63-.571-174.29-22.403-239.61-30.821-61.34-7.91-166.64-20.679-184.1-23.242-17.46-2.558-25.7 1.981-23.8-16.359 3.58-34.649 7.95-69.231 11.95-103.84 1.95-16.762 3.82-33.531 6.03-53zm452.22 213.352c.66-15.032 2.2-68.493 5.14-100.84 1.32-14.621-8.02-14.102-15.89-14.633-59.83-6.301-282.97-37.039-324.98-42.731-53.03-7.199-66.05-28.679-108.3-63.988-4.03-4.699-8.77-5.73-13.91-4.262-6.36 1.84-7.51 7.801-8.02 13.411-3.78 41.652-7.3 83.32-11.24 124.953-1.01 10.679-2.46 21.437-5.12 31.797-4.41 17.16-.61 24.211 17.29 26.32 17.89 2.109 150.79 15.23 224.95 25.691 64.47 9.09 128.99 17.762 193.49 26.539 11.36 1.551 22.95 4.762 34.08 3.68 10.73.211 11.87-10.91 12.51-25.937"/><path d="m1999.04 857.988c39.18 2.301 76.04 4.551 112.9 6.551 7.41.402 10.2 3.109 10.32 11.02.37 26.242-5.43 52.281-1.76 78.66 1.2 8.66-6 10.453-12.97 9.851-33.22-2.859-66.45-5.672-99.61-9.211-5.6-.597-15.85.391-15.51-7.73 1.28-29.879 4.3-59.699 6.63-89.141zm-6.64-11.457c-4.46 3.93-5.15 23.571-6 42.821-.85 19.238-4.18 52.578-4.57 63.687-.39 11.102 2.8 13.25 14.42 13.609 44.01 1.372 81.13 4 125.04 7.403 9.98.777 10.3-4.09 9.62-10.199-3.67-32.942-1.12-65.653 2.66-98.364 1.28-11.09-7.86-9.457-13.82-9.968-34.13-2.879-122.89-12.942-127.35-8.989"/><path d="m1586.21 538.91c13.24 2.84 42.09 8.692 55.62 10.871 9.1 1.457-7.99 58-8.94 63.778-.84 5.179-4.12 7.73-8.45 6.863-12.65-2.531-40.13-4.731-46.33-5.063-5.61-.289-8.05-1.961-7.35-7.91 2.33-19.949 5.18-42.66 7.92-63.699.28-2.141 5.33-5.309 7.53-4.84zm-20.94 13.91c-2.33 17.25-3.21 42.719-4.87 56.5-1.65 13.77.95 15.02 12.95 16.078 18.91 1.672 45.7 6.313 53.74 6.961 8.04.661 11.58-1.66 13.35-8.629 1.78-6.96 10.9-41.839 15.61-65.14 2.03-10.051-3.29-17.59-14.25-19.969-20.19-4.383-40.15-10.34-60.55-13.101-10.45-.321-15.33 15.562-15.98 27.3"/><path d="m1407.87 546.059c3.29-5.231 12.72-12.469 20-20.539 7.29-8.071 15.95-12.86 22.55-8.129 6.6 4.738 14.8 8.937 19.31 14.25 4.74 5.578.97 4.097-6.11 12.031-7.08 7.93-14.38 14.109-18.54 17.949-7.15 6.598-7.54 6.051-13.95 3.57-3.67-1.421-16.66-7.453-20.47-10.171-6.05-4.321-4.4-6.399-2.79-8.961zm68.71-20.899c-6.47-8.57-15.15-15.148-25.33-19.851-4.13-1.911-8.25-3.059-12.02-2.457-3.76.609-15.61 13.597-18.61 16.207-8.54 7.472-14.96 13.371-19.17 18.339-12.94 15.313-4.98 21.801 26.35 37.731 3.74 1.891 10.8 2.68 13.39.519 9.89-8.316 26.73-24.418 35.69-33.769 7.13-7.449 1.34-14.547-.3-16.719"/><path d="m2765.08 1318.85c-.57 6.44-1.87 12.9-11.04 12.67-8.3-.21-16.28-4.08-16.45-13.74-.17-9.19 7.79-12.82 15.36-13.56 9.11-.9 12.69 8.18 12.13 14.63zm-62.98-15.67c9.34.46 14.26 5.42 14.15 13.57-.1 7.75-5.61 12.62-13.21 12.35-7.9-.27-15.35-3.37-14.68-13.33.58-8.45 6.26-12.27 13.74-12.59zm23.94-109.61c1.61-16.26 2.99-32.85 4.92-49.37 2.48-21.27 4.35-30.7 4.35-30.7l41.77 3.25s-4.64 35.08-6.87 50.46c-2.22 15.42-3.74 26.76-3.74 26.76s-23.05 4.29-40.43-.4zm61.7-74.62c11.01 2.21 24.81 3.85 36.05 5.25 11.24 1.39 12.62 4.77 11.05 21.19-1.56 16.43-6.97 54.52-6.97 54.52s-35.78-3.26-50.79-4.71c3.52-25.15 6.97-49.86 10.66-76.25zm-61.85 212.45c17.35 12.03 34.16 25.72 49.52-1.78.65-1.16 34.39 8.5 34.39 8.5l-3.57 37.9s-2.09-.02-5.8-.05c-26.07-.23-132.58-1.32-164.03-4.2-2.94-.27-.83-33.62-.83-33.62s5.47-3.8 15.09-7.68c7.76-3.12 23.72-6.95 23.72-6.95s1.47 3.99 3.41 6.04c15.74 16.55 31.05 17.1 48.1 1.84zm1.87-28.72c-14.41-14.1-31.91-21.36-44.73-3.76-3.59 4.92-7.72 11.46-7.72 11.46l-37.2 11.52s6.3-81.98 11.69-121.99c22.1 2.25 42.98 5.3 63.96 6.28 28.22 1.33 56.53.57 84.77 1.73 11.03.45 27.39-3.1 25.03 16.93-3.81 32.56-8.73 65.01-13.34 98.67-12.86-4.73-33.14-9.09-33.14-9.09s-5.4-16.16-19.83-19.77c-7.4-1.86-21.36 1.76-29.49 8.02zm-157.1-28.11c1.59 39.72 3.55 77.44-1.44 115.05-1.82 13.7-10.1 20.31-24.98 19.55-39.46-2-78.89-.55-118.36 1.67-57.63 3.25-115.27 3.95-172.24-8.57-14.84-3.26-21.74-8.76-22.12-26.67-1-48.01 3.81-95.39 8.58-142.93 3.59-35.86 6.22-38.27 42.56-33.37 4.33.58 8.7 1.4 13.06 1.46 85.63.97 171.25 1.72 256.88 2.95 7.48.11 21.09-4.95 19.66 9.39-1.78 17.62-2.06 44.59-2.06 44.59s-57.64 22.99-80.22 31.98c-12.9 5.13-27.66 16.75-20.71 22.41 2.67 2.19 5.95.65 20.46-6.24 23.03-10.93 57.33-23.68 80.93-31.27zm61.92-12.62c-2.15 32.88-7.47 104.23-7.87 107.8-.67 5.86.63 11.02 11.42 11.79 8.69.63 17.4 1.4 26.1 1.58 40.92.82 144 4.33 144 4.33s-8.56 77.2-14.56 110.85c-1.35 7.58-4.95 11.04-13.09 9.97-54.44-7.15-109.05-13.16-163.35-21.3-82.25-12.34-164.51-24.33-247.56-29.87-51.28-3.42-112.07-7.99-163.34-11.58-13.42-.94-16.55-6.25-15.06-24.12 5.18-62.64 11.33-122.43 19.02-184.9 7.54-61.21 13.1-122.66 19.9-187.62 164.96 20.56 329.97 41.12 495.62 61.77-2.1 19.95-9.43 82.38-9.43 82.38s-25.08.37-34.83-1.36c-8.92-1.58-17.98-2.41-27-3.32-15.09-1.51-13.92 5.32-15.38 18.18-1.46 12.85-4.18 40-4.18 40s-27.91 2.69-47.92 8.06c.89-17.23 1.65-34.59 2.75-51.91.59-9.27-2.03-14.18-12.65-13.76-102.82 4.03-205.72 3.96-308.27-3.74-27.48-2.06-34.43 2.73-36.46 29.97-4.4 59.07-15.05 117.68-12.76 177.26.27 7.22-1.78 17.27 7.92 19.11 51.69 9.77 104.04 14.08 156.56 11.79 61.31-2.67 122.54-7.79 183.87-1.31 9.39.99 10.2-5.34 11.89-11.51 9.52-34.86 5.57-70.55 5.39-105.82-.06-12.96.84-33.03.84-33.03s24.92-12.29 48.43-9.69zm-76.08 229.61c76.21 12.94 153.07 22.05 229.63 32.94 9.18 1.3 13.78-2.18 16.09-11.41 16.05-64.5 16.85-130.95 25.38-196.4 5.7-43.83 19.3-155.47 21.15-169.71 1.85-14.23 6.64-29.97-21.35-33.48-110.26-13.86-236.2-33.27-346.39-47.77-82.71-10.87-165.63-20.15-248.42-30.42-12.4-1.54-17.97 1.67-19.23 15.36-10.06 109.51-21.01 218.94-31.22 328.44-2.03 21.8-6.27 57.64-6.77 65.32-.49 7.67-.33 10.18 6.99 11.21 21.65 3.02 271.75 18.54 374.14 35.92"/><path d="m2821.61 1900.56c7.89.94 9.47-9.67 9.46-12.23-.16-23.77 15.83-18.92 29.91-17.25 4.84.58 32.7-3.42 32.7-3.42s-.78 15.3 3.6 15.84c8.57 1.04 9.04-2.28 9.22-2.87 2.38-7.59 1.11-18.04-2.27-24.25-2.76-5.07-8.16-6.37-12.38-3.42-14.25 9.96-29.7 6.45-45.07 5.47-7.79-.5-17.1-8.64-23.04 1.09-6.64 10.87-10.01 40.1-2.13 41.04"/><path d="m3360.63 2119.15c7.48 0 4.49-24.93 4.49-24.93l54.3-12.04s6.69.36 8.51 4.53c1.94 4.46 3.23 11.5 10.03 9.32 5.24-1.68 5.6-8.35 3.6-12.47-2.85-5.85-4.36-16.23-13.3-13.95-22.66 5.78-44.68 13.31-68.83 11.33-7.5-.62-6.26 38.21 1.2 38.21"/><path d="m3317.96 1831.49c3.76-1 2.69-18.67 2.69-18.67s26.96-2.66 37.27-5.74c6.58-1.97 7.23 4.31 8.83 8.78 1.97 5.46 5.95 9.68 11.75 6.79 6.18-3.09 3.17-8.46 1.18-13.49-4.93-12.47-10.22-19.99-26.1-12.29-9.53 4.62-21.81 3.79-32.92 4.86-6.71.65-12.1 2.62-12.4 10.1-.28 7.17-2.01 22.76 9.7 19.66"/><path d="m2997.71 2171.31c9.09-8.14 5.06-15.79.12-22.79-4.97-7.06-9.81-1.46-15.34.47-20.73 7.26-42.29 10.39-64.31 10.65-4.87.06-12.29-2.61-13.98 3.13-2.28 7.71-1.57 16.34-1.69 24.59-.01.9 3.09 2.73 4.59 2.58 4.15-.39 6.37-3.64 6.36-7.46-.01-9.86 5.87-10.71 13.98-11.67 16.51-1.95 33.46-3.71 49.03-9.02 12.08-4.13 12.85 8.77 21.24 9.52"/><path d="m3259.88 2438.27-35.45-3.22v-12.95l30.87-11.59zm-103.87 29.4c-3.31-12.15-3.67-33.26-5.21-45.86-.75-6.17-1.72-11.43 4.51-12.97 13.38-3.3 33.1-11.61 43.21-7.61 14.22 5.61 2.9 26.66 9.37 39.01 13.58 25.88 1.73 21.2-15.04 26.05s-34.74 7.42-36.84 1.38zm72.94-20.12s8.96.9 19.16 2.46c6.62 1.01 16.87.63 19.81-4.67 7.27-13.08 5.28-30.11-3.97-43.33-7.39-19.67-27.09 9.29-44.21 4.51 1.29 1.03.14.06.14.06s-3.63-24.2-19.23-19.56c-15.58 4.63-39.64 7.62-54.41 13.32-14.77 5.71-11.23 12.54-9.04 25.12 1.97 11.31 2.18 23.01 5.63 41.7 3.46 18.68 8.66 16.35 24.43 14.92 17.73-1.62 35.01-5.97 53.02-6.94 21.05-1.13 8.67-27.59 8.67-27.59"/><path d="m2361.11 1935.37c14.2 10.65 27.86 29.54 37.43 28.08 9.57-1.48 6.08-14.29 6.08-14.29s-36.27-41.41-51.16-34.22c-13.76 6.65-29.35 9.84-41.73 19.47-3.92 3.05-6.35 7.03-3.53 11.19 2.91 4.31 8.18 4.65 13.02 2.8 7.59-2.88 15.08-6.04 25.3-10.18-3.23 21.23-5.76 39.65-8.99 57.95-1.04 5.91-2.74 12.27 4.64 13.53 7.44 1.26 9.79-5.43 10.65-11.63 2.77-20 5.31-40.03 8.29-62.7"/><path d="m2090.04 917.648c5.48 0 8.97-28.019-1.13-27.519-10.11.492-31.1-1.27-41.67-2.27-5.14-.488-11.28-4.679-13.63 3.903-1.28 4.679-5.6 9.738-.01 14.168 6.28 4.98 10.09-7.782 10.09-7.782l41.72 3.872s-.85 15.628 4.63 15.628"/><path d="m1593.34 568.219c4.08-1.309 5.23-5.219 5.23-5.219s13.42.051 19.07 1.66c4.04 1.16 2.73 7.02 5.93 7.039 3.2.012 3.52-.258 3.52-7.371 0-7.109-22.32-8.828-31.29-8.59-6.33.172-7.38 14.082-2.46 12.481"/><path d="m2290.81 1298.21c-4.07-17.04-8.3-33.82-11.99-50.74-1.37-6.25-2.77-13.22-10.4-11.55-7.52 1.65-3.97 8.89-3.86 14.24.47 21.75 16.64 39.64 14.6 62.33-.62 6.84 6.49 9.07 13.42 5.29 32.74-17.9 35.72-17.24 48.89 17.37 6.12 16.05 11.72 23.46 30.03 12.67 13.31-7.84 28.72-5.59 42.66 4.37 12.22 8.73 25.97 15.36 39.13 22.74 4.34 2.43 7.93.55 10.01-3.44 2.66-5.13-.5-9.15-4.67-10.59-18.94-6.54-35.4-16.29-51.2-29.08-9.81-7.94-25.36-1.19-37.8 1.47-11.38 2.45-18.28-.22-20.22-11.24-5.2-29.73-21.75-36.49-48.21-25.3-2.44 1.03-5.41.8-10.39 1.46"/><path d="m2690.47 1262.26c.54 4.48-1.36 10.19 5.1 11.95 6.17 1.7 6.64-4.02 9.04-7.38 6.39-8.95 15.88-5.17 24.27-5.39 11.08-.3 22.18.12 33.27-.15 3.88-.09 7.17-2.4 6.88-6.7-.11-1.69-2.67-4.59-4.17-4.63-21.38-.51-42.77-.83-64.17-.72-8.1.05-10.88 5.47-10.22 13.02"/><path d="m2842.74 1938.32c-.4-6.71-4.15-10.06-9.88-10.36-5.86-.31-9.99 3.04-10.55 9.04-.62 6.59 3.94 9.11 9.62 9.64 6.24.57 9.34-3.19 10.81-8.32"/><path d="m2907.5 1936.46c5.03-.8 8.05-4.18 8.21-9.57.18-5.67-3.08-9-8.72-9.1-5.52-.09-8.96 3.14-9.66 8.56-.61 4.85 4.77 10.19 10.17 10.11"/><path d="m3397.33 2152.04c-1-5.07-4.31-8.47-10.35-8.23-5.12.2-10.86 6.74-9.8 11.32 1.25 5.43 4.79 9.08 10.68 9.14 5.21.04 9.92-5.97 9.47-12.23"/><path d="m3440.4 2128.18c-6.17.58-8.25 4.86-8.52 9.9-.27 5.54 2.99 9.03 8.46 9.81 5.18.74 10.43-4.24 10.03-9.48-.47-6.07-4.61-8.88-9.97-10.23"/><path d="m3322.45 1877.55c5.14.16 10.09-1.78 11.26-8.5.86-4.88-6.03-10.96-11.98-10.66-6.45.34-10.43 3.91-10.55 10.45-.13 6.62 4.37 8.68 11.27 8.71"/><path d="m3373.65 1849.51c-5.61.95-8.88 4.41-8.49 9.76.4 5.72 4.35 9.78 10.12 9.72 5.6-.06 8.26-4.61 8.22-9.83-.06-6.14-3.98-9.12-9.85-9.65"/><path d="m2973.32 2217.32c.19 4.02.34 8.61 6.33 9.16 5.57.51 12.77-5.98 12.95-11.69.18-6.2-3.25-9.67-9.18-10.25-5.51-.53-9.85 5.04-10.1 12.78"/><path d="m2935.52 2217.71c-6.27.06-9.91 2.59-10.04 8.33-.15 5.82 2.72 10.16 8.84 10.41 5.85.24 9.78-3.27 10.2-9.2.46-6.53-4.27-8.59-9-9.54"/><path d="m2046.84 934.531c-.06-5.441-3.58-5.98-6.94-6.351-3.68-.399-5.27 2.16-5.16 5.25.14 3.711 2.15 6.371 6.35 6.218 3.7-.128 5.56-2.238 5.75-5.117"/><path d="m2708.33 1316.78c-.05-5.44-3.57-5.99-6.93-6.36-3.69-.4-5.27 2.17-5.16 5.25.14 3.72 2.15 6.37 6.35 6.23 3.69-.13 5.55-2.24 5.74-5.12"/><path d="m2085.41 934.531c-.05-5.441-3.58-5.98-6.94-6.351-3.68-.399-5.27 2.16-5.15 5.25.13 3.711 2.14 6.371 6.34 6.218 3.69-.128 5.56-2.238 5.75-5.117"/><path d="m2757.25 1318.47c-.05-5.43-3.58-5.99-6.94-6.35-3.68-.4-5.27 2.16-5.15 5.24.13 3.72 2.14 6.37 6.33 6.23 3.71-.13 5.57-2.24 5.76-5.12"/><path d="m1595.8 593.148c-.04-5.277-2.73-5.808-5.29-6.168-2.81-.39-4.02 2.098-3.94 5.09.1 3.621 1.64 6.18 4.84 6.051 2.82-.121 4.25-2.172 4.39-4.973"/><path d="m1621.67 597.512c-.05-5.301-3.49-5.852-6.77-6.203-3.6-.387-5.15 2.113-5.04 5.121.13 3.629 2.1 6.218 6.2 6.082 3.61-.133 5.43-2.192 5.61-5"/></g></g></svg>