<?xml version="1.0" encoding="UTF-8" standalone="no"?>
<svg
   xmlns:dc="http://purl.org/dc/elements/1.1/"
   xmlns:cc="http://creativecommons.org/ns#"
   xmlns:rdf="http://www.w3.org/1999/02/22-rdf-syntax-ns#"
   xmlns:svg="http://www.w3.org/2000/svg"
   xmlns="http://www.w3.org/2000/svg"
   xmlns:sodipodi="http://sodipodi.sourceforge.net/DTD/sodipodi-0.dtd"
   xmlns:inkscape="http://www.inkscape.org/namespaces/inkscape"
   viewBox="0 0 544.70476 390.05323"
   version="1.1"
   id="svg48"
   sodipodi:docname="pausa.svg"
   width="544.70477"
   height="390.05322"
   inkscape:version="0.92.3 (2405546, 2018-03-11)">
  <metadata
     id="metadata54">
    <rdf:RDF>
      <cc:Work
         rdf:about="">
        <dc:format>image/svg+xml</dc:format>
        <dc:type
           rdf:resource="http://purl.org/dc/dcmitype/StillImage" />
        <dc:title></dc:title>
      </cc:Work>
    </rdf:RDF>
  </metadata>
  <defs
     id="defs52" />
  <sodipodi:namedview
     pagecolor="#ffffff"
     bordercolor="#666666"
     borderopacity="1"
     objecttolerance="10"
     gridtolerance="10"
     guidetolerance="10"
     inkscape:pageopacity="0"
     inkscape:pageshadow="2"
     inkscape:window-width="680"
     inkscape:window-height="480"
     id="namedview50"
     showgrid="false"
     fit-margin-top="0"
     fit-margin-left="0"
     fit-margin-right="0"
     fit-margin-bottom="0"
     inkscape:zoom="0.38840716"
     inkscape:cx="272.15479"
     inkscape:cy="187.40322"
     inkscape:window-x="1865"
     inkscape:window-y="145"
     inkscape:window-maximized="0"
     inkscape:current-layer="svg48" />
  <g
     id="g24"
     style="fill-rule:evenodd"
     transform="translate(-148.79522,-95)">
    <path
       d="m 457.7,140.5 c 16.3,-10 31.6,-9.4 42.9,-4 11.3,5.4 16.3,19.2 14.8,31.6 -1.5,12.4 -7.6,31.3 -30,33.5 -22.4,2.2 -39.2,-5.1 -42.1,-17.4 -2.9,-12.3 0,-39.6 14.4,-43.7"
       id="path2"
       inkscape:connector-curvature="0"
       style="fill:#ece200" />
    <path
       d="m 391.6,376.3 c 0,0 55.5,0.6 78.9,-2.6 34,-4.6 40.7,-8.5 77.7,-22.8 L 517.9,438 c 0,0 -113.8,75.1 -200.3,25.8 -86.5,-49.3 -95.5,-113.9 -95.5,-113.9 l 73.4,-59.1 28.3,42.6 -68.7,26 3.4,20.4 99.7,56.9 24,5.7 43.2,-30.2 -0.8,-15.4 z"
       id="path4"
       inkscape:connector-curvature="0"
       style="fill:#7bc191" />
    <path
       d="m 454.6,465.7 c -11.7,3.2 -37.9,8.8 -37.9,8.8 0,0 1.9,4.6 2.7,5.9 0.3,0.4 1,0.8 1.5,0.8 0.9,0 1.7,-0.4 2.6,-0.6 2.5,-0.5 5,-0.9 7.4,-1.3 1,-0.2 2,-0.5 2.9,-0.9 1.1,-0.5 2,-0.5 2.3,0.7 0.4,1.2 -0.3,2 -1.4,2.3 -1.5,0.3 -3.1,0.6 -4.6,0.9 -2.6,0.5 -5.1,1 -7.7,1.6 -0.7,0.2 -1.4,0.6 -2.1,0.9 -1.6,0.7 -3,-0.1 -3.6,-1.8 -0.8,-2.4 -3.6,-7.6 -3.6,-7.6 0,0 -6.6,1.1 -8.8,1.2 -4.9,0.1 -9.7,0.1 -14.6,-0.3 -4.8,-0.4 -9.5,-1.4 -14.2,-2.2 -3.4,-0.5 -6.9,-0.9 -10.3,-1.6 -5.8,-1.3 -11.5,-2.8 -17.2,-4.3 -10,-2.7 -19.7,-6.1 -28.9,-10.7 -2.7,-1.3 -5.2,-3 -7.8,-4.6 -4.9,-2.9 -9.9,-5.8 -14.8,-8.9 -3.7,-2.4 -7.3,-4.9 -10.8,-7.6 -2.8,-2.2 -5.6,-4.5 -8.1,-6.9 -5.8,-5.6 -3.4,-2.7 -16.3,-17.9 -12.9,-15.2 -21.9,-32.4 -25,-38.5 -1.8,-3.5 -2.8,-7.5 -4.3,-11.1 -1.9,-4.3 -4,-8.6 -6.1,-12.8 -0.8,-1.5 -1.7,-1.6 -3,-0.4 -5,4.5 -10,9 -15,13.5 -0.1,0 -0.1,0.1 -0.2,0.1 -2.8,2.8 -2.8,2.8 -5.5,-0.1 -0.8,-0.9 -1.7,-1.8 -2.6,-2.7 -1,-1 -1.1,-1.9 0,-2.8 2.4,-2 4.9,-4 7.3,-6.1 2.1,-1.8 10.3,-9.5 10.3,-9.5 0,0 -0.6,-2.1 -1.4,-4.9 -1.6,-5.6 -3.6,-11.1 -5.4,-16.6 -2.2,-6.6 -4.5,-13.3 -6.6,-19.9 -1.8,-5.6 -3.7,-11.2 -5.2,-16.9 -1.1,-3.8 -1.7,-7.7 -2.6,-11.6 -0.4,-1.7 -0.9,-3.3 -1.3,-5 -0.4,-1.3 -1.3,-1.6 -2.4,-1 -1.1,0.5 -2.2,1.2 -3.3,1.8 -0.8,0.4 -1.6,0.7 -2.2,-0.2 -0.5,-0.8 -0.9,-1.7 0.3,-2.5 1.2,-0.8 2.4,-1.6 3.6,-2.4 1.7,-1.1 1.9,-1.5 0.8,-3.1 -1.3,-1.9 -2.8,-3.6 -4.2,-5.3 -1.9,-2.3 -3.9,-4.6 -5.8,-6.9 -1.5,-1.7 -3.1,-3.4 -4.4,-5.1 -1.3,-1.7 -2.5,-3.6 -3.7,-5.4 -0.7,-1.1 -1.2,-2.3 -2,-3.3 -4,-5 -7.2,-10.5 -10.1,-16.3 -2.3,-4.5 -8.8,-23 -10.4,-27.5 -0.6,-1.9 -1.5,-3.7 -2.1,-5.5 -0.1,-0.4 1.4,-1.1 1.6,-0.7 2.1,5.4 4.1,10.2 6.2,16.3 2.1,6.1 5.2,14 8.9,20.5 4.5,8 10,15.4 15.9,22.5 3.9,4.7 8,9.2 12,13.8 0.4,0.4 0.8,0.8 1.2,1.1 1.7,1.4 2.3,0.4 3.8,-0.8 1.3,-1.1 2.1,-1.1 2.6,-0.4 1,1.2 1,1.6 1.3,2.6 0.1,0.4 -1,1.2 -1.6,1.8 -0.4,0.4 -0.7,0.7 -1.1,1.1 0.4,0.1 0.9,0.3 1.3,0.4 2.5,0.6 5,1.3 7.6,1.8 5.2,1 10.5,1.8 15.8,2.8 1.8,0.3 3.6,1 5.4,1.4 4.1,1 8.3,2 12.4,2.8 5.2,1 10.4,1.8 15.6,2.8 3.2,0.6 6.5,1.2 9.7,1.8 4.2,0.8 8.4,1.8 12.7,2.6 3.7,0.6 13.2,2.5 13.2,2.5 0,0 12.7,-9.7 15,-11.9 1,-0.9 1.9,-0.9 3,-0.2 1.4,0.9 2.9,1.6 4.2,2.6 1.6,1.1 1.7,1.6 0.3,2.9 -3,2.6 -6,5.2 -9.2,7.6 -4.3,3.2 -8.6,6.3 -13,9.4 -0.9,0.7 -0.8,1.1 -0.2,2 2.5,3.5 4.9,7 7.2,10.5 3,4.6 5.9,9.4 9,14 2.9,4.3 15,14.8 15,14.8 0,0 8.7,-2.1 13,-3.1 1,-0.2 1.7,-0.1 2.6,0.6 5.3,3.7 10.1,8 14.7,12.5 2.9,2.8 11.7,10.4 11.7,10.4 0,0 11.4,4 17.1,5.5 11.3,3 27.2,14 30.9,17.3 1.5,1.3 2,1.6 5.6,4.4 1.3,0.7 1.6,0.4 3,0.3 5,-0.1 23.3,-1.8 27.4,-2.3 4.4,-0.6 8.8,-1.1 13.3,-1.7 6.2,-0.8 12.4,-1.6 18.5,-2.6 6.2,-1.1 12.3,-2.4 18.4,-3.7 3.6,-0.7 7.1,-1.4 10.6,-2.5 8.3,-2.6 16.6,-5.2 24.8,-8.1 3.1,-1.1 7.7,-2.9 7.7,-2.9 0,0 4.6,-13.6 5.4,-17.2 0.6,-2.7 0.2,-3.6 3.1,-4.2 2.9,-0.5 8.1,-1.7 9,-1.8 0.9,-0.1 1.3,0.7 0.8,1.6 -0.7,1.3 -1.4,2.7 -2.1,4 -0.3,0.5 -0.6,1.1 -0.8,1.7 -0.7,1.9 -0.7,2.1 1.3,2.5 4.5,0.9 9,1.7 13.6,2.6 0,-0.2 10.6,1.3 15.8,2.3 2.2,0.4 4.3,0.7 6.5,1 2.5,0.3 5,0.8 7.5,0.8 3,0 5.9,0.6 8.9,0.9 0.4,0 1.2,-0.6 1.2,-0.8 0,-1.2 -0.3,-2.4 -0.4,-3.6 -0.1,-0.7 -0.3,-1.5 -0.3,-2.2 0,-1.4 0.7,-1.9 2.1,-2 1.3,-0.1 2.2,0.2 2.4,1.6 0.1,0.7 0.2,1.5 0.3,2.2 0.3,1.4 0.4,2.5 1.6,1.8 2.5,-1.6 5.9,-3.8 8.3,-5.5 4,-2.9 8,-5.8 12,-8.7 3.2,-2.4 6.4,-4.9 9.7,-7.3 2.1,-1.6 4.2,-3.1 6.2,-4.8 4.5,-3.7 9,-7.4 13.3,-11.3 4.3,-3.9 8.5,-8 12.6,-12.1 2,-2 3.7,-4.2 5.4,-6.4 1.3,-1.6 2.8,-3 5,-3.4 0.4,-0.1 0.8,0.1 1.2,0.1 -0.1,0.4 -0.2,0.8 -0.4,1 -3.4,3.5 -6.7,7 -10.2,10.5 -2.7,2.7 -5.4,5.5 -8.2,8.1 -3.9,3.6 -7.8,7.1 -11.8,10.6 -1.8,1.6 -3.6,3.2 -5.5,4.7 -6.2,4.8 -12.5,9.5 -18.7,14.3 -3.6,2.8 -7.1,5.6 -10.7,8.4 -1,0.8 -2.2,1.4 -3.1,2.3 -1.5,1.3 -4,2.6 -5.1,4.2 -0.6,0.8 0.9,5.7 1.1,6.8 0.2,1.2 -0.5,2 -1.5,2.4 -1,0.4 -1.9,0.4 -2.2,-0.9 -0.2,-0.9 -0.5,-1.8 -0.9,-2.7 -0.1,-0.4 -0.4,-0.7 -0.5,-1 -0.3,0.2 -0.7,0.4 -0.9,0.7 -1.7,2.3 -3.4,4.7 -5.1,7 -2.5,3.3 -5.1,6.6 -7.6,10 -1,1.4 -2,2.8 -3,4.2 -2.2,3 -4.2,6.1 -6.6,9 -2.4,2.9 -4.9,5.7 -7.5,8.5 -2.9,3.2 -6,6.2 -8.9,9.4 -3.8,4.3 -7.4,8.9 -11.1,13.2 -1.4,1.7 -3.1,3.1 -4.6,4.7 -3.3,3.2 -6.7,6.4 -9.8,9.7 -3.2,3.4 -6.2,7.1 -9.4,10.6 -3,3.3 -22.9,25.6 -22.9,25.6 -1.3,3.1 -0.9,2.1 -1.5,6.4 -0.7,4.6 -1.3,5.5 -5.9,5.2 -1.6,-0.1 -3.3,0 -5,-0.1 -2.1,-0.1 -2.8,-0.9 -2.3,-2.9 2,-8.6 4,-17.2 6.1,-25.8 1.1,-4.6 2.4,-9.2 3.5,-13.8 0.1,-0.3 0,-0.6 0,-0.9 -0.2,0.1 -0.5,0.2 -0.7,0.3 -6.1,5.5 -13.6,8.7 -20.6,12.7 -9.3,5.7 -25.7,12.2 -37.4,15.4 z m -93,-29.1 c 0.7,-0.4 1.4,-0.8 2.1,-1.4 1.4,-1.2 30.2,-20.1 33.4,-22 3.7,-2.2 7.4,-4.4 11.1,-6.7 3.2,-2 6.3,-4.1 9.4,-6.2 1.9,-1.3 1.9,-1.6 0,-2.8 -2.8,-1.9 -5.8,-3.6 -8.5,-5.7 -3.7,-3 -7.3,-6.3 -10.9,-9.4 -0.9,-0.8 -1.9,-1.6 -2.9,-2.4 -2.8,-2.1 -5.7,-4.1 -8.4,-6.3 -3.1,-2.5 -6.2,-5 -9.2,-7.5 -3.9,-3.2 -7.8,-6.3 -11.6,-9.6 -3.5,-3 -6.8,-6.4 -10.3,-9.4 -5.5,-4.7 -11.1,-9.1 -16.6,-13.8 -1.5,-1.3 -2.9,-1.4 -4.7,-0.8 -5,1.6 2.6,-0.6 -15.1,4.7 -17.7,5.3 -44.7,15.3 -51.9,17.1 -3.1,0.8 -6,1.9 -8.5,3.9 -0.9,0.7 -1.8,1.4 -1,2.7 2.2,3.8 4.3,7.6 6.5,11.4 2.5,4.3 4.9,8.7 7.5,13 0.9,1.5 2.1,2.9 3.4,4 1.4,1.2 26.2,15.7 31.7,20 0.3,0.3 13.4,-1.1 19.3,-2.3 6.9,-1.4 13.5,-3.8 19.7,-7.1 1.5,-0.8 3.1,-1.9 4.8,-1.8 1.7,0.1 1.5,1.3 1,2.2 -0.5,0.9 -17.3,9.2 -24.9,10.1 -4.1,0.9 -8.4,1.3 -12.6,1.9 -0.4,0.1 -0.9,0.3 -1.3,0.4 0.3,0.3 11.4,7 13.9,8.4 4.9,2.6 9.8,5.2 14.7,7.8 1.7,0.9 12.5,5.1 16.1,6.4 1.3,0.4 2.5,0.7 3.8,1.2 z m 61,-54 c -0.1,-0.2 0.8,0.9 2,2.6 1.1,1.6 3.3,4.5 3.3,5.3 -0.1,0.8 -1.7,1.6 -2.2,1.4 -0.8,-0.2 -1.5,-0.9 -2,-1.5 -1.7,-2.2 -6.5,-7.8 -6.5,-7.8 0,0 -3.5,-0.4 -5.3,-0.6 -3.2,-0.4 -6.4,-0.7 -9.6,-1.1 -0.3,0 -0.5,0 -0.8,-0.1 0.1,0.2 0.2,0.5 0.4,0.6 1.8,1.8 3.6,3.6 5.4,5.3 1.1,1.1 2.3,2.1 3.6,3 2,1.4 4.1,2.7 6.2,4 1.9,1.2 3.7,2.5 5.7,3.3 1.2,0.5 1.7,1.1 1.8,2.3 0.1,2.5 0.3,5.1 0.4,7.6 0.1,2.5 0.2,4.7 -2.6,6.5 -4.5,2.9 -13.8,9.6 -13.8,9.6 0,0 0.5,0.6 1.5,1.2 2.7,1.5 4.6,2.7 7.2,4.3 3.8,2.2 7.5,4.5 11.4,6.6 3.6,2 7.3,3.8 10.9,5.8 2.5,1.4 5,2.2 7.9,1.7 1.9,-0.4 4,-0.2 6,-0.4 4.7,-0.5 9.4,-0.9 14.1,-1.7 4.5,-0.8 9,-1.9 13.5,-2.9 3.1,-0.7 6.3,-1.5 9.3,-2.5 4.2,-1.4 8.3,-3 12.4,-4.5 2.9,-1 5.8,-2 8.7,-2.9 1.6,-0.5 3.2,-0.8 4.7,-1.5 0.8,-0.4 1.6,-1.2 1.9,-2 1,-2.3 1.7,-4.6 2.5,-7 2,-6.5 3.8,-13.1 6,-19.5 1.7,-4.8 4,-9.5 6,-14.2 0.2,-0.6 0.5,-1.1 0.7,-1.7 2.6,-6.4 5.3,-12.8 7.9,-19.3 0.3,-0.8 0.6,-1.6 1,-2.4 -0.9,0.2 -1.8,0.4 -2.7,0.6 -0.1,0 -0.1,0.1 -0.2,0.1 -3.1,1.1 -6.3,2.3 -9.4,3.4 -2.5,0.9 -4.9,1.7 -7.4,2.4 -3.7,1.2 -7.4,2.5 -11.2,3.5 -5,1.3 -10.1,2.3 -15.3,3.4 -6.1,1.2 -12.2,2.4 -18.4,3.4 -7.1,1.1 -14.2,1.8 -21.4,2.8 -3.8,0.7 -33.5,3.1 -33.6,2.9 z m -10.8,89.8 c 0.2,0 -1.1,-3 -1.5,-3.9 -1.2,-3.3 -2.5,-6.5 -3.6,-9.8 -0.7,-2.3 -3.9,-11.7 -3.9,-11.7 0,0 -18.1,-1.2 -24.9,-3 -6.6,-1.7 -13.2,-3.5 -19.6,-6 -4.8,-1.9 -9.8,-3.6 -14.5,-5.8 -5.5,-2.6 -10.8,-5.6 -16.2,-8.5 -3.2,-1.7 -49.1,-29.4 -54,-32.7 -3.9,-2.6 -8,-5.1 -13.9,-9.5 -3.6,-2.6 -6.9,-5.6 -10.2,-8.7 -3.5,-3.3 -6.7,-6.8 -10,-10.2 -1.7,-1.8 -3.4,-3.5 -5.2,-5.2 -0.2,-0.2 -0.6,-0.3 -0.9,-0.4 0,0.3 -0.2,0.6 -0.1,0.9 1.4,3.5 2.7,7.1 4.2,10.5 1.5,3.5 3.3,6.8 4.8,10.2 1.9,4.5 14.3,22 17.9,26.7 3.3,4.2 6.3,8.5 9.8,12.5 2.4,2.9 5.5,5.2 8,8 4,4.5 8.8,8 13.5,11.7 5.5,4.3 11.7,7.7 17.7,11.2 4.6,2.7 9.2,5.5 14,7.8 5.8,2.7 11.9,5 17.9,7.3 3.2,1.2 6.6,1.8 9.9,2.6 5.2,1.3 10.3,2.8 15.6,3.8 7.1,1.3 14.2,2.3 21.4,3.3 20.1,0.8 22,-0.8 23.8,-1.1 z M 255.2,375 c -0.1,-0.7 -0.1,-1.1 -0.2,-1.4 -1,-2.1 -2.1,-4.2 -2.9,-6.4 -0.9,-2.6 -2,-4.6 1.1,-7.7 3.1,-3.1 0.1,-0.1 0.1,-0.2 1.6,-1.3 2.9,-3 4.7,-3.9 8.3,-4.2 32.1,-11.4 34.6,-12.4 3.4,-1.4 6.8,-3 10.3,-4.1 5.4,-1.8 10.9,-3.3 16.3,-5 1.4,-0.4 1.5,-0.8 0.5,-1.7 -1.6,-1.6 -3.3,-3.1 -5,-4.6 -5.6,-5 -9.5,-11.3 -13.6,-17.5 -3.5,-5.2 -7,-10.5 -10.4,-15.8 -0.5,-0.7 -1,-0.7 -1.5,-0.3 -1.1,0.8 -2.1,1.7 -3.2,2.6 -4.5,3.7 -8.9,7.5 -13.5,11.2 -6.2,5 -12.3,10.1 -18.5,15.1 -3.7,3 -7.5,5.8 -11.1,8.9 -4.8,4.1 -9.5,8.3 -14.3,12.4 -0.9,0.7 -0.9,1.3 -0.5,2.3 1.1,3.3 11.1,12.3 13.4,14.7 2.3,2.4 9.3,10.1 10.7,11.4 0.7,0.7 1.7,1.4 3,2.4 z m 264.5,87.4 v 1.4 c 0.4,-0.3 0.8,-0.6 1.2,-1 1.5,-1.8 2.8,-3.7 4.3,-5.4 3.4,-4 6.7,-8 10.2,-11.9 2.4,-2.7 5,-5.3 7.4,-8 2.2,-2.4 4.3,-4.8 6.6,-7.1 4.3,-4.3 8.7,-8.4 12.8,-12.8 4.1,-4.4 7.9,-9.2 11.9,-13.7 3.1,-3.5 6.4,-6.8 9.6,-10.3 2.9,-3.2 5.9,-6.4 8.5,-9.8 3.8,-4.9 7.3,-9.9 10.9,-14.9 2.7,-3.8 5.4,-7.6 8.1,-11.4 0.2,-0.3 0.3,-0.8 0.4,-1.2 -0.4,0.2 -0.9,0.3 -1.2,0.5 -3.5,2.7 -7,5.5 -10.5,8.2 -2.8,2.2 -5.7,4.2 -8.6,6.4 -3.9,3 -7.7,6 -11.6,8.9 -3.1,2.4 -6.1,4.8 -9.3,7.2 -4.2,3.1 -8.6,6 -12.6,9.2 -3.6,2.9 -6.7,6.3 -10.1,9.4 -3.6,3.3 -7.3,6.4 -10.8,9.9 -2.6,2.5 -5.4,5.1 -7.1,8.2 -1.9,3.3 -2.8,7.1 -3.8,10.8 -0.9,3.4 -6.4,27.4 -6.3,27.4 z m -99,-14.8 c -4,0 -7.8,0 -11.7,0 -1.3,0 -2,-0.5 -1.7,0.8 0.3,1.4 0.8,3.7 1.2,5 1.8,5.4 3.1,9.1 5,14.4 0.4,1.1 1.9,4.2 1.9,4.2 0,0 18,-3.5 30.1,-6.6 10.8,-2.7 27.1,-8.5 39.3,-14.2 8.7,-4 15.3,-8.5 16.9,-9.3 3.6,-1.9 7,-4.2 9.9,-7.3 1,-1.1 1.9,-2.3 2.8,-3.5 0.1,-0.2 0.1,-0.5 0.2,-0.7 -0.2,0 -0.5,0 -0.8,0.1 -1.9,0.6 -3.9,1.2 -5.8,1.8 -4.3,1.3 -38.9,11.2 -44.5,12 -4.8,0.7 -33.3,4 -42.8,3.3 z m 184.2,-89.2 c -0.6,0 -1.1,-0.2 -1.5,-0.1 -7.2,1.3 -14.4,2.4 -21.5,4.6 -7.2,2.3 -14.8,3.7 -22.2,5.4 -3.1,0.7 -6.3,1.4 -9.5,2 -1.9,0.4 -3.4,1.3 -4,3.1 -1.9,5.3 -4,10.5 -5.7,15.9 -2.8,8.8 -5.2,17.8 -7.8,26.7 -0.1,0.3 0,0.6 0,0.9 0.3,-0.2 0.6,-0.3 0.8,-0.5 1.3,-1.2 2.5,-2.5 3.8,-3.7 1.6,-1.4 3.3,-2.7 4.9,-4.1 4.1,-3.7 8.1,-7.5 12.2,-11.3 1.2,-1.1 2.3,-2.2 3.6,-3.1 3.2,-2.4 6.6,-4.7 9.8,-7.1 2.8,-2 5.5,-4.2 8.2,-6.2 4,-3 7.9,-6.1 11.9,-9.1 2.5,-1.9 5,-3.9 7.4,-5.8 2.9,-2.2 5.8,-4.4 8.6,-6.6 0.4,-0.2 0.6,-0.5 1,-1 z M 203.4,265.7 c 0.3,0.4 2.5,1.7 2.9,2 4.7,3.4 9.5,6.7 14.3,10.1 1.3,0.9 2.8,1.7 4.3,2.4 2.9,1.6 5.9,2.9 8.7,4.6 5,3 9.8,6.3 14.7,9.4 4.4,2.8 8.9,5.5 13.2,8.4 1.1,0.7 1.9,0.7 2.9,-0.2 4.8,-4 17.8,-14.2 19.4,-15.4 1.4,-0.9 2.7,-1.9 4.1,-2.8 0.7,-0.5 0.8,-0.9 -0.2,-1.1 -1,-0.2 -10.9,-2.8 -14.2,-3.6 -5.3,-1.2 -10.7,-2.2 -16.1,-3.3 -3.3,-0.7 -26.6,-5 -34.9,-6.9 -4.6,-1.1 -18.9,-4.4 -18.9,-4.4 0,0 -0.1,0.8 -0.2,0.8 z m -3.9,0.2 c -0.2,0.1 -0.5,0.2 -0.4,0.3 0.1,0.4 0.3,0.8 0.5,1.1 3.8,5.1 7.7,10.1 11.5,15.3 2.6,3.5 4.9,7.2 7.5,10.8 4.5,6.1 9.1,12.2 13.7,18.3 2.5,3.3 5.1,6.7 7.6,10 0.6,0.7 1.1,0.9 1.9,0.3 1.6,-1.3 3.2,-2.6 4.8,-3.8 3,-2.4 6,-4.8 8.9,-7.2 1.6,-1.3 3.2,-2.7 4.9,-4.1 1,-0.9 1,-1.5 -0.3,-2.2 -1.6,-0.8 -3.1,-1.8 -4.6,-2.8 -1.8,-1.2 -3.5,-2.6 -5.4,-3.7 -3.8,-2.4 -7.7,-4.8 -11.5,-7.1 -4.1,-2.5 -8.2,-5 -12.2,-7.5 -3.2,-2 -6.5,-3.9 -9.6,-5.9 -2.4,-1.6 -4.6,-3.4 -7,-5 -2.2,-1.5 -4.5,-2.8 -6.8,-4.3 -1.2,-1 -2.3,-1.7 -3.5,-2.5 z m -2.1,3.6 c 0.1,0.4 0.5,2.3 0.6,2.9 2.2,7.3 4.2,14.6 6.5,21.9 1.9,6 3.9,12 6,17.9 1.5,4.4 3.1,8.7 4.6,13 0.8,2.5 1.4,5 2.3,7.4 0.6,1.8 1.5,3.5 2.4,5.2 0.4,0.8 1,0.8 1.7,0.3 2.3,-1.8 13.3,-11.2 15.3,-12.7 1.9,-1.4 1.9,-2.4 0.5,-4.3 -2.6,-3.4 -5.3,-6.8 -7.9,-10.3 -1.5,-2.1 -2.8,-4.4 -4.4,-6.5 -2.6,-3.4 -5.4,-6.7 -7.9,-10.2 -2.4,-3.3 -4.6,-6.8 -7,-10.1 -2.1,-2.9 -4.3,-5.7 -6.5,-8.5 -1.5,-1.9 -5.4,-6.8 -5.4,-6.8 0,0 -0.7,0.1 -0.8,0.8 z m 312.4,208.2 c 1.6,0.1 2.8,-0.3 3.3,-1.6 0.7,-1.8 4.1,-13.1 4.7,-17.1 1.2,-7.1 3.3,-14.1 5.1,-21.2 1.1,-4.4 2.1,-9 3.8,-13.2 1.3,-3.2 3,-6.1 3.9,-9.5 1.2,-4.4 5.7,-19.9 6.8,-23.3 1.4,-4.5 14.2,-37.9 16,-42.5 0.5,-1.4 1.8,-6.4 2.2,-7.3 0.7,-1.4 1.6,-2.7 2.3,-4.1 0.2,-0.4 0.9,-1.3 0.2,-1.4 -0.7,-0.1 -3.1,0.4 -3.9,0.7 -1.5,0.4 -2.4,1.2 -2.8,2.7 -0.4,1.8 -0.8,3.6 -1.3,5.4 -1.1,3.7 -1.9,7.5 -3.4,11 -2.9,6.8 -6.7,13.2 -9,20.3 -1,3.1 -11,28.6 -12.9,34.5 0,0.1 -0.1,0.3 -0.1,0.4 -2.5,7.6 -4.9,15.1 -7.3,22.7 -0.3,1 -2,8.2 -2.8,10.7 -1,3.6 -6.5,23.4 -7.9,29.8 -0.4,1.8 -0.3,2.1 1.6,2.6 0.6,0.3 1.2,0.4 1.5,0.4 z m 84.3,-119.8 c 2,-0.4 4.1,-0.7 6.1,-1.2 3.1,-0.7 6.1,-1.4 9.2,-2.2 0.3,-0.1 0.5,-0.4 0.8,-0.6 -0.3,-0.2 -0.6,-0.5 -0.9,-0.5 -2.4,-0.4 -4.9,-0.7 -7.3,-1.1 -1.4,-0.2 -2.8,-0.6 -4.2,-0.8 -3.3,-0.5 -6.7,-0.9 -10,-1.4 -8.6,-1.3 -17.2,-2.5 -25.8,-3.8 -1.3,-0.2 -3,-0.9 -3.9,-0.4 -1,0.6 -1.3,2.4 -1.9,3.7 -2.3,5.5 -4.5,11 -6.8,16.6 -0.7,1.6 -0.4,1.9 1.1,1.6 3.4,-0.6 6.7,-1.4 10.1,-2.1 3.6,-0.7 16.1,-3.4 18.5,-4 2.4,-0.6 14.1,-3.7 15,-3.8 z m -388.8,3.2 c 0.5,-0.3 0.8,-0.5 1.1,-0.7 3.7,-3.3 7.4,-6.6 11,-9.9 2.1,-1.9 4,-4 6.1,-5.8 2.3,-2 4.9,-3.8 7.2,-5.7 3.6,-3 7,-6.5 10.9,-9.1 4.5,-3.1 8.4,-6.9 12.6,-10.2 2,-1.5 4,-3.1 6,-4.7 3.1,-2.5 6.2,-5 9.3,-7.6 4.8,-4 9.3,-8.3 14.2,-12.2 3.8,-3 7.9,-5.6 11.8,-8.5 5.5,-4.1 10.8,-8.4 16.3,-12.6 0.7,-0.5 1.5,-1.2 0.8,-2 -0.6,-0.6 -1.7,-1.1 -2.4,-0.9 -1,0.2 -2,0.9 -2.8,1.6 -3.8,3.5 -7.7,7 -12.3,9.6 -5.8,3.4 -11.3,7.2 -16.5,11.6 -5.3,4.5 -10.8,8.7 -16.1,13.2 -3.9,3.3 -7.5,6.8 -11.4,10.1 -2.4,2 -5.1,3.7 -7.6,5.6 -2.1,1.5 -4.3,3 -6.3,4.7 -4.3,3.6 -8.4,7.2 -12.6,10.9 -2.4,2.1 -4.8,4.1 -7.2,6.2 -1.3,1.1 -2.4,2.4 -3.6,3.6 -3.2,3 -6.5,5.9 -9.7,8.9 -0.4,0.4 -0.5,1.4 -0.3,2 0.2,0.5 0.9,1.2 1.5,1.9 z m 217,45.8 c -0.2,-1.7 -0.3,-3.3 -0.5,-4.9 0,-0.1 -0.6,-0.4 -0.8,-0.3 -1.3,0.6 -2.7,1.1 -3.9,1.9 -3.4,2.1 -6.8,4.4 -10.2,6.5 -5.1,3.1 -34,21.3 -37.9,24.1 -0.3,0.2 -0.5,0.4 -0.8,0.7 -1,0.9 -0.9,1.7 0.3,2.2 3,1.1 6,2.2 9.1,3.2 0.3,0.1 0.9,0 1.2,-0.1 1.7,-1.1 3.5,-2.2 5.2,-3.4 0.9,-0.6 0.8,-1.2 -0.1,-1.7 -0.8,-0.4 -1.7,-0.7 -2.3,-1.3 -0.5,-0.5 -0.8,-1.5 -0.6,-2.2 0.2,-1 1.1,-0.8 1.9,-0.5 1.1,0.6 2.2,1.3 3.4,1.8 0.6,0.3 1.5,0.6 2,0.3 4.3,-2.6 8.5,-5.4 12.7,-8.1 1.5,-1 1.4,-0.9 0,-1.9 -0.5,-0.4 -1.1,-1.2 -1,-1.7 0.1,-0.5 0.4,-1.3 1.1,-1.5 0.5,-0.2 1.9,0.2 2.3,0.6 2.8,1.3 2.8,1.3 3.9,0.6 0.5,-0.6 3.4,-2.6 4.1,-3.1 2.9,-2.1 5.8,-4.2 8.7,-6.2 1.5,-1.1 2.1,-3 2.2,-5 z m 13.4,37 c 0.3,0 0.6,-0.3 1,-0.5 -0.3,-0.2 -0.5,-0.4 -0.8,-0.6 -1.4,-0.7 -2.8,-1.4 -4.2,-2.2 -4.2,-2.3 -8.3,-4.6 -12.4,-6.9 -4.3,-2.5 -14.4,-7.8 -14.4,-7.8 0,0 -9.5,5.9 -11.8,7.4 -2,1.2 -2.5,2 -2.5,2 0,0 11.8,5.9 14.4,6.6 2.3,0.7 2.2,2.2 2.2,2.2 0,0 24.3,0.1 28.5,-0.2 z m -22,-64.7 c -0.3,-0.5 -6.1,-5 -8.6,-6.6 -3.3,-2 -6.7,-4 -10.1,-6 -4.2,-2.5 -19.9,-8.4 -21.5,-9 -0.2,-0.1 -0.6,0.1 -0.9,0.2 0.1,0.2 14,11.9 20.5,17 0.8,0.7 3,1.9 4.1,2.2 2.1,0.5 16,2.3 16.5,2.2 z M 255.5,362.3 c -0.2,0.2 -0.3,0.4 -0.4,0.5 -0.8,1.1 -0.9,2.2 -0.2,3.4 1.9,3.7 3.8,7.5 5.8,11.1 1.5,2.8 3.2,5.4 6.4,6.6 0.3,0.1 0.7,0.2 1.1,0.2 0,-0.4 0,-0.8 -0.2,-1.1 -0.7,-1.4 -1.3,-2.7 -2.1,-4 -2.7,-4.6 -5.5,-9.2 -8.2,-13.8 -0.5,-0.8 -1,-1.6 -1.6,-2.4 -0.3,-0.1 -0.4,-0.3 -0.6,-0.5 z m 138.7,80.1 c -0.1,0 1.7,0.4 1.9,0.3 -0.2,-0.2 -4.6,-2.6 -5.8,-3.4 -2.6,-1.8 -2.9,-1.8 -5.4,0.1 -0.5,0.4 -0.9,0.9 -1.4,1.4 0.6,0 2.9,0.6 3.5,0.7 z"
       id="path6"
       inkscape:connector-curvature="0" />
    <path
       d="m 477.9,210.9 c -11.2,0.5 -15.1,-1.9 -22.1,-4.7 -3.1,-1.2 -5.9,-3.4 -8.5,-5.5 -5.8,-5.3 -10.9,-10.5 -12,-21.5 -0.8,-6.4 -0.6,-11.5 1.6,-17.6 0.6,-1.7 1.2,-3.3 1.6,-5 1.4,-5.3 4.7,-9.5 8.3,-13.4 2.2,-2.4 5,-4.3 7.7,-6.2 2.3,-1.6 4.8,-3.1 7.3,-4.4 5.8,-2.8 11.9,-5.1 18.5,-4.2 6.7,0.8 13,2.9 19,6.2 4.2,2.3 8,4.9 11.3,8.2 1.3,1.2 4.5,6.5 4.8,7.8 0.5,1.7 0.9,3.4 1.2,5.1 0.4,1.9 1.1,3.8 1.2,5.8 0.5,6.5 -0.9,12.7 -2.5,19 -1.4,5.9 -4.4,10.8 -8,15.4 -2.3,2.9 -4.8,5.8 -7.7,8.2 -3.6,2.9 -11.2,6.3 -21.7,6.8 z m -0.4,-2.5 c 1.9,-0.2 3.9,-0.1 5.7,-0.5 11.4,-2.6 13.6,-4.7 22.1,-13.1 2.6,-3.1 4.9,-6.4 6.4,-10.2 2,-4.6 3,-9.6 3.6,-14.6 0.4,-2.9 0.8,-5.9 0.2,-8.7 -0.9,-4.8 -1.6,-13.5 -8.4,-19.3 -6.8,-5.8 -9.3,-6.5 -14.4,-8.7 -4.2,-1.8 -8.7,-3.2 -13.4,-3 -2.5,0.1 -5.2,-0.3 -7.6,0.4 -7.1,2 -13.7,5.4 -19.4,10 -3.7,3 -6.7,6.6 -9.1,10.7 -2.1,3.8 -6.2,12.8 -6.4,22.2 -0.2,9.3 4.5,19.1 10.3,23.8 5.7,4.7 6.7,5.8 11,7.3 6.3,2.2 12.7,3.7 19.4,3.7 z"
       id="path8"
       inkscape:connector-curvature="0" />
    <path
       d="m 427.4,175.1 c 0.3,2.2 0.9,7.4 1,9.7 0.2,2.3 -1.1,3.7 -5.3,2.3 -4.3,-1.4 -6.4,-2.3 -9.5,-3.5 -3.9,-1.5 -7.9,-3 -11.8,-4.4 -0.4,-0.1 -2.7,-1 -2.9,-2.1 -0.2,-1 0.6,-1.3 1.3,-1.8 1.5,-0.9 3.2,-1.4 4.8,-2.2 3.5,-1.8 6.9,-3.8 10.4,-5.6 2.8,-1.5 5.6,-3 8.5,-4.6 2.7,-1.6 3,8.6 3.5,12.2 z m -1.6,7.7 c -0.1,0 -0.2,-4.8 -0.5,-7.1 -0.3,-3 -1.1,-5.9 -1.6,-8.8 -0.2,-0.9 -0.5,-1.1 -1.4,-0.7 -1.3,0.7 -2.8,1.1 -4.1,1.8 -5,2.7 -13.8,7.6 -14.8,8.2 -0.3,0.2 -0.7,0.7 0.1,1.2 1.4,1 4.9,2.1 6.3,2.6 3.4,1.3 12.5,4.3 13.6,4.5 1.8,0.6 2.4,0 2.4,-1.7 z"
       id="path10"
       inkscape:connector-curvature="0" />
    <path
       d="m 487.7,118.9 c -3.7,-0.2 -7.5,-0.4 -11.2,-0.6 -3,-0.1 -5.9,-0.3 -8.9,-0.4 -0.7,0 -3.3,0.3 -3.9,-0.8 -0.6,-1 2.7,-5.2 3.8,-6.9 1.3,-1.9 2.5,-3.8 3.8,-5.8 1.9,-2.9 3.9,-5.9 5.9,-8.8 0.3,-0.4 1,-0.6 1.5,-0.6 0.4,0 0.8,0.5 1,0.9 2.7,5.3 5.3,10.7 8,16 0.7,1.4 1.4,2.8 2.1,4.2 0.7,1.3 -0.7,3.1 -2.1,2.8 z m -15.4,-3.2 c 4.3,0.2 8.9,0.4 13.6,0.6 1,0.1 1.3,-0.2 0.8,-1.1 -2.7,-5.3 -5.4,-10.5 -8.1,-15.8 -0.4,-0.8 -0.7,-1.1 -1.3,-0.1 -2.9,4.4 -5.9,8.7 -8.7,13.1 -2.1,3.3 -2,3.4 1.9,3.4 0.4,-0.1 0.9,-0.1 1.8,-0.1 z"
       id="path12"
       inkscape:connector-curvature="0" />
    <path
       d="m 534.3,115.9 c -1.1,2.7 -2,5.5 -3.3,8.1 -1.9,3.7 -4.3,10 -5.2,11.6 -0.9,1.5 -1.7,0.9 -2.8,0.4 -3.7,-1.8 -5.2,-4.8 -8.1,-7.3 -1.5,-1.3 -4.7,-3.6 -5.5,-5.1 -0.4,-0.8 0.3,-1.3 0.7,-1.5 5,-3 10,-6 15,-9 2.3,-1.4 4.6,-2.6 6.8,-4.1 1.2,-0.8 3,-1 3.9,0.6 0.4,0.6 -0.8,4.7 -1.5,6.3 z m -0.9,-4.7 c -0.4,-0.5 -1,0 -1.4,0.2 -5.2,2.9 -10.3,5.8 -15.4,8.8 -1,0.6 -1.9,1.4 -2.8,1.9 -0.9,0.5 -0.2,1.4 0,1.7 1.1,1.2 2.3,2.5 3.5,3.6 1.9,1.8 4,3.5 5.9,5.3 0.5,0.5 1.1,0.7 1.4,-0.2 0.5,-1.4 5.6,-12.2 7.5,-16.4 0.7,-1.3 1.7,-4.4 1.3,-4.9 z"
       id="path14"
       inkscape:connector-curvature="0" />
    <path
       d="m 490.1,216.2 c 1.5,-0.1 2.2,1.1 1.5,2.7 -2.9,6.3 -7.3,16.6 -8.2,18.3 -0.9,1.8 -0.9,1.7 -1.7,1.9 -0.8,0.1 -1.5,-0.7 -1.8,-1.2 -1.1,-1.7 -9.9,-13 -11.1,-14.8 -1.2,-1.8 -0.4,-4.1 0.3,-4.2 1.6,-0.2 3.5,-0.5 5.1,-0.8 3.8,-0.5 7.7,-1.1 11.5,-1.5 1.4,-0.2 2.9,-0.2 4.4,-0.4 z m -5,2.9 c 0,-0.1 -9.2,1.1 -13.7,1.7 -0.9,0.1 -1.1,0.4 -0.4,1.2 2.9,3.5 5.7,7.1 8.6,10.7 0.7,0.8 1.4,1.7 2,2.5 0.5,-1 1,-2 1.5,-3 1.7,-3.6 3.4,-7.2 5,-10.9 0.9,-2.1 0.8,-2.1 -1.4,-2.2 -0.5,0 -1.1,0 -1.6,0 z"
       id="path16"
       inkscape:connector-curvature="0" />
    <path
       d="m 533.3,213.1 c 0,1.6 -2.4,3.1 -3.8,2.8 -2.6,-0.5 -5.3,-0.8 -8,-1.3 -4.3,-0.7 -8.5,-1.5 -12.8,-2.2 -0.9,-0.2 -1.9,-0.4 -2.8,-0.6 -2.2,-0.5 -2.7,-1.8 -1.1,-3.3 4.4,-4 13.9,-13.4 14.5,-14 1,-1.1 1.9,-0.9 2.6,0.4 0.4,0.8 1,1.5 1.5,2.2 1.6,2.4 3.2,4.9 4.8,7.3 1.6,2.5 3,5 4.6,7.4 0.2,0.5 0.4,1 0.5,1.3 z m -8.5,-0.1 c 1.3,0.2 5.1,1 5.4,0.3 0.4,-0.8 -5.9,-10.7 -8.2,-14.4 -1.2,-2 -2.2,-2.1 -3.9,-0.6 -0.9,0.8 -7.6,7.5 -10.1,10.1 -0.9,0.9 -0.8,1.6 0.7,1.8 1.4,0.2 2.8,0.6 4.2,0.8 5.1,0.9 10.6,1.8 11.9,2 z"
       id="path18"
       inkscape:connector-curvature="0" />
    <path
       d="m 432.5,206.2 c 0,-0.7 0.2,-1.5 0.5,-2.2 0.4,-1.2 1.7,-1.4 2.7,-0.7 1.3,0.9 2.7,1.6 4,2.4 3.2,1.8 6.4,3.7 9.6,5.5 0.7,0.4 2.8,1.3 2.9,2.1 0.1,0.8 -3.7,3.8 -5.2,5.1 -4.1,3.4 -8.1,6.9 -12.1,10.4 -1.3,1.1 -3.5,-0.4 -3.5,-2.3 0.1,-2.1 0.7,-14 1.1,-20.3 z m 1,18.4 c 0.2,0.7 0,2.1 1.6,0.8 1.8,-1.6 8.9,-6.9 12.2,-10 1.5,-1.4 1.7,-1.9 1.1,-2.3 -2,-1.2 -7.8,-4.2 -11.6,-6.4 -1.3,-0.7 -1.8,-0.3 -2.1,1 -0.2,0.4 -1.3,16.5 -1.2,16.9 z"
       id="path20"
       inkscape:connector-curvature="0" />
    <path
       d="m 427.1,122.1 c 0,-1.4 0.9,-1.7 1.9,-1 6.2,2.7 17.7,7.4 18,7.6 0.6,0.4 1.4,0.8 1.6,1.4 0.1,0.4 -0.4,1.3 -0.9,1.7 -1.9,1.5 -3.9,2.9 -5.9,4.3 -2.4,1.8 -9,7.2 -10.1,8 -0.5,0.4 -1.3,0.7 -1.8,0.6 -0.4,-0.2 -0.8,-1 -0.8,-1.6 -0.6,-4.7 -1.1,-9.4 -1.6,-14.2 -0.1,-1.2 -0.5,-5.7 -0.4,-6.8 z m 2.2,3.6 c 0.1,0.8 0.3,1.6 0.4,2.4 0.4,3.6 0.8,7.1 1.3,10.7 0.1,0.7 0.3,1.4 0.5,2.1 0.7,-0.4 1.4,-0.8 2,-1.3 3.2,-2.6 6.5,-5.3 9.7,-7.9 1.4,-1.1 1.4,-1.2 -0.4,-1.9 -4.1,-1.7 -8.2,-3.5 -12.4,-5.2 -0.9,-0.4 -1.2,0.1 -1.1,1.1 z"
       id="path22"
       inkscape:connector-curvature="0" />
  </g>
  <path
     d="m 456.10478,263.4 c -0.4,0.5 -0.6,0.8 -0.9,1 -2.9,2.2 -5.8,4.4 -8.6,6.6 -2.5,1.9 -4.9,3.9 -7.4,5.8 -4,3.1 -7.9,6.1 -11.9,9.1 -2.7,2.1 -5.4,4.2 -8.2,6.2 -3.3,2.4 -6.6,4.7 -9.8,7.1 -1.3,0.9 -2.4,2 -3.6,3.1 -4.1,3.8 -8.1,7.6 -12.2,11.3 -1.6,1.4 -3.3,2.7 -4.9,4.1 -1.3,1.2 -2.5,2.5 -3.8,3.7 -0.2,0.2 -0.6,0.3 -0.8,0.5 0,-0.3 -0.1,-0.7 0,-0.9 2.6,-8.9 5.1,-17.8 7.8,-26.7 1.7,-5.4 3.8,-10.6 5.7,-15.9 0.7,-1.9 2.1,-2.8 4,-3.1 3.2,-0.6 6.3,-1.3 9.5,-2 7.4,-1.7 14.9,-3.1 22.2,-5.4 7.1,-2.2 14.3,-3.4 21.5,-4.6 0.3,0 0.8,0.1 1.4,0.1 z"
     id="path26"
     inkscape:connector-curvature="0"
     style="fill:none" />
  <path
     d="m 56.50478,266.1 c -0.6,-0.7 -1.3,-1.4 -1.7,-2.2 -0.2,-0.6 -0.1,-1.6 0.3,-2 3.2,-3 6.5,-5.9 9.7,-8.9 1.3,-1.1 2.4,-2.5 3.6,-3.6 2.4,-2.1 4.8,-4.1 7.2,-6.2 4.2,-3.6 8.4,-7.3 12.6,-10.9 2,-1.7 4.2,-3.1 6.3,-4.7 2.5,-1.9 5.2,-3.5 7.6,-5.6 3.9,-3.3 7.5,-6.8 11.4,-10.1 5.3,-4.5 10.8,-8.7 16.1,-13.2 5.1,-4.4 10.7,-8.2 16.5,-11.6 4.6,-2.6 8.4,-6.1 12.3,-9.6 0.8,-0.7 1.8,-1.4 2.8,-1.6 0.8,-0.1 1.9,0.3 2.4,0.9 0.7,0.8 -0.1,1.5 -0.8,2 -5.4,4.2 -10.8,8.5 -16.3,12.6 -3.9,2.9 -8,5.5 -11.8,8.5 -4.9,3.9 -9.5,8.2 -14.2,12.2 -3,2.6 -6.2,5.1 -9.3,7.6 -2,1.6 -4,3.1 -6,4.7 -4.3,3.3 -8.2,7.1 -12.6,10.2 -3.9,2.7 -7.2,6.1 -10.9,9.1 -2.4,2 -4.9,3.7 -7.2,5.7 -2.1,1.8 -4,3.9 -6.1,5.8 -3.6,3.3 -7.3,6.6 -11,9.9 0,0.5 -0.4,0.7 -0.9,1 z"
     id="path28"
     inkscape:connector-curvature="0"
     style="fill:none" />
  <path
     d="m 106.70478,267.3 c 0.2,0.3 0.4,0.5 0.5,0.7 0.5,0.8 1.1,1.6 1.6,2.4 2.8,4.6 5.5,9.2 8.2,13.8 0.8,1.3 1.4,2.7 2.1,4 0.2,0.3 0.1,0.7 0.2,1.1 -0.4,-0.1 -0.8,-0.1 -1.1,-0.2 -3.1,-1.2 -4.9,-3.9 -6.4,-6.6 -2,-3.7 -3.8,-7.4 -5.8,-11.1 -0.6,-1.2 -0.5,-2.3 0.2,-3.4 0.1,-0.4 0.3,-0.5 0.5,-0.7 z"
     id="path30"
     inkscape:connector-curvature="0"
     style="fill:none" />
  <path
     d="m 323.50478,20.7 c -0.9,0 -1.3,0 -1.8,0 -3.8,0 -3.9,-0.1 -1.9,-3.4 2.8,-4.4 5.8,-8.7 8.7,-13.1 0.6,-1 0.9,-0.7 1.3,0.1 2.7,5.3 5.4,10.5 8.1,15.8 0.5,1 0.2,1.2 -0.8,1.1 -4.7,-0.1 -9.3,-0.3 -13.6,-0.5 z"
     id="path32"
     inkscape:connector-curvature="0"
     style="fill:none" />
  <path
     d="m 167.10478,295.3 c -1.6,0.7 -5,-3.2 -4.6,-4.6 0,-0.2 0.1,-1.5 1.4,-0.6 1.2,0.9 2.3,2.9 4.6,1.9 0.4,-0.2 2.5,-1.1 2.9,-1.3 3.1,-1.9 6.1,-3.8 9.3,-5.7 1.5,-0.9 3,-1.7 4.5,-2.5 3.1,-1.6 6.3,-3.2 9.5,-4.9 0.6,-0.3 1.1,-0.8 1.6,-1.3 0.7,-0.8 1,-1.5 -0.1,-2.4 -0.5,-0.4 -1.6,-1.4 -0.6,-2.1 0.9,-0.7 1.7,0 2.2,0.4 1.2,0.9 2.1,2.1 3.2,3.2 0.6,0.7 0.3,1.2 -0.4,1.7 -5.2,3.4 -10.6,6.4 -16.2,9 -4,1.9 -7.7,4.5 -11.6,6.6 -2.2,1.1 -4,1.9 -5.7,2.6 z"
     id="path34"
     inkscape:connector-curvature="0"
     style="fill-rule:evenodd" />
  <path
     d="m 151.40478,274.3 c -0.3,-1.4 0.7,-2.7 1.9,-2.9 0.7,-0.1 2.1,1.7 1.9,2.6 -0.2,1.3 -1.4,1.8 -2.4,1.8 -0.5,-0.1 -1,-0.1 -1.4,-1.5 z"
     id="path36"
     inkscape:connector-curvature="0"
     style="fill-rule:evenodd" />
  <path
     d="m 183.40478,261.5 c 0.6,3 -3.7,2 -3.7,0.5 0,-1.1 0.5,-2.4 1.8,-2.6 1.3,-0.2 1.7,0.9 1.9,2.1 z"
     id="path38"
     inkscape:connector-curvature="0"
     style="fill-rule:evenodd" />
  <path
     d="m 354.00478,81.1 c -0.1,1.1 -0.4,2.2 -1.7,2.1 -5.9,-0.1 -11.7,0.9 -17.5,1.6 -3.6,0.4 -23.9,0.8 -25.8,0.7 -1.1,0.1 -0.9,-4.4 -0.9,-7.1 0,-0.6 0.4,-1.6 1,-1.8 1,-0.3 1.1,0.7 1.1,1.5 0.1,1.4 0.3,2.7 0.4,4.1 0,1 0.4,1 1.3,1 6.4,-0.1 9.8,0.4 19.3,-0.1 9.4,-0.5 14.8,-1.7 17.8,-2 2.3,-0.2 2.8,-0.7 2.7,-3 0,-0.1 -0.7,-2.9 0.8,-3 1.3,-0.1 1.1,1.4 1.2,2.3 0,0.8 0.3,3.3 0.3,3.7 z"
     id="path40"
     inkscape:connector-curvature="0"
     style="fill-rule:evenodd" />
  <path
     d="m 311.70478,61.2 c -0.1,1.4 -1.3,1.3 -1.8,1.3 -0.8,0 -1.4,-0.4 -1.5,-1.5 0,-1.3 1,-1.4 1.6,-1.5 0.4,-0.1 1.7,0.3 1.7,1.7 z"
     id="path42"
     inkscape:connector-curvature="0"
     style="fill-rule:evenodd" />
  <path
     d="m 346.10478,60.3 c -0.1,0.9 -0.7,1.3 -1.4,1.2 -0.9,0 -1.5,-0.4 -1.5,-1.5 0,-1.1 0.7,-1.3 1.6,-1.2 1,0.1 1.4,0.6 1.3,1.5 z"
     id="path44"
     inkscape:connector-curvature="0"
     style="fill-rule:evenodd" />
  <path
     d="m 377.90478,59.1 c 0.1,-1.5 1.4,-2 2.9,-1.1 5.9,3.6 12.6,7.8 18.4,11.5 0.5,0.3 0.9,1.1 1,1.7 0,0.3 -0.7,0.9 -1.1,1.2 -1.8,0.9 -15.4,8.9 -17.8,10.1 -2.5,1.2 -3,0.4 -3.1,-0.3 -0.2,-2.3 -0.1,-4.6 -0.2,-6.9 -0.1,-3.9 -0.2,-7.7 -0.2,-11.6 0,-1.6 0.1,-3.1 0.1,-4.6 z m 2.5,19.1 c 0,0.9 0.3,1.1 1.1,0.6 3.8,-2.5 8.5,-4.3 12.3,-6.7 0.9,-0.6 1.8,-1.2 2.8,-1.7 -0.9,-0.6 -1.8,-1.2 -2.8,-1.8 -3.4,-2.1 -7.5,-4.9 -11,-6.9 -1.9,-1.1 -2.3,-1.1 -2.7,1 -0.1,0.5 0.2,10.9 0.3,15.5 z"
     id="path46"
     inkscape:connector-curvature="0"
     style="fill-rule:evenodd" />
</svg>
